%TF.GenerationSoftware,KiCad,Pcbnew,10.0.0*%
%TF.CreationDate,2026-04-08T10:46:18+02:00*%
%TF.ProjectId,DymBOX_AVR,44796d42-4f58-45f4-9156-522e6b696361,rev?*%
%TF.SameCoordinates,Original*%
%TF.FileFunction,Copper,L1,Top*%
%TF.FilePolarity,Positive*%
%FSLAX46Y46*%
G04 Gerber Fmt 4.6, Leading zero omitted, Abs format (unit mm)*
G04 Created by KiCad (PCBNEW 10.0.0) date 2026-04-08 10:46:18*
%MOMM*%
%LPD*%
G01*
G04 APERTURE LIST*
G04 Aperture macros list*
%AMRoundRect*
0 Rectangle with rounded corners*
0 $1 Rounding radius*
0 $2 $3 $4 $5 $6 $7 $8 $9 X,Y pos of 4 corners*
0 Add a 4 corners polygon primitive as box body*
4,1,4,$2,$3,$4,$5,$6,$7,$8,$9,$2,$3,0*
0 Add four circle primitives for the rounded corners*
1,1,$1+$1,$2,$3*
1,1,$1+$1,$4,$5*
1,1,$1+$1,$6,$7*
1,1,$1+$1,$8,$9*
0 Add four rect primitives between the rounded corners*
20,1,$1+$1,$2,$3,$4,$5,0*
20,1,$1+$1,$4,$5,$6,$7,0*
20,1,$1+$1,$6,$7,$8,$9,0*
20,1,$1+$1,$8,$9,$2,$3,0*%
G04 Aperture macros list end*
%TA.AperFunction,ComponentPad*%
%ADD10R,1.800000X1.100000*%
%TD*%
%TA.AperFunction,ComponentPad*%
%ADD11RoundRect,0.275000X0.625000X-0.275000X0.625000X0.275000X-0.625000X0.275000X-0.625000X-0.275000X0*%
%TD*%
%TA.AperFunction,ComponentPad*%
%ADD12RoundRect,0.250000X0.650000X1.550000X-0.650000X1.550000X-0.650000X-1.550000X0.650000X-1.550000X0*%
%TD*%
%TA.AperFunction,ComponentPad*%
%ADD13O,1.800000X3.600000*%
%TD*%
%TA.AperFunction,ComponentPad*%
%ADD14RoundRect,0.250001X0.949999X-0.949999X0.949999X0.949999X-0.949999X0.949999X-0.949999X-0.949999X0*%
%TD*%
%TA.AperFunction,ComponentPad*%
%ADD15C,2.400000*%
%TD*%
%TA.AperFunction,ComponentPad*%
%ADD16RoundRect,0.250000X0.550000X-0.550000X0.550000X0.550000X-0.550000X0.550000X-0.550000X-0.550000X0*%
%TD*%
%TA.AperFunction,ComponentPad*%
%ADD17C,1.600000*%
%TD*%
%TA.AperFunction,ComponentPad*%
%ADD18RoundRect,0.250000X1.550000X-0.650000X1.550000X0.650000X-1.550000X0.650000X-1.550000X-0.650000X0*%
%TD*%
%TA.AperFunction,ComponentPad*%
%ADD19O,3.600000X1.800000*%
%TD*%
%TA.AperFunction,ComponentPad*%
%ADD20C,1.400000*%
%TD*%
%TA.AperFunction,ComponentPad*%
%ADD21C,1.700000*%
%TD*%
%TA.AperFunction,ComponentPad*%
%ADD22R,1.700000X1.700000*%
%TD*%
%TA.AperFunction,ComponentPad*%
%ADD23RoundRect,0.275000X-0.625000X0.275000X-0.625000X-0.275000X0.625000X-0.275000X0.625000X0.275000X0*%
%TD*%
%TA.AperFunction,ComponentPad*%
%ADD24RoundRect,0.250000X-1.550000X0.650000X-1.550000X-0.650000X1.550000X-0.650000X1.550000X0.650000X0*%
%TD*%
%TA.AperFunction,ComponentPad*%
%ADD25C,2.000000*%
%TD*%
%TA.AperFunction,ComponentPad*%
%ADD26C,2.800000*%
%TD*%
%TA.AperFunction,ComponentPad*%
%ADD27R,2.000000X2.000000*%
%TD*%
%TA.AperFunction,ComponentPad*%
%ADD28C,1.500000*%
%TD*%
%TA.AperFunction,ComponentPad*%
%ADD29R,1.500000X1.500000*%
%TD*%
%TA.AperFunction,ComponentPad*%
%ADD30O,1.905000X2.000000*%
%TD*%
%TA.AperFunction,ComponentPad*%
%ADD31R,1.905000X2.000000*%
%TD*%
%TA.AperFunction,ConnectorPad*%
%ADD32C,8.600000*%
%TD*%
%TA.AperFunction,ComponentPad*%
%ADD33C,4.700000*%
%TD*%
%TA.AperFunction,Conductor*%
%ADD34C,1.016000*%
%TD*%
%TA.AperFunction,Conductor*%
%ADD35C,0.381000*%
%TD*%
%TA.AperFunction,Conductor*%
%ADD36C,0.508000*%
%TD*%
G04 APERTURE END LIST*
D10*
%TO.P,Q1,1,C_1*%
%TO.N,Net-(Q1-C)*%
X138096000Y-67688000D03*
D11*
%TO.P,Q1,2,B_2*%
%TO.N,Net-(Q1-B)*%
X136026000Y-66418000D03*
%TO.P,Q1,3,E_3*%
%TO.N,+5V*%
X138096000Y-65148000D03*
%TD*%
D10*
%TO.P,Q4,1,D_1*%
%TO.N,Net-(D2-A)*%
X162260000Y-112270000D03*
D11*
%TO.P,Q4,2,G_2*%
%TO.N,Net-(Q4-G)*%
X160190000Y-111000000D03*
%TO.P,Q4,3,S_3*%
%TO.N,GND*%
X162260000Y-109730000D03*
%TD*%
D10*
%TO.P,Q3,1,D_1*%
%TO.N,Net-(D1-A)*%
X162260000Y-120770000D03*
D11*
%TO.P,Q3,2,G_2*%
%TO.N,Net-(Q3-G)*%
X160190000Y-119500000D03*
%TO.P,Q3,3,S_3*%
%TO.N,GND*%
X162260000Y-118230000D03*
%TD*%
D12*
%TO.P,J3,1,Pin_1_1*%
%TO.N,+12V*%
X139000000Y-133000000D03*
D13*
%TO.P,J3,2,Pin_2_2*%
%TO.N,GND*%
X135500000Y-133000000D03*
%TD*%
D14*
%TO.P,C2,1*%
%TO.N,+12V*%
X148336000Y-119380000D03*
D15*
%TO.P,C2,2*%
%TO.N,GND*%
X148336000Y-114380000D03*
%TD*%
D14*
%TO.P,C1,1*%
%TO.N,+5V*%
X125222000Y-119380000D03*
D15*
%TO.P,C1,2*%
%TO.N,GND*%
X125222000Y-114380000D03*
%TD*%
D16*
%TO.P,D2,1,K_1*%
%TO.N,+12V*%
X166500000Y-114500000D03*
D17*
%TO.P,D2,2,A_2*%
%TO.N,Net-(D2-A)*%
X166500000Y-106880000D03*
%TD*%
D16*
%TO.P,D1,1,K_1*%
%TO.N,+12V*%
X166500000Y-124500000D03*
D17*
%TO.P,D1,2,A_2*%
%TO.N,Net-(D1-A)*%
X166500000Y-116880000D03*
%TD*%
D18*
%TO.P,J1,1,Pin_1_1*%
%TO.N,+12V*%
X174000000Y-119500000D03*
D19*
%TO.P,J1,2,Pin_2_2*%
%TO.N,Net-(D1-A)*%
X174000000Y-116000000D03*
%TO.P,J1,3,Pin_3_3*%
%TO.N,+12V*%
X174000000Y-112500000D03*
%TO.P,J1,4,Pin_4_4*%
%TO.N,Net-(D2-A)*%
X174000000Y-109000000D03*
%TD*%
D20*
%TO.P,R6,2*%
%TO.N,Net-(U2-d)*%
X151412000Y-71752000D03*
%TO.P,R6,1*%
%TO.N,/SEG_D*%
X151412000Y-76832000D03*
%TD*%
%TO.P,R2,2*%
%TO.N,Net-(U2-a)*%
X158420000Y-53000000D03*
%TO.P,R2,1*%
%TO.N,/SEG_A*%
X163500000Y-53000000D03*
%TD*%
D21*
%TO.P,J5,10,Pin_10_10*%
%TO.N,GND*%
X171252000Y-73572000D03*
%TO.P,J5,9,Pin_9_9*%
%TO.N,/MISO*%
X171252000Y-76112000D03*
%TO.P,J5,8,Pin_8_8*%
%TO.N,GND*%
X168712000Y-73572000D03*
%TO.P,J5,7,Pin_7_7*%
%TO.N,/SCK*%
X168712000Y-76112000D03*
%TO.P,J5,6,Pin_6_6*%
%TO.N,unconnected-(J5-Pin_6-Pad6)*%
X166172000Y-73572000D03*
%TO.P,J5,5,Pin_5_5*%
%TO.N,/RESET*%
X166172000Y-76112000D03*
%TO.P,J5,4,Pin_4_4*%
%TO.N,unconnected-(J5-Pin_4-Pad4)*%
X163632000Y-73572000D03*
%TO.P,J5,3,Pin_3_3*%
%TO.N,GND*%
X163632000Y-76112000D03*
%TO.P,J5,2,Pin_2_2*%
%TO.N,+5V*%
X161092000Y-73572000D03*
D22*
%TO.P,J5,1,Pin_1_1*%
%TO.N,/MOSI*%
X161092000Y-76112000D03*
%TD*%
D20*
%TO.P,R10,2*%
%TO.N,Net-(Q1-B)*%
X133378000Y-66418000D03*
%TO.P,R10,1*%
%TO.N,/DIG_0*%
X133378000Y-71498000D03*
%TD*%
%TO.P,R3,2*%
%TO.N,Net-(U2-b)*%
X141252000Y-54988000D03*
%TO.P,R3,1*%
%TO.N,/SEG_B*%
X141252000Y-60068000D03*
%TD*%
D17*
%TO.P,U1,28,PC5_28*%
%TO.N,Net-(J4-Pin_2)*%
X140490000Y-83690000D03*
%TO.P,U1,27,PC4_27*%
%TO.N,/SEG_G*%
X143030000Y-83690000D03*
%TO.P,U1,26,PC3_26*%
%TO.N,/SEG_C*%
X145570000Y-83690000D03*
%TO.P,U1,25,PC2_25*%
%TO.N,/SEG_DP*%
X148110000Y-83690000D03*
%TO.P,U1,24,PC1_24*%
%TO.N,/SEG_D*%
X150650000Y-83690000D03*
%TO.P,U1,23,PC0_23*%
%TO.N,/SEG_E*%
X153190000Y-83690000D03*
%TO.P,U1,22,AGND_22*%
%TO.N,GND*%
X155730000Y-83690000D03*
%TO.P,U1,21,AREF_21*%
%TO.N,unconnected-(U1-AREF-Pad21)*%
X158270000Y-83690000D03*
%TO.P,U1,20,AVCC_20*%
%TO.N,+5V*%
X160810000Y-83690000D03*
%TO.P,U1,19,PB5_19*%
%TO.N,/SCK*%
X163350000Y-83690000D03*
%TO.P,U1,18,PB4_18*%
%TO.N,/MISO*%
X165890000Y-83690000D03*
%TO.P,U1,17,PB3_17*%
%TO.N,/MOSI*%
X168430000Y-83690000D03*
%TO.P,U1,16,PB2_16*%
%TO.N,Net-(U1-PB2)*%
X170970000Y-83690000D03*
%TO.P,U1,15,PB1_15*%
%TO.N,Net-(U1-PB1)*%
X173510000Y-83690000D03*
%TO.P,U1,14,PB0_14*%
%TO.N,/SEG_A*%
X173510000Y-91310000D03*
%TO.P,U1,13,PD7_13*%
%TO.N,/SEG_F*%
X170970000Y-91310000D03*
%TO.P,U1,12,PD6_12*%
%TO.N,/SEG_B*%
X168430000Y-91310000D03*
%TO.P,U1,11,PD5_11*%
%TO.N,/DIG_2*%
X165890000Y-91310000D03*
%TO.P,U1,10,PB7/XTAL2_10*%
%TO.N,Net-(U1-PB7{slash}XTAL2)*%
X163350000Y-91310000D03*
%TO.P,U1,9,PB6/XTAL1_9*%
%TO.N,Net-(U1-PB6{slash}XTAL1)*%
X160810000Y-91310000D03*
%TO.P,U1,8,GND_8*%
%TO.N,GND*%
X158270000Y-91310000D03*
%TO.P,U1,7,VCC_7*%
%TO.N,+5V*%
X155730000Y-91310000D03*
%TO.P,U1,6,PD4_6*%
%TO.N,/DT*%
X153190000Y-91310000D03*
%TO.P,U1,5,PD3_5*%
%TO.N,/CLK*%
X150650000Y-91310000D03*
%TO.P,U1,4,PD2_4*%
%TO.N,/DIG_1*%
X148110000Y-91310000D03*
%TO.P,U1,3,PD1_3*%
%TO.N,/DIG_0*%
X145570000Y-91310000D03*
%TO.P,U1,2,PD0_2*%
%TO.N,/BTN*%
X143030000Y-91310000D03*
D16*
%TO.P,U1,1,PC6/~{RESET}_1*%
%TO.N,/RESET*%
X140490000Y-91310000D03*
%TD*%
D23*
%TO.P,Q2,3,E_3*%
%TO.N,+5V*%
X158124000Y-61846000D03*
%TO.P,Q2,2,B_2*%
%TO.N,Net-(Q2-B)*%
X160194000Y-60576000D03*
D10*
%TO.P,Q2,1,C_1*%
%TO.N,Net-(Q2-C)*%
X158124000Y-59306000D03*
%TD*%
D20*
%TO.P,R13,2*%
%TO.N,+5V*%
X136580000Y-99500000D03*
%TO.P,R13,1*%
%TO.N,Net-(J4-Pin_2)*%
X131500000Y-99500000D03*
%TD*%
D23*
%TO.P,Q5,3,E_3*%
%TO.N,+5V*%
X165236000Y-61846000D03*
%TO.P,Q5,2,B_2*%
%TO.N,Net-(Q5-B)*%
X167306000Y-60576000D03*
D10*
%TO.P,Q5,1,C_1*%
%TO.N,Net-(Q5-C)*%
X165236000Y-59306000D03*
%TD*%
D19*
%TO.P,J4,3,Pin_3_3*%
%TO.N,+5V*%
X125500000Y-103000000D03*
%TO.P,J4,2,Pin_2_2*%
%TO.N,Net-(J4-Pin_2)*%
X125500000Y-99500000D03*
D24*
%TO.P,J4,1,Pin_1_1*%
%TO.N,GND*%
X125500000Y-96000000D03*
%TD*%
D20*
%TO.P,R4,2*%
%TO.N,Net-(U2-c)*%
X146332000Y-71752000D03*
%TO.P,R4,1*%
%TO.N,/SEG_C*%
X146332000Y-76832000D03*
%TD*%
%TO.P,R11,2*%
%TO.N,Net-(Q2-B)*%
X162334000Y-60576000D03*
%TO.P,R11,1*%
%TO.N,/DIG_1*%
X162334000Y-65656000D03*
%TD*%
%TO.P,R9,2*%
%TO.N,Net-(U2-g)*%
X143792000Y-71752000D03*
%TO.P,R9,1*%
%TO.N,/SEG_G*%
X143792000Y-76832000D03*
%TD*%
%TO.P,R5,2*%
%TO.N,Net-(U2-e)*%
X153952000Y-71752000D03*
%TO.P,R5,1*%
%TO.N,/SEG_E*%
X153952000Y-76832000D03*
%TD*%
%TO.P,R8,2*%
%TO.N,Net-(U2-f)*%
X154920000Y-55000000D03*
%TO.P,R8,1*%
%TO.N,/SEG_F*%
X160000000Y-55000000D03*
%TD*%
%TO.P,R7,2*%
%TO.N,Net-(U2-DPX)*%
X148872000Y-71752000D03*
%TO.P,R7,1*%
%TO.N,/SEG_DP*%
X148872000Y-76832000D03*
%TD*%
%TO.P,R12,2*%
%TO.N,Net-(Q5-B)*%
X169920000Y-60500000D03*
%TO.P,R12,1*%
%TO.N,/DIG_2*%
X175000000Y-60500000D03*
%TD*%
D25*
%TO.P,SW1,S2,S2_S2*%
%TO.N,GND*%
X127092000Y-74612000D03*
%TO.P,SW1,S1,S1_S1*%
%TO.N,/BTN*%
X132092000Y-74612000D03*
D26*
%TO.P,SW1,MP*%
%TO.N,N/C*%
X135192000Y-81612000D03*
X123992000Y-81612000D03*
D25*
%TO.P,SW1,C,C_C*%
%TO.N,GND*%
X129592000Y-89112000D03*
%TO.P,SW1,B,B_B*%
%TO.N,/DT*%
X127092000Y-89112000D03*
D27*
%TO.P,SW1,A,A_A*%
%TO.N,/CLK*%
X132092000Y-89112000D03*
%TD*%
D28*
%TO.P,U2,12,CA1_12*%
%TO.N,unconnected-(U2-CA1-Pad12)*%
X153875800Y-52584900D03*
%TO.P,U2,11,a_11*%
%TO.N,Net-(U2-a)*%
X151335800Y-52584900D03*
%TO.P,U2,10,f_10*%
%TO.N,Net-(U2-f)*%
X148795800Y-52584900D03*
%TO.P,U2,9,CA2_9*%
%TO.N,Net-(Q5-C)*%
X146255800Y-52584900D03*
%TO.P,U2,8,CA3_8*%
%TO.N,Net-(Q2-C)*%
X143715800Y-52584900D03*
%TO.P,U2,7,b_7*%
%TO.N,Net-(U2-b)*%
X141175800Y-52584900D03*
%TO.P,U2,6,CA4_6*%
%TO.N,Net-(Q1-C)*%
X141175800Y-67824900D03*
%TO.P,U2,5,g_5*%
%TO.N,Net-(U2-g)*%
X143715800Y-67824900D03*
%TO.P,U2,4,c_4*%
%TO.N,Net-(U2-c)*%
X146255800Y-67824900D03*
%TO.P,U2,3,DPX_3*%
%TO.N,Net-(U2-DPX)*%
X148795800Y-67824900D03*
%TO.P,U2,2,d_2*%
%TO.N,Net-(U2-d)*%
X151335800Y-67824900D03*
D29*
%TO.P,U2,1,e_1*%
%TO.N,Net-(U2-e)*%
X153875800Y-67824900D03*
%TD*%
D20*
%TO.P,R15,2*%
%TO.N,Net-(Q4-G)*%
X171000000Y-99580000D03*
%TO.P,R15,1*%
%TO.N,Net-(U1-PB2)*%
X171000000Y-94500000D03*
%TD*%
%TO.P,R16,2*%
%TO.N,Net-(Q3-G)*%
X157360000Y-121850000D03*
%TO.P,R16,1*%
%TO.N,GND*%
X157360000Y-116770000D03*
%TD*%
%TO.P,R17,2*%
%TO.N,Net-(Q4-G)*%
X157360000Y-113350000D03*
%TO.P,R17,1*%
%TO.N,GND*%
X157360000Y-108270000D03*
%TD*%
%TO.P,R14,2*%
%TO.N,Net-(Q3-G)*%
X174000000Y-99580000D03*
%TO.P,R14,1*%
%TO.N,Net-(U1-PB1)*%
X174000000Y-94500000D03*
%TD*%
%TO.P,R1,2*%
%TO.N,/RESET*%
X140500000Y-93420000D03*
%TO.P,R1,1*%
%TO.N,+5V*%
X140500000Y-98500000D03*
%TD*%
D17*
%TO.P,C3,2*%
%TO.N,GND*%
X144018000Y-135556000D03*
%TO.P,C3,1*%
%TO.N,+12V*%
X144018000Y-130556000D03*
%TD*%
%TO.P,C5,2*%
%TO.N,Net-(U1-PB7{slash}XTAL2)*%
X162000000Y-102000000D03*
%TO.P,C5,1*%
%TO.N,GND*%
X167000000Y-102000000D03*
%TD*%
D30*
%TO.P,U3,3,OUT_3*%
%TO.N,+5V*%
X134012000Y-127112000D03*
%TO.P,U3,2,GND_2*%
%TO.N,GND*%
X136552000Y-127112000D03*
D31*
%TO.P,U3,1,IN_1*%
%TO.N,+12V*%
X139092000Y-127112000D03*
%TD*%
D32*
%TO.P,REF\u002A\u002A,1*%
%TO.N,N/C*%
X125500000Y-43500000D03*
D33*
X125500000Y-43500000D03*
%TD*%
D32*
%TO.P,REF\u002A\u002A,1*%
%TO.N,N/C*%
X170000000Y-43500000D03*
D33*
X170000000Y-43500000D03*
%TD*%
D17*
%TO.P,C6,2*%
%TO.N,GND*%
X155592000Y-87246000D03*
%TO.P,C6,1*%
%TO.N,+5V*%
X160592000Y-87246000D03*
%TD*%
D32*
%TO.P,REF\u002A\u002A,1*%
%TO.N,N/C*%
X170500000Y-133000000D03*
D33*
X170500000Y-133000000D03*
%TD*%
D17*
%TO.P,C4,2*%
%TO.N,Net-(U1-PB6{slash}XTAL1)*%
X157000000Y-102000000D03*
%TO.P,C4,1*%
%TO.N,GND*%
X152000000Y-102000000D03*
%TD*%
D32*
%TO.P,REF\u002A\u002A,1*%
%TO.N,N/C*%
X124500000Y-133000000D03*
D33*
X124500000Y-133000000D03*
%TD*%
D28*
%TO.P,Y1,2,2_2*%
%TO.N,Net-(U1-PB6{slash}XTAL1)*%
X157053700Y-97202800D03*
%TO.P,Y1,1,1_1*%
%TO.N,Net-(U1-PB7{slash}XTAL2)*%
X161933700Y-97202800D03*
%TD*%
%TO.N,+12V*%
D34*
X148000000Y-124000000D02*
X148336000Y-124000000D01*
X148336000Y-119380000D02*
X148336000Y-124000000D01*
%TO.N,+5V*%
X125222000Y-119380000D02*
X122682000Y-119380000D01*
X122682000Y-119380000D02*
X121412000Y-118110000D01*
X121412000Y-118110000D02*
X121412000Y-108458000D01*
X121412000Y-108458000D02*
X125476000Y-104394000D01*
X125476000Y-104394000D02*
X125476000Y-103024000D01*
X125476000Y-103024000D02*
X125500000Y-103000000D01*
X134012000Y-127112000D02*
X129144000Y-127112000D01*
X129144000Y-127112000D02*
X125222000Y-123190000D01*
X125222000Y-123190000D02*
X125222000Y-119380000D01*
%TO.N,+12V*%
X144018000Y-130556000D02*
X141444000Y-130556000D01*
X141444000Y-130556000D02*
X139000000Y-133000000D01*
X139000000Y-133000000D02*
X139000000Y-127204000D01*
X139000000Y-127204000D02*
X139092000Y-127112000D01*
%TO.N,/SEG_B*%
D35*
X156500000Y-64000000D02*
X163000000Y-64000000D01*
X164000000Y-65000000D02*
X164000000Y-68500000D01*
X162000000Y-70500000D02*
X159000000Y-70500000D01*
X158000000Y-71500000D02*
X158000000Y-78000000D01*
X167000000Y-88500000D02*
X168430000Y-89930000D01*
X159460500Y-79460500D02*
X159460500Y-84960500D01*
X159460500Y-84960500D02*
X160000000Y-85500000D01*
X163000000Y-64000000D02*
X164000000Y-65000000D01*
X164000000Y-68500000D02*
X162000000Y-70500000D01*
X158000000Y-78000000D02*
X159460500Y-79460500D01*
X160000000Y-85500000D02*
X161500000Y-85500000D01*
X159000000Y-70500000D02*
X158000000Y-71500000D01*
X161500000Y-85500000D02*
X164500000Y-88500000D01*
X164500000Y-88500000D02*
X167000000Y-88500000D01*
X154000000Y-61500000D02*
X156500000Y-64000000D01*
X142684000Y-61500000D02*
X154000000Y-61500000D01*
X141252000Y-60068000D02*
X142684000Y-61500000D01*
X168430000Y-89930000D02*
X168430000Y-91310000D01*
%TO.N,Net-(Q5-B)*%
X166906000Y-60576000D02*
X169844000Y-60576000D01*
X169844000Y-60576000D02*
X169920000Y-60500000D01*
%TO.N,/DIG_2*%
X175000000Y-60500000D02*
X176500000Y-62000000D01*
X176500000Y-62000000D02*
X176500000Y-95000000D01*
X176500000Y-95000000D02*
X175144500Y-96355500D01*
X175144500Y-96355500D02*
X168855500Y-96355500D01*
X168855500Y-96355500D02*
X165890000Y-93390000D01*
X165890000Y-93390000D02*
X165890000Y-91310000D01*
%TO.N,/SEG_F*%
X170970000Y-91310000D02*
X170970000Y-87470000D01*
X170970000Y-87470000D02*
X169779500Y-86279500D01*
X169779500Y-86279500D02*
X169779500Y-80720500D01*
X169779500Y-80720500D02*
X172919000Y-77581000D01*
X172919000Y-77581000D02*
X172919000Y-57919000D01*
X172919000Y-57919000D02*
X170000000Y-55000000D01*
X170000000Y-55000000D02*
X160000000Y-55000000D01*
%TO.N,/SEG_A*%
X163500000Y-53000000D02*
X170000000Y-53000000D01*
X170000000Y-53000000D02*
X173500000Y-56500000D01*
X173500000Y-56500000D02*
X173500000Y-81000000D01*
X173500000Y-81000000D02*
X172160500Y-82339500D01*
X172160500Y-82339500D02*
X172160500Y-84660500D01*
X172160500Y-84660500D02*
X173510000Y-86010000D01*
X173510000Y-86010000D02*
X173510000Y-91310000D01*
%TO.N,Net-(U2-a)*%
X151335800Y-52584900D02*
X151335800Y-51664200D01*
X151335800Y-51664200D02*
X152000000Y-51000000D01*
X152000000Y-51000000D02*
X157500000Y-51000000D01*
X157500000Y-51000000D02*
X158420000Y-51920000D01*
X158420000Y-51920000D02*
X158420000Y-53000000D01*
%TO.N,Net-(U2-f)*%
D36*
X148795800Y-52584900D02*
X148795800Y-53795800D01*
X148795800Y-53795800D02*
X150000000Y-55000000D01*
X150000000Y-55000000D02*
X154920000Y-55000000D01*
%TO.N,Net-(Q5-C)*%
X165636000Y-59306000D02*
X163806000Y-59306000D01*
X161000000Y-56500000D02*
X147500000Y-56500000D01*
X163806000Y-59306000D02*
X161000000Y-56500000D01*
X147500000Y-56500000D02*
X146255800Y-55255800D01*
X146255800Y-55255800D02*
X146255800Y-52584900D01*
%TO.N,Net-(Q2-C)*%
X143715800Y-52584900D02*
X143715800Y-55215800D01*
X143715800Y-55215800D02*
X146000000Y-57500000D01*
X155000000Y-57500000D02*
X146000000Y-57500000D01*
X156806000Y-59306000D02*
X155000000Y-57500000D01*
X158524000Y-59306000D02*
X156806000Y-59306000D01*
%TO.N,+5V*%
X161092000Y-73572000D02*
X165636000Y-69028000D01*
X165636000Y-69028000D02*
X165636000Y-61846000D01*
%TO.N,/DIG_1*%
D35*
X156000000Y-80000000D02*
X156000000Y-70500000D01*
X154500000Y-81500000D02*
X156000000Y-80000000D01*
X153500000Y-86000000D02*
X154500000Y-85000000D01*
X150000000Y-86000000D02*
X153500000Y-86000000D01*
X154500000Y-85000000D02*
X154500000Y-81500000D01*
X148110000Y-87890000D02*
X150000000Y-86000000D01*
X148110000Y-91310000D02*
X148110000Y-87890000D01*
X156000000Y-70500000D02*
X160844000Y-65656000D01*
X160844000Y-65656000D02*
X162334000Y-65656000D01*
%TO.N,+5V*%
D36*
X137696000Y-65148000D02*
X137148000Y-65148000D01*
X137148000Y-65148000D02*
X136500000Y-64500000D01*
X136500000Y-64500000D02*
X124000000Y-64500000D01*
X124000000Y-64500000D02*
X121000000Y-67500000D01*
X121000000Y-101500000D02*
X122500000Y-103000000D01*
X121000000Y-67500000D02*
X121000000Y-101500000D01*
X122500000Y-103000000D02*
X125500000Y-103000000D01*
X158524000Y-61846000D02*
X157346000Y-61846000D01*
X157346000Y-61846000D02*
X154208000Y-58708000D01*
X154208000Y-58708000D02*
X138792000Y-58708000D01*
X138792000Y-58708000D02*
X137696000Y-59804000D01*
X137696000Y-59804000D02*
X137696000Y-65148000D01*
%TO.N,/MOSI*%
X168430000Y-83690000D02*
X168430000Y-84570000D01*
X168430000Y-84570000D02*
X167500000Y-85500000D01*
X167500000Y-85500000D02*
X163000000Y-85500000D01*
X163000000Y-85500000D02*
X162064000Y-84500000D01*
X162064000Y-84500000D02*
X162064000Y-81564000D01*
X162064000Y-81564000D02*
X161092000Y-80592000D01*
X161092000Y-80592000D02*
X161092000Y-76112000D01*
%TO.N,/BTN*%
D35*
X132092000Y-74612000D02*
X138112000Y-74612000D01*
X138112000Y-74612000D02*
X141680500Y-78180500D01*
X141680500Y-78180500D02*
X141680500Y-87180500D01*
X141680500Y-87180500D02*
X143030000Y-88530000D01*
X143030000Y-88530000D02*
X143030000Y-91310000D01*
%TO.N,/DIG_0*%
X145000000Y-76000000D02*
X145000000Y-79500000D01*
X144379500Y-80120500D02*
X145000000Y-79500000D01*
X145570000Y-90070000D02*
X144379500Y-88879500D01*
X144379500Y-88879500D02*
X144379500Y-80120500D01*
X145570000Y-91310000D02*
X145570000Y-90070000D01*
X143500000Y-74500000D02*
X145000000Y-76000000D01*
X140500000Y-74500000D02*
X143500000Y-74500000D01*
X133378000Y-71498000D02*
X137498000Y-71498000D01*
X137498000Y-71498000D02*
X140500000Y-74500000D01*
%TO.N,/DT*%
D36*
X127092000Y-89112000D02*
X127092000Y-90592000D01*
X127092000Y-90592000D02*
X128000000Y-91500000D01*
X128000000Y-91500000D02*
X131500000Y-91500000D01*
X131500000Y-91500000D02*
X136000000Y-96000000D01*
X136000000Y-96000000D02*
X150500000Y-96000000D01*
X150500000Y-96000000D02*
X153190000Y-93310000D01*
X153190000Y-93310000D02*
X153190000Y-91310000D01*
%TO.N,/CLK*%
X132092000Y-89112000D02*
X132092000Y-90592000D01*
X132092000Y-90592000D02*
X136500000Y-95000000D01*
X136500000Y-95000000D02*
X148000000Y-95000000D01*
X148000000Y-95000000D02*
X150650000Y-92350000D01*
X150650000Y-92350000D02*
X150650000Y-91310000D01*
%TO.N,/RESET*%
X140490000Y-91310000D02*
X140490000Y-93410000D01*
X140490000Y-93410000D02*
X140500000Y-93420000D01*
%TO.N,Net-(J4-Pin_2)*%
X125500000Y-99500000D02*
X131500000Y-99500000D01*
%TO.N,+5V*%
D34*
X140500000Y-98500000D02*
X150000000Y-98500000D01*
X150000000Y-98500000D02*
X155730000Y-92770000D01*
X155730000Y-92770000D02*
X155730000Y-91310000D01*
X136580000Y-99500000D02*
X139500000Y-99500000D01*
X139500000Y-99500000D02*
X140500000Y-98500000D01*
X125500000Y-103000000D02*
X133080000Y-103000000D01*
X133080000Y-103000000D02*
X136580000Y-99500000D01*
%TO.N,Net-(Q3-G)*%
D36*
X157360000Y-121850000D02*
X155350000Y-121850000D01*
X155350000Y-121850000D02*
X155000000Y-121500000D01*
X155000000Y-121500000D02*
X155000000Y-106000000D01*
X171420000Y-97000000D02*
X174000000Y-99580000D01*
X155000000Y-106000000D02*
X155500000Y-105500000D01*
X155500000Y-105500000D02*
X161000000Y-105500000D01*
X161000000Y-105500000D02*
X169500000Y-97000000D01*
X169500000Y-97000000D02*
X171420000Y-97000000D01*
%TO.N,Net-(Q4-G)*%
X168000000Y-104500000D02*
X171000000Y-101500000D01*
X164000000Y-104500000D02*
X168000000Y-104500000D01*
X160590000Y-107910000D02*
X164000000Y-104500000D01*
X160590000Y-111000000D02*
X160590000Y-107910000D01*
X171000000Y-101500000D02*
X171000000Y-99580000D01*
%TO.N,/MISO*%
X165890000Y-83690000D02*
X165890000Y-81474000D01*
X165890000Y-81474000D02*
X171252000Y-76112000D01*
%TO.N,/SCK*%
X163350000Y-83690000D02*
X163350000Y-81474000D01*
X163350000Y-81474000D02*
X168712000Y-76112000D01*
%TO.N,Net-(U1-PB6{slash}XTAL1)*%
D34*
X157053700Y-97202800D02*
X160500000Y-93756500D01*
X160500000Y-93756500D02*
X160500000Y-91620000D01*
X160500000Y-91620000D02*
X160810000Y-91310000D01*
%TO.N,Net-(U1-PB7{slash}XTAL2)*%
X163350000Y-91310000D02*
X163350000Y-95786500D01*
X163350000Y-95786500D02*
X161933700Y-97202800D01*
X161933700Y-97202800D02*
X161933700Y-101933700D01*
X161933700Y-101933700D02*
X162000000Y-102000000D01*
%TO.N,Net-(U1-PB6{slash}XTAL1)*%
X157000000Y-102000000D02*
X157000000Y-97256500D01*
X157000000Y-97256500D02*
X157053700Y-97202800D01*
%TO.N,+12V*%
X177000000Y-119000000D02*
X176500000Y-119500000D01*
X177000000Y-113000000D02*
X177000000Y-119000000D01*
X174000000Y-112500000D02*
X176500000Y-112500000D01*
X176500000Y-112500000D02*
X177000000Y-113000000D01*
X176500000Y-119500000D02*
X174000000Y-119500000D01*
%TO.N,Net-(D2-A)*%
X166500000Y-111000000D02*
X166500000Y-109000000D01*
X174000000Y-109000000D02*
X166500000Y-109000000D01*
%TO.N,Net-(D1-A)*%
X169120000Y-116880000D02*
X170000000Y-116000000D01*
X166500000Y-116880000D02*
X169120000Y-116880000D01*
X170000000Y-116000000D02*
X174000000Y-116000000D01*
X164730000Y-120770000D02*
X166500000Y-119000000D01*
X161860000Y-120770000D02*
X164730000Y-120770000D01*
X166500000Y-119000000D02*
X166500000Y-116880000D01*
%TO.N,Net-(D2-A)*%
X165230000Y-112270000D02*
X166500000Y-111000000D01*
X161860000Y-112270000D02*
X165230000Y-112270000D01*
X166500000Y-109000000D02*
X166500000Y-106880000D01*
%TO.N,Net-(J4-Pin_2)*%
D36*
X122000000Y-89500000D02*
X122000000Y-98000000D01*
X126000000Y-85500000D02*
X122000000Y-89500000D01*
X137500000Y-85500000D02*
X126000000Y-85500000D01*
X139310000Y-83690000D02*
X137500000Y-85500000D01*
X140490000Y-83690000D02*
X139310000Y-83690000D01*
X122000000Y-98000000D02*
X123500000Y-99500000D01*
X123500000Y-99500000D02*
X125500000Y-99500000D01*
%TO.N,Net-(U1-PB2)*%
X170970000Y-83690000D02*
X170970000Y-85458000D01*
X170970000Y-85458000D02*
X172256000Y-86744000D01*
X172256000Y-86744000D02*
X172256000Y-93244000D01*
X172256000Y-93244000D02*
X171000000Y-94500000D01*
%TO.N,Net-(U1-PB1)*%
X173510000Y-83690000D02*
X175320000Y-85500000D01*
X175320000Y-85500000D02*
X175320000Y-93180000D01*
X175320000Y-93180000D02*
X174000000Y-94500000D01*
%TO.N,/SEG_E*%
X153952000Y-76832000D02*
X153952000Y-80048000D01*
X153952000Y-80048000D02*
X153190000Y-80810000D01*
X153190000Y-80810000D02*
X153190000Y-83690000D01*
%TO.N,/SEG_D*%
X151412000Y-76832000D02*
X151412000Y-79588000D01*
X151412000Y-79588000D02*
X150650000Y-80350000D01*
X150650000Y-80350000D02*
X150650000Y-83690000D01*
%TO.N,/SEG_DP*%
X148872000Y-76832000D02*
X148872000Y-79128000D01*
X148872000Y-79128000D02*
X148110000Y-79890000D01*
X148110000Y-79890000D02*
X148110000Y-83690000D01*
%TO.N,/SEG_C*%
X146332000Y-76832000D02*
X146332000Y-79168000D01*
X146332000Y-79168000D02*
X145570000Y-79930000D01*
X145570000Y-79930000D02*
X145570000Y-83690000D01*
%TO.N,/SEG_G*%
X143030000Y-83690000D02*
X143030000Y-80470000D01*
X143030000Y-80470000D02*
X143792000Y-79708000D01*
X143792000Y-79708000D02*
X143792000Y-76832000D01*
%TO.N,Net-(Q1-B)*%
X133378000Y-66418000D02*
X136426000Y-66418000D01*
%TO.N,Net-(Q1-C)*%
X137696000Y-67688000D02*
X141038900Y-67688000D01*
X141038900Y-67688000D02*
X141175800Y-67824900D01*
%TO.N,Net-(U2-e)*%
X153875800Y-67824900D02*
X153875800Y-71675800D01*
X153875800Y-71675800D02*
X153952000Y-71752000D01*
%TO.N,Net-(U2-d)*%
X151335800Y-67824900D02*
X151335800Y-71675800D01*
X151335800Y-71675800D02*
X151412000Y-71752000D01*
%TO.N,Net-(U2-DPX)*%
X148795800Y-67824900D02*
X148795800Y-71675800D01*
X148795800Y-71675800D02*
X148872000Y-71752000D01*
%TO.N,Net-(U2-c)*%
X146255800Y-67824900D02*
X146255800Y-71675800D01*
X146255800Y-71675800D02*
X146332000Y-71752000D01*
%TO.N,Net-(U2-g)*%
X143715800Y-67824900D02*
X143715800Y-71675800D01*
X143715800Y-71675800D02*
X143792000Y-71752000D01*
%TO.N,Net-(Q2-B)*%
X159794000Y-60576000D02*
X162334000Y-60576000D01*
%TO.N,Net-(U2-b)*%
X141175800Y-52584900D02*
X141175800Y-54911800D01*
X141175800Y-54911800D02*
X141252000Y-54988000D01*
%TO.N,+5V*%
X158524000Y-61846000D02*
X165636000Y-61846000D01*
D34*
X155730000Y-91310000D02*
X155730000Y-90270000D01*
X155730000Y-90270000D02*
X158754000Y-87246000D01*
X158754000Y-87246000D02*
X160592000Y-87246000D01*
%TO.N,GND*%
X135500000Y-133000000D02*
X136000000Y-132500000D01*
X136000000Y-132500000D02*
X136000000Y-130000000D01*
X136000000Y-130000000D02*
X136552000Y-129448000D01*
X136552000Y-129448000D02*
X136552000Y-127112000D01*
%TO.N,+12V*%
X166500000Y-124500000D02*
X166500000Y-123500000D01*
X148336000Y-124000000D02*
X166000000Y-124000000D01*
X166000000Y-124000000D02*
X166500000Y-123500000D01*
X144888000Y-127112000D02*
X148000000Y-124000000D01*
X166500000Y-122000000D02*
X169000000Y-119500000D01*
X166500000Y-123500000D02*
X166500000Y-122000000D01*
X169000000Y-119500000D02*
X174000000Y-119500000D01*
X174000000Y-112500000D02*
X168500000Y-112500000D01*
X168500000Y-112500000D02*
X166500000Y-114500000D01*
X139092000Y-127112000D02*
X144888000Y-127112000D01*
%TO.N,Net-(Q3-G)*%
D36*
X158500000Y-119500000D02*
X160590000Y-119500000D01*
X157360000Y-120640000D02*
X158500000Y-119500000D01*
X157360000Y-121850000D02*
X157360000Y-120640000D01*
%TO.N,Net-(Q4-G)*%
X158500000Y-111000000D02*
X160590000Y-111000000D01*
X157360000Y-112140000D02*
X158500000Y-111000000D01*
X157360000Y-113350000D02*
X157360000Y-112140000D01*
%TD*%
%TA.AperFunction,Conductor*%
%TO.N,GND*%
G36*
X177892780Y-37520185D02*
G01*
X177938535Y-37572989D01*
X177949741Y-37624383D01*
X178020058Y-112302482D01*
X178000437Y-112369540D01*
X177947676Y-112415345D01*
X177878527Y-112425353D01*
X177814944Y-112396388D01*
X177792954Y-112371487D01*
X177783353Y-112357117D01*
X177783351Y-112357115D01*
X177142884Y-111716649D01*
X177142880Y-111716646D01*
X176977710Y-111606282D01*
X176977701Y-111606277D01*
X176794169Y-111530256D01*
X176794161Y-111530254D01*
X176599333Y-111491500D01*
X176599329Y-111491500D01*
X175923469Y-111491500D01*
X175856430Y-111471815D01*
X175835788Y-111455181D01*
X175812363Y-111431756D01*
X175812358Y-111431752D01*
X175634025Y-111302187D01*
X175634024Y-111302186D01*
X175634022Y-111302185D01*
X175538831Y-111253682D01*
X175437606Y-111202104D01*
X175437603Y-111202103D01*
X175227952Y-111133985D01*
X175119086Y-111116742D01*
X175010222Y-111099500D01*
X172989778Y-111099500D01*
X172917201Y-111110995D01*
X172772047Y-111133985D01*
X172562396Y-111202103D01*
X172562393Y-111202104D01*
X172365974Y-111302187D01*
X172187641Y-111431752D01*
X172187636Y-111431756D01*
X172164212Y-111455181D01*
X172102889Y-111488666D01*
X172076531Y-111491500D01*
X168400666Y-111491500D01*
X168205838Y-111530254D01*
X168205830Y-111530256D01*
X168022298Y-111606277D01*
X168022289Y-111606282D01*
X167857119Y-111716646D01*
X167857115Y-111716649D01*
X166410583Y-113163181D01*
X166349260Y-113196666D01*
X166322902Y-113199500D01*
X166026095Y-113199500D01*
X165959056Y-113179815D01*
X165913301Y-113127011D01*
X165903357Y-113057853D01*
X165932382Y-112994297D01*
X165938387Y-112987846D01*
X166013353Y-112912881D01*
X167283353Y-111642881D01*
X167393721Y-111477704D01*
X167469744Y-111294169D01*
X167508500Y-111099329D01*
X167508500Y-110900671D01*
X167508500Y-110132500D01*
X167528185Y-110065461D01*
X167580989Y-110019706D01*
X167632500Y-110008500D01*
X172076531Y-110008500D01*
X172143570Y-110028185D01*
X172164212Y-110044819D01*
X172187636Y-110068243D01*
X172187641Y-110068247D01*
X172276079Y-110132500D01*
X172365978Y-110197815D01*
X172494375Y-110263237D01*
X172562393Y-110297895D01*
X172562396Y-110297896D01*
X172633154Y-110320886D01*
X172772049Y-110366015D01*
X172989778Y-110400500D01*
X172989779Y-110400500D01*
X175010221Y-110400500D01*
X175010222Y-110400500D01*
X175227951Y-110366015D01*
X175437606Y-110297895D01*
X175634022Y-110197815D01*
X175812365Y-110068242D01*
X175968242Y-109912365D01*
X176097815Y-109734022D01*
X176197895Y-109537606D01*
X176266015Y-109327951D01*
X176300500Y-109110222D01*
X176300500Y-108889778D01*
X176266015Y-108672049D01*
X176197895Y-108462394D01*
X176197895Y-108462393D01*
X176123342Y-108316078D01*
X176097815Y-108265978D01*
X176032117Y-108175552D01*
X175968247Y-108087641D01*
X175968243Y-108087636D01*
X175812363Y-107931756D01*
X175812358Y-107931752D01*
X175634025Y-107802187D01*
X175634024Y-107802186D01*
X175634022Y-107802185D01*
X175507406Y-107737670D01*
X175437606Y-107702104D01*
X175437603Y-107702103D01*
X175227952Y-107633985D01*
X175112309Y-107615669D01*
X175010222Y-107599500D01*
X172989778Y-107599500D01*
X172917201Y-107610995D01*
X172772047Y-107633985D01*
X172562396Y-107702103D01*
X172562393Y-107702104D01*
X172365974Y-107802187D01*
X172187641Y-107931752D01*
X172187636Y-107931756D01*
X172164212Y-107955181D01*
X172102889Y-107988666D01*
X172076531Y-107991500D01*
X167632500Y-107991500D01*
X167565461Y-107971815D01*
X167519706Y-107919011D01*
X167508500Y-107867500D01*
X167508500Y-107744750D01*
X167528185Y-107677711D01*
X167532165Y-107671888D01*
X167612287Y-107561610D01*
X167705220Y-107379219D01*
X167768477Y-107184534D01*
X167800500Y-106982352D01*
X167800500Y-106777648D01*
X167768477Y-106575466D01*
X167705220Y-106380781D01*
X167705218Y-106380778D01*
X167705218Y-106380776D01*
X167669900Y-106311461D01*
X167612287Y-106198390D01*
X167604556Y-106187749D01*
X167491971Y-106032786D01*
X167347213Y-105888028D01*
X167181613Y-105767715D01*
X167181612Y-105767714D01*
X167181610Y-105767713D01*
X167124653Y-105738691D01*
X166999223Y-105674781D01*
X166804534Y-105611522D01*
X166629995Y-105583878D01*
X166602352Y-105579500D01*
X166397648Y-105579500D01*
X166373329Y-105583351D01*
X166195465Y-105611522D01*
X166000776Y-105674781D01*
X165818386Y-105767715D01*
X165652786Y-105888028D01*
X165508028Y-106032786D01*
X165387715Y-106198386D01*
X165294781Y-106380776D01*
X165231522Y-106575465D01*
X165199500Y-106777648D01*
X165199500Y-106982351D01*
X165231522Y-107184534D01*
X165294781Y-107379223D01*
X165383127Y-107552610D01*
X165387713Y-107561610D01*
X165467818Y-107671866D01*
X165491298Y-107737670D01*
X165491500Y-107744750D01*
X165491500Y-110530904D01*
X165471815Y-110597943D01*
X165455181Y-110618585D01*
X164848585Y-111225181D01*
X164787262Y-111258666D01*
X164760904Y-111261500D01*
X163385279Y-111261500D01*
X163341946Y-111253682D01*
X163305725Y-111240172D01*
X163267484Y-111225909D01*
X163267480Y-111225908D01*
X163207883Y-111219501D01*
X163207881Y-111219500D01*
X163207873Y-111219500D01*
X163207865Y-111219500D01*
X161714500Y-111219500D01*
X161647461Y-111199815D01*
X161601706Y-111147011D01*
X161590500Y-111095500D01*
X161590500Y-110904000D01*
X161610185Y-110836961D01*
X161662989Y-110791206D01*
X161714500Y-110780000D01*
X162010000Y-110780000D01*
X162510000Y-110780000D01*
X162928527Y-110780000D01*
X162928530Y-110779999D01*
X163058539Y-110765351D01*
X163223386Y-110707669D01*
X163371262Y-110614753D01*
X163494753Y-110491262D01*
X163587669Y-110343386D01*
X163645351Y-110178539D01*
X163659999Y-110048530D01*
X163660000Y-110048526D01*
X163660000Y-109980000D01*
X162510000Y-109980000D01*
X162510000Y-110780000D01*
X162010000Y-110780000D01*
X162010000Y-110076410D01*
X162090255Y-110030075D01*
X162160075Y-109960255D01*
X162209444Y-109874745D01*
X162235000Y-109779370D01*
X162235000Y-109680630D01*
X162209444Y-109585255D01*
X162160075Y-109499745D01*
X162140330Y-109480000D01*
X162510000Y-109480000D01*
X163660000Y-109480000D01*
X163660000Y-109411473D01*
X163659999Y-109411469D01*
X163645351Y-109281460D01*
X163587669Y-109116613D01*
X163494753Y-108968737D01*
X163371262Y-108845246D01*
X163223386Y-108752330D01*
X163058539Y-108694648D01*
X162928530Y-108680000D01*
X162510000Y-108680000D01*
X162510000Y-109480000D01*
X162140330Y-109480000D01*
X162090255Y-109429925D01*
X162010000Y-109383589D01*
X162010000Y-108680000D01*
X161591469Y-108680000D01*
X161482383Y-108692291D01*
X161413561Y-108680236D01*
X161362182Y-108632887D01*
X161344500Y-108569071D01*
X161344500Y-108273886D01*
X161364185Y-108206847D01*
X161380819Y-108186205D01*
X164276205Y-105290819D01*
X164337528Y-105257334D01*
X164363886Y-105254500D01*
X167919554Y-105254500D01*
X167919574Y-105254501D01*
X167925688Y-105254501D01*
X168074314Y-105254501D01*
X168111009Y-105247200D01*
X168195894Y-105230315D01*
X168220080Y-105225505D01*
X168276955Y-105201946D01*
X168357389Y-105168630D01*
X168480966Y-105086059D01*
X171480963Y-102086060D01*
X171480966Y-102086059D01*
X171586059Y-101980966D01*
X171668629Y-101857390D01*
X171668630Y-101857389D01*
X171668633Y-101857385D01*
X171725503Y-101720083D01*
X171725505Y-101720079D01*
X171754501Y-101574312D01*
X171754501Y-101425688D01*
X171754501Y-101420578D01*
X171754500Y-101420552D01*
X171754500Y-100574625D01*
X171774185Y-100507586D01*
X171790819Y-100486944D01*
X171808020Y-100469743D01*
X171915690Y-100362073D01*
X172026760Y-100209199D01*
X172112547Y-100040832D01*
X172170940Y-99861118D01*
X172183611Y-99781118D01*
X172200500Y-99674486D01*
X172200500Y-99485513D01*
X172170940Y-99298881D01*
X172112545Y-99119163D01*
X172094415Y-99083582D01*
X172081519Y-99014913D01*
X172107795Y-98950173D01*
X172164901Y-98909915D01*
X172234707Y-98906923D01*
X172292581Y-98939606D01*
X172763181Y-99410206D01*
X172796666Y-99471529D01*
X172799500Y-99497887D01*
X172799500Y-99674486D01*
X172829059Y-99861118D01*
X172887454Y-100040836D01*
X172973240Y-100209199D01*
X173084310Y-100362073D01*
X173217927Y-100495690D01*
X173370801Y-100606760D01*
X173450347Y-100647290D01*
X173539163Y-100692545D01*
X173539165Y-100692545D01*
X173539168Y-100692547D01*
X173635497Y-100723846D01*
X173718881Y-100750940D01*
X173905514Y-100780500D01*
X173905519Y-100780500D01*
X174094486Y-100780500D01*
X174281118Y-100750940D01*
X174460832Y-100692547D01*
X174629199Y-100606760D01*
X174782073Y-100495690D01*
X174915690Y-100362073D01*
X175026760Y-100209199D01*
X175112547Y-100040832D01*
X175170940Y-99861118D01*
X175183611Y-99781118D01*
X175200500Y-99674486D01*
X175200500Y-99485513D01*
X175170940Y-99298881D01*
X175112545Y-99119163D01*
X175065673Y-99027173D01*
X175026760Y-98950801D01*
X174915690Y-98797927D01*
X174782073Y-98664310D01*
X174629199Y-98553240D01*
X174460836Y-98467454D01*
X174281118Y-98409059D01*
X174094486Y-98379500D01*
X174094481Y-98379500D01*
X173917887Y-98379500D01*
X173850848Y-98359815D01*
X173830206Y-98343181D01*
X172745206Y-97258181D01*
X172711721Y-97196858D01*
X172716705Y-97127166D01*
X172758577Y-97071233D01*
X172824041Y-97046816D01*
X172832887Y-97046500D01*
X175212560Y-97046500D01*
X175302370Y-97028634D01*
X175346057Y-97019945D01*
X175471811Y-96967856D01*
X175484013Y-96959703D01*
X175513299Y-96940135D01*
X175558438Y-96909974D01*
X175584987Y-96892235D01*
X177036735Y-95440487D01*
X177112356Y-95327312D01*
X177116461Y-95317403D01*
X177132914Y-95277681D01*
X177164445Y-95201558D01*
X177172587Y-95160626D01*
X177191000Y-95068058D01*
X177191000Y-61931942D01*
X177191000Y-61931939D01*
X177164446Y-61798448D01*
X177164445Y-61798447D01*
X177164445Y-61798443D01*
X177112356Y-61672689D01*
X177112353Y-61672684D01*
X177111185Y-61670936D01*
X177111178Y-61670925D01*
X177036736Y-61559514D01*
X177036730Y-61559507D01*
X176227565Y-60750343D01*
X176194080Y-60689020D01*
X176192773Y-60643263D01*
X176200500Y-60594479D01*
X176200500Y-60405513D01*
X176170940Y-60218881D01*
X176126764Y-60082923D01*
X176112547Y-60039168D01*
X176112545Y-60039165D01*
X176112545Y-60039163D01*
X176037591Y-59892059D01*
X176026760Y-59870801D01*
X175915690Y-59717927D01*
X175782073Y-59584310D01*
X175629199Y-59473240D01*
X175609991Y-59463453D01*
X175460836Y-59387454D01*
X175281118Y-59329059D01*
X175094486Y-59299500D01*
X175094481Y-59299500D01*
X174905519Y-59299500D01*
X174905514Y-59299500D01*
X174718881Y-59329059D01*
X174539163Y-59387454D01*
X174371295Y-59472988D01*
X174302625Y-59485884D01*
X174237885Y-59459607D01*
X174197628Y-59402501D01*
X174191000Y-59362503D01*
X174191000Y-56431939D01*
X174164446Y-56298449D01*
X174164445Y-56298443D01*
X174118906Y-56188500D01*
X174118905Y-56188497D01*
X174118905Y-56188496D01*
X174112358Y-56172692D01*
X174112357Y-56172690D01*
X174112356Y-56172688D01*
X174036735Y-56059513D01*
X174036733Y-56059510D01*
X170440492Y-52463269D01*
X170440485Y-52463263D01*
X170327312Y-52387644D01*
X170327309Y-52387642D01*
X170201561Y-52335556D01*
X170201551Y-52335553D01*
X170068060Y-52309000D01*
X170068058Y-52309000D01*
X164545040Y-52309000D01*
X164478001Y-52289315D01*
X164444723Y-52257887D01*
X164415690Y-52217927D01*
X164282075Y-52084312D01*
X164282073Y-52084310D01*
X164129199Y-51973240D01*
X163960836Y-51887454D01*
X163781118Y-51829059D01*
X163594486Y-51799500D01*
X163594481Y-51799500D01*
X163405519Y-51799500D01*
X163405514Y-51799500D01*
X163218881Y-51829059D01*
X163039163Y-51887454D01*
X162870800Y-51973240D01*
X162809000Y-52018141D01*
X162717927Y-52084310D01*
X162717925Y-52084312D01*
X162717924Y-52084312D01*
X162584312Y-52217924D01*
X162584312Y-52217925D01*
X162584310Y-52217927D01*
X162555277Y-52257887D01*
X162473240Y-52370800D01*
X162387454Y-52539163D01*
X162329059Y-52718881D01*
X162299500Y-52905513D01*
X162299500Y-53094486D01*
X162329059Y-53281118D01*
X162387454Y-53460836D01*
X162430484Y-53545286D01*
X162473240Y-53629199D01*
X162584310Y-53782073D01*
X162717927Y-53915690D01*
X162870801Y-54026760D01*
X162960198Y-54072310D01*
X162964526Y-54074515D01*
X163015322Y-54122489D01*
X163032117Y-54190310D01*
X163009580Y-54256445D01*
X162954865Y-54299897D01*
X162908231Y-54309000D01*
X161045040Y-54309000D01*
X160978001Y-54289315D01*
X160944723Y-54257887D01*
X160915690Y-54217927D01*
X160782075Y-54084312D01*
X160782073Y-54084310D01*
X160629199Y-53973240D01*
X160460836Y-53887454D01*
X160281118Y-53829059D01*
X160094486Y-53799500D01*
X160094481Y-53799500D01*
X159905519Y-53799500D01*
X159905514Y-53799500D01*
X159718880Y-53829060D01*
X159718877Y-53829060D01*
X159535543Y-53888630D01*
X159465702Y-53890625D01*
X159405869Y-53854545D01*
X159375041Y-53791844D01*
X159383006Y-53722430D01*
X159396902Y-53697821D01*
X159446760Y-53629199D01*
X159532547Y-53460832D01*
X159590940Y-53281118D01*
X159597404Y-53240305D01*
X159620500Y-53094486D01*
X159620500Y-52905513D01*
X159590940Y-52718881D01*
X159532545Y-52539163D01*
X159446759Y-52370800D01*
X159335690Y-52217927D01*
X159202073Y-52084310D01*
X159162113Y-52055277D01*
X159119448Y-51999947D01*
X159111000Y-51954960D01*
X159111000Y-51851939D01*
X159091523Y-51754026D01*
X159084445Y-51718443D01*
X159076089Y-51698268D01*
X159073078Y-51691000D01*
X159032357Y-51592691D01*
X159032356Y-51592688D01*
X159032354Y-51592685D01*
X159032352Y-51592681D01*
X158956735Y-51479513D01*
X158956732Y-51479509D01*
X157940492Y-50463269D01*
X157940485Y-50463263D01*
X157827312Y-50387644D01*
X157827309Y-50387642D01*
X157701561Y-50335556D01*
X157701551Y-50335553D01*
X157568060Y-50309000D01*
X157568058Y-50309000D01*
X151931942Y-50309000D01*
X151931940Y-50309000D01*
X151798448Y-50335553D01*
X151798438Y-50335556D01*
X151672695Y-50387640D01*
X151672682Y-50387647D01*
X151559514Y-50463264D01*
X151559510Y-50463267D01*
X150799069Y-51223707D01*
X150799068Y-51223708D01*
X150799065Y-51223713D01*
X150742985Y-51307644D01*
X150723444Y-51336889D01*
X150671355Y-51462643D01*
X150664523Y-51496984D01*
X150659470Y-51508830D01*
X150645115Y-51526262D01*
X150634648Y-51546273D01*
X150618304Y-51560487D01*
X150521154Y-51631071D01*
X150381974Y-51770251D01*
X150381974Y-51770252D01*
X150381972Y-51770254D01*
X150339247Y-51829060D01*
X150266276Y-51929494D01*
X150176285Y-52106113D01*
X150128311Y-52156909D01*
X150060490Y-52173704D01*
X149994355Y-52151167D01*
X149955315Y-52106113D01*
X149910491Y-52018141D01*
X149865324Y-51929495D01*
X149749628Y-51770254D01*
X149610446Y-51631072D01*
X149451205Y-51515376D01*
X149438358Y-51508830D01*
X149275829Y-51426017D01*
X149088626Y-51365190D01*
X148894222Y-51334400D01*
X148894217Y-51334400D01*
X148697383Y-51334400D01*
X148697378Y-51334400D01*
X148502973Y-51365190D01*
X148315770Y-51426017D01*
X148140394Y-51515376D01*
X148117566Y-51531962D01*
X147981154Y-51631072D01*
X147981152Y-51631074D01*
X147981151Y-51631074D01*
X147841974Y-51770251D01*
X147841974Y-51770252D01*
X147841972Y-51770254D01*
X147799247Y-51829060D01*
X147726276Y-51929494D01*
X147636285Y-52106113D01*
X147588311Y-52156909D01*
X147520490Y-52173704D01*
X147454355Y-52151167D01*
X147415315Y-52106113D01*
X147370491Y-52018141D01*
X147325324Y-51929495D01*
X147209628Y-51770254D01*
X147070446Y-51631072D01*
X146911205Y-51515376D01*
X146898358Y-51508830D01*
X146735829Y-51426017D01*
X146548626Y-51365190D01*
X146354222Y-51334400D01*
X146354217Y-51334400D01*
X146157383Y-51334400D01*
X146157378Y-51334400D01*
X145962973Y-51365190D01*
X145775770Y-51426017D01*
X145600394Y-51515376D01*
X145577566Y-51531962D01*
X145441154Y-51631072D01*
X145441152Y-51631074D01*
X145441151Y-51631074D01*
X145301974Y-51770251D01*
X145301974Y-51770252D01*
X145301972Y-51770254D01*
X145259247Y-51829060D01*
X145186276Y-51929494D01*
X145096285Y-52106113D01*
X145048311Y-52156909D01*
X144980490Y-52173704D01*
X144914355Y-52151167D01*
X144875315Y-52106113D01*
X144830491Y-52018141D01*
X144785324Y-51929495D01*
X144669628Y-51770254D01*
X144530446Y-51631072D01*
X144371205Y-51515376D01*
X144358358Y-51508830D01*
X144195829Y-51426017D01*
X144008626Y-51365190D01*
X143814222Y-51334400D01*
X143814217Y-51334400D01*
X143617383Y-51334400D01*
X143617378Y-51334400D01*
X143422973Y-51365190D01*
X143235770Y-51426017D01*
X143060394Y-51515376D01*
X143037566Y-51531962D01*
X142901154Y-51631072D01*
X142901152Y-51631074D01*
X142901151Y-51631074D01*
X142761974Y-51770251D01*
X142761974Y-51770252D01*
X142761972Y-51770254D01*
X142719247Y-51829060D01*
X142646276Y-51929494D01*
X142556285Y-52106113D01*
X142508311Y-52156909D01*
X142440490Y-52173704D01*
X142374355Y-52151167D01*
X142335315Y-52106113D01*
X142290491Y-52018141D01*
X142245324Y-51929495D01*
X142129628Y-51770254D01*
X141990446Y-51631072D01*
X141831205Y-51515376D01*
X141818358Y-51508830D01*
X141655829Y-51426017D01*
X141468626Y-51365190D01*
X141274222Y-51334400D01*
X141274217Y-51334400D01*
X141077383Y-51334400D01*
X141077378Y-51334400D01*
X140882973Y-51365190D01*
X140695770Y-51426017D01*
X140520394Y-51515376D01*
X140497566Y-51531962D01*
X140361154Y-51631072D01*
X140361152Y-51631074D01*
X140361151Y-51631074D01*
X140221974Y-51770251D01*
X140221974Y-51770252D01*
X140221972Y-51770254D01*
X140179247Y-51829060D01*
X140106276Y-51929494D01*
X140016917Y-52104870D01*
X139956090Y-52292073D01*
X139925300Y-52486477D01*
X139925300Y-52683322D01*
X139956090Y-52877726D01*
X140016917Y-53064929D01*
X140106275Y-53240303D01*
X140106276Y-53240305D01*
X140221972Y-53399546D01*
X140361154Y-53538728D01*
X140370183Y-53545288D01*
X140412850Y-53600615D01*
X140421300Y-53645607D01*
X140421300Y-54069575D01*
X140401615Y-54136614D01*
X140384981Y-54157256D01*
X140336312Y-54205924D01*
X140336312Y-54205925D01*
X140336310Y-54205927D01*
X140299606Y-54256445D01*
X140225240Y-54358800D01*
X140139454Y-54527163D01*
X140081059Y-54706881D01*
X140051500Y-54893513D01*
X140051500Y-55082486D01*
X140081059Y-55269118D01*
X140139454Y-55448836D01*
X140202814Y-55573185D01*
X140225240Y-55617199D01*
X140336310Y-55770073D01*
X140469927Y-55903690D01*
X140622801Y-56014760D01*
X140702347Y-56055290D01*
X140791163Y-56100545D01*
X140791165Y-56100545D01*
X140791168Y-56100547D01*
X140887497Y-56131846D01*
X140970881Y-56158940D01*
X141157514Y-56188500D01*
X141157519Y-56188500D01*
X141346486Y-56188500D01*
X141533118Y-56158940D01*
X141712832Y-56100547D01*
X141881199Y-56014760D01*
X142034073Y-55903690D01*
X142167690Y-55770073D01*
X142278760Y-55617199D01*
X142364547Y-55448832D01*
X142422940Y-55269118D01*
X142436820Y-55181482D01*
X142452500Y-55082486D01*
X142452500Y-54893513D01*
X142422940Y-54706881D01*
X142364545Y-54527163D01*
X142284874Y-54370801D01*
X142278760Y-54358801D01*
X142167690Y-54205927D01*
X142034073Y-54072310D01*
X141981413Y-54034050D01*
X141938748Y-53978720D01*
X141930300Y-53933733D01*
X141930300Y-53645607D01*
X141949985Y-53578568D01*
X141981414Y-53545289D01*
X141990446Y-53538728D01*
X142129628Y-53399546D01*
X142245324Y-53240305D01*
X142334684Y-53064925D01*
X142335315Y-53063687D01*
X142383289Y-53012890D01*
X142451110Y-52996095D01*
X142517245Y-53018632D01*
X142556285Y-53063687D01*
X142646274Y-53240303D01*
X142681034Y-53288146D01*
X142761972Y-53399546D01*
X142901154Y-53538728D01*
X142910183Y-53545288D01*
X142952850Y-53600615D01*
X142961300Y-53645607D01*
X142961300Y-55136352D01*
X142961299Y-55136378D01*
X142961299Y-55141488D01*
X142961299Y-55290112D01*
X142985484Y-55411694D01*
X142990295Y-55435880D01*
X142990296Y-55435884D01*
X143006863Y-55475880D01*
X143047167Y-55573185D01*
X143129742Y-55696768D01*
X143129743Y-55696769D01*
X145174795Y-57741819D01*
X145208280Y-57803142D01*
X145203296Y-57872834D01*
X145161424Y-57928767D01*
X145095960Y-57953184D01*
X145087114Y-57953500D01*
X138872446Y-57953500D01*
X138872426Y-57953499D01*
X138866312Y-57953499D01*
X138717688Y-57953499D01*
X138717686Y-57953499D01*
X138604086Y-57976096D01*
X138604082Y-57976097D01*
X138596105Y-57977684D01*
X138571920Y-57982495D01*
X138515045Y-58006053D01*
X138511308Y-58007600D01*
X138511293Y-58007606D01*
X138434614Y-58039368D01*
X138311031Y-58121942D01*
X137109942Y-59323031D01*
X137027370Y-59446611D01*
X137021505Y-59460769D01*
X137021494Y-59460796D01*
X137020789Y-59462500D01*
X136970495Y-59583920D01*
X136967719Y-59597878D01*
X136965708Y-59607987D01*
X136965707Y-59607990D01*
X136941499Y-59729686D01*
X136941499Y-59884425D01*
X136941500Y-59884446D01*
X136941500Y-63680631D01*
X136921815Y-63747670D01*
X136869011Y-63793425D01*
X136799853Y-63803369D01*
X136778187Y-63798234D01*
X136774066Y-63796856D01*
X136720080Y-63774495D01*
X136695894Y-63769684D01*
X136688208Y-63768155D01*
X136688205Y-63768154D01*
X136574314Y-63745499D01*
X136574312Y-63745499D01*
X136425688Y-63745499D01*
X136419574Y-63745499D01*
X136419554Y-63745500D01*
X124080446Y-63745500D01*
X124080426Y-63745499D01*
X124074312Y-63745499D01*
X123925688Y-63745499D01*
X123925686Y-63745499D01*
X123811797Y-63768154D01*
X123804105Y-63769684D01*
X123789540Y-63772581D01*
X123779918Y-63774495D01*
X123779917Y-63774495D01*
X123723045Y-63798052D01*
X123723045Y-63798053D01*
X123642611Y-63831370D01*
X123642609Y-63831371D01*
X123519033Y-63913941D01*
X123466487Y-63966487D01*
X123413941Y-64019034D01*
X123413939Y-64019036D01*
X120413943Y-67019030D01*
X120413942Y-67019031D01*
X120331368Y-67142613D01*
X120298052Y-67223046D01*
X120277245Y-67273284D01*
X120277237Y-67273303D01*
X120274496Y-67279917D01*
X120245499Y-67425686D01*
X120245499Y-67580425D01*
X120245500Y-67580446D01*
X120245500Y-101420552D01*
X120245499Y-101420578D01*
X120245499Y-101425688D01*
X120245499Y-101574312D01*
X120245499Y-101574314D01*
X120245498Y-101574314D01*
X120274493Y-101720073D01*
X120274496Y-101720083D01*
X120331366Y-101857381D01*
X120331372Y-101857392D01*
X120413942Y-101980968D01*
X120413943Y-101980969D01*
X121909600Y-103476624D01*
X121909621Y-103476647D01*
X122019028Y-103586054D01*
X122019035Y-103586060D01*
X122142608Y-103668628D01*
X122142609Y-103668628D01*
X122142610Y-103668629D01*
X122279920Y-103725505D01*
X122380442Y-103745500D01*
X122425683Y-103754499D01*
X122425687Y-103754500D01*
X122425688Y-103754500D01*
X123353882Y-103754500D01*
X123420921Y-103774185D01*
X123454197Y-103805612D01*
X123518213Y-103893722D01*
X123531758Y-103912365D01*
X123687636Y-104068243D01*
X123687641Y-104068247D01*
X123865976Y-104197814D01*
X123965625Y-104248589D01*
X124016420Y-104296563D01*
X124033215Y-104364384D01*
X124010677Y-104430519D01*
X123997010Y-104446754D01*
X121461415Y-106982351D01*
X120769119Y-107674647D01*
X120706096Y-107737670D01*
X120628645Y-107815120D01*
X120518282Y-107980289D01*
X120518277Y-107980298D01*
X120442256Y-108163830D01*
X120442254Y-108163838D01*
X120403500Y-108358666D01*
X120403500Y-118209333D01*
X120442254Y-118404161D01*
X120442256Y-118404169D01*
X120461033Y-118449500D01*
X120518277Y-118587701D01*
X120518282Y-118587710D01*
X120628646Y-118752880D01*
X120628649Y-118752884D01*
X122039115Y-120163350D01*
X122039119Y-120163353D01*
X122204289Y-120273717D01*
X122204298Y-120273722D01*
X122245572Y-120290818D01*
X122387831Y-120349744D01*
X122539949Y-120380002D01*
X122582666Y-120388499D01*
X122582670Y-120388500D01*
X122582671Y-120388500D01*
X122781329Y-120388500D01*
X123411550Y-120388500D01*
X123478589Y-120408185D01*
X123524344Y-120460989D01*
X123529477Y-120476500D01*
X123529871Y-120476370D01*
X123587186Y-120649334D01*
X123587187Y-120649337D01*
X123679286Y-120798651D01*
X123679289Y-120798655D01*
X123803344Y-120922710D01*
X123803348Y-120922713D01*
X123952662Y-121014812D01*
X123952663Y-121014812D01*
X123952666Y-121014814D01*
X124072168Y-121054413D01*
X124125630Y-121072129D01*
X124124904Y-121074317D01*
X124176883Y-121102472D01*
X124210576Y-121163681D01*
X124213500Y-121190450D01*
X124213500Y-123289333D01*
X124252254Y-123484160D01*
X124252256Y-123484168D01*
X124328277Y-123667701D01*
X124328282Y-123667710D01*
X124438646Y-123832880D01*
X124438649Y-123832884D01*
X128501115Y-127895351D01*
X128501123Y-127895357D01*
X128666286Y-128005715D01*
X128666289Y-128005716D01*
X128666297Y-128005722D01*
X128773809Y-128050254D01*
X128849831Y-128081744D01*
X129044666Y-128120499D01*
X129044670Y-128120500D01*
X129044671Y-128120500D01*
X129044672Y-128120500D01*
X129243329Y-128120500D01*
X132866786Y-128120500D01*
X132933825Y-128140185D01*
X132954467Y-128156819D01*
X133065434Y-128267786D01*
X133250462Y-128402217D01*
X133382599Y-128469544D01*
X133454244Y-128506049D01*
X133671751Y-128576721D01*
X133671752Y-128576721D01*
X133671755Y-128576722D01*
X133897646Y-128612500D01*
X133897647Y-128612500D01*
X134126353Y-128612500D01*
X134126354Y-128612500D01*
X134352245Y-128576722D01*
X134352248Y-128576721D01*
X134352249Y-128576721D01*
X134569755Y-128506049D01*
X134569755Y-128506048D01*
X134569758Y-128506048D01*
X134773538Y-128402217D01*
X134958566Y-128267786D01*
X135120286Y-128106066D01*
X135181992Y-128021134D01*
X135237319Y-127978470D01*
X135306932Y-127972491D01*
X135368727Y-128005096D01*
X135382626Y-128021135D01*
X135444097Y-128105741D01*
X135444097Y-128105742D01*
X135605757Y-128267402D01*
X135790723Y-128401788D01*
X135994429Y-128505582D01*
X136211871Y-128576234D01*
X136302000Y-128590509D01*
X136302000Y-127602747D01*
X136339708Y-127624518D01*
X136479591Y-127662000D01*
X136624409Y-127662000D01*
X136764292Y-127624518D01*
X136802000Y-127602747D01*
X136802000Y-128590508D01*
X136892128Y-128576234D01*
X137109570Y-128505582D01*
X137313276Y-128401788D01*
X137496059Y-128268988D01*
X137561865Y-128245508D01*
X137629919Y-128261333D01*
X137678614Y-128311439D01*
X137685127Y-128325974D01*
X137695701Y-128354326D01*
X137695706Y-128354335D01*
X137781952Y-128469544D01*
X137781955Y-128469547D01*
X137897164Y-128555793D01*
X137897172Y-128555798D01*
X137910829Y-128560891D01*
X137966765Y-128602760D01*
X137991184Y-128668224D01*
X137991500Y-128677074D01*
X137991500Y-130720136D01*
X137971815Y-130787175D01*
X137932597Y-130825674D01*
X137881347Y-130857285D01*
X137881343Y-130857288D01*
X137757289Y-130981342D01*
X137665187Y-131130663D01*
X137665185Y-131130668D01*
X137655075Y-131161178D01*
X137610001Y-131297203D01*
X137610001Y-131297204D01*
X137610000Y-131297204D01*
X137599500Y-131399983D01*
X137599500Y-134600001D01*
X137599501Y-134600018D01*
X137610000Y-134702796D01*
X137610001Y-134702799D01*
X137646201Y-134812041D01*
X137665186Y-134869334D01*
X137757288Y-135018656D01*
X137881344Y-135142712D01*
X138030666Y-135234814D01*
X138197203Y-135289999D01*
X138299991Y-135300500D01*
X139700008Y-135300499D01*
X139802797Y-135289999D01*
X139969334Y-135234814D01*
X140118656Y-135142712D01*
X140242712Y-135018656D01*
X140334814Y-134869334D01*
X140389999Y-134702797D01*
X140400500Y-134600009D01*
X140400499Y-133077094D01*
X140420184Y-133010056D01*
X140436813Y-132989419D01*
X140635830Y-132790402D01*
X165699500Y-132790402D01*
X165699500Y-133209597D01*
X165736035Y-133627190D01*
X165736035Y-133627194D01*
X165808824Y-134039998D01*
X165808828Y-134040015D01*
X165917316Y-134444902D01*
X165917319Y-134444912D01*
X165917320Y-134444913D01*
X166060691Y-134838822D01*
X166060694Y-134838829D01*
X166060695Y-134838831D01*
X166060698Y-134838839D01*
X166237843Y-135218726D01*
X166237851Y-135218742D01*
X166290767Y-135310394D01*
X166447443Y-135581764D01*
X166447447Y-135581770D01*
X166447454Y-135581781D01*
X166687879Y-135925144D01*
X166796868Y-136055031D01*
X166957329Y-136246260D01*
X167253740Y-136542671D01*
X167364338Y-136635474D01*
X167574855Y-136812120D01*
X167918218Y-137052545D01*
X167918225Y-137052549D01*
X167918236Y-137052557D01*
X168281264Y-137262152D01*
X168281273Y-137262156D01*
X168661160Y-137439301D01*
X168661164Y-137439302D01*
X168661178Y-137439309D01*
X169055087Y-137582680D01*
X169055093Y-137582681D01*
X169055097Y-137582683D01*
X169165359Y-137612227D01*
X169459992Y-137691174D01*
X169872812Y-137763965D01*
X170290404Y-137800499D01*
X170290405Y-137800500D01*
X170290406Y-137800500D01*
X170709595Y-137800500D01*
X170709595Y-137800499D01*
X171127188Y-137763965D01*
X171540008Y-137691174D01*
X171944913Y-137582680D01*
X172338822Y-137439309D01*
X172718736Y-137262152D01*
X173081764Y-137052557D01*
X173425143Y-136812121D01*
X173746260Y-136542671D01*
X174042671Y-136246260D01*
X174312121Y-135925143D01*
X174552557Y-135581764D01*
X174762152Y-135218736D01*
X174939309Y-134838822D01*
X175082680Y-134444913D01*
X175191174Y-134040008D01*
X175263965Y-133627188D01*
X175300500Y-133209594D01*
X175300500Y-132790406D01*
X175263965Y-132372812D01*
X175191174Y-131959992D01*
X175082680Y-131555087D01*
X174939309Y-131161178D01*
X174889901Y-131055223D01*
X174762156Y-130781273D01*
X174762148Y-130781257D01*
X174573002Y-130453648D01*
X174552557Y-130418236D01*
X174552549Y-130418225D01*
X174552545Y-130418218D01*
X174312120Y-130074855D01*
X174143905Y-129874386D01*
X174042671Y-129753740D01*
X173746260Y-129457329D01*
X173657249Y-129382640D01*
X173425144Y-129187879D01*
X173081781Y-128947454D01*
X173081770Y-128947447D01*
X173081764Y-128947443D01*
X172973904Y-128885169D01*
X172718742Y-128737851D01*
X172718726Y-128737843D01*
X172338839Y-128560698D01*
X172338831Y-128560695D01*
X172338829Y-128560694D01*
X172338822Y-128560691D01*
X171944913Y-128417320D01*
X171944912Y-128417319D01*
X171944902Y-128417316D01*
X171582796Y-128320291D01*
X171540008Y-128308826D01*
X171540002Y-128308824D01*
X171539998Y-128308824D01*
X171127192Y-128236035D01*
X170709597Y-128199500D01*
X170709594Y-128199500D01*
X170290406Y-128199500D01*
X170290402Y-128199500D01*
X169872809Y-128236035D01*
X169872805Y-128236035D01*
X169460001Y-128308824D01*
X169459984Y-128308828D01*
X169055097Y-128417316D01*
X168911597Y-128469546D01*
X168661178Y-128560691D01*
X168661174Y-128560692D01*
X168661168Y-128560695D01*
X168661160Y-128560698D01*
X168281273Y-128737843D01*
X168281257Y-128737851D01*
X167918244Y-128947438D01*
X167918218Y-128947454D01*
X167574855Y-129187879D01*
X167253737Y-129457331D01*
X166957331Y-129753737D01*
X166687879Y-130074855D01*
X166447454Y-130418218D01*
X166447438Y-130418244D01*
X166237851Y-130781257D01*
X166237843Y-130781273D01*
X166060698Y-131161160D01*
X166060695Y-131161168D01*
X165917316Y-131555097D01*
X165808828Y-131959984D01*
X165808824Y-131960001D01*
X165736035Y-132372805D01*
X165736035Y-132372809D01*
X165699500Y-132790402D01*
X140635830Y-132790402D01*
X141825415Y-131600819D01*
X141886738Y-131567334D01*
X141913096Y-131564500D01*
X143153249Y-131564500D01*
X143220288Y-131584185D01*
X143226130Y-131588179D01*
X143336390Y-131668287D01*
X143452607Y-131727503D01*
X143518776Y-131761218D01*
X143518778Y-131761218D01*
X143518781Y-131761220D01*
X143623137Y-131795127D01*
X143713465Y-131824477D01*
X143814557Y-131840488D01*
X143915648Y-131856500D01*
X143915649Y-131856500D01*
X144120351Y-131856500D01*
X144120352Y-131856500D01*
X144322534Y-131824477D01*
X144517219Y-131761220D01*
X144699610Y-131668287D01*
X144809866Y-131588182D01*
X144865213Y-131547971D01*
X144865215Y-131547968D01*
X144865219Y-131547966D01*
X145009966Y-131403219D01*
X145009968Y-131403215D01*
X145009971Y-131403213D01*
X145062732Y-131330590D01*
X145130287Y-131237610D01*
X145223220Y-131055219D01*
X145286477Y-130860534D01*
X145318500Y-130658352D01*
X145318500Y-130453648D01*
X145286477Y-130251466D01*
X145223220Y-130056781D01*
X145223218Y-130056778D01*
X145223218Y-130056776D01*
X145189503Y-129990607D01*
X145130287Y-129874390D01*
X145122556Y-129863749D01*
X145009971Y-129708786D01*
X144865213Y-129564028D01*
X144699613Y-129443715D01*
X144699612Y-129443714D01*
X144699610Y-129443713D01*
X144642653Y-129414691D01*
X144517223Y-129350781D01*
X144322534Y-129287522D01*
X144147995Y-129259878D01*
X144120352Y-129255500D01*
X143915648Y-129255500D01*
X143891329Y-129259351D01*
X143713465Y-129287522D01*
X143518776Y-129350781D01*
X143336386Y-129443715D01*
X143226134Y-129523818D01*
X143160328Y-129547298D01*
X143153249Y-129547500D01*
X141344666Y-129547500D01*
X141149838Y-129586254D01*
X141149830Y-129586256D01*
X140982662Y-129655500D01*
X140982661Y-129655500D01*
X140966301Y-129662275D01*
X140966289Y-129662282D01*
X140801119Y-129772646D01*
X140801115Y-129772649D01*
X140220181Y-130353584D01*
X140158858Y-130387069D01*
X140089166Y-130382085D01*
X140033233Y-130340213D01*
X140008816Y-130274749D01*
X140008500Y-130265903D01*
X140008500Y-128732900D01*
X140028185Y-128665861D01*
X140080989Y-128620106D01*
X140119247Y-128609610D01*
X140151983Y-128606091D01*
X140192500Y-128590979D01*
X140286831Y-128555796D01*
X140402046Y-128469546D01*
X140488296Y-128354331D01*
X140538591Y-128219483D01*
X140538591Y-128219477D01*
X140539416Y-128215991D01*
X140540800Y-128213558D01*
X140541302Y-128212215D01*
X140541519Y-128212296D01*
X140573986Y-128155273D01*
X140635895Y-128122884D01*
X140660094Y-128120500D01*
X144987330Y-128120500D01*
X144987331Y-128120499D01*
X145182169Y-128081744D01*
X145365704Y-128005721D01*
X145530881Y-127895353D01*
X145671353Y-127754881D01*
X145729912Y-127696322D01*
X145729924Y-127696308D01*
X148381416Y-125044819D01*
X148442739Y-125011334D01*
X148469097Y-125008500D01*
X165078175Y-125008500D01*
X165145214Y-125028185D01*
X165190969Y-125080989D01*
X165201533Y-125119899D01*
X165210001Y-125202796D01*
X165210001Y-125202799D01*
X165265185Y-125369331D01*
X165265186Y-125369334D01*
X165357288Y-125518656D01*
X165481344Y-125642712D01*
X165630666Y-125734814D01*
X165797203Y-125789999D01*
X165899991Y-125800500D01*
X167100008Y-125800499D01*
X167202797Y-125789999D01*
X167369334Y-125734814D01*
X167518656Y-125642712D01*
X167642712Y-125518656D01*
X167734814Y-125369334D01*
X167789999Y-125202797D01*
X167800500Y-125100009D01*
X167800499Y-123899992D01*
X167789999Y-123797203D01*
X167734814Y-123630666D01*
X167642712Y-123481344D01*
X167544819Y-123383451D01*
X167511334Y-123322128D01*
X167508500Y-123295770D01*
X167508500Y-122469096D01*
X167528185Y-122402057D01*
X167544819Y-122381415D01*
X169381415Y-120544819D01*
X169442738Y-120511334D01*
X169469096Y-120508500D01*
X171720137Y-120508500D01*
X171787176Y-120528185D01*
X171825673Y-120567400D01*
X171857288Y-120618656D01*
X171981344Y-120742712D01*
X172130666Y-120834814D01*
X172297203Y-120889999D01*
X172399991Y-120900500D01*
X175600008Y-120900499D01*
X175702797Y-120889999D01*
X175869334Y-120834814D01*
X176018656Y-120742712D01*
X176142712Y-120618656D01*
X176174325Y-120567401D01*
X176226272Y-120520679D01*
X176279863Y-120508500D01*
X176599330Y-120508500D01*
X176599331Y-120508499D01*
X176794169Y-120469744D01*
X176977704Y-120393721D01*
X177142881Y-120283353D01*
X177283353Y-120142881D01*
X177341903Y-120084331D01*
X177341912Y-120084321D01*
X177783354Y-119642881D01*
X177799910Y-119618103D01*
X177853521Y-119573299D01*
X177922846Y-119564590D01*
X177985874Y-119594744D01*
X178022593Y-119654187D01*
X178027012Y-119686877D01*
X178045504Y-139325227D01*
X178025883Y-139392285D01*
X177973122Y-139438090D01*
X177921504Y-139449344D01*
X119124500Y-139449344D01*
X119057461Y-139429659D01*
X119011706Y-139376855D01*
X119000500Y-139325344D01*
X119000500Y-132790402D01*
X119699500Y-132790402D01*
X119699500Y-133209597D01*
X119736035Y-133627190D01*
X119736035Y-133627194D01*
X119808824Y-134039998D01*
X119808828Y-134040015D01*
X119917316Y-134444902D01*
X119917319Y-134444912D01*
X119917320Y-134444913D01*
X120060691Y-134838822D01*
X120060694Y-134838829D01*
X120060695Y-134838831D01*
X120060698Y-134838839D01*
X120237843Y-135218726D01*
X120237851Y-135218742D01*
X120290767Y-135310394D01*
X120447443Y-135581764D01*
X120447447Y-135581770D01*
X120447454Y-135581781D01*
X120687879Y-135925144D01*
X120796868Y-136055031D01*
X120957329Y-136246260D01*
X121253740Y-136542671D01*
X121364338Y-136635474D01*
X121574855Y-136812120D01*
X121918218Y-137052545D01*
X121918225Y-137052549D01*
X121918236Y-137052557D01*
X122281264Y-137262152D01*
X122281273Y-137262156D01*
X122661160Y-137439301D01*
X122661164Y-137439302D01*
X122661178Y-137439309D01*
X123055087Y-137582680D01*
X123055093Y-137582681D01*
X123055097Y-137582683D01*
X123165359Y-137612227D01*
X123459992Y-137691174D01*
X123872812Y-137763965D01*
X124290404Y-137800499D01*
X124290405Y-137800500D01*
X124290406Y-137800500D01*
X124709595Y-137800500D01*
X124709595Y-137800499D01*
X125127188Y-137763965D01*
X125540008Y-137691174D01*
X125944913Y-137582680D01*
X126338822Y-137439309D01*
X126718736Y-137262152D01*
X127081764Y-137052557D01*
X127425143Y-136812121D01*
X127746260Y-136542671D01*
X128042671Y-136246260D01*
X128312121Y-135925143D01*
X128552557Y-135581764D01*
X128626505Y-135453682D01*
X142718000Y-135453682D01*
X142718000Y-135658317D01*
X142750009Y-135860417D01*
X142813244Y-136055031D01*
X142906141Y-136237350D01*
X142906147Y-136237359D01*
X142938523Y-136281921D01*
X142938524Y-136281922D01*
X143618000Y-135602446D01*
X143618000Y-135608661D01*
X143645259Y-135710394D01*
X143697920Y-135801606D01*
X143772394Y-135876080D01*
X143863606Y-135928741D01*
X143965339Y-135956000D01*
X143971553Y-135956000D01*
X143292076Y-136635474D01*
X143336650Y-136667859D01*
X143518968Y-136760755D01*
X143713582Y-136823990D01*
X143915683Y-136856000D01*
X144120317Y-136856000D01*
X144322417Y-136823990D01*
X144517031Y-136760755D01*
X144699349Y-136667859D01*
X144743921Y-136635474D01*
X144064447Y-135956000D01*
X144070661Y-135956000D01*
X144172394Y-135928741D01*
X144263606Y-135876080D01*
X144338080Y-135801606D01*
X144390741Y-135710394D01*
X144418000Y-135608661D01*
X144418000Y-135602447D01*
X145097474Y-136281921D01*
X145129859Y-136237349D01*
X145222755Y-136055031D01*
X145285990Y-135860417D01*
X145318000Y-135658317D01*
X145318000Y-135453682D01*
X145285990Y-135251582D01*
X145222755Y-135056968D01*
X145129859Y-134874650D01*
X145097474Y-134830077D01*
X145097474Y-134830076D01*
X144418000Y-135509551D01*
X144418000Y-135503339D01*
X144390741Y-135401606D01*
X144338080Y-135310394D01*
X144263606Y-135235920D01*
X144172394Y-135183259D01*
X144070661Y-135156000D01*
X144064446Y-135156000D01*
X144743922Y-134476524D01*
X144743921Y-134476523D01*
X144699359Y-134444147D01*
X144699350Y-134444141D01*
X144517031Y-134351244D01*
X144322417Y-134288009D01*
X144120317Y-134256000D01*
X143915683Y-134256000D01*
X143713582Y-134288009D01*
X143518968Y-134351244D01*
X143336644Y-134444143D01*
X143292077Y-134476523D01*
X143292077Y-134476524D01*
X143971554Y-135156000D01*
X143965339Y-135156000D01*
X143863606Y-135183259D01*
X143772394Y-135235920D01*
X143697920Y-135310394D01*
X143645259Y-135401606D01*
X143618000Y-135503339D01*
X143618000Y-135509553D01*
X142938524Y-134830077D01*
X142938523Y-134830077D01*
X142906143Y-134874644D01*
X142813244Y-135056968D01*
X142750009Y-135251582D01*
X142718000Y-135453682D01*
X128626505Y-135453682D01*
X128762152Y-135218736D01*
X128939309Y-134838822D01*
X129082680Y-134444913D01*
X129191174Y-134040008D01*
X129263965Y-133627188D01*
X129300500Y-133209594D01*
X129300500Y-132790406D01*
X129263965Y-132372812D01*
X129196433Y-131989818D01*
X134100000Y-131989818D01*
X134100000Y-132750000D01*
X134951518Y-132750000D01*
X134940889Y-132768409D01*
X134900000Y-132921009D01*
X134900000Y-133078991D01*
X134940889Y-133231591D01*
X134951518Y-133250000D01*
X134100000Y-133250000D01*
X134100000Y-134010181D01*
X134134473Y-134227835D01*
X134202567Y-134437410D01*
X134302613Y-134633760D01*
X134432142Y-134812041D01*
X134587958Y-134967857D01*
X134766239Y-135097386D01*
X134962589Y-135197432D01*
X135172163Y-135265526D01*
X135249999Y-135277854D01*
X135250000Y-135277854D01*
X135250000Y-133548482D01*
X135268409Y-133559111D01*
X135421009Y-133600000D01*
X135578991Y-133600000D01*
X135731591Y-133559111D01*
X135750000Y-133548482D01*
X135750000Y-135277854D01*
X135827834Y-135265526D01*
X135827837Y-135265526D01*
X136037410Y-135197432D01*
X136233760Y-135097386D01*
X136412041Y-134967857D01*
X136567857Y-134812041D01*
X136697386Y-134633760D01*
X136797432Y-134437410D01*
X136865526Y-134227835D01*
X136900000Y-134010181D01*
X136900000Y-133250000D01*
X136048482Y-133250000D01*
X136059111Y-133231591D01*
X136100000Y-133078991D01*
X136100000Y-132921009D01*
X136059111Y-132768409D01*
X136048482Y-132750000D01*
X136900000Y-132750000D01*
X136900000Y-131989818D01*
X136865526Y-131772164D01*
X136797432Y-131562589D01*
X136697386Y-131366239D01*
X136567857Y-131187958D01*
X136412041Y-131032142D01*
X136233760Y-130902613D01*
X136037410Y-130802567D01*
X135827836Y-130734473D01*
X135750000Y-130722144D01*
X135750000Y-132451517D01*
X135731591Y-132440889D01*
X135578991Y-132400000D01*
X135421009Y-132400000D01*
X135268409Y-132440889D01*
X135250000Y-132451517D01*
X135250000Y-130722144D01*
X135172164Y-130734473D01*
X135172161Y-130734473D01*
X134962589Y-130802567D01*
X134766239Y-130902613D01*
X134587958Y-131032142D01*
X134432142Y-131187958D01*
X134302613Y-131366239D01*
X134202567Y-131562589D01*
X134134473Y-131772164D01*
X134100000Y-131989818D01*
X129196433Y-131989818D01*
X129191174Y-131959992D01*
X129082680Y-131555087D01*
X128939309Y-131161178D01*
X128889901Y-131055223D01*
X128762156Y-130781273D01*
X128762148Y-130781257D01*
X128573002Y-130453648D01*
X128552557Y-130418236D01*
X128552549Y-130418225D01*
X128552545Y-130418218D01*
X128312120Y-130074855D01*
X128143905Y-129874386D01*
X128042671Y-129753740D01*
X127746260Y-129457329D01*
X127657249Y-129382640D01*
X127425144Y-129187879D01*
X127081781Y-128947454D01*
X127081770Y-128947447D01*
X127081764Y-128947443D01*
X126973904Y-128885169D01*
X126718742Y-128737851D01*
X126718726Y-128737843D01*
X126338839Y-128560698D01*
X126338831Y-128560695D01*
X126338829Y-128560694D01*
X126338822Y-128560691D01*
X125944913Y-128417320D01*
X125944912Y-128417319D01*
X125944902Y-128417316D01*
X125582796Y-128320291D01*
X125540008Y-128308826D01*
X125540002Y-128308824D01*
X125539998Y-128308824D01*
X125127192Y-128236035D01*
X124709597Y-128199500D01*
X124709594Y-128199500D01*
X124290406Y-128199500D01*
X124290402Y-128199500D01*
X123872809Y-128236035D01*
X123872805Y-128236035D01*
X123460001Y-128308824D01*
X123459984Y-128308828D01*
X123055097Y-128417316D01*
X122911597Y-128469546D01*
X122661178Y-128560691D01*
X122661174Y-128560692D01*
X122661168Y-128560695D01*
X122661160Y-128560698D01*
X122281273Y-128737843D01*
X122281257Y-128737851D01*
X121918244Y-128947438D01*
X121918218Y-128947454D01*
X121574855Y-129187879D01*
X121253737Y-129457331D01*
X120957331Y-129753737D01*
X120687879Y-130074855D01*
X120447454Y-130418218D01*
X120447438Y-130418244D01*
X120237851Y-130781257D01*
X120237843Y-130781273D01*
X120060698Y-131161160D01*
X120060695Y-131161168D01*
X119917316Y-131555097D01*
X119808828Y-131959984D01*
X119808824Y-131960001D01*
X119736035Y-132372805D01*
X119736035Y-132372809D01*
X119699500Y-132790402D01*
X119000500Y-132790402D01*
X119000500Y-80734581D01*
X119071050Y-43290402D01*
X120699500Y-43290402D01*
X120699500Y-43709597D01*
X120736035Y-44127190D01*
X120736035Y-44127194D01*
X120808824Y-44539998D01*
X120808828Y-44540015D01*
X120917316Y-44944902D01*
X120917319Y-44944912D01*
X120917320Y-44944913D01*
X121060691Y-45338822D01*
X121060694Y-45338829D01*
X121060695Y-45338831D01*
X121060698Y-45338839D01*
X121237843Y-45718726D01*
X121237848Y-45718736D01*
X121447443Y-46081764D01*
X121447447Y-46081770D01*
X121447454Y-46081781D01*
X121687879Y-46425144D01*
X121882640Y-46657249D01*
X121957329Y-46746260D01*
X122253740Y-47042671D01*
X122387255Y-47154704D01*
X122574855Y-47312120D01*
X122918218Y-47552545D01*
X122918225Y-47552549D01*
X122918236Y-47552557D01*
X123281264Y-47762152D01*
X123281273Y-47762156D01*
X123661160Y-47939301D01*
X123661164Y-47939302D01*
X123661178Y-47939309D01*
X124055087Y-48082680D01*
X124055093Y-48082681D01*
X124055097Y-48082683D01*
X124165359Y-48112227D01*
X124459992Y-48191174D01*
X124872812Y-48263965D01*
X125290404Y-48300499D01*
X125290405Y-48300500D01*
X125290406Y-48300500D01*
X125709595Y-48300500D01*
X125709595Y-48300499D01*
X126127188Y-48263965D01*
X126540008Y-48191174D01*
X126944913Y-48082680D01*
X127338822Y-47939309D01*
X127718736Y-47762152D01*
X128081764Y-47552557D01*
X128425143Y-47312121D01*
X128746260Y-47042671D01*
X129042671Y-46746260D01*
X129312121Y-46425143D01*
X129552557Y-46081764D01*
X129762152Y-45718736D01*
X129939309Y-45338822D01*
X130082680Y-44944913D01*
X130191174Y-44540008D01*
X130263965Y-44127188D01*
X130300500Y-43709594D01*
X130300500Y-43290406D01*
X130300500Y-43290402D01*
X165199500Y-43290402D01*
X165199500Y-43709597D01*
X165236035Y-44127190D01*
X165236035Y-44127194D01*
X165308824Y-44539998D01*
X165308828Y-44540015D01*
X165417316Y-44944902D01*
X165417319Y-44944912D01*
X165417320Y-44944913D01*
X165560691Y-45338822D01*
X165560694Y-45338829D01*
X165560695Y-45338831D01*
X165560698Y-45338839D01*
X165737843Y-45718726D01*
X165737848Y-45718736D01*
X165947443Y-46081764D01*
X165947447Y-46081770D01*
X165947454Y-46081781D01*
X166187879Y-46425144D01*
X166382640Y-46657249D01*
X166457329Y-46746260D01*
X166753740Y-47042671D01*
X166887255Y-47154704D01*
X167074855Y-47312120D01*
X167418218Y-47552545D01*
X167418225Y-47552549D01*
X167418236Y-47552557D01*
X167781264Y-47762152D01*
X167781273Y-47762156D01*
X168161160Y-47939301D01*
X168161164Y-47939302D01*
X168161178Y-47939309D01*
X168555087Y-48082680D01*
X168555093Y-48082681D01*
X168555097Y-48082683D01*
X168665359Y-48112227D01*
X168959992Y-48191174D01*
X169372812Y-48263965D01*
X169790404Y-48300499D01*
X169790405Y-48300500D01*
X169790406Y-48300500D01*
X170209595Y-48300500D01*
X170209595Y-48300499D01*
X170627188Y-48263965D01*
X171040008Y-48191174D01*
X171444913Y-48082680D01*
X171838822Y-47939309D01*
X172218736Y-47762152D01*
X172581764Y-47552557D01*
X172925143Y-47312121D01*
X173246260Y-47042671D01*
X173542671Y-46746260D01*
X173812121Y-46425143D01*
X174052557Y-46081764D01*
X174262152Y-45718736D01*
X174439309Y-45338822D01*
X174582680Y-44944913D01*
X174691174Y-44540008D01*
X174763965Y-44127188D01*
X174800500Y-43709594D01*
X174800500Y-43290406D01*
X174763965Y-42872812D01*
X174691174Y-42459992D01*
X174582680Y-42055087D01*
X174439309Y-41661178D01*
X174262152Y-41281264D01*
X174052557Y-40918236D01*
X174052549Y-40918225D01*
X174052545Y-40918218D01*
X173812120Y-40574855D01*
X173542668Y-40253737D01*
X173246262Y-39957331D01*
X172925144Y-39687879D01*
X172581781Y-39447454D01*
X172581770Y-39447447D01*
X172581764Y-39447443D01*
X172473904Y-39385169D01*
X172218742Y-39237851D01*
X172218726Y-39237843D01*
X171838839Y-39060698D01*
X171838831Y-39060695D01*
X171838829Y-39060694D01*
X171838822Y-39060691D01*
X171444913Y-38917320D01*
X171444912Y-38917319D01*
X171444902Y-38917316D01*
X171040015Y-38808828D01*
X171040018Y-38808828D01*
X171040008Y-38808826D01*
X171040002Y-38808824D01*
X171039998Y-38808824D01*
X170627192Y-38736035D01*
X170209597Y-38699500D01*
X170209594Y-38699500D01*
X169790406Y-38699500D01*
X169790402Y-38699500D01*
X169372809Y-38736035D01*
X169372805Y-38736035D01*
X168960001Y-38808824D01*
X168959984Y-38808828D01*
X168555097Y-38917316D01*
X168358132Y-38989005D01*
X168161178Y-39060691D01*
X168161174Y-39060692D01*
X168161168Y-39060695D01*
X168161160Y-39060698D01*
X167781273Y-39237843D01*
X167781257Y-39237851D01*
X167418244Y-39447438D01*
X167418218Y-39447454D01*
X167074855Y-39687879D01*
X166753737Y-39957331D01*
X166457331Y-40253737D01*
X166187879Y-40574855D01*
X165947454Y-40918218D01*
X165947438Y-40918244D01*
X165737851Y-41281257D01*
X165737843Y-41281273D01*
X165560698Y-41661160D01*
X165560695Y-41661168D01*
X165417316Y-42055097D01*
X165308828Y-42459984D01*
X165308824Y-42460001D01*
X165236035Y-42872805D01*
X165236035Y-42872809D01*
X165199500Y-43290402D01*
X130300500Y-43290402D01*
X130263965Y-42872812D01*
X130191174Y-42459992D01*
X130082680Y-42055087D01*
X129939309Y-41661178D01*
X129762152Y-41281264D01*
X129552557Y-40918236D01*
X129552549Y-40918225D01*
X129552545Y-40918218D01*
X129312120Y-40574855D01*
X129042668Y-40253737D01*
X128746262Y-39957331D01*
X128425144Y-39687879D01*
X128081781Y-39447454D01*
X128081770Y-39447447D01*
X128081764Y-39447443D01*
X127973904Y-39385169D01*
X127718742Y-39237851D01*
X127718726Y-39237843D01*
X127338839Y-39060698D01*
X127338831Y-39060695D01*
X127338829Y-39060694D01*
X127338822Y-39060691D01*
X126944913Y-38917320D01*
X126944912Y-38917319D01*
X126944902Y-38917316D01*
X126540015Y-38808828D01*
X126540018Y-38808828D01*
X126540008Y-38808826D01*
X126540002Y-38808824D01*
X126539998Y-38808824D01*
X126127192Y-38736035D01*
X125709597Y-38699500D01*
X125709594Y-38699500D01*
X125290406Y-38699500D01*
X125290402Y-38699500D01*
X124872809Y-38736035D01*
X124872805Y-38736035D01*
X124460001Y-38808824D01*
X124459984Y-38808828D01*
X124055097Y-38917316D01*
X123858132Y-38989005D01*
X123661178Y-39060691D01*
X123661174Y-39060692D01*
X123661168Y-39060695D01*
X123661160Y-39060698D01*
X123281273Y-39237843D01*
X123281257Y-39237851D01*
X122918244Y-39447438D01*
X122918218Y-39447454D01*
X122574855Y-39687879D01*
X122253737Y-39957331D01*
X121957331Y-40253737D01*
X121687879Y-40574855D01*
X121447454Y-40918218D01*
X121447438Y-40918244D01*
X121237851Y-41281257D01*
X121237843Y-41281273D01*
X121060698Y-41661160D01*
X121060695Y-41661168D01*
X120917316Y-42055097D01*
X120808828Y-42459984D01*
X120808824Y-42460001D01*
X120736035Y-42872805D01*
X120736035Y-42872809D01*
X120699500Y-43290402D01*
X119071050Y-43290402D01*
X119071056Y-43287466D01*
X119081726Y-37624266D01*
X119101537Y-37557264D01*
X119154427Y-37511609D01*
X119205726Y-37500500D01*
X177825741Y-37500500D01*
X177892780Y-37520185D01*
G37*
%TD.AperFunction*%
%TA.AperFunction,Conductor*%
G36*
X157870000Y-91362661D02*
G01*
X157897259Y-91464394D01*
X157949920Y-91555606D01*
X158024394Y-91630080D01*
X158115606Y-91682741D01*
X158217339Y-91710000D01*
X158223553Y-91710000D01*
X157544076Y-92389474D01*
X157588650Y-92421859D01*
X157770968Y-92514755D01*
X157965582Y-92577990D01*
X158167683Y-92610000D01*
X158372317Y-92610000D01*
X158574417Y-92577990D01*
X158769031Y-92514755D01*
X158951349Y-92421859D01*
X158995921Y-92389474D01*
X158316447Y-91710000D01*
X158322661Y-91710000D01*
X158424394Y-91682741D01*
X158515606Y-91630080D01*
X158590080Y-91555606D01*
X158642741Y-91464394D01*
X158670000Y-91362661D01*
X158670000Y-91356447D01*
X159349474Y-92035921D01*
X159357771Y-92035269D01*
X159426148Y-92049633D01*
X159475905Y-92098685D01*
X159491500Y-92158887D01*
X159491500Y-93287403D01*
X159471815Y-93354442D01*
X159455181Y-93375084D01*
X156891904Y-95938360D01*
X156830581Y-95971845D01*
X156823622Y-95973152D01*
X156760876Y-95983090D01*
X156573672Y-96043917D01*
X156398294Y-96133276D01*
X156307441Y-96199285D01*
X156239054Y-96248972D01*
X156239052Y-96248974D01*
X156239051Y-96248974D01*
X156099874Y-96388151D01*
X156099874Y-96388152D01*
X156099872Y-96388154D01*
X156050185Y-96456541D01*
X155984176Y-96547394D01*
X155894817Y-96722770D01*
X155833990Y-96909973D01*
X155803200Y-97104377D01*
X155803200Y-97301222D01*
X155833990Y-97495626D01*
X155894817Y-97682829D01*
X155977985Y-97846054D01*
X155991500Y-97902349D01*
X155991500Y-101135248D01*
X155971815Y-101202287D01*
X155967818Y-101208133D01*
X155887715Y-101318386D01*
X155794781Y-101500776D01*
X155731522Y-101695465D01*
X155699500Y-101897648D01*
X155699500Y-102102351D01*
X155731522Y-102304534D01*
X155794781Y-102499223D01*
X155858691Y-102624653D01*
X155887585Y-102681359D01*
X155887715Y-102681613D01*
X156008028Y-102847213D01*
X156152786Y-102991971D01*
X156273226Y-103079474D01*
X156318390Y-103112287D01*
X156434607Y-103171503D01*
X156500776Y-103205218D01*
X156500778Y-103205218D01*
X156500781Y-103205220D01*
X156605137Y-103239127D01*
X156695465Y-103268477D01*
X156796557Y-103284488D01*
X156897648Y-103300500D01*
X156897649Y-103300500D01*
X157102351Y-103300500D01*
X157102352Y-103300500D01*
X157304534Y-103268477D01*
X157499219Y-103205220D01*
X157681610Y-103112287D01*
X157774590Y-103044732D01*
X157847213Y-102991971D01*
X157847215Y-102991968D01*
X157847219Y-102991966D01*
X157991966Y-102847219D01*
X157991968Y-102847215D01*
X157991971Y-102847213D01*
X158044732Y-102774590D01*
X158112287Y-102681610D01*
X158205220Y-102499219D01*
X158268477Y-102304534D01*
X158300500Y-102102352D01*
X158300500Y-101897648D01*
X158294124Y-101857390D01*
X158268477Y-101695465D01*
X158229112Y-101574312D01*
X158205220Y-101500781D01*
X158205218Y-101500778D01*
X158205218Y-101500776D01*
X158112419Y-101318650D01*
X158112287Y-101318390D01*
X158080092Y-101274077D01*
X158032182Y-101208133D01*
X158008702Y-101142327D01*
X158008500Y-101135248D01*
X158008500Y-98056398D01*
X158028185Y-97989359D01*
X158032173Y-97983524D01*
X158123224Y-97858205D01*
X158212584Y-97682825D01*
X158273409Y-97495626D01*
X158283347Y-97432874D01*
X158313275Y-97369742D01*
X158318121Y-97364611D01*
X161283353Y-94399381D01*
X161393721Y-94234204D01*
X161469744Y-94050669D01*
X161508500Y-93855829D01*
X161508500Y-93657171D01*
X161508500Y-92473197D01*
X161528185Y-92406158D01*
X161559615Y-92372879D01*
X161657215Y-92301969D01*
X161657215Y-92301968D01*
X161657219Y-92301966D01*
X161801966Y-92157219D01*
X161801968Y-92157215D01*
X161801971Y-92157213D01*
X161922284Y-91991614D01*
X161922283Y-91991614D01*
X161922287Y-91991610D01*
X161969516Y-91898917D01*
X162017489Y-91848123D01*
X162085310Y-91831328D01*
X162151445Y-91853865D01*
X162190483Y-91898917D01*
X162237713Y-91991610D01*
X162317818Y-92101866D01*
X162341298Y-92167670D01*
X162341500Y-92174750D01*
X162341500Y-95317403D01*
X162321815Y-95384442D01*
X162305181Y-95405084D01*
X161771904Y-95938360D01*
X161710581Y-95971845D01*
X161703622Y-95973152D01*
X161640876Y-95983090D01*
X161453672Y-96043917D01*
X161278294Y-96133276D01*
X161187441Y-96199285D01*
X161119054Y-96248972D01*
X161119052Y-96248974D01*
X161119051Y-96248974D01*
X160979874Y-96388151D01*
X160979874Y-96388152D01*
X160979872Y-96388154D01*
X160930185Y-96456541D01*
X160864176Y-96547394D01*
X160774817Y-96722770D01*
X160713990Y-96909973D01*
X160683200Y-97104377D01*
X160683200Y-97301222D01*
X160713990Y-97495626D01*
X160774817Y-97682829D01*
X160829841Y-97790819D01*
X160864176Y-97858205D01*
X160901518Y-97909602D01*
X160924998Y-97975407D01*
X160925200Y-97982486D01*
X160925200Y-101226503D01*
X160905515Y-101293542D01*
X160901520Y-101299386D01*
X160887712Y-101318391D01*
X160794781Y-101500776D01*
X160731522Y-101695465D01*
X160699500Y-101897648D01*
X160699500Y-102102351D01*
X160731522Y-102304534D01*
X160794781Y-102499223D01*
X160858691Y-102624653D01*
X160887585Y-102681359D01*
X160887715Y-102681613D01*
X161008028Y-102847213D01*
X161152786Y-102991971D01*
X161273226Y-103079474D01*
X161318390Y-103112287D01*
X161434607Y-103171503D01*
X161500776Y-103205218D01*
X161500778Y-103205218D01*
X161500781Y-103205220D01*
X161605137Y-103239127D01*
X161695465Y-103268477D01*
X161720371Y-103272421D01*
X161860001Y-103294537D01*
X161923134Y-103324465D01*
X161960066Y-103383776D01*
X161959068Y-103453639D01*
X161928283Y-103504690D01*
X160723794Y-104709181D01*
X160662471Y-104742666D01*
X160636113Y-104745500D01*
X155580446Y-104745500D01*
X155580426Y-104745499D01*
X155574312Y-104745499D01*
X155425688Y-104745499D01*
X155425686Y-104745499D01*
X155304105Y-104769684D01*
X155289540Y-104772581D01*
X155279918Y-104774495D01*
X155279917Y-104774495D01*
X155223045Y-104798052D01*
X155223045Y-104798053D01*
X155142611Y-104831370D01*
X155142609Y-104831371D01*
X155019033Y-104913941D01*
X154966487Y-104966487D01*
X154913941Y-105019034D01*
X154913939Y-105019036D01*
X154413943Y-105519030D01*
X154413942Y-105519031D01*
X154331372Y-105642607D01*
X154331366Y-105642618D01*
X154299282Y-105720079D01*
X154279552Y-105767713D01*
X154275541Y-105777395D01*
X154274494Y-105779923D01*
X154274493Y-105779925D01*
X154245499Y-105925685D01*
X154245499Y-106080425D01*
X154245500Y-106080446D01*
X154245500Y-121420552D01*
X154245499Y-121420578D01*
X154245499Y-121574314D01*
X154255504Y-121624610D01*
X154266034Y-121677546D01*
X154274495Y-121720080D01*
X154292603Y-121763796D01*
X154294850Y-121769223D01*
X154294854Y-121769233D01*
X154331366Y-121857381D01*
X154331372Y-121857392D01*
X154413942Y-121980968D01*
X154413943Y-121980969D01*
X154759601Y-122326625D01*
X154759620Y-122326646D01*
X154869031Y-122436057D01*
X154931362Y-122477705D01*
X154931361Y-122477705D01*
X154992600Y-122518623D01*
X154992604Y-122518625D01*
X154992611Y-122518630D01*
X155073045Y-122551946D01*
X155129920Y-122575505D01*
X155154105Y-122580315D01*
X155202994Y-122590040D01*
X155275686Y-122604501D01*
X155275688Y-122604501D01*
X155430426Y-122604501D01*
X155430446Y-122604500D01*
X156365375Y-122604500D01*
X156432414Y-122624185D01*
X156452203Y-122639973D01*
X156452567Y-122640330D01*
X156577927Y-122765690D01*
X156587389Y-122772565D01*
X156593923Y-122778973D01*
X156606679Y-122801806D01*
X156622648Y-122822517D01*
X156623446Y-122831818D01*
X156628000Y-122839969D01*
X156626387Y-122866072D01*
X156628624Y-122892130D01*
X156624266Y-122900387D01*
X156623691Y-122909706D01*
X156608221Y-122930793D01*
X156596016Y-122953924D01*
X156587885Y-122958515D01*
X156582364Y-122966042D01*
X156557951Y-122975417D01*
X156535176Y-122988279D01*
X156519905Y-122990030D01*
X156517139Y-122991093D01*
X156514825Y-122990613D01*
X156507095Y-122991500D01*
X149468500Y-122991500D01*
X149401461Y-122971815D01*
X149355706Y-122919011D01*
X149344500Y-122867500D01*
X149344500Y-121190450D01*
X149364185Y-121123411D01*
X149416989Y-121077656D01*
X149432500Y-121072522D01*
X149432370Y-121072129D01*
X149472194Y-121058932D01*
X149605334Y-121014814D01*
X149754655Y-120922711D01*
X149878711Y-120798655D01*
X149970814Y-120649334D01*
X150025999Y-120482797D01*
X150036500Y-120380008D01*
X150036500Y-118379992D01*
X150025999Y-118277203D01*
X149970814Y-118110666D01*
X149970403Y-118110000D01*
X149878713Y-117961348D01*
X149878710Y-117961344D01*
X149754655Y-117837289D01*
X149754651Y-117837286D01*
X149605337Y-117745187D01*
X149605335Y-117745186D01*
X149482434Y-117704461D01*
X149438797Y-117690001D01*
X149438795Y-117690000D01*
X149336015Y-117679500D01*
X149336008Y-117679500D01*
X147335992Y-117679500D01*
X147335984Y-117679500D01*
X147233204Y-117690000D01*
X147233203Y-117690001D01*
X147066664Y-117745186D01*
X147066662Y-117745187D01*
X146917348Y-117837286D01*
X146917344Y-117837289D01*
X146793289Y-117961344D01*
X146793286Y-117961348D01*
X146701187Y-118110662D01*
X146701186Y-118110664D01*
X146646001Y-118277203D01*
X146646000Y-118277204D01*
X146635500Y-118379984D01*
X146635500Y-120380015D01*
X146646000Y-120482795D01*
X146646001Y-120482797D01*
X146666553Y-120544819D01*
X146701186Y-120649335D01*
X146701187Y-120649337D01*
X146793286Y-120798651D01*
X146793289Y-120798655D01*
X146917344Y-120922710D01*
X146917348Y-120922713D01*
X147066662Y-121014812D01*
X147066663Y-121014812D01*
X147066666Y-121014814D01*
X147186168Y-121054413D01*
X147239630Y-121072129D01*
X147238904Y-121074317D01*
X147290883Y-121102472D01*
X147324576Y-121163681D01*
X147327500Y-121190450D01*
X147327500Y-123194903D01*
X147307815Y-123261942D01*
X147291181Y-123282584D01*
X144506585Y-126067181D01*
X144445262Y-126100666D01*
X144418904Y-126103500D01*
X140660095Y-126103500D01*
X140593056Y-126083815D01*
X140547301Y-126031011D01*
X140539419Y-126008020D01*
X140538591Y-126004522D01*
X140538591Y-126004517D01*
X140502798Y-125908552D01*
X140488297Y-125869671D01*
X140488293Y-125869664D01*
X140402047Y-125754455D01*
X140402044Y-125754452D01*
X140286835Y-125668206D01*
X140286828Y-125668202D01*
X140151982Y-125617908D01*
X140151983Y-125617908D01*
X140092383Y-125611501D01*
X140092381Y-125611500D01*
X140092373Y-125611500D01*
X140092364Y-125611500D01*
X138091629Y-125611500D01*
X138091623Y-125611501D01*
X138032016Y-125617908D01*
X137897171Y-125668202D01*
X137897164Y-125668206D01*
X137781955Y-125754452D01*
X137781952Y-125754455D01*
X137695706Y-125869664D01*
X137695702Y-125869671D01*
X137685127Y-125898026D01*
X137643256Y-125953960D01*
X137577791Y-125978377D01*
X137509518Y-125963525D01*
X137496060Y-125955011D01*
X137313279Y-125822213D01*
X137109568Y-125718417D01*
X136892124Y-125647765D01*
X136802000Y-125633490D01*
X136802000Y-126621252D01*
X136764292Y-126599482D01*
X136624409Y-126562000D01*
X136479591Y-126562000D01*
X136339708Y-126599482D01*
X136302000Y-126621252D01*
X136302000Y-125633490D01*
X136301999Y-125633490D01*
X136211875Y-125647765D01*
X135994431Y-125718417D01*
X135790723Y-125822211D01*
X135605757Y-125956597D01*
X135444097Y-126118257D01*
X135382627Y-126202864D01*
X135327297Y-126245529D01*
X135257684Y-126251508D01*
X135195889Y-126218902D01*
X135181991Y-126202864D01*
X135120286Y-126117934D01*
X134958566Y-125956214D01*
X134773538Y-125821783D01*
X134731764Y-125800498D01*
X134569755Y-125717950D01*
X134352248Y-125647278D01*
X134166812Y-125617908D01*
X134126354Y-125611500D01*
X133897646Y-125611500D01*
X133857188Y-125617908D01*
X133671753Y-125647278D01*
X133671750Y-125647278D01*
X133454244Y-125717950D01*
X133250461Y-125821783D01*
X133184550Y-125869671D01*
X133065434Y-125956214D01*
X133065432Y-125956216D01*
X133065431Y-125956216D01*
X132954467Y-126067181D01*
X132893144Y-126100666D01*
X132866786Y-126103500D01*
X129613097Y-126103500D01*
X129546058Y-126083815D01*
X129525416Y-126067181D01*
X126266819Y-122808584D01*
X126233334Y-122747261D01*
X126230500Y-122720903D01*
X126230500Y-121190450D01*
X126250185Y-121123411D01*
X126302989Y-121077656D01*
X126318500Y-121072522D01*
X126318370Y-121072129D01*
X126358194Y-121058932D01*
X126491334Y-121014814D01*
X126640655Y-120922711D01*
X126764711Y-120798655D01*
X126856814Y-120649334D01*
X126911999Y-120482797D01*
X126922500Y-120380008D01*
X126922500Y-118379992D01*
X126911999Y-118277203D01*
X126856814Y-118110666D01*
X126856403Y-118110000D01*
X126764713Y-117961348D01*
X126764710Y-117961344D01*
X126640655Y-117837289D01*
X126640651Y-117837286D01*
X126491337Y-117745187D01*
X126491335Y-117745186D01*
X126368434Y-117704461D01*
X126324797Y-117690001D01*
X126324795Y-117690000D01*
X126222015Y-117679500D01*
X126222008Y-117679500D01*
X124221992Y-117679500D01*
X124221984Y-117679500D01*
X124119204Y-117690000D01*
X124119203Y-117690001D01*
X123952664Y-117745186D01*
X123952662Y-117745187D01*
X123803348Y-117837286D01*
X123803344Y-117837289D01*
X123679289Y-117961344D01*
X123679286Y-117961348D01*
X123587187Y-118110662D01*
X123587186Y-118110665D01*
X123529871Y-118283630D01*
X123527682Y-118282904D01*
X123499528Y-118334883D01*
X123438319Y-118368576D01*
X123411550Y-118371500D01*
X123151096Y-118371500D01*
X123084057Y-118351815D01*
X123063415Y-118335181D01*
X122456819Y-117728585D01*
X122423334Y-117667262D01*
X122420500Y-117640904D01*
X122420500Y-114268575D01*
X123522000Y-114268575D01*
X123522000Y-114491424D01*
X123551085Y-114712354D01*
X123551088Y-114712367D01*
X123608763Y-114927618D01*
X123694045Y-115133502D01*
X123694054Y-115133520D01*
X123805464Y-115326491D01*
X123805473Y-115326504D01*
X123856040Y-115392403D01*
X123856043Y-115392403D01*
X124657387Y-114591059D01*
X124662889Y-114611591D01*
X124741881Y-114748408D01*
X124853592Y-114860119D01*
X124990409Y-114939111D01*
X125010940Y-114944612D01*
X124209595Y-115745955D01*
X124209595Y-115745956D01*
X124275507Y-115796533D01*
X124468485Y-115907949D01*
X124468497Y-115907954D01*
X124674381Y-115993236D01*
X124889632Y-116050911D01*
X124889645Y-116050914D01*
X125110575Y-116080000D01*
X125333425Y-116080000D01*
X125554354Y-116050914D01*
X125554367Y-116050911D01*
X125769618Y-115993236D01*
X125975502Y-115907954D01*
X125975514Y-115907949D01*
X126168498Y-115796530D01*
X126234403Y-115745957D01*
X126234404Y-115745956D01*
X125433059Y-114944612D01*
X125453591Y-114939111D01*
X125590408Y-114860119D01*
X125702119Y-114748408D01*
X125781111Y-114611591D01*
X125786612Y-114591059D01*
X126587956Y-115392404D01*
X126587957Y-115392403D01*
X126638530Y-115326498D01*
X126749949Y-115133514D01*
X126749954Y-115133502D01*
X126835236Y-114927618D01*
X126892911Y-114712367D01*
X126892914Y-114712354D01*
X126922000Y-114491424D01*
X126922000Y-114268575D01*
X146636000Y-114268575D01*
X146636000Y-114491424D01*
X146665085Y-114712354D01*
X146665088Y-114712367D01*
X146722763Y-114927618D01*
X146808045Y-115133502D01*
X146808054Y-115133520D01*
X146919464Y-115326491D01*
X146919473Y-115326504D01*
X146970040Y-115392403D01*
X146970043Y-115392403D01*
X147771387Y-114591059D01*
X147776889Y-114611591D01*
X147855881Y-114748408D01*
X147967592Y-114860119D01*
X148104409Y-114939111D01*
X148124940Y-114944612D01*
X147323595Y-115745955D01*
X147323595Y-115745956D01*
X147389507Y-115796533D01*
X147582485Y-115907949D01*
X147582497Y-115907954D01*
X147788381Y-115993236D01*
X148003632Y-116050911D01*
X148003645Y-116050914D01*
X148224575Y-116080000D01*
X148447425Y-116080000D01*
X148668354Y-116050914D01*
X148668367Y-116050911D01*
X148883618Y-115993236D01*
X149089502Y-115907954D01*
X149089514Y-115907949D01*
X149282498Y-115796530D01*
X149348403Y-115745957D01*
X149348404Y-115745956D01*
X148547059Y-114944612D01*
X148567591Y-114939111D01*
X148704408Y-114860119D01*
X148816119Y-114748408D01*
X148895111Y-114611591D01*
X148900612Y-114591060D01*
X149701956Y-115392404D01*
X149701957Y-115392403D01*
X149752530Y-115326498D01*
X149863949Y-115133514D01*
X149863954Y-115133502D01*
X149949236Y-114927618D01*
X150006911Y-114712367D01*
X150006914Y-114712354D01*
X150036000Y-114491424D01*
X150036000Y-114268575D01*
X150006914Y-114047645D01*
X150006911Y-114047632D01*
X149949236Y-113832381D01*
X149863954Y-113626497D01*
X149863948Y-113626484D01*
X149752533Y-113433507D01*
X149701956Y-113367595D01*
X149701955Y-113367595D01*
X148900612Y-114168939D01*
X148895111Y-114148409D01*
X148816119Y-114011592D01*
X148704408Y-113899881D01*
X148567591Y-113820889D01*
X148547058Y-113815387D01*
X149348403Y-113014043D01*
X149348403Y-113014040D01*
X149282504Y-112963473D01*
X149282491Y-112963464D01*
X149089520Y-112852054D01*
X149089502Y-112852045D01*
X148883618Y-112766763D01*
X148668367Y-112709088D01*
X148668354Y-112709085D01*
X148447425Y-112680000D01*
X148224575Y-112680000D01*
X148003645Y-112709085D01*
X148003632Y-112709088D01*
X147788381Y-112766763D01*
X147582497Y-112852045D01*
X147582479Y-112852054D01*
X147389511Y-112963462D01*
X147323595Y-113014042D01*
X148124941Y-113815387D01*
X148104409Y-113820889D01*
X147967592Y-113899881D01*
X147855881Y-114011592D01*
X147776889Y-114148409D01*
X147771387Y-114168940D01*
X146970042Y-113367595D01*
X146919462Y-113433511D01*
X146808054Y-113626479D01*
X146808045Y-113626497D01*
X146722763Y-113832381D01*
X146665088Y-114047632D01*
X146665085Y-114047645D01*
X146636000Y-114268575D01*
X126922000Y-114268575D01*
X126892914Y-114047645D01*
X126892911Y-114047632D01*
X126835236Y-113832381D01*
X126749954Y-113626497D01*
X126749948Y-113626484D01*
X126638533Y-113433507D01*
X126587956Y-113367595D01*
X126587955Y-113367595D01*
X125786612Y-114168939D01*
X125781111Y-114148409D01*
X125702119Y-114011592D01*
X125590408Y-113899881D01*
X125453591Y-113820889D01*
X125433058Y-113815387D01*
X126234403Y-113014043D01*
X126234403Y-113014041D01*
X126168504Y-112963473D01*
X126168491Y-112963464D01*
X125975520Y-112852054D01*
X125975502Y-112852045D01*
X125769618Y-112766763D01*
X125554367Y-112709088D01*
X125554354Y-112709085D01*
X125333425Y-112680000D01*
X125110575Y-112680000D01*
X124889645Y-112709085D01*
X124889632Y-112709088D01*
X124674381Y-112766763D01*
X124468497Y-112852045D01*
X124468479Y-112852054D01*
X124275511Y-112963462D01*
X124209595Y-113014042D01*
X125010941Y-113815387D01*
X124990409Y-113820889D01*
X124853592Y-113899881D01*
X124741881Y-114011592D01*
X124662889Y-114148409D01*
X124657387Y-114168940D01*
X123856042Y-113367595D01*
X123805462Y-113433511D01*
X123694054Y-113626479D01*
X123694045Y-113626497D01*
X123608763Y-113832381D01*
X123551088Y-114047632D01*
X123551085Y-114047645D01*
X123522000Y-114268575D01*
X122420500Y-114268575D01*
X122420500Y-110320872D01*
X134551500Y-110320872D01*
X134551500Y-110583127D01*
X134575492Y-110765351D01*
X134585730Y-110843116D01*
X134601152Y-110900671D01*
X134653602Y-111096418D01*
X134653605Y-111096428D01*
X134753953Y-111338690D01*
X134753958Y-111338700D01*
X134885075Y-111565803D01*
X135044718Y-111773851D01*
X135044726Y-111773860D01*
X135230140Y-111959274D01*
X135230148Y-111959281D01*
X135438196Y-112118924D01*
X135665299Y-112250041D01*
X135665309Y-112250046D01*
X135887183Y-112341949D01*
X135907581Y-112350398D01*
X136160884Y-112418270D01*
X136420880Y-112452500D01*
X136420887Y-112452500D01*
X136683113Y-112452500D01*
X136683120Y-112452500D01*
X136943116Y-112418270D01*
X137196419Y-112350398D01*
X137438697Y-112250043D01*
X137665803Y-112118924D01*
X137873851Y-111959282D01*
X137873855Y-111959277D01*
X137873860Y-111959274D01*
X138059274Y-111773860D01*
X138059277Y-111773855D01*
X138059282Y-111773851D01*
X138218924Y-111565803D01*
X138350043Y-111338697D01*
X138450398Y-111096419D01*
X138518270Y-110843116D01*
X138552500Y-110583120D01*
X138552500Y-110320880D01*
X138518270Y-110060884D01*
X138450398Y-109807581D01*
X138397813Y-109680630D01*
X138350046Y-109565309D01*
X138350041Y-109565299D01*
X138218924Y-109338196D01*
X138059281Y-109130148D01*
X138059274Y-109130140D01*
X137873860Y-108944726D01*
X137873851Y-108944718D01*
X137665803Y-108785075D01*
X137438700Y-108653958D01*
X137438690Y-108653953D01*
X137196428Y-108553605D01*
X137196421Y-108553603D01*
X137196419Y-108553602D01*
X136943116Y-108485730D01*
X136885339Y-108478123D01*
X136683127Y-108451500D01*
X136683120Y-108451500D01*
X136420880Y-108451500D01*
X136420872Y-108451500D01*
X136189772Y-108481926D01*
X136160884Y-108485730D01*
X135920763Y-108550070D01*
X135907581Y-108553602D01*
X135907571Y-108553605D01*
X135665309Y-108653953D01*
X135665299Y-108653958D01*
X135438196Y-108785075D01*
X135230148Y-108944718D01*
X135044718Y-109130148D01*
X134885075Y-109338196D01*
X134753958Y-109565299D01*
X134753953Y-109565309D01*
X134653605Y-109807571D01*
X134653602Y-109807581D01*
X134585730Y-110060884D01*
X134581926Y-110089772D01*
X134551500Y-110320872D01*
X122420500Y-110320872D01*
X122420500Y-108927096D01*
X122440185Y-108860057D01*
X122456819Y-108839415D01*
X126259350Y-105036884D01*
X126259353Y-105036881D01*
X126369722Y-104871704D01*
X126445744Y-104688168D01*
X126468392Y-104574312D01*
X126485689Y-104487354D01*
X126488302Y-104487873D01*
X126510086Y-104433794D01*
X126567087Y-104393388D01*
X126587987Y-104388183D01*
X126727951Y-104366015D01*
X126937606Y-104297895D01*
X127134022Y-104197815D01*
X127312365Y-104068242D01*
X127335788Y-104044819D01*
X127397111Y-104011334D01*
X127423469Y-104008500D01*
X133179330Y-104008500D01*
X133179331Y-104008499D01*
X133374169Y-103969744D01*
X133557704Y-103893721D01*
X133722881Y-103783353D01*
X133863353Y-103642881D01*
X135608551Y-101897682D01*
X150700000Y-101897682D01*
X150700000Y-102102317D01*
X150732009Y-102304417D01*
X150795244Y-102499031D01*
X150888141Y-102681350D01*
X150888147Y-102681359D01*
X150920523Y-102725921D01*
X150920524Y-102725922D01*
X151600000Y-102046446D01*
X151600000Y-102052661D01*
X151627259Y-102154394D01*
X151679920Y-102245606D01*
X151754394Y-102320080D01*
X151845606Y-102372741D01*
X151947339Y-102400000D01*
X151953553Y-102400000D01*
X151274076Y-103079474D01*
X151318650Y-103111859D01*
X151500968Y-103204755D01*
X151695582Y-103267990D01*
X151897683Y-103300000D01*
X152102317Y-103300000D01*
X152304417Y-103267990D01*
X152499031Y-103204755D01*
X152681349Y-103111859D01*
X152725921Y-103079474D01*
X152046447Y-102400000D01*
X152052661Y-102400000D01*
X152154394Y-102372741D01*
X152245606Y-102320080D01*
X152320080Y-102245606D01*
X152372741Y-102154394D01*
X152400000Y-102052661D01*
X152400000Y-102046448D01*
X153079474Y-102725922D01*
X153079474Y-102725921D01*
X153111859Y-102681349D01*
X153204755Y-102499031D01*
X153267990Y-102304417D01*
X153300000Y-102102317D01*
X153300000Y-101897682D01*
X153267990Y-101695582D01*
X153204755Y-101500968D01*
X153111859Y-101318650D01*
X153079474Y-101274077D01*
X153079474Y-101274076D01*
X152400000Y-101953551D01*
X152400000Y-101947339D01*
X152372741Y-101845606D01*
X152320080Y-101754394D01*
X152245606Y-101679920D01*
X152154394Y-101627259D01*
X152052661Y-101600000D01*
X152046446Y-101600000D01*
X152725922Y-100920524D01*
X152725921Y-100920523D01*
X152681359Y-100888147D01*
X152681350Y-100888141D01*
X152499031Y-100795244D01*
X152304417Y-100732009D01*
X152102317Y-100700000D01*
X151897683Y-100700000D01*
X151695582Y-100732009D01*
X151500968Y-100795244D01*
X151318644Y-100888143D01*
X151274077Y-100920523D01*
X151274077Y-100920524D01*
X151953554Y-101600000D01*
X151947339Y-101600000D01*
X151845606Y-101627259D01*
X151754394Y-101679920D01*
X151679920Y-101754394D01*
X151627259Y-101845606D01*
X151600000Y-101947339D01*
X151600000Y-101953553D01*
X150920524Y-101274077D01*
X150920523Y-101274077D01*
X150888143Y-101318644D01*
X150795244Y-101500968D01*
X150732009Y-101695582D01*
X150700000Y-101897682D01*
X135608551Y-101897682D01*
X136802406Y-100703826D01*
X136856785Y-100673376D01*
X136856483Y-100672446D01*
X136861118Y-100670940D01*
X137040832Y-100612547D01*
X137209199Y-100526760D01*
X137209199Y-100526759D01*
X137213540Y-100524548D01*
X137213983Y-100525419D01*
X137273968Y-100508500D01*
X139599330Y-100508500D01*
X139599331Y-100508499D01*
X139794169Y-100469744D01*
X139977704Y-100393721D01*
X140142881Y-100283353D01*
X140283353Y-100142881D01*
X140341912Y-100084322D01*
X140341925Y-100084307D01*
X140722406Y-99703826D01*
X140776785Y-99673376D01*
X140776483Y-99672446D01*
X140781118Y-99670940D01*
X140960832Y-99612547D01*
X141129199Y-99526760D01*
X141129199Y-99526759D01*
X141133540Y-99524548D01*
X141133983Y-99525419D01*
X141193968Y-99508500D01*
X150099330Y-99508500D01*
X150099331Y-99508499D01*
X150294169Y-99469744D01*
X150477704Y-99393721D01*
X150642881Y-99283353D01*
X150783353Y-99142881D01*
X150841912Y-99084322D01*
X150841925Y-99084307D01*
X156513354Y-93412881D01*
X156623722Y-93247703D01*
X156699744Y-93064168D01*
X156738500Y-92869329D01*
X156738500Y-92670671D01*
X156738500Y-92174750D01*
X156758185Y-92107711D01*
X156762165Y-92101888D01*
X156842287Y-91991610D01*
X156889795Y-91898369D01*
X156937769Y-91847573D01*
X157005590Y-91830778D01*
X157071725Y-91853315D01*
X157110765Y-91898369D01*
X157158141Y-91991350D01*
X157158147Y-91991359D01*
X157190523Y-92035921D01*
X157190524Y-92035922D01*
X157870000Y-91356446D01*
X157870000Y-91362661D01*
G37*
%TD.AperFunction*%
%TA.AperFunction,Conductor*%
G36*
X160946152Y-106274185D02*
G01*
X160991907Y-106326989D01*
X161001851Y-106396147D01*
X160972826Y-106459703D01*
X160966794Y-106466181D01*
X160003943Y-107429030D01*
X160003942Y-107429031D01*
X159921370Y-107552610D01*
X159915681Y-107566343D01*
X159901948Y-107599500D01*
X159889055Y-107630627D01*
X159870821Y-107674648D01*
X159864496Y-107689915D01*
X159864493Y-107689925D01*
X159835499Y-107835685D01*
X159835499Y-107990425D01*
X159835500Y-107990446D01*
X159835500Y-109825500D01*
X159815815Y-109892539D01*
X159763011Y-109938294D01*
X159711500Y-109949500D01*
X159521441Y-109949500D01*
X159391351Y-109964157D01*
X159391341Y-109964159D01*
X159226395Y-110021877D01*
X159078425Y-110114852D01*
X158984095Y-110209182D01*
X158922771Y-110242666D01*
X158896414Y-110245500D01*
X158425683Y-110245500D01*
X158279927Y-110274493D01*
X158279919Y-110274495D01*
X158142608Y-110331371D01*
X158019035Y-110413939D01*
X158019034Y-110413940D01*
X157966488Y-110466487D01*
X157913941Y-110519034D01*
X157913939Y-110519036D01*
X156773943Y-111659030D01*
X156773942Y-111659031D01*
X156691372Y-111782607D01*
X156691368Y-111782615D01*
X156666830Y-111841856D01*
X156652896Y-111875497D01*
X156652895Y-111875500D01*
X156634494Y-111919922D01*
X156634493Y-111919926D01*
X156605499Y-112065685D01*
X156605499Y-112220425D01*
X156605500Y-112220446D01*
X156605500Y-112355374D01*
X156585815Y-112422413D01*
X156569182Y-112443055D01*
X156444309Y-112567928D01*
X156333240Y-112720800D01*
X156247454Y-112889163D01*
X156189059Y-113068881D01*
X156159500Y-113255513D01*
X156159500Y-113444486D01*
X156189059Y-113631118D01*
X156247454Y-113810836D01*
X156333240Y-113979199D01*
X156444310Y-114132073D01*
X156577927Y-114265690D01*
X156730801Y-114376760D01*
X156810347Y-114417290D01*
X156899163Y-114462545D01*
X156899165Y-114462545D01*
X156899168Y-114462547D01*
X156988042Y-114491424D01*
X157078881Y-114520940D01*
X157265514Y-114550500D01*
X157265519Y-114550500D01*
X157454486Y-114550500D01*
X157641118Y-114520940D01*
X157820832Y-114462547D01*
X157989199Y-114376760D01*
X158142073Y-114265690D01*
X158275690Y-114132073D01*
X158386760Y-113979199D01*
X158472547Y-113810832D01*
X158530940Y-113631118D01*
X158540536Y-113570529D01*
X158560500Y-113444486D01*
X158560500Y-113255513D01*
X158530940Y-113068881D01*
X158480252Y-112912881D01*
X158472547Y-112889168D01*
X158472545Y-112889165D01*
X158472545Y-112889163D01*
X158386759Y-112720800D01*
X158378250Y-112709088D01*
X158275690Y-112567927D01*
X158225074Y-112517311D01*
X158191589Y-112455988D01*
X158196573Y-112386296D01*
X158225074Y-112341949D01*
X158496839Y-112070185D01*
X158776205Y-111790819D01*
X158837528Y-111757334D01*
X158863886Y-111754500D01*
X158896414Y-111754500D01*
X158963453Y-111774185D01*
X158984095Y-111790818D01*
X159078424Y-111885147D01*
X159226394Y-111978122D01*
X159391343Y-112035841D01*
X159391349Y-112035841D01*
X159391351Y-112035842D01*
X159432750Y-112040506D01*
X159521442Y-112050499D01*
X159521445Y-112050500D01*
X160727500Y-112050500D01*
X160794539Y-112070185D01*
X160840294Y-112122989D01*
X160851435Y-112170490D01*
X160851500Y-112172499D01*
X160851500Y-112369329D01*
X160859105Y-112407565D01*
X160859435Y-112417754D01*
X160859196Y-112418677D01*
X160859500Y-112421764D01*
X160859500Y-112867870D01*
X160859501Y-112867876D01*
X160865908Y-112927483D01*
X160916202Y-113062328D01*
X160916206Y-113062335D01*
X161002452Y-113177544D01*
X161002455Y-113177547D01*
X161117664Y-113263793D01*
X161117671Y-113263797D01*
X161252517Y-113314091D01*
X161252516Y-113314091D01*
X161259444Y-113314835D01*
X161312127Y-113320500D01*
X163207872Y-113320499D01*
X163267483Y-113314091D01*
X163341946Y-113286318D01*
X163385279Y-113278500D01*
X165261551Y-113278500D01*
X165328590Y-113298185D01*
X165374345Y-113350989D01*
X165384289Y-113420147D01*
X165360721Y-113474976D01*
X165361080Y-113475197D01*
X165359585Y-113477619D01*
X165358814Y-113479415D01*
X165357288Y-113481344D01*
X165265187Y-113630663D01*
X165265186Y-113630666D01*
X165210001Y-113797203D01*
X165210001Y-113797204D01*
X165210000Y-113797204D01*
X165199500Y-113899983D01*
X165199500Y-115100001D01*
X165199501Y-115100009D01*
X165210000Y-115202796D01*
X165210001Y-115202799D01*
X165265185Y-115369331D01*
X165265187Y-115369336D01*
X165300069Y-115425888D01*
X165357288Y-115518656D01*
X165481344Y-115642712D01*
X165605636Y-115719375D01*
X165652360Y-115771321D01*
X165663583Y-115840284D01*
X165635740Y-115904366D01*
X165628221Y-115912594D01*
X165508027Y-116032788D01*
X165387715Y-116198386D01*
X165294781Y-116380776D01*
X165231522Y-116575465D01*
X165200711Y-116770000D01*
X165199500Y-116777648D01*
X165199500Y-116982352D01*
X165203642Y-117008500D01*
X165231522Y-117184534D01*
X165294781Y-117379223D01*
X165387713Y-117561610D01*
X165467818Y-117671866D01*
X165491298Y-117737670D01*
X165491500Y-117744750D01*
X165491500Y-118530904D01*
X165471815Y-118597943D01*
X165455181Y-118618585D01*
X164348585Y-119725181D01*
X164287262Y-119758666D01*
X164260904Y-119761500D01*
X163385279Y-119761500D01*
X163341946Y-119753682D01*
X163305725Y-119740172D01*
X163267484Y-119725909D01*
X163267480Y-119725908D01*
X163207883Y-119719501D01*
X163207881Y-119719500D01*
X163207873Y-119719500D01*
X163207865Y-119719500D01*
X161714500Y-119719500D01*
X161647461Y-119699815D01*
X161601706Y-119647011D01*
X161590500Y-119595500D01*
X161590500Y-119404000D01*
X161610185Y-119336961D01*
X161662989Y-119291206D01*
X161714500Y-119280000D01*
X162010000Y-119280000D01*
X162510000Y-119280000D01*
X162928527Y-119280000D01*
X162928530Y-119279999D01*
X163058539Y-119265351D01*
X163223386Y-119207669D01*
X163371262Y-119114753D01*
X163494753Y-118991262D01*
X163587669Y-118843386D01*
X163645351Y-118678539D01*
X163659999Y-118548530D01*
X163660000Y-118548526D01*
X163660000Y-118480000D01*
X162510000Y-118480000D01*
X162510000Y-119280000D01*
X162010000Y-119280000D01*
X162010000Y-118576410D01*
X162090255Y-118530075D01*
X162160075Y-118460255D01*
X162209444Y-118374745D01*
X162235000Y-118279370D01*
X162235000Y-118180630D01*
X162209444Y-118085255D01*
X162160075Y-117999745D01*
X162140330Y-117980000D01*
X162510000Y-117980000D01*
X163660000Y-117980000D01*
X163660000Y-117911473D01*
X163659999Y-117911469D01*
X163645351Y-117781460D01*
X163587669Y-117616613D01*
X163494753Y-117468737D01*
X163371262Y-117345246D01*
X163223386Y-117252330D01*
X163058539Y-117194648D01*
X162928530Y-117180000D01*
X162510000Y-117180000D01*
X162510000Y-117980000D01*
X162140330Y-117980000D01*
X162090255Y-117929925D01*
X162010000Y-117883589D01*
X162010000Y-117180000D01*
X161591469Y-117180000D01*
X161461460Y-117194648D01*
X161296613Y-117252330D01*
X161148737Y-117345246D01*
X161025246Y-117468737D01*
X160932330Y-117616613D01*
X160874648Y-117781460D01*
X160860000Y-117911469D01*
X160860000Y-117980000D01*
X161579670Y-117980000D01*
X161559925Y-117999745D01*
X161510556Y-118085255D01*
X161485000Y-118180630D01*
X161485000Y-118279370D01*
X161510556Y-118374745D01*
X161559925Y-118460255D01*
X161579670Y-118480000D01*
X161054995Y-118480000D01*
X161014040Y-118473041D01*
X160988658Y-118464159D01*
X160988648Y-118464157D01*
X160858558Y-118449500D01*
X160858552Y-118449500D01*
X159521448Y-118449500D01*
X159521441Y-118449500D01*
X159391351Y-118464157D01*
X159391341Y-118464159D01*
X159226395Y-118521877D01*
X159078425Y-118614852D01*
X158984095Y-118709182D01*
X158922771Y-118742666D01*
X158896414Y-118745500D01*
X158425683Y-118745500D01*
X158279927Y-118774493D01*
X158279919Y-118774495D01*
X158142608Y-118831371D01*
X158019035Y-118913939D01*
X158019034Y-118913940D01*
X157966488Y-118966487D01*
X157913941Y-119019034D01*
X157913939Y-119019036D01*
X156773943Y-120159030D01*
X156773942Y-120159031D01*
X156691372Y-120282607D01*
X156691368Y-120282615D01*
X156683008Y-120302799D01*
X156652895Y-120375499D01*
X156652895Y-120375500D01*
X156634494Y-120419922D01*
X156634493Y-120419926D01*
X156605499Y-120565685D01*
X156605499Y-120720425D01*
X156605500Y-120720446D01*
X156605500Y-120855374D01*
X156585815Y-120922413D01*
X156569182Y-120943055D01*
X156453054Y-121059182D01*
X156391734Y-121092666D01*
X156365375Y-121095500D01*
X155878500Y-121095500D01*
X155811461Y-121075815D01*
X155765706Y-121023011D01*
X155754500Y-120971500D01*
X155754500Y-117777882D01*
X156705669Y-117777882D01*
X156705670Y-117777883D01*
X156731059Y-117796329D01*
X156899362Y-117882085D01*
X157078997Y-117940451D01*
X157265553Y-117970000D01*
X157454447Y-117970000D01*
X157641002Y-117940451D01*
X157820637Y-117882085D01*
X157986621Y-117797512D01*
X157986622Y-117797511D01*
X157988933Y-117796333D01*
X157988935Y-117796333D01*
X158014328Y-117777883D01*
X158014328Y-117777882D01*
X157360001Y-117123554D01*
X157360000Y-117123554D01*
X156705669Y-117777882D01*
X155754500Y-117777882D01*
X155754500Y-116675552D01*
X156160000Y-116675552D01*
X156160000Y-116864447D01*
X156189548Y-117051002D01*
X156247914Y-117230637D01*
X156333666Y-117398933D01*
X156352116Y-117424328D01*
X157006446Y-116770000D01*
X157006446Y-116769999D01*
X156960369Y-116723922D01*
X157010000Y-116723922D01*
X157010000Y-116816078D01*
X157033852Y-116905095D01*
X157079930Y-116984905D01*
X157145095Y-117050070D01*
X157224905Y-117096148D01*
X157313922Y-117120000D01*
X157406078Y-117120000D01*
X157495095Y-117096148D01*
X157574905Y-117050070D01*
X157640070Y-116984905D01*
X157686148Y-116905095D01*
X157710000Y-116816078D01*
X157710000Y-116769999D01*
X157713554Y-116769999D01*
X157713554Y-116770000D01*
X158367882Y-117424328D01*
X158367883Y-117424328D01*
X158386331Y-117398937D01*
X158472085Y-117230637D01*
X158530451Y-117051002D01*
X158560000Y-116864447D01*
X158560000Y-116675552D01*
X158530451Y-116488997D01*
X158472085Y-116309362D01*
X158386329Y-116141059D01*
X158367883Y-116115670D01*
X158367882Y-116115669D01*
X157713554Y-116769999D01*
X157710000Y-116769999D01*
X157710000Y-116723922D01*
X157686148Y-116634905D01*
X157640070Y-116555095D01*
X157574905Y-116489930D01*
X157495095Y-116443852D01*
X157406078Y-116420000D01*
X157313922Y-116420000D01*
X157224905Y-116443852D01*
X157145095Y-116489930D01*
X157079930Y-116555095D01*
X157033852Y-116634905D01*
X157010000Y-116723922D01*
X156960369Y-116723922D01*
X156352116Y-116115669D01*
X156352116Y-116115670D01*
X156333669Y-116141060D01*
X156247914Y-116309362D01*
X156189548Y-116488997D01*
X156160000Y-116675552D01*
X155754500Y-116675552D01*
X155754500Y-115762116D01*
X156705669Y-115762116D01*
X157360000Y-116416446D01*
X157360001Y-116416446D01*
X158014328Y-115762116D01*
X157988933Y-115743666D01*
X157820637Y-115657914D01*
X157641002Y-115599548D01*
X157454447Y-115570000D01*
X157265553Y-115570000D01*
X157078997Y-115599548D01*
X156899362Y-115657914D01*
X156731060Y-115743669D01*
X156705670Y-115762116D01*
X156705669Y-115762116D01*
X155754500Y-115762116D01*
X155754500Y-109277882D01*
X156705669Y-109277882D01*
X156705670Y-109277883D01*
X156731059Y-109296329D01*
X156899362Y-109382085D01*
X157078997Y-109440451D01*
X157265553Y-109470000D01*
X157454447Y-109470000D01*
X157641002Y-109440451D01*
X157820637Y-109382085D01*
X157988937Y-109296331D01*
X158014328Y-109277883D01*
X158014328Y-109277882D01*
X157360001Y-108623554D01*
X157360000Y-108623554D01*
X156705669Y-109277882D01*
X155754500Y-109277882D01*
X155754500Y-108175552D01*
X156160000Y-108175552D01*
X156160000Y-108364447D01*
X156189548Y-108551002D01*
X156247914Y-108730637D01*
X156333666Y-108898933D01*
X156352116Y-108924328D01*
X157006446Y-108270000D01*
X157006446Y-108269999D01*
X156960369Y-108223922D01*
X157010000Y-108223922D01*
X157010000Y-108316078D01*
X157033852Y-108405095D01*
X157079930Y-108484905D01*
X157145095Y-108550070D01*
X157224905Y-108596148D01*
X157313922Y-108620000D01*
X157406078Y-108620000D01*
X157495095Y-108596148D01*
X157574905Y-108550070D01*
X157640070Y-108484905D01*
X157686148Y-108405095D01*
X157710000Y-108316078D01*
X157710000Y-108269999D01*
X157713554Y-108269999D01*
X157713554Y-108270000D01*
X158367882Y-108924328D01*
X158367883Y-108924328D01*
X158386331Y-108898937D01*
X158472085Y-108730637D01*
X158530451Y-108551002D01*
X158560000Y-108364447D01*
X158560000Y-108175552D01*
X158530451Y-107988997D01*
X158472085Y-107809362D01*
X158386329Y-107641059D01*
X158367883Y-107615670D01*
X158367882Y-107615669D01*
X157713554Y-108269999D01*
X157710000Y-108269999D01*
X157710000Y-108223922D01*
X157686148Y-108134905D01*
X157640070Y-108055095D01*
X157574905Y-107989930D01*
X157495095Y-107943852D01*
X157406078Y-107920000D01*
X157313922Y-107920000D01*
X157224905Y-107943852D01*
X157145095Y-107989930D01*
X157079930Y-108055095D01*
X157033852Y-108134905D01*
X157010000Y-108223922D01*
X156960369Y-108223922D01*
X156352116Y-107615669D01*
X156352116Y-107615670D01*
X156333669Y-107641060D01*
X156247914Y-107809362D01*
X156189548Y-107988997D01*
X156160000Y-108175552D01*
X155754500Y-108175552D01*
X155754500Y-107262116D01*
X156705669Y-107262116D01*
X157360000Y-107916446D01*
X157360001Y-107916446D01*
X158014328Y-107262116D01*
X157988933Y-107243666D01*
X157820637Y-107157914D01*
X157641002Y-107099548D01*
X157454447Y-107070000D01*
X157265553Y-107070000D01*
X157078997Y-107099548D01*
X156899362Y-107157914D01*
X156731060Y-107243669D01*
X156705670Y-107262116D01*
X156705669Y-107262116D01*
X155754500Y-107262116D01*
X155754500Y-106378500D01*
X155774185Y-106311461D01*
X155826989Y-106265706D01*
X155878500Y-106254500D01*
X160879113Y-106254500D01*
X160946152Y-106274185D01*
G37*
%TD.AperFunction*%
%TA.AperFunction,Conductor*%
G36*
X171123152Y-97774185D02*
G01*
X171143794Y-97790819D01*
X171640393Y-98287418D01*
X171673878Y-98348741D01*
X171668894Y-98418433D01*
X171627022Y-98474366D01*
X171561558Y-98498783D01*
X171496418Y-98485584D01*
X171460839Y-98467455D01*
X171281118Y-98409059D01*
X171094486Y-98379500D01*
X171094481Y-98379500D01*
X170905519Y-98379500D01*
X170905514Y-98379500D01*
X170718881Y-98409059D01*
X170539163Y-98467454D01*
X170370800Y-98553240D01*
X170283579Y-98616610D01*
X170217927Y-98664310D01*
X170217925Y-98664312D01*
X170217924Y-98664312D01*
X170084312Y-98797924D01*
X170084312Y-98797925D01*
X170084310Y-98797927D01*
X170067166Y-98821524D01*
X169973240Y-98950800D01*
X169887454Y-99119163D01*
X169829059Y-99298881D01*
X169799500Y-99485513D01*
X169799500Y-99674486D01*
X169829059Y-99861118D01*
X169887454Y-100040836D01*
X169973240Y-100209199D01*
X170084310Y-100362073D01*
X170084312Y-100362075D01*
X170209181Y-100486944D01*
X170242666Y-100548267D01*
X170245500Y-100574625D01*
X170245500Y-101136113D01*
X170225815Y-101203152D01*
X170209181Y-101223794D01*
X167723794Y-103709181D01*
X167662471Y-103742666D01*
X167636113Y-103745500D01*
X164120885Y-103745500D01*
X164053846Y-103725815D01*
X164008091Y-103673011D01*
X163998147Y-103603853D01*
X164027172Y-103540297D01*
X164033204Y-103533819D01*
X164299033Y-103267990D01*
X165495749Y-102071274D01*
X165557067Y-102037792D01*
X165626758Y-102042776D01*
X165682692Y-102084648D01*
X165705898Y-102139559D01*
X165732010Y-102304418D01*
X165795244Y-102499031D01*
X165888141Y-102681350D01*
X165888147Y-102681359D01*
X165920523Y-102725921D01*
X165920524Y-102725922D01*
X166600000Y-102046446D01*
X166600000Y-102052661D01*
X166627259Y-102154394D01*
X166679920Y-102245606D01*
X166754394Y-102320080D01*
X166845606Y-102372741D01*
X166947339Y-102400000D01*
X166953553Y-102400000D01*
X166274076Y-103079474D01*
X166318650Y-103111859D01*
X166500968Y-103204755D01*
X166695582Y-103267990D01*
X166897683Y-103300000D01*
X167102317Y-103300000D01*
X167304417Y-103267990D01*
X167499031Y-103204755D01*
X167681349Y-103111859D01*
X167725921Y-103079474D01*
X167046447Y-102400000D01*
X167052661Y-102400000D01*
X167154394Y-102372741D01*
X167245606Y-102320080D01*
X167320080Y-102245606D01*
X167372741Y-102154394D01*
X167400000Y-102052661D01*
X167400000Y-102046448D01*
X168079474Y-102725922D01*
X168079474Y-102725921D01*
X168111859Y-102681349D01*
X168204755Y-102499031D01*
X168267990Y-102304417D01*
X168300000Y-102102317D01*
X168300000Y-101897682D01*
X168267990Y-101695582D01*
X168204755Y-101500968D01*
X168111859Y-101318650D01*
X168079474Y-101274077D01*
X168079474Y-101274076D01*
X167400000Y-101953551D01*
X167400000Y-101947339D01*
X167372741Y-101845606D01*
X167320080Y-101754394D01*
X167245606Y-101679920D01*
X167154394Y-101627259D01*
X167052661Y-101600000D01*
X167046446Y-101600000D01*
X167725922Y-100920524D01*
X167725921Y-100920523D01*
X167681359Y-100888147D01*
X167681350Y-100888141D01*
X167499031Y-100795244D01*
X167304418Y-100732010D01*
X167139559Y-100705898D01*
X167076425Y-100675968D01*
X167039494Y-100616657D01*
X167040492Y-100546794D01*
X167071273Y-100495750D01*
X169776205Y-97790819D01*
X169837528Y-97757334D01*
X169863886Y-97754500D01*
X171056113Y-97754500D01*
X171123152Y-97774185D01*
G37*
%TD.AperFunction*%
%TA.AperFunction,Conductor*%
G36*
X139557252Y-84612284D02*
G01*
X139601600Y-84640785D01*
X139642786Y-84681971D01*
X139770137Y-84774495D01*
X139808390Y-84802287D01*
X139924607Y-84861503D01*
X139990776Y-84895218D01*
X139990778Y-84895218D01*
X139990781Y-84895220D01*
X140095137Y-84929127D01*
X140185465Y-84958477D01*
X140286557Y-84974488D01*
X140387648Y-84990500D01*
X140387649Y-84990500D01*
X140592351Y-84990500D01*
X140592352Y-84990500D01*
X140794534Y-84958477D01*
X140794539Y-84958475D01*
X140794541Y-84958475D01*
X140827180Y-84947870D01*
X140897021Y-84945873D01*
X140956855Y-84981953D01*
X140987684Y-85044653D01*
X140989500Y-85065800D01*
X140989500Y-87248558D01*
X140995286Y-87277643D01*
X140995286Y-87277646D01*
X141016053Y-87382049D01*
X141016056Y-87382061D01*
X141068142Y-87507809D01*
X141068144Y-87507812D01*
X141143763Y-87620985D01*
X141143769Y-87620992D01*
X142302681Y-88779903D01*
X142336166Y-88841226D01*
X142339000Y-88867584D01*
X142339000Y-90141353D01*
X142319315Y-90208392D01*
X142287885Y-90241671D01*
X142182787Y-90318028D01*
X142182782Y-90318032D01*
X142038032Y-90462782D01*
X142038028Y-90462787D01*
X141969978Y-90556451D01*
X141914648Y-90599117D01*
X141845035Y-90605096D01*
X141783240Y-90572490D01*
X141751954Y-90522570D01*
X141750484Y-90518133D01*
X141724814Y-90440666D01*
X141632712Y-90291344D01*
X141508656Y-90167288D01*
X141407314Y-90104780D01*
X141359336Y-90075187D01*
X141359331Y-90075185D01*
X141295287Y-90053963D01*
X141192797Y-90020001D01*
X141192795Y-90020000D01*
X141090010Y-90009500D01*
X139889998Y-90009500D01*
X139889981Y-90009501D01*
X139787203Y-90020000D01*
X139787200Y-90020001D01*
X139620668Y-90075185D01*
X139620663Y-90075187D01*
X139471342Y-90167289D01*
X139347289Y-90291342D01*
X139255187Y-90440663D01*
X139255185Y-90440668D01*
X139247890Y-90462684D01*
X139200001Y-90607203D01*
X139200001Y-90607204D01*
X139200000Y-90607204D01*
X139189500Y-90709983D01*
X139189500Y-91910001D01*
X139189501Y-91910018D01*
X139200000Y-92012796D01*
X139200001Y-92012799D01*
X139251321Y-92167670D01*
X139255186Y-92179334D01*
X139347288Y-92328656D01*
X139471344Y-92452712D01*
X139528436Y-92487926D01*
X139575161Y-92539873D01*
X139586384Y-92608836D01*
X139563658Y-92666350D01*
X139473242Y-92790797D01*
X139387454Y-92959163D01*
X139329059Y-93138881D01*
X139299500Y-93325513D01*
X139299500Y-93514486D01*
X139329059Y-93701118D01*
X139387454Y-93880836D01*
X139473244Y-94049207D01*
X139475786Y-94053355D01*
X139474735Y-94053998D01*
X139496295Y-94114421D01*
X139480469Y-94182475D01*
X139430364Y-94231170D01*
X139372497Y-94245500D01*
X136863886Y-94245500D01*
X136796847Y-94225815D01*
X136776205Y-94209181D01*
X133314560Y-90747535D01*
X133281075Y-90686212D01*
X133286059Y-90616520D01*
X133327930Y-90560587D01*
X133334328Y-90555796D01*
X133334331Y-90555796D01*
X133449546Y-90469546D01*
X133535796Y-90354331D01*
X133586091Y-90219483D01*
X133592500Y-90159873D01*
X133592499Y-88064128D01*
X133587299Y-88015757D01*
X133586091Y-88004516D01*
X133535797Y-87869671D01*
X133535793Y-87869664D01*
X133449547Y-87754455D01*
X133449544Y-87754452D01*
X133334335Y-87668206D01*
X133334328Y-87668202D01*
X133199482Y-87617908D01*
X133199483Y-87617908D01*
X133139883Y-87611501D01*
X133139881Y-87611500D01*
X133139873Y-87611500D01*
X133139864Y-87611500D01*
X131044129Y-87611500D01*
X131044123Y-87611501D01*
X130984516Y-87617908D01*
X130849671Y-87668202D01*
X130849664Y-87668206D01*
X130734455Y-87754452D01*
X130646009Y-87872599D01*
X130590075Y-87914469D01*
X130520383Y-87919453D01*
X130473858Y-87898605D01*
X130378174Y-87829087D01*
X130167802Y-87721897D01*
X129943247Y-87648934D01*
X129943248Y-87648934D01*
X129710052Y-87612000D01*
X129473948Y-87612000D01*
X129240752Y-87648934D01*
X129016197Y-87721897D01*
X128805830Y-87829084D01*
X128722894Y-87889340D01*
X129462591Y-88629037D01*
X129399007Y-88646075D01*
X129284993Y-88711901D01*
X129191901Y-88804993D01*
X129126075Y-88919007D01*
X129109037Y-88982590D01*
X128362727Y-88236280D01*
X128319052Y-88227105D01*
X128277384Y-88190739D01*
X128236517Y-88134490D01*
X128069510Y-87967483D01*
X127878433Y-87828657D01*
X127837075Y-87807584D01*
X127667996Y-87721433D01*
X127443368Y-87648446D01*
X127210097Y-87611500D01*
X127210092Y-87611500D01*
X126973908Y-87611500D01*
X126973903Y-87611500D01*
X126740631Y-87648446D01*
X126516003Y-87721433D01*
X126305566Y-87828657D01*
X126222044Y-87889340D01*
X126114490Y-87967483D01*
X126114488Y-87967485D01*
X126114487Y-87967485D01*
X125947485Y-88134487D01*
X125947485Y-88134488D01*
X125947483Y-88134490D01*
X125943551Y-88139902D01*
X125808657Y-88325566D01*
X125701433Y-88536003D01*
X125628446Y-88760631D01*
X125591500Y-88993902D01*
X125591500Y-89230097D01*
X125628446Y-89463368D01*
X125701433Y-89687996D01*
X125756896Y-89796847D01*
X125808657Y-89898433D01*
X125947483Y-90089510D01*
X126114490Y-90256517D01*
X126240174Y-90347832D01*
X126286386Y-90381407D01*
X126329051Y-90436737D01*
X126337500Y-90481725D01*
X126337500Y-90512552D01*
X126337499Y-90512578D01*
X126337499Y-90666313D01*
X126348503Y-90721630D01*
X126353251Y-90745499D01*
X126366495Y-90812080D01*
X126374486Y-90831371D01*
X126377790Y-90839348D01*
X126377791Y-90839351D01*
X126423366Y-90949381D01*
X126423372Y-90949392D01*
X126505942Y-91072968D01*
X126505943Y-91072969D01*
X127409600Y-91976624D01*
X127409621Y-91976647D01*
X127519031Y-92086057D01*
X127584680Y-92129922D01*
X127584679Y-92129922D01*
X127642600Y-92168623D01*
X127642604Y-92168625D01*
X127642611Y-92168630D01*
X127723045Y-92201946D01*
X127779920Y-92225505D01*
X127804105Y-92230315D01*
X127852994Y-92240040D01*
X127925686Y-92254501D01*
X127925688Y-92254501D01*
X128080426Y-92254501D01*
X128080446Y-92254500D01*
X131136113Y-92254500D01*
X131203152Y-92274185D01*
X131223794Y-92290819D01*
X135519030Y-96586056D01*
X135519031Y-96586057D01*
X135519034Y-96586059D01*
X135642611Y-96668630D01*
X135723045Y-96701946D01*
X135779920Y-96725505D01*
X135804105Y-96730315D01*
X135852994Y-96740040D01*
X135925686Y-96754501D01*
X135925688Y-96754501D01*
X136080426Y-96754501D01*
X136080446Y-96754500D01*
X150019904Y-96754500D01*
X150086943Y-96774185D01*
X150132698Y-96826989D01*
X150142642Y-96896147D01*
X150113617Y-96959703D01*
X150107585Y-96966181D01*
X149618585Y-97455181D01*
X149557262Y-97488666D01*
X149530904Y-97491500D01*
X141193968Y-97491500D01*
X141133983Y-97474580D01*
X141133540Y-97475452D01*
X140960836Y-97387454D01*
X140781118Y-97329059D01*
X140594486Y-97299500D01*
X140594481Y-97299500D01*
X140405519Y-97299500D01*
X140405514Y-97299500D01*
X140218881Y-97329059D01*
X140039163Y-97387454D01*
X139870800Y-97473240D01*
X139783579Y-97536610D01*
X139717927Y-97584310D01*
X139717925Y-97584312D01*
X139717924Y-97584312D01*
X139584312Y-97717924D01*
X139584312Y-97717925D01*
X139584310Y-97717927D01*
X139557738Y-97754500D01*
X139473240Y-97870800D01*
X139387454Y-98039165D01*
X139387453Y-98039167D01*
X139387453Y-98039168D01*
X139334512Y-98202105D01*
X139327555Y-98223515D01*
X139326634Y-98223215D01*
X139296172Y-98277592D01*
X139118583Y-98455182D01*
X139057263Y-98488666D01*
X139030904Y-98491500D01*
X137273968Y-98491500D01*
X137213983Y-98474580D01*
X137213540Y-98475452D01*
X137040836Y-98387454D01*
X136861118Y-98329059D01*
X136674486Y-98299500D01*
X136674481Y-98299500D01*
X136485519Y-98299500D01*
X136485514Y-98299500D01*
X136298881Y-98329059D01*
X136119163Y-98387454D01*
X135950800Y-98473240D01*
X135925668Y-98491500D01*
X135797927Y-98584310D01*
X135797925Y-98584312D01*
X135797924Y-98584312D01*
X135664312Y-98717924D01*
X135664312Y-98717925D01*
X135664310Y-98717927D01*
X135658579Y-98725815D01*
X135553240Y-98870800D01*
X135467454Y-99039165D01*
X135467453Y-99039167D01*
X135467453Y-99039168D01*
X135409061Y-99218881D01*
X135407555Y-99223515D01*
X135406629Y-99223214D01*
X135376173Y-99277591D01*
X132698585Y-101955181D01*
X132637262Y-101988666D01*
X132610904Y-101991500D01*
X127423469Y-101991500D01*
X127356430Y-101971815D01*
X127335788Y-101955181D01*
X127312363Y-101931756D01*
X127312358Y-101931752D01*
X127134025Y-101802187D01*
X127134024Y-101802186D01*
X127134022Y-101802185D01*
X127040228Y-101754394D01*
X126937606Y-101702104D01*
X126937603Y-101702103D01*
X126727952Y-101633985D01*
X126619086Y-101616742D01*
X126510222Y-101599500D01*
X124489778Y-101599500D01*
X124417201Y-101610995D01*
X124272047Y-101633985D01*
X124062396Y-101702103D01*
X124062393Y-101702104D01*
X123865974Y-101802187D01*
X123687641Y-101931752D01*
X123687636Y-101931756D01*
X123531758Y-102087634D01*
X123498829Y-102132957D01*
X123454198Y-102194386D01*
X123398871Y-102237051D01*
X123353882Y-102245500D01*
X122863886Y-102245500D01*
X122796847Y-102225815D01*
X122776205Y-102209181D01*
X121790819Y-101223794D01*
X121757334Y-101162471D01*
X121754500Y-101136113D01*
X121754500Y-99120886D01*
X121774185Y-99053847D01*
X121826989Y-99008092D01*
X121896147Y-98998148D01*
X121959703Y-99027173D01*
X121966181Y-99033205D01*
X122909600Y-99976624D01*
X122909621Y-99976647D01*
X123019028Y-100086054D01*
X123019035Y-100086060D01*
X123142608Y-100168628D01*
X123142609Y-100168628D01*
X123142610Y-100168629D01*
X123279920Y-100225505D01*
X123368005Y-100243025D01*
X123429916Y-100275410D01*
X123444131Y-100291755D01*
X123518213Y-100393722D01*
X123531758Y-100412365D01*
X123687636Y-100568243D01*
X123687641Y-100568247D01*
X123831060Y-100672446D01*
X123865978Y-100697815D01*
X123970241Y-100750940D01*
X124062393Y-100797895D01*
X124062396Y-100797896D01*
X124167221Y-100831955D01*
X124272049Y-100866015D01*
X124489778Y-100900500D01*
X124489779Y-100900500D01*
X126510221Y-100900500D01*
X126510222Y-100900500D01*
X126727951Y-100866015D01*
X126937606Y-100797895D01*
X127134022Y-100697815D01*
X127312365Y-100568242D01*
X127468242Y-100412365D01*
X127545801Y-100305613D01*
X127601129Y-100262949D01*
X127646118Y-100254500D01*
X130505375Y-100254500D01*
X130572414Y-100274185D01*
X130593056Y-100290819D01*
X130717927Y-100415690D01*
X130870801Y-100526760D01*
X130913011Y-100548267D01*
X131039163Y-100612545D01*
X131039165Y-100612545D01*
X131039168Y-100612547D01*
X131135497Y-100643846D01*
X131218881Y-100670940D01*
X131405514Y-100700500D01*
X131405519Y-100700500D01*
X131594486Y-100700500D01*
X131781118Y-100670940D01*
X131960832Y-100612547D01*
X132129199Y-100526760D01*
X132282073Y-100415690D01*
X132415690Y-100282073D01*
X132526760Y-100129199D01*
X132612547Y-99960832D01*
X132670940Y-99781118D01*
X132700500Y-99594486D01*
X132700500Y-99405513D01*
X132670940Y-99218881D01*
X132638539Y-99119163D01*
X132612547Y-99039168D01*
X132612545Y-99039165D01*
X132612545Y-99039163D01*
X132561818Y-98939606D01*
X132526760Y-98870801D01*
X132415690Y-98717927D01*
X132282073Y-98584310D01*
X132129199Y-98473240D01*
X132116954Y-98467001D01*
X131960836Y-98387454D01*
X131781118Y-98329059D01*
X131594486Y-98299500D01*
X131594481Y-98299500D01*
X131405519Y-98299500D01*
X131405514Y-98299500D01*
X131218881Y-98329059D01*
X131039163Y-98387454D01*
X130870800Y-98473240D01*
X130845668Y-98491500D01*
X130717927Y-98584310D01*
X130717925Y-98584312D01*
X130717924Y-98584312D01*
X130593056Y-98709181D01*
X130531733Y-98742666D01*
X130505375Y-98745500D01*
X127646118Y-98745500D01*
X127579079Y-98725815D01*
X127545802Y-98694387D01*
X127468242Y-98587635D01*
X127312365Y-98431758D01*
X127312363Y-98431756D01*
X127312358Y-98431752D01*
X127134025Y-98302187D01*
X127134024Y-98302186D01*
X127134022Y-98302185D01*
X127030751Y-98249565D01*
X126937606Y-98202104D01*
X126937603Y-98202103D01*
X126727952Y-98133985D01*
X126619086Y-98116742D01*
X126510222Y-98099500D01*
X124489778Y-98099500D01*
X124417201Y-98110995D01*
X124272047Y-98133985D01*
X124062396Y-98202103D01*
X124062393Y-98202104D01*
X123865974Y-98302187D01*
X123687638Y-98431754D01*
X123680885Y-98438507D01*
X123619560Y-98471989D01*
X123549869Y-98467001D01*
X123505527Y-98438502D01*
X122790819Y-97723794D01*
X122757334Y-97662471D01*
X122754500Y-97636113D01*
X122754500Y-95300013D01*
X123200000Y-95300013D01*
X123200000Y-95750000D01*
X124951518Y-95750000D01*
X124940889Y-95768409D01*
X124900000Y-95921009D01*
X124900000Y-96078991D01*
X124940889Y-96231591D01*
X124951518Y-96250000D01*
X123200001Y-96250000D01*
X123200001Y-96699986D01*
X123210494Y-96802697D01*
X123265641Y-96969119D01*
X123265643Y-96969124D01*
X123357684Y-97118345D01*
X123481654Y-97242315D01*
X123630875Y-97334356D01*
X123630880Y-97334358D01*
X123797302Y-97389505D01*
X123797309Y-97389506D01*
X123900019Y-97399999D01*
X125249999Y-97399999D01*
X125250000Y-97399998D01*
X125250000Y-96548482D01*
X125268409Y-96559111D01*
X125421009Y-96600000D01*
X125578991Y-96600000D01*
X125731591Y-96559111D01*
X125750000Y-96548482D01*
X125750000Y-97399999D01*
X127099972Y-97399999D01*
X127099986Y-97399998D01*
X127202697Y-97389505D01*
X127369119Y-97334358D01*
X127369124Y-97334356D01*
X127518345Y-97242315D01*
X127642315Y-97118345D01*
X127734356Y-96969124D01*
X127734358Y-96969119D01*
X127789505Y-96802697D01*
X127789506Y-96802690D01*
X127799999Y-96699986D01*
X127800000Y-96699973D01*
X127800000Y-96250000D01*
X126048482Y-96250000D01*
X126059111Y-96231591D01*
X126100000Y-96078991D01*
X126100000Y-95921009D01*
X126059111Y-95768409D01*
X126048482Y-95750000D01*
X127799999Y-95750000D01*
X127799999Y-95300028D01*
X127799998Y-95300013D01*
X127789505Y-95197302D01*
X127734358Y-95030880D01*
X127734356Y-95030875D01*
X127642315Y-94881654D01*
X127518345Y-94757684D01*
X127369124Y-94665643D01*
X127369119Y-94665641D01*
X127202697Y-94610494D01*
X127202690Y-94610493D01*
X127099986Y-94600000D01*
X125750000Y-94600000D01*
X125750000Y-95451517D01*
X125731591Y-95440889D01*
X125578991Y-95400000D01*
X125421009Y-95400000D01*
X125268409Y-95440889D01*
X125250000Y-95451517D01*
X125250000Y-94600000D01*
X123900028Y-94600000D01*
X123900012Y-94600001D01*
X123797302Y-94610494D01*
X123630880Y-94665641D01*
X123630875Y-94665643D01*
X123481654Y-94757684D01*
X123357684Y-94881654D01*
X123265643Y-95030875D01*
X123265641Y-95030880D01*
X123210494Y-95197302D01*
X123210493Y-95197309D01*
X123200000Y-95300013D01*
X122754500Y-95300013D01*
X122754500Y-89863886D01*
X122774185Y-89796847D01*
X122790819Y-89776205D01*
X126276205Y-86290819D01*
X126337528Y-86257334D01*
X126363886Y-86254500D01*
X137419554Y-86254500D01*
X137419574Y-86254501D01*
X137425688Y-86254501D01*
X137574314Y-86254501D01*
X137613401Y-86246724D01*
X137695894Y-86230315D01*
X137720080Y-86225505D01*
X137803382Y-86191000D01*
X137857389Y-86168630D01*
X137980966Y-86086059D01*
X139426238Y-84640784D01*
X139487561Y-84607300D01*
X139557252Y-84612284D01*
G37*
%TD.AperFunction*%
%TA.AperFunction,Conductor*%
G36*
X162097703Y-87075370D02*
G01*
X162104181Y-87081402D01*
X164059510Y-89036732D01*
X164059515Y-89036736D01*
X164081625Y-89051509D01*
X164125847Y-89081057D01*
X164172689Y-89112356D01*
X164172690Y-89112356D01*
X164172691Y-89112357D01*
X164172693Y-89112358D01*
X164298438Y-89164443D01*
X164298443Y-89164445D01*
X164298447Y-89164445D01*
X164298448Y-89164446D01*
X164431939Y-89191000D01*
X164431942Y-89191000D01*
X164431943Y-89191000D01*
X164568057Y-89191000D01*
X166662416Y-89191000D01*
X166729455Y-89210685D01*
X166750097Y-89227319D01*
X167629568Y-90106790D01*
X167663053Y-90168113D01*
X167658069Y-90237805D01*
X167616197Y-90293738D01*
X167614774Y-90294788D01*
X167582784Y-90318030D01*
X167438028Y-90462786D01*
X167317715Y-90628386D01*
X167270485Y-90721080D01*
X167222510Y-90771876D01*
X167154689Y-90788671D01*
X167088554Y-90766134D01*
X167049515Y-90721080D01*
X167043452Y-90709181D01*
X167002287Y-90628390D01*
X166984460Y-90603853D01*
X166881971Y-90462786D01*
X166737213Y-90318028D01*
X166571613Y-90197715D01*
X166571612Y-90197714D01*
X166571610Y-90197713D01*
X166497343Y-90159872D01*
X166389223Y-90104781D01*
X166194534Y-90041522D01*
X166019995Y-90013878D01*
X165992352Y-90009500D01*
X165787648Y-90009500D01*
X165763329Y-90013351D01*
X165585465Y-90041522D01*
X165390776Y-90104781D01*
X165208386Y-90197715D01*
X165042786Y-90318028D01*
X164898028Y-90462786D01*
X164777715Y-90628386D01*
X164730485Y-90721080D01*
X164682510Y-90771876D01*
X164614689Y-90788671D01*
X164548554Y-90766134D01*
X164509515Y-90721080D01*
X164503452Y-90709181D01*
X164462287Y-90628390D01*
X164444460Y-90603853D01*
X164341971Y-90462786D01*
X164197213Y-90318028D01*
X164031613Y-90197715D01*
X164031612Y-90197714D01*
X164031610Y-90197713D01*
X163957343Y-90159872D01*
X163849223Y-90104781D01*
X163654534Y-90041522D01*
X163479995Y-90013878D01*
X163452352Y-90009500D01*
X163247648Y-90009500D01*
X163223329Y-90013351D01*
X163045465Y-90041522D01*
X162850776Y-90104781D01*
X162668386Y-90197715D01*
X162502786Y-90318028D01*
X162358028Y-90462786D01*
X162237715Y-90628386D01*
X162190485Y-90721080D01*
X162142510Y-90771876D01*
X162074689Y-90788671D01*
X162008554Y-90766134D01*
X161969515Y-90721080D01*
X161963452Y-90709181D01*
X161922287Y-90628390D01*
X161904460Y-90603853D01*
X161801971Y-90462786D01*
X161657213Y-90318028D01*
X161491613Y-90197715D01*
X161491612Y-90197714D01*
X161491610Y-90197713D01*
X161417343Y-90159872D01*
X161309223Y-90104781D01*
X161114534Y-90041522D01*
X160939995Y-90013878D01*
X160912352Y-90009500D01*
X160707648Y-90009500D01*
X160683329Y-90013351D01*
X160505465Y-90041522D01*
X160310776Y-90104781D01*
X160128386Y-90197715D01*
X159962786Y-90318028D01*
X159818028Y-90462786D01*
X159697713Y-90628388D01*
X159650203Y-90721630D01*
X159602228Y-90772426D01*
X159534407Y-90789220D01*
X159468272Y-90766682D01*
X159429234Y-90721628D01*
X159381861Y-90628652D01*
X159349474Y-90584077D01*
X159349474Y-90584076D01*
X158670000Y-91263551D01*
X158670000Y-91257339D01*
X158642741Y-91155606D01*
X158590080Y-91064394D01*
X158515606Y-90989920D01*
X158424394Y-90937259D01*
X158322661Y-90910000D01*
X158316446Y-90910000D01*
X158995922Y-90230524D01*
X158995921Y-90230523D01*
X158951359Y-90198147D01*
X158951350Y-90198141D01*
X158769031Y-90105244D01*
X158574417Y-90042009D01*
X158372317Y-90010000D01*
X158167683Y-90010000D01*
X157965582Y-90042009D01*
X157770968Y-90105244D01*
X157588647Y-90198142D01*
X157544797Y-90230001D01*
X157478991Y-90253481D01*
X157410937Y-90237655D01*
X157362242Y-90187550D01*
X157348367Y-90119072D01*
X157373716Y-90053963D01*
X157384231Y-90042002D01*
X157416234Y-90010000D01*
X159135416Y-88290819D01*
X159196739Y-88257334D01*
X159223097Y-88254500D01*
X159727249Y-88254500D01*
X159794288Y-88274185D01*
X159800130Y-88278179D01*
X159910390Y-88358287D01*
X160026607Y-88417503D01*
X160092776Y-88451218D01*
X160092778Y-88451218D01*
X160092781Y-88451220D01*
X160140713Y-88466794D01*
X160287465Y-88514477D01*
X160388557Y-88530488D01*
X160489648Y-88546500D01*
X160489649Y-88546500D01*
X160694351Y-88546500D01*
X160694352Y-88546500D01*
X160896534Y-88514477D01*
X161091219Y-88451220D01*
X161273610Y-88358287D01*
X161383866Y-88278182D01*
X161439213Y-88237971D01*
X161439215Y-88237968D01*
X161439219Y-88237966D01*
X161583966Y-88093219D01*
X161583968Y-88093215D01*
X161583971Y-88093213D01*
X161648412Y-88004516D01*
X161704287Y-87927610D01*
X161797220Y-87745219D01*
X161860477Y-87550534D01*
X161892500Y-87348352D01*
X161892500Y-87169083D01*
X161912185Y-87102044D01*
X161964989Y-87056289D01*
X162034147Y-87046345D01*
X162097703Y-87075370D01*
G37*
%TD.AperFunction*%
%TA.AperFunction,Conductor*%
G36*
X156809474Y-84415921D02*
G01*
X156841861Y-84371347D01*
X156841861Y-84371346D01*
X156889234Y-84278371D01*
X156937208Y-84227575D01*
X157005028Y-84210779D01*
X157071164Y-84233316D01*
X157110203Y-84278369D01*
X157157713Y-84371611D01*
X157278028Y-84537213D01*
X157422786Y-84681971D01*
X157550137Y-84774495D01*
X157588390Y-84802287D01*
X157704607Y-84861503D01*
X157770776Y-84895218D01*
X157770778Y-84895218D01*
X157770781Y-84895220D01*
X157875137Y-84929127D01*
X157965465Y-84958477D01*
X158066557Y-84974488D01*
X158167648Y-84990500D01*
X158167649Y-84990500D01*
X158372351Y-84990500D01*
X158372352Y-84990500D01*
X158574534Y-84958477D01*
X158611857Y-84946349D01*
X158681698Y-84944355D01*
X158741531Y-84980435D01*
X158771793Y-85040089D01*
X158783907Y-85100987D01*
X158783907Y-85100988D01*
X158796053Y-85162049D01*
X158796056Y-85162061D01*
X158848142Y-85287809D01*
X158848144Y-85287812D01*
X158923763Y-85400985D01*
X158923769Y-85400992D01*
X159548596Y-86025819D01*
X159582081Y-86087142D01*
X159577097Y-86156834D01*
X159535225Y-86212767D01*
X159469761Y-86237184D01*
X159460915Y-86237500D01*
X158654666Y-86237500D01*
X158459838Y-86276253D01*
X158459838Y-86276254D01*
X158459835Y-86276255D01*
X158459831Y-86276256D01*
X158406075Y-86298522D01*
X158276302Y-86352274D01*
X158276289Y-86352281D01*
X158111119Y-86462645D01*
X158111115Y-86462648D01*
X157099102Y-87474661D01*
X157037779Y-87508146D01*
X156968087Y-87503162D01*
X156912154Y-87461290D01*
X156887737Y-87395826D01*
X156888948Y-87367578D01*
X156892000Y-87348312D01*
X156892000Y-87143682D01*
X156859990Y-86941582D01*
X156796755Y-86746968D01*
X156703859Y-86564650D01*
X156671474Y-86520077D01*
X156671474Y-86520076D01*
X155992000Y-87199553D01*
X155992000Y-87193339D01*
X155964741Y-87091606D01*
X155912080Y-87000394D01*
X155837606Y-86925920D01*
X155746394Y-86873259D01*
X155644661Y-86846000D01*
X155638446Y-86846000D01*
X156317922Y-86166524D01*
X156317921Y-86166523D01*
X156273359Y-86134147D01*
X156273350Y-86134141D01*
X156091031Y-86041244D01*
X155896417Y-85978009D01*
X155694317Y-85946000D01*
X155489683Y-85946000D01*
X155287582Y-85978009D01*
X155092968Y-86041244D01*
X154910644Y-86134143D01*
X154866077Y-86166523D01*
X154866077Y-86166524D01*
X155545554Y-86846000D01*
X155539339Y-86846000D01*
X155437606Y-86873259D01*
X155346394Y-86925920D01*
X155271920Y-87000394D01*
X155219259Y-87091606D01*
X155192000Y-87193339D01*
X155192000Y-87199553D01*
X154512524Y-86520077D01*
X154512523Y-86520077D01*
X154480143Y-86564644D01*
X154387244Y-86746968D01*
X154324009Y-86941582D01*
X154292000Y-87143682D01*
X154292000Y-87348317D01*
X154324009Y-87550417D01*
X154387244Y-87745031D01*
X154480141Y-87927350D01*
X154480147Y-87927359D01*
X154512523Y-87971921D01*
X154512524Y-87971922D01*
X155192000Y-87292446D01*
X155192000Y-87298661D01*
X155219259Y-87400394D01*
X155271920Y-87491606D01*
X155346394Y-87566080D01*
X155437606Y-87618741D01*
X155539339Y-87646000D01*
X155545553Y-87646000D01*
X154866076Y-88325474D01*
X154910650Y-88357859D01*
X155092968Y-88450755D01*
X155287582Y-88513990D01*
X155489683Y-88546000D01*
X155694314Y-88546000D01*
X155713580Y-88542948D01*
X155782874Y-88551901D01*
X155836327Y-88596896D01*
X155856968Y-88663647D01*
X155838245Y-88730961D01*
X155820662Y-88753102D01*
X155268773Y-89304993D01*
X155087119Y-89486647D01*
X155016882Y-89556884D01*
X154946645Y-89627120D01*
X154836282Y-89792289D01*
X154836277Y-89792298D01*
X154760256Y-89975830D01*
X154760254Y-89975838D01*
X154721500Y-90170666D01*
X154721500Y-90445248D01*
X154701815Y-90512287D01*
X154697818Y-90518133D01*
X154617715Y-90628386D01*
X154570485Y-90721080D01*
X154522510Y-90771876D01*
X154454689Y-90788671D01*
X154388554Y-90766134D01*
X154349515Y-90721080D01*
X154343452Y-90709181D01*
X154302287Y-90628390D01*
X154284460Y-90603853D01*
X154181971Y-90462786D01*
X154037213Y-90318028D01*
X153871613Y-90197715D01*
X153871612Y-90197714D01*
X153871610Y-90197713D01*
X153797343Y-90159872D01*
X153689223Y-90104781D01*
X153494534Y-90041522D01*
X153319995Y-90013878D01*
X153292352Y-90009500D01*
X153087648Y-90009500D01*
X153063329Y-90013351D01*
X152885465Y-90041522D01*
X152690776Y-90104781D01*
X152508386Y-90197715D01*
X152342786Y-90318028D01*
X152198028Y-90462786D01*
X152077715Y-90628386D01*
X152030485Y-90721080D01*
X151982510Y-90771876D01*
X151914689Y-90788671D01*
X151848554Y-90766134D01*
X151809515Y-90721080D01*
X151803452Y-90709181D01*
X151762287Y-90628390D01*
X151744460Y-90603853D01*
X151641971Y-90462786D01*
X151497213Y-90318028D01*
X151331613Y-90197715D01*
X151331612Y-90197714D01*
X151331610Y-90197713D01*
X151257343Y-90159872D01*
X151149223Y-90104781D01*
X150954534Y-90041522D01*
X150779995Y-90013878D01*
X150752352Y-90009500D01*
X150547648Y-90009500D01*
X150523329Y-90013351D01*
X150345465Y-90041522D01*
X150150776Y-90104781D01*
X149968386Y-90197715D01*
X149802786Y-90318028D01*
X149658028Y-90462786D01*
X149537715Y-90628386D01*
X149490485Y-90721080D01*
X149442510Y-90771876D01*
X149374689Y-90788671D01*
X149308554Y-90766134D01*
X149269515Y-90721080D01*
X149263452Y-90709181D01*
X149222287Y-90628390D01*
X149204460Y-90603853D01*
X149101971Y-90462786D01*
X148957217Y-90318032D01*
X148957212Y-90318028D01*
X148852115Y-90241671D01*
X148809449Y-90186342D01*
X148801000Y-90141353D01*
X148801000Y-88227583D01*
X148820685Y-88160544D01*
X148837319Y-88139902D01*
X150249902Y-86727319D01*
X150311225Y-86693834D01*
X150337583Y-86691000D01*
X153568060Y-86691000D01*
X153657870Y-86673134D01*
X153701557Y-86664445D01*
X153827311Y-86612356D01*
X153841135Y-86603119D01*
X153940487Y-86536735D01*
X154142056Y-86335166D01*
X154351121Y-86126102D01*
X155036732Y-85440489D01*
X155036731Y-85440489D01*
X155036735Y-85440486D01*
X155112356Y-85327311D01*
X155164445Y-85201557D01*
X155191000Y-85068057D01*
X155191000Y-85052440D01*
X155210685Y-84985401D01*
X155263489Y-84939646D01*
X155332647Y-84929702D01*
X155353320Y-84934510D01*
X155425575Y-84957988D01*
X155425581Y-84957989D01*
X155627683Y-84990000D01*
X155832317Y-84990000D01*
X156034417Y-84957990D01*
X156229031Y-84894755D01*
X156411349Y-84801859D01*
X156455921Y-84769474D01*
X155776447Y-84090000D01*
X155782661Y-84090000D01*
X155884394Y-84062741D01*
X155975606Y-84010080D01*
X156050080Y-83935606D01*
X156102741Y-83844394D01*
X156130000Y-83742661D01*
X156130000Y-83736447D01*
X156809474Y-84415921D01*
G37*
%TD.AperFunction*%
%TA.AperFunction,Conductor*%
G36*
X129126075Y-89304993D02*
G01*
X129191901Y-89419007D01*
X129284993Y-89512099D01*
X129399007Y-89577925D01*
X129462589Y-89594962D01*
X128722893Y-90334658D01*
X128805828Y-90394914D01*
X129016199Y-90502103D01*
X129020709Y-90503569D01*
X129078385Y-90543006D01*
X129105584Y-90607364D01*
X129093670Y-90676211D01*
X129046426Y-90727687D01*
X128982392Y-90745500D01*
X128363886Y-90745500D01*
X128296847Y-90725815D01*
X128276205Y-90709181D01*
X128122820Y-90555796D01*
X128029707Y-90462682D01*
X127996223Y-90401361D01*
X128001207Y-90331669D01*
X128043079Y-90275736D01*
X128044471Y-90274708D01*
X128069510Y-90256517D01*
X128236517Y-90089510D01*
X128277385Y-90033259D01*
X128332711Y-89990596D01*
X128364543Y-89985902D01*
X129109037Y-89241408D01*
X129126075Y-89304993D01*
G37*
%TD.AperFunction*%
%TA.AperFunction,Conductor*%
G36*
X132622415Y-65274185D02*
G01*
X132668170Y-65326989D01*
X132678114Y-65396147D01*
X132649089Y-65459703D01*
X132628261Y-65478818D01*
X132595930Y-65502307D01*
X132595924Y-65502312D01*
X132462312Y-65635924D01*
X132462312Y-65635925D01*
X132462310Y-65635927D01*
X132456579Y-65643815D01*
X132351240Y-65788800D01*
X132265454Y-65957163D01*
X132207059Y-66136881D01*
X132177500Y-66323513D01*
X132177500Y-66512486D01*
X132207059Y-66699118D01*
X132265454Y-66878836D01*
X132336887Y-67019030D01*
X132351240Y-67047199D01*
X132462310Y-67200073D01*
X132595927Y-67333690D01*
X132748801Y-67444760D01*
X132795184Y-67468393D01*
X132917163Y-67530545D01*
X132917165Y-67530545D01*
X132917168Y-67530547D01*
X133013497Y-67561846D01*
X133096881Y-67588940D01*
X133283514Y-67618500D01*
X133283519Y-67618500D01*
X133472486Y-67618500D01*
X133659118Y-67588940D01*
X133838832Y-67530547D01*
X134007199Y-67444760D01*
X134160073Y-67333690D01*
X134284944Y-67208819D01*
X134346267Y-67175334D01*
X134372625Y-67172500D01*
X134732414Y-67172500D01*
X134799453Y-67192185D01*
X134820095Y-67208818D01*
X134914424Y-67303147D01*
X135062394Y-67396122D01*
X135227343Y-67453841D01*
X135227349Y-67453841D01*
X135227351Y-67453842D01*
X135268750Y-67458506D01*
X135357442Y-67468499D01*
X135357445Y-67468500D01*
X136571500Y-67468500D01*
X136638539Y-67488185D01*
X136684294Y-67540989D01*
X136695500Y-67592500D01*
X136695500Y-68285870D01*
X136695501Y-68285876D01*
X136701908Y-68345483D01*
X136752202Y-68480328D01*
X136752206Y-68480335D01*
X136838452Y-68595544D01*
X136838455Y-68595547D01*
X136953664Y-68681793D01*
X136953671Y-68681797D01*
X137088517Y-68732091D01*
X137088516Y-68732091D01*
X137095444Y-68732835D01*
X137148127Y-68738500D01*
X139043872Y-68738499D01*
X139103483Y-68732091D01*
X139238331Y-68681796D01*
X139353546Y-68595546D01*
X139406935Y-68524228D01*
X139430920Y-68492189D01*
X139486854Y-68450318D01*
X139530186Y-68442500D01*
X140015628Y-68442500D01*
X140082667Y-68462185D01*
X140115944Y-68493612D01*
X140221972Y-68639546D01*
X140361154Y-68778728D01*
X140520395Y-68894424D01*
X140595014Y-68932444D01*
X140695770Y-68983782D01*
X140695772Y-68983782D01*
X140695775Y-68983784D01*
X140796117Y-69016387D01*
X140882973Y-69044609D01*
X141077378Y-69075400D01*
X141077383Y-69075400D01*
X141274222Y-69075400D01*
X141468626Y-69044609D01*
X141548374Y-69018697D01*
X141655825Y-68983784D01*
X141831205Y-68894424D01*
X141990446Y-68778728D01*
X142129628Y-68639546D01*
X142245324Y-68480305D01*
X142264019Y-68443614D01*
X142335315Y-68303687D01*
X142383289Y-68252890D01*
X142451110Y-68236095D01*
X142517245Y-68258632D01*
X142556285Y-68303687D01*
X142646274Y-68480303D01*
X142658909Y-68497693D01*
X142761972Y-68639546D01*
X142901154Y-68778728D01*
X142910183Y-68785288D01*
X142952850Y-68840615D01*
X142961300Y-68885607D01*
X142961300Y-70833575D01*
X142941615Y-70900614D01*
X142924981Y-70921256D01*
X142876312Y-70969924D01*
X142876312Y-70969925D01*
X142876310Y-70969927D01*
X142828610Y-71035579D01*
X142765240Y-71122800D01*
X142679454Y-71291163D01*
X142621059Y-71470881D01*
X142591500Y-71657513D01*
X142591500Y-71846486D01*
X142621059Y-72033118D01*
X142679454Y-72212836D01*
X142734283Y-72320443D01*
X142765240Y-72381199D01*
X142876310Y-72534073D01*
X143009927Y-72667690D01*
X143162801Y-72778760D01*
X143224667Y-72810282D01*
X143331163Y-72864545D01*
X143331165Y-72864545D01*
X143331168Y-72864547D01*
X143427497Y-72895846D01*
X143510881Y-72922940D01*
X143697514Y-72952500D01*
X143697519Y-72952500D01*
X143886486Y-72952500D01*
X144073118Y-72922940D01*
X144088328Y-72917998D01*
X144252832Y-72864547D01*
X144253019Y-72864452D01*
X144259014Y-72861396D01*
X144421199Y-72778760D01*
X144574073Y-72667690D01*
X144707690Y-72534073D01*
X144818760Y-72381199D01*
X144904547Y-72212832D01*
X144944069Y-72091195D01*
X144983507Y-72033521D01*
X145047866Y-72006323D01*
X145116712Y-72018238D01*
X145168188Y-72065482D01*
X145179931Y-72091196D01*
X145219454Y-72212836D01*
X145274283Y-72320443D01*
X145305240Y-72381199D01*
X145416310Y-72534073D01*
X145549927Y-72667690D01*
X145702801Y-72778760D01*
X145764667Y-72810282D01*
X145871163Y-72864545D01*
X145871165Y-72864545D01*
X145871168Y-72864547D01*
X145967497Y-72895846D01*
X146050881Y-72922940D01*
X146237514Y-72952500D01*
X146237519Y-72952500D01*
X146426486Y-72952500D01*
X146613118Y-72922940D01*
X146628328Y-72917998D01*
X146792832Y-72864547D01*
X146793019Y-72864452D01*
X146799014Y-72861396D01*
X146961199Y-72778760D01*
X147114073Y-72667690D01*
X147247690Y-72534073D01*
X147358760Y-72381199D01*
X147444547Y-72212832D01*
X147484069Y-72091195D01*
X147523507Y-72033521D01*
X147587866Y-72006323D01*
X147656712Y-72018238D01*
X147708188Y-72065482D01*
X147719931Y-72091196D01*
X147759454Y-72212836D01*
X147814283Y-72320443D01*
X147845240Y-72381199D01*
X147956310Y-72534073D01*
X148089927Y-72667690D01*
X148242801Y-72778760D01*
X148304667Y-72810282D01*
X148411163Y-72864545D01*
X148411165Y-72864545D01*
X148411168Y-72864547D01*
X148507497Y-72895846D01*
X148590881Y-72922940D01*
X148777514Y-72952500D01*
X148777519Y-72952500D01*
X148966486Y-72952500D01*
X149153118Y-72922940D01*
X149168328Y-72917998D01*
X149332832Y-72864547D01*
X149333019Y-72864452D01*
X149339014Y-72861396D01*
X149501199Y-72778760D01*
X149654073Y-72667690D01*
X149787690Y-72534073D01*
X149898760Y-72381199D01*
X149984547Y-72212832D01*
X150024069Y-72091195D01*
X150063507Y-72033521D01*
X150127866Y-72006323D01*
X150196712Y-72018238D01*
X150248188Y-72065482D01*
X150259931Y-72091196D01*
X150299454Y-72212836D01*
X150354283Y-72320443D01*
X150385240Y-72381199D01*
X150496310Y-72534073D01*
X150629927Y-72667690D01*
X150782801Y-72778760D01*
X150844667Y-72810282D01*
X150951163Y-72864545D01*
X150951165Y-72864545D01*
X150951168Y-72864547D01*
X151047497Y-72895846D01*
X151130881Y-72922940D01*
X151317514Y-72952500D01*
X151317519Y-72952500D01*
X151506486Y-72952500D01*
X151693118Y-72922940D01*
X151708328Y-72917998D01*
X151872832Y-72864547D01*
X151873019Y-72864452D01*
X151879014Y-72861396D01*
X152041199Y-72778760D01*
X152194073Y-72667690D01*
X152327690Y-72534073D01*
X152438760Y-72381199D01*
X152524547Y-72212832D01*
X152564069Y-72091195D01*
X152603507Y-72033521D01*
X152667866Y-72006323D01*
X152736712Y-72018238D01*
X152788188Y-72065482D01*
X152799931Y-72091196D01*
X152839454Y-72212836D01*
X152894283Y-72320443D01*
X152925240Y-72381199D01*
X153036310Y-72534073D01*
X153169927Y-72667690D01*
X153322801Y-72778760D01*
X153384667Y-72810282D01*
X153491163Y-72864545D01*
X153491165Y-72864545D01*
X153491168Y-72864547D01*
X153587497Y-72895846D01*
X153670881Y-72922940D01*
X153857514Y-72952500D01*
X153857519Y-72952500D01*
X154046486Y-72952500D01*
X154233118Y-72922940D01*
X154248328Y-72917998D01*
X154412832Y-72864547D01*
X154413019Y-72864452D01*
X154419014Y-72861396D01*
X154581199Y-72778760D01*
X154734073Y-72667690D01*
X154867690Y-72534073D01*
X154978760Y-72381199D01*
X155064547Y-72212832D01*
X155067069Y-72205067D01*
X155106506Y-72147394D01*
X155170865Y-72120195D01*
X155239711Y-72132109D01*
X155291187Y-72179353D01*
X155309000Y-72243387D01*
X155309000Y-76340612D01*
X155289315Y-76407651D01*
X155236511Y-76453406D01*
X155167353Y-76463350D01*
X155103797Y-76434325D01*
X155067070Y-76378933D01*
X155064546Y-76371166D01*
X154978759Y-76202800D01*
X154867690Y-76049927D01*
X154734073Y-75916310D01*
X154581199Y-75805240D01*
X154516333Y-75772189D01*
X154412836Y-75719454D01*
X154233118Y-75661059D01*
X154046486Y-75631500D01*
X154046481Y-75631500D01*
X153857519Y-75631500D01*
X153857514Y-75631500D01*
X153670881Y-75661059D01*
X153491163Y-75719454D01*
X153322800Y-75805240D01*
X153235579Y-75868610D01*
X153169927Y-75916310D01*
X153169925Y-75916312D01*
X153169924Y-75916312D01*
X153036312Y-76049924D01*
X153036312Y-76049925D01*
X153036310Y-76049927D01*
X153018046Y-76075065D01*
X152925240Y-76202800D01*
X152839454Y-76371163D01*
X152799931Y-76492803D01*
X152760493Y-76550478D01*
X152696134Y-76577676D01*
X152627288Y-76565761D01*
X152575812Y-76518516D01*
X152564069Y-76492803D01*
X152524545Y-76371163D01*
X152438759Y-76202800D01*
X152327690Y-76049927D01*
X152194073Y-75916310D01*
X152041199Y-75805240D01*
X151976333Y-75772189D01*
X151872836Y-75719454D01*
X151693118Y-75661059D01*
X151506486Y-75631500D01*
X151506481Y-75631500D01*
X151317519Y-75631500D01*
X151317514Y-75631500D01*
X151130881Y-75661059D01*
X150951163Y-75719454D01*
X150782800Y-75805240D01*
X150695579Y-75868610D01*
X150629927Y-75916310D01*
X150629925Y-75916312D01*
X150629924Y-75916312D01*
X150496312Y-76049924D01*
X150496312Y-76049925D01*
X150496310Y-76049927D01*
X150478046Y-76075065D01*
X150385240Y-76202800D01*
X150299454Y-76371163D01*
X150259931Y-76492803D01*
X150220493Y-76550478D01*
X150156134Y-76577676D01*
X150087288Y-76565761D01*
X150035812Y-76518516D01*
X150024069Y-76492803D01*
X149984545Y-76371163D01*
X149898759Y-76202800D01*
X149787690Y-76049927D01*
X149654073Y-75916310D01*
X149501199Y-75805240D01*
X149436333Y-75772189D01*
X149332836Y-75719454D01*
X149153118Y-75661059D01*
X148966486Y-75631500D01*
X148966481Y-75631500D01*
X148777519Y-75631500D01*
X148777514Y-75631500D01*
X148590881Y-75661059D01*
X148411163Y-75719454D01*
X148242800Y-75805240D01*
X148155579Y-75868610D01*
X148089927Y-75916310D01*
X148089925Y-75916312D01*
X148089924Y-75916312D01*
X147956312Y-76049924D01*
X147956312Y-76049925D01*
X147956310Y-76049927D01*
X147938046Y-76075065D01*
X147845240Y-76202800D01*
X147759454Y-76371163D01*
X147719931Y-76492803D01*
X147680493Y-76550478D01*
X147616134Y-76577676D01*
X147547288Y-76565761D01*
X147495812Y-76518516D01*
X147484069Y-76492803D01*
X147444545Y-76371163D01*
X147358759Y-76202800D01*
X147247690Y-76049927D01*
X147114073Y-75916310D01*
X146961199Y-75805240D01*
X146896333Y-75772189D01*
X146792836Y-75719454D01*
X146613118Y-75661059D01*
X146426486Y-75631500D01*
X146426481Y-75631500D01*
X146237519Y-75631500D01*
X146237514Y-75631500D01*
X146050881Y-75661059D01*
X145871160Y-75719455D01*
X145792975Y-75759293D01*
X145724306Y-75772189D01*
X145659566Y-75745912D01*
X145628352Y-75709147D01*
X145624862Y-75702881D01*
X145612356Y-75672689D01*
X145589235Y-75638086D01*
X145586445Y-75633910D01*
X145536736Y-75559514D01*
X145536730Y-75559507D01*
X143940492Y-73963269D01*
X143940485Y-73963263D01*
X143827312Y-73887644D01*
X143827309Y-73887642D01*
X143701561Y-73835556D01*
X143701557Y-73835555D01*
X143698072Y-73834861D01*
X143698068Y-73834859D01*
X143698068Y-73834861D01*
X143568060Y-73809000D01*
X143568058Y-73809000D01*
X140837584Y-73809000D01*
X140770545Y-73789315D01*
X140749903Y-73772681D01*
X137938492Y-70961269D01*
X137938485Y-70961263D01*
X137825312Y-70885644D01*
X137825309Y-70885642D01*
X137699561Y-70833556D01*
X137699549Y-70833553D01*
X137668168Y-70827311D01*
X137668167Y-70827311D01*
X137566060Y-70807000D01*
X137566058Y-70807000D01*
X134423040Y-70807000D01*
X134356001Y-70787315D01*
X134322723Y-70755887D01*
X134293690Y-70715927D01*
X134160075Y-70582312D01*
X134160073Y-70582310D01*
X134007199Y-70471240D01*
X133838836Y-70385454D01*
X133659118Y-70327059D01*
X133472486Y-70297500D01*
X133472481Y-70297500D01*
X133283519Y-70297500D01*
X133283514Y-70297500D01*
X133096881Y-70327059D01*
X132917163Y-70385454D01*
X132748800Y-70471240D01*
X132661579Y-70534610D01*
X132595927Y-70582310D01*
X132595925Y-70582312D01*
X132595924Y-70582312D01*
X132462312Y-70715924D01*
X132462312Y-70715925D01*
X132462310Y-70715927D01*
X132442844Y-70742720D01*
X132351240Y-70868800D01*
X132265454Y-71037163D01*
X132207059Y-71216881D01*
X132177500Y-71403513D01*
X132177500Y-71592486D01*
X132207059Y-71779118D01*
X132265454Y-71958836D01*
X132347671Y-72120195D01*
X132351240Y-72127199D01*
X132462310Y-72280073D01*
X132595927Y-72413690D01*
X132748801Y-72524760D01*
X132828347Y-72565290D01*
X132917163Y-72610545D01*
X132917165Y-72610545D01*
X132917168Y-72610547D01*
X133013497Y-72641846D01*
X133096881Y-72668940D01*
X133283514Y-72698500D01*
X133283519Y-72698500D01*
X133472486Y-72698500D01*
X133659118Y-72668940D01*
X133662974Y-72667687D01*
X133838832Y-72610547D01*
X134007199Y-72524760D01*
X134160073Y-72413690D01*
X134293690Y-72280073D01*
X134322723Y-72240113D01*
X134378053Y-72197448D01*
X134423040Y-72189000D01*
X137160416Y-72189000D01*
X137227455Y-72208685D01*
X137248097Y-72225319D01*
X140059507Y-75036730D01*
X140059510Y-75036733D01*
X140171406Y-75111499D01*
X140172156Y-75112000D01*
X140172689Y-75112356D01*
X140298443Y-75164445D01*
X140298447Y-75164445D01*
X140298448Y-75164446D01*
X140431939Y-75191000D01*
X140431942Y-75191000D01*
X140431943Y-75191000D01*
X140568057Y-75191000D01*
X143162416Y-75191000D01*
X143229455Y-75210685D01*
X143250097Y-75227319D01*
X143498340Y-75475562D01*
X143531825Y-75536885D01*
X143526841Y-75606577D01*
X143484969Y-75662510D01*
X143448978Y-75681174D01*
X143331163Y-75719454D01*
X143162800Y-75805240D01*
X143075579Y-75868610D01*
X143009927Y-75916310D01*
X143009925Y-75916312D01*
X143009924Y-75916312D01*
X142876312Y-76049924D01*
X142876312Y-76049925D01*
X142876310Y-76049927D01*
X142858046Y-76075065D01*
X142765240Y-76202800D01*
X142679454Y-76371163D01*
X142621059Y-76550881D01*
X142591500Y-76737513D01*
X142591500Y-76926486D01*
X142621059Y-77113118D01*
X142679454Y-77292836D01*
X142753559Y-77438273D01*
X142765240Y-77461199D01*
X142876310Y-77614073D01*
X142876312Y-77614075D01*
X143001181Y-77738944D01*
X143034666Y-77800267D01*
X143037500Y-77826625D01*
X143037500Y-79344112D01*
X143017815Y-79411151D01*
X143001181Y-79431793D01*
X142583181Y-79849793D01*
X142521858Y-79883278D01*
X142452166Y-79878294D01*
X142396233Y-79836422D01*
X142371816Y-79770958D01*
X142371500Y-79762112D01*
X142371500Y-78112439D01*
X142344946Y-77978948D01*
X142344945Y-77978947D01*
X142344945Y-77978943D01*
X142325477Y-77931943D01*
X142292859Y-77853195D01*
X142292857Y-77853191D01*
X142292856Y-77853189D01*
X142245662Y-77782558D01*
X142217235Y-77740013D01*
X142217233Y-77740011D01*
X142217231Y-77740008D01*
X138552492Y-74075269D01*
X138552485Y-74075263D01*
X138439312Y-73999644D01*
X138439309Y-73999642D01*
X138313561Y-73947556D01*
X138313551Y-73947553D01*
X138180060Y-73921000D01*
X138180058Y-73921000D01*
X133499956Y-73921000D01*
X133432917Y-73901315D01*
X133389471Y-73853295D01*
X133375343Y-73825567D01*
X133236517Y-73634490D01*
X133069510Y-73467483D01*
X132878433Y-73328657D01*
X132667996Y-73221433D01*
X132443368Y-73148446D01*
X132210097Y-73111500D01*
X132210092Y-73111500D01*
X131973908Y-73111500D01*
X131973903Y-73111500D01*
X131740631Y-73148446D01*
X131516003Y-73221433D01*
X131305566Y-73328657D01*
X131236266Y-73379007D01*
X131114490Y-73467483D01*
X131114488Y-73467485D01*
X131114487Y-73467485D01*
X130947485Y-73634487D01*
X130947485Y-73634488D01*
X130947483Y-73634490D01*
X130915663Y-73678286D01*
X130808657Y-73825566D01*
X130701433Y-74036003D01*
X130628446Y-74260631D01*
X130591500Y-74493902D01*
X130591500Y-74730097D01*
X130628446Y-74963368D01*
X130701433Y-75187996D01*
X130768647Y-75319909D01*
X130808657Y-75398433D01*
X130947483Y-75589510D01*
X131114490Y-75756517D01*
X131305567Y-75895343D01*
X131404991Y-75946002D01*
X131516003Y-76002566D01*
X131516005Y-76002566D01*
X131516008Y-76002568D01*
X131636412Y-76041689D01*
X131740631Y-76075553D01*
X131973903Y-76112500D01*
X131973908Y-76112500D01*
X132210097Y-76112500D01*
X132443368Y-76075553D01*
X132522236Y-76049927D01*
X132667992Y-76002568D01*
X132878433Y-75895343D01*
X133069510Y-75756517D01*
X133236517Y-75589510D01*
X133375343Y-75398433D01*
X133389471Y-75370704D01*
X133437446Y-75319909D01*
X133499956Y-75303000D01*
X137774416Y-75303000D01*
X137841455Y-75322685D01*
X137862097Y-75339319D01*
X140953181Y-78430403D01*
X140986666Y-78491726D01*
X140989500Y-78518084D01*
X140989500Y-82314199D01*
X140969815Y-82381238D01*
X140917011Y-82426993D01*
X140847853Y-82436937D01*
X140827183Y-82432130D01*
X140794542Y-82421524D01*
X140794535Y-82421523D01*
X140693443Y-82405511D01*
X140592352Y-82389500D01*
X140387648Y-82389500D01*
X140363329Y-82393351D01*
X140185465Y-82421522D01*
X139990776Y-82484781D01*
X139808386Y-82577715D01*
X139642786Y-82698028D01*
X139498034Y-82842780D01*
X139467808Y-82884384D01*
X139412478Y-82927050D01*
X139367489Y-82935499D01*
X139235686Y-82935499D01*
X139114105Y-82959684D01*
X139099540Y-82962581D01*
X139089918Y-82964495D01*
X139089917Y-82964495D01*
X139033045Y-82988052D01*
X139033045Y-82988053D01*
X138983315Y-83008652D01*
X138952609Y-83021371D01*
X138829033Y-83103941D01*
X138786841Y-83146134D01*
X138723941Y-83209034D01*
X137223794Y-84709181D01*
X137162471Y-84742666D01*
X137136113Y-84745500D01*
X125925683Y-84745500D01*
X125779927Y-84774493D01*
X125779919Y-84774495D01*
X125642608Y-84831371D01*
X125519035Y-84913939D01*
X125519034Y-84913940D01*
X125490426Y-84942549D01*
X125413941Y-85019034D01*
X121966181Y-88466794D01*
X121904858Y-88500279D01*
X121835166Y-88495295D01*
X121779233Y-88453423D01*
X121754816Y-88387959D01*
X121754500Y-88379113D01*
X121754500Y-81487441D01*
X122091500Y-81487441D01*
X122091500Y-81736558D01*
X122091501Y-81736575D01*
X122124017Y-81983561D01*
X122188498Y-82224207D01*
X122283830Y-82454361D01*
X122283837Y-82454376D01*
X122408400Y-82670126D01*
X122560060Y-82867774D01*
X122560066Y-82867781D01*
X122736218Y-83043933D01*
X122736225Y-83043939D01*
X122933873Y-83195599D01*
X123149623Y-83320162D01*
X123149638Y-83320169D01*
X123248825Y-83361253D01*
X123379793Y-83415502D01*
X123620435Y-83479982D01*
X123867435Y-83512500D01*
X123867442Y-83512500D01*
X124116558Y-83512500D01*
X124116565Y-83512500D01*
X124363565Y-83479982D01*
X124604207Y-83415502D01*
X124834373Y-83320164D01*
X125050127Y-83195599D01*
X125247776Y-83043938D01*
X125423938Y-82867776D01*
X125575599Y-82670127D01*
X125700164Y-82454373D01*
X125795502Y-82224207D01*
X125859982Y-81983565D01*
X125892500Y-81736565D01*
X125892500Y-81487441D01*
X133291500Y-81487441D01*
X133291500Y-81736558D01*
X133291501Y-81736575D01*
X133324017Y-81983561D01*
X133388498Y-82224207D01*
X133483830Y-82454361D01*
X133483837Y-82454376D01*
X133608400Y-82670126D01*
X133760060Y-82867774D01*
X133760066Y-82867781D01*
X133936218Y-83043933D01*
X133936225Y-83043939D01*
X134133873Y-83195599D01*
X134349623Y-83320162D01*
X134349638Y-83320169D01*
X134448825Y-83361253D01*
X134579793Y-83415502D01*
X134820435Y-83479982D01*
X135067435Y-83512500D01*
X135067442Y-83512500D01*
X135316558Y-83512500D01*
X135316565Y-83512500D01*
X135563565Y-83479982D01*
X135804207Y-83415502D01*
X136034373Y-83320164D01*
X136250127Y-83195599D01*
X136447776Y-83043938D01*
X136623938Y-82867776D01*
X136775599Y-82670127D01*
X136900164Y-82454373D01*
X136995502Y-82224207D01*
X137059982Y-81983565D01*
X137092500Y-81736565D01*
X137092500Y-81487435D01*
X137059982Y-81240435D01*
X136995502Y-80999793D01*
X136933201Y-80849386D01*
X136900169Y-80769638D01*
X136900162Y-80769623D01*
X136775599Y-80553873D01*
X136623939Y-80356225D01*
X136623933Y-80356218D01*
X136447781Y-80180066D01*
X136447774Y-80180060D01*
X136250126Y-80028400D01*
X136034376Y-79903837D01*
X136034361Y-79903830D01*
X135804207Y-79808498D01*
X135639150Y-79764271D01*
X135563565Y-79744018D01*
X135563564Y-79744017D01*
X135563561Y-79744017D01*
X135316575Y-79711501D01*
X135316570Y-79711500D01*
X135316565Y-79711500D01*
X135067435Y-79711500D01*
X135067429Y-79711500D01*
X135067424Y-79711501D01*
X134820438Y-79744017D01*
X134579792Y-79808498D01*
X134349638Y-79903830D01*
X134349623Y-79903837D01*
X134133873Y-80028400D01*
X133936225Y-80180060D01*
X133936218Y-80180066D01*
X133760066Y-80356218D01*
X133760060Y-80356225D01*
X133608400Y-80553873D01*
X133483837Y-80769623D01*
X133483830Y-80769638D01*
X133388498Y-80999792D01*
X133324017Y-81240438D01*
X133291501Y-81487424D01*
X133291500Y-81487441D01*
X125892500Y-81487441D01*
X125892500Y-81487435D01*
X125859982Y-81240435D01*
X125795502Y-80999793D01*
X125733201Y-80849386D01*
X125700169Y-80769638D01*
X125700162Y-80769623D01*
X125575599Y-80553873D01*
X125423939Y-80356225D01*
X125423933Y-80356218D01*
X125247781Y-80180066D01*
X125247774Y-80180060D01*
X125050126Y-80028400D01*
X124834376Y-79903837D01*
X124834361Y-79903830D01*
X124604207Y-79808498D01*
X124439150Y-79764271D01*
X124363565Y-79744018D01*
X124363564Y-79744017D01*
X124363561Y-79744017D01*
X124116575Y-79711501D01*
X124116570Y-79711500D01*
X124116565Y-79711500D01*
X123867435Y-79711500D01*
X123867429Y-79711500D01*
X123867424Y-79711501D01*
X123620438Y-79744017D01*
X123379792Y-79808498D01*
X123149638Y-79903830D01*
X123149623Y-79903837D01*
X122933873Y-80028400D01*
X122736225Y-80180060D01*
X122736218Y-80180066D01*
X122560066Y-80356218D01*
X122560060Y-80356225D01*
X122408400Y-80553873D01*
X122283837Y-80769623D01*
X122283830Y-80769638D01*
X122188498Y-80999792D01*
X122124017Y-81240438D01*
X122091501Y-81487424D01*
X122091500Y-81487441D01*
X121754500Y-81487441D01*
X121754500Y-74493947D01*
X125592000Y-74493947D01*
X125592000Y-74730052D01*
X125628934Y-74963247D01*
X125701897Y-75187802D01*
X125809087Y-75398174D01*
X125869338Y-75481104D01*
X125869340Y-75481105D01*
X126609037Y-74741408D01*
X126626075Y-74804993D01*
X126691901Y-74919007D01*
X126784993Y-75012099D01*
X126899007Y-75077925D01*
X126962590Y-75094962D01*
X126222893Y-75834658D01*
X126305828Y-75894914D01*
X126516197Y-76002102D01*
X126740752Y-76075065D01*
X126740751Y-76075065D01*
X126973948Y-76112000D01*
X127210052Y-76112000D01*
X127443247Y-76075065D01*
X127667802Y-76002102D01*
X127878163Y-75894918D01*
X127878169Y-75894914D01*
X127961104Y-75834658D01*
X127961105Y-75834658D01*
X127221408Y-75094962D01*
X127284993Y-75077925D01*
X127399007Y-75012099D01*
X127492099Y-74919007D01*
X127557925Y-74804993D01*
X127574962Y-74741409D01*
X128314658Y-75481105D01*
X128314658Y-75481104D01*
X128374914Y-75398169D01*
X128374918Y-75398163D01*
X128482102Y-75187802D01*
X128555065Y-74963247D01*
X128592000Y-74730052D01*
X128592000Y-74493947D01*
X128555065Y-74260752D01*
X128482102Y-74036197D01*
X128374914Y-73825828D01*
X128314658Y-73742894D01*
X128314658Y-73742893D01*
X127574962Y-74482590D01*
X127557925Y-74419007D01*
X127492099Y-74304993D01*
X127399007Y-74211901D01*
X127284993Y-74146075D01*
X127221409Y-74129037D01*
X127961105Y-73389340D01*
X127961104Y-73389338D01*
X127878174Y-73329087D01*
X127667802Y-73221897D01*
X127443247Y-73148934D01*
X127443248Y-73148934D01*
X127210052Y-73112000D01*
X126973948Y-73112000D01*
X126740752Y-73148934D01*
X126516197Y-73221897D01*
X126305830Y-73329084D01*
X126222894Y-73389340D01*
X126962591Y-74129037D01*
X126899007Y-74146075D01*
X126784993Y-74211901D01*
X126691901Y-74304993D01*
X126626075Y-74419007D01*
X126609037Y-74482591D01*
X125869340Y-73742894D01*
X125809084Y-73825830D01*
X125701897Y-74036197D01*
X125628934Y-74260752D01*
X125592000Y-74493947D01*
X121754500Y-74493947D01*
X121754500Y-67863886D01*
X121774185Y-67796847D01*
X121790819Y-67776205D01*
X124276205Y-65290819D01*
X124337528Y-65257334D01*
X124363886Y-65254500D01*
X132555376Y-65254500D01*
X132622415Y-65274185D01*
G37*
%TD.AperFunction*%
%TA.AperFunction,Conductor*%
G36*
X161355999Y-66366685D02*
G01*
X161389277Y-66398113D01*
X161418310Y-66438073D01*
X161551927Y-66571690D01*
X161704801Y-66682760D01*
X161772692Y-66717352D01*
X161873163Y-66768545D01*
X161873165Y-66768545D01*
X161873168Y-66768547D01*
X161969497Y-66799846D01*
X162052881Y-66826940D01*
X162239514Y-66856500D01*
X162239519Y-66856500D01*
X162428486Y-66856500D01*
X162615118Y-66826940D01*
X162794832Y-66768547D01*
X162963199Y-66682760D01*
X163112117Y-66574563D01*
X163177920Y-66551085D01*
X163245974Y-66566910D01*
X163294669Y-66617015D01*
X163309000Y-66674883D01*
X163309000Y-68162416D01*
X163289315Y-68229455D01*
X163272681Y-68250097D01*
X161750097Y-69772681D01*
X161688774Y-69806166D01*
X161662416Y-69809000D01*
X158931940Y-69809000D01*
X158798448Y-69835553D01*
X158798438Y-69835556D01*
X158672695Y-69887640D01*
X158672682Y-69887647D01*
X158559514Y-69963264D01*
X158559510Y-69963267D01*
X157463269Y-71059507D01*
X157463266Y-71059510D01*
X157427956Y-71112355D01*
X157427957Y-71112356D01*
X157387641Y-71172692D01*
X157335556Y-71298438D01*
X157335553Y-71298448D01*
X157309000Y-71431939D01*
X157309000Y-71431942D01*
X157309000Y-77931943D01*
X157309000Y-78068057D01*
X157309000Y-78068059D01*
X157308999Y-78068059D01*
X157335553Y-78201551D01*
X157335556Y-78201561D01*
X157387642Y-78327309D01*
X157387644Y-78327312D01*
X157463263Y-78440485D01*
X157463269Y-78440492D01*
X158733181Y-79710402D01*
X158766666Y-79771725D01*
X158769500Y-79798083D01*
X158769500Y-82314199D01*
X158749815Y-82381238D01*
X158697011Y-82426993D01*
X158627853Y-82436937D01*
X158607183Y-82432130D01*
X158574542Y-82421524D01*
X158574535Y-82421523D01*
X158473443Y-82405511D01*
X158372352Y-82389500D01*
X158167648Y-82389500D01*
X158143329Y-82393351D01*
X157965465Y-82421522D01*
X157770776Y-82484781D01*
X157588386Y-82577715D01*
X157422786Y-82698028D01*
X157278028Y-82842786D01*
X157157713Y-83008388D01*
X157110203Y-83101630D01*
X157062228Y-83152426D01*
X156994407Y-83169220D01*
X156928272Y-83146682D01*
X156889234Y-83101628D01*
X156841861Y-83008652D01*
X156809474Y-82964077D01*
X156809474Y-82964076D01*
X156130000Y-83643551D01*
X156130000Y-83637339D01*
X156102741Y-83535606D01*
X156050080Y-83444394D01*
X155975606Y-83369920D01*
X155884394Y-83317259D01*
X155782661Y-83290000D01*
X155776446Y-83290000D01*
X156455922Y-82610524D01*
X156455921Y-82610523D01*
X156411359Y-82578147D01*
X156411350Y-82578141D01*
X156229031Y-82485244D01*
X156034417Y-82422009D01*
X155832317Y-82390000D01*
X155627683Y-82390000D01*
X155425582Y-82422009D01*
X155353319Y-82445490D01*
X155283477Y-82447485D01*
X155223644Y-82411405D01*
X155192816Y-82348704D01*
X155191000Y-82327559D01*
X155191000Y-81837584D01*
X155210685Y-81770545D01*
X155227319Y-81749903D01*
X156536730Y-80440492D01*
X156536735Y-80440487D01*
X156612356Y-80327311D01*
X156617127Y-80315794D01*
X156664444Y-80201559D01*
X156664445Y-80201557D01*
X156666545Y-80191000D01*
X156667371Y-80186846D01*
X156691000Y-80068060D01*
X156691000Y-70837584D01*
X156710685Y-70770545D01*
X156727319Y-70749903D01*
X161093903Y-66383319D01*
X161155226Y-66349834D01*
X161181584Y-66347000D01*
X161288960Y-66347000D01*
X161355999Y-66366685D01*
G37*
%TD.AperFunction*%
%TA.AperFunction,Conductor*%
G36*
X163166075Y-76304993D02*
G01*
X163231901Y-76419007D01*
X163324993Y-76512099D01*
X163439007Y-76577925D01*
X163502590Y-76594962D01*
X162870282Y-77227269D01*
X162870282Y-77227270D01*
X162924449Y-77266624D01*
X163113782Y-77363095D01*
X163315870Y-77428757D01*
X163525754Y-77462000D01*
X163738246Y-77462000D01*
X163948127Y-77428757D01*
X163948130Y-77428757D01*
X164150217Y-77363095D01*
X164339554Y-77266622D01*
X164393716Y-77227270D01*
X164393717Y-77227270D01*
X163761408Y-76594962D01*
X163824993Y-76577925D01*
X163939007Y-76512099D01*
X164032099Y-76419007D01*
X164097925Y-76304993D01*
X164114962Y-76241409D01*
X164747270Y-76873717D01*
X164747270Y-76873716D01*
X164786622Y-76819555D01*
X164791232Y-76810507D01*
X164839205Y-76759709D01*
X164907025Y-76742912D01*
X164973161Y-76765447D01*
X165012204Y-76810504D01*
X165016949Y-76819817D01*
X165141890Y-76991786D01*
X165292213Y-77142109D01*
X165464179Y-77267048D01*
X165464181Y-77267049D01*
X165464184Y-77267051D01*
X165653588Y-77363557D01*
X165855757Y-77429246D01*
X165855760Y-77429246D01*
X165855761Y-77429247D01*
X165908547Y-77437607D01*
X166022831Y-77455708D01*
X166085964Y-77485636D01*
X166122896Y-77544947D01*
X166121898Y-77614810D01*
X166091113Y-77665861D01*
X162763943Y-80993030D01*
X162760077Y-80997742D01*
X162758283Y-80996269D01*
X162712552Y-81034450D01*
X162643223Y-81043124D01*
X162580210Y-81012938D01*
X162575439Y-81008414D01*
X162566817Y-80999792D01*
X162544966Y-80977941D01*
X162544963Y-80977939D01*
X161882819Y-80315794D01*
X161849334Y-80254471D01*
X161846500Y-80228113D01*
X161846500Y-77586499D01*
X161866185Y-77519460D01*
X161918989Y-77473705D01*
X161970500Y-77462499D01*
X161989871Y-77462499D01*
X161989872Y-77462499D01*
X162049483Y-77456091D01*
X162184331Y-77405796D01*
X162299546Y-77319546D01*
X162385796Y-77204331D01*
X162436091Y-77069483D01*
X162442500Y-77009873D01*
X162442499Y-76985979D01*
X162445330Y-76972963D01*
X162455940Y-76953525D01*
X162462179Y-76932275D01*
X162478803Y-76911643D01*
X162478808Y-76911636D01*
X162478811Y-76911634D01*
X162478818Y-76911626D01*
X163149037Y-76241408D01*
X163166075Y-76304993D01*
G37*
%TD.AperFunction*%
%TA.AperFunction,Conductor*%
G36*
X162433444Y-74225999D02*
G01*
X162472486Y-74271056D01*
X162476951Y-74279820D01*
X162601890Y-74451786D01*
X162752213Y-74602109D01*
X162924179Y-74727048D01*
X162924181Y-74727049D01*
X162924184Y-74727051D01*
X162933493Y-74731794D01*
X162984290Y-74779766D01*
X163001087Y-74847587D01*
X162978552Y-74913722D01*
X162933505Y-74952760D01*
X162924446Y-74957376D01*
X162924440Y-74957380D01*
X162870282Y-74996727D01*
X162870282Y-74996728D01*
X163502591Y-75629037D01*
X163439007Y-75646075D01*
X163324993Y-75711901D01*
X163231901Y-75804993D01*
X163166075Y-75919007D01*
X163149037Y-75982591D01*
X162478818Y-75312372D01*
X162445333Y-75251049D01*
X162442499Y-75224691D01*
X162442499Y-75214129D01*
X162442498Y-75214123D01*
X162442497Y-75214116D01*
X162436091Y-75154517D01*
X162420364Y-75112352D01*
X162385797Y-75019671D01*
X162385793Y-75019664D01*
X162299547Y-74904455D01*
X162299544Y-74904452D01*
X162184335Y-74818206D01*
X162184328Y-74818202D01*
X162052917Y-74769189D01*
X161996983Y-74727318D01*
X161972566Y-74661853D01*
X161987418Y-74593580D01*
X162008563Y-74565332D01*
X162122104Y-74451792D01*
X162247051Y-74279816D01*
X162251514Y-74271054D01*
X162299488Y-74220259D01*
X162367308Y-74203463D01*
X162433444Y-74225999D01*
G37*
%TD.AperFunction*%
%TA.AperFunction,Conductor*%
G36*
X164973444Y-74225999D02*
G01*
X165012486Y-74271056D01*
X165016951Y-74279820D01*
X165141890Y-74451786D01*
X165292213Y-74602109D01*
X165464182Y-74727050D01*
X165472946Y-74731516D01*
X165523742Y-74779491D01*
X165540536Y-74847312D01*
X165517998Y-74913447D01*
X165472946Y-74952484D01*
X165464182Y-74956949D01*
X165292213Y-75081890D01*
X165141890Y-75232213D01*
X165016949Y-75404182D01*
X165012202Y-75413499D01*
X164964227Y-75464293D01*
X164896405Y-75481087D01*
X164830271Y-75458548D01*
X164791234Y-75413495D01*
X164786626Y-75404452D01*
X164747270Y-75350282D01*
X164747269Y-75350282D01*
X164114962Y-75982590D01*
X164097925Y-75919007D01*
X164032099Y-75804993D01*
X163939007Y-75711901D01*
X163824993Y-75646075D01*
X163761409Y-75629037D01*
X164393716Y-74996728D01*
X164339547Y-74957373D01*
X164339547Y-74957372D01*
X164330500Y-74952763D01*
X164279706Y-74904788D01*
X164262912Y-74836966D01*
X164285451Y-74770832D01*
X164330508Y-74731793D01*
X164339816Y-74727051D01*
X164429554Y-74661853D01*
X164511786Y-74602109D01*
X164511788Y-74602106D01*
X164511792Y-74602104D01*
X164662104Y-74451792D01*
X164662106Y-74451788D01*
X164662109Y-74451786D01*
X164787048Y-74279820D01*
X164787047Y-74279820D01*
X164787051Y-74279816D01*
X164791514Y-74271054D01*
X164839488Y-74220259D01*
X164907308Y-74203463D01*
X164973444Y-74225999D01*
G37*
%TD.AperFunction*%
%TA.AperFunction,Conductor*%
G36*
X168246075Y-73764993D02*
G01*
X168311901Y-73879007D01*
X168404993Y-73972099D01*
X168519007Y-74037925D01*
X168582590Y-74054962D01*
X167950282Y-74687269D01*
X167950282Y-74687270D01*
X168004452Y-74726626D01*
X168004451Y-74726626D01*
X168013495Y-74731234D01*
X168064292Y-74779208D01*
X168081087Y-74847029D01*
X168058550Y-74913164D01*
X168013499Y-74952202D01*
X168004182Y-74956949D01*
X167832213Y-75081890D01*
X167681890Y-75232213D01*
X167556949Y-75404182D01*
X167552484Y-75412946D01*
X167504509Y-75463742D01*
X167436688Y-75480536D01*
X167370553Y-75457998D01*
X167331516Y-75412946D01*
X167327050Y-75404182D01*
X167202109Y-75232213D01*
X167051786Y-75081890D01*
X166879820Y-74956951D01*
X166871600Y-74952763D01*
X166871054Y-74952485D01*
X166820259Y-74904512D01*
X166803463Y-74836692D01*
X166825999Y-74770556D01*
X166871054Y-74731515D01*
X166879816Y-74727051D01*
X166969554Y-74661853D01*
X167051786Y-74602109D01*
X167051788Y-74602106D01*
X167051792Y-74602104D01*
X167202104Y-74451792D01*
X167202106Y-74451788D01*
X167202109Y-74451786D01*
X167287890Y-74333717D01*
X167327051Y-74279816D01*
X167331793Y-74270508D01*
X167379763Y-74219711D01*
X167447583Y-74202911D01*
X167513719Y-74225445D01*
X167552763Y-74270500D01*
X167557373Y-74279547D01*
X167596728Y-74333716D01*
X168229037Y-73701408D01*
X168246075Y-73764993D01*
G37*
%TD.AperFunction*%
%TA.AperFunction,Conductor*%
G36*
X170786075Y-73764993D02*
G01*
X170851901Y-73879007D01*
X170944993Y-73972099D01*
X171059007Y-74037925D01*
X171122589Y-74054962D01*
X170490282Y-74687269D01*
X170490282Y-74687270D01*
X170544452Y-74726626D01*
X170544451Y-74726626D01*
X170553495Y-74731234D01*
X170604292Y-74779208D01*
X170621087Y-74847029D01*
X170598550Y-74913164D01*
X170553499Y-74952202D01*
X170544182Y-74956949D01*
X170372213Y-75081890D01*
X170221890Y-75232213D01*
X170096949Y-75404182D01*
X170092484Y-75412946D01*
X170044509Y-75463742D01*
X169976688Y-75480536D01*
X169910553Y-75457998D01*
X169871516Y-75412946D01*
X169867050Y-75404182D01*
X169742109Y-75232213D01*
X169591786Y-75081890D01*
X169419817Y-74956949D01*
X169410504Y-74952204D01*
X169359707Y-74904230D01*
X169342912Y-74836409D01*
X169365449Y-74770274D01*
X169410507Y-74731232D01*
X169419555Y-74726622D01*
X169473716Y-74687270D01*
X169473717Y-74687270D01*
X168841408Y-74054962D01*
X168904993Y-74037925D01*
X169019007Y-73972099D01*
X169112099Y-73879007D01*
X169177925Y-73764993D01*
X169194962Y-73701408D01*
X169827270Y-74333717D01*
X169827270Y-74333716D01*
X169866622Y-74279554D01*
X169871514Y-74269954D01*
X169919488Y-74219157D01*
X169987308Y-74202361D01*
X170053444Y-74224897D01*
X170092486Y-74269954D01*
X170097375Y-74279550D01*
X170136728Y-74333716D01*
X170769037Y-73701408D01*
X170786075Y-73764993D01*
G37*
%TD.AperFunction*%
%TA.AperFunction,Conductor*%
G36*
X169729455Y-55710685D02*
G01*
X169750097Y-55727319D01*
X172191681Y-58168903D01*
X172225166Y-58230226D01*
X172228000Y-58256584D01*
X172228000Y-72369050D01*
X172208315Y-72436089D01*
X172155511Y-72481844D01*
X172086353Y-72491788D01*
X172031115Y-72469368D01*
X171959557Y-72417379D01*
X171770217Y-72320904D01*
X171568129Y-72255242D01*
X171358246Y-72222000D01*
X171145754Y-72222000D01*
X170935872Y-72255242D01*
X170935869Y-72255242D01*
X170733782Y-72320904D01*
X170544439Y-72417380D01*
X170490282Y-72456727D01*
X170490282Y-72456728D01*
X171122591Y-73089037D01*
X171059007Y-73106075D01*
X170944993Y-73171901D01*
X170851901Y-73264993D01*
X170786075Y-73379007D01*
X170769037Y-73442591D01*
X170136728Y-72810282D01*
X170136727Y-72810282D01*
X170097380Y-72864440D01*
X170092483Y-72874051D01*
X170044506Y-72924845D01*
X169976684Y-72941638D01*
X169910550Y-72919098D01*
X169871516Y-72874048D01*
X169866626Y-72864452D01*
X169827270Y-72810282D01*
X169827269Y-72810282D01*
X169194962Y-73442590D01*
X169177925Y-73379007D01*
X169112099Y-73264993D01*
X169019007Y-73171901D01*
X168904993Y-73106075D01*
X168841409Y-73089037D01*
X169473716Y-72456728D01*
X169419550Y-72417375D01*
X169230217Y-72320904D01*
X169028129Y-72255242D01*
X168818246Y-72222000D01*
X168605754Y-72222000D01*
X168395872Y-72255242D01*
X168395869Y-72255242D01*
X168193782Y-72320904D01*
X168004439Y-72417380D01*
X167950282Y-72456727D01*
X167950282Y-72456728D01*
X168582591Y-73089037D01*
X168519007Y-73106075D01*
X168404993Y-73171901D01*
X168311901Y-73264993D01*
X168246075Y-73379007D01*
X168229037Y-73442591D01*
X167596728Y-72810282D01*
X167596727Y-72810282D01*
X167557380Y-72864440D01*
X167557376Y-72864446D01*
X167552760Y-72873505D01*
X167504781Y-72924297D01*
X167436959Y-72941087D01*
X167370826Y-72918543D01*
X167331794Y-72873493D01*
X167327051Y-72864184D01*
X167327049Y-72864181D01*
X167327048Y-72864179D01*
X167202109Y-72692213D01*
X167051786Y-72541890D01*
X166879820Y-72416951D01*
X166690414Y-72320444D01*
X166690413Y-72320443D01*
X166690412Y-72320443D01*
X166488243Y-72254754D01*
X166488241Y-72254753D01*
X166488240Y-72254753D01*
X166302399Y-72225319D01*
X166278287Y-72221500D01*
X166065713Y-72221500D01*
X166041601Y-72225319D01*
X165855760Y-72254753D01*
X165653585Y-72320444D01*
X165464179Y-72416951D01*
X165292213Y-72541890D01*
X165141890Y-72692213D01*
X165016949Y-72864182D01*
X165012484Y-72872946D01*
X164964509Y-72923742D01*
X164896688Y-72940536D01*
X164830553Y-72917998D01*
X164791516Y-72872946D01*
X164787050Y-72864182D01*
X164662109Y-72692213D01*
X164511786Y-72541890D01*
X164339820Y-72416951D01*
X164150414Y-72320444D01*
X164150413Y-72320443D01*
X164150412Y-72320443D01*
X163948243Y-72254754D01*
X163948241Y-72254753D01*
X163948239Y-72254753D01*
X163781168Y-72228291D01*
X163718033Y-72198361D01*
X163681102Y-72139050D01*
X163682100Y-72069187D01*
X163712882Y-72018141D01*
X166116963Y-69614060D01*
X166116966Y-69614059D01*
X166222059Y-69508966D01*
X166304629Y-69385390D01*
X166361505Y-69248080D01*
X166390500Y-69102312D01*
X166390500Y-62739585D01*
X166410185Y-62672546D01*
X166426819Y-62651904D01*
X166441905Y-62636818D01*
X166471147Y-62607576D01*
X166564122Y-62459606D01*
X166621841Y-62294657D01*
X166636500Y-62164552D01*
X166636500Y-61750500D01*
X166656185Y-61683461D01*
X166708989Y-61637706D01*
X166760500Y-61626500D01*
X167974555Y-61626500D01*
X167974556Y-61626499D01*
X168104657Y-61611841D01*
X168269606Y-61554122D01*
X168417576Y-61461147D01*
X168541147Y-61337576D01*
X168549031Y-61325029D01*
X168601365Y-61278737D01*
X168654025Y-61267000D01*
X168937875Y-61267000D01*
X169004914Y-61286685D01*
X169025556Y-61303319D01*
X169137927Y-61415690D01*
X169290801Y-61526760D01*
X169344502Y-61554122D01*
X169459163Y-61612545D01*
X169459165Y-61612545D01*
X169459168Y-61612547D01*
X169527825Y-61634855D01*
X169638881Y-61670940D01*
X169825514Y-61700500D01*
X169825519Y-61700500D01*
X170014486Y-61700500D01*
X170201118Y-61670940D01*
X170201164Y-61670925D01*
X170380832Y-61612547D01*
X170549199Y-61526760D01*
X170702073Y-61415690D01*
X170835690Y-61282073D01*
X170946760Y-61129199D01*
X171032547Y-60960832D01*
X171090940Y-60781118D01*
X171097684Y-60738539D01*
X171120500Y-60594486D01*
X171120500Y-60405513D01*
X171090940Y-60218881D01*
X171046764Y-60082923D01*
X171032547Y-60039168D01*
X171032545Y-60039165D01*
X171032545Y-60039163D01*
X170957591Y-59892059D01*
X170946760Y-59870801D01*
X170835690Y-59717927D01*
X170702073Y-59584310D01*
X170549199Y-59473240D01*
X170529991Y-59463453D01*
X170380836Y-59387454D01*
X170201118Y-59329059D01*
X170014486Y-59299500D01*
X170014481Y-59299500D01*
X169825519Y-59299500D01*
X169825514Y-59299500D01*
X169638881Y-59329059D01*
X169459163Y-59387454D01*
X169290800Y-59473240D01*
X169218726Y-59525606D01*
X169137927Y-59584310D01*
X169137925Y-59584312D01*
X169137924Y-59584312D01*
X169004312Y-59717924D01*
X169004312Y-59717925D01*
X169004310Y-59717927D01*
X168920059Y-59833886D01*
X168864731Y-59876551D01*
X168819743Y-59885000D01*
X168654025Y-59885000D01*
X168586986Y-59865315D01*
X168549031Y-59826971D01*
X168541147Y-59814424D01*
X168513604Y-59786881D01*
X168417576Y-59690853D01*
X168269606Y-59597878D01*
X168269605Y-59597877D01*
X168269604Y-59597877D01*
X168104658Y-59540159D01*
X168104648Y-59540157D01*
X167974558Y-59525500D01*
X167974552Y-59525500D01*
X166760499Y-59525500D01*
X166693460Y-59505815D01*
X166647705Y-59453011D01*
X166636499Y-59401500D01*
X166636499Y-58708129D01*
X166636498Y-58708123D01*
X166630091Y-58648516D01*
X166579797Y-58513671D01*
X166579793Y-58513664D01*
X166493547Y-58398455D01*
X166493544Y-58398452D01*
X166378335Y-58312206D01*
X166378328Y-58312202D01*
X166243482Y-58261908D01*
X166243483Y-58261908D01*
X166183883Y-58255501D01*
X166183881Y-58255500D01*
X166183873Y-58255500D01*
X166183864Y-58255500D01*
X164288129Y-58255500D01*
X164288123Y-58255501D01*
X164228516Y-58261908D01*
X164093671Y-58312202D01*
X164093664Y-58312206D01*
X164057047Y-58339618D01*
X163991583Y-58364035D01*
X163923310Y-58349183D01*
X163895056Y-58328032D01*
X161480968Y-55913942D01*
X161477204Y-55910853D01*
X161437870Y-55853107D01*
X161435999Y-55783263D01*
X161472187Y-55723494D01*
X161534943Y-55692779D01*
X161555869Y-55691000D01*
X169662416Y-55691000D01*
X169729455Y-55710685D01*
G37*
%TD.AperFunction*%
%TD*%
M02*
