%TF.GenerationSoftware,KiCad,Pcbnew,10.0.0*%
%TF.CreationDate,2026-04-08T10:46:19+02:00*%
%TF.ProjectId,DymBOX_AVR,44796d42-4f58-45f4-9156-522e6b696361,rev?*%
%TF.SameCoordinates,Original*%
%TF.FileFunction,Legend,Top*%
%TF.FilePolarity,Positive*%
%FSLAX46Y46*%
G04 Gerber Fmt 4.6, Leading zero omitted, Abs format (unit mm)*
G04 Created by KiCad (PCBNEW 10.0.0) date 2026-04-08 10:46:19*
%MOMM*%
%LPD*%
G01*
G04 APERTURE LIST*
%ADD10C,0.150000*%
%ADD11C,0.120000*%
G04 APERTURE END LIST*
D10*
X133846057Y-66513238D02*
X133798438Y-66608476D01*
X133798438Y-66608476D02*
X133703200Y-66703714D01*
X133703200Y-66703714D02*
X133560342Y-66846571D01*
X133560342Y-66846571D02*
X133512723Y-66941809D01*
X133512723Y-66941809D02*
X133512723Y-67037047D01*
X133750819Y-66989428D02*
X133703200Y-67084666D01*
X133703200Y-67084666D02*
X133607961Y-67179904D01*
X133607961Y-67179904D02*
X133417485Y-67227523D01*
X133417485Y-67227523D02*
X133084152Y-67227523D01*
X133084152Y-67227523D02*
X132893676Y-67179904D01*
X132893676Y-67179904D02*
X132798438Y-67084666D01*
X132798438Y-67084666D02*
X132750819Y-66989428D01*
X132750819Y-66989428D02*
X132750819Y-66798952D01*
X132750819Y-66798952D02*
X132798438Y-66703714D01*
X132798438Y-66703714D02*
X132893676Y-66608476D01*
X132893676Y-66608476D02*
X133084152Y-66560857D01*
X133084152Y-66560857D02*
X133417485Y-66560857D01*
X133417485Y-66560857D02*
X133607961Y-66608476D01*
X133607961Y-66608476D02*
X133703200Y-66703714D01*
X133703200Y-66703714D02*
X133750819Y-66798952D01*
X133750819Y-66798952D02*
X133750819Y-66989428D01*
X133750819Y-65608476D02*
X133750819Y-66179904D01*
X133750819Y-65894190D02*
X132750819Y-65894190D01*
X132750819Y-65894190D02*
X132893676Y-65989428D01*
X132893676Y-65989428D02*
X132988914Y-66084666D01*
X132988914Y-66084666D02*
X133036533Y-66179904D01*
X158010057Y-111095238D02*
X157962438Y-111190476D01*
X157962438Y-111190476D02*
X157867200Y-111285714D01*
X157867200Y-111285714D02*
X157724342Y-111428571D01*
X157724342Y-111428571D02*
X157676723Y-111523809D01*
X157676723Y-111523809D02*
X157676723Y-111619047D01*
X157914819Y-111571428D02*
X157867200Y-111666666D01*
X157867200Y-111666666D02*
X157771961Y-111761904D01*
X157771961Y-111761904D02*
X157581485Y-111809523D01*
X157581485Y-111809523D02*
X157248152Y-111809523D01*
X157248152Y-111809523D02*
X157057676Y-111761904D01*
X157057676Y-111761904D02*
X156962438Y-111666666D01*
X156962438Y-111666666D02*
X156914819Y-111571428D01*
X156914819Y-111571428D02*
X156914819Y-111380952D01*
X156914819Y-111380952D02*
X156962438Y-111285714D01*
X156962438Y-111285714D02*
X157057676Y-111190476D01*
X157057676Y-111190476D02*
X157248152Y-111142857D01*
X157248152Y-111142857D02*
X157581485Y-111142857D01*
X157581485Y-111142857D02*
X157771961Y-111190476D01*
X157771961Y-111190476D02*
X157867200Y-111285714D01*
X157867200Y-111285714D02*
X157914819Y-111380952D01*
X157914819Y-111380952D02*
X157914819Y-111571428D01*
X157248152Y-110285714D02*
X157914819Y-110285714D01*
X156867200Y-110523809D02*
X157581485Y-110761904D01*
X157581485Y-110761904D02*
X157581485Y-110142857D01*
X158010057Y-119595238D02*
X157962438Y-119690476D01*
X157962438Y-119690476D02*
X157867200Y-119785714D01*
X157867200Y-119785714D02*
X157724342Y-119928571D01*
X157724342Y-119928571D02*
X157676723Y-120023809D01*
X157676723Y-120023809D02*
X157676723Y-120119047D01*
X157914819Y-120071428D02*
X157867200Y-120166666D01*
X157867200Y-120166666D02*
X157771961Y-120261904D01*
X157771961Y-120261904D02*
X157581485Y-120309523D01*
X157581485Y-120309523D02*
X157248152Y-120309523D01*
X157248152Y-120309523D02*
X157057676Y-120261904D01*
X157057676Y-120261904D02*
X156962438Y-120166666D01*
X156962438Y-120166666D02*
X156914819Y-120071428D01*
X156914819Y-120071428D02*
X156914819Y-119880952D01*
X156914819Y-119880952D02*
X156962438Y-119785714D01*
X156962438Y-119785714D02*
X157057676Y-119690476D01*
X157057676Y-119690476D02*
X157248152Y-119642857D01*
X157248152Y-119642857D02*
X157581485Y-119642857D01*
X157581485Y-119642857D02*
X157771961Y-119690476D01*
X157771961Y-119690476D02*
X157867200Y-119785714D01*
X157867200Y-119785714D02*
X157914819Y-119880952D01*
X157914819Y-119880952D02*
X157914819Y-120071428D01*
X156914819Y-119309523D02*
X156914819Y-118690476D01*
X156914819Y-118690476D02*
X157295771Y-119023809D01*
X157295771Y-119023809D02*
X157295771Y-118880952D01*
X157295771Y-118880952D02*
X157343390Y-118785714D01*
X157343390Y-118785714D02*
X157391009Y-118738095D01*
X157391009Y-118738095D02*
X157486247Y-118690476D01*
X157486247Y-118690476D02*
X157724342Y-118690476D01*
X157724342Y-118690476D02*
X157819580Y-118738095D01*
X157819580Y-118738095D02*
X157867200Y-118785714D01*
X157867200Y-118785714D02*
X157914819Y-118880952D01*
X157914819Y-118880952D02*
X157914819Y-119166666D01*
X157914819Y-119166666D02*
X157867200Y-119261904D01*
X157867200Y-119261904D02*
X157819580Y-119309523D01*
X136916666Y-137904819D02*
X136916666Y-138619104D01*
X136916666Y-138619104D02*
X136869047Y-138761961D01*
X136869047Y-138761961D02*
X136773809Y-138857200D01*
X136773809Y-138857200D02*
X136630952Y-138904819D01*
X136630952Y-138904819D02*
X136535714Y-138904819D01*
X137297619Y-137904819D02*
X137916666Y-137904819D01*
X137916666Y-137904819D02*
X137583333Y-138285771D01*
X137583333Y-138285771D02*
X137726190Y-138285771D01*
X137726190Y-138285771D02*
X137821428Y-138333390D01*
X137821428Y-138333390D02*
X137869047Y-138381009D01*
X137869047Y-138381009D02*
X137916666Y-138476247D01*
X137916666Y-138476247D02*
X137916666Y-138714342D01*
X137916666Y-138714342D02*
X137869047Y-138809580D01*
X137869047Y-138809580D02*
X137821428Y-138857200D01*
X137821428Y-138857200D02*
X137726190Y-138904819D01*
X137726190Y-138904819D02*
X137440476Y-138904819D01*
X137440476Y-138904819D02*
X137345238Y-138857200D01*
X137345238Y-138857200D02*
X137297619Y-138809580D01*
X140945580Y-117046666D02*
X140993200Y-117094285D01*
X140993200Y-117094285D02*
X141040819Y-117237142D01*
X141040819Y-117237142D02*
X141040819Y-117332380D01*
X141040819Y-117332380D02*
X140993200Y-117475237D01*
X140993200Y-117475237D02*
X140897961Y-117570475D01*
X140897961Y-117570475D02*
X140802723Y-117618094D01*
X140802723Y-117618094D02*
X140612247Y-117665713D01*
X140612247Y-117665713D02*
X140469390Y-117665713D01*
X140469390Y-117665713D02*
X140278914Y-117618094D01*
X140278914Y-117618094D02*
X140183676Y-117570475D01*
X140183676Y-117570475D02*
X140088438Y-117475237D01*
X140088438Y-117475237D02*
X140040819Y-117332380D01*
X140040819Y-117332380D02*
X140040819Y-117237142D01*
X140040819Y-117237142D02*
X140088438Y-117094285D01*
X140088438Y-117094285D02*
X140136057Y-117046666D01*
X140136057Y-116665713D02*
X140088438Y-116618094D01*
X140088438Y-116618094D02*
X140040819Y-116522856D01*
X140040819Y-116522856D02*
X140040819Y-116284761D01*
X140040819Y-116284761D02*
X140088438Y-116189523D01*
X140088438Y-116189523D02*
X140136057Y-116141904D01*
X140136057Y-116141904D02*
X140231295Y-116094285D01*
X140231295Y-116094285D02*
X140326533Y-116094285D01*
X140326533Y-116094285D02*
X140469390Y-116141904D01*
X140469390Y-116141904D02*
X141040819Y-116713332D01*
X141040819Y-116713332D02*
X141040819Y-116094285D01*
X117831580Y-117046666D02*
X117879200Y-117094285D01*
X117879200Y-117094285D02*
X117926819Y-117237142D01*
X117926819Y-117237142D02*
X117926819Y-117332380D01*
X117926819Y-117332380D02*
X117879200Y-117475237D01*
X117879200Y-117475237D02*
X117783961Y-117570475D01*
X117783961Y-117570475D02*
X117688723Y-117618094D01*
X117688723Y-117618094D02*
X117498247Y-117665713D01*
X117498247Y-117665713D02*
X117355390Y-117665713D01*
X117355390Y-117665713D02*
X117164914Y-117618094D01*
X117164914Y-117618094D02*
X117069676Y-117570475D01*
X117069676Y-117570475D02*
X116974438Y-117475237D01*
X116974438Y-117475237D02*
X116926819Y-117332380D01*
X116926819Y-117332380D02*
X116926819Y-117237142D01*
X116926819Y-117237142D02*
X116974438Y-117094285D01*
X116974438Y-117094285D02*
X117022057Y-117046666D01*
X117926819Y-116094285D02*
X117926819Y-116665713D01*
X117926819Y-116379999D02*
X116926819Y-116379999D01*
X116926819Y-116379999D02*
X117069676Y-116475237D01*
X117069676Y-116475237D02*
X117164914Y-116570475D01*
X117164914Y-116570475D02*
X117212533Y-116665713D01*
X164834819Y-111428094D02*
X163834819Y-111428094D01*
X163834819Y-111428094D02*
X163834819Y-111189999D01*
X163834819Y-111189999D02*
X163882438Y-111047142D01*
X163882438Y-111047142D02*
X163977676Y-110951904D01*
X163977676Y-110951904D02*
X164072914Y-110904285D01*
X164072914Y-110904285D02*
X164263390Y-110856666D01*
X164263390Y-110856666D02*
X164406247Y-110856666D01*
X164406247Y-110856666D02*
X164596723Y-110904285D01*
X164596723Y-110904285D02*
X164691961Y-110951904D01*
X164691961Y-110951904D02*
X164787200Y-111047142D01*
X164787200Y-111047142D02*
X164834819Y-111189999D01*
X164834819Y-111189999D02*
X164834819Y-111428094D01*
X163930057Y-110475713D02*
X163882438Y-110428094D01*
X163882438Y-110428094D02*
X163834819Y-110332856D01*
X163834819Y-110332856D02*
X163834819Y-110094761D01*
X163834819Y-110094761D02*
X163882438Y-109999523D01*
X163882438Y-109999523D02*
X163930057Y-109951904D01*
X163930057Y-109951904D02*
X164025295Y-109904285D01*
X164025295Y-109904285D02*
X164120533Y-109904285D01*
X164120533Y-109904285D02*
X164263390Y-109951904D01*
X164263390Y-109951904D02*
X164834819Y-110523332D01*
X164834819Y-110523332D02*
X164834819Y-109904285D01*
X165154819Y-114761904D02*
X164154819Y-114761904D01*
X165154819Y-114190476D02*
X164583390Y-114619047D01*
X164154819Y-114190476D02*
X164726247Y-114761904D01*
X164834819Y-121428094D02*
X163834819Y-121428094D01*
X163834819Y-121428094D02*
X163834819Y-121189999D01*
X163834819Y-121189999D02*
X163882438Y-121047142D01*
X163882438Y-121047142D02*
X163977676Y-120951904D01*
X163977676Y-120951904D02*
X164072914Y-120904285D01*
X164072914Y-120904285D02*
X164263390Y-120856666D01*
X164263390Y-120856666D02*
X164406247Y-120856666D01*
X164406247Y-120856666D02*
X164596723Y-120904285D01*
X164596723Y-120904285D02*
X164691961Y-120951904D01*
X164691961Y-120951904D02*
X164787200Y-121047142D01*
X164787200Y-121047142D02*
X164834819Y-121189999D01*
X164834819Y-121189999D02*
X164834819Y-121428094D01*
X164834819Y-119904285D02*
X164834819Y-120475713D01*
X164834819Y-120189999D02*
X163834819Y-120189999D01*
X163834819Y-120189999D02*
X163977676Y-120285237D01*
X163977676Y-120285237D02*
X164072914Y-120380475D01*
X164072914Y-120380475D02*
X164120533Y-120475713D01*
X165154819Y-124761904D02*
X164154819Y-124761904D01*
X165154819Y-124190476D02*
X164583390Y-124619047D01*
X164154819Y-124190476D02*
X164726247Y-124761904D01*
X168004819Y-114583333D02*
X168719104Y-114583333D01*
X168719104Y-114583333D02*
X168861961Y-114630952D01*
X168861961Y-114630952D02*
X168957200Y-114726190D01*
X168957200Y-114726190D02*
X169004819Y-114869047D01*
X169004819Y-114869047D02*
X169004819Y-114964285D01*
X169004819Y-113583333D02*
X169004819Y-114154761D01*
X169004819Y-113869047D02*
X168004819Y-113869047D01*
X168004819Y-113869047D02*
X168147676Y-113964285D01*
X168147676Y-113964285D02*
X168242914Y-114059523D01*
X168242914Y-114059523D02*
X168290533Y-114154761D01*
X149946819Y-74458666D02*
X149470628Y-74791999D01*
X149946819Y-75030094D02*
X148946819Y-75030094D01*
X148946819Y-75030094D02*
X148946819Y-74649142D01*
X148946819Y-74649142D02*
X148994438Y-74553904D01*
X148994438Y-74553904D02*
X149042057Y-74506285D01*
X149042057Y-74506285D02*
X149137295Y-74458666D01*
X149137295Y-74458666D02*
X149280152Y-74458666D01*
X149280152Y-74458666D02*
X149375390Y-74506285D01*
X149375390Y-74506285D02*
X149423009Y-74553904D01*
X149423009Y-74553904D02*
X149470628Y-74649142D01*
X149470628Y-74649142D02*
X149470628Y-75030094D01*
X148946819Y-73601523D02*
X148946819Y-73791999D01*
X148946819Y-73791999D02*
X148994438Y-73887237D01*
X148994438Y-73887237D02*
X149042057Y-73934856D01*
X149042057Y-73934856D02*
X149184914Y-74030094D01*
X149184914Y-74030094D02*
X149375390Y-74077713D01*
X149375390Y-74077713D02*
X149756342Y-74077713D01*
X149756342Y-74077713D02*
X149851580Y-74030094D01*
X149851580Y-74030094D02*
X149899200Y-73982475D01*
X149899200Y-73982475D02*
X149946819Y-73887237D01*
X149946819Y-73887237D02*
X149946819Y-73696761D01*
X149946819Y-73696761D02*
X149899200Y-73601523D01*
X149899200Y-73601523D02*
X149851580Y-73553904D01*
X149851580Y-73553904D02*
X149756342Y-73506285D01*
X149756342Y-73506285D02*
X149518247Y-73506285D01*
X149518247Y-73506285D02*
X149423009Y-73553904D01*
X149423009Y-73553904D02*
X149375390Y-73601523D01*
X149375390Y-73601523D02*
X149327771Y-73696761D01*
X149327771Y-73696761D02*
X149327771Y-73887237D01*
X149327771Y-73887237D02*
X149375390Y-73982475D01*
X149375390Y-73982475D02*
X149423009Y-74030094D01*
X149423009Y-74030094D02*
X149518247Y-74077713D01*
X160793333Y-55374819D02*
X160460000Y-54898628D01*
X160221905Y-55374819D02*
X160221905Y-54374819D01*
X160221905Y-54374819D02*
X160602857Y-54374819D01*
X160602857Y-54374819D02*
X160698095Y-54422438D01*
X160698095Y-54422438D02*
X160745714Y-54470057D01*
X160745714Y-54470057D02*
X160793333Y-54565295D01*
X160793333Y-54565295D02*
X160793333Y-54708152D01*
X160793333Y-54708152D02*
X160745714Y-54803390D01*
X160745714Y-54803390D02*
X160698095Y-54851009D01*
X160698095Y-54851009D02*
X160602857Y-54898628D01*
X160602857Y-54898628D02*
X160221905Y-54898628D01*
X161174286Y-54470057D02*
X161221905Y-54422438D01*
X161221905Y-54422438D02*
X161317143Y-54374819D01*
X161317143Y-54374819D02*
X161555238Y-54374819D01*
X161555238Y-54374819D02*
X161650476Y-54422438D01*
X161650476Y-54422438D02*
X161698095Y-54470057D01*
X161698095Y-54470057D02*
X161745714Y-54565295D01*
X161745714Y-54565295D02*
X161745714Y-54660533D01*
X161745714Y-54660533D02*
X161698095Y-54803390D01*
X161698095Y-54803390D02*
X161126667Y-55374819D01*
X161126667Y-55374819D02*
X161745714Y-55374819D01*
X158166819Y-75175333D02*
X158881104Y-75175333D01*
X158881104Y-75175333D02*
X159023961Y-75222952D01*
X159023961Y-75222952D02*
X159119200Y-75318190D01*
X159119200Y-75318190D02*
X159166819Y-75461047D01*
X159166819Y-75461047D02*
X159166819Y-75556285D01*
X158166819Y-74222952D02*
X158166819Y-74699142D01*
X158166819Y-74699142D02*
X158643009Y-74746761D01*
X158643009Y-74746761D02*
X158595390Y-74699142D01*
X158595390Y-74699142D02*
X158547771Y-74603904D01*
X158547771Y-74603904D02*
X158547771Y-74365809D01*
X158547771Y-74365809D02*
X158595390Y-74270571D01*
X158595390Y-74270571D02*
X158643009Y-74222952D01*
X158643009Y-74222952D02*
X158738247Y-74175333D01*
X158738247Y-74175333D02*
X158976342Y-74175333D01*
X158976342Y-74175333D02*
X159071580Y-74222952D01*
X159071580Y-74222952D02*
X159119200Y-74270571D01*
X159119200Y-74270571D02*
X159166819Y-74365809D01*
X159166819Y-74365809D02*
X159166819Y-74603904D01*
X159166819Y-74603904D02*
X159119200Y-74699142D01*
X159119200Y-74699142D02*
X159071580Y-74746761D01*
X131912819Y-69600857D02*
X131436628Y-69934190D01*
X131912819Y-70172285D02*
X130912819Y-70172285D01*
X130912819Y-70172285D02*
X130912819Y-69791333D01*
X130912819Y-69791333D02*
X130960438Y-69696095D01*
X130960438Y-69696095D02*
X131008057Y-69648476D01*
X131008057Y-69648476D02*
X131103295Y-69600857D01*
X131103295Y-69600857D02*
X131246152Y-69600857D01*
X131246152Y-69600857D02*
X131341390Y-69648476D01*
X131341390Y-69648476D02*
X131389009Y-69696095D01*
X131389009Y-69696095D02*
X131436628Y-69791333D01*
X131436628Y-69791333D02*
X131436628Y-70172285D01*
X131912819Y-68648476D02*
X131912819Y-69219904D01*
X131912819Y-68934190D02*
X130912819Y-68934190D01*
X130912819Y-68934190D02*
X131055676Y-69029428D01*
X131055676Y-69029428D02*
X131150914Y-69124666D01*
X131150914Y-69124666D02*
X131198533Y-69219904D01*
X130912819Y-68029428D02*
X130912819Y-67934190D01*
X130912819Y-67934190D02*
X130960438Y-67838952D01*
X130960438Y-67838952D02*
X131008057Y-67791333D01*
X131008057Y-67791333D02*
X131103295Y-67743714D01*
X131103295Y-67743714D02*
X131293771Y-67696095D01*
X131293771Y-67696095D02*
X131531866Y-67696095D01*
X131531866Y-67696095D02*
X131722342Y-67743714D01*
X131722342Y-67743714D02*
X131817580Y-67791333D01*
X131817580Y-67791333D02*
X131865200Y-67838952D01*
X131865200Y-67838952D02*
X131912819Y-67934190D01*
X131912819Y-67934190D02*
X131912819Y-68029428D01*
X131912819Y-68029428D02*
X131865200Y-68124666D01*
X131865200Y-68124666D02*
X131817580Y-68172285D01*
X131817580Y-68172285D02*
X131722342Y-68219904D01*
X131722342Y-68219904D02*
X131531866Y-68267523D01*
X131531866Y-68267523D02*
X131293771Y-68267523D01*
X131293771Y-68267523D02*
X131103295Y-68219904D01*
X131103295Y-68219904D02*
X131008057Y-68172285D01*
X131008057Y-68172285D02*
X130960438Y-68124666D01*
X130960438Y-68124666D02*
X130912819Y-68029428D01*
X139786819Y-57694666D02*
X139310628Y-58027999D01*
X139786819Y-58266094D02*
X138786819Y-58266094D01*
X138786819Y-58266094D02*
X138786819Y-57885142D01*
X138786819Y-57885142D02*
X138834438Y-57789904D01*
X138834438Y-57789904D02*
X138882057Y-57742285D01*
X138882057Y-57742285D02*
X138977295Y-57694666D01*
X138977295Y-57694666D02*
X139120152Y-57694666D01*
X139120152Y-57694666D02*
X139215390Y-57742285D01*
X139215390Y-57742285D02*
X139263009Y-57789904D01*
X139263009Y-57789904D02*
X139310628Y-57885142D01*
X139310628Y-57885142D02*
X139310628Y-58266094D01*
X138786819Y-57361332D02*
X138786819Y-56742285D01*
X138786819Y-56742285D02*
X139167771Y-57075618D01*
X139167771Y-57075618D02*
X139167771Y-56932761D01*
X139167771Y-56932761D02*
X139215390Y-56837523D01*
X139215390Y-56837523D02*
X139263009Y-56789904D01*
X139263009Y-56789904D02*
X139358247Y-56742285D01*
X139358247Y-56742285D02*
X139596342Y-56742285D01*
X139596342Y-56742285D02*
X139691580Y-56789904D01*
X139691580Y-56789904D02*
X139739200Y-56837523D01*
X139739200Y-56837523D02*
X139786819Y-56932761D01*
X139786819Y-56932761D02*
X139786819Y-57218475D01*
X139786819Y-57218475D02*
X139739200Y-57313713D01*
X139739200Y-57313713D02*
X139691580Y-57361332D01*
X137614819Y-88261904D02*
X138424342Y-88261904D01*
X138424342Y-88261904D02*
X138519580Y-88214285D01*
X138519580Y-88214285D02*
X138567200Y-88166666D01*
X138567200Y-88166666D02*
X138614819Y-88071428D01*
X138614819Y-88071428D02*
X138614819Y-87880952D01*
X138614819Y-87880952D02*
X138567200Y-87785714D01*
X138567200Y-87785714D02*
X138519580Y-87738095D01*
X138519580Y-87738095D02*
X138424342Y-87690476D01*
X138424342Y-87690476D02*
X137614819Y-87690476D01*
X138614819Y-86690476D02*
X138614819Y-87261904D01*
X138614819Y-86976190D02*
X137614819Y-86976190D01*
X137614819Y-86976190D02*
X137757676Y-87071428D01*
X137757676Y-87071428D02*
X137852914Y-87166666D01*
X137852914Y-87166666D02*
X137900533Y-87261904D01*
X163474057Y-60671238D02*
X163426438Y-60766476D01*
X163426438Y-60766476D02*
X163331200Y-60861714D01*
X163331200Y-60861714D02*
X163188342Y-61004571D01*
X163188342Y-61004571D02*
X163140723Y-61099809D01*
X163140723Y-61099809D02*
X163140723Y-61195047D01*
X163378819Y-61147428D02*
X163331200Y-61242666D01*
X163331200Y-61242666D02*
X163235961Y-61337904D01*
X163235961Y-61337904D02*
X163045485Y-61385523D01*
X163045485Y-61385523D02*
X162712152Y-61385523D01*
X162712152Y-61385523D02*
X162521676Y-61337904D01*
X162521676Y-61337904D02*
X162426438Y-61242666D01*
X162426438Y-61242666D02*
X162378819Y-61147428D01*
X162378819Y-61147428D02*
X162378819Y-60956952D01*
X162378819Y-60956952D02*
X162426438Y-60861714D01*
X162426438Y-60861714D02*
X162521676Y-60766476D01*
X162521676Y-60766476D02*
X162712152Y-60718857D01*
X162712152Y-60718857D02*
X163045485Y-60718857D01*
X163045485Y-60718857D02*
X163235961Y-60766476D01*
X163235961Y-60766476D02*
X163331200Y-60861714D01*
X163331200Y-60861714D02*
X163378819Y-60956952D01*
X163378819Y-60956952D02*
X163378819Y-61147428D01*
X162474057Y-60337904D02*
X162426438Y-60290285D01*
X162426438Y-60290285D02*
X162378819Y-60195047D01*
X162378819Y-60195047D02*
X162378819Y-59956952D01*
X162378819Y-59956952D02*
X162426438Y-59861714D01*
X162426438Y-59861714D02*
X162474057Y-59814095D01*
X162474057Y-59814095D02*
X162569295Y-59766476D01*
X162569295Y-59766476D02*
X162664533Y-59766476D01*
X162664533Y-59766476D02*
X162807390Y-59814095D01*
X162807390Y-59814095D02*
X163378819Y-60385523D01*
X163378819Y-60385523D02*
X163378819Y-59766476D01*
X133397142Y-98034819D02*
X133063809Y-97558628D01*
X132825714Y-98034819D02*
X132825714Y-97034819D01*
X132825714Y-97034819D02*
X133206666Y-97034819D01*
X133206666Y-97034819D02*
X133301904Y-97082438D01*
X133301904Y-97082438D02*
X133349523Y-97130057D01*
X133349523Y-97130057D02*
X133397142Y-97225295D01*
X133397142Y-97225295D02*
X133397142Y-97368152D01*
X133397142Y-97368152D02*
X133349523Y-97463390D01*
X133349523Y-97463390D02*
X133301904Y-97511009D01*
X133301904Y-97511009D02*
X133206666Y-97558628D01*
X133206666Y-97558628D02*
X132825714Y-97558628D01*
X134349523Y-98034819D02*
X133778095Y-98034819D01*
X134063809Y-98034819D02*
X134063809Y-97034819D01*
X134063809Y-97034819D02*
X133968571Y-97177676D01*
X133968571Y-97177676D02*
X133873333Y-97272914D01*
X133873333Y-97272914D02*
X133778095Y-97320533D01*
X134682857Y-97034819D02*
X135301904Y-97034819D01*
X135301904Y-97034819D02*
X134968571Y-97415771D01*
X134968571Y-97415771D02*
X135111428Y-97415771D01*
X135111428Y-97415771D02*
X135206666Y-97463390D01*
X135206666Y-97463390D02*
X135254285Y-97511009D01*
X135254285Y-97511009D02*
X135301904Y-97606247D01*
X135301904Y-97606247D02*
X135301904Y-97844342D01*
X135301904Y-97844342D02*
X135254285Y-97939580D01*
X135254285Y-97939580D02*
X135206666Y-97987200D01*
X135206666Y-97987200D02*
X135111428Y-98034819D01*
X135111428Y-98034819D02*
X134825714Y-98034819D01*
X134825714Y-98034819D02*
X134730476Y-97987200D01*
X134730476Y-97987200D02*
X134682857Y-97939580D01*
X170586057Y-60671238D02*
X170538438Y-60766476D01*
X170538438Y-60766476D02*
X170443200Y-60861714D01*
X170443200Y-60861714D02*
X170300342Y-61004571D01*
X170300342Y-61004571D02*
X170252723Y-61099809D01*
X170252723Y-61099809D02*
X170252723Y-61195047D01*
X170490819Y-61147428D02*
X170443200Y-61242666D01*
X170443200Y-61242666D02*
X170347961Y-61337904D01*
X170347961Y-61337904D02*
X170157485Y-61385523D01*
X170157485Y-61385523D02*
X169824152Y-61385523D01*
X169824152Y-61385523D02*
X169633676Y-61337904D01*
X169633676Y-61337904D02*
X169538438Y-61242666D01*
X169538438Y-61242666D02*
X169490819Y-61147428D01*
X169490819Y-61147428D02*
X169490819Y-60956952D01*
X169490819Y-60956952D02*
X169538438Y-60861714D01*
X169538438Y-60861714D02*
X169633676Y-60766476D01*
X169633676Y-60766476D02*
X169824152Y-60718857D01*
X169824152Y-60718857D02*
X170157485Y-60718857D01*
X170157485Y-60718857D02*
X170347961Y-60766476D01*
X170347961Y-60766476D02*
X170443200Y-60861714D01*
X170443200Y-60861714D02*
X170490819Y-60956952D01*
X170490819Y-60956952D02*
X170490819Y-61147428D01*
X169490819Y-59814095D02*
X169490819Y-60290285D01*
X169490819Y-60290285D02*
X169967009Y-60337904D01*
X169967009Y-60337904D02*
X169919390Y-60290285D01*
X169919390Y-60290285D02*
X169871771Y-60195047D01*
X169871771Y-60195047D02*
X169871771Y-59956952D01*
X169871771Y-59956952D02*
X169919390Y-59861714D01*
X169919390Y-59861714D02*
X169967009Y-59814095D01*
X169967009Y-59814095D02*
X170062247Y-59766476D01*
X170062247Y-59766476D02*
X170300342Y-59766476D01*
X170300342Y-59766476D02*
X170395580Y-59814095D01*
X170395580Y-59814095D02*
X170443200Y-59861714D01*
X170443200Y-59861714D02*
X170490819Y-59956952D01*
X170490819Y-59956952D02*
X170490819Y-60195047D01*
X170490819Y-60195047D02*
X170443200Y-60290285D01*
X170443200Y-60290285D02*
X170395580Y-60337904D01*
X130404819Y-99833333D02*
X131119104Y-99833333D01*
X131119104Y-99833333D02*
X131261961Y-99880952D01*
X131261961Y-99880952D02*
X131357200Y-99976190D01*
X131357200Y-99976190D02*
X131404819Y-100119047D01*
X131404819Y-100119047D02*
X131404819Y-100214285D01*
X130738152Y-98928571D02*
X131404819Y-98928571D01*
X130357200Y-99166666D02*
X131071485Y-99404761D01*
X131071485Y-99404761D02*
X131071485Y-98785714D01*
X144866819Y-74458666D02*
X144390628Y-74791999D01*
X144866819Y-75030094D02*
X143866819Y-75030094D01*
X143866819Y-75030094D02*
X143866819Y-74649142D01*
X143866819Y-74649142D02*
X143914438Y-74553904D01*
X143914438Y-74553904D02*
X143962057Y-74506285D01*
X143962057Y-74506285D02*
X144057295Y-74458666D01*
X144057295Y-74458666D02*
X144200152Y-74458666D01*
X144200152Y-74458666D02*
X144295390Y-74506285D01*
X144295390Y-74506285D02*
X144343009Y-74553904D01*
X144343009Y-74553904D02*
X144390628Y-74649142D01*
X144390628Y-74649142D02*
X144390628Y-75030094D01*
X144200152Y-73601523D02*
X144866819Y-73601523D01*
X143819200Y-73839618D02*
X144533485Y-74077713D01*
X144533485Y-74077713D02*
X144533485Y-73458666D01*
X160868819Y-63758857D02*
X160392628Y-64092190D01*
X160868819Y-64330285D02*
X159868819Y-64330285D01*
X159868819Y-64330285D02*
X159868819Y-63949333D01*
X159868819Y-63949333D02*
X159916438Y-63854095D01*
X159916438Y-63854095D02*
X159964057Y-63806476D01*
X159964057Y-63806476D02*
X160059295Y-63758857D01*
X160059295Y-63758857D02*
X160202152Y-63758857D01*
X160202152Y-63758857D02*
X160297390Y-63806476D01*
X160297390Y-63806476D02*
X160345009Y-63854095D01*
X160345009Y-63854095D02*
X160392628Y-63949333D01*
X160392628Y-63949333D02*
X160392628Y-64330285D01*
X160868819Y-62806476D02*
X160868819Y-63377904D01*
X160868819Y-63092190D02*
X159868819Y-63092190D01*
X159868819Y-63092190D02*
X160011676Y-63187428D01*
X160011676Y-63187428D02*
X160106914Y-63282666D01*
X160106914Y-63282666D02*
X160154533Y-63377904D01*
X160868819Y-61854095D02*
X160868819Y-62425523D01*
X160868819Y-62139809D02*
X159868819Y-62139809D01*
X159868819Y-62139809D02*
X160011676Y-62235047D01*
X160011676Y-62235047D02*
X160106914Y-62330285D01*
X160106914Y-62330285D02*
X160154533Y-62425523D01*
X142326819Y-74458666D02*
X141850628Y-74791999D01*
X142326819Y-75030094D02*
X141326819Y-75030094D01*
X141326819Y-75030094D02*
X141326819Y-74649142D01*
X141326819Y-74649142D02*
X141374438Y-74553904D01*
X141374438Y-74553904D02*
X141422057Y-74506285D01*
X141422057Y-74506285D02*
X141517295Y-74458666D01*
X141517295Y-74458666D02*
X141660152Y-74458666D01*
X141660152Y-74458666D02*
X141755390Y-74506285D01*
X141755390Y-74506285D02*
X141803009Y-74553904D01*
X141803009Y-74553904D02*
X141850628Y-74649142D01*
X141850628Y-74649142D02*
X141850628Y-75030094D01*
X142326819Y-73982475D02*
X142326819Y-73791999D01*
X142326819Y-73791999D02*
X142279200Y-73696761D01*
X142279200Y-73696761D02*
X142231580Y-73649142D01*
X142231580Y-73649142D02*
X142088723Y-73553904D01*
X142088723Y-73553904D02*
X141898247Y-73506285D01*
X141898247Y-73506285D02*
X141517295Y-73506285D01*
X141517295Y-73506285D02*
X141422057Y-73553904D01*
X141422057Y-73553904D02*
X141374438Y-73601523D01*
X141374438Y-73601523D02*
X141326819Y-73696761D01*
X141326819Y-73696761D02*
X141326819Y-73887237D01*
X141326819Y-73887237D02*
X141374438Y-73982475D01*
X141374438Y-73982475D02*
X141422057Y-74030094D01*
X141422057Y-74030094D02*
X141517295Y-74077713D01*
X141517295Y-74077713D02*
X141755390Y-74077713D01*
X141755390Y-74077713D02*
X141850628Y-74030094D01*
X141850628Y-74030094D02*
X141898247Y-73982475D01*
X141898247Y-73982475D02*
X141945866Y-73887237D01*
X141945866Y-73887237D02*
X141945866Y-73696761D01*
X141945866Y-73696761D02*
X141898247Y-73601523D01*
X141898247Y-73601523D02*
X141850628Y-73553904D01*
X141850628Y-73553904D02*
X141755390Y-73506285D01*
X152486819Y-74458666D02*
X152010628Y-74791999D01*
X152486819Y-75030094D02*
X151486819Y-75030094D01*
X151486819Y-75030094D02*
X151486819Y-74649142D01*
X151486819Y-74649142D02*
X151534438Y-74553904D01*
X151534438Y-74553904D02*
X151582057Y-74506285D01*
X151582057Y-74506285D02*
X151677295Y-74458666D01*
X151677295Y-74458666D02*
X151820152Y-74458666D01*
X151820152Y-74458666D02*
X151915390Y-74506285D01*
X151915390Y-74506285D02*
X151963009Y-74553904D01*
X151963009Y-74553904D02*
X152010628Y-74649142D01*
X152010628Y-74649142D02*
X152010628Y-75030094D01*
X151486819Y-73553904D02*
X151486819Y-74030094D01*
X151486819Y-74030094D02*
X151963009Y-74077713D01*
X151963009Y-74077713D02*
X151915390Y-74030094D01*
X151915390Y-74030094D02*
X151867771Y-73934856D01*
X151867771Y-73934856D02*
X151867771Y-73696761D01*
X151867771Y-73696761D02*
X151915390Y-73601523D01*
X151915390Y-73601523D02*
X151963009Y-73553904D01*
X151963009Y-73553904D02*
X152058247Y-73506285D01*
X152058247Y-73506285D02*
X152296342Y-73506285D01*
X152296342Y-73506285D02*
X152391580Y-73553904D01*
X152391580Y-73553904D02*
X152439200Y-73601523D01*
X152439200Y-73601523D02*
X152486819Y-73696761D01*
X152486819Y-73696761D02*
X152486819Y-73934856D01*
X152486819Y-73934856D02*
X152439200Y-74030094D01*
X152439200Y-74030094D02*
X152391580Y-74077713D01*
X157293333Y-57374819D02*
X156960000Y-56898628D01*
X156721905Y-57374819D02*
X156721905Y-56374819D01*
X156721905Y-56374819D02*
X157102857Y-56374819D01*
X157102857Y-56374819D02*
X157198095Y-56422438D01*
X157198095Y-56422438D02*
X157245714Y-56470057D01*
X157245714Y-56470057D02*
X157293333Y-56565295D01*
X157293333Y-56565295D02*
X157293333Y-56708152D01*
X157293333Y-56708152D02*
X157245714Y-56803390D01*
X157245714Y-56803390D02*
X157198095Y-56851009D01*
X157198095Y-56851009D02*
X157102857Y-56898628D01*
X157102857Y-56898628D02*
X156721905Y-56898628D01*
X157864762Y-56803390D02*
X157769524Y-56755771D01*
X157769524Y-56755771D02*
X157721905Y-56708152D01*
X157721905Y-56708152D02*
X157674286Y-56612914D01*
X157674286Y-56612914D02*
X157674286Y-56565295D01*
X157674286Y-56565295D02*
X157721905Y-56470057D01*
X157721905Y-56470057D02*
X157769524Y-56422438D01*
X157769524Y-56422438D02*
X157864762Y-56374819D01*
X157864762Y-56374819D02*
X158055238Y-56374819D01*
X158055238Y-56374819D02*
X158150476Y-56422438D01*
X158150476Y-56422438D02*
X158198095Y-56470057D01*
X158198095Y-56470057D02*
X158245714Y-56565295D01*
X158245714Y-56565295D02*
X158245714Y-56612914D01*
X158245714Y-56612914D02*
X158198095Y-56708152D01*
X158198095Y-56708152D02*
X158150476Y-56755771D01*
X158150476Y-56755771D02*
X158055238Y-56803390D01*
X158055238Y-56803390D02*
X157864762Y-56803390D01*
X157864762Y-56803390D02*
X157769524Y-56851009D01*
X157769524Y-56851009D02*
X157721905Y-56898628D01*
X157721905Y-56898628D02*
X157674286Y-56993866D01*
X157674286Y-56993866D02*
X157674286Y-57184342D01*
X157674286Y-57184342D02*
X157721905Y-57279580D01*
X157721905Y-57279580D02*
X157769524Y-57327200D01*
X157769524Y-57327200D02*
X157864762Y-57374819D01*
X157864762Y-57374819D02*
X158055238Y-57374819D01*
X158055238Y-57374819D02*
X158150476Y-57327200D01*
X158150476Y-57327200D02*
X158198095Y-57279580D01*
X158198095Y-57279580D02*
X158245714Y-57184342D01*
X158245714Y-57184342D02*
X158245714Y-56993866D01*
X158245714Y-56993866D02*
X158198095Y-56898628D01*
X158198095Y-56898628D02*
X158150476Y-56851009D01*
X158150476Y-56851009D02*
X158055238Y-56803390D01*
X147406819Y-74458666D02*
X146930628Y-74791999D01*
X147406819Y-75030094D02*
X146406819Y-75030094D01*
X146406819Y-75030094D02*
X146406819Y-74649142D01*
X146406819Y-74649142D02*
X146454438Y-74553904D01*
X146454438Y-74553904D02*
X146502057Y-74506285D01*
X146502057Y-74506285D02*
X146597295Y-74458666D01*
X146597295Y-74458666D02*
X146740152Y-74458666D01*
X146740152Y-74458666D02*
X146835390Y-74506285D01*
X146835390Y-74506285D02*
X146883009Y-74553904D01*
X146883009Y-74553904D02*
X146930628Y-74649142D01*
X146930628Y-74649142D02*
X146930628Y-75030094D01*
X146406819Y-74125332D02*
X146406819Y-73458666D01*
X146406819Y-73458666D02*
X147406819Y-73887237D01*
X171817142Y-62874819D02*
X171483809Y-62398628D01*
X171245714Y-62874819D02*
X171245714Y-61874819D01*
X171245714Y-61874819D02*
X171626666Y-61874819D01*
X171626666Y-61874819D02*
X171721904Y-61922438D01*
X171721904Y-61922438D02*
X171769523Y-61970057D01*
X171769523Y-61970057D02*
X171817142Y-62065295D01*
X171817142Y-62065295D02*
X171817142Y-62208152D01*
X171817142Y-62208152D02*
X171769523Y-62303390D01*
X171769523Y-62303390D02*
X171721904Y-62351009D01*
X171721904Y-62351009D02*
X171626666Y-62398628D01*
X171626666Y-62398628D02*
X171245714Y-62398628D01*
X172769523Y-62874819D02*
X172198095Y-62874819D01*
X172483809Y-62874819D02*
X172483809Y-61874819D01*
X172483809Y-61874819D02*
X172388571Y-62017676D01*
X172388571Y-62017676D02*
X172293333Y-62112914D01*
X172293333Y-62112914D02*
X172198095Y-62160533D01*
X173150476Y-61970057D02*
X173198095Y-61922438D01*
X173198095Y-61922438D02*
X173293333Y-61874819D01*
X173293333Y-61874819D02*
X173531428Y-61874819D01*
X173531428Y-61874819D02*
X173626666Y-61922438D01*
X173626666Y-61922438D02*
X173674285Y-61970057D01*
X173674285Y-61970057D02*
X173721904Y-62065295D01*
X173721904Y-62065295D02*
X173721904Y-62160533D01*
X173721904Y-62160533D02*
X173674285Y-62303390D01*
X173674285Y-62303390D02*
X173102857Y-62874819D01*
X173102857Y-62874819D02*
X173721904Y-62874819D01*
X173374819Y-97682857D02*
X172898628Y-98016190D01*
X173374819Y-98254285D02*
X172374819Y-98254285D01*
X172374819Y-98254285D02*
X172374819Y-97873333D01*
X172374819Y-97873333D02*
X172422438Y-97778095D01*
X172422438Y-97778095D02*
X172470057Y-97730476D01*
X172470057Y-97730476D02*
X172565295Y-97682857D01*
X172565295Y-97682857D02*
X172708152Y-97682857D01*
X172708152Y-97682857D02*
X172803390Y-97730476D01*
X172803390Y-97730476D02*
X172851009Y-97778095D01*
X172851009Y-97778095D02*
X172898628Y-97873333D01*
X172898628Y-97873333D02*
X172898628Y-98254285D01*
X173374819Y-96730476D02*
X173374819Y-97301904D01*
X173374819Y-97016190D02*
X172374819Y-97016190D01*
X172374819Y-97016190D02*
X172517676Y-97111428D01*
X172517676Y-97111428D02*
X172612914Y-97206666D01*
X172612914Y-97206666D02*
X172660533Y-97301904D01*
X172374819Y-95825714D02*
X172374819Y-96301904D01*
X172374819Y-96301904D02*
X172851009Y-96349523D01*
X172851009Y-96349523D02*
X172803390Y-96301904D01*
X172803390Y-96301904D02*
X172755771Y-96206666D01*
X172755771Y-96206666D02*
X172755771Y-95968571D01*
X172755771Y-95968571D02*
X172803390Y-95873333D01*
X172803390Y-95873333D02*
X172851009Y-95825714D01*
X172851009Y-95825714D02*
X172946247Y-95778095D01*
X172946247Y-95778095D02*
X173184342Y-95778095D01*
X173184342Y-95778095D02*
X173279580Y-95825714D01*
X173279580Y-95825714D02*
X173327200Y-95873333D01*
X173327200Y-95873333D02*
X173374819Y-95968571D01*
X173374819Y-95968571D02*
X173374819Y-96206666D01*
X173374819Y-96206666D02*
X173327200Y-96301904D01*
X173327200Y-96301904D02*
X173279580Y-96349523D01*
X159734819Y-119952857D02*
X159258628Y-120286190D01*
X159734819Y-120524285D02*
X158734819Y-120524285D01*
X158734819Y-120524285D02*
X158734819Y-120143333D01*
X158734819Y-120143333D02*
X158782438Y-120048095D01*
X158782438Y-120048095D02*
X158830057Y-120000476D01*
X158830057Y-120000476D02*
X158925295Y-119952857D01*
X158925295Y-119952857D02*
X159068152Y-119952857D01*
X159068152Y-119952857D02*
X159163390Y-120000476D01*
X159163390Y-120000476D02*
X159211009Y-120048095D01*
X159211009Y-120048095D02*
X159258628Y-120143333D01*
X159258628Y-120143333D02*
X159258628Y-120524285D01*
X159734819Y-119000476D02*
X159734819Y-119571904D01*
X159734819Y-119286190D02*
X158734819Y-119286190D01*
X158734819Y-119286190D02*
X158877676Y-119381428D01*
X158877676Y-119381428D02*
X158972914Y-119476666D01*
X158972914Y-119476666D02*
X159020533Y-119571904D01*
X158734819Y-118143333D02*
X158734819Y-118333809D01*
X158734819Y-118333809D02*
X158782438Y-118429047D01*
X158782438Y-118429047D02*
X158830057Y-118476666D01*
X158830057Y-118476666D02*
X158972914Y-118571904D01*
X158972914Y-118571904D02*
X159163390Y-118619523D01*
X159163390Y-118619523D02*
X159544342Y-118619523D01*
X159544342Y-118619523D02*
X159639580Y-118571904D01*
X159639580Y-118571904D02*
X159687200Y-118524285D01*
X159687200Y-118524285D02*
X159734819Y-118429047D01*
X159734819Y-118429047D02*
X159734819Y-118238571D01*
X159734819Y-118238571D02*
X159687200Y-118143333D01*
X159687200Y-118143333D02*
X159639580Y-118095714D01*
X159639580Y-118095714D02*
X159544342Y-118048095D01*
X159544342Y-118048095D02*
X159306247Y-118048095D01*
X159306247Y-118048095D02*
X159211009Y-118095714D01*
X159211009Y-118095714D02*
X159163390Y-118143333D01*
X159163390Y-118143333D02*
X159115771Y-118238571D01*
X159115771Y-118238571D02*
X159115771Y-118429047D01*
X159115771Y-118429047D02*
X159163390Y-118524285D01*
X159163390Y-118524285D02*
X159211009Y-118571904D01*
X159211009Y-118571904D02*
X159306247Y-118619523D01*
X159734819Y-111452857D02*
X159258628Y-111786190D01*
X159734819Y-112024285D02*
X158734819Y-112024285D01*
X158734819Y-112024285D02*
X158734819Y-111643333D01*
X158734819Y-111643333D02*
X158782438Y-111548095D01*
X158782438Y-111548095D02*
X158830057Y-111500476D01*
X158830057Y-111500476D02*
X158925295Y-111452857D01*
X158925295Y-111452857D02*
X159068152Y-111452857D01*
X159068152Y-111452857D02*
X159163390Y-111500476D01*
X159163390Y-111500476D02*
X159211009Y-111548095D01*
X159211009Y-111548095D02*
X159258628Y-111643333D01*
X159258628Y-111643333D02*
X159258628Y-112024285D01*
X159734819Y-110500476D02*
X159734819Y-111071904D01*
X159734819Y-110786190D02*
X158734819Y-110786190D01*
X158734819Y-110786190D02*
X158877676Y-110881428D01*
X158877676Y-110881428D02*
X158972914Y-110976666D01*
X158972914Y-110976666D02*
X159020533Y-111071904D01*
X158734819Y-110167142D02*
X158734819Y-109500476D01*
X158734819Y-109500476D02*
X159734819Y-109929047D01*
X176374819Y-97682857D02*
X175898628Y-98016190D01*
X176374819Y-98254285D02*
X175374819Y-98254285D01*
X175374819Y-98254285D02*
X175374819Y-97873333D01*
X175374819Y-97873333D02*
X175422438Y-97778095D01*
X175422438Y-97778095D02*
X175470057Y-97730476D01*
X175470057Y-97730476D02*
X175565295Y-97682857D01*
X175565295Y-97682857D02*
X175708152Y-97682857D01*
X175708152Y-97682857D02*
X175803390Y-97730476D01*
X175803390Y-97730476D02*
X175851009Y-97778095D01*
X175851009Y-97778095D02*
X175898628Y-97873333D01*
X175898628Y-97873333D02*
X175898628Y-98254285D01*
X176374819Y-96730476D02*
X176374819Y-97301904D01*
X176374819Y-97016190D02*
X175374819Y-97016190D01*
X175374819Y-97016190D02*
X175517676Y-97111428D01*
X175517676Y-97111428D02*
X175612914Y-97206666D01*
X175612914Y-97206666D02*
X175660533Y-97301904D01*
X175708152Y-95873333D02*
X176374819Y-95873333D01*
X175327200Y-96111428D02*
X176041485Y-96349523D01*
X176041485Y-96349523D02*
X176041485Y-95730476D01*
X139034819Y-96126666D02*
X138558628Y-96459999D01*
X139034819Y-96698094D02*
X138034819Y-96698094D01*
X138034819Y-96698094D02*
X138034819Y-96317142D01*
X138034819Y-96317142D02*
X138082438Y-96221904D01*
X138082438Y-96221904D02*
X138130057Y-96174285D01*
X138130057Y-96174285D02*
X138225295Y-96126666D01*
X138225295Y-96126666D02*
X138368152Y-96126666D01*
X138368152Y-96126666D02*
X138463390Y-96174285D01*
X138463390Y-96174285D02*
X138511009Y-96221904D01*
X138511009Y-96221904D02*
X138558628Y-96317142D01*
X138558628Y-96317142D02*
X138558628Y-96698094D01*
X139034819Y-95174285D02*
X139034819Y-95745713D01*
X139034819Y-95459999D02*
X138034819Y-95459999D01*
X138034819Y-95459999D02*
X138177676Y-95555237D01*
X138177676Y-95555237D02*
X138272914Y-95650475D01*
X138272914Y-95650475D02*
X138320533Y-95745713D01*
X146877580Y-133222666D02*
X146925200Y-133270285D01*
X146925200Y-133270285D02*
X146972819Y-133413142D01*
X146972819Y-133413142D02*
X146972819Y-133508380D01*
X146972819Y-133508380D02*
X146925200Y-133651237D01*
X146925200Y-133651237D02*
X146829961Y-133746475D01*
X146829961Y-133746475D02*
X146734723Y-133794094D01*
X146734723Y-133794094D02*
X146544247Y-133841713D01*
X146544247Y-133841713D02*
X146401390Y-133841713D01*
X146401390Y-133841713D02*
X146210914Y-133794094D01*
X146210914Y-133794094D02*
X146115676Y-133746475D01*
X146115676Y-133746475D02*
X146020438Y-133651237D01*
X146020438Y-133651237D02*
X145972819Y-133508380D01*
X145972819Y-133508380D02*
X145972819Y-133413142D01*
X145972819Y-133413142D02*
X146020438Y-133270285D01*
X146020438Y-133270285D02*
X146068057Y-133222666D01*
X145972819Y-132889332D02*
X145972819Y-132270285D01*
X145972819Y-132270285D02*
X146353771Y-132603618D01*
X146353771Y-132603618D02*
X146353771Y-132460761D01*
X146353771Y-132460761D02*
X146401390Y-132365523D01*
X146401390Y-132365523D02*
X146449009Y-132317904D01*
X146449009Y-132317904D02*
X146544247Y-132270285D01*
X146544247Y-132270285D02*
X146782342Y-132270285D01*
X146782342Y-132270285D02*
X146877580Y-132317904D01*
X146877580Y-132317904D02*
X146925200Y-132365523D01*
X146925200Y-132365523D02*
X146972819Y-132460761D01*
X146972819Y-132460761D02*
X146972819Y-132746475D01*
X146972819Y-132746475D02*
X146925200Y-132841713D01*
X146925200Y-132841713D02*
X146877580Y-132889332D01*
X164333333Y-104859580D02*
X164285714Y-104907200D01*
X164285714Y-104907200D02*
X164142857Y-104954819D01*
X164142857Y-104954819D02*
X164047619Y-104954819D01*
X164047619Y-104954819D02*
X163904762Y-104907200D01*
X163904762Y-104907200D02*
X163809524Y-104811961D01*
X163809524Y-104811961D02*
X163761905Y-104716723D01*
X163761905Y-104716723D02*
X163714286Y-104526247D01*
X163714286Y-104526247D02*
X163714286Y-104383390D01*
X163714286Y-104383390D02*
X163761905Y-104192914D01*
X163761905Y-104192914D02*
X163809524Y-104097676D01*
X163809524Y-104097676D02*
X163904762Y-104002438D01*
X163904762Y-104002438D02*
X164047619Y-103954819D01*
X164047619Y-103954819D02*
X164142857Y-103954819D01*
X164142857Y-103954819D02*
X164285714Y-104002438D01*
X164285714Y-104002438D02*
X164333333Y-104050057D01*
X165238095Y-103954819D02*
X164761905Y-103954819D01*
X164761905Y-103954819D02*
X164714286Y-104431009D01*
X164714286Y-104431009D02*
X164761905Y-104383390D01*
X164761905Y-104383390D02*
X164857143Y-104335771D01*
X164857143Y-104335771D02*
X165095238Y-104335771D01*
X165095238Y-104335771D02*
X165190476Y-104383390D01*
X165190476Y-104383390D02*
X165238095Y-104431009D01*
X165238095Y-104431009D02*
X165285714Y-104526247D01*
X165285714Y-104526247D02*
X165285714Y-104764342D01*
X165285714Y-104764342D02*
X165238095Y-104859580D01*
X165238095Y-104859580D02*
X165190476Y-104907200D01*
X165190476Y-104907200D02*
X165095238Y-104954819D01*
X165095238Y-104954819D02*
X164857143Y-104954819D01*
X164857143Y-104954819D02*
X164761905Y-104907200D01*
X164761905Y-104907200D02*
X164714286Y-104859580D01*
X154333333Y-99859580D02*
X154285714Y-99907200D01*
X154285714Y-99907200D02*
X154142857Y-99954819D01*
X154142857Y-99954819D02*
X154047619Y-99954819D01*
X154047619Y-99954819D02*
X153904762Y-99907200D01*
X153904762Y-99907200D02*
X153809524Y-99811961D01*
X153809524Y-99811961D02*
X153761905Y-99716723D01*
X153761905Y-99716723D02*
X153714286Y-99526247D01*
X153714286Y-99526247D02*
X153714286Y-99383390D01*
X153714286Y-99383390D02*
X153761905Y-99192914D01*
X153761905Y-99192914D02*
X153809524Y-99097676D01*
X153809524Y-99097676D02*
X153904762Y-99002438D01*
X153904762Y-99002438D02*
X154047619Y-98954819D01*
X154047619Y-98954819D02*
X154142857Y-98954819D01*
X154142857Y-98954819D02*
X154285714Y-99002438D01*
X154285714Y-99002438D02*
X154333333Y-99050057D01*
X155190476Y-99288152D02*
X155190476Y-99954819D01*
X154952381Y-98907200D02*
X154714286Y-99621485D01*
X154714286Y-99621485D02*
X155333333Y-99621485D01*
X159017509Y-100701428D02*
X159017509Y-101177619D01*
X158684176Y-100177619D02*
X159017509Y-100701428D01*
X159017509Y-100701428D02*
X159350842Y-100177619D01*
X160207985Y-101177619D02*
X159636557Y-101177619D01*
X159922271Y-101177619D02*
X159922271Y-100177619D01*
X159922271Y-100177619D02*
X159827033Y-100320476D01*
X159827033Y-100320476D02*
X159731795Y-100415714D01*
X159731795Y-100415714D02*
X159636557Y-100463333D01*
%TO.C,Q1*%
D11*
X139546000Y-68218000D02*
X139546000Y-64618000D01*
X139537741Y-68229875D02*
G75*
G02*
X135246000Y-67238000I-1841741J1811875D01*
G01*
X135246000Y-65638000D02*
G75*
G02*
X139523684Y-64609555I2450000J-780000D01*
G01*
%TO.C,Q4*%
X163710000Y-112800000D02*
X163710000Y-109200000D01*
X163701741Y-112811875D02*
G75*
G02*
X159410000Y-111820000I-1841741J1811875D01*
G01*
X159410000Y-110220000D02*
G75*
G02*
X163687684Y-109191555I2450000J-780000D01*
G01*
%TO.C,Q3*%
X163710000Y-121300000D02*
X163710000Y-117700000D01*
X163701741Y-121311875D02*
G75*
G02*
X159410000Y-120320000I-1841741J1811875D01*
G01*
X159410000Y-118720000D02*
G75*
G02*
X163687684Y-117691555I2450000J-780000D01*
G01*
%TO.C,J3*%
X141950000Y-137750000D02*
X139950000Y-137750000D01*
X141950000Y-136500000D02*
X141950000Y-137750000D01*
X140500000Y-136400000D02*
X137500000Y-136400000D01*
X140500000Y-135050000D02*
X139750000Y-135050000D01*
X140500000Y-130750000D02*
X140500000Y-135050000D01*
X140250000Y-135400000D02*
X140500000Y-136400000D01*
X139750000Y-135400000D02*
X140250000Y-135400000D01*
X139750000Y-135050000D02*
X139750000Y-135400000D01*
X139750000Y-130750000D02*
X140500000Y-130750000D01*
X138250000Y-135400000D02*
X138250000Y-135050000D01*
X138250000Y-135050000D02*
X137500000Y-135050000D01*
X137750000Y-135400000D02*
X138250000Y-135400000D01*
X137500000Y-136400000D02*
X137750000Y-135400000D01*
X137500000Y-135050000D02*
X137500000Y-130750000D01*
X137500000Y-130750000D02*
X138250000Y-130750000D01*
X137000000Y-136400000D02*
X134000000Y-136400000D01*
X137000000Y-135050000D02*
X136250000Y-135050000D01*
X137000000Y-130750000D02*
X137000000Y-135050000D01*
X136750000Y-135400000D02*
X137000000Y-136400000D01*
X136250000Y-135400000D02*
X136750000Y-135400000D01*
X136250000Y-135050000D02*
X136250000Y-135400000D01*
X136250000Y-130750000D02*
X137000000Y-130750000D01*
X134750000Y-135400000D02*
X134750000Y-135050000D01*
X134750000Y-135050000D02*
X134000000Y-135050000D01*
X134250000Y-135400000D02*
X134750000Y-135400000D01*
X134000000Y-136400000D02*
X134250000Y-135400000D01*
X134000000Y-135050000D02*
X134000000Y-130750000D01*
X134000000Y-130750000D02*
X134750000Y-130750000D01*
X132940000Y-129890000D02*
X141560000Y-129890000D01*
X141560000Y-137360000D01*
X132940000Y-137360000D01*
X132940000Y-129890000D01*
X139750000Y-130750000D02*
G75*
G02*
X138250353Y-130750156I-750000J1700000D01*
G01*
X136250000Y-130750000D02*
G75*
G02*
X134750353Y-130750156I-750000J1700000D01*
G01*
%TO.C,C2*%
X144621000Y-123964569D02*
X144621000Y-122664569D01*
X143971000Y-123314569D02*
X145271000Y-123314569D01*
X141756000Y-116880000D02*
X154916000Y-116880000D01*
X141756000Y-116840000D02*
X154916000Y-116840000D01*
X141756000Y-116800000D02*
X154916000Y-116800000D01*
X141757000Y-116760000D02*
X154915000Y-116760000D01*
X141758000Y-116720000D02*
X154914000Y-116720000D01*
X141759000Y-116680000D02*
X154913000Y-116680000D01*
X141760000Y-116640000D02*
X154912000Y-116640000D01*
X141762000Y-116600000D02*
X154910000Y-116600000D01*
X141764000Y-116560000D02*
X154908000Y-116560000D01*
X141766000Y-116520000D02*
X154906000Y-116520000D01*
X141768000Y-116480000D02*
X154904000Y-116480000D01*
X141771000Y-116440000D02*
X154901000Y-116440000D01*
X141773000Y-116400000D02*
X154899000Y-116400000D01*
X141776000Y-116360000D02*
X154896000Y-116360000D01*
X141780000Y-116320000D02*
X154892000Y-116320000D01*
X141783000Y-116280000D02*
X154889000Y-116280000D01*
X141787000Y-116240000D02*
X154885000Y-116240000D01*
X141791000Y-116200000D02*
X154881000Y-116200000D01*
X141795000Y-116160000D02*
X154877000Y-116160000D01*
X141800000Y-116120000D02*
X154872000Y-116120000D01*
X141805000Y-116080000D02*
X154867000Y-116080000D01*
X141810000Y-116040000D02*
X154862000Y-116040000D01*
X141815000Y-116000000D02*
X154857000Y-116000000D01*
X141820000Y-115960000D02*
X154852000Y-115960000D01*
X141826000Y-115920000D02*
X154846000Y-115920000D01*
X141832000Y-115880000D02*
X154840000Y-115880000D01*
X141838000Y-115840000D02*
X154834000Y-115840000D01*
X141845000Y-115800000D02*
X146896000Y-115800000D01*
X149776000Y-115800000D02*
X154827000Y-115800000D01*
X141851000Y-115760000D02*
X146896000Y-115760000D01*
X149776000Y-115760000D02*
X154821000Y-115760000D01*
X141858000Y-115720000D02*
X146896000Y-115720000D01*
X149776000Y-115720000D02*
X154814000Y-115720000D01*
X141866000Y-115680000D02*
X146896000Y-115680000D01*
X149776000Y-115680000D02*
X154806000Y-115680000D01*
X141873000Y-115640000D02*
X146896000Y-115640000D01*
X149776000Y-115640000D02*
X154799000Y-115640000D01*
X141881000Y-115600000D02*
X146896000Y-115600000D01*
X149776000Y-115600000D02*
X154791000Y-115600000D01*
X141889000Y-115560000D02*
X146896000Y-115560000D01*
X149776000Y-115560000D02*
X154783000Y-115560000D01*
X141897000Y-115520000D02*
X146896000Y-115520000D01*
X149776000Y-115520000D02*
X154775000Y-115520000D01*
X141906000Y-115480000D02*
X146896000Y-115480000D01*
X149776000Y-115480000D02*
X154766000Y-115480000D01*
X141915000Y-115440000D02*
X146896000Y-115440000D01*
X149776000Y-115440000D02*
X154757000Y-115440000D01*
X141924000Y-115400000D02*
X146896000Y-115400000D01*
X149776000Y-115400000D02*
X154748000Y-115400000D01*
X141933000Y-115360000D02*
X146896000Y-115360000D01*
X149776000Y-115360000D02*
X154739000Y-115360000D01*
X141942000Y-115320000D02*
X146896000Y-115320000D01*
X149776000Y-115320000D02*
X154730000Y-115320000D01*
X141952000Y-115280000D02*
X146896000Y-115280000D01*
X149776000Y-115280000D02*
X154720000Y-115280000D01*
X141962000Y-115240000D02*
X146896000Y-115240000D01*
X149776000Y-115240000D02*
X154710000Y-115240000D01*
X141973000Y-115200000D02*
X146896000Y-115200000D01*
X149776000Y-115200000D02*
X154699000Y-115200000D01*
X141983000Y-115160000D02*
X146896000Y-115160000D01*
X149776000Y-115160000D02*
X154689000Y-115160000D01*
X141994000Y-115120000D02*
X146896000Y-115120000D01*
X149776000Y-115120000D02*
X154678000Y-115120000D01*
X142005000Y-115080000D02*
X146896000Y-115080000D01*
X149776000Y-115080000D02*
X154667000Y-115080000D01*
X142017000Y-115040000D02*
X146896000Y-115040000D01*
X149776000Y-115040000D02*
X154655000Y-115040000D01*
X142029000Y-115000000D02*
X146896000Y-115000000D01*
X149776000Y-115000000D02*
X154643000Y-115000000D01*
X142041000Y-114960000D02*
X146896000Y-114960000D01*
X149776000Y-114960000D02*
X154631000Y-114960000D01*
X142053000Y-114920000D02*
X146896000Y-114920000D01*
X149776000Y-114920000D02*
X154619000Y-114920000D01*
X142065000Y-114880000D02*
X146896000Y-114880000D01*
X149776000Y-114880000D02*
X154607000Y-114880000D01*
X142078000Y-114840000D02*
X146896000Y-114840000D01*
X149776000Y-114840000D02*
X154594000Y-114840000D01*
X142091000Y-114800000D02*
X146896000Y-114800000D01*
X149776000Y-114800000D02*
X154581000Y-114800000D01*
X142105000Y-114760000D02*
X146896000Y-114760000D01*
X149776000Y-114760000D02*
X154567000Y-114760000D01*
X142118000Y-114720000D02*
X146896000Y-114720000D01*
X149776000Y-114720000D02*
X154554000Y-114720000D01*
X142132000Y-114680000D02*
X146896000Y-114680000D01*
X149776000Y-114680000D02*
X154540000Y-114680000D01*
X142146000Y-114640000D02*
X146896000Y-114640000D01*
X149776000Y-114640000D02*
X154526000Y-114640000D01*
X142161000Y-114600000D02*
X146896000Y-114600000D01*
X149776000Y-114600000D02*
X154511000Y-114600000D01*
X142176000Y-114560000D02*
X146896000Y-114560000D01*
X149776000Y-114560000D02*
X154496000Y-114560000D01*
X142191000Y-114520000D02*
X146896000Y-114520000D01*
X149776000Y-114520000D02*
X154481000Y-114520000D01*
X142206000Y-114480000D02*
X146896000Y-114480000D01*
X149776000Y-114480000D02*
X154466000Y-114480000D01*
X142222000Y-114440000D02*
X146896000Y-114440000D01*
X149776000Y-114440000D02*
X154450000Y-114440000D01*
X142238000Y-114400000D02*
X146896000Y-114400000D01*
X149776000Y-114400000D02*
X154434000Y-114400000D01*
X142254000Y-114360000D02*
X146896000Y-114360000D01*
X149776000Y-114360000D02*
X154418000Y-114360000D01*
X142271000Y-114320000D02*
X146896000Y-114320000D01*
X149776000Y-114320000D02*
X154401000Y-114320000D01*
X142288000Y-114280000D02*
X146896000Y-114280000D01*
X149776000Y-114280000D02*
X154384000Y-114280000D01*
X142305000Y-114240000D02*
X146896000Y-114240000D01*
X149776000Y-114240000D02*
X154367000Y-114240000D01*
X142323000Y-114200000D02*
X146896000Y-114200000D01*
X149776000Y-114200000D02*
X154349000Y-114200000D01*
X142341000Y-114160000D02*
X146896000Y-114160000D01*
X149776000Y-114160000D02*
X154331000Y-114160000D01*
X142359000Y-114120000D02*
X146896000Y-114120000D01*
X149776000Y-114120000D02*
X154313000Y-114120000D01*
X142377000Y-114080000D02*
X146896000Y-114080000D01*
X149776000Y-114080000D02*
X154295000Y-114080000D01*
X142396000Y-114040000D02*
X146896000Y-114040000D01*
X149776000Y-114040000D02*
X154276000Y-114040000D01*
X142415000Y-114000000D02*
X146896000Y-114000000D01*
X149776000Y-114000000D02*
X154257000Y-114000000D01*
X142435000Y-113960000D02*
X146896000Y-113960000D01*
X149776000Y-113960000D02*
X154237000Y-113960000D01*
X142455000Y-113920000D02*
X146896000Y-113920000D01*
X149776000Y-113920000D02*
X154217000Y-113920000D01*
X142475000Y-113880000D02*
X146896000Y-113880000D01*
X149776000Y-113880000D02*
X154197000Y-113880000D01*
X142495000Y-113840000D02*
X146896000Y-113840000D01*
X149776000Y-113840000D02*
X154177000Y-113840000D01*
X142516000Y-113800000D02*
X146896000Y-113800000D01*
X149776000Y-113800000D02*
X154156000Y-113800000D01*
X142537000Y-113760000D02*
X146896000Y-113760000D01*
X149776000Y-113760000D02*
X154135000Y-113760000D01*
X142559000Y-113720000D02*
X146896000Y-113720000D01*
X149776000Y-113720000D02*
X154113000Y-113720000D01*
X142581000Y-113680000D02*
X146896000Y-113680000D01*
X149776000Y-113680000D02*
X154091000Y-113680000D01*
X142603000Y-113640000D02*
X146896000Y-113640000D01*
X149776000Y-113640000D02*
X154069000Y-113640000D01*
X142626000Y-113600000D02*
X146896000Y-113600000D01*
X149776000Y-113600000D02*
X154046000Y-113600000D01*
X142649000Y-113560000D02*
X146896000Y-113560000D01*
X149776000Y-113560000D02*
X154023000Y-113560000D01*
X142672000Y-113520000D02*
X146896000Y-113520000D01*
X149776000Y-113520000D02*
X154000000Y-113520000D01*
X142696000Y-113480000D02*
X146896000Y-113480000D01*
X149776000Y-113480000D02*
X153976000Y-113480000D01*
X142720000Y-113440000D02*
X146896000Y-113440000D01*
X149776000Y-113440000D02*
X153952000Y-113440000D01*
X142744000Y-113400000D02*
X146896000Y-113400000D01*
X149776000Y-113400000D02*
X153928000Y-113400000D01*
X142769000Y-113360000D02*
X146896000Y-113360000D01*
X149776000Y-113360000D02*
X153903000Y-113360000D01*
X142795000Y-113320000D02*
X146896000Y-113320000D01*
X149776000Y-113320000D02*
X153877000Y-113320000D01*
X142820000Y-113280000D02*
X146896000Y-113280000D01*
X149776000Y-113280000D02*
X153852000Y-113280000D01*
X142847000Y-113240000D02*
X146896000Y-113240000D01*
X149776000Y-113240000D02*
X153825000Y-113240000D01*
X142873000Y-113200000D02*
X146896000Y-113200000D01*
X149776000Y-113200000D02*
X153799000Y-113200000D01*
X142900000Y-113160000D02*
X146896000Y-113160000D01*
X149776000Y-113160000D02*
X153772000Y-113160000D01*
X142927000Y-113120000D02*
X146896000Y-113120000D01*
X149776000Y-113120000D02*
X153745000Y-113120000D01*
X142955000Y-113080000D02*
X146896000Y-113080000D01*
X149776000Y-113080000D02*
X153717000Y-113080000D01*
X142984000Y-113040000D02*
X146896000Y-113040000D01*
X149776000Y-113040000D02*
X153688000Y-113040000D01*
X143012000Y-113000000D02*
X146896000Y-113000000D01*
X149776000Y-113000000D02*
X153660000Y-113000000D01*
X143041000Y-112960000D02*
X146896000Y-112960000D01*
X149776000Y-112960000D02*
X153631000Y-112960000D01*
X143071000Y-112920000D02*
X153601000Y-112920000D01*
X143101000Y-112880000D02*
X153571000Y-112880000D01*
X143132000Y-112840000D02*
X153540000Y-112840000D01*
X143163000Y-112800000D02*
X153509000Y-112800000D01*
X143194000Y-112760000D02*
X153478000Y-112760000D01*
X143226000Y-112720000D02*
X153446000Y-112720000D01*
X143259000Y-112680000D02*
X153413000Y-112680000D01*
X143292000Y-112640000D02*
X153380000Y-112640000D01*
X143326000Y-112600000D02*
X153346000Y-112600000D01*
X143360000Y-112560000D02*
X153312000Y-112560000D01*
X143395000Y-112520000D02*
X153277000Y-112520000D01*
X143430000Y-112480000D02*
X153242000Y-112480000D01*
X143466000Y-112440000D02*
X153206000Y-112440000D01*
X143502000Y-112400000D02*
X153170000Y-112400000D01*
X143539000Y-112360000D02*
X153133000Y-112360000D01*
X143577000Y-112320000D02*
X153095000Y-112320000D01*
X143615000Y-112280000D02*
X153057000Y-112280000D01*
X143654000Y-112240000D02*
X153018000Y-112240000D01*
X143694000Y-112200000D02*
X152978000Y-112200000D01*
X143734000Y-112160000D02*
X152938000Y-112160000D01*
X143775000Y-112120000D02*
X152897000Y-112120000D01*
X143817000Y-112080000D02*
X152855000Y-112080000D01*
X143859000Y-112040000D02*
X152813000Y-112040000D01*
X143903000Y-112000000D02*
X152769000Y-112000000D01*
X143947000Y-111960000D02*
X152725000Y-111960000D01*
X143992000Y-111920000D02*
X152680000Y-111920000D01*
X144037000Y-111880000D02*
X152635000Y-111880000D01*
X144084000Y-111840000D02*
X152588000Y-111840000D01*
X144131000Y-111800000D02*
X152541000Y-111800000D01*
X144180000Y-111760000D02*
X152492000Y-111760000D01*
X144229000Y-111720000D02*
X152443000Y-111720000D01*
X144279000Y-111680000D02*
X152393000Y-111680000D01*
X144330000Y-111640000D02*
X152342000Y-111640000D01*
X144383000Y-111600000D02*
X152289000Y-111600000D01*
X144436000Y-111560000D02*
X152236000Y-111560000D01*
X144491000Y-111520000D02*
X152181000Y-111520000D01*
X144547000Y-111480000D02*
X152125000Y-111480000D01*
X144604000Y-111440000D02*
X152068000Y-111440000D01*
X144662000Y-111400000D02*
X152010000Y-111400000D01*
X144722000Y-111360000D02*
X151950000Y-111360000D01*
X144783000Y-111320000D02*
X151889000Y-111320000D01*
X144846000Y-111280000D02*
X151826000Y-111280000D01*
X144910000Y-111240000D02*
X151762000Y-111240000D01*
X144976000Y-111200000D02*
X151696000Y-111200000D01*
X145043000Y-111160000D02*
X151629000Y-111160000D01*
X145113000Y-111120000D02*
X151559000Y-111120000D01*
X145185000Y-111080000D02*
X151487000Y-111080000D01*
X145259000Y-111040000D02*
X151413000Y-111040000D01*
X145335000Y-111000000D02*
X151337000Y-111000000D01*
X145413000Y-110960000D02*
X151259000Y-110960000D01*
X145495000Y-110920000D02*
X151177000Y-110920000D01*
X145579000Y-110880000D02*
X151093000Y-110880000D01*
X145666000Y-110840000D02*
X151006000Y-110840000D01*
X145757000Y-110800000D02*
X150915000Y-110800000D01*
X145852000Y-110760000D02*
X150820000Y-110760000D01*
X145951000Y-110720000D02*
X150721000Y-110720000D01*
X146056000Y-110680000D02*
X150616000Y-110680000D01*
X146165000Y-110640000D02*
X150507000Y-110640000D01*
X146282000Y-110600000D02*
X150390000Y-110600000D01*
X146406000Y-110560000D02*
X150266000Y-110560000D01*
X146539000Y-110520000D02*
X150133000Y-110520000D01*
X146684000Y-110480000D02*
X149988000Y-110480000D01*
X146843000Y-110440000D02*
X149829000Y-110440000D01*
X147022000Y-110400000D02*
X149650000Y-110400000D01*
X147230000Y-110360000D02*
X149442000Y-110360000D01*
X147487000Y-110320000D02*
X149185000Y-110320000D01*
X147862000Y-110280000D02*
X148810000Y-110280000D01*
X154956000Y-116880000D02*
G75*
G02*
X141716000Y-116880000I-6620000J0D01*
G01*
X141716000Y-116880000D02*
G75*
G02*
X154956000Y-116880000I6620000J0D01*
G01*
%TO.C,C1*%
X121507000Y-123964569D02*
X121507000Y-122664569D01*
X120857000Y-123314569D02*
X122157000Y-123314569D01*
X118642000Y-116880000D02*
X131802000Y-116880000D01*
X118642000Y-116840000D02*
X131802000Y-116840000D01*
X118642000Y-116800000D02*
X131802000Y-116800000D01*
X118643000Y-116760000D02*
X131801000Y-116760000D01*
X118644000Y-116720000D02*
X131800000Y-116720000D01*
X118645000Y-116680000D02*
X131799000Y-116680000D01*
X118646000Y-116640000D02*
X131798000Y-116640000D01*
X118648000Y-116600000D02*
X131796000Y-116600000D01*
X118650000Y-116560000D02*
X131794000Y-116560000D01*
X118652000Y-116520000D02*
X131792000Y-116520000D01*
X118654000Y-116480000D02*
X131790000Y-116480000D01*
X118657000Y-116440000D02*
X131787000Y-116440000D01*
X118659000Y-116400000D02*
X131785000Y-116400000D01*
X118662000Y-116360000D02*
X131782000Y-116360000D01*
X118666000Y-116320000D02*
X131778000Y-116320000D01*
X118669000Y-116280000D02*
X131775000Y-116280000D01*
X118673000Y-116240000D02*
X131771000Y-116240000D01*
X118677000Y-116200000D02*
X131767000Y-116200000D01*
X118681000Y-116160000D02*
X131763000Y-116160000D01*
X118686000Y-116120000D02*
X131758000Y-116120000D01*
X118691000Y-116080000D02*
X131753000Y-116080000D01*
X118696000Y-116040000D02*
X131748000Y-116040000D01*
X118701000Y-116000000D02*
X131743000Y-116000000D01*
X118706000Y-115960000D02*
X131738000Y-115960000D01*
X118712000Y-115920000D02*
X131732000Y-115920000D01*
X118718000Y-115880000D02*
X131726000Y-115880000D01*
X118724000Y-115840000D02*
X131720000Y-115840000D01*
X118731000Y-115800000D02*
X123782000Y-115800000D01*
X126662000Y-115800000D02*
X131713000Y-115800000D01*
X118737000Y-115760000D02*
X123782000Y-115760000D01*
X126662000Y-115760000D02*
X131707000Y-115760000D01*
X118744000Y-115720000D02*
X123782000Y-115720000D01*
X126662000Y-115720000D02*
X131700000Y-115720000D01*
X118752000Y-115680000D02*
X123782000Y-115680000D01*
X126662000Y-115680000D02*
X131692000Y-115680000D01*
X118759000Y-115640000D02*
X123782000Y-115640000D01*
X126662000Y-115640000D02*
X131685000Y-115640000D01*
X118767000Y-115600000D02*
X123782000Y-115600000D01*
X126662000Y-115600000D02*
X131677000Y-115600000D01*
X118775000Y-115560000D02*
X123782000Y-115560000D01*
X126662000Y-115560000D02*
X131669000Y-115560000D01*
X118783000Y-115520000D02*
X123782000Y-115520000D01*
X126662000Y-115520000D02*
X131661000Y-115520000D01*
X118792000Y-115480000D02*
X123782000Y-115480000D01*
X126662000Y-115480000D02*
X131652000Y-115480000D01*
X118801000Y-115440000D02*
X123782000Y-115440000D01*
X126662000Y-115440000D02*
X131643000Y-115440000D01*
X118810000Y-115400000D02*
X123782000Y-115400000D01*
X126662000Y-115400000D02*
X131634000Y-115400000D01*
X118819000Y-115360000D02*
X123782000Y-115360000D01*
X126662000Y-115360000D02*
X131625000Y-115360000D01*
X118828000Y-115320000D02*
X123782000Y-115320000D01*
X126662000Y-115320000D02*
X131616000Y-115320000D01*
X118838000Y-115280000D02*
X123782000Y-115280000D01*
X126662000Y-115280000D02*
X131606000Y-115280000D01*
X118848000Y-115240000D02*
X123782000Y-115240000D01*
X126662000Y-115240000D02*
X131596000Y-115240000D01*
X118859000Y-115200000D02*
X123782000Y-115200000D01*
X126662000Y-115200000D02*
X131585000Y-115200000D01*
X118869000Y-115160000D02*
X123782000Y-115160000D01*
X126662000Y-115160000D02*
X131575000Y-115160000D01*
X118880000Y-115120000D02*
X123782000Y-115120000D01*
X126662000Y-115120000D02*
X131564000Y-115120000D01*
X118891000Y-115080000D02*
X123782000Y-115080000D01*
X126662000Y-115080000D02*
X131553000Y-115080000D01*
X118903000Y-115040000D02*
X123782000Y-115040000D01*
X126662000Y-115040000D02*
X131541000Y-115040000D01*
X118915000Y-115000000D02*
X123782000Y-115000000D01*
X126662000Y-115000000D02*
X131529000Y-115000000D01*
X118927000Y-114960000D02*
X123782000Y-114960000D01*
X126662000Y-114960000D02*
X131517000Y-114960000D01*
X118939000Y-114920000D02*
X123782000Y-114920000D01*
X126662000Y-114920000D02*
X131505000Y-114920000D01*
X118951000Y-114880000D02*
X123782000Y-114880000D01*
X126662000Y-114880000D02*
X131493000Y-114880000D01*
X118964000Y-114840000D02*
X123782000Y-114840000D01*
X126662000Y-114840000D02*
X131480000Y-114840000D01*
X118977000Y-114800000D02*
X123782000Y-114800000D01*
X126662000Y-114800000D02*
X131467000Y-114800000D01*
X118991000Y-114760000D02*
X123782000Y-114760000D01*
X126662000Y-114760000D02*
X131453000Y-114760000D01*
X119004000Y-114720000D02*
X123782000Y-114720000D01*
X126662000Y-114720000D02*
X131440000Y-114720000D01*
X119018000Y-114680000D02*
X123782000Y-114680000D01*
X126662000Y-114680000D02*
X131426000Y-114680000D01*
X119032000Y-114640000D02*
X123782000Y-114640000D01*
X126662000Y-114640000D02*
X131412000Y-114640000D01*
X119047000Y-114600000D02*
X123782000Y-114600000D01*
X126662000Y-114600000D02*
X131397000Y-114600000D01*
X119062000Y-114560000D02*
X123782000Y-114560000D01*
X126662000Y-114560000D02*
X131382000Y-114560000D01*
X119077000Y-114520000D02*
X123782000Y-114520000D01*
X126662000Y-114520000D02*
X131367000Y-114520000D01*
X119092000Y-114480000D02*
X123782000Y-114480000D01*
X126662000Y-114480000D02*
X131352000Y-114480000D01*
X119108000Y-114440000D02*
X123782000Y-114440000D01*
X126662000Y-114440000D02*
X131336000Y-114440000D01*
X119124000Y-114400000D02*
X123782000Y-114400000D01*
X126662000Y-114400000D02*
X131320000Y-114400000D01*
X119140000Y-114360000D02*
X123782000Y-114360000D01*
X126662000Y-114360000D02*
X131304000Y-114360000D01*
X119157000Y-114320000D02*
X123782000Y-114320000D01*
X126662000Y-114320000D02*
X131287000Y-114320000D01*
X119174000Y-114280000D02*
X123782000Y-114280000D01*
X126662000Y-114280000D02*
X131270000Y-114280000D01*
X119191000Y-114240000D02*
X123782000Y-114240000D01*
X126662000Y-114240000D02*
X131253000Y-114240000D01*
X119209000Y-114200000D02*
X123782000Y-114200000D01*
X126662000Y-114200000D02*
X131235000Y-114200000D01*
X119227000Y-114160000D02*
X123782000Y-114160000D01*
X126662000Y-114160000D02*
X131217000Y-114160000D01*
X119245000Y-114120000D02*
X123782000Y-114120000D01*
X126662000Y-114120000D02*
X131199000Y-114120000D01*
X119263000Y-114080000D02*
X123782000Y-114080000D01*
X126662000Y-114080000D02*
X131181000Y-114080000D01*
X119282000Y-114040000D02*
X123782000Y-114040000D01*
X126662000Y-114040000D02*
X131162000Y-114040000D01*
X119301000Y-114000000D02*
X123782000Y-114000000D01*
X126662000Y-114000000D02*
X131143000Y-114000000D01*
X119321000Y-113960000D02*
X123782000Y-113960000D01*
X126662000Y-113960000D02*
X131123000Y-113960000D01*
X119341000Y-113920000D02*
X123782000Y-113920000D01*
X126662000Y-113920000D02*
X131103000Y-113920000D01*
X119361000Y-113880000D02*
X123782000Y-113880000D01*
X126662000Y-113880000D02*
X131083000Y-113880000D01*
X119381000Y-113840000D02*
X123782000Y-113840000D01*
X126662000Y-113840000D02*
X131063000Y-113840000D01*
X119402000Y-113800000D02*
X123782000Y-113800000D01*
X126662000Y-113800000D02*
X131042000Y-113800000D01*
X119423000Y-113760000D02*
X123782000Y-113760000D01*
X126662000Y-113760000D02*
X131021000Y-113760000D01*
X119445000Y-113720000D02*
X123782000Y-113720000D01*
X126662000Y-113720000D02*
X130999000Y-113720000D01*
X119467000Y-113680000D02*
X123782000Y-113680000D01*
X126662000Y-113680000D02*
X130977000Y-113680000D01*
X119489000Y-113640000D02*
X123782000Y-113640000D01*
X126662000Y-113640000D02*
X130955000Y-113640000D01*
X119512000Y-113600000D02*
X123782000Y-113600000D01*
X126662000Y-113600000D02*
X130932000Y-113600000D01*
X119535000Y-113560000D02*
X123782000Y-113560000D01*
X126662000Y-113560000D02*
X130909000Y-113560000D01*
X119558000Y-113520000D02*
X123782000Y-113520000D01*
X126662000Y-113520000D02*
X130886000Y-113520000D01*
X119582000Y-113480000D02*
X123782000Y-113480000D01*
X126662000Y-113480000D02*
X130862000Y-113480000D01*
X119606000Y-113440000D02*
X123782000Y-113440000D01*
X126662000Y-113440000D02*
X130838000Y-113440000D01*
X119630000Y-113400000D02*
X123782000Y-113400000D01*
X126662000Y-113400000D02*
X130814000Y-113400000D01*
X119655000Y-113360000D02*
X123782000Y-113360000D01*
X126662000Y-113360000D02*
X130789000Y-113360000D01*
X119681000Y-113320000D02*
X123782000Y-113320000D01*
X126662000Y-113320000D02*
X130763000Y-113320000D01*
X119706000Y-113280000D02*
X123782000Y-113280000D01*
X126662000Y-113280000D02*
X130738000Y-113280000D01*
X119733000Y-113240000D02*
X123782000Y-113240000D01*
X126662000Y-113240000D02*
X130711000Y-113240000D01*
X119759000Y-113200000D02*
X123782000Y-113200000D01*
X126662000Y-113200000D02*
X130685000Y-113200000D01*
X119786000Y-113160000D02*
X123782000Y-113160000D01*
X126662000Y-113160000D02*
X130658000Y-113160000D01*
X119813000Y-113120000D02*
X123782000Y-113120000D01*
X126662000Y-113120000D02*
X130631000Y-113120000D01*
X119841000Y-113080000D02*
X123782000Y-113080000D01*
X126662000Y-113080000D02*
X130603000Y-113080000D01*
X119870000Y-113040000D02*
X123782000Y-113040000D01*
X126662000Y-113040000D02*
X130574000Y-113040000D01*
X119898000Y-113000000D02*
X123782000Y-113000000D01*
X126662000Y-113000000D02*
X130546000Y-113000000D01*
X119927000Y-112960000D02*
X123782000Y-112960000D01*
X126662000Y-112960000D02*
X130517000Y-112960000D01*
X119957000Y-112920000D02*
X130487000Y-112920000D01*
X119987000Y-112880000D02*
X130457000Y-112880000D01*
X120018000Y-112840000D02*
X130426000Y-112840000D01*
X120049000Y-112800000D02*
X130395000Y-112800000D01*
X120080000Y-112760000D02*
X130364000Y-112760000D01*
X120112000Y-112720000D02*
X130332000Y-112720000D01*
X120145000Y-112680000D02*
X130299000Y-112680000D01*
X120178000Y-112640000D02*
X130266000Y-112640000D01*
X120212000Y-112600000D02*
X130232000Y-112600000D01*
X120246000Y-112560000D02*
X130198000Y-112560000D01*
X120281000Y-112520000D02*
X130163000Y-112520000D01*
X120316000Y-112480000D02*
X130128000Y-112480000D01*
X120352000Y-112440000D02*
X130092000Y-112440000D01*
X120388000Y-112400000D02*
X130056000Y-112400000D01*
X120425000Y-112360000D02*
X130019000Y-112360000D01*
X120463000Y-112320000D02*
X129981000Y-112320000D01*
X120501000Y-112280000D02*
X129943000Y-112280000D01*
X120540000Y-112240000D02*
X129904000Y-112240000D01*
X120580000Y-112200000D02*
X129864000Y-112200000D01*
X120620000Y-112160000D02*
X129824000Y-112160000D01*
X120661000Y-112120000D02*
X129783000Y-112120000D01*
X120703000Y-112080000D02*
X129741000Y-112080000D01*
X120745000Y-112040000D02*
X129699000Y-112040000D01*
X120789000Y-112000000D02*
X129655000Y-112000000D01*
X120833000Y-111960000D02*
X129611000Y-111960000D01*
X120878000Y-111920000D02*
X129566000Y-111920000D01*
X120923000Y-111880000D02*
X129521000Y-111880000D01*
X120970000Y-111840000D02*
X129474000Y-111840000D01*
X121017000Y-111800000D02*
X129427000Y-111800000D01*
X121066000Y-111760000D02*
X129378000Y-111760000D01*
X121115000Y-111720000D02*
X129329000Y-111720000D01*
X121165000Y-111680000D02*
X129279000Y-111680000D01*
X121216000Y-111640000D02*
X129228000Y-111640000D01*
X121269000Y-111600000D02*
X129175000Y-111600000D01*
X121322000Y-111560000D02*
X129122000Y-111560000D01*
X121377000Y-111520000D02*
X129067000Y-111520000D01*
X121433000Y-111480000D02*
X129011000Y-111480000D01*
X121490000Y-111440000D02*
X128954000Y-111440000D01*
X121548000Y-111400000D02*
X128896000Y-111400000D01*
X121608000Y-111360000D02*
X128836000Y-111360000D01*
X121669000Y-111320000D02*
X128775000Y-111320000D01*
X121732000Y-111280000D02*
X128712000Y-111280000D01*
X121796000Y-111240000D02*
X128648000Y-111240000D01*
X121862000Y-111200000D02*
X128582000Y-111200000D01*
X121929000Y-111160000D02*
X128515000Y-111160000D01*
X121999000Y-111120000D02*
X128445000Y-111120000D01*
X122071000Y-111080000D02*
X128373000Y-111080000D01*
X122145000Y-111040000D02*
X128299000Y-111040000D01*
X122221000Y-111000000D02*
X128223000Y-111000000D01*
X122299000Y-110960000D02*
X128145000Y-110960000D01*
X122381000Y-110920000D02*
X128063000Y-110920000D01*
X122465000Y-110880000D02*
X127979000Y-110880000D01*
X122552000Y-110840000D02*
X127892000Y-110840000D01*
X122643000Y-110800000D02*
X127801000Y-110800000D01*
X122738000Y-110760000D02*
X127706000Y-110760000D01*
X122837000Y-110720000D02*
X127607000Y-110720000D01*
X122942000Y-110680000D02*
X127502000Y-110680000D01*
X123051000Y-110640000D02*
X127393000Y-110640000D01*
X123168000Y-110600000D02*
X127276000Y-110600000D01*
X123292000Y-110560000D02*
X127152000Y-110560000D01*
X123425000Y-110520000D02*
X127019000Y-110520000D01*
X123570000Y-110480000D02*
X126874000Y-110480000D01*
X123729000Y-110440000D02*
X126715000Y-110440000D01*
X123908000Y-110400000D02*
X126536000Y-110400000D01*
X124116000Y-110360000D02*
X126328000Y-110360000D01*
X124373000Y-110320000D02*
X126071000Y-110320000D01*
X124748000Y-110280000D02*
X125696000Y-110280000D01*
X131842000Y-116880000D02*
G75*
G02*
X118602000Y-116880000I-6620000J0D01*
G01*
X118602000Y-116880000D02*
G75*
G02*
X131842000Y-116880000I6620000J0D01*
G01*
%TO.C,D2*%
X166500000Y-113460000D02*
X166500000Y-112810000D01*
X165380000Y-112210000D02*
X167620000Y-112210000D01*
X165380000Y-112090000D02*
X167620000Y-112090000D01*
X165380000Y-111970000D02*
X167620000Y-111970000D01*
X166500000Y-107920000D02*
X166500000Y-108570000D01*
X165380000Y-108570000D02*
X167620000Y-108570000D01*
X167620000Y-112810000D01*
X165380000Y-112810000D01*
X165380000Y-108570000D01*
%TO.C,D1*%
X166500000Y-123460000D02*
X166500000Y-122810000D01*
X165380000Y-122210000D02*
X167620000Y-122210000D01*
X165380000Y-122090000D02*
X167620000Y-122090000D01*
X165380000Y-121970000D02*
X167620000Y-121970000D01*
X166500000Y-117920000D02*
X166500000Y-118570000D01*
X165380000Y-118570000D02*
X167620000Y-118570000D01*
X167620000Y-122810000D01*
X165380000Y-122810000D01*
X165380000Y-118570000D01*
%TO.C,J1*%
X169250000Y-122450000D02*
X169250000Y-120450000D01*
X170500000Y-122450000D02*
X169250000Y-122450000D01*
X170600000Y-121000000D02*
X170600000Y-118000000D01*
X171950000Y-121000000D02*
X171950000Y-120250000D01*
X176250000Y-121000000D02*
X171950000Y-121000000D01*
X171600000Y-120750000D02*
X170600000Y-121000000D01*
X171600000Y-120250000D02*
X171600000Y-120750000D01*
X171950000Y-120250000D02*
X171600000Y-120250000D01*
X176250000Y-120250000D02*
X176250000Y-121000000D01*
X171600000Y-118750000D02*
X171950000Y-118750000D01*
X171950000Y-118750000D02*
X171950000Y-118000000D01*
X171600000Y-118250000D02*
X171600000Y-118750000D01*
X170600000Y-118000000D02*
X171600000Y-118250000D01*
X171950000Y-118000000D02*
X176250000Y-118000000D01*
X176250000Y-118000000D02*
X176250000Y-118750000D01*
X170600000Y-117500000D02*
X170600000Y-114500000D01*
X171950000Y-117500000D02*
X171950000Y-116750000D01*
X176250000Y-117500000D02*
X171950000Y-117500000D01*
X171600000Y-117250000D02*
X170600000Y-117500000D01*
X171600000Y-116750000D02*
X171600000Y-117250000D01*
X171950000Y-116750000D02*
X171600000Y-116750000D01*
X176250000Y-116750000D02*
X176250000Y-117500000D01*
X171600000Y-115250000D02*
X171950000Y-115250000D01*
X171950000Y-115250000D02*
X171950000Y-114500000D01*
X171600000Y-114750000D02*
X171600000Y-115250000D01*
X170600000Y-114500000D02*
X171600000Y-114750000D01*
X171950000Y-114500000D02*
X176250000Y-114500000D01*
X176250000Y-114500000D02*
X176250000Y-115250000D01*
X170600000Y-114000000D02*
X170600000Y-111000000D01*
X171950000Y-114000000D02*
X171950000Y-113250000D01*
X176250000Y-114000000D02*
X171950000Y-114000000D01*
X171600000Y-113750000D02*
X170600000Y-114000000D01*
X171600000Y-113250000D02*
X171600000Y-113750000D01*
X171950000Y-113250000D02*
X171600000Y-113250000D01*
X176250000Y-113250000D02*
X176250000Y-114000000D01*
X171600000Y-111750000D02*
X171950000Y-111750000D01*
X171950000Y-111750000D02*
X171950000Y-111000000D01*
X171600000Y-111250000D02*
X171600000Y-111750000D01*
X170600000Y-111000000D02*
X171600000Y-111250000D01*
X171950000Y-111000000D02*
X176250000Y-111000000D01*
X176250000Y-111000000D02*
X176250000Y-111750000D01*
X170600000Y-110500000D02*
X170600000Y-107500000D01*
X171950000Y-110500000D02*
X171950000Y-109750000D01*
X176250000Y-110500000D02*
X171950000Y-110500000D01*
X171600000Y-110250000D02*
X170600000Y-110500000D01*
X171600000Y-109750000D02*
X171600000Y-110250000D01*
X171950000Y-109750000D02*
X171600000Y-109750000D01*
X176250000Y-109750000D02*
X176250000Y-110500000D01*
X171600000Y-108250000D02*
X171950000Y-108250000D01*
X171950000Y-108250000D02*
X171950000Y-107500000D01*
X171600000Y-107750000D02*
X171600000Y-108250000D01*
X170600000Y-107500000D02*
X171600000Y-107750000D01*
X171950000Y-107500000D02*
X176250000Y-107500000D01*
X176250000Y-107500000D02*
X176250000Y-108250000D01*
X169640000Y-106440000D02*
X177110000Y-106440000D01*
X177110000Y-122060000D01*
X169640000Y-122060000D01*
X169640000Y-106440000D01*
X176250000Y-120250000D02*
G75*
G02*
X176249844Y-118750353I1700000J750000D01*
G01*
X176250000Y-116750000D02*
G75*
G02*
X176249844Y-115250353I1700000J750000D01*
G01*
X176250000Y-113250000D02*
G75*
G02*
X176249844Y-111750353I1700000J750000D01*
G01*
X176250000Y-109750000D02*
G75*
G02*
X176249844Y-108250353I1700000J750000D01*
G01*
%TO.C,R6*%
X152332000Y-76212000D02*
X152332000Y-72372000D01*
X150492000Y-76212000D02*
X150492000Y-72372000D01*
%TO.C,R2*%
X162880000Y-52080000D02*
X159040000Y-52080000D01*
X162880000Y-53920000D02*
X159040000Y-53920000D01*
%TO.C,J5*%
X159712000Y-72192000D02*
X172632000Y-72192000D01*
X162362000Y-74842000D02*
X159712000Y-74842000D01*
X159712000Y-74842000D02*
X159712000Y-72192000D01*
X172632000Y-77492000D02*
X172632000Y-72192000D01*
X162362000Y-77492000D02*
X162362000Y-74842000D01*
X162362000Y-77492000D02*
X172632000Y-77492000D01*
X161092000Y-77492000D02*
X159712000Y-77492000D01*
X159712000Y-77492000D02*
X159712000Y-76112000D01*
%TO.C,R10*%
X134298000Y-70878000D02*
X134298000Y-67038000D01*
X132458000Y-70878000D02*
X132458000Y-67038000D01*
%TO.C,R3*%
X142172000Y-59448000D02*
X142172000Y-55608000D01*
X140332000Y-59448000D02*
X140332000Y-55608000D01*
%TO.C,U1*%
X139160000Y-86500000D02*
G75*
G02*
X139160000Y-88500000I0J-1000000D01*
G01*
X174840000Y-90150000D02*
X174840000Y-84850000D01*
X174840000Y-84850000D02*
X139160000Y-84850000D01*
X139160000Y-90150000D02*
X174840000Y-90150000D01*
X139160000Y-88500000D02*
X139160000Y-90150000D01*
X139160000Y-84850000D02*
X139160000Y-86500000D01*
%TO.C,Q2*%
X160974000Y-61356000D02*
G75*
G02*
X156696316Y-62384445I-2450000J780000D01*
G01*
X156682259Y-58764125D02*
G75*
G02*
X160974000Y-59756000I1841741J-1811875D01*
G01*
X156674000Y-58776000D02*
X156674000Y-62376000D01*
%TO.C,R13*%
X132120000Y-98580000D02*
X135960000Y-98580000D01*
X132120000Y-100420000D02*
X135960000Y-100420000D01*
%TO.C,Q5*%
X168086000Y-61356000D02*
G75*
G02*
X163808316Y-62384445I-2450000J780000D01*
G01*
X163794259Y-58764125D02*
G75*
G02*
X168086000Y-59756000I1841741J-1811875D01*
G01*
X163786000Y-58776000D02*
X163786000Y-62376000D01*
%TO.C,J4*%
X123250000Y-102250000D02*
G75*
G02*
X123250156Y-103749647I-1700000J-750000D01*
G01*
X123250000Y-98750000D02*
G75*
G02*
X123250156Y-100249647I-1700000J-750000D01*
G01*
X123250000Y-95250000D02*
G75*
G02*
X123250156Y-96749647I-1700000J-750000D01*
G01*
X122390000Y-93440000D02*
X129860000Y-93440000D01*
X129860000Y-105560000D01*
X122390000Y-105560000D01*
X122390000Y-93440000D01*
X130250000Y-93050000D02*
X130250000Y-95050000D01*
X129000000Y-93050000D02*
X130250000Y-93050000D01*
X128900000Y-104500000D02*
X127900000Y-104250000D01*
X128900000Y-101500000D02*
X128900000Y-104500000D01*
X128900000Y-101000000D02*
X127900000Y-100750000D01*
X128900000Y-98000000D02*
X128900000Y-101000000D01*
X128900000Y-97500000D02*
X127900000Y-97250000D01*
X128900000Y-94500000D02*
X128900000Y-97500000D01*
X127900000Y-104250000D02*
X127900000Y-103750000D01*
X127900000Y-103750000D02*
X127550000Y-103750000D01*
X127900000Y-102250000D02*
X127900000Y-101750000D01*
X127900000Y-101750000D02*
X128900000Y-101500000D01*
X127900000Y-100750000D02*
X127900000Y-100250000D01*
X127900000Y-100250000D02*
X127550000Y-100250000D01*
X127900000Y-98750000D02*
X127900000Y-98250000D01*
X127900000Y-98250000D02*
X128900000Y-98000000D01*
X127900000Y-97250000D02*
X127900000Y-96750000D01*
X127900000Y-96750000D02*
X127550000Y-96750000D01*
X127900000Y-95250000D02*
X127900000Y-94750000D01*
X127900000Y-94750000D02*
X128900000Y-94500000D01*
X127550000Y-104500000D02*
X123250000Y-104500000D01*
X127550000Y-103750000D02*
X127550000Y-104500000D01*
X127550000Y-102250000D02*
X127900000Y-102250000D01*
X127550000Y-101500000D02*
X127550000Y-102250000D01*
X127550000Y-101000000D02*
X123250000Y-101000000D01*
X127550000Y-100250000D02*
X127550000Y-101000000D01*
X127550000Y-98750000D02*
X127900000Y-98750000D01*
X127550000Y-98000000D02*
X127550000Y-98750000D01*
X127550000Y-97500000D02*
X123250000Y-97500000D01*
X127550000Y-96750000D02*
X127550000Y-97500000D01*
X127550000Y-95250000D02*
X127900000Y-95250000D01*
X127550000Y-94500000D02*
X127550000Y-95250000D01*
X123250000Y-104500000D02*
X123250000Y-103750000D01*
X123250000Y-102250000D02*
X123250000Y-101500000D01*
X123250000Y-101500000D02*
X127550000Y-101500000D01*
X123250000Y-101000000D02*
X123250000Y-100250000D01*
X123250000Y-98750000D02*
X123250000Y-98000000D01*
X123250000Y-98000000D02*
X127550000Y-98000000D01*
X123250000Y-97500000D02*
X123250000Y-96750000D01*
X123250000Y-95250000D02*
X123250000Y-94500000D01*
X123250000Y-94500000D02*
X127550000Y-94500000D01*
%TO.C,R4*%
X147252000Y-76212000D02*
X147252000Y-72372000D01*
X145412000Y-76212000D02*
X145412000Y-72372000D01*
%TO.C,R11*%
X163254000Y-65036000D02*
X163254000Y-61196000D01*
X161414000Y-65036000D02*
X161414000Y-61196000D01*
%TO.C,R9*%
X144712000Y-76212000D02*
X144712000Y-72372000D01*
X142872000Y-76212000D02*
X142872000Y-72372000D01*
%TO.C,R5*%
X154872000Y-76212000D02*
X154872000Y-72372000D01*
X153032000Y-76212000D02*
X153032000Y-72372000D01*
%TO.C,R8*%
X159380000Y-54080000D02*
X155540000Y-54080000D01*
X159380000Y-55920000D02*
X155540000Y-55920000D01*
%TO.C,R7*%
X149792000Y-76212000D02*
X149792000Y-72372000D01*
X147952000Y-76212000D02*
X147952000Y-72372000D01*
%TO.C,R12*%
X174380000Y-59580000D02*
X170540000Y-59580000D01*
X174380000Y-61420000D02*
X170540000Y-61420000D01*
%TO.C,R15*%
X170080000Y-95120000D02*
X170080000Y-98960000D01*
X171920000Y-95120000D02*
X171920000Y-98960000D01*
%TO.C,R16*%
X156440000Y-117390000D02*
X156440000Y-121230000D01*
X158280000Y-117390000D02*
X158280000Y-121230000D01*
%TO.C,R17*%
X156440000Y-108890000D02*
X156440000Y-112730000D01*
X158280000Y-108890000D02*
X158280000Y-112730000D01*
%TO.C,R14*%
X173080000Y-95120000D02*
X173080000Y-98960000D01*
X174920000Y-95120000D02*
X174920000Y-98960000D01*
%TO.C,R1*%
X141420000Y-97880000D02*
X141420000Y-94040000D01*
X139580000Y-97880000D02*
X139580000Y-94040000D01*
%TO.C,C3*%
X142648000Y-135676000D02*
X142648000Y-130436000D01*
X142985000Y-135676000D02*
X142648000Y-135676000D01*
X145388000Y-135676000D02*
X145051000Y-135676000D01*
X142648000Y-130436000D02*
X142985000Y-130436000D01*
X145051000Y-130436000D02*
X145388000Y-130436000D01*
X145388000Y-130436000D02*
X145388000Y-135676000D01*
%TO.C,C5*%
X161880000Y-100630000D02*
X167120000Y-100630000D01*
X161880000Y-100967000D02*
X161880000Y-100630000D01*
X161880000Y-103370000D02*
X161880000Y-103033000D01*
X167120000Y-100630000D02*
X167120000Y-100967000D01*
X167120000Y-103033000D02*
X167120000Y-103370000D01*
X167120000Y-103370000D02*
X161880000Y-103370000D01*
%TO.C,C4*%
X157120000Y-103370000D02*
X151880000Y-103370000D01*
X157120000Y-103033000D02*
X157120000Y-103370000D01*
X157120000Y-100630000D02*
X157120000Y-100967000D01*
X151880000Y-103370000D02*
X151880000Y-103033000D01*
X151880000Y-100967000D02*
X151880000Y-100630000D01*
X151880000Y-100630000D02*
X157120000Y-100630000D01*
%TO.C,Y1*%
X156368700Y-99637800D02*
G75*
G02*
X156368700Y-94767800I0J2435000D01*
G01*
X162618700Y-94767800D02*
G75*
G02*
X162618700Y-99637800I0J-2435000D01*
G01*
X156368700Y-94767800D02*
X162618700Y-94767800D01*
X162618700Y-99637800D02*
X156368700Y-99637800D01*
%TD*%
M02*
