M48
; DRILL file KiCad 10.0.0 date 2026-04-08T10:49:00
; FORMAT={-:-/ absolute / metric / decimal}
; #@! TF.CreationDate,2026-04-08T10:49:00+02:00
; #@! TF.GenerationSoftware,Kicad,Pcbnew,10.0.0
; #@! TF.FileFunction,MixedPlating,1,2
FMAT,2
METRIC
; #@! TA.AperFunction,Plated,PTH,ComponentDrill
T1C0.700
; #@! TA.AperFunction,Plated,PTH,ComponentDrill
T2C0.750
; #@! TA.AperFunction,Plated,PTH,ComponentDrill
T3C0.800
; #@! TA.AperFunction,Plated,PTH,ComponentDrill
T4C1.000
; #@! TA.AperFunction,Plated,PTH,ComponentDrill
T5C1.100
; #@! TA.AperFunction,Plated,PTH,ComponentDrill
T6C1.200
; #@! TA.AperFunction,Plated,PTH,ComponentDrill
T7C2.200
; #@! TA.AperFunction,Plated,PTH,ComponentDrill
T8C4.300
; #@! TA.AperFunction,NonPlated,NPTH,ComponentDrill
T9C3.500
%
G90
G05
T1
X131.5Y-99.5
X133.378Y-66.418
X133.378Y-71.498
X136.58Y-99.5
X140.5Y-93.42
X140.5Y-98.5
X141.252Y-54.988
X141.252Y-60.068
X143.792Y-71.752
X143.792Y-76.832
X146.332Y-71.752
X146.332Y-76.832
X148.872Y-71.752
X148.872Y-76.832
X151.412Y-71.752
X151.412Y-76.832
X153.952Y-71.752
X153.952Y-76.832
X154.92Y-55.0
X157.36Y-108.27
X157.36Y-113.35
X157.36Y-116.77
X157.36Y-121.85
X158.42Y-53.0
X160.0Y-55.0
X162.334Y-60.576
X162.334Y-65.656
X163.5Y-53.0
X169.92Y-60.5
X171.0Y-94.5
X171.0Y-99.58
X174.0Y-94.5
X174.0Y-99.58
X175.0Y-60.5
T2
X136.426Y-66.418
X137.696Y-65.148
X137.696Y-67.688
X158.524Y-59.306
X158.524Y-61.846
X159.794Y-60.576
X160.59Y-111.0
X160.59Y-119.5
X161.86Y-109.73
X161.86Y-112.27
X161.86Y-118.23
X161.86Y-120.77
X165.636Y-59.306
X165.636Y-61.846
X166.906Y-60.576
T3
X140.49Y-83.69
X140.49Y-91.31
X143.03Y-83.69
X143.03Y-91.31
X144.018Y-130.556
X144.018Y-135.556
X145.57Y-83.69
X145.57Y-91.31
X148.11Y-83.69
X148.11Y-91.31
X150.65Y-83.69
X150.65Y-91.31
X152.0Y-102.0
X153.19Y-83.69
X153.19Y-91.31
X155.592Y-87.246
X155.73Y-83.69
X155.73Y-91.31
X157.0Y-102.0
X157.054Y-97.203
X158.27Y-83.69
X158.27Y-91.31
X160.592Y-87.246
X160.81Y-83.69
X160.81Y-91.31
X161.934Y-97.203
X162.0Y-102.0
X163.35Y-83.69
X163.35Y-91.31
X165.89Y-83.69
X165.89Y-91.31
X166.5Y-106.88
X166.5Y-114.5
X166.5Y-116.88
X166.5Y-124.5
X167.0Y-102.0
X168.43Y-83.69
X168.43Y-91.31
X170.97Y-83.69
X170.97Y-91.31
X173.51Y-83.69
X173.51Y-91.31
T4
X127.092Y-74.612
X127.092Y-89.112
X129.592Y-89.112
X132.092Y-74.612
X132.092Y-89.112
X141.176Y-52.585
X141.176Y-67.825
X143.716Y-52.585
X143.716Y-67.825
X146.256Y-52.585
X146.256Y-67.825
X148.796Y-52.585
X148.796Y-67.825
X151.336Y-52.585
X151.336Y-67.825
X153.876Y-52.585
X153.876Y-67.825
X161.092Y-73.572
X161.092Y-76.112
X163.632Y-73.572
X163.632Y-76.112
X166.172Y-73.572
X166.172Y-76.112
X168.712Y-73.572
X168.712Y-76.112
X171.252Y-73.572
X171.252Y-76.112
T5
X134.012Y-127.112
X136.552Y-127.112
X139.092Y-127.112
T6
X125.222Y-114.38
X125.222Y-119.38
X125.5Y-96.0
X125.5Y-99.5
X125.5Y-103.0
X135.5Y-133.0
X139.0Y-133.0
X148.336Y-114.38
X148.336Y-119.38
X174.0Y-109.0
X174.0Y-112.5
X174.0Y-116.0
X174.0Y-119.5
T7
X123.992Y-81.612
X135.192Y-81.612
T8
X124.5Y-133.0
X125.5Y-43.5
X170.0Y-43.5
X170.5Y-133.0
T9
X136.552Y-110.452
M30
