%TF.GenerationSoftware,KiCad,Pcbnew,10.0.0*%
%TF.CreationDate,2026-04-13T18:26:29+02:00*%
%TF.ProjectId,DymBOX_AVR,44796d42-4f58-45f4-9156-522e6b696361,rev?*%
%TF.SameCoordinates,PX3013918PY981a6d8*%
%TF.FileFunction,Legend,Top*%
%TF.FilePolarity,Positive*%
%FSLAX46Y46*%
G04 Gerber Fmt 4.6, Leading zero omitted, Abs format (unit mm)*
G04 Created by KiCad (PCBNEW 10.0.0) date 2026-04-13 18:26:29*
%MOMM*%
%LPD*%
G01*
G04 APERTURE LIST*
%ADD10C,0.150000*%
%ADD11C,0.250000*%
%ADD12C,0.120000*%
%ADD13C,0.100000*%
G04 APERTURE END LIST*
D10*
X69760875Y62455589D02*
X69760875Y61884161D01*
X69760875Y62169875D02*
X68760875Y62169875D01*
X68760875Y62169875D02*
X68903732Y62074637D01*
X68903732Y62074637D02*
X68998970Y61979399D01*
X68998970Y61979399D02*
X69046589Y61884161D01*
X68856113Y62836542D02*
X68808494Y62884161D01*
X68808494Y62884161D02*
X68760875Y62979399D01*
X68760875Y62979399D02*
X68760875Y63217494D01*
X68760875Y63217494D02*
X68808494Y63312732D01*
X68808494Y63312732D02*
X68856113Y63360351D01*
X68856113Y63360351D02*
X68951351Y63407970D01*
X68951351Y63407970D02*
X69046589Y63407970D01*
X69046589Y63407970D02*
X69189446Y63360351D01*
X69189446Y63360351D02*
X69760875Y62788923D01*
X69760875Y62788923D02*
X69760875Y63407970D01*
X68760875Y63693685D02*
X69760875Y64027018D01*
X69760875Y64027018D02*
X68760875Y64360351D01*
X69237065Y65788923D02*
X69237065Y65455590D01*
X69760875Y65455590D02*
X68760875Y65455590D01*
X68760875Y65455590D02*
X68760875Y65931780D01*
X69760875Y66741304D02*
X69237065Y66741304D01*
X69237065Y66741304D02*
X69141827Y66693685D01*
X69141827Y66693685D02*
X69094208Y66598447D01*
X69094208Y66598447D02*
X69094208Y66407971D01*
X69094208Y66407971D02*
X69141827Y66312733D01*
X69713256Y66741304D02*
X69760875Y66646066D01*
X69760875Y66646066D02*
X69760875Y66407971D01*
X69760875Y66407971D02*
X69713256Y66312733D01*
X69713256Y66312733D02*
X69618017Y66265114D01*
X69618017Y66265114D02*
X69522779Y66265114D01*
X69522779Y66265114D02*
X69427541Y66312733D01*
X69427541Y66312733D02*
X69379922Y66407971D01*
X69379922Y66407971D02*
X69379922Y66646066D01*
X69379922Y66646066D02*
X69332303Y66741304D01*
X69094208Y67217495D02*
X69760875Y67217495D01*
X69189446Y67217495D02*
X69141827Y67265114D01*
X69141827Y67265114D02*
X69094208Y67360352D01*
X69094208Y67360352D02*
X69094208Y67503209D01*
X69094208Y67503209D02*
X69141827Y67598447D01*
X69141827Y67598447D02*
X69237065Y67646066D01*
X69237065Y67646066D02*
X69760875Y67646066D01*
X71370819Y62455589D02*
X71370819Y61884161D01*
X71370819Y62169875D02*
X70370819Y62169875D01*
X70370819Y62169875D02*
X70513676Y62074637D01*
X70513676Y62074637D02*
X70608914Y61979399D01*
X70608914Y61979399D02*
X70656533Y61884161D01*
X70466057Y62836542D02*
X70418438Y62884161D01*
X70418438Y62884161D02*
X70370819Y62979399D01*
X70370819Y62979399D02*
X70370819Y63217494D01*
X70370819Y63217494D02*
X70418438Y63312732D01*
X70418438Y63312732D02*
X70466057Y63360351D01*
X70466057Y63360351D02*
X70561295Y63407970D01*
X70561295Y63407970D02*
X70656533Y63407970D01*
X70656533Y63407970D02*
X70799390Y63360351D01*
X70799390Y63360351D02*
X71370819Y62788923D01*
X71370819Y62788923D02*
X71370819Y63407970D01*
X70370819Y63693685D02*
X71370819Y64027018D01*
X71370819Y64027018D02*
X70370819Y64360351D01*
X70989866Y64693685D02*
X70989866Y65455589D01*
X71370819Y65074637D02*
X70608914Y65074637D01*
X70418438Y67217494D02*
X70370819Y67122256D01*
X70370819Y67122256D02*
X70370819Y66979399D01*
X70370819Y66979399D02*
X70418438Y66836542D01*
X70418438Y66836542D02*
X70513676Y66741304D01*
X70513676Y66741304D02*
X70608914Y66693685D01*
X70608914Y66693685D02*
X70799390Y66646066D01*
X70799390Y66646066D02*
X70942247Y66646066D01*
X70942247Y66646066D02*
X71132723Y66693685D01*
X71132723Y66693685D02*
X71227961Y66741304D01*
X71227961Y66741304D02*
X71323200Y66836542D01*
X71323200Y66836542D02*
X71370819Y66979399D01*
X71370819Y66979399D02*
X71370819Y67074637D01*
X71370819Y67074637D02*
X71323200Y67217494D01*
X71323200Y67217494D02*
X71275580Y67265113D01*
X71275580Y67265113D02*
X70942247Y67265113D01*
X70942247Y67265113D02*
X70942247Y67074637D01*
X71370819Y67693685D02*
X70370819Y67693685D01*
X70370819Y67693685D02*
X71370819Y68265113D01*
X71370819Y68265113D02*
X70370819Y68265113D01*
X71370819Y68741304D02*
X70370819Y68741304D01*
X70370819Y68741304D02*
X70370819Y68979399D01*
X70370819Y68979399D02*
X70418438Y69122256D01*
X70418438Y69122256D02*
X70513676Y69217494D01*
X70513676Y69217494D02*
X70608914Y69265113D01*
X70608914Y69265113D02*
X70799390Y69312732D01*
X70799390Y69312732D02*
X70942247Y69312732D01*
X70942247Y69312732D02*
X71132723Y69265113D01*
X71132723Y69265113D02*
X71227961Y69217494D01*
X71227961Y69217494D02*
X71323200Y69122256D01*
X71323200Y69122256D02*
X71370819Y68979399D01*
X71370819Y68979399D02*
X71370819Y68741304D01*
X14192571Y15979887D02*
X14240190Y16027506D01*
X14240190Y16027506D02*
X14335428Y16075125D01*
X14335428Y16075125D02*
X14573523Y16075125D01*
X14573523Y16075125D02*
X14668761Y16027506D01*
X14668761Y16027506D02*
X14716380Y15979887D01*
X14716380Y15979887D02*
X14763999Y15884649D01*
X14763999Y15884649D02*
X14763999Y15789411D01*
X14763999Y15789411D02*
X14716380Y15646554D01*
X14716380Y15646554D02*
X14144952Y15075125D01*
X14144952Y15075125D02*
X14763999Y15075125D01*
X15097333Y16075125D02*
X15716380Y16075125D01*
X15716380Y16075125D02*
X15383047Y15694173D01*
X15383047Y15694173D02*
X15525904Y15694173D01*
X15525904Y15694173D02*
X15621142Y15646554D01*
X15621142Y15646554D02*
X15668761Y15598935D01*
X15668761Y15598935D02*
X15716380Y15503697D01*
X15716380Y15503697D02*
X15716380Y15265602D01*
X15716380Y15265602D02*
X15668761Y15170364D01*
X15668761Y15170364D02*
X15621142Y15122744D01*
X15621142Y15122744D02*
X15525904Y15075125D01*
X15525904Y15075125D02*
X15240190Y15075125D01*
X15240190Y15075125D02*
X15144952Y15122744D01*
X15144952Y15122744D02*
X15097333Y15170364D01*
X16335428Y16075125D02*
X16430666Y16075125D01*
X16430666Y16075125D02*
X16525904Y16027506D01*
X16525904Y16027506D02*
X16573523Y15979887D01*
X16573523Y15979887D02*
X16621142Y15884649D01*
X16621142Y15884649D02*
X16668761Y15694173D01*
X16668761Y15694173D02*
X16668761Y15456078D01*
X16668761Y15456078D02*
X16621142Y15265602D01*
X16621142Y15265602D02*
X16573523Y15170364D01*
X16573523Y15170364D02*
X16525904Y15122744D01*
X16525904Y15122744D02*
X16430666Y15075125D01*
X16430666Y15075125D02*
X16335428Y15075125D01*
X16335428Y15075125D02*
X16240190Y15122744D01*
X16240190Y15122744D02*
X16192571Y15170364D01*
X16192571Y15170364D02*
X16144952Y15265602D01*
X16144952Y15265602D02*
X16097333Y15456078D01*
X16097333Y15456078D02*
X16097333Y15694173D01*
X16097333Y15694173D02*
X16144952Y15884649D01*
X16144952Y15884649D02*
X16192571Y15979887D01*
X16192571Y15979887D02*
X16240190Y16027506D01*
X16240190Y16027506D02*
X16335428Y16075125D01*
X16954476Y16075125D02*
X17287809Y15075125D01*
X17287809Y15075125D02*
X17621142Y16075125D01*
X18716381Y15075125D02*
X18716381Y16075125D01*
X18716381Y16075125D02*
X19287809Y15075125D01*
X19287809Y15075125D02*
X19287809Y16075125D01*
X10811618Y14465181D02*
X11383046Y14465181D01*
X11097332Y13465181D02*
X11097332Y14465181D01*
X11859237Y13465181D02*
X11763999Y13512800D01*
X11763999Y13512800D02*
X11716380Y13560420D01*
X11716380Y13560420D02*
X11668761Y13655658D01*
X11668761Y13655658D02*
X11668761Y13941372D01*
X11668761Y13941372D02*
X11716380Y14036610D01*
X11716380Y14036610D02*
X11763999Y14084229D01*
X11763999Y14084229D02*
X11859237Y14131848D01*
X11859237Y14131848D02*
X12002094Y14131848D01*
X12002094Y14131848D02*
X12097332Y14084229D01*
X12097332Y14084229D02*
X12144951Y14036610D01*
X12144951Y14036610D02*
X12192570Y13941372D01*
X12192570Y13941372D02*
X12192570Y13655658D01*
X12192570Y13655658D02*
X12144951Y13560420D01*
X12144951Y13560420D02*
X12097332Y13512800D01*
X12097332Y13512800D02*
X12002094Y13465181D01*
X12002094Y13465181D02*
X11859237Y13465181D01*
X12621142Y14131848D02*
X12621142Y13131848D01*
X12621142Y14084229D02*
X12716380Y14131848D01*
X12716380Y14131848D02*
X12906856Y14131848D01*
X12906856Y14131848D02*
X13002094Y14084229D01*
X13002094Y14084229D02*
X13049713Y14036610D01*
X13049713Y14036610D02*
X13097332Y13941372D01*
X13097332Y13941372D02*
X13097332Y13655658D01*
X13097332Y13655658D02*
X13049713Y13560420D01*
X13049713Y13560420D02*
X13002094Y13512800D01*
X13002094Y13512800D02*
X12906856Y13465181D01*
X12906856Y13465181D02*
X12716380Y13465181D01*
X12716380Y13465181D02*
X12621142Y13512800D01*
X13525904Y14131848D02*
X13525904Y13465181D01*
X13525904Y14036610D02*
X13573523Y14084229D01*
X13573523Y14084229D02*
X13668761Y14131848D01*
X13668761Y14131848D02*
X13811618Y14131848D01*
X13811618Y14131848D02*
X13906856Y14084229D01*
X13906856Y14084229D02*
X13954475Y13988991D01*
X13954475Y13988991D02*
X13954475Y13465181D01*
X14859237Y13465181D02*
X14859237Y13988991D01*
X14859237Y13988991D02*
X14811618Y14084229D01*
X14811618Y14084229D02*
X14716380Y14131848D01*
X14716380Y14131848D02*
X14525904Y14131848D01*
X14525904Y14131848D02*
X14430666Y14084229D01*
X14859237Y13512800D02*
X14763999Y13465181D01*
X14763999Y13465181D02*
X14525904Y13465181D01*
X14525904Y13465181D02*
X14430666Y13512800D01*
X14430666Y13512800D02*
X14383047Y13608039D01*
X14383047Y13608039D02*
X14383047Y13703277D01*
X14383047Y13703277D02*
X14430666Y13798515D01*
X14430666Y13798515D02*
X14525904Y13846134D01*
X14525904Y13846134D02*
X14763999Y13846134D01*
X14763999Y13846134D02*
X14859237Y13893753D01*
X16049714Y13512800D02*
X16144952Y13465181D01*
X16144952Y13465181D02*
X16335428Y13465181D01*
X16335428Y13465181D02*
X16430666Y13512800D01*
X16430666Y13512800D02*
X16478285Y13608039D01*
X16478285Y13608039D02*
X16478285Y13655658D01*
X16478285Y13655658D02*
X16430666Y13750896D01*
X16430666Y13750896D02*
X16335428Y13798515D01*
X16335428Y13798515D02*
X16192571Y13798515D01*
X16192571Y13798515D02*
X16097333Y13846134D01*
X16097333Y13846134D02*
X16049714Y13941372D01*
X16049714Y13941372D02*
X16049714Y13988991D01*
X16049714Y13988991D02*
X16097333Y14084229D01*
X16097333Y14084229D02*
X16192571Y14131848D01*
X16192571Y14131848D02*
X16335428Y14131848D01*
X16335428Y14131848D02*
X16430666Y14084229D01*
X16906857Y14131848D02*
X16906857Y13131848D01*
X16906857Y14084229D02*
X17002095Y14131848D01*
X17002095Y14131848D02*
X17192571Y14131848D01*
X17192571Y14131848D02*
X17287809Y14084229D01*
X17287809Y14084229D02*
X17335428Y14036610D01*
X17335428Y14036610D02*
X17383047Y13941372D01*
X17383047Y13941372D02*
X17383047Y13655658D01*
X17383047Y13655658D02*
X17335428Y13560420D01*
X17335428Y13560420D02*
X17287809Y13512800D01*
X17287809Y13512800D02*
X17192571Y13465181D01*
X17192571Y13465181D02*
X17002095Y13465181D01*
X17002095Y13465181D02*
X16906857Y13512800D01*
X17811619Y13465181D02*
X17811619Y14131848D01*
X17811619Y14465181D02*
X17764000Y14417562D01*
X17764000Y14417562D02*
X17811619Y14369943D01*
X17811619Y14369943D02*
X17859238Y14417562D01*
X17859238Y14417562D02*
X17811619Y14465181D01*
X17811619Y14465181D02*
X17811619Y14369943D01*
X18287809Y13465181D02*
X18287809Y14131848D01*
X18287809Y13941372D02*
X18335428Y14036610D01*
X18335428Y14036610D02*
X18383047Y14084229D01*
X18383047Y14084229D02*
X18478285Y14131848D01*
X18478285Y14131848D02*
X18573523Y14131848D01*
X19335428Y13465181D02*
X19335428Y13988991D01*
X19335428Y13988991D02*
X19287809Y14084229D01*
X19287809Y14084229D02*
X19192571Y14131848D01*
X19192571Y14131848D02*
X19002095Y14131848D01*
X19002095Y14131848D02*
X18906857Y14084229D01*
X19335428Y13512800D02*
X19240190Y13465181D01*
X19240190Y13465181D02*
X19002095Y13465181D01*
X19002095Y13465181D02*
X18906857Y13512800D01*
X18906857Y13512800D02*
X18859238Y13608039D01*
X18859238Y13608039D02*
X18859238Y13703277D01*
X18859238Y13703277D02*
X18906857Y13798515D01*
X18906857Y13798515D02*
X19002095Y13846134D01*
X19002095Y13846134D02*
X19240190Y13846134D01*
X19240190Y13846134D02*
X19335428Y13893753D01*
X19954476Y13465181D02*
X19859238Y13512800D01*
X19859238Y13512800D02*
X19811619Y13608039D01*
X19811619Y13608039D02*
X19811619Y14465181D01*
X20764000Y13465181D02*
X20764000Y13988991D01*
X20764000Y13988991D02*
X20716381Y14084229D01*
X20716381Y14084229D02*
X20621143Y14131848D01*
X20621143Y14131848D02*
X20430667Y14131848D01*
X20430667Y14131848D02*
X20335429Y14084229D01*
X20764000Y13512800D02*
X20668762Y13465181D01*
X20668762Y13465181D02*
X20430667Y13465181D01*
X20430667Y13465181D02*
X20335429Y13512800D01*
X20335429Y13512800D02*
X20287810Y13608039D01*
X20287810Y13608039D02*
X20287810Y13703277D01*
X20287810Y13703277D02*
X20335429Y13798515D01*
X20335429Y13798515D02*
X20430667Y13846134D01*
X20430667Y13846134D02*
X20668762Y13846134D01*
X20668762Y13846134D02*
X20764000Y13893753D01*
X22002096Y13465181D02*
X22002096Y14465181D01*
X22002096Y14465181D02*
X22573524Y13465181D01*
X22573524Y13465181D02*
X22573524Y14465181D01*
X61503160Y15471887D02*
X61550779Y15519506D01*
X61550779Y15519506D02*
X61646017Y15567125D01*
X61646017Y15567125D02*
X61884112Y15567125D01*
X61884112Y15567125D02*
X61979350Y15519506D01*
X61979350Y15519506D02*
X62026969Y15471887D01*
X62026969Y15471887D02*
X62074588Y15376649D01*
X62074588Y15376649D02*
X62074588Y15281411D01*
X62074588Y15281411D02*
X62026969Y15138554D01*
X62026969Y15138554D02*
X61455541Y14567125D01*
X61455541Y14567125D02*
X62074588Y14567125D01*
X62407922Y15567125D02*
X63026969Y15567125D01*
X63026969Y15567125D02*
X62693636Y15186173D01*
X62693636Y15186173D02*
X62836493Y15186173D01*
X62836493Y15186173D02*
X62931731Y15138554D01*
X62931731Y15138554D02*
X62979350Y15090935D01*
X62979350Y15090935D02*
X63026969Y14995697D01*
X63026969Y14995697D02*
X63026969Y14757602D01*
X63026969Y14757602D02*
X62979350Y14662364D01*
X62979350Y14662364D02*
X62931731Y14614744D01*
X62931731Y14614744D02*
X62836493Y14567125D01*
X62836493Y14567125D02*
X62550779Y14567125D01*
X62550779Y14567125D02*
X62455541Y14614744D01*
X62455541Y14614744D02*
X62407922Y14662364D01*
X63646017Y15567125D02*
X63741255Y15567125D01*
X63741255Y15567125D02*
X63836493Y15519506D01*
X63836493Y15519506D02*
X63884112Y15471887D01*
X63884112Y15471887D02*
X63931731Y15376649D01*
X63931731Y15376649D02*
X63979350Y15186173D01*
X63979350Y15186173D02*
X63979350Y14948078D01*
X63979350Y14948078D02*
X63931731Y14757602D01*
X63931731Y14757602D02*
X63884112Y14662364D01*
X63884112Y14662364D02*
X63836493Y14614744D01*
X63836493Y14614744D02*
X63741255Y14567125D01*
X63741255Y14567125D02*
X63646017Y14567125D01*
X63646017Y14567125D02*
X63550779Y14614744D01*
X63550779Y14614744D02*
X63503160Y14662364D01*
X63503160Y14662364D02*
X63455541Y14757602D01*
X63455541Y14757602D02*
X63407922Y14948078D01*
X63407922Y14948078D02*
X63407922Y15186173D01*
X63407922Y15186173D02*
X63455541Y15376649D01*
X63455541Y15376649D02*
X63503160Y15471887D01*
X63503160Y15471887D02*
X63550779Y15519506D01*
X63550779Y15519506D02*
X63646017Y15567125D01*
X64265065Y15567125D02*
X64598398Y14567125D01*
X64598398Y14567125D02*
X64931731Y15567125D01*
X66503160Y14567125D02*
X66026970Y14567125D01*
X66026970Y14567125D02*
X66026970Y15567125D01*
X62074588Y12957181D02*
X61503160Y12957181D01*
X61788874Y12957181D02*
X61788874Y13957181D01*
X61788874Y13957181D02*
X61693636Y13814324D01*
X61693636Y13814324D02*
X61598398Y13719086D01*
X61598398Y13719086D02*
X61503160Y13671467D01*
X62931731Y13957181D02*
X62741255Y13957181D01*
X62741255Y13957181D02*
X62646017Y13909562D01*
X62646017Y13909562D02*
X62598398Y13861943D01*
X62598398Y13861943D02*
X62503160Y13719086D01*
X62503160Y13719086D02*
X62455541Y13528610D01*
X62455541Y13528610D02*
X62455541Y13147658D01*
X62455541Y13147658D02*
X62503160Y13052420D01*
X62503160Y13052420D02*
X62550779Y13004800D01*
X62550779Y13004800D02*
X62646017Y12957181D01*
X62646017Y12957181D02*
X62836493Y12957181D01*
X62836493Y12957181D02*
X62931731Y13004800D01*
X62931731Y13004800D02*
X62979350Y13052420D01*
X62979350Y13052420D02*
X63026969Y13147658D01*
X63026969Y13147658D02*
X63026969Y13385753D01*
X63026969Y13385753D02*
X62979350Y13480991D01*
X62979350Y13480991D02*
X62931731Y13528610D01*
X62931731Y13528610D02*
X62836493Y13576229D01*
X62836493Y13576229D02*
X62646017Y13576229D01*
X62646017Y13576229D02*
X62550779Y13528610D01*
X62550779Y13528610D02*
X62503160Y13480991D01*
X62503160Y13480991D02*
X62455541Y13385753D01*
X64169827Y13242896D02*
X64646017Y13242896D01*
X64074589Y12957181D02*
X64407922Y13957181D01*
X64407922Y13957181D02*
X64741255Y12957181D01*
X34610922Y12195134D02*
X34658541Y12242753D01*
X34658541Y12242753D02*
X34753779Y12290372D01*
X34753779Y12290372D02*
X34944255Y12195134D01*
X34944255Y12195134D02*
X35039493Y12242753D01*
X35039493Y12242753D02*
X35087112Y12290372D01*
X36182351Y12718943D02*
X36229970Y12766562D01*
X36229970Y12766562D02*
X36325208Y12814181D01*
X36325208Y12814181D02*
X36563303Y12814181D01*
X36563303Y12814181D02*
X36658541Y12766562D01*
X36658541Y12766562D02*
X36706160Y12718943D01*
X36706160Y12718943D02*
X36753779Y12623705D01*
X36753779Y12623705D02*
X36753779Y12528467D01*
X36753779Y12528467D02*
X36706160Y12385610D01*
X36706160Y12385610D02*
X36134732Y11814181D01*
X36134732Y11814181D02*
X36753779Y11814181D01*
X37087113Y12814181D02*
X37706160Y12814181D01*
X37706160Y12814181D02*
X37372827Y12433229D01*
X37372827Y12433229D02*
X37515684Y12433229D01*
X37515684Y12433229D02*
X37610922Y12385610D01*
X37610922Y12385610D02*
X37658541Y12337991D01*
X37658541Y12337991D02*
X37706160Y12242753D01*
X37706160Y12242753D02*
X37706160Y12004658D01*
X37706160Y12004658D02*
X37658541Y11909420D01*
X37658541Y11909420D02*
X37610922Y11861800D01*
X37610922Y11861800D02*
X37515684Y11814181D01*
X37515684Y11814181D02*
X37229970Y11814181D01*
X37229970Y11814181D02*
X37134732Y11861800D01*
X37134732Y11861800D02*
X37087113Y11909420D01*
X38325208Y12814181D02*
X38420446Y12814181D01*
X38420446Y12814181D02*
X38515684Y12766562D01*
X38515684Y12766562D02*
X38563303Y12718943D01*
X38563303Y12718943D02*
X38610922Y12623705D01*
X38610922Y12623705D02*
X38658541Y12433229D01*
X38658541Y12433229D02*
X38658541Y12195134D01*
X38658541Y12195134D02*
X38610922Y12004658D01*
X38610922Y12004658D02*
X38563303Y11909420D01*
X38563303Y11909420D02*
X38515684Y11861800D01*
X38515684Y11861800D02*
X38420446Y11814181D01*
X38420446Y11814181D02*
X38325208Y11814181D01*
X38325208Y11814181D02*
X38229970Y11861800D01*
X38229970Y11861800D02*
X38182351Y11909420D01*
X38182351Y11909420D02*
X38134732Y12004658D01*
X38134732Y12004658D02*
X38087113Y12195134D01*
X38087113Y12195134D02*
X38087113Y12433229D01*
X38087113Y12433229D02*
X38134732Y12623705D01*
X38134732Y12623705D02*
X38182351Y12718943D01*
X38182351Y12718943D02*
X38229970Y12766562D01*
X38229970Y12766562D02*
X38325208Y12814181D01*
X39706161Y12814181D02*
X40039494Y11814181D01*
X40039494Y11814181D02*
X40372827Y12814181D01*
X42182351Y12861800D02*
X41325209Y11576086D01*
X43801399Y11814181D02*
X43229971Y11814181D01*
X43515685Y11814181D02*
X43515685Y12814181D01*
X43515685Y12814181D02*
X43420447Y12671324D01*
X43420447Y12671324D02*
X43325209Y12576086D01*
X43325209Y12576086D02*
X43229971Y12528467D01*
X44658542Y12814181D02*
X44468066Y12814181D01*
X44468066Y12814181D02*
X44372828Y12766562D01*
X44372828Y12766562D02*
X44325209Y12718943D01*
X44325209Y12718943D02*
X44229971Y12576086D01*
X44229971Y12576086D02*
X44182352Y12385610D01*
X44182352Y12385610D02*
X44182352Y12004658D01*
X44182352Y12004658D02*
X44229971Y11909420D01*
X44229971Y11909420D02*
X44277590Y11861800D01*
X44277590Y11861800D02*
X44372828Y11814181D01*
X44372828Y11814181D02*
X44563304Y11814181D01*
X44563304Y11814181D02*
X44658542Y11861800D01*
X44658542Y11861800D02*
X44706161Y11909420D01*
X44706161Y11909420D02*
X44753780Y12004658D01*
X44753780Y12004658D02*
X44753780Y12242753D01*
X44753780Y12242753D02*
X44706161Y12337991D01*
X44706161Y12337991D02*
X44658542Y12385610D01*
X44658542Y12385610D02*
X44563304Y12433229D01*
X44563304Y12433229D02*
X44372828Y12433229D01*
X44372828Y12433229D02*
X44277590Y12385610D01*
X44277590Y12385610D02*
X44229971Y12337991D01*
X44229971Y12337991D02*
X44182352Y12242753D01*
X45896638Y12099896D02*
X46372828Y12099896D01*
X45801400Y11814181D02*
X46134733Y12814181D01*
X46134733Y12814181D02*
X46468066Y11814181D01*
X1647819Y69059589D02*
X1647819Y68488161D01*
X1647819Y68773875D02*
X647819Y68773875D01*
X647819Y68773875D02*
X790676Y68678637D01*
X790676Y68678637D02*
X885914Y68583399D01*
X885914Y68583399D02*
X933533Y68488161D01*
X743057Y69440542D02*
X695438Y69488161D01*
X695438Y69488161D02*
X647819Y69583399D01*
X647819Y69583399D02*
X647819Y69821494D01*
X647819Y69821494D02*
X695438Y69916732D01*
X695438Y69916732D02*
X743057Y69964351D01*
X743057Y69964351D02*
X838295Y70011970D01*
X838295Y70011970D02*
X933533Y70011970D01*
X933533Y70011970D02*
X1076390Y69964351D01*
X1076390Y69964351D02*
X1647819Y69392923D01*
X1647819Y69392923D02*
X1647819Y70011970D01*
X647819Y70297685D02*
X1647819Y70631018D01*
X1647819Y70631018D02*
X647819Y70964351D01*
X600200Y72773875D02*
X1885914Y71916733D01*
X647819Y74345304D02*
X647819Y73869114D01*
X647819Y73869114D02*
X1124009Y73821495D01*
X1124009Y73821495D02*
X1076390Y73869114D01*
X1076390Y73869114D02*
X1028771Y73964352D01*
X1028771Y73964352D02*
X1028771Y74202447D01*
X1028771Y74202447D02*
X1076390Y74297685D01*
X1076390Y74297685D02*
X1124009Y74345304D01*
X1124009Y74345304D02*
X1219247Y74392923D01*
X1219247Y74392923D02*
X1457342Y74392923D01*
X1457342Y74392923D02*
X1552580Y74345304D01*
X1552580Y74345304D02*
X1600200Y74297685D01*
X1600200Y74297685D02*
X1647819Y74202447D01*
X1647819Y74202447D02*
X1647819Y73964352D01*
X1647819Y73964352D02*
X1600200Y73869114D01*
X1600200Y73869114D02*
X1552580Y73821495D01*
X647819Y75011971D02*
X647819Y75107209D01*
X647819Y75107209D02*
X695438Y75202447D01*
X695438Y75202447D02*
X743057Y75250066D01*
X743057Y75250066D02*
X838295Y75297685D01*
X838295Y75297685D02*
X1028771Y75345304D01*
X1028771Y75345304D02*
X1266866Y75345304D01*
X1266866Y75345304D02*
X1457342Y75297685D01*
X1457342Y75297685D02*
X1552580Y75250066D01*
X1552580Y75250066D02*
X1600200Y75202447D01*
X1600200Y75202447D02*
X1647819Y75107209D01*
X1647819Y75107209D02*
X1647819Y75011971D01*
X1647819Y75011971D02*
X1600200Y74916733D01*
X1600200Y74916733D02*
X1552580Y74869114D01*
X1552580Y74869114D02*
X1457342Y74821495D01*
X1457342Y74821495D02*
X1266866Y74773876D01*
X1266866Y74773876D02*
X1028771Y74773876D01*
X1028771Y74773876D02*
X838295Y74821495D01*
X838295Y74821495D02*
X743057Y74869114D01*
X743057Y74869114D02*
X695438Y74916733D01*
X695438Y74916733D02*
X647819Y75011971D01*
X647819Y75964352D02*
X647819Y76059590D01*
X647819Y76059590D02*
X695438Y76154828D01*
X695438Y76154828D02*
X743057Y76202447D01*
X743057Y76202447D02*
X838295Y76250066D01*
X838295Y76250066D02*
X1028771Y76297685D01*
X1028771Y76297685D02*
X1266866Y76297685D01*
X1266866Y76297685D02*
X1457342Y76250066D01*
X1457342Y76250066D02*
X1552580Y76202447D01*
X1552580Y76202447D02*
X1600200Y76154828D01*
X1600200Y76154828D02*
X1647819Y76059590D01*
X1647819Y76059590D02*
X1647819Y75964352D01*
X1647819Y75964352D02*
X1600200Y75869114D01*
X1600200Y75869114D02*
X1552580Y75821495D01*
X1552580Y75821495D02*
X1457342Y75773876D01*
X1457342Y75773876D02*
X1266866Y75726257D01*
X1266866Y75726257D02*
X1028771Y75726257D01*
X1028771Y75726257D02*
X838295Y75773876D01*
X838295Y75773876D02*
X743057Y75821495D01*
X743057Y75821495D02*
X695438Y75869114D01*
X695438Y75869114D02*
X647819Y75964352D01*
X1647819Y77488162D02*
X981152Y77488162D01*
X1076390Y77488162D02*
X1028771Y77535781D01*
X1028771Y77535781D02*
X981152Y77631019D01*
X981152Y77631019D02*
X981152Y77773876D01*
X981152Y77773876D02*
X1028771Y77869114D01*
X1028771Y77869114D02*
X1124009Y77916733D01*
X1124009Y77916733D02*
X1647819Y77916733D01*
X1124009Y77916733D02*
X1028771Y77964352D01*
X1028771Y77964352D02*
X981152Y78059590D01*
X981152Y78059590D02*
X981152Y78202447D01*
X981152Y78202447D02*
X1028771Y78297686D01*
X1028771Y78297686D02*
X1124009Y78345305D01*
X1124009Y78345305D02*
X1647819Y78345305D01*
X1362104Y78773876D02*
X1362104Y79250066D01*
X1647819Y78678638D02*
X647819Y79011971D01*
X647819Y79011971D02*
X1647819Y79345304D01*
X67617875Y31943923D02*
X67617875Y32515351D01*
X68617875Y32229637D02*
X67617875Y32229637D01*
X68617875Y32991542D02*
X68570256Y32896304D01*
X68570256Y32896304D02*
X68522636Y32848685D01*
X68522636Y32848685D02*
X68427398Y32801066D01*
X68427398Y32801066D02*
X68141684Y32801066D01*
X68141684Y32801066D02*
X68046446Y32848685D01*
X68046446Y32848685D02*
X67998827Y32896304D01*
X67998827Y32896304D02*
X67951208Y32991542D01*
X67951208Y32991542D02*
X67951208Y33134399D01*
X67951208Y33134399D02*
X67998827Y33229637D01*
X67998827Y33229637D02*
X68046446Y33277256D01*
X68046446Y33277256D02*
X68141684Y33324875D01*
X68141684Y33324875D02*
X68427398Y33324875D01*
X68427398Y33324875D02*
X68522636Y33277256D01*
X68522636Y33277256D02*
X68570256Y33229637D01*
X68570256Y33229637D02*
X68617875Y33134399D01*
X68617875Y33134399D02*
X68617875Y32991542D01*
X67951208Y33753447D02*
X68951208Y33753447D01*
X67998827Y33753447D02*
X67951208Y33848685D01*
X67951208Y33848685D02*
X67951208Y34039161D01*
X67951208Y34039161D02*
X67998827Y34134399D01*
X67998827Y34134399D02*
X68046446Y34182018D01*
X68046446Y34182018D02*
X68141684Y34229637D01*
X68141684Y34229637D02*
X68427398Y34229637D01*
X68427398Y34229637D02*
X68522636Y34182018D01*
X68522636Y34182018D02*
X68570256Y34134399D01*
X68570256Y34134399D02*
X68617875Y34039161D01*
X68617875Y34039161D02*
X68617875Y33848685D01*
X68617875Y33848685D02*
X68570256Y33753447D01*
X67951208Y34658209D02*
X68617875Y34658209D01*
X68046446Y34658209D02*
X67998827Y34705828D01*
X67998827Y34705828D02*
X67951208Y34801066D01*
X67951208Y34801066D02*
X67951208Y34943923D01*
X67951208Y34943923D02*
X67998827Y35039161D01*
X67998827Y35039161D02*
X68094065Y35086780D01*
X68094065Y35086780D02*
X68617875Y35086780D01*
X68617875Y35991542D02*
X68094065Y35991542D01*
X68094065Y35991542D02*
X67998827Y35943923D01*
X67998827Y35943923D02*
X67951208Y35848685D01*
X67951208Y35848685D02*
X67951208Y35658209D01*
X67951208Y35658209D02*
X67998827Y35562971D01*
X68570256Y35991542D02*
X68617875Y35896304D01*
X68617875Y35896304D02*
X68617875Y35658209D01*
X68617875Y35658209D02*
X68570256Y35562971D01*
X68570256Y35562971D02*
X68475017Y35515352D01*
X68475017Y35515352D02*
X68379779Y35515352D01*
X68379779Y35515352D02*
X68284541Y35562971D01*
X68284541Y35562971D02*
X68236922Y35658209D01*
X68236922Y35658209D02*
X68236922Y35896304D01*
X68236922Y35896304D02*
X68189303Y35991542D01*
X67570256Y35848685D02*
X67713113Y35705828D01*
X68570256Y37182019D02*
X68617875Y37277257D01*
X68617875Y37277257D02*
X68617875Y37467733D01*
X68617875Y37467733D02*
X68570256Y37562971D01*
X68570256Y37562971D02*
X68475017Y37610590D01*
X68475017Y37610590D02*
X68427398Y37610590D01*
X68427398Y37610590D02*
X68332160Y37562971D01*
X68332160Y37562971D02*
X68284541Y37467733D01*
X68284541Y37467733D02*
X68284541Y37324876D01*
X68284541Y37324876D02*
X68236922Y37229638D01*
X68236922Y37229638D02*
X68141684Y37182019D01*
X68141684Y37182019D02*
X68094065Y37182019D01*
X68094065Y37182019D02*
X67998827Y37229638D01*
X67998827Y37229638D02*
X67951208Y37324876D01*
X67951208Y37324876D02*
X67951208Y37467733D01*
X67951208Y37467733D02*
X67998827Y37562971D01*
X67951208Y38039162D02*
X68951208Y38039162D01*
X67998827Y38039162D02*
X67951208Y38134400D01*
X67951208Y38134400D02*
X67951208Y38324876D01*
X67951208Y38324876D02*
X67998827Y38420114D01*
X67998827Y38420114D02*
X68046446Y38467733D01*
X68046446Y38467733D02*
X68141684Y38515352D01*
X68141684Y38515352D02*
X68427398Y38515352D01*
X68427398Y38515352D02*
X68522636Y38467733D01*
X68522636Y38467733D02*
X68570256Y38420114D01*
X68570256Y38420114D02*
X68617875Y38324876D01*
X68617875Y38324876D02*
X68617875Y38134400D01*
X68617875Y38134400D02*
X68570256Y38039162D01*
X68617875Y38943924D02*
X67951208Y38943924D01*
X67617875Y38943924D02*
X67665494Y38896305D01*
X67665494Y38896305D02*
X67713113Y38943924D01*
X67713113Y38943924D02*
X67665494Y38991543D01*
X67665494Y38991543D02*
X67617875Y38943924D01*
X67617875Y38943924D02*
X67713113Y38943924D01*
X68617875Y39420114D02*
X67951208Y39420114D01*
X68141684Y39420114D02*
X68046446Y39467733D01*
X68046446Y39467733D02*
X67998827Y39515352D01*
X67998827Y39515352D02*
X67951208Y39610590D01*
X67951208Y39610590D02*
X67951208Y39705828D01*
X68617875Y40467733D02*
X68094065Y40467733D01*
X68094065Y40467733D02*
X67998827Y40420114D01*
X67998827Y40420114D02*
X67951208Y40324876D01*
X67951208Y40324876D02*
X67951208Y40134400D01*
X67951208Y40134400D02*
X67998827Y40039162D01*
X68570256Y40467733D02*
X68617875Y40372495D01*
X68617875Y40372495D02*
X68617875Y40134400D01*
X68617875Y40134400D02*
X68570256Y40039162D01*
X68570256Y40039162D02*
X68475017Y39991543D01*
X68475017Y39991543D02*
X68379779Y39991543D01*
X68379779Y39991543D02*
X68284541Y40039162D01*
X68284541Y40039162D02*
X68236922Y40134400D01*
X68236922Y40134400D02*
X68236922Y40372495D01*
X68236922Y40372495D02*
X68189303Y40467733D01*
X67570256Y40324876D02*
X67713113Y40182019D01*
X68617875Y41086781D02*
X68570256Y40991543D01*
X68570256Y40991543D02*
X68475017Y40943924D01*
X68475017Y40943924D02*
X67617875Y40943924D01*
X68617875Y41896305D02*
X68094065Y41896305D01*
X68094065Y41896305D02*
X67998827Y41848686D01*
X67998827Y41848686D02*
X67951208Y41753448D01*
X67951208Y41753448D02*
X67951208Y41562972D01*
X67951208Y41562972D02*
X67998827Y41467734D01*
X68570256Y41896305D02*
X68617875Y41801067D01*
X68617875Y41801067D02*
X68617875Y41562972D01*
X68617875Y41562972D02*
X68570256Y41467734D01*
X68570256Y41467734D02*
X68475017Y41420115D01*
X68475017Y41420115D02*
X68379779Y41420115D01*
X68379779Y41420115D02*
X68284541Y41467734D01*
X68284541Y41467734D02*
X68236922Y41562972D01*
X68236922Y41562972D02*
X68236922Y41801067D01*
X68236922Y41801067D02*
X68189303Y41896305D01*
X69323057Y32039161D02*
X69275438Y32086780D01*
X69275438Y32086780D02*
X69227819Y32182018D01*
X69227819Y32182018D02*
X69227819Y32420113D01*
X69227819Y32420113D02*
X69275438Y32515351D01*
X69275438Y32515351D02*
X69323057Y32562970D01*
X69323057Y32562970D02*
X69418295Y32610589D01*
X69418295Y32610589D02*
X69513533Y32610589D01*
X69513533Y32610589D02*
X69656390Y32562970D01*
X69656390Y32562970D02*
X70227819Y31991542D01*
X70227819Y31991542D02*
X70227819Y32610589D01*
X69227819Y32943923D02*
X69227819Y33562970D01*
X69227819Y33562970D02*
X69608771Y33229637D01*
X69608771Y33229637D02*
X69608771Y33372494D01*
X69608771Y33372494D02*
X69656390Y33467732D01*
X69656390Y33467732D02*
X69704009Y33515351D01*
X69704009Y33515351D02*
X69799247Y33562970D01*
X69799247Y33562970D02*
X70037342Y33562970D01*
X70037342Y33562970D02*
X70132580Y33515351D01*
X70132580Y33515351D02*
X70180200Y33467732D01*
X70180200Y33467732D02*
X70227819Y33372494D01*
X70227819Y33372494D02*
X70227819Y33086780D01*
X70227819Y33086780D02*
X70180200Y32991542D01*
X70180200Y32991542D02*
X70132580Y32943923D01*
X69227819Y34182018D02*
X69227819Y34277256D01*
X69227819Y34277256D02*
X69275438Y34372494D01*
X69275438Y34372494D02*
X69323057Y34420113D01*
X69323057Y34420113D02*
X69418295Y34467732D01*
X69418295Y34467732D02*
X69608771Y34515351D01*
X69608771Y34515351D02*
X69846866Y34515351D01*
X69846866Y34515351D02*
X70037342Y34467732D01*
X70037342Y34467732D02*
X70132580Y34420113D01*
X70132580Y34420113D02*
X70180200Y34372494D01*
X70180200Y34372494D02*
X70227819Y34277256D01*
X70227819Y34277256D02*
X70227819Y34182018D01*
X70227819Y34182018D02*
X70180200Y34086780D01*
X70180200Y34086780D02*
X70132580Y34039161D01*
X70132580Y34039161D02*
X70037342Y33991542D01*
X70037342Y33991542D02*
X69846866Y33943923D01*
X69846866Y33943923D02*
X69608771Y33943923D01*
X69608771Y33943923D02*
X69418295Y33991542D01*
X69418295Y33991542D02*
X69323057Y34039161D01*
X69323057Y34039161D02*
X69275438Y34086780D01*
X69275438Y34086780D02*
X69227819Y34182018D01*
X69227819Y34801066D02*
X70227819Y35134399D01*
X70227819Y35134399D02*
X69227819Y35467732D01*
X70227819Y37039161D02*
X70227819Y36562971D01*
X70227819Y36562971D02*
X69227819Y36562971D01*
D11*
X59810699Y71284378D02*
X59810699Y70712950D01*
X59810699Y70998664D02*
X58810699Y70998664D01*
X58810699Y70998664D02*
X58953556Y70903426D01*
X58953556Y70903426D02*
X59048794Y70808188D01*
X59048794Y70808188D02*
X59096413Y70712950D01*
X59429746Y71712950D02*
X59429746Y72474854D01*
X59810699Y72951045D02*
X58810699Y72951045D01*
X58810699Y72951045D02*
X59524984Y73284378D01*
X59524984Y73284378D02*
X58810699Y73617711D01*
X58810699Y73617711D02*
X59810699Y73617711D01*
X58810699Y74284378D02*
X58810699Y74474854D01*
X58810699Y74474854D02*
X58858318Y74570092D01*
X58858318Y74570092D02*
X58953556Y74665330D01*
X58953556Y74665330D02*
X59144032Y74712949D01*
X59144032Y74712949D02*
X59477365Y74712949D01*
X59477365Y74712949D02*
X59667841Y74665330D01*
X59667841Y74665330D02*
X59763080Y74570092D01*
X59763080Y74570092D02*
X59810699Y74474854D01*
X59810699Y74474854D02*
X59810699Y74284378D01*
X59810699Y74284378D02*
X59763080Y74189140D01*
X59763080Y74189140D02*
X59667841Y74093902D01*
X59667841Y74093902D02*
X59477365Y74046283D01*
X59477365Y74046283D02*
X59144032Y74046283D01*
X59144032Y74046283D02*
X58953556Y74093902D01*
X58953556Y74093902D02*
X58858318Y74189140D01*
X58858318Y74189140D02*
X58810699Y74284378D01*
X59763080Y75093902D02*
X59810699Y75236759D01*
X59810699Y75236759D02*
X59810699Y75474854D01*
X59810699Y75474854D02*
X59763080Y75570092D01*
X59763080Y75570092D02*
X59715460Y75617711D01*
X59715460Y75617711D02*
X59620222Y75665330D01*
X59620222Y75665330D02*
X59524984Y75665330D01*
X59524984Y75665330D02*
X59429746Y75617711D01*
X59429746Y75617711D02*
X59382127Y75570092D01*
X59382127Y75570092D02*
X59334508Y75474854D01*
X59334508Y75474854D02*
X59286889Y75284378D01*
X59286889Y75284378D02*
X59239270Y75189140D01*
X59239270Y75189140D02*
X59191651Y75141521D01*
X59191651Y75141521D02*
X59096413Y75093902D01*
X59096413Y75093902D02*
X59001175Y75093902D01*
X59001175Y75093902D02*
X58905937Y75141521D01*
X58905937Y75141521D02*
X58858318Y75189140D01*
X58858318Y75189140D02*
X58810699Y75284378D01*
X58810699Y75284378D02*
X58810699Y75522473D01*
X58810699Y75522473D02*
X58858318Y75665330D01*
X59810699Y76093902D02*
X58810699Y76093902D01*
X60515881Y70712950D02*
X60468262Y70760569D01*
X60468262Y70760569D02*
X60420643Y70855807D01*
X60420643Y70855807D02*
X60420643Y71093902D01*
X60420643Y71093902D02*
X60468262Y71189140D01*
X60468262Y71189140D02*
X60515881Y71236759D01*
X60515881Y71236759D02*
X60611119Y71284378D01*
X60611119Y71284378D02*
X60706357Y71284378D01*
X60706357Y71284378D02*
X60849214Y71236759D01*
X60849214Y71236759D02*
X61420643Y70665331D01*
X61420643Y70665331D02*
X61420643Y71284378D01*
X61039690Y71712950D02*
X61039690Y72474854D01*
X60420643Y73427235D02*
X60420643Y72951045D01*
X60420643Y72951045D02*
X60896833Y72903426D01*
X60896833Y72903426D02*
X60849214Y72951045D01*
X60849214Y72951045D02*
X60801595Y73046283D01*
X60801595Y73046283D02*
X60801595Y73284378D01*
X60801595Y73284378D02*
X60849214Y73379616D01*
X60849214Y73379616D02*
X60896833Y73427235D01*
X60896833Y73427235D02*
X60992071Y73474854D01*
X60992071Y73474854D02*
X61230166Y73474854D01*
X61230166Y73474854D02*
X61325404Y73427235D01*
X61325404Y73427235D02*
X61373024Y73379616D01*
X61373024Y73379616D02*
X61420643Y73284378D01*
X61420643Y73284378D02*
X61420643Y73046283D01*
X61420643Y73046283D02*
X61373024Y72951045D01*
X61373024Y72951045D02*
X61325404Y72903426D01*
X60420643Y73760569D02*
X61420643Y74093902D01*
X61420643Y74093902D02*
X60420643Y74427235D01*
X62030587Y71236759D02*
X62030587Y70760569D01*
X62030587Y70760569D02*
X62506777Y70712950D01*
X62506777Y70712950D02*
X62459158Y70760569D01*
X62459158Y70760569D02*
X62411539Y70855807D01*
X62411539Y70855807D02*
X62411539Y71093902D01*
X62411539Y71093902D02*
X62459158Y71189140D01*
X62459158Y71189140D02*
X62506777Y71236759D01*
X62506777Y71236759D02*
X62602015Y71284378D01*
X62602015Y71284378D02*
X62840110Y71284378D01*
X62840110Y71284378D02*
X62935348Y71236759D01*
X62935348Y71236759D02*
X62982968Y71189140D01*
X62982968Y71189140D02*
X63030587Y71093902D01*
X63030587Y71093902D02*
X63030587Y70855807D01*
X63030587Y70855807D02*
X62982968Y70760569D01*
X62982968Y70760569D02*
X62935348Y70712950D01*
X62649634Y71712950D02*
X62649634Y72474854D01*
X63030587Y73522473D02*
X62554396Y73189140D01*
X63030587Y72951045D02*
X62030587Y72951045D01*
X62030587Y72951045D02*
X62030587Y73331997D01*
X62030587Y73331997D02*
X62078206Y73427235D01*
X62078206Y73427235D02*
X62125825Y73474854D01*
X62125825Y73474854D02*
X62221063Y73522473D01*
X62221063Y73522473D02*
X62363920Y73522473D01*
X62363920Y73522473D02*
X62459158Y73474854D01*
X62459158Y73474854D02*
X62506777Y73427235D01*
X62506777Y73427235D02*
X62554396Y73331997D01*
X62554396Y73331997D02*
X62554396Y72951045D01*
X62982968Y73903426D02*
X63030587Y74046283D01*
X63030587Y74046283D02*
X63030587Y74284378D01*
X63030587Y74284378D02*
X62982968Y74379616D01*
X62982968Y74379616D02*
X62935348Y74427235D01*
X62935348Y74427235D02*
X62840110Y74474854D01*
X62840110Y74474854D02*
X62744872Y74474854D01*
X62744872Y74474854D02*
X62649634Y74427235D01*
X62649634Y74427235D02*
X62602015Y74379616D01*
X62602015Y74379616D02*
X62554396Y74284378D01*
X62554396Y74284378D02*
X62506777Y74093902D01*
X62506777Y74093902D02*
X62459158Y73998664D01*
X62459158Y73998664D02*
X62411539Y73951045D01*
X62411539Y73951045D02*
X62316301Y73903426D01*
X62316301Y73903426D02*
X62221063Y73903426D01*
X62221063Y73903426D02*
X62125825Y73951045D01*
X62125825Y73951045D02*
X62078206Y73998664D01*
X62078206Y73998664D02*
X62030587Y74093902D01*
X62030587Y74093902D02*
X62030587Y74331997D01*
X62030587Y74331997D02*
X62078206Y74474854D01*
X62030587Y74760569D02*
X62030587Y75331997D01*
X63030587Y75046283D02*
X62030587Y75046283D01*
X63640531Y70665331D02*
X63640531Y71331997D01*
X63640531Y71331997D02*
X64640531Y70903426D01*
X64259578Y71712950D02*
X64259578Y72474854D01*
X64592912Y72903426D02*
X64640531Y73046283D01*
X64640531Y73046283D02*
X64640531Y73284378D01*
X64640531Y73284378D02*
X64592912Y73379616D01*
X64592912Y73379616D02*
X64545292Y73427235D01*
X64545292Y73427235D02*
X64450054Y73474854D01*
X64450054Y73474854D02*
X64354816Y73474854D01*
X64354816Y73474854D02*
X64259578Y73427235D01*
X64259578Y73427235D02*
X64211959Y73379616D01*
X64211959Y73379616D02*
X64164340Y73284378D01*
X64164340Y73284378D02*
X64116721Y73093902D01*
X64116721Y73093902D02*
X64069102Y72998664D01*
X64069102Y72998664D02*
X64021483Y72951045D01*
X64021483Y72951045D02*
X63926245Y72903426D01*
X63926245Y72903426D02*
X63831007Y72903426D01*
X63831007Y72903426D02*
X63735769Y72951045D01*
X63735769Y72951045D02*
X63688150Y72998664D01*
X63688150Y72998664D02*
X63640531Y73093902D01*
X63640531Y73093902D02*
X63640531Y73331997D01*
X63640531Y73331997D02*
X63688150Y73474854D01*
X64545292Y74474854D02*
X64592912Y74427235D01*
X64592912Y74427235D02*
X64640531Y74284378D01*
X64640531Y74284378D02*
X64640531Y74189140D01*
X64640531Y74189140D02*
X64592912Y74046283D01*
X64592912Y74046283D02*
X64497673Y73951045D01*
X64497673Y73951045D02*
X64402435Y73903426D01*
X64402435Y73903426D02*
X64211959Y73855807D01*
X64211959Y73855807D02*
X64069102Y73855807D01*
X64069102Y73855807D02*
X63878626Y73903426D01*
X63878626Y73903426D02*
X63783388Y73951045D01*
X63783388Y73951045D02*
X63688150Y74046283D01*
X63688150Y74046283D02*
X63640531Y74189140D01*
X63640531Y74189140D02*
X63640531Y74284378D01*
X63640531Y74284378D02*
X63688150Y74427235D01*
X63688150Y74427235D02*
X63735769Y74474854D01*
X64640531Y74903426D02*
X63640531Y74903426D01*
X64640531Y75474854D02*
X64069102Y75046283D01*
X63640531Y75474854D02*
X64211959Y74903426D01*
X66250475Y70808188D02*
X66250475Y70998664D01*
X66250475Y70998664D02*
X66202856Y71093902D01*
X66202856Y71093902D02*
X66155236Y71141521D01*
X66155236Y71141521D02*
X66012379Y71236759D01*
X66012379Y71236759D02*
X65821903Y71284378D01*
X65821903Y71284378D02*
X65440951Y71284378D01*
X65440951Y71284378D02*
X65345713Y71236759D01*
X65345713Y71236759D02*
X65298094Y71189140D01*
X65298094Y71189140D02*
X65250475Y71093902D01*
X65250475Y71093902D02*
X65250475Y70903426D01*
X65250475Y70903426D02*
X65298094Y70808188D01*
X65298094Y70808188D02*
X65345713Y70760569D01*
X65345713Y70760569D02*
X65440951Y70712950D01*
X65440951Y70712950D02*
X65679046Y70712950D01*
X65679046Y70712950D02*
X65774284Y70760569D01*
X65774284Y70760569D02*
X65821903Y70808188D01*
X65821903Y70808188D02*
X65869522Y70903426D01*
X65869522Y70903426D02*
X65869522Y71093902D01*
X65869522Y71093902D02*
X65821903Y71189140D01*
X65821903Y71189140D02*
X65774284Y71236759D01*
X65774284Y71236759D02*
X65679046Y71284378D01*
X65869522Y71712950D02*
X65869522Y72474854D01*
X66250475Y72951045D02*
X65250475Y72951045D01*
X65250475Y72951045D02*
X65964760Y73284378D01*
X65964760Y73284378D02*
X65250475Y73617711D01*
X65250475Y73617711D02*
X66250475Y73617711D01*
X66250475Y74093902D02*
X65250475Y74093902D01*
X66202856Y74522473D02*
X66250475Y74665330D01*
X66250475Y74665330D02*
X66250475Y74903425D01*
X66250475Y74903425D02*
X66202856Y74998663D01*
X66202856Y74998663D02*
X66155236Y75046282D01*
X66155236Y75046282D02*
X66059998Y75093901D01*
X66059998Y75093901D02*
X65964760Y75093901D01*
X65964760Y75093901D02*
X65869522Y75046282D01*
X65869522Y75046282D02*
X65821903Y74998663D01*
X65821903Y74998663D02*
X65774284Y74903425D01*
X65774284Y74903425D02*
X65726665Y74712949D01*
X65726665Y74712949D02*
X65679046Y74617711D01*
X65679046Y74617711D02*
X65631427Y74570092D01*
X65631427Y74570092D02*
X65536189Y74522473D01*
X65536189Y74522473D02*
X65440951Y74522473D01*
X65440951Y74522473D02*
X65345713Y74570092D01*
X65345713Y74570092D02*
X65298094Y74617711D01*
X65298094Y74617711D02*
X65250475Y74712949D01*
X65250475Y74712949D02*
X65250475Y74951044D01*
X65250475Y74951044D02*
X65298094Y75093901D01*
X65250475Y75712949D02*
X65250475Y75903425D01*
X65250475Y75903425D02*
X65298094Y75998663D01*
X65298094Y75998663D02*
X65393332Y76093901D01*
X65393332Y76093901D02*
X65583808Y76141520D01*
X65583808Y76141520D02*
X65917141Y76141520D01*
X65917141Y76141520D02*
X66107617Y76093901D01*
X66107617Y76093901D02*
X66202856Y75998663D01*
X66202856Y75998663D02*
X66250475Y75903425D01*
X66250475Y75903425D02*
X66250475Y75712949D01*
X66250475Y75712949D02*
X66202856Y75617711D01*
X66202856Y75617711D02*
X66107617Y75522473D01*
X66107617Y75522473D02*
X65917141Y75474854D01*
X65917141Y75474854D02*
X65583808Y75474854D01*
X65583808Y75474854D02*
X65393332Y75522473D01*
X65393332Y75522473D02*
X65298094Y75617711D01*
X65298094Y75617711D02*
X65250475Y75712949D01*
X67860419Y71284378D02*
X67860419Y70712950D01*
X67860419Y70998664D02*
X66860419Y70998664D01*
X66860419Y70998664D02*
X67003276Y70903426D01*
X67003276Y70903426D02*
X67098514Y70808188D01*
X67098514Y70808188D02*
X67146133Y70712950D01*
X66860419Y71903426D02*
X66860419Y71998664D01*
X66860419Y71998664D02*
X66908038Y72093902D01*
X66908038Y72093902D02*
X66955657Y72141521D01*
X66955657Y72141521D02*
X67050895Y72189140D01*
X67050895Y72189140D02*
X67241371Y72236759D01*
X67241371Y72236759D02*
X67479466Y72236759D01*
X67479466Y72236759D02*
X67669942Y72189140D01*
X67669942Y72189140D02*
X67765180Y72141521D01*
X67765180Y72141521D02*
X67812800Y72093902D01*
X67812800Y72093902D02*
X67860419Y71998664D01*
X67860419Y71998664D02*
X67860419Y71903426D01*
X67860419Y71903426D02*
X67812800Y71808188D01*
X67812800Y71808188D02*
X67765180Y71760569D01*
X67765180Y71760569D02*
X67669942Y71712950D01*
X67669942Y71712950D02*
X67479466Y71665331D01*
X67479466Y71665331D02*
X67241371Y71665331D01*
X67241371Y71665331D02*
X67050895Y71712950D01*
X67050895Y71712950D02*
X66955657Y71760569D01*
X66955657Y71760569D02*
X66908038Y71808188D01*
X66908038Y71808188D02*
X66860419Y71903426D01*
X67479466Y72665331D02*
X67479466Y73427235D01*
X66908038Y74427235D02*
X66860419Y74331997D01*
X66860419Y74331997D02*
X66860419Y74189140D01*
X66860419Y74189140D02*
X66908038Y74046283D01*
X66908038Y74046283D02*
X67003276Y73951045D01*
X67003276Y73951045D02*
X67098514Y73903426D01*
X67098514Y73903426D02*
X67288990Y73855807D01*
X67288990Y73855807D02*
X67431847Y73855807D01*
X67431847Y73855807D02*
X67622323Y73903426D01*
X67622323Y73903426D02*
X67717561Y73951045D01*
X67717561Y73951045D02*
X67812800Y74046283D01*
X67812800Y74046283D02*
X67860419Y74189140D01*
X67860419Y74189140D02*
X67860419Y74284378D01*
X67860419Y74284378D02*
X67812800Y74427235D01*
X67812800Y74427235D02*
X67765180Y74474854D01*
X67765180Y74474854D02*
X67431847Y74474854D01*
X67431847Y74474854D02*
X67431847Y74284378D01*
X67860419Y74903426D02*
X66860419Y74903426D01*
X66860419Y74903426D02*
X67860419Y75474854D01*
X67860419Y75474854D02*
X66860419Y75474854D01*
X67860419Y75951045D02*
X66860419Y75951045D01*
X66860419Y75951045D02*
X66860419Y76189140D01*
X66860419Y76189140D02*
X66908038Y76331997D01*
X66908038Y76331997D02*
X67003276Y76427235D01*
X67003276Y76427235D02*
X67098514Y76474854D01*
X67098514Y76474854D02*
X67288990Y76522473D01*
X67288990Y76522473D02*
X67431847Y76522473D01*
X67431847Y76522473D02*
X67622323Y76474854D01*
X67622323Y76474854D02*
X67717561Y76427235D01*
X67717561Y76427235D02*
X67812800Y76331997D01*
X67812800Y76331997D02*
X67860419Y76189140D01*
X67860419Y76189140D02*
X67860419Y75951045D01*
D10*
X21275922Y106540181D02*
X21609255Y105540181D01*
X21609255Y105540181D02*
X21942588Y106540181D01*
X22275922Y105921134D02*
X23037827Y105921134D01*
X22656874Y105540181D02*
X22656874Y106302086D01*
X25609779Y105540181D02*
X25609779Y106540181D01*
X25609779Y106540181D02*
X25847874Y106540181D01*
X25847874Y106540181D02*
X25990731Y106492562D01*
X25990731Y106492562D02*
X26085969Y106397324D01*
X26085969Y106397324D02*
X26133588Y106302086D01*
X26133588Y106302086D02*
X26181207Y106111610D01*
X26181207Y106111610D02*
X26181207Y105968753D01*
X26181207Y105968753D02*
X26133588Y105778277D01*
X26133588Y105778277D02*
X26085969Y105683039D01*
X26085969Y105683039D02*
X25990731Y105587800D01*
X25990731Y105587800D02*
X25847874Y105540181D01*
X25847874Y105540181D02*
X25609779Y105540181D01*
X26466922Y106540181D02*
X27038350Y106540181D01*
X26752636Y105540181D02*
X26752636Y106540181D01*
X29562588Y106492562D02*
X29467350Y106540181D01*
X29467350Y106540181D02*
X29324493Y106540181D01*
X29324493Y106540181D02*
X29181636Y106492562D01*
X29181636Y106492562D02*
X29086398Y106397324D01*
X29086398Y106397324D02*
X29038779Y106302086D01*
X29038779Y106302086D02*
X28991160Y106111610D01*
X28991160Y106111610D02*
X28991160Y105968753D01*
X28991160Y105968753D02*
X29038779Y105778277D01*
X29038779Y105778277D02*
X29086398Y105683039D01*
X29086398Y105683039D02*
X29181636Y105587800D01*
X29181636Y105587800D02*
X29324493Y105540181D01*
X29324493Y105540181D02*
X29419731Y105540181D01*
X29419731Y105540181D02*
X29562588Y105587800D01*
X29562588Y105587800D02*
X29610207Y105635420D01*
X29610207Y105635420D02*
X29610207Y105968753D01*
X29610207Y105968753D02*
X29419731Y105968753D01*
X30038779Y105540181D02*
X30038779Y106540181D01*
X30038779Y106540181D02*
X30610207Y105540181D01*
X30610207Y105540181D02*
X30610207Y106540181D01*
X31086398Y105540181D02*
X31086398Y106540181D01*
X31086398Y106540181D02*
X31324493Y106540181D01*
X31324493Y106540181D02*
X31467350Y106492562D01*
X31467350Y106492562D02*
X31562588Y106397324D01*
X31562588Y106397324D02*
X31610207Y106302086D01*
X31610207Y106302086D02*
X31657826Y106111610D01*
X31657826Y106111610D02*
X31657826Y105968753D01*
X31657826Y105968753D02*
X31610207Y105778277D01*
X31610207Y105778277D02*
X31562588Y105683039D01*
X31562588Y105683039D02*
X31467350Y105587800D01*
X31467350Y105587800D02*
X31324493Y105540181D01*
X31324493Y105540181D02*
X31086398Y105540181D01*
D11*
X16258530Y109951372D02*
X17115673Y109951372D01*
X16687101Y108451372D02*
X16687101Y109951372D01*
X18187101Y108522800D02*
X18044244Y108451372D01*
X18044244Y108451372D02*
X17758530Y108451372D01*
X17758530Y108451372D02*
X17615672Y108522800D01*
X17615672Y108522800D02*
X17544244Y108665658D01*
X17544244Y108665658D02*
X17544244Y109237086D01*
X17544244Y109237086D02*
X17615672Y109379943D01*
X17615672Y109379943D02*
X17758530Y109451372D01*
X17758530Y109451372D02*
X18044244Y109451372D01*
X18044244Y109451372D02*
X18187101Y109379943D01*
X18187101Y109379943D02*
X18258530Y109237086D01*
X18258530Y109237086D02*
X18258530Y109094229D01*
X18258530Y109094229D02*
X17544244Y108951372D01*
X18901386Y109451372D02*
X18901386Y107951372D01*
X18901386Y109379943D02*
X19044244Y109451372D01*
X19044244Y109451372D02*
X19329958Y109451372D01*
X19329958Y109451372D02*
X19472815Y109379943D01*
X19472815Y109379943D02*
X19544244Y109308515D01*
X19544244Y109308515D02*
X19615672Y109165658D01*
X19615672Y109165658D02*
X19615672Y108737086D01*
X19615672Y108737086D02*
X19544244Y108594229D01*
X19544244Y108594229D02*
X19472815Y108522800D01*
X19472815Y108522800D02*
X19329958Y108451372D01*
X19329958Y108451372D02*
X19044244Y108451372D01*
X19044244Y108451372D02*
X18901386Y108522800D01*
X20472815Y108451372D02*
X20329958Y108522800D01*
X20329958Y108522800D02*
X20258529Y108665658D01*
X20258529Y108665658D02*
X20258529Y109951372D01*
X21258529Y108451372D02*
X21115672Y108522800D01*
X21115672Y108522800D02*
X21044243Y108594229D01*
X21044243Y108594229D02*
X20972815Y108737086D01*
X20972815Y108737086D02*
X20972815Y109165658D01*
X20972815Y109165658D02*
X21044243Y109308515D01*
X21044243Y109308515D02*
X21115672Y109379943D01*
X21115672Y109379943D02*
X21258529Y109451372D01*
X21258529Y109451372D02*
X21472815Y109451372D01*
X21472815Y109451372D02*
X21615672Y109379943D01*
X21615672Y109379943D02*
X21687101Y109308515D01*
X21687101Y109308515D02*
X21758529Y109165658D01*
X21758529Y109165658D02*
X21758529Y108737086D01*
X21758529Y108737086D02*
X21687101Y108594229D01*
X21687101Y108594229D02*
X21615672Y108522800D01*
X21615672Y108522800D02*
X21472815Y108451372D01*
X21472815Y108451372D02*
X21258529Y108451372D01*
X22401386Y108451372D02*
X22401386Y109451372D01*
X22401386Y109308515D02*
X22472815Y109379943D01*
X22472815Y109379943D02*
X22615672Y109451372D01*
X22615672Y109451372D02*
X22829958Y109451372D01*
X22829958Y109451372D02*
X22972815Y109379943D01*
X22972815Y109379943D02*
X23044244Y109237086D01*
X23044244Y109237086D02*
X23044244Y108451372D01*
X23044244Y109237086D02*
X23115672Y109379943D01*
X23115672Y109379943D02*
X23258529Y109451372D01*
X23258529Y109451372D02*
X23472815Y109451372D01*
X23472815Y109451372D02*
X23615672Y109379943D01*
X23615672Y109379943D02*
X23687101Y109237086D01*
X23687101Y109237086D02*
X23687101Y108451372D01*
X24972815Y108522800D02*
X24829958Y108451372D01*
X24829958Y108451372D02*
X24544244Y108451372D01*
X24544244Y108451372D02*
X24401386Y108522800D01*
X24401386Y108522800D02*
X24329958Y108665658D01*
X24329958Y108665658D02*
X24329958Y109237086D01*
X24329958Y109237086D02*
X24401386Y109379943D01*
X24401386Y109379943D02*
X24544244Y109451372D01*
X24544244Y109451372D02*
X24829958Y109451372D01*
X24829958Y109451372D02*
X24972815Y109379943D01*
X24972815Y109379943D02*
X25044244Y109237086D01*
X25044244Y109237086D02*
X25044244Y109094229D01*
X25044244Y109094229D02*
X24329958Y108951372D01*
X24401386Y110022800D02*
X24687101Y109808515D01*
X24687101Y109808515D02*
X24972815Y110022800D01*
X25687100Y108451372D02*
X25687100Y109451372D01*
X25687100Y109165658D02*
X25758529Y109308515D01*
X25758529Y109308515D02*
X25829958Y109379943D01*
X25829958Y109379943D02*
X25972815Y109451372D01*
X25972815Y109451372D02*
X26115672Y109451372D01*
X27758528Y109022800D02*
X28901386Y109022800D01*
X30758528Y108451372D02*
X30758528Y109951372D01*
X30758528Y109951372D02*
X31115671Y109951372D01*
X31115671Y109951372D02*
X31329957Y109879943D01*
X31329957Y109879943D02*
X31472814Y109737086D01*
X31472814Y109737086D02*
X31544243Y109594229D01*
X31544243Y109594229D02*
X31615671Y109308515D01*
X31615671Y109308515D02*
X31615671Y109094229D01*
X31615671Y109094229D02*
X31544243Y108808515D01*
X31544243Y108808515D02*
X31472814Y108665658D01*
X31472814Y108665658D02*
X31329957Y108522800D01*
X31329957Y108522800D02*
X31115671Y108451372D01*
X31115671Y108451372D02*
X30758528Y108451372D01*
X32187100Y108522800D02*
X32401386Y108451372D01*
X32401386Y108451372D02*
X32758528Y108451372D01*
X32758528Y108451372D02*
X32901386Y108522800D01*
X32901386Y108522800D02*
X32972814Y108594229D01*
X32972814Y108594229D02*
X33044243Y108737086D01*
X33044243Y108737086D02*
X33044243Y108879943D01*
X33044243Y108879943D02*
X32972814Y109022800D01*
X32972814Y109022800D02*
X32901386Y109094229D01*
X32901386Y109094229D02*
X32758528Y109165658D01*
X32758528Y109165658D02*
X32472814Y109237086D01*
X32472814Y109237086D02*
X32329957Y109308515D01*
X32329957Y109308515D02*
X32258528Y109379943D01*
X32258528Y109379943D02*
X32187100Y109522800D01*
X32187100Y109522800D02*
X32187100Y109665658D01*
X32187100Y109665658D02*
X32258528Y109808515D01*
X32258528Y109808515D02*
X32329957Y109879943D01*
X32329957Y109879943D02*
X32472814Y109951372D01*
X32472814Y109951372D02*
X32829957Y109951372D01*
X32829957Y109951372D02*
X33044243Y109879943D01*
X34472814Y108451372D02*
X33615671Y108451372D01*
X34044242Y108451372D02*
X34044242Y109951372D01*
X34044242Y109951372D02*
X33901385Y109737086D01*
X33901385Y109737086D02*
X33758528Y109594229D01*
X33758528Y109594229D02*
X33615671Y109522800D01*
X35329956Y109308515D02*
X35187099Y109379943D01*
X35187099Y109379943D02*
X35115670Y109451372D01*
X35115670Y109451372D02*
X35044242Y109594229D01*
X35044242Y109594229D02*
X35044242Y109665658D01*
X35044242Y109665658D02*
X35115670Y109808515D01*
X35115670Y109808515D02*
X35187099Y109879943D01*
X35187099Y109879943D02*
X35329956Y109951372D01*
X35329956Y109951372D02*
X35615670Y109951372D01*
X35615670Y109951372D02*
X35758528Y109879943D01*
X35758528Y109879943D02*
X35829956Y109808515D01*
X35829956Y109808515D02*
X35901385Y109665658D01*
X35901385Y109665658D02*
X35901385Y109594229D01*
X35901385Y109594229D02*
X35829956Y109451372D01*
X35829956Y109451372D02*
X35758528Y109379943D01*
X35758528Y109379943D02*
X35615670Y109308515D01*
X35615670Y109308515D02*
X35329956Y109308515D01*
X35329956Y109308515D02*
X35187099Y109237086D01*
X35187099Y109237086D02*
X35115670Y109165658D01*
X35115670Y109165658D02*
X35044242Y109022800D01*
X35044242Y109022800D02*
X35044242Y108737086D01*
X35044242Y108737086D02*
X35115670Y108594229D01*
X35115670Y108594229D02*
X35187099Y108522800D01*
X35187099Y108522800D02*
X35329956Y108451372D01*
X35329956Y108451372D02*
X35615670Y108451372D01*
X35615670Y108451372D02*
X35758528Y108522800D01*
X35758528Y108522800D02*
X35829956Y108594229D01*
X35829956Y108594229D02*
X35901385Y108737086D01*
X35901385Y108737086D02*
X35901385Y109022800D01*
X35901385Y109022800D02*
X35829956Y109165658D01*
X35829956Y109165658D02*
X35758528Y109237086D01*
X35758528Y109237086D02*
X35615670Y109308515D01*
X37044241Y109237086D02*
X37258527Y109165658D01*
X37258527Y109165658D02*
X37329956Y109094229D01*
X37329956Y109094229D02*
X37401384Y108951372D01*
X37401384Y108951372D02*
X37401384Y108737086D01*
X37401384Y108737086D02*
X37329956Y108594229D01*
X37329956Y108594229D02*
X37258527Y108522800D01*
X37258527Y108522800D02*
X37115670Y108451372D01*
X37115670Y108451372D02*
X36544241Y108451372D01*
X36544241Y108451372D02*
X36544241Y109951372D01*
X36544241Y109951372D02*
X37044241Y109951372D01*
X37044241Y109951372D02*
X37187099Y109879943D01*
X37187099Y109879943D02*
X37258527Y109808515D01*
X37258527Y109808515D02*
X37329956Y109665658D01*
X37329956Y109665658D02*
X37329956Y109522800D01*
X37329956Y109522800D02*
X37258527Y109379943D01*
X37258527Y109379943D02*
X37187099Y109308515D01*
X37187099Y109308515D02*
X37044241Y109237086D01*
X37044241Y109237086D02*
X36544241Y109237086D01*
X37972813Y109808515D02*
X38044241Y109879943D01*
X38044241Y109879943D02*
X38187099Y109951372D01*
X38187099Y109951372D02*
X38544241Y109951372D01*
X38544241Y109951372D02*
X38687099Y109879943D01*
X38687099Y109879943D02*
X38758527Y109808515D01*
X38758527Y109808515D02*
X38829956Y109665658D01*
X38829956Y109665658D02*
X38829956Y109522800D01*
X38829956Y109522800D02*
X38758527Y109308515D01*
X38758527Y109308515D02*
X37901384Y108451372D01*
X37901384Y108451372D02*
X38829956Y108451372D01*
X39758527Y109951372D02*
X39901384Y109951372D01*
X39901384Y109951372D02*
X40044241Y109879943D01*
X40044241Y109879943D02*
X40115670Y109808515D01*
X40115670Y109808515D02*
X40187098Y109665658D01*
X40187098Y109665658D02*
X40258527Y109379943D01*
X40258527Y109379943D02*
X40258527Y109022800D01*
X40258527Y109022800D02*
X40187098Y108737086D01*
X40187098Y108737086D02*
X40115670Y108594229D01*
X40115670Y108594229D02*
X40044241Y108522800D01*
X40044241Y108522800D02*
X39901384Y108451372D01*
X39901384Y108451372D02*
X39758527Y108451372D01*
X39758527Y108451372D02*
X39615670Y108522800D01*
X39615670Y108522800D02*
X39544241Y108594229D01*
X39544241Y108594229D02*
X39472812Y108737086D01*
X39472812Y108737086D02*
X39401384Y109022800D01*
X39401384Y109022800D02*
X39401384Y109379943D01*
X39401384Y109379943D02*
X39472812Y109665658D01*
X39472812Y109665658D02*
X39544241Y109808515D01*
X39544241Y109808515D02*
X39615670Y109879943D01*
X39615670Y109879943D02*
X39758527Y109951372D01*
D10*
X23545095Y58285181D02*
X24116523Y58285181D01*
X23830809Y57285181D02*
X23830809Y58285181D01*
X25021285Y57285181D02*
X24687952Y57761372D01*
X24449857Y57285181D02*
X24449857Y58285181D01*
X24449857Y58285181D02*
X24830809Y58285181D01*
X24830809Y58285181D02*
X24926047Y58237562D01*
X24926047Y58237562D02*
X24973666Y58189943D01*
X24973666Y58189943D02*
X25021285Y58094705D01*
X25021285Y58094705D02*
X25021285Y57951848D01*
X25021285Y57951848D02*
X24973666Y57856610D01*
X24973666Y57856610D02*
X24926047Y57808991D01*
X24926047Y57808991D02*
X24830809Y57761372D01*
X24830809Y57761372D02*
X24449857Y57761372D01*
X25973666Y57285181D02*
X25402238Y57285181D01*
X25687952Y57285181D02*
X25687952Y58285181D01*
X25687952Y58285181D02*
X25592714Y58142324D01*
X25592714Y58142324D02*
X25497476Y58047086D01*
X25497476Y58047086D02*
X25402238Y57999467D01*
X12116523Y53785181D02*
X11545095Y53785181D01*
X11830809Y53785181D02*
X11830809Y54785181D01*
X11830809Y54785181D02*
X11735571Y54642324D01*
X11735571Y54642324D02*
X11640333Y54547086D01*
X11640333Y54547086D02*
X11545095Y54499467D01*
X12735571Y54785181D02*
X12830809Y54785181D01*
X12830809Y54785181D02*
X12926047Y54737562D01*
X12926047Y54737562D02*
X12973666Y54689943D01*
X12973666Y54689943D02*
X13021285Y54594705D01*
X13021285Y54594705D02*
X13068904Y54404229D01*
X13068904Y54404229D02*
X13068904Y54166134D01*
X13068904Y54166134D02*
X13021285Y53975658D01*
X13021285Y53975658D02*
X12973666Y53880420D01*
X12973666Y53880420D02*
X12926047Y53832800D01*
X12926047Y53832800D02*
X12830809Y53785181D01*
X12830809Y53785181D02*
X12735571Y53785181D01*
X12735571Y53785181D02*
X12640333Y53832800D01*
X12640333Y53832800D02*
X12592714Y53880420D01*
X12592714Y53880420D02*
X12545095Y53975658D01*
X12545095Y53975658D02*
X12497476Y54166134D01*
X12497476Y54166134D02*
X12497476Y54404229D01*
X12497476Y54404229D02*
X12545095Y54594705D01*
X12545095Y54594705D02*
X12592714Y54689943D01*
X12592714Y54689943D02*
X12640333Y54737562D01*
X12640333Y54737562D02*
X12735571Y54785181D01*
X12592714Y19285181D02*
X12021286Y19285181D01*
X12307000Y19285181D02*
X12307000Y20285181D01*
X12307000Y20285181D02*
X12211762Y20142324D01*
X12211762Y20142324D02*
X12116524Y20047086D01*
X12116524Y20047086D02*
X12021286Y19999467D01*
X17116524Y53785181D02*
X17307000Y53785181D01*
X17307000Y53785181D02*
X17402238Y53832800D01*
X17402238Y53832800D02*
X17449857Y53880420D01*
X17449857Y53880420D02*
X17545095Y54023277D01*
X17545095Y54023277D02*
X17592714Y54213753D01*
X17592714Y54213753D02*
X17592714Y54594705D01*
X17592714Y54594705D02*
X17545095Y54689943D01*
X17545095Y54689943D02*
X17497476Y54737562D01*
X17497476Y54737562D02*
X17402238Y54785181D01*
X17402238Y54785181D02*
X17211762Y54785181D01*
X17211762Y54785181D02*
X17116524Y54737562D01*
X17116524Y54737562D02*
X17068905Y54689943D01*
X17068905Y54689943D02*
X17021286Y54594705D01*
X17021286Y54594705D02*
X17021286Y54356610D01*
X17021286Y54356610D02*
X17068905Y54261372D01*
X17068905Y54261372D02*
X17116524Y54213753D01*
X17116524Y54213753D02*
X17211762Y54166134D01*
X17211762Y54166134D02*
X17402238Y54166134D01*
X17402238Y54166134D02*
X17497476Y54213753D01*
X17497476Y54213753D02*
X17545095Y54261372D01*
X17545095Y54261372D02*
X17592714Y54356610D01*
X17021286Y20189943D02*
X17068905Y20237562D01*
X17068905Y20237562D02*
X17164143Y20285181D01*
X17164143Y20285181D02*
X17402238Y20285181D01*
X17402238Y20285181D02*
X17497476Y20237562D01*
X17497476Y20237562D02*
X17545095Y20189943D01*
X17545095Y20189943D02*
X17592714Y20094705D01*
X17592714Y20094705D02*
X17592714Y19999467D01*
X17592714Y19999467D02*
X17545095Y19856610D01*
X17545095Y19856610D02*
X16973667Y19285181D01*
X16973667Y19285181D02*
X17592714Y19285181D01*
X24711762Y54356610D02*
X24616524Y54404229D01*
X24616524Y54404229D02*
X24568905Y54451848D01*
X24568905Y54451848D02*
X24521286Y54547086D01*
X24521286Y54547086D02*
X24521286Y54594705D01*
X24521286Y54594705D02*
X24568905Y54689943D01*
X24568905Y54689943D02*
X24616524Y54737562D01*
X24616524Y54737562D02*
X24711762Y54785181D01*
X24711762Y54785181D02*
X24902238Y54785181D01*
X24902238Y54785181D02*
X24997476Y54737562D01*
X24997476Y54737562D02*
X25045095Y54689943D01*
X25045095Y54689943D02*
X25092714Y54594705D01*
X25092714Y54594705D02*
X25092714Y54547086D01*
X25092714Y54547086D02*
X25045095Y54451848D01*
X25045095Y54451848D02*
X24997476Y54404229D01*
X24997476Y54404229D02*
X24902238Y54356610D01*
X24902238Y54356610D02*
X24711762Y54356610D01*
X24711762Y54356610D02*
X24616524Y54308991D01*
X24616524Y54308991D02*
X24568905Y54261372D01*
X24568905Y54261372D02*
X24521286Y54166134D01*
X24521286Y54166134D02*
X24521286Y53975658D01*
X24521286Y53975658D02*
X24568905Y53880420D01*
X24568905Y53880420D02*
X24616524Y53832800D01*
X24616524Y53832800D02*
X24711762Y53785181D01*
X24711762Y53785181D02*
X24902238Y53785181D01*
X24902238Y53785181D02*
X24997476Y53832800D01*
X24997476Y53832800D02*
X25045095Y53880420D01*
X25045095Y53880420D02*
X25092714Y53975658D01*
X25092714Y53975658D02*
X25092714Y54166134D01*
X25092714Y54166134D02*
X25045095Y54261372D01*
X25045095Y54261372D02*
X24997476Y54308991D01*
X24997476Y54308991D02*
X24902238Y54356610D01*
X24473667Y20285181D02*
X25092714Y20285181D01*
X25092714Y20285181D02*
X24759381Y19904229D01*
X24759381Y19904229D02*
X24902238Y19904229D01*
X24902238Y19904229D02*
X24997476Y19856610D01*
X24997476Y19856610D02*
X25045095Y19808991D01*
X25045095Y19808991D02*
X25092714Y19713753D01*
X25092714Y19713753D02*
X25092714Y19475658D01*
X25092714Y19475658D02*
X25045095Y19380420D01*
X25045095Y19380420D02*
X24997476Y19332800D01*
X24997476Y19332800D02*
X24902238Y19285181D01*
X24902238Y19285181D02*
X24616524Y19285181D01*
X24616524Y19285181D02*
X24521286Y19332800D01*
X24521286Y19332800D02*
X24473667Y19380420D01*
X31973667Y54785181D02*
X32640333Y54785181D01*
X32640333Y54785181D02*
X32211762Y53785181D01*
X32497476Y19951848D02*
X32497476Y19285181D01*
X32259381Y20332800D02*
X32021286Y19618515D01*
X32021286Y19618515D02*
X32640333Y19618515D01*
X37497476Y54785181D02*
X37307000Y54785181D01*
X37307000Y54785181D02*
X37211762Y54737562D01*
X37211762Y54737562D02*
X37164143Y54689943D01*
X37164143Y54689943D02*
X37068905Y54547086D01*
X37068905Y54547086D02*
X37021286Y54356610D01*
X37021286Y54356610D02*
X37021286Y53975658D01*
X37021286Y53975658D02*
X37068905Y53880420D01*
X37068905Y53880420D02*
X37116524Y53832800D01*
X37116524Y53832800D02*
X37211762Y53785181D01*
X37211762Y53785181D02*
X37402238Y53785181D01*
X37402238Y53785181D02*
X37497476Y53832800D01*
X37497476Y53832800D02*
X37545095Y53880420D01*
X37545095Y53880420D02*
X37592714Y53975658D01*
X37592714Y53975658D02*
X37592714Y54213753D01*
X37592714Y54213753D02*
X37545095Y54308991D01*
X37545095Y54308991D02*
X37497476Y54356610D01*
X37497476Y54356610D02*
X37402238Y54404229D01*
X37402238Y54404229D02*
X37211762Y54404229D01*
X37211762Y54404229D02*
X37116524Y54356610D01*
X37116524Y54356610D02*
X37068905Y54308991D01*
X37068905Y54308991D02*
X37021286Y54213753D01*
X37545095Y20285181D02*
X37068905Y20285181D01*
X37068905Y20285181D02*
X37021286Y19808991D01*
X37021286Y19808991D02*
X37068905Y19856610D01*
X37068905Y19856610D02*
X37164143Y19904229D01*
X37164143Y19904229D02*
X37402238Y19904229D01*
X37402238Y19904229D02*
X37497476Y19856610D01*
X37497476Y19856610D02*
X37545095Y19808991D01*
X37545095Y19808991D02*
X37592714Y19713753D01*
X37592714Y19713753D02*
X37592714Y19475658D01*
X37592714Y19475658D02*
X37545095Y19380420D01*
X37545095Y19380420D02*
X37497476Y19332800D01*
X37497476Y19332800D02*
X37402238Y19285181D01*
X37402238Y19285181D02*
X37164143Y19285181D01*
X37164143Y19285181D02*
X37068905Y19332800D01*
X37068905Y19332800D02*
X37021286Y19380420D01*
X29315580Y68794334D02*
X29363200Y68746715D01*
X29363200Y68746715D02*
X29410819Y68603858D01*
X29410819Y68603858D02*
X29410819Y68508620D01*
X29410819Y68508620D02*
X29363200Y68365763D01*
X29363200Y68365763D02*
X29267961Y68270525D01*
X29267961Y68270525D02*
X29172723Y68222906D01*
X29172723Y68222906D02*
X28982247Y68175287D01*
X28982247Y68175287D02*
X28839390Y68175287D01*
X28839390Y68175287D02*
X28648914Y68222906D01*
X28648914Y68222906D02*
X28553676Y68270525D01*
X28553676Y68270525D02*
X28458438Y68365763D01*
X28458438Y68365763D02*
X28410819Y68508620D01*
X28410819Y68508620D02*
X28410819Y68603858D01*
X28410819Y68603858D02*
X28458438Y68746715D01*
X28458438Y68746715D02*
X28506057Y68794334D01*
X28506057Y69175287D02*
X28458438Y69222906D01*
X28458438Y69222906D02*
X28410819Y69318144D01*
X28410819Y69318144D02*
X28410819Y69556239D01*
X28410819Y69556239D02*
X28458438Y69651477D01*
X28458438Y69651477D02*
X28506057Y69699096D01*
X28506057Y69699096D02*
X28601295Y69746715D01*
X28601295Y69746715D02*
X28696533Y69746715D01*
X28696533Y69746715D02*
X28839390Y69699096D01*
X28839390Y69699096D02*
X29410819Y69127668D01*
X29410819Y69127668D02*
X29410819Y69746715D01*
X63358733Y102125981D02*
X63025400Y102602172D01*
X62787305Y102125981D02*
X62787305Y103125981D01*
X62787305Y103125981D02*
X63168257Y103125981D01*
X63168257Y103125981D02*
X63263495Y103078362D01*
X63263495Y103078362D02*
X63311114Y103030743D01*
X63311114Y103030743D02*
X63358733Y102935505D01*
X63358733Y102935505D02*
X63358733Y102792648D01*
X63358733Y102792648D02*
X63311114Y102697410D01*
X63311114Y102697410D02*
X63263495Y102649791D01*
X63263495Y102649791D02*
X63168257Y102602172D01*
X63168257Y102602172D02*
X62787305Y102602172D01*
X63739686Y103030743D02*
X63787305Y103078362D01*
X63787305Y103078362D02*
X63882543Y103125981D01*
X63882543Y103125981D02*
X64120638Y103125981D01*
X64120638Y103125981D02*
X64215876Y103078362D01*
X64215876Y103078362D02*
X64263495Y103030743D01*
X64263495Y103030743D02*
X64311114Y102935505D01*
X64311114Y102935505D02*
X64311114Y102840267D01*
X64311114Y102840267D02*
X64263495Y102697410D01*
X64263495Y102697410D02*
X63692067Y102125981D01*
X63692067Y102125981D02*
X64311114Y102125981D01*
X13041333Y75491181D02*
X12708000Y75967372D01*
X12469905Y75491181D02*
X12469905Y76491181D01*
X12469905Y76491181D02*
X12850857Y76491181D01*
X12850857Y76491181D02*
X12946095Y76443562D01*
X12946095Y76443562D02*
X12993714Y76395943D01*
X12993714Y76395943D02*
X13041333Y76300705D01*
X13041333Y76300705D02*
X13041333Y76157848D01*
X13041333Y76157848D02*
X12993714Y76062610D01*
X12993714Y76062610D02*
X12946095Y76014991D01*
X12946095Y76014991D02*
X12850857Y75967372D01*
X12850857Y75967372D02*
X12469905Y75967372D01*
X13993714Y75491181D02*
X13422286Y75491181D01*
X13708000Y75491181D02*
X13708000Y76491181D01*
X13708000Y76491181D02*
X13612762Y76348324D01*
X13612762Y76348324D02*
X13517524Y76253086D01*
X13517524Y76253086D02*
X13422286Y76205467D01*
X30654666Y12387991D02*
X30321333Y12387991D01*
X30321333Y11864181D02*
X30321333Y12864181D01*
X30321333Y12864181D02*
X30797523Y12864181D01*
X31130857Y12768943D02*
X31178476Y12816562D01*
X31178476Y12816562D02*
X31273714Y12864181D01*
X31273714Y12864181D02*
X31511809Y12864181D01*
X31511809Y12864181D02*
X31607047Y12816562D01*
X31607047Y12816562D02*
X31654666Y12768943D01*
X31654666Y12768943D02*
X31702285Y12673705D01*
X31702285Y12673705D02*
X31702285Y12578467D01*
X31702285Y12578467D02*
X31654666Y12435610D01*
X31654666Y12435610D02*
X31083238Y11864181D01*
X31083238Y11864181D02*
X31702285Y11864181D01*
X39301219Y92726134D02*
X38825028Y92392801D01*
X39301219Y92154706D02*
X38301219Y92154706D01*
X38301219Y92154706D02*
X38301219Y92535658D01*
X38301219Y92535658D02*
X38348838Y92630896D01*
X38348838Y92630896D02*
X38396457Y92678515D01*
X38396457Y92678515D02*
X38491695Y92726134D01*
X38491695Y92726134D02*
X38634552Y92726134D01*
X38634552Y92726134D02*
X38729790Y92678515D01*
X38729790Y92678515D02*
X38777409Y92630896D01*
X38777409Y92630896D02*
X38825028Y92535658D01*
X38825028Y92535658D02*
X38825028Y92154706D01*
X38301219Y93583277D02*
X38301219Y93392801D01*
X38301219Y93392801D02*
X38348838Y93297563D01*
X38348838Y93297563D02*
X38396457Y93249944D01*
X38396457Y93249944D02*
X38539314Y93154706D01*
X38539314Y93154706D02*
X38729790Y93107087D01*
X38729790Y93107087D02*
X39110742Y93107087D01*
X39110742Y93107087D02*
X39205980Y93154706D01*
X39205980Y93154706D02*
X39253600Y93202325D01*
X39253600Y93202325D02*
X39301219Y93297563D01*
X39301219Y93297563D02*
X39301219Y93488039D01*
X39301219Y93488039D02*
X39253600Y93583277D01*
X39253600Y93583277D02*
X39205980Y93630896D01*
X39205980Y93630896D02*
X39110742Y93678515D01*
X39110742Y93678515D02*
X38872647Y93678515D01*
X38872647Y93678515D02*
X38777409Y93630896D01*
X38777409Y93630896D02*
X38729790Y93583277D01*
X38729790Y93583277D02*
X38682171Y93488039D01*
X38682171Y93488039D02*
X38682171Y93297563D01*
X38682171Y93297563D02*
X38729790Y93202325D01*
X38729790Y93202325D02*
X38777409Y93154706D01*
X38777409Y93154706D02*
X38872647Y93107087D01*
X55031305Y49887981D02*
X55031305Y50887981D01*
X55031305Y50887981D02*
X55269400Y50887981D01*
X55269400Y50887981D02*
X55412257Y50840362D01*
X55412257Y50840362D02*
X55507495Y50745124D01*
X55507495Y50745124D02*
X55555114Y50649886D01*
X55555114Y50649886D02*
X55602733Y50459410D01*
X55602733Y50459410D02*
X55602733Y50316553D01*
X55602733Y50316553D02*
X55555114Y50126077D01*
X55555114Y50126077D02*
X55507495Y50030839D01*
X55507495Y50030839D02*
X55412257Y49935600D01*
X55412257Y49935600D02*
X55269400Y49887981D01*
X55269400Y49887981D02*
X55031305Y49887981D01*
X55983686Y50792743D02*
X56031305Y50840362D01*
X56031305Y50840362D02*
X56126543Y50887981D01*
X56126543Y50887981D02*
X56364638Y50887981D01*
X56364638Y50887981D02*
X56459876Y50840362D01*
X56459876Y50840362D02*
X56507495Y50792743D01*
X56507495Y50792743D02*
X56555114Y50697505D01*
X56555114Y50697505D02*
X56555114Y50602267D01*
X56555114Y50602267D02*
X56507495Y50459410D01*
X56507495Y50459410D02*
X55936067Y49887981D01*
X55936067Y49887981D02*
X56555114Y49887981D01*
X51697495Y51687981D02*
X51697495Y52687981D01*
X52268923Y51687981D02*
X51840352Y52259410D01*
X52268923Y52687981D02*
X51697495Y52116553D01*
X49349819Y62730143D02*
X48873628Y62396810D01*
X49349819Y62158715D02*
X48349819Y62158715D01*
X48349819Y62158715D02*
X48349819Y62539667D01*
X48349819Y62539667D02*
X48397438Y62634905D01*
X48397438Y62634905D02*
X48445057Y62682524D01*
X48445057Y62682524D02*
X48540295Y62730143D01*
X48540295Y62730143D02*
X48683152Y62730143D01*
X48683152Y62730143D02*
X48778390Y62682524D01*
X48778390Y62682524D02*
X48826009Y62634905D01*
X48826009Y62634905D02*
X48873628Y62539667D01*
X48873628Y62539667D02*
X48873628Y62158715D01*
X49349819Y63682524D02*
X49349819Y63111096D01*
X49349819Y63396810D02*
X48349819Y63396810D01*
X48349819Y63396810D02*
X48492676Y63301572D01*
X48492676Y63301572D02*
X48587914Y63206334D01*
X48587914Y63206334D02*
X48635533Y63111096D01*
X48349819Y64587286D02*
X48349819Y64111096D01*
X48349819Y64111096D02*
X48826009Y64063477D01*
X48826009Y64063477D02*
X48778390Y64111096D01*
X48778390Y64111096D02*
X48730771Y64206334D01*
X48730771Y64206334D02*
X48730771Y64444429D01*
X48730771Y64444429D02*
X48778390Y64539667D01*
X48778390Y64539667D02*
X48826009Y64587286D01*
X48826009Y64587286D02*
X48921247Y64634905D01*
X48921247Y64634905D02*
X49159342Y64634905D01*
X49159342Y64634905D02*
X49254580Y64587286D01*
X49254580Y64587286D02*
X49302200Y64539667D01*
X49302200Y64539667D02*
X49349819Y64444429D01*
X49349819Y64444429D02*
X49349819Y64206334D01*
X49349819Y64206334D02*
X49302200Y64111096D01*
X49302200Y64111096D02*
X49254580Y64063477D01*
X33299733Y67353220D02*
X33252114Y67305600D01*
X33252114Y67305600D02*
X33109257Y67257981D01*
X33109257Y67257981D02*
X33014019Y67257981D01*
X33014019Y67257981D02*
X32871162Y67305600D01*
X32871162Y67305600D02*
X32775924Y67400839D01*
X32775924Y67400839D02*
X32728305Y67496077D01*
X32728305Y67496077D02*
X32680686Y67686553D01*
X32680686Y67686553D02*
X32680686Y67829410D01*
X32680686Y67829410D02*
X32728305Y68019886D01*
X32728305Y68019886D02*
X32775924Y68115124D01*
X32775924Y68115124D02*
X32871162Y68210362D01*
X32871162Y68210362D02*
X33014019Y68257981D01*
X33014019Y68257981D02*
X33109257Y68257981D01*
X33109257Y68257981D02*
X33252114Y68210362D01*
X33252114Y68210362D02*
X33299733Y68162743D01*
X33775924Y67257981D02*
X33966400Y67257981D01*
X33966400Y67257981D02*
X34061638Y67305600D01*
X34061638Y67305600D02*
X34109257Y67353220D01*
X34109257Y67353220D02*
X34204495Y67496077D01*
X34204495Y67496077D02*
X34252114Y67686553D01*
X34252114Y67686553D02*
X34252114Y68067505D01*
X34252114Y68067505D02*
X34204495Y68162743D01*
X34204495Y68162743D02*
X34156876Y68210362D01*
X34156876Y68210362D02*
X34061638Y68257981D01*
X34061638Y68257981D02*
X33871162Y68257981D01*
X33871162Y68257981D02*
X33775924Y68210362D01*
X33775924Y68210362D02*
X33728305Y68162743D01*
X33728305Y68162743D02*
X33680686Y68067505D01*
X33680686Y68067505D02*
X33680686Y67829410D01*
X33680686Y67829410D02*
X33728305Y67734172D01*
X33728305Y67734172D02*
X33775924Y67686553D01*
X33775924Y67686553D02*
X33871162Y67638934D01*
X33871162Y67638934D02*
X34061638Y67638934D01*
X34061638Y67638934D02*
X34156876Y67686553D01*
X34156876Y67686553D02*
X34204495Y67734172D01*
X34204495Y67734172D02*
X34252114Y67829410D01*
X34567905Y61013181D02*
X34567905Y62013181D01*
X34567905Y62013181D02*
X34806000Y62013181D01*
X34806000Y62013181D02*
X34948857Y61965562D01*
X34948857Y61965562D02*
X35044095Y61870324D01*
X35044095Y61870324D02*
X35091714Y61775086D01*
X35091714Y61775086D02*
X35139333Y61584610D01*
X35139333Y61584610D02*
X35139333Y61441753D01*
X35139333Y61441753D02*
X35091714Y61251277D01*
X35091714Y61251277D02*
X35044095Y61156039D01*
X35044095Y61156039D02*
X34948857Y61060800D01*
X34948857Y61060800D02*
X34806000Y61013181D01*
X34806000Y61013181D02*
X34567905Y61013181D01*
X35472667Y62013181D02*
X36091714Y62013181D01*
X36091714Y62013181D02*
X35758381Y61632229D01*
X35758381Y61632229D02*
X35901238Y61632229D01*
X35901238Y61632229D02*
X35996476Y61584610D01*
X35996476Y61584610D02*
X36044095Y61536991D01*
X36044095Y61536991D02*
X36091714Y61441753D01*
X36091714Y61441753D02*
X36091714Y61203658D01*
X36091714Y61203658D02*
X36044095Y61108420D01*
X36044095Y61108420D02*
X35996476Y61060800D01*
X35996476Y61060800D02*
X35901238Y61013181D01*
X35901238Y61013181D02*
X35615524Y61013181D01*
X35615524Y61013181D02*
X35520286Y61060800D01*
X35520286Y61060800D02*
X35472667Y61108420D01*
X63034057Y66960762D02*
X62986438Y66865524D01*
X62986438Y66865524D02*
X62891200Y66770286D01*
X62891200Y66770286D02*
X62748342Y66627429D01*
X62748342Y66627429D02*
X62700723Y66532191D01*
X62700723Y66532191D02*
X62700723Y66436953D01*
X62938819Y66484572D02*
X62891200Y66389334D01*
X62891200Y66389334D02*
X62795961Y66294096D01*
X62795961Y66294096D02*
X62605485Y66246477D01*
X62605485Y66246477D02*
X62272152Y66246477D01*
X62272152Y66246477D02*
X62081676Y66294096D01*
X62081676Y66294096D02*
X61986438Y66389334D01*
X61986438Y66389334D02*
X61938819Y66484572D01*
X61938819Y66484572D02*
X61938819Y66675048D01*
X61938819Y66675048D02*
X61986438Y66770286D01*
X61986438Y66770286D02*
X62081676Y66865524D01*
X62081676Y66865524D02*
X62272152Y66913143D01*
X62272152Y66913143D02*
X62605485Y66913143D01*
X62605485Y66913143D02*
X62795961Y66865524D01*
X62795961Y66865524D02*
X62891200Y66770286D01*
X62891200Y66770286D02*
X62938819Y66675048D01*
X62938819Y66675048D02*
X62938819Y66484572D01*
X61938819Y67246477D02*
X61938819Y67865524D01*
X61938819Y67865524D02*
X62319771Y67532191D01*
X62319771Y67532191D02*
X62319771Y67675048D01*
X62319771Y67675048D02*
X62367390Y67770286D01*
X62367390Y67770286D02*
X62415009Y67817905D01*
X62415009Y67817905D02*
X62510247Y67865524D01*
X62510247Y67865524D02*
X62748342Y67865524D01*
X62748342Y67865524D02*
X62843580Y67817905D01*
X62843580Y67817905D02*
X62891200Y67770286D01*
X62891200Y67770286D02*
X62938819Y67675048D01*
X62938819Y67675048D02*
X62938819Y67389334D01*
X62938819Y67389334D02*
X62891200Y67294096D01*
X62891200Y67294096D02*
X62843580Y67246477D01*
X1201009Y66214667D02*
X1201009Y65881334D01*
X1724819Y65881334D02*
X724819Y65881334D01*
X724819Y65881334D02*
X724819Y66357524D01*
X1724819Y67262286D02*
X1724819Y66690858D01*
X1724819Y66976572D02*
X724819Y66976572D01*
X724819Y66976572D02*
X867676Y66881334D01*
X867676Y66881334D02*
X962914Y66786096D01*
X962914Y66786096D02*
X1010533Y66690858D01*
X54616219Y79289467D02*
X55330504Y79289467D01*
X55330504Y79289467D02*
X55473361Y79241848D01*
X55473361Y79241848D02*
X55568600Y79146610D01*
X55568600Y79146610D02*
X55616219Y79003753D01*
X55616219Y79003753D02*
X55616219Y78908515D01*
X54616219Y79670420D02*
X54616219Y80337086D01*
X54616219Y80337086D02*
X55616219Y79908515D01*
X54556819Y92067143D02*
X54080628Y91733810D01*
X54556819Y91495715D02*
X53556819Y91495715D01*
X53556819Y91495715D02*
X53556819Y91876667D01*
X53556819Y91876667D02*
X53604438Y91971905D01*
X53604438Y91971905D02*
X53652057Y92019524D01*
X53652057Y92019524D02*
X53747295Y92067143D01*
X53747295Y92067143D02*
X53890152Y92067143D01*
X53890152Y92067143D02*
X53985390Y92019524D01*
X53985390Y92019524D02*
X54033009Y91971905D01*
X54033009Y91971905D02*
X54080628Y91876667D01*
X54080628Y91876667D02*
X54080628Y91495715D01*
X54556819Y93019524D02*
X54556819Y92448096D01*
X54556819Y92733810D02*
X53556819Y92733810D01*
X53556819Y92733810D02*
X53699676Y92638572D01*
X53699676Y92638572D02*
X53794914Y92543334D01*
X53794914Y92543334D02*
X53842533Y92448096D01*
X53556819Y93638572D02*
X53556819Y93733810D01*
X53556819Y93733810D02*
X53604438Y93829048D01*
X53604438Y93829048D02*
X53652057Y93876667D01*
X53652057Y93876667D02*
X53747295Y93924286D01*
X53747295Y93924286D02*
X53937771Y93971905D01*
X53937771Y93971905D02*
X54175866Y93971905D01*
X54175866Y93971905D02*
X54366342Y93924286D01*
X54366342Y93924286D02*
X54461580Y93876667D01*
X54461580Y93876667D02*
X54509200Y93829048D01*
X54509200Y93829048D02*
X54556819Y93733810D01*
X54556819Y93733810D02*
X54556819Y93638572D01*
X54556819Y93638572D02*
X54509200Y93543334D01*
X54509200Y93543334D02*
X54461580Y93495715D01*
X54461580Y93495715D02*
X54366342Y93448096D01*
X54366342Y93448096D02*
X54175866Y93400477D01*
X54175866Y93400477D02*
X53937771Y93400477D01*
X53937771Y93400477D02*
X53747295Y93448096D01*
X53747295Y93448096D02*
X53652057Y93495715D01*
X53652057Y93495715D02*
X53604438Y93543334D01*
X53604438Y93543334D02*
X53556819Y93638572D01*
X44546619Y92616534D02*
X44070428Y92283201D01*
X44546619Y92045106D02*
X43546619Y92045106D01*
X43546619Y92045106D02*
X43546619Y92426058D01*
X43546619Y92426058D02*
X43594238Y92521296D01*
X43594238Y92521296D02*
X43641857Y92568915D01*
X43641857Y92568915D02*
X43737095Y92616534D01*
X43737095Y92616534D02*
X43879952Y92616534D01*
X43879952Y92616534D02*
X43975190Y92568915D01*
X43975190Y92568915D02*
X44022809Y92521296D01*
X44022809Y92521296D02*
X44070428Y92426058D01*
X44070428Y92426058D02*
X44070428Y92045106D01*
X43546619Y92949868D02*
X43546619Y93568915D01*
X43546619Y93568915D02*
X43927571Y93235582D01*
X43927571Y93235582D02*
X43927571Y93378439D01*
X43927571Y93378439D02*
X43975190Y93473677D01*
X43975190Y93473677D02*
X44022809Y93521296D01*
X44022809Y93521296D02*
X44118047Y93568915D01*
X44118047Y93568915D02*
X44356142Y93568915D01*
X44356142Y93568915D02*
X44451380Y93521296D01*
X44451380Y93521296D02*
X44499000Y93473677D01*
X44499000Y93473677D02*
X44546619Y93378439D01*
X44546619Y93378439D02*
X44546619Y93092725D01*
X44546619Y93092725D02*
X44499000Y92997487D01*
X44499000Y92997487D02*
X44451380Y92949868D01*
X24471333Y72411420D02*
X24423714Y72363800D01*
X24423714Y72363800D02*
X24280857Y72316181D01*
X24280857Y72316181D02*
X24185619Y72316181D01*
X24185619Y72316181D02*
X24042762Y72363800D01*
X24042762Y72363800D02*
X23947524Y72459039D01*
X23947524Y72459039D02*
X23899905Y72554277D01*
X23899905Y72554277D02*
X23852286Y72744753D01*
X23852286Y72744753D02*
X23852286Y72887610D01*
X23852286Y72887610D02*
X23899905Y73078086D01*
X23899905Y73078086D02*
X23947524Y73173324D01*
X23947524Y73173324D02*
X24042762Y73268562D01*
X24042762Y73268562D02*
X24185619Y73316181D01*
X24185619Y73316181D02*
X24280857Y73316181D01*
X24280857Y73316181D02*
X24423714Y73268562D01*
X24423714Y73268562D02*
X24471333Y73220943D01*
X25423714Y72316181D02*
X24852286Y72316181D01*
X25138000Y72316181D02*
X25138000Y73316181D01*
X25138000Y73316181D02*
X25042762Y73173324D01*
X25042762Y73173324D02*
X24947524Y73078086D01*
X24947524Y73078086D02*
X24852286Y73030467D01*
X18631819Y77978096D02*
X19441342Y77978096D01*
X19441342Y77978096D02*
X19536580Y78025715D01*
X19536580Y78025715D02*
X19584200Y78073334D01*
X19584200Y78073334D02*
X19631819Y78168572D01*
X19631819Y78168572D02*
X19631819Y78359048D01*
X19631819Y78359048D02*
X19584200Y78454286D01*
X19584200Y78454286D02*
X19536580Y78501905D01*
X19536580Y78501905D02*
X19441342Y78549524D01*
X19441342Y78549524D02*
X18631819Y78549524D01*
X19631819Y79549524D02*
X19631819Y78978096D01*
X19631819Y79263810D02*
X18631819Y79263810D01*
X18631819Y79263810D02*
X18774676Y79168572D01*
X18774676Y79168572D02*
X18869914Y79073334D01*
X18869914Y79073334D02*
X18917533Y78978096D01*
X37211095Y65442181D02*
X37211095Y64632658D01*
X37211095Y64632658D02*
X37258714Y64537420D01*
X37258714Y64537420D02*
X37306333Y64489800D01*
X37306333Y64489800D02*
X37401571Y64442181D01*
X37401571Y64442181D02*
X37592047Y64442181D01*
X37592047Y64442181D02*
X37687285Y64489800D01*
X37687285Y64489800D02*
X37734904Y64537420D01*
X37734904Y64537420D02*
X37782523Y64632658D01*
X37782523Y64632658D02*
X37782523Y65442181D01*
X38687285Y65108848D02*
X38687285Y64442181D01*
X38449190Y65489800D02*
X38211095Y64775515D01*
X38211095Y64775515D02*
X38830142Y64775515D01*
X52391457Y54921162D02*
X52343838Y54825924D01*
X52343838Y54825924D02*
X52248600Y54730686D01*
X52248600Y54730686D02*
X52105742Y54587829D01*
X52105742Y54587829D02*
X52058123Y54492591D01*
X52058123Y54492591D02*
X52058123Y54397353D01*
X52296219Y54444972D02*
X52248600Y54349734D01*
X52248600Y54349734D02*
X52153361Y54254496D01*
X52153361Y54254496D02*
X51962885Y54206877D01*
X51962885Y54206877D02*
X51629552Y54206877D01*
X51629552Y54206877D02*
X51439076Y54254496D01*
X51439076Y54254496D02*
X51343838Y54349734D01*
X51343838Y54349734D02*
X51296219Y54444972D01*
X51296219Y54444972D02*
X51296219Y54635448D01*
X51296219Y54635448D02*
X51343838Y54730686D01*
X51343838Y54730686D02*
X51439076Y54825924D01*
X51439076Y54825924D02*
X51629552Y54873543D01*
X51629552Y54873543D02*
X51962885Y54873543D01*
X51962885Y54873543D02*
X52153361Y54825924D01*
X52153361Y54825924D02*
X52248600Y54730686D01*
X52248600Y54730686D02*
X52296219Y54635448D01*
X52296219Y54635448D02*
X52296219Y54444972D01*
X51629552Y55730686D02*
X52296219Y55730686D01*
X51248600Y55492591D02*
X51962885Y55254496D01*
X51962885Y55254496D02*
X51962885Y55873543D01*
X52016819Y62730143D02*
X51540628Y62396810D01*
X52016819Y62158715D02*
X51016819Y62158715D01*
X51016819Y62158715D02*
X51016819Y62539667D01*
X51016819Y62539667D02*
X51064438Y62634905D01*
X51064438Y62634905D02*
X51112057Y62682524D01*
X51112057Y62682524D02*
X51207295Y62730143D01*
X51207295Y62730143D02*
X51350152Y62730143D01*
X51350152Y62730143D02*
X51445390Y62682524D01*
X51445390Y62682524D02*
X51493009Y62634905D01*
X51493009Y62634905D02*
X51540628Y62539667D01*
X51540628Y62539667D02*
X51540628Y62158715D01*
X52016819Y63682524D02*
X52016819Y63111096D01*
X52016819Y63396810D02*
X51016819Y63396810D01*
X51016819Y63396810D02*
X51159676Y63301572D01*
X51159676Y63301572D02*
X51254914Y63206334D01*
X51254914Y63206334D02*
X51302533Y63111096D01*
X51016819Y64015858D02*
X51016819Y64682524D01*
X51016819Y64682524D02*
X52016819Y64253953D01*
X37857133Y72747981D02*
X37380943Y72747981D01*
X37380943Y72747981D02*
X37380943Y73747981D01*
X38714276Y72747981D02*
X38142848Y72747981D01*
X38428562Y72747981D02*
X38428562Y73747981D01*
X38428562Y73747981D02*
X38333324Y73605124D01*
X38333324Y73605124D02*
X38238086Y73509886D01*
X38238086Y73509886D02*
X38142848Y73462267D01*
X54133761Y96604943D02*
X54038523Y96652562D01*
X54038523Y96652562D02*
X53943285Y96747800D01*
X53943285Y96747800D02*
X53800428Y96890658D01*
X53800428Y96890658D02*
X53705190Y96938277D01*
X53705190Y96938277D02*
X53609952Y96938277D01*
X53657571Y96700181D02*
X53562333Y96747800D01*
X53562333Y96747800D02*
X53467095Y96843039D01*
X53467095Y96843039D02*
X53419476Y97033515D01*
X53419476Y97033515D02*
X53419476Y97366848D01*
X53419476Y97366848D02*
X53467095Y97557324D01*
X53467095Y97557324D02*
X53562333Y97652562D01*
X53562333Y97652562D02*
X53657571Y97700181D01*
X53657571Y97700181D02*
X53848047Y97700181D01*
X53848047Y97700181D02*
X53943285Y97652562D01*
X53943285Y97652562D02*
X54038523Y97557324D01*
X54038523Y97557324D02*
X54086142Y97366848D01*
X54086142Y97366848D02*
X54086142Y97033515D01*
X54086142Y97033515D02*
X54038523Y96843039D01*
X54038523Y96843039D02*
X53943285Y96747800D01*
X53943285Y96747800D02*
X53848047Y96700181D01*
X53848047Y96700181D02*
X53657571Y96700181D01*
X54467095Y97604943D02*
X54514714Y97652562D01*
X54514714Y97652562D02*
X54609952Y97700181D01*
X54609952Y97700181D02*
X54848047Y97700181D01*
X54848047Y97700181D02*
X54943285Y97652562D01*
X54943285Y97652562D02*
X54990904Y97604943D01*
X54990904Y97604943D02*
X55038523Y97509705D01*
X55038523Y97509705D02*
X55038523Y97414467D01*
X55038523Y97414467D02*
X54990904Y97271610D01*
X54990904Y97271610D02*
X54419476Y96700181D01*
X54419476Y96700181D02*
X55038523Y96700181D01*
X24757142Y93398181D02*
X24423809Y93874372D01*
X24185714Y93398181D02*
X24185714Y94398181D01*
X24185714Y94398181D02*
X24566666Y94398181D01*
X24566666Y94398181D02*
X24661904Y94350562D01*
X24661904Y94350562D02*
X24709523Y94302943D01*
X24709523Y94302943D02*
X24757142Y94207705D01*
X24757142Y94207705D02*
X24757142Y94064848D01*
X24757142Y94064848D02*
X24709523Y93969610D01*
X24709523Y93969610D02*
X24661904Y93921991D01*
X24661904Y93921991D02*
X24566666Y93874372D01*
X24566666Y93874372D02*
X24185714Y93874372D01*
X25709523Y93398181D02*
X25138095Y93398181D01*
X25423809Y93398181D02*
X25423809Y94398181D01*
X25423809Y94398181D02*
X25328571Y94255324D01*
X25328571Y94255324D02*
X25233333Y94160086D01*
X25233333Y94160086D02*
X25138095Y94112467D01*
X26042857Y94398181D02*
X26661904Y94398181D01*
X26661904Y94398181D02*
X26328571Y94017229D01*
X26328571Y94017229D02*
X26471428Y94017229D01*
X26471428Y94017229D02*
X26566666Y93969610D01*
X26566666Y93969610D02*
X26614285Y93921991D01*
X26614285Y93921991D02*
X26661904Y93826753D01*
X26661904Y93826753D02*
X26661904Y93588658D01*
X26661904Y93588658D02*
X26614285Y93493420D01*
X26614285Y93493420D02*
X26566666Y93445800D01*
X26566666Y93445800D02*
X26471428Y93398181D01*
X26471428Y93398181D02*
X26185714Y93398181D01*
X26185714Y93398181D02*
X26090476Y93445800D01*
X26090476Y93445800D02*
X26042857Y93493420D01*
X62261761Y96731943D02*
X62166523Y96779562D01*
X62166523Y96779562D02*
X62071285Y96874800D01*
X62071285Y96874800D02*
X61928428Y97017658D01*
X61928428Y97017658D02*
X61833190Y97065277D01*
X61833190Y97065277D02*
X61737952Y97065277D01*
X61785571Y96827181D02*
X61690333Y96874800D01*
X61690333Y96874800D02*
X61595095Y96970039D01*
X61595095Y96970039D02*
X61547476Y97160515D01*
X61547476Y97160515D02*
X61547476Y97493848D01*
X61547476Y97493848D02*
X61595095Y97684324D01*
X61595095Y97684324D02*
X61690333Y97779562D01*
X61690333Y97779562D02*
X61785571Y97827181D01*
X61785571Y97827181D02*
X61976047Y97827181D01*
X61976047Y97827181D02*
X62071285Y97779562D01*
X62071285Y97779562D02*
X62166523Y97684324D01*
X62166523Y97684324D02*
X62214142Y97493848D01*
X62214142Y97493848D02*
X62214142Y97160515D01*
X62214142Y97160515D02*
X62166523Y96970039D01*
X62166523Y96970039D02*
X62071285Y96874800D01*
X62071285Y96874800D02*
X61976047Y96827181D01*
X61976047Y96827181D02*
X61785571Y96827181D01*
X63118904Y97827181D02*
X62642714Y97827181D01*
X62642714Y97827181D02*
X62595095Y97350991D01*
X62595095Y97350991D02*
X62642714Y97398610D01*
X62642714Y97398610D02*
X62737952Y97446229D01*
X62737952Y97446229D02*
X62976047Y97446229D01*
X62976047Y97446229D02*
X63071285Y97398610D01*
X63071285Y97398610D02*
X63118904Y97350991D01*
X63118904Y97350991D02*
X63166523Y97255753D01*
X63166523Y97255753D02*
X63166523Y97017658D01*
X63166523Y97017658D02*
X63118904Y96922420D01*
X63118904Y96922420D02*
X63071285Y96874800D01*
X63071285Y96874800D02*
X62976047Y96827181D01*
X62976047Y96827181D02*
X62737952Y96827181D01*
X62737952Y96827181D02*
X62642714Y96874800D01*
X62642714Y96874800D02*
X62595095Y96922420D01*
X34348219Y92726134D02*
X33872028Y92392801D01*
X34348219Y92154706D02*
X33348219Y92154706D01*
X33348219Y92154706D02*
X33348219Y92535658D01*
X33348219Y92535658D02*
X33395838Y92630896D01*
X33395838Y92630896D02*
X33443457Y92678515D01*
X33443457Y92678515D02*
X33538695Y92726134D01*
X33538695Y92726134D02*
X33681552Y92726134D01*
X33681552Y92726134D02*
X33776790Y92678515D01*
X33776790Y92678515D02*
X33824409Y92630896D01*
X33824409Y92630896D02*
X33872028Y92535658D01*
X33872028Y92535658D02*
X33872028Y92154706D01*
X33681552Y93583277D02*
X34348219Y93583277D01*
X33300600Y93345182D02*
X34014885Y93107087D01*
X34014885Y93107087D02*
X34014885Y93726134D01*
X62176819Y92067143D02*
X61700628Y91733810D01*
X62176819Y91495715D02*
X61176819Y91495715D01*
X61176819Y91495715D02*
X61176819Y91876667D01*
X61176819Y91876667D02*
X61224438Y91971905D01*
X61224438Y91971905D02*
X61272057Y92019524D01*
X61272057Y92019524D02*
X61367295Y92067143D01*
X61367295Y92067143D02*
X61510152Y92067143D01*
X61510152Y92067143D02*
X61605390Y92019524D01*
X61605390Y92019524D02*
X61653009Y91971905D01*
X61653009Y91971905D02*
X61700628Y91876667D01*
X61700628Y91876667D02*
X61700628Y91495715D01*
X62176819Y93019524D02*
X62176819Y92448096D01*
X62176819Y92733810D02*
X61176819Y92733810D01*
X61176819Y92733810D02*
X61319676Y92638572D01*
X61319676Y92638572D02*
X61414914Y92543334D01*
X61414914Y92543334D02*
X61462533Y92448096D01*
X62176819Y93971905D02*
X62176819Y93400477D01*
X62176819Y93686191D02*
X61176819Y93686191D01*
X61176819Y93686191D02*
X61319676Y93590953D01*
X61319676Y93590953D02*
X61414914Y93495715D01*
X61414914Y93495715D02*
X61462533Y93400477D01*
X31808219Y92850134D02*
X31332028Y92516801D01*
X31808219Y92278706D02*
X30808219Y92278706D01*
X30808219Y92278706D02*
X30808219Y92659658D01*
X30808219Y92659658D02*
X30855838Y92754896D01*
X30855838Y92754896D02*
X30903457Y92802515D01*
X30903457Y92802515D02*
X30998695Y92850134D01*
X30998695Y92850134D02*
X31141552Y92850134D01*
X31141552Y92850134D02*
X31236790Y92802515D01*
X31236790Y92802515D02*
X31284409Y92754896D01*
X31284409Y92754896D02*
X31332028Y92659658D01*
X31332028Y92659658D02*
X31332028Y92278706D01*
X31808219Y93326325D02*
X31808219Y93516801D01*
X31808219Y93516801D02*
X31760600Y93612039D01*
X31760600Y93612039D02*
X31712980Y93659658D01*
X31712980Y93659658D02*
X31570123Y93754896D01*
X31570123Y93754896D02*
X31379647Y93802515D01*
X31379647Y93802515D02*
X30998695Y93802515D01*
X30998695Y93802515D02*
X30903457Y93754896D01*
X30903457Y93754896D02*
X30855838Y93707277D01*
X30855838Y93707277D02*
X30808219Y93612039D01*
X30808219Y93612039D02*
X30808219Y93421563D01*
X30808219Y93421563D02*
X30855838Y93326325D01*
X30855838Y93326325D02*
X30903457Y93278706D01*
X30903457Y93278706D02*
X30998695Y93231087D01*
X30998695Y93231087D02*
X31236790Y93231087D01*
X31236790Y93231087D02*
X31332028Y93278706D01*
X31332028Y93278706D02*
X31379647Y93326325D01*
X31379647Y93326325D02*
X31427266Y93421563D01*
X31427266Y93421563D02*
X31427266Y93612039D01*
X31427266Y93612039D02*
X31379647Y93707277D01*
X31379647Y93707277D02*
X31332028Y93754896D01*
X31332028Y93754896D02*
X31236790Y93802515D01*
X55445819Y62857143D02*
X54969628Y62523810D01*
X55445819Y62285715D02*
X54445819Y62285715D01*
X54445819Y62285715D02*
X54445819Y62666667D01*
X54445819Y62666667D02*
X54493438Y62761905D01*
X54493438Y62761905D02*
X54541057Y62809524D01*
X54541057Y62809524D02*
X54636295Y62857143D01*
X54636295Y62857143D02*
X54779152Y62857143D01*
X54779152Y62857143D02*
X54874390Y62809524D01*
X54874390Y62809524D02*
X54922009Y62761905D01*
X54922009Y62761905D02*
X54969628Y62666667D01*
X54969628Y62666667D02*
X54969628Y62285715D01*
X55445819Y63809524D02*
X55445819Y63238096D01*
X55445819Y63523810D02*
X54445819Y63523810D01*
X54445819Y63523810D02*
X54588676Y63428572D01*
X54588676Y63428572D02*
X54683914Y63333334D01*
X54683914Y63333334D02*
X54731533Y63238096D01*
X54779152Y64666667D02*
X55445819Y64666667D01*
X54398200Y64428572D02*
X55112485Y64190477D01*
X55112485Y64190477D02*
X55112485Y64809524D01*
X41968219Y92596134D02*
X41492028Y92262801D01*
X41968219Y92024706D02*
X40968219Y92024706D01*
X40968219Y92024706D02*
X40968219Y92405658D01*
X40968219Y92405658D02*
X41015838Y92500896D01*
X41015838Y92500896D02*
X41063457Y92548515D01*
X41063457Y92548515D02*
X41158695Y92596134D01*
X41158695Y92596134D02*
X41301552Y92596134D01*
X41301552Y92596134D02*
X41396790Y92548515D01*
X41396790Y92548515D02*
X41444409Y92500896D01*
X41444409Y92500896D02*
X41492028Y92405658D01*
X41492028Y92405658D02*
X41492028Y92024706D01*
X40968219Y93500896D02*
X40968219Y93024706D01*
X40968219Y93024706D02*
X41444409Y92977087D01*
X41444409Y92977087D02*
X41396790Y93024706D01*
X41396790Y93024706D02*
X41349171Y93119944D01*
X41349171Y93119944D02*
X41349171Y93358039D01*
X41349171Y93358039D02*
X41396790Y93453277D01*
X41396790Y93453277D02*
X41444409Y93500896D01*
X41444409Y93500896D02*
X41539647Y93548515D01*
X41539647Y93548515D02*
X41777742Y93548515D01*
X41777742Y93548515D02*
X41872980Y93500896D01*
X41872980Y93500896D02*
X41920600Y93453277D01*
X41920600Y93453277D02*
X41968219Y93358039D01*
X41968219Y93358039D02*
X41968219Y93119944D01*
X41968219Y93119944D02*
X41920600Y93024706D01*
X41920600Y93024706D02*
X41872980Y92977087D01*
X63999419Y46257306D02*
X62999419Y46257306D01*
X63999419Y46828734D02*
X63427990Y46400163D01*
X62999419Y46828734D02*
X63570847Y46257306D01*
X63999419Y47781115D02*
X63999419Y47209687D01*
X63999419Y47495401D02*
X62999419Y47495401D01*
X62999419Y47495401D02*
X63142276Y47400163D01*
X63142276Y47400163D02*
X63237514Y47304925D01*
X63237514Y47304925D02*
X63285133Y47209687D01*
X54488733Y99727781D02*
X54155400Y100203972D01*
X53917305Y99727781D02*
X53917305Y100727781D01*
X53917305Y100727781D02*
X54298257Y100727781D01*
X54298257Y100727781D02*
X54393495Y100680162D01*
X54393495Y100680162D02*
X54441114Y100632543D01*
X54441114Y100632543D02*
X54488733Y100537305D01*
X54488733Y100537305D02*
X54488733Y100394448D01*
X54488733Y100394448D02*
X54441114Y100299210D01*
X54441114Y100299210D02*
X54393495Y100251591D01*
X54393495Y100251591D02*
X54298257Y100203972D01*
X54298257Y100203972D02*
X53917305Y100203972D01*
X55060162Y100299210D02*
X54964924Y100346829D01*
X54964924Y100346829D02*
X54917305Y100394448D01*
X54917305Y100394448D02*
X54869686Y100489686D01*
X54869686Y100489686D02*
X54869686Y100537305D01*
X54869686Y100537305D02*
X54917305Y100632543D01*
X54917305Y100632543D02*
X54964924Y100680162D01*
X54964924Y100680162D02*
X55060162Y100727781D01*
X55060162Y100727781D02*
X55250638Y100727781D01*
X55250638Y100727781D02*
X55345876Y100680162D01*
X55345876Y100680162D02*
X55393495Y100632543D01*
X55393495Y100632543D02*
X55441114Y100537305D01*
X55441114Y100537305D02*
X55441114Y100489686D01*
X55441114Y100489686D02*
X55393495Y100394448D01*
X55393495Y100394448D02*
X55345876Y100346829D01*
X55345876Y100346829D02*
X55250638Y100299210D01*
X55250638Y100299210D02*
X55060162Y100299210D01*
X55060162Y100299210D02*
X54964924Y100251591D01*
X54964924Y100251591D02*
X54917305Y100203972D01*
X54917305Y100203972D02*
X54869686Y100108734D01*
X54869686Y100108734D02*
X54869686Y99918258D01*
X54869686Y99918258D02*
X54917305Y99823020D01*
X54917305Y99823020D02*
X54964924Y99775400D01*
X54964924Y99775400D02*
X55060162Y99727781D01*
X55060162Y99727781D02*
X55250638Y99727781D01*
X55250638Y99727781D02*
X55345876Y99775400D01*
X55345876Y99775400D02*
X55393495Y99823020D01*
X55393495Y99823020D02*
X55441114Y99918258D01*
X55441114Y99918258D02*
X55441114Y100108734D01*
X55441114Y100108734D02*
X55393495Y100203972D01*
X55393495Y100203972D02*
X55345876Y100251591D01*
X55345876Y100251591D02*
X55250638Y100299210D01*
X36888219Y92596134D02*
X36412028Y92262801D01*
X36888219Y92024706D02*
X35888219Y92024706D01*
X35888219Y92024706D02*
X35888219Y92405658D01*
X35888219Y92405658D02*
X35935838Y92500896D01*
X35935838Y92500896D02*
X35983457Y92548515D01*
X35983457Y92548515D02*
X36078695Y92596134D01*
X36078695Y92596134D02*
X36221552Y92596134D01*
X36221552Y92596134D02*
X36316790Y92548515D01*
X36316790Y92548515D02*
X36364409Y92500896D01*
X36364409Y92500896D02*
X36412028Y92405658D01*
X36412028Y92405658D02*
X36412028Y92024706D01*
X35888219Y92929468D02*
X35888219Y93596134D01*
X35888219Y93596134D02*
X36888219Y93167563D01*
X41413133Y66899620D02*
X41365514Y66852000D01*
X41365514Y66852000D02*
X41222657Y66804381D01*
X41222657Y66804381D02*
X41127419Y66804381D01*
X41127419Y66804381D02*
X40984562Y66852000D01*
X40984562Y66852000D02*
X40889324Y66947239D01*
X40889324Y66947239D02*
X40841705Y67042477D01*
X40841705Y67042477D02*
X40794086Y67232953D01*
X40794086Y67232953D02*
X40794086Y67375810D01*
X40794086Y67375810D02*
X40841705Y67566286D01*
X40841705Y67566286D02*
X40889324Y67661524D01*
X40889324Y67661524D02*
X40984562Y67756762D01*
X40984562Y67756762D02*
X41127419Y67804381D01*
X41127419Y67804381D02*
X41222657Y67804381D01*
X41222657Y67804381D02*
X41365514Y67756762D01*
X41365514Y67756762D02*
X41413133Y67709143D01*
X41984562Y67375810D02*
X41889324Y67423429D01*
X41889324Y67423429D02*
X41841705Y67471048D01*
X41841705Y67471048D02*
X41794086Y67566286D01*
X41794086Y67566286D02*
X41794086Y67613905D01*
X41794086Y67613905D02*
X41841705Y67709143D01*
X41841705Y67709143D02*
X41889324Y67756762D01*
X41889324Y67756762D02*
X41984562Y67804381D01*
X41984562Y67804381D02*
X42175038Y67804381D01*
X42175038Y67804381D02*
X42270276Y67756762D01*
X42270276Y67756762D02*
X42317895Y67709143D01*
X42317895Y67709143D02*
X42365514Y67613905D01*
X42365514Y67613905D02*
X42365514Y67566286D01*
X42365514Y67566286D02*
X42317895Y67471048D01*
X42317895Y67471048D02*
X42270276Y67423429D01*
X42270276Y67423429D02*
X42175038Y67375810D01*
X42175038Y67375810D02*
X41984562Y67375810D01*
X41984562Y67375810D02*
X41889324Y67328191D01*
X41889324Y67328191D02*
X41841705Y67280572D01*
X41841705Y67280572D02*
X41794086Y67185334D01*
X41794086Y67185334D02*
X41794086Y66994858D01*
X41794086Y66994858D02*
X41841705Y66899620D01*
X41841705Y66899620D02*
X41889324Y66852000D01*
X41889324Y66852000D02*
X41984562Y66804381D01*
X41984562Y66804381D02*
X42175038Y66804381D01*
X42175038Y66804381D02*
X42270276Y66852000D01*
X42270276Y66852000D02*
X42317895Y66899620D01*
X42317895Y66899620D02*
X42365514Y66994858D01*
X42365514Y66994858D02*
X42365514Y67185334D01*
X42365514Y67185334D02*
X42317895Y67280572D01*
X42317895Y67280572D02*
X42270276Y67328191D01*
X42270276Y67328191D02*
X42175038Y67375810D01*
X32707342Y72741620D02*
X32659723Y72694000D01*
X32659723Y72694000D02*
X32516866Y72646381D01*
X32516866Y72646381D02*
X32421628Y72646381D01*
X32421628Y72646381D02*
X32278771Y72694000D01*
X32278771Y72694000D02*
X32183533Y72789239D01*
X32183533Y72789239D02*
X32135914Y72884477D01*
X32135914Y72884477D02*
X32088295Y73074953D01*
X32088295Y73074953D02*
X32088295Y73217810D01*
X32088295Y73217810D02*
X32135914Y73408286D01*
X32135914Y73408286D02*
X32183533Y73503524D01*
X32183533Y73503524D02*
X32278771Y73598762D01*
X32278771Y73598762D02*
X32421628Y73646381D01*
X32421628Y73646381D02*
X32516866Y73646381D01*
X32516866Y73646381D02*
X32659723Y73598762D01*
X32659723Y73598762D02*
X32707342Y73551143D01*
X33659723Y72646381D02*
X33088295Y72646381D01*
X33374009Y72646381D02*
X33374009Y73646381D01*
X33374009Y73646381D02*
X33278771Y73503524D01*
X33278771Y73503524D02*
X33183533Y73408286D01*
X33183533Y73408286D02*
X33088295Y73360667D01*
X34278771Y73646381D02*
X34374009Y73646381D01*
X34374009Y73646381D02*
X34469247Y73598762D01*
X34469247Y73598762D02*
X34516866Y73551143D01*
X34516866Y73551143D02*
X34564485Y73455905D01*
X34564485Y73455905D02*
X34612104Y73265429D01*
X34612104Y73265429D02*
X34612104Y73027334D01*
X34612104Y73027334D02*
X34564485Y72836858D01*
X34564485Y72836858D02*
X34516866Y72741620D01*
X34516866Y72741620D02*
X34469247Y72694000D01*
X34469247Y72694000D02*
X34374009Y72646381D01*
X34374009Y72646381D02*
X34278771Y72646381D01*
X34278771Y72646381D02*
X34183533Y72694000D01*
X34183533Y72694000D02*
X34135914Y72741620D01*
X34135914Y72741620D02*
X34088295Y72836858D01*
X34088295Y72836858D02*
X34040676Y73027334D01*
X34040676Y73027334D02*
X34040676Y73265429D01*
X34040676Y73265429D02*
X34088295Y73455905D01*
X34088295Y73455905D02*
X34135914Y73551143D01*
X34135914Y73551143D02*
X34183533Y73598762D01*
X34183533Y73598762D02*
X34278771Y73646381D01*
X63894619Y51330267D02*
X64608904Y51330267D01*
X64608904Y51330267D02*
X64751761Y51282648D01*
X64751761Y51282648D02*
X64847000Y51187410D01*
X64847000Y51187410D02*
X64894619Y51044553D01*
X64894619Y51044553D02*
X64894619Y50949315D01*
X63894619Y52235029D02*
X63894619Y52044553D01*
X63894619Y52044553D02*
X63942238Y51949315D01*
X63942238Y51949315D02*
X63989857Y51901696D01*
X63989857Y51901696D02*
X64132714Y51806458D01*
X64132714Y51806458D02*
X64323190Y51758839D01*
X64323190Y51758839D02*
X64704142Y51758839D01*
X64704142Y51758839D02*
X64799380Y51806458D01*
X64799380Y51806458D02*
X64847000Y51854077D01*
X64847000Y51854077D02*
X64894619Y51949315D01*
X64894619Y51949315D02*
X64894619Y52139791D01*
X64894619Y52139791D02*
X64847000Y52235029D01*
X64847000Y52235029D02*
X64799380Y52282648D01*
X64799380Y52282648D02*
X64704142Y52330267D01*
X64704142Y52330267D02*
X64466047Y52330267D01*
X64466047Y52330267D02*
X64370809Y52282648D01*
X64370809Y52282648D02*
X64323190Y52235029D01*
X64323190Y52235029D02*
X64275571Y52139791D01*
X64275571Y52139791D02*
X64275571Y51949315D01*
X64275571Y51949315D02*
X64323190Y51854077D01*
X64323190Y51854077D02*
X64370809Y51806458D01*
X64370809Y51806458D02*
X64466047Y51758839D01*
X61541819Y55903906D02*
X60541819Y55903906D01*
X60541819Y55903906D02*
X60541819Y56142001D01*
X60541819Y56142001D02*
X60589438Y56284858D01*
X60589438Y56284858D02*
X60684676Y56380096D01*
X60684676Y56380096D02*
X60779914Y56427715D01*
X60779914Y56427715D02*
X60970390Y56475334D01*
X60970390Y56475334D02*
X61113247Y56475334D01*
X61113247Y56475334D02*
X61303723Y56427715D01*
X61303723Y56427715D02*
X61398961Y56380096D01*
X61398961Y56380096D02*
X61494200Y56284858D01*
X61494200Y56284858D02*
X61541819Y56142001D01*
X61541819Y56142001D02*
X61541819Y55903906D01*
X61541819Y57427715D02*
X61541819Y56856287D01*
X61541819Y57142001D02*
X60541819Y57142001D01*
X60541819Y57142001D02*
X60684676Y57046763D01*
X60684676Y57046763D02*
X60779914Y56951525D01*
X60779914Y56951525D02*
X60827533Y56856287D01*
X59687719Y52590896D02*
X58687719Y52590896D01*
X59687719Y53162324D02*
X59116290Y52733753D01*
X58687719Y53162324D02*
X59259147Y52590896D01*
X58036619Y63111143D02*
X57560428Y62777810D01*
X58036619Y62539715D02*
X57036619Y62539715D01*
X57036619Y62539715D02*
X57036619Y62920667D01*
X57036619Y62920667D02*
X57084238Y63015905D01*
X57084238Y63015905D02*
X57131857Y63063524D01*
X57131857Y63063524D02*
X57227095Y63111143D01*
X57227095Y63111143D02*
X57369952Y63111143D01*
X57369952Y63111143D02*
X57465190Y63063524D01*
X57465190Y63063524D02*
X57512809Y63015905D01*
X57512809Y63015905D02*
X57560428Y62920667D01*
X57560428Y62920667D02*
X57560428Y62539715D01*
X58036619Y64063524D02*
X58036619Y63492096D01*
X58036619Y63777810D02*
X57036619Y63777810D01*
X57036619Y63777810D02*
X57179476Y63682572D01*
X57179476Y63682572D02*
X57274714Y63587334D01*
X57274714Y63587334D02*
X57322333Y63492096D01*
X57036619Y64920667D02*
X57036619Y64730191D01*
X57036619Y64730191D02*
X57084238Y64634953D01*
X57084238Y64634953D02*
X57131857Y64587334D01*
X57131857Y64587334D02*
X57274714Y64492096D01*
X57274714Y64492096D02*
X57465190Y64444477D01*
X57465190Y64444477D02*
X57846142Y64444477D01*
X57846142Y64444477D02*
X57941380Y64492096D01*
X57941380Y64492096D02*
X57989000Y64539715D01*
X57989000Y64539715D02*
X58036619Y64634953D01*
X58036619Y64634953D02*
X58036619Y64825429D01*
X58036619Y64825429D02*
X57989000Y64920667D01*
X57989000Y64920667D02*
X57941380Y64968286D01*
X57941380Y64968286D02*
X57846142Y65015905D01*
X57846142Y65015905D02*
X57608047Y65015905D01*
X57608047Y65015905D02*
X57512809Y64968286D01*
X57512809Y64968286D02*
X57465190Y64920667D01*
X57465190Y64920667D02*
X57417571Y64825429D01*
X57417571Y64825429D02*
X57417571Y64634953D01*
X57417571Y64634953D02*
X57465190Y64539715D01*
X57465190Y64539715D02*
X57512809Y64492096D01*
X57512809Y64492096D02*
X57608047Y64444477D01*
X19097666Y104304181D02*
X19097666Y103589896D01*
X19097666Y103589896D02*
X19050047Y103447039D01*
X19050047Y103447039D02*
X18954809Y103351800D01*
X18954809Y103351800D02*
X18811952Y103304181D01*
X18811952Y103304181D02*
X18716714Y103304181D01*
X20050047Y104304181D02*
X19573857Y104304181D01*
X19573857Y104304181D02*
X19526238Y103827991D01*
X19526238Y103827991D02*
X19573857Y103875610D01*
X19573857Y103875610D02*
X19669095Y103923229D01*
X19669095Y103923229D02*
X19907190Y103923229D01*
X19907190Y103923229D02*
X20002428Y103875610D01*
X20002428Y103875610D02*
X20050047Y103827991D01*
X20050047Y103827991D02*
X20097666Y103732753D01*
X20097666Y103732753D02*
X20097666Y103494658D01*
X20097666Y103494658D02*
X20050047Y103399420D01*
X20050047Y103399420D02*
X20002428Y103351800D01*
X20002428Y103351800D02*
X19907190Y103304181D01*
X19907190Y103304181D02*
X19669095Y103304181D01*
X19669095Y103304181D02*
X19573857Y103351800D01*
X19573857Y103351800D02*
X19526238Y103399420D01*
X68653819Y88638143D02*
X68177628Y88304810D01*
X68653819Y88066715D02*
X67653819Y88066715D01*
X67653819Y88066715D02*
X67653819Y88447667D01*
X67653819Y88447667D02*
X67701438Y88542905D01*
X67701438Y88542905D02*
X67749057Y88590524D01*
X67749057Y88590524D02*
X67844295Y88638143D01*
X67844295Y88638143D02*
X67987152Y88638143D01*
X67987152Y88638143D02*
X68082390Y88590524D01*
X68082390Y88590524D02*
X68130009Y88542905D01*
X68130009Y88542905D02*
X68177628Y88447667D01*
X68177628Y88447667D02*
X68177628Y88066715D01*
X68653819Y89590524D02*
X68653819Y89019096D01*
X68653819Y89304810D02*
X67653819Y89304810D01*
X67653819Y89304810D02*
X67796676Y89209572D01*
X67796676Y89209572D02*
X67891914Y89114334D01*
X67891914Y89114334D02*
X67939533Y89019096D01*
X67749057Y89971477D02*
X67701438Y90019096D01*
X67701438Y90019096D02*
X67653819Y90114334D01*
X67653819Y90114334D02*
X67653819Y90352429D01*
X67653819Y90352429D02*
X67701438Y90447667D01*
X67701438Y90447667D02*
X67749057Y90495286D01*
X67749057Y90495286D02*
X67844295Y90542905D01*
X67844295Y90542905D02*
X67939533Y90542905D01*
X67939533Y90542905D02*
X68082390Y90495286D01*
X68082390Y90495286D02*
X68653819Y89923858D01*
X68653819Y89923858D02*
X68653819Y90542905D01*
X46767761Y96223943D02*
X46672523Y96271562D01*
X46672523Y96271562D02*
X46577285Y96366800D01*
X46577285Y96366800D02*
X46434428Y96509658D01*
X46434428Y96509658D02*
X46339190Y96557277D01*
X46339190Y96557277D02*
X46243952Y96557277D01*
X46291571Y96319181D02*
X46196333Y96366800D01*
X46196333Y96366800D02*
X46101095Y96462039D01*
X46101095Y96462039D02*
X46053476Y96652515D01*
X46053476Y96652515D02*
X46053476Y96985848D01*
X46053476Y96985848D02*
X46101095Y97176324D01*
X46101095Y97176324D02*
X46196333Y97271562D01*
X46196333Y97271562D02*
X46291571Y97319181D01*
X46291571Y97319181D02*
X46482047Y97319181D01*
X46482047Y97319181D02*
X46577285Y97271562D01*
X46577285Y97271562D02*
X46672523Y97176324D01*
X46672523Y97176324D02*
X46720142Y96985848D01*
X46720142Y96985848D02*
X46720142Y96652515D01*
X46720142Y96652515D02*
X46672523Y96462039D01*
X46672523Y96462039D02*
X46577285Y96366800D01*
X46577285Y96366800D02*
X46482047Y96319181D01*
X46482047Y96319181D02*
X46291571Y96319181D01*
X47672523Y96319181D02*
X47101095Y96319181D01*
X47386809Y96319181D02*
X47386809Y97319181D01*
X47386809Y97319181D02*
X47291571Y97176324D01*
X47291571Y97176324D02*
X47196333Y97081086D01*
X47196333Y97081086D02*
X47101095Y97033467D01*
%TO.C,TR1*%
D12*
X2187000Y56360000D02*
X2187000Y18120000D01*
X2187000Y56360000D02*
X47427000Y56360000D01*
X7807000Y52740000D02*
X41807000Y52740000D01*
X7807000Y21740000D02*
X7807000Y52740000D01*
X41807000Y52740000D02*
X41807000Y21740000D01*
X41807000Y21740000D02*
X7807000Y21740000D01*
X47427000Y18120000D02*
X2187000Y18120000D01*
X47427000Y18120000D02*
X47427000Y56360000D01*
%TO.C,C2*%
X27919000Y68173548D02*
X27919000Y69596052D01*
X29739000Y68173548D02*
X29739000Y69596052D01*
%TO.C,R2*%
X65445400Y103586800D02*
X61605400Y103586800D01*
X65445400Y101746800D02*
X61605400Y101746800D01*
%TO.C,R1*%
X11313400Y76916800D02*
X15153400Y76916800D01*
X11313400Y75076800D02*
X15153400Y75076800D01*
%TO.C,F2*%
X30041400Y11042800D02*
X30041400Y9492800D01*
X30041400Y5742800D02*
X30041400Y7292800D01*
X36041400Y11042800D02*
X30041400Y11042800D01*
X36041400Y11042800D02*
X36041400Y9492800D01*
X36041400Y5742800D02*
X30041400Y5742800D01*
X36041400Y5742800D02*
X36041400Y7292800D01*
X45041400Y11042800D02*
X45041400Y9492800D01*
X45041400Y10892800D02*
X36041400Y10892800D01*
X45041400Y5892800D02*
X36041400Y5892800D01*
X45041400Y5742800D02*
X45041400Y7292800D01*
X45041400Y5742800D02*
X51041400Y5742800D01*
X51041400Y11042800D02*
X45041400Y11042800D01*
X51041400Y9492800D02*
X51041400Y11042800D01*
X51041400Y7292800D02*
X51041400Y5742800D01*
%TO.C,R6*%
X37954400Y90972800D02*
X37954400Y94812800D01*
X39794400Y90972800D02*
X39794400Y94812800D01*
%TO.C,D2*%
X52999400Y50342800D02*
X53649400Y50342800D01*
X54249400Y51462800D02*
X54249400Y49222800D01*
X54369400Y51462800D02*
X54369400Y49222800D01*
X54489400Y51462800D02*
X54489400Y49222800D01*
X58539400Y50342800D02*
X57889400Y50342800D01*
X53649400Y51462800D02*
X57889400Y51462800D01*
X57889400Y49222800D01*
X53649400Y49222800D01*
X53649400Y51462800D01*
%TO.C,R15*%
X48081400Y65272800D02*
X48081400Y61432800D01*
X49921400Y65272800D02*
X49921400Y61432800D01*
%TO.C,C9*%
X33727652Y70127800D02*
X33205148Y70127800D01*
X33727652Y68657800D02*
X33205148Y68657800D01*
%TO.C,D3*%
X28920600Y61993600D02*
X28920600Y59093600D01*
X28920600Y59093600D02*
X34020600Y59093600D01*
X34020600Y61993600D02*
X28920600Y61993600D01*
X34020600Y61293600D02*
X34020600Y61993600D01*
X34020600Y59093600D02*
X34020600Y59893600D01*
X34020600Y59893600D02*
G75*
G02*
X34020600Y61293600I0J700000D01*
G01*
%TO.C,Q3*%
X63971400Y62936800D02*
X67571400Y62936800D01*
X63959525Y62945059D02*
G75*
G02*
X64951400Y67236800I1811875J1841741D01*
G01*
X66551400Y67236800D02*
G75*
G02*
X67579845Y62959116I-780000J-2450000D01*
G01*
%TO.C,F1*%
X2391400Y80392800D02*
X3941400Y80392800D01*
X2391400Y74392800D02*
X2391400Y80392800D01*
X2391400Y74392800D02*
X3941400Y74392800D01*
X2391400Y65392800D02*
X2391400Y59392800D01*
X2391400Y65392800D02*
X3941400Y65392800D01*
X2541400Y65392800D02*
X2541400Y74392800D01*
X3941400Y59392800D02*
X2391400Y59392800D01*
X6141400Y59392800D02*
X7691400Y59392800D01*
X7541400Y65392800D02*
X7541400Y74392800D01*
X7691400Y80392800D02*
X6141400Y80392800D01*
X7691400Y74392800D02*
X6141400Y74392800D01*
X7691400Y74392800D02*
X7691400Y80392800D01*
X7691400Y65392800D02*
X6141400Y65392800D01*
X7691400Y59392800D02*
X7691400Y65392800D01*
%TO.C,J7*%
X56161400Y82272800D02*
X69081400Y82272800D01*
X56161400Y79622800D02*
X56161400Y82272800D01*
X56161400Y76972800D02*
X56161400Y78352800D01*
X57541400Y76972800D02*
X56161400Y76972800D01*
X58811400Y79622800D02*
X56161400Y79622800D01*
X58811400Y76972800D02*
X58811400Y79622800D01*
X58811400Y76972800D02*
X69081400Y76972800D01*
X69081400Y76972800D02*
X69081400Y82272800D01*
%TO.C,R10*%
X53156600Y91094800D02*
X53156600Y94934800D01*
X54996600Y91094800D02*
X54996600Y94934800D01*
%TO.C,R3*%
X43199800Y90993200D02*
X43199800Y94833200D01*
X45039800Y90993200D02*
X45039800Y94833200D01*
%TO.C,C1*%
X9711400Y65627800D02*
X9711400Y67157800D01*
X9751400Y65295800D02*
X9751400Y67489800D01*
X9791400Y65041800D02*
X9791400Y67743800D01*
X9831400Y64828800D02*
X9831400Y67956800D01*
X9871400Y64641800D02*
X9871400Y68143800D01*
X9911400Y64472800D02*
X9911400Y68312800D01*
X9951400Y64318800D02*
X9951400Y68466800D01*
X9991400Y64175800D02*
X9991400Y68609800D01*
X10031400Y64041800D02*
X10031400Y68743800D01*
X10071400Y63915800D02*
X10071400Y68869800D01*
X10111400Y63795800D02*
X10111400Y68989800D01*
X10151400Y63682800D02*
X10151400Y69102800D01*
X10191400Y63573800D02*
X10191400Y69211800D01*
X10231400Y63469800D02*
X10231400Y69315800D01*
X10271400Y63369800D02*
X10271400Y69415800D01*
X10311400Y63272800D02*
X10311400Y69512800D01*
X10351400Y63179800D02*
X10351400Y69605800D01*
X10391400Y63089800D02*
X10391400Y69695800D01*
X10431400Y63002800D02*
X10431400Y69782800D01*
X10471400Y62917800D02*
X10471400Y69867800D01*
X10511400Y62835800D02*
X10511400Y69949800D01*
X10551400Y62755800D02*
X10551400Y70029800D01*
X10591400Y62678800D02*
X10591400Y70106800D01*
X10631400Y62602800D02*
X10631400Y70182800D01*
X10671400Y62528800D02*
X10671400Y70256800D01*
X10711400Y62456800D02*
X10711400Y70328800D01*
X10751400Y62386800D02*
X10751400Y70398800D01*
X10791400Y62317800D02*
X10791400Y70467800D01*
X10831400Y62250800D02*
X10831400Y70534800D01*
X10871400Y62184800D02*
X10871400Y70600800D01*
X10911400Y62119800D02*
X10911400Y70665800D01*
X10951400Y62056800D02*
X10951400Y70728800D01*
X10991400Y61994800D02*
X10991400Y70790800D01*
X11031400Y61933800D02*
X11031400Y70851800D01*
X11071400Y61874800D02*
X11071400Y70910800D01*
X11111400Y61816800D02*
X11111400Y70968800D01*
X11151400Y61758800D02*
X11151400Y71026800D01*
X11191400Y61702800D02*
X11191400Y71082800D01*
X11231400Y61647800D02*
X11231400Y71137800D01*
X11271400Y61592800D02*
X11271400Y71192800D01*
X11311400Y61539800D02*
X11311400Y71245800D01*
X11351400Y61486800D02*
X11351400Y71298800D01*
X11391400Y61435800D02*
X11391400Y71349800D01*
X11431400Y61384800D02*
X11431400Y71400800D01*
X11471400Y61334800D02*
X11471400Y71450800D01*
X11511400Y61285800D02*
X11511400Y71499800D01*
X11551400Y61236800D02*
X11551400Y71548800D01*
X11591400Y61188800D02*
X11591400Y71596800D01*
X11631400Y61142800D02*
X11631400Y71642800D01*
X11671400Y61095800D02*
X11671400Y71689800D01*
X11711400Y61050800D02*
X11711400Y71734800D01*
X11751400Y61005800D02*
X11751400Y71779800D01*
X11791400Y60961800D02*
X11791400Y71823800D01*
X11831400Y60917800D02*
X11831400Y71867800D01*
X11871400Y60874800D02*
X11871400Y71910800D01*
X11911400Y60832800D02*
X11911400Y71952800D01*
X11951400Y60790800D02*
X11951400Y71994800D01*
X11991400Y60749800D02*
X11991400Y72035800D01*
X12031400Y60709800D02*
X12031400Y72075800D01*
X12071400Y60669800D02*
X12071400Y72115800D01*
X12111400Y60629800D02*
X12111400Y72155800D01*
X12151400Y60590800D02*
X12151400Y72194800D01*
X12191400Y60552800D02*
X12191400Y72232800D01*
X12231400Y60514800D02*
X12231400Y72270800D01*
X12271400Y60477800D02*
X12271400Y72307800D01*
X12311400Y60440800D02*
X12311400Y72344800D01*
X12351400Y60404800D02*
X12351400Y72380800D01*
X12391400Y60368800D02*
X12391400Y72416800D01*
X12431400Y60332800D02*
X12431400Y72452800D01*
X12471400Y60298800D02*
X12471400Y72486800D01*
X12511400Y60263800D02*
X12511400Y72521800D01*
X12551400Y60229800D02*
X12551400Y72555800D01*
X12591400Y60195800D02*
X12591400Y72589800D01*
X12631400Y67832800D02*
X12631400Y72622800D01*
X12631400Y60162800D02*
X12631400Y64952800D01*
X12671400Y67832800D02*
X12671400Y72654800D01*
X12671400Y60130800D02*
X12671400Y64952800D01*
X12711400Y67832800D02*
X12711400Y72687800D01*
X12711400Y60097800D02*
X12711400Y64952800D01*
X12751400Y67832800D02*
X12751400Y72719800D01*
X12751400Y60065800D02*
X12751400Y64952800D01*
X12791400Y67832800D02*
X12791400Y72750800D01*
X12791400Y60034800D02*
X12791400Y64952800D01*
X12831400Y67832800D02*
X12831400Y72781800D01*
X12831400Y60003800D02*
X12831400Y64952800D01*
X12871400Y67832800D02*
X12871400Y72812800D01*
X12871400Y59972800D02*
X12871400Y64952800D01*
X12911400Y67832800D02*
X12911400Y72842800D01*
X12911400Y59942800D02*
X12911400Y64952800D01*
X12951400Y67832800D02*
X12951400Y72872800D01*
X12951400Y59912800D02*
X12951400Y64952800D01*
X12991400Y67832800D02*
X12991400Y72901800D01*
X12991400Y59883800D02*
X12991400Y64952800D01*
X13031400Y67832800D02*
X13031400Y72931800D01*
X13031400Y59853800D02*
X13031400Y64952800D01*
X13071400Y67832800D02*
X13071400Y72959800D01*
X13071400Y59825800D02*
X13071400Y64952800D01*
X13111400Y67832800D02*
X13111400Y72988800D01*
X13111400Y59796800D02*
X13111400Y64952800D01*
X13151400Y67832800D02*
X13151400Y73016800D01*
X13151400Y59768800D02*
X13151400Y64952800D01*
X13191400Y67832800D02*
X13191400Y73043800D01*
X13191400Y59741800D02*
X13191400Y64952800D01*
X13231400Y67832800D02*
X13231400Y73071800D01*
X13231400Y59713800D02*
X13231400Y64952800D01*
X13271400Y67832800D02*
X13271400Y73098800D01*
X13271400Y59686800D02*
X13271400Y64952800D01*
X13311400Y67832800D02*
X13311400Y73124800D01*
X13311400Y59660800D02*
X13311400Y64952800D01*
X13351400Y67832800D02*
X13351400Y73151800D01*
X13351400Y59633800D02*
X13351400Y64952800D01*
X13391400Y67832800D02*
X13391400Y73177800D01*
X13391400Y59607800D02*
X13391400Y64952800D01*
X13431400Y67832800D02*
X13431400Y73202800D01*
X13431400Y59582800D02*
X13431400Y64952800D01*
X13471400Y67832800D02*
X13471400Y73227800D01*
X13471400Y59557800D02*
X13471400Y64952800D01*
X13511400Y67832800D02*
X13511400Y73252800D01*
X13511400Y59532800D02*
X13511400Y64952800D01*
X13551400Y67832800D02*
X13551400Y73277800D01*
X13551400Y59507800D02*
X13551400Y64952800D01*
X13591400Y67832800D02*
X13591400Y73301800D01*
X13591400Y59483800D02*
X13591400Y64952800D01*
X13631400Y67832800D02*
X13631400Y73325800D01*
X13631400Y59459800D02*
X13631400Y64952800D01*
X13671400Y67832800D02*
X13671400Y73349800D01*
X13671400Y59435800D02*
X13671400Y64952800D01*
X13711400Y67832800D02*
X13711400Y73373800D01*
X13711400Y59411800D02*
X13711400Y64952800D01*
X13751400Y67832800D02*
X13751400Y73396800D01*
X13751400Y59388800D02*
X13751400Y64952800D01*
X13791400Y67832800D02*
X13791400Y73418800D01*
X13791400Y59366800D02*
X13791400Y64952800D01*
X13831400Y67832800D02*
X13831400Y73441800D01*
X13831400Y59343800D02*
X13831400Y64952800D01*
X13871400Y67832800D02*
X13871400Y73463800D01*
X13871400Y59321800D02*
X13871400Y64952800D01*
X13911400Y67832800D02*
X13911400Y73485800D01*
X13911400Y59299800D02*
X13911400Y64952800D01*
X13951400Y67832800D02*
X13951400Y73507800D01*
X13951400Y59277800D02*
X13951400Y64952800D01*
X13991400Y67832800D02*
X13991400Y73528800D01*
X13991400Y59256800D02*
X13991400Y64952800D01*
X14031400Y67832800D02*
X14031400Y73549800D01*
X14031400Y59235800D02*
X14031400Y64952800D01*
X14071400Y67832800D02*
X14071400Y73570800D01*
X14071400Y59214800D02*
X14071400Y64952800D01*
X14111400Y67832800D02*
X14111400Y73590800D01*
X14111400Y59194800D02*
X14111400Y64952800D01*
X14151400Y67832800D02*
X14151400Y73610800D01*
X14151400Y59174800D02*
X14151400Y64952800D01*
X14191400Y67832800D02*
X14191400Y73630800D01*
X14191400Y59154800D02*
X14191400Y64952800D01*
X14231400Y67832800D02*
X14231400Y73650800D01*
X14231400Y59134800D02*
X14231400Y64952800D01*
X14271400Y67832800D02*
X14271400Y73669800D01*
X14271400Y59115800D02*
X14271400Y64952800D01*
X14311400Y67832800D02*
X14311400Y73688800D01*
X14311400Y59096800D02*
X14311400Y64952800D01*
X14351400Y67832800D02*
X14351400Y73707800D01*
X14351400Y59077800D02*
X14351400Y64952800D01*
X14391400Y67832800D02*
X14391400Y73726800D01*
X14391400Y59058800D02*
X14391400Y64952800D01*
X14431400Y67832800D02*
X14431400Y73744800D01*
X14431400Y59040800D02*
X14431400Y64952800D01*
X14471400Y67832800D02*
X14471400Y73762800D01*
X14471400Y59022800D02*
X14471400Y64952800D01*
X14511400Y67832800D02*
X14511400Y73780800D01*
X14511400Y59004800D02*
X14511400Y64952800D01*
X14551400Y67832800D02*
X14551400Y73798800D01*
X14551400Y58986800D02*
X14551400Y64952800D01*
X14591400Y67832800D02*
X14591400Y73815800D01*
X14591400Y58969800D02*
X14591400Y64952800D01*
X14631400Y67832800D02*
X14631400Y73832800D01*
X14631400Y58952800D02*
X14631400Y64952800D01*
X14671400Y67832800D02*
X14671400Y73849800D01*
X14671400Y58935800D02*
X14671400Y64952800D01*
X14711400Y67832800D02*
X14711400Y73865800D01*
X14711400Y58919800D02*
X14711400Y64952800D01*
X14751400Y67832800D02*
X14751400Y73881800D01*
X14751400Y58903800D02*
X14751400Y64952800D01*
X14791400Y67832800D02*
X14791400Y73897800D01*
X14791400Y58887800D02*
X14791400Y64952800D01*
X14831400Y67832800D02*
X14831400Y73913800D01*
X14831400Y58871800D02*
X14831400Y64952800D01*
X14871400Y67832800D02*
X14871400Y73929800D01*
X14871400Y58855800D02*
X14871400Y64952800D01*
X14911400Y67832800D02*
X14911400Y73944800D01*
X14911400Y58840800D02*
X14911400Y64952800D01*
X14951400Y67832800D02*
X14951400Y73959800D01*
X14951400Y58825800D02*
X14951400Y64952800D01*
X14991400Y67832800D02*
X14991400Y73974800D01*
X14991400Y58810800D02*
X14991400Y64952800D01*
X15031400Y67832800D02*
X15031400Y73989800D01*
X15031400Y58795800D02*
X15031400Y64952800D01*
X15071400Y67832800D02*
X15071400Y74003800D01*
X15071400Y58781800D02*
X15071400Y64952800D01*
X15111400Y67832800D02*
X15111400Y74017800D01*
X15111400Y58767800D02*
X15111400Y64952800D01*
X15151400Y67832800D02*
X15151400Y74031800D01*
X15151400Y58753800D02*
X15151400Y64952800D01*
X15191400Y67832800D02*
X15191400Y74044800D01*
X15191400Y58740800D02*
X15191400Y64952800D01*
X15231400Y67832800D02*
X15231400Y74058800D01*
X15231400Y58726800D02*
X15231400Y64952800D01*
X15271400Y67832800D02*
X15271400Y74071800D01*
X15271400Y58713800D02*
X15271400Y64952800D01*
X15311400Y67832800D02*
X15311400Y74084800D01*
X15311400Y58700800D02*
X15311400Y64952800D01*
X15351400Y67832800D02*
X15351400Y74097800D01*
X15351400Y58687800D02*
X15351400Y64952800D01*
X15391400Y67832800D02*
X15391400Y74109800D01*
X15391400Y58675800D02*
X15391400Y64952800D01*
X15431400Y67832800D02*
X15431400Y74121800D01*
X15431400Y58663800D02*
X15431400Y64952800D01*
X15471400Y67832800D02*
X15471400Y74134800D01*
X15471400Y58650800D02*
X15471400Y64952800D01*
X15511400Y58639800D02*
X15511400Y74145800D01*
X15551400Y58627800D02*
X15551400Y74157800D01*
X15591400Y58616800D02*
X15591400Y74168800D01*
X15631400Y58605800D02*
X15631400Y74179800D01*
X15671400Y58594800D02*
X15671400Y74190800D01*
X15711400Y58583800D02*
X15711400Y74201800D01*
X15751400Y58572800D02*
X15751400Y74212800D01*
X15791400Y58562800D02*
X15791400Y74222800D01*
X15831400Y58552800D02*
X15831400Y74232800D01*
X15871400Y58542800D02*
X15871400Y74242800D01*
X15911400Y58533800D02*
X15911400Y74251800D01*
X15951400Y58523800D02*
X15951400Y74261800D01*
X15991400Y58514800D02*
X15991400Y74270800D01*
X16031400Y58505800D02*
X16031400Y74279800D01*
X16071400Y58496800D02*
X16071400Y74288800D01*
X16111400Y58488800D02*
X16111400Y74296800D01*
X16151400Y58479800D02*
X16151400Y74305800D01*
X16191400Y58471800D02*
X16191400Y74313800D01*
X16231400Y58463800D02*
X16231400Y74321800D01*
X16271400Y58456800D02*
X16271400Y74328800D01*
X16311400Y58448800D02*
X16311400Y74336800D01*
X16351400Y58441800D02*
X16351400Y74343800D01*
X16391400Y58434800D02*
X16391400Y74350800D01*
X16431400Y58427800D02*
X16431400Y74357800D01*
X16471400Y58420800D02*
X16471400Y74364800D01*
X16511400Y58414800D02*
X16511400Y74370800D01*
X16551400Y58407800D02*
X16551400Y74377800D01*
X16591400Y58401800D02*
X16591400Y74383800D01*
X16631400Y58395800D02*
X16631400Y74389800D01*
X16671400Y58390800D02*
X16671400Y74394800D01*
X16711400Y58384800D02*
X16711400Y74400800D01*
X16751400Y58379800D02*
X16751400Y74405800D01*
X16791400Y58374800D02*
X16791400Y74410800D01*
X16831400Y58369800D02*
X16831400Y74415800D01*
X16871400Y58364800D02*
X16871400Y74420800D01*
X16911400Y58360800D02*
X16911400Y74424800D01*
X16951400Y58356800D02*
X16951400Y74428800D01*
X16991400Y58352800D02*
X16991400Y74432800D01*
X17031400Y58348800D02*
X17031400Y74436800D01*
X17071400Y58344800D02*
X17071400Y74440800D01*
X17111400Y58341800D02*
X17111400Y74443800D01*
X17151400Y58337800D02*
X17151400Y74447800D01*
X17191400Y58334800D02*
X17191400Y74450800D01*
X17231400Y58331800D02*
X17231400Y74453800D01*
X17271400Y58329800D02*
X17271400Y74455800D01*
X17311400Y58326800D02*
X17311400Y74458800D01*
X17351400Y58324800D02*
X17351400Y74460800D01*
X17391400Y58322800D02*
X17391400Y74462800D01*
X17431400Y58320800D02*
X17431400Y74464800D01*
X17471400Y58318800D02*
X17471400Y74466800D01*
X17511400Y58317800D02*
X17511400Y74467800D01*
X17551400Y58316800D02*
X17551400Y74468800D01*
X17591400Y58314800D02*
X17591400Y74470800D01*
X17631400Y58314800D02*
X17631400Y74470800D01*
X17671400Y58313800D02*
X17671400Y74471800D01*
X17711400Y58312800D02*
X17711400Y74472800D01*
X17751400Y58312800D02*
X17751400Y74472800D01*
X17791400Y58312800D02*
X17791400Y74472800D01*
X25680891Y61037800D02*
X25680891Y62637800D01*
X26480891Y61837800D02*
X24880891Y61837800D01*
X25911400Y66392800D02*
G75*
G02*
X9671400Y66392800I-8120000J0D01*
G01*
X9671400Y66392800D02*
G75*
G02*
X25911400Y66392800I8120000J0D01*
G01*
%TO.C,U1*%
X17201400Y82542800D02*
X17201400Y80892800D01*
X17201400Y78892800D02*
X17201400Y77242800D01*
X17201400Y77242800D02*
X52881400Y77242800D01*
X52881400Y82542800D02*
X17201400Y82542800D01*
X52881400Y77242800D02*
X52881400Y82542800D01*
X17201400Y80892800D02*
G75*
G02*
X17201400Y78892800I0J-1000000D01*
G01*
%TO.C,U4*%
X36993900Y68902800D02*
X38813900Y68902800D01*
X36993900Y68852800D02*
X36993900Y68902800D01*
X36993900Y65782800D02*
X36993900Y65832800D01*
X38813900Y68902800D02*
X38813900Y68852800D01*
X38813900Y65832800D02*
X38813900Y65782800D01*
X38813900Y65782800D02*
X36993900Y65782800D01*
X36453900Y68852800D02*
X36213900Y69182800D01*
X36693900Y69182800D01*
X36453900Y68852800D01*
G36*
X36453900Y68852800D02*
G01*
X36213900Y69182800D01*
X36693900Y69182800D01*
X36453900Y68852800D01*
G37*
%TO.C,Q4*%
X53241400Y54272800D02*
X56841400Y54272800D01*
X53229525Y54281059D02*
G75*
G02*
X54221400Y58572800I1811875J1841741D01*
G01*
X55821400Y58572800D02*
G75*
G02*
X56849845Y54295116I-780000J-2450000D01*
G01*
%TO.C,R17*%
X50621400Y65272800D02*
X50621400Y61432800D01*
X52461400Y65272800D02*
X52461400Y61432800D01*
%TO.C,L1*%
X38643464Y72252800D02*
X37439336Y72252800D01*
X38643464Y69532800D02*
X37439336Y69532800D01*
%TO.C,Q2*%
X55325400Y97304000D02*
X55325400Y93704000D01*
X55333659Y97315875D02*
G75*
G02*
X59625400Y96324000I1841741J-1811875D01*
G01*
X59625400Y94724000D02*
G75*
G02*
X55347716Y93695555I-2450000J780000D01*
G01*
%TO.C,R13*%
X27269200Y94773000D02*
X23429200Y94773000D01*
X27269200Y92933000D02*
X23429200Y92933000D01*
%TO.C,Q5*%
X63453400Y97354800D02*
X63453400Y93754800D01*
X63461659Y97366675D02*
G75*
G02*
X67753400Y96374800I1841741J-1811875D01*
G01*
X67753400Y94774800D02*
G75*
G02*
X63475716Y93746355I-2450000J780000D01*
G01*
%TO.C,R4*%
X33001400Y90972800D02*
X33001400Y94812800D01*
X34841400Y90972800D02*
X34841400Y94812800D01*
%TO.C,R11*%
X60776600Y91120200D02*
X60776600Y94960200D01*
X62616600Y91120200D02*
X62616600Y94960200D01*
%TO.C,R9*%
X30461400Y90972800D02*
X30461400Y94812800D01*
X32301400Y90972800D02*
X32301400Y94812800D01*
%TO.C,R14*%
X54081400Y65312800D02*
X54081400Y61472800D01*
X55921400Y65312800D02*
X55921400Y61472800D01*
%TO.C,R5*%
X40621400Y90972800D02*
X40621400Y94812800D01*
X42461400Y90972800D02*
X42461400Y94812800D01*
%TO.C,K1*%
X49044600Y47967400D02*
X49044600Y46467400D01*
X49244600Y47767400D02*
X49244600Y18367400D01*
X49244600Y18367400D02*
X62344600Y18367400D01*
X50544600Y47967400D02*
X49044600Y47967400D01*
X52044600Y42677400D02*
X52044600Y41407400D01*
X52044600Y41407400D02*
X53314600Y41407400D01*
X53314600Y42677400D02*
X53314600Y41407400D01*
X53314600Y41407400D02*
X53314600Y40137400D01*
X53314600Y40137400D02*
X58394600Y40137400D01*
D13*
X54584600Y42677400D02*
X55854600Y40137400D01*
D12*
X58394600Y42677400D02*
X53314600Y42677400D01*
X58394600Y41407400D02*
X59664600Y41407400D01*
X58394600Y40137400D02*
X58394600Y42677400D01*
X59664600Y41407400D02*
X59664600Y42677400D01*
X62344600Y47767400D02*
X49244600Y47767400D01*
X62344600Y18367400D02*
X62344600Y47767400D01*
%TO.C,R8*%
X56555400Y101220600D02*
X52715400Y101220600D01*
X56555400Y99380600D02*
X52715400Y99380600D01*
%TO.C,R7*%
X35541400Y90972800D02*
X35541400Y94812800D01*
X37381400Y90972800D02*
X37381400Y94812800D01*
%TO.C,C8*%
X40806400Y70191552D02*
X40806400Y69669048D01*
X42276400Y70191552D02*
X42276400Y69669048D01*
%TO.C,C10*%
X33727652Y72127800D02*
X33205148Y72127800D01*
X33727652Y70657800D02*
X33205148Y70657800D01*
%TO.C,J6*%
X63019900Y60762800D02*
X70859900Y60762800D01*
X63019900Y53522800D02*
X63019900Y60762800D01*
X69239900Y53522800D02*
X69239900Y60762800D01*
X70339900Y53522800D02*
X70339900Y60762800D01*
X70859900Y60762800D02*
X70859900Y55692800D01*
X70859900Y55092800D02*
X70859900Y53522800D01*
X70859900Y53522800D02*
X63019900Y53522800D01*
X71469900Y54952800D02*
X70859900Y55392800D01*
X71469900Y55832800D01*
X71469900Y54952800D01*
G36*
X71469900Y54952800D02*
G01*
X70859900Y55392800D01*
X71469900Y55832800D01*
X71469900Y54952800D01*
G37*
%TO.C,D1*%
X59912900Y55382800D02*
X62152900Y55382800D01*
X59912900Y55262800D02*
X62152900Y55262800D01*
X59912900Y55142800D02*
X62152900Y55142800D01*
X61032900Y59432800D02*
X61032900Y58782800D01*
X61032900Y53892800D02*
X61032900Y54542800D01*
X59912900Y58782800D02*
X62152900Y58782800D01*
X62152900Y54542800D01*
X59912900Y54542800D01*
X59912900Y58782800D01*
%TO.C,R16*%
X56621400Y65312800D02*
X56621400Y61472800D01*
X58461400Y65312800D02*
X58461400Y61472800D01*
%TO.C,J5*%
X20868200Y104696000D02*
X29438200Y104696000D01*
X20868200Y96856000D02*
X20868200Y104696000D01*
X30038200Y104696000D02*
X31608200Y104696000D01*
X31608200Y104696000D02*
X31608200Y96856000D01*
X31608200Y104176000D02*
X20868200Y104176000D01*
X31608200Y103076000D02*
X20868200Y103076000D01*
X31608200Y96856000D02*
X20868200Y96856000D01*
X29738200Y104696000D02*
X29298200Y105306000D01*
X30178200Y105306000D01*
X29738200Y104696000D01*
G36*
X29738200Y104696000D02*
G01*
X29298200Y105306000D01*
X30178200Y105306000D01*
X29738200Y104696000D01*
G37*
%TO.C,R12*%
X67126600Y87361000D02*
X67126600Y91201000D01*
X68966600Y87361000D02*
X68966600Y91201000D01*
%TO.C,Q1*%
X47947400Y97354800D02*
X47947400Y93754800D01*
X47955659Y97366675D02*
G75*
G02*
X52247400Y96374800I1841741J-1811875D01*
G01*
X52247400Y94774800D02*
G75*
G02*
X47969716Y93746355I-2450000J780000D01*
G01*
%TD*%
M02*
