%TF.GenerationSoftware,KiCad,Pcbnew,10.0.0*%
%TF.CreationDate,2026-04-10T13:29:42+02:00*%
%TF.ProjectId,DymBOX_AVR,44796d42-4f58-45f4-9156-522e6b696361,rev?*%
%TF.SameCoordinates,Original*%
%TF.FileFunction,Legend,Bot*%
%TF.FilePolarity,Positive*%
%FSLAX46Y46*%
G04 Gerber Fmt 4.6, Leading zero omitted, Abs format (unit mm)*
G04 Created by KiCad (PCBNEW 10.0.0) date 2026-04-10 13:29:42*
%MOMM*%
%LPD*%
G01*
G04 APERTURE LIST*
%ADD10C,0.150000*%
%ADD11C,0.120000*%
G04 APERTURE END LIST*
D10*
X69127200Y-72532667D02*
X69174819Y-72675524D01*
X69174819Y-72675524D02*
X69174819Y-72913619D01*
X69174819Y-72913619D02*
X69127200Y-73008857D01*
X69127200Y-73008857D02*
X69079580Y-73056476D01*
X69079580Y-73056476D02*
X68984342Y-73104095D01*
X68984342Y-73104095D02*
X68889104Y-73104095D01*
X68889104Y-73104095D02*
X68793866Y-73056476D01*
X68793866Y-73056476D02*
X68746247Y-73008857D01*
X68746247Y-73008857D02*
X68698628Y-72913619D01*
X68698628Y-72913619D02*
X68651009Y-72723143D01*
X68651009Y-72723143D02*
X68603390Y-72627905D01*
X68603390Y-72627905D02*
X68555771Y-72580286D01*
X68555771Y-72580286D02*
X68460533Y-72532667D01*
X68460533Y-72532667D02*
X68365295Y-72532667D01*
X68365295Y-72532667D02*
X68270057Y-72580286D01*
X68270057Y-72580286D02*
X68222438Y-72627905D01*
X68222438Y-72627905D02*
X68174819Y-72723143D01*
X68174819Y-72723143D02*
X68174819Y-72961238D01*
X68174819Y-72961238D02*
X68222438Y-73104095D01*
X68174819Y-73437429D02*
X69174819Y-73675524D01*
X69174819Y-73675524D02*
X68460533Y-73866000D01*
X68460533Y-73866000D02*
X69174819Y-74056476D01*
X69174819Y-74056476D02*
X68174819Y-74294572D01*
X69174819Y-75199333D02*
X69174819Y-74627905D01*
X69174819Y-74913619D02*
X68174819Y-74913619D01*
X68174819Y-74913619D02*
X68317676Y-74818381D01*
X68317676Y-74818381D02*
X68412914Y-74723143D01*
X68412914Y-74723143D02*
X68460533Y-74627905D01*
X105568619Y-55016995D02*
X106378142Y-55016995D01*
X106378142Y-55016995D02*
X106473380Y-55064614D01*
X106473380Y-55064614D02*
X106521000Y-55112233D01*
X106521000Y-55112233D02*
X106568619Y-55207471D01*
X106568619Y-55207471D02*
X106568619Y-55397947D01*
X106568619Y-55397947D02*
X106521000Y-55493185D01*
X106521000Y-55493185D02*
X106473380Y-55540804D01*
X106473380Y-55540804D02*
X106378142Y-55588423D01*
X106378142Y-55588423D02*
X105568619Y-55588423D01*
X105663857Y-56016995D02*
X105616238Y-56064614D01*
X105616238Y-56064614D02*
X105568619Y-56159852D01*
X105568619Y-56159852D02*
X105568619Y-56397947D01*
X105568619Y-56397947D02*
X105616238Y-56493185D01*
X105616238Y-56493185D02*
X105663857Y-56540804D01*
X105663857Y-56540804D02*
X105759095Y-56588423D01*
X105759095Y-56588423D02*
X105854333Y-56588423D01*
X105854333Y-56588423D02*
X105997190Y-56540804D01*
X105997190Y-56540804D02*
X106568619Y-55969376D01*
X106568619Y-55969376D02*
X106568619Y-56588423D01*
X90186666Y-72659580D02*
X90234285Y-72707200D01*
X90234285Y-72707200D02*
X90377142Y-72754819D01*
X90377142Y-72754819D02*
X90472380Y-72754819D01*
X90472380Y-72754819D02*
X90615237Y-72707200D01*
X90615237Y-72707200D02*
X90710475Y-72611961D01*
X90710475Y-72611961D02*
X90758094Y-72516723D01*
X90758094Y-72516723D02*
X90805713Y-72326247D01*
X90805713Y-72326247D02*
X90805713Y-72183390D01*
X90805713Y-72183390D02*
X90758094Y-71992914D01*
X90758094Y-71992914D02*
X90710475Y-71897676D01*
X90710475Y-71897676D02*
X90615237Y-71802438D01*
X90615237Y-71802438D02*
X90472380Y-71754819D01*
X90472380Y-71754819D02*
X90377142Y-71754819D01*
X90377142Y-71754819D02*
X90234285Y-71802438D01*
X90234285Y-71802438D02*
X90186666Y-71850057D01*
X89329523Y-71754819D02*
X89519999Y-71754819D01*
X89519999Y-71754819D02*
X89615237Y-71802438D01*
X89615237Y-71802438D02*
X89662856Y-71850057D01*
X89662856Y-71850057D02*
X89758094Y-71992914D01*
X89758094Y-71992914D02*
X89805713Y-72183390D01*
X89805713Y-72183390D02*
X89805713Y-72564342D01*
X89805713Y-72564342D02*
X89758094Y-72659580D01*
X89758094Y-72659580D02*
X89710475Y-72707200D01*
X89710475Y-72707200D02*
X89615237Y-72754819D01*
X89615237Y-72754819D02*
X89424761Y-72754819D01*
X89424761Y-72754819D02*
X89329523Y-72707200D01*
X89329523Y-72707200D02*
X89281904Y-72659580D01*
X89281904Y-72659580D02*
X89234285Y-72564342D01*
X89234285Y-72564342D02*
X89234285Y-72326247D01*
X89234285Y-72326247D02*
X89281904Y-72231009D01*
X89281904Y-72231009D02*
X89329523Y-72183390D01*
X89329523Y-72183390D02*
X89424761Y-72135771D01*
X89424761Y-72135771D02*
X89615237Y-72135771D01*
X89615237Y-72135771D02*
X89710475Y-72183390D01*
X89710475Y-72183390D02*
X89758094Y-72231009D01*
X89758094Y-72231009D02*
X89805713Y-72326247D01*
%TO.C,SW1*%
D11*
X55220000Y-62466000D02*
X55220000Y-67366000D01*
X55220000Y-70966000D02*
X55220000Y-75866000D01*
X55220000Y-75866000D02*
X58020000Y-75866000D01*
X57820000Y-62466000D02*
X55220000Y-62466000D01*
X61520000Y-69666000D02*
X61520000Y-68666000D01*
X62020000Y-69166000D02*
X61020000Y-69166000D01*
X62820000Y-62466000D02*
X60220000Y-62466000D01*
X65320000Y-76666000D02*
X65620000Y-76966000D01*
X65620000Y-76366000D02*
X65320000Y-76666000D01*
X65620000Y-76966000D02*
X65620000Y-76366000D01*
X67820000Y-62466000D02*
X65220000Y-62466000D01*
X67820000Y-67366000D02*
X67820000Y-62466000D01*
X67820000Y-71066000D02*
X67820000Y-75866000D01*
X67820000Y-75866000D02*
X65320000Y-75866000D01*
X64520000Y-69166000D02*
G75*
G02*
X58520000Y-69166000I-3000000J0D01*
G01*
X58520000Y-69166000D02*
G75*
G02*
X64520000Y-69166000I3000000J0D01*
G01*
%TO.C,U2*%
X54183800Y-38138900D02*
X104723800Y-38138900D01*
X54183800Y-57378900D02*
X54183800Y-38138900D01*
X86803800Y-57758900D02*
X84803800Y-57758900D01*
X104723800Y-57378900D02*
X54183800Y-57378900D01*
X104723800Y-57378900D02*
X104723800Y-38138900D01*
%TO.C,C6*%
X87400000Y-73430000D02*
X87400000Y-73767000D01*
X87400000Y-75833000D02*
X87400000Y-76170000D01*
X87400000Y-76170000D02*
X92640000Y-76170000D01*
X92640000Y-73430000D02*
X87400000Y-73430000D01*
X92640000Y-73767000D02*
X92640000Y-73430000D01*
X92640000Y-76170000D02*
X92640000Y-75833000D01*
%TD*%
M02*
