M48
; DRILL file KiCad 10.0.0 date 2026-04-13T18:26:22
; FORMAT={-:-/ absolute / metric / decimal}
; #@! TF.CreationDate,2026-04-13T18:26:22+02:00
; #@! TF.GenerationSoftware,Kicad,Pcbnew,10.0.0
; #@! TF.FileFunction,Plated,1,2,PTH
FMAT,2
METRIC
; #@! TA.AperFunction,Plated,PTH,ComponentDrill
T1C0.700
; #@! TA.AperFunction,Plated,PTH,ComponentDrill
T2C0.750
; #@! TA.AperFunction,Plated,PTH,ComponentDrill
T3C0.800
; #@! TA.AperFunction,Plated,PTH,ComponentDrill
T4C0.900
; #@! TA.AperFunction,Plated,PTH,ComponentDrill
T5C1.000
; #@! TA.AperFunction,Plated,PTH,ComponentDrill
T6C1.050
; #@! TA.AperFunction,Plated,PTH,ComponentDrill
T7C1.200
; #@! TA.AperFunction,Plated,PTH,ComponentDrill
T8C1.300
; #@! TA.AperFunction,Plated,PTH,ComponentDrill
T9C1.651
; #@! TA.AperFunction,Plated,PTH,ComponentDrill
T10C2.600
%
G90
G05
T1
X10.693Y75.997
X15.773Y75.997
X22.809Y93.853
X27.889Y93.853
X30.181Y63.094
X30.181Y58.014
X31.381Y95.433
X31.381Y90.353
X32.721Y63.094
X32.721Y58.014
X33.921Y95.433
X33.921Y90.353
X36.461Y95.433
X36.461Y90.353
X38.874Y95.433
X38.874Y90.353
X41.541Y95.433
X41.541Y90.353
X44.12Y95.453
X44.12Y90.373
X49.001Y65.893
X49.001Y60.813
X51.541Y65.893
X51.541Y60.813
X52.095Y100.301
X54.077Y95.555
X54.077Y90.475
X55.001Y65.933
X55.001Y60.853
X57.175Y100.301
X57.541Y65.933
X57.541Y60.853
X60.985Y102.667
X61.697Y95.58
X61.697Y90.5
X66.065Y102.667
X68.047Y91.821
X68.047Y86.741
T2
X49.797Y96.825
X49.797Y94.285
X51.067Y95.555
X53.771Y56.123
X55.041Y57.393
X56.311Y56.123
X57.175Y96.774
X57.175Y94.234
X58.445Y95.504
X64.501Y64.787
X65.303Y96.825
X65.303Y94.285
X65.771Y66.057
X66.573Y95.555
X67.041Y64.787
T3
X18.531Y83.703
X18.531Y76.083
X21.071Y83.703
X21.071Y76.083
X23.611Y83.703
X23.611Y76.083
X26.151Y83.703
X26.151Y76.083
X28.691Y83.703
X28.691Y76.083
X31.231Y83.703
X31.231Y76.083
X33.771Y83.703
X33.771Y76.083
X36.311Y83.703
X36.311Y76.083
X38.851Y83.703
X38.851Y76.083
X41.391Y83.703
X41.391Y76.083
X43.931Y83.703
X43.931Y76.083
X46.471Y83.703
X46.471Y76.083
X49.011Y83.703
X49.011Y76.083
X49.044Y71.018
X51.551Y83.703
X51.551Y76.083
X51.959Y50.343
X53.924Y71.018
X59.579Y50.343
X61.033Y60.473
X61.033Y52.853
T4
X12.307Y49.74
X12.307Y24.74
X17.307Y49.74
X17.307Y24.74
X24.807Y49.74
X32.307Y49.74
X32.307Y24.74
X37.307Y49.74
X37.307Y24.74
T5
X8.32Y102.683
X8.32Y88.183
X10.82Y88.183
X13.32Y102.683
X13.32Y88.183
X44.66Y102.723
X44.66Y87.483
X47.2Y102.723
X47.2Y87.483
X49.74Y102.723
X49.74Y87.483
X52.28Y102.723
X52.28Y87.483
X54.82Y102.723
X54.82Y87.483
X57.36Y102.723
X57.36Y87.483
X57.541Y80.893
X57.541Y78.353
X60.081Y80.893
X60.081Y78.353
X62.621Y80.893
X62.621Y78.353
X65.161Y80.893
X65.161Y78.353
X67.701Y80.893
X67.701Y78.353
T6
X5.041Y79.893
X5.041Y74.893
X5.041Y64.893
X5.041Y59.893
X30.541Y8.393
X35.541Y8.393
X45.541Y8.393
X50.541Y8.393
T7
X14.041Y66.393
X21.541Y66.393
X22.738Y100.076
X26.238Y100.076
X29.738Y100.076
X66.24Y58.893
X66.24Y55.393
T8
X52.045Y45.217
X52.045Y29.957
X52.045Y24.917
X52.045Y19.877
X59.545Y45.217
X59.545Y29.957
X59.545Y24.917
X59.545Y19.877
T9
X12.319Y11.009
X12.319Y6.009
X21.513Y11.009
X21.513Y6.009
X59.461Y10.806
X59.461Y5.806
X69.041Y28.893
X69.041Y23.893
T10
X5.22Y95.683
X16.42Y95.683
M30
