M48
; DRILL file KiCad 10.0.0 date 2026-04-12T20:46:58
; FORMAT={-:-/ absolute / metric / decimal}
; #@! TF.CreationDate,2026-04-12T20:46:58+02:00
; #@! TF.GenerationSoftware,Kicad,Pcbnew,10.0.0
; #@! TF.FileFunction,Plated,1,2,PTH
FMAT,2
METRIC
; #@! TA.AperFunction,Plated,PTH,ComponentDrill
T1C0.700
; #@! TA.AperFunction,Plated,PTH,ComponentDrill
T2C0.750
; #@! TA.AperFunction,Plated,PTH,ComponentDrill
T3C0.800
; #@! TA.AperFunction,Plated,PTH,ComponentDrill
T4C0.900
; #@! TA.AperFunction,Plated,PTH,ComponentDrill
T5C1.000
; #@! TA.AperFunction,Plated,PTH,ComponentDrill
T6C1.050
; #@! TA.AperFunction,Plated,PTH,ComponentDrill
T7C1.200
; #@! TA.AperFunction,Plated,PTH,ComponentDrill
T8C1.300
; #@! TA.AperFunction,Plated,PTH,ComponentDrill
T9C1.651
; #@! TA.AperFunction,Plated,PTH,ComponentDrill
T10C2.600
%
G90
G05
T1
X60.08Y-89.408
X65.16Y-89.408
X79.567Y-102.311
X79.567Y-107.391
X80.768Y-69.972
X80.768Y-75.052
X81.416Y-66.954
X82.107Y-102.311
X82.107Y-107.391
X83.308Y-69.972
X83.308Y-75.052
X85.848Y-69.972
X85.848Y-75.052
X86.496Y-66.954
X88.261Y-69.972
X88.261Y-75.052
X90.928Y-69.972
X90.928Y-75.052
X93.506Y-69.952
X93.506Y-75.032
X98.388Y-99.512
X98.388Y-104.592
X100.928Y-99.512
X100.928Y-104.592
X101.482Y-65.104
X103.463Y-69.85
X103.463Y-74.93
X104.388Y-99.472
X104.388Y-104.552
X106.562Y-65.104
X106.928Y-99.472
X106.928Y-104.552
X110.372Y-62.738
X111.42Y-69.842
X111.42Y-74.922
X115.452Y-62.738
X117.484Y-74.473
X117.484Y-79.553
T2
X99.184Y-68.58
X99.184Y-71.12
X100.454Y-69.85
X103.158Y-109.282
X104.428Y-108.012
X105.698Y-109.282
X106.562Y-68.631
X106.562Y-71.171
X107.832Y-69.901
X113.888Y-100.618
X114.69Y-68.58
X114.69Y-71.12
X115.158Y-99.348
X115.96Y-69.85
X116.428Y-100.618
T3
X67.918Y-81.702
X67.918Y-89.322
X70.458Y-81.702
X70.458Y-89.322
X72.998Y-81.702
X72.998Y-89.322
X75.538Y-81.702
X75.538Y-89.322
X78.078Y-81.702
X78.078Y-89.322
X80.618Y-81.702
X80.618Y-89.322
X83.158Y-81.702
X83.158Y-89.322
X85.698Y-81.702
X85.698Y-89.322
X88.238Y-81.702
X88.238Y-89.322
X90.778Y-81.702
X90.778Y-89.322
X93.318Y-81.702
X93.318Y-89.322
X95.858Y-81.702
X95.858Y-89.322
X98.398Y-81.702
X98.398Y-89.322
X100.938Y-81.702
X100.938Y-89.322
X101.346Y-115.062
X108.966Y-115.062
X110.419Y-104.932
X110.419Y-112.552
T4
X61.722Y-115.482
X61.722Y-140.482
X66.722Y-115.482
X66.722Y-140.482
X74.222Y-115.482
X81.722Y-115.482
X81.722Y-140.482
X86.722Y-115.482
X86.722Y-140.482
T5
X59.808Y-62.722
X59.808Y-77.222
X62.308Y-77.222
X64.808Y-62.722
X64.808Y-77.222
X94.046Y-62.682
X94.046Y-77.922
X96.586Y-62.682
X96.586Y-77.922
X99.126Y-62.682
X99.126Y-77.922
X101.666Y-62.682
X101.666Y-77.922
X104.206Y-62.682
X104.206Y-77.922
X106.746Y-62.682
X106.746Y-77.922
X106.928Y-84.512
X106.928Y-87.052
X109.468Y-84.512
X109.468Y-87.052
X112.008Y-84.512
X112.008Y-87.052
X114.548Y-84.512
X114.548Y-87.052
X117.088Y-84.512
X117.088Y-87.052
T6
X55.428Y-85.512
X55.428Y-90.512
X55.428Y-100.512
X55.428Y-105.512
T7
X63.428Y-99.012
X70.928Y-99.012
X81.428Y-62.012
X84.928Y-62.012
X88.428Y-62.012
X115.626Y-106.512
X115.626Y-110.012
T8
X101.346Y-119.634
X101.346Y-134.894
X101.346Y-139.934
X101.346Y-144.974
X108.846Y-119.634
X108.846Y-134.894
X108.846Y-139.934
X108.846Y-144.974
T9
X61.756Y-153.06
X66.756Y-153.06
X86.699Y-153.212
X91.699Y-153.212
X116.928Y-143.012
X116.928Y-148.012
X116.976Y-123.321
X116.976Y-128.321
T10
X56.708Y-69.722
X67.908Y-69.722
M30
