%TF.GenerationSoftware,KiCad,Pcbnew,10.0.0*%
%TF.CreationDate,2026-04-13T11:37:30+02:00*%
%TF.ProjectId,DymBOX_AVR,44796d42-4f58-45f4-9156-522e6b696361,rev?*%
%TF.SameCoordinates,Original*%
%TF.FileFunction,Soldermask,Bot*%
%TF.FilePolarity,Negative*%
%FSLAX46Y46*%
G04 Gerber Fmt 4.6, Leading zero omitted, Abs format (unit mm)*
G04 Created by KiCad (PCBNEW 10.0.0) date 2026-04-13 11:37:30*
%MOMM*%
%LPD*%
G01*
G04 APERTURE LIST*
G04 Aperture macros list*
%AMRoundRect*
0 Rectangle with rounded corners*
0 $1 Rounding radius*
0 $2 $3 $4 $5 $6 $7 $8 $9 X,Y pos of 4 corners*
0 Add a 4 corners polygon primitive as box body*
4,1,4,$2,$3,$4,$5,$6,$7,$8,$9,$2,$3,0*
0 Add four circle primitives for the rounded corners*
1,1,$1+$1,$2,$3*
1,1,$1+$1,$4,$5*
1,1,$1+$1,$6,$7*
1,1,$1+$1,$8,$9*
0 Add four rect primitives between the rounded corners*
20,1,$1+$1,$2,$3,$4,$5,0*
20,1,$1+$1,$4,$5,$6,$7,0*
20,1,$1+$1,$6,$7,$8,$9,0*
20,1,$1+$1,$8,$9,$2,$3,0*%
G04 Aperture macros list end*
%ADD10C,0.100000*%
%ADD11C,2.000000*%
%ADD12R,2.000000X2.000000*%
%ADD13C,1.400000*%
%ADD14RoundRect,0.500000X-0.500000X-0.500000X0.500000X-0.500000X0.500000X0.500000X-0.500000X0.500000X0*%
%ADD15RoundRect,0.250000X-0.550000X-0.550000X0.550000X-0.550000X0.550000X0.550000X-0.550000X0.550000X0*%
%ADD16C,1.600000*%
%ADD17R,1.400000X1.400000*%
%ADD18R,1.100000X1.800000*%
%ADD19RoundRect,0.275000X-0.275000X-0.625000X0.275000X-0.625000X0.275000X0.625000X-0.275000X0.625000X0*%
%ADD20RoundRect,0.500000X-0.500000X0.500000X-0.500000X-0.500000X0.500000X-0.500000X0.500000X0.500000X0*%
%ADD21R,1.700000X1.700000*%
%ADD22C,1.700000*%
%ADD23C,3.048000*%
%ADD24RoundRect,0.250001X0.949999X0.949999X-0.949999X0.949999X-0.949999X-0.949999X0.949999X-0.949999X0*%
%ADD25C,2.400000*%
%ADD26RoundRect,0.250000X0.550000X-0.550000X0.550000X0.550000X-0.550000X0.550000X-0.550000X-0.550000X0*%
%ADD27R,1.800000X1.100000*%
%ADD28RoundRect,0.275000X-0.625000X0.275000X-0.625000X-0.275000X0.625000X-0.275000X0.625000X0.275000X0*%
%ADD29O,3.000000X2.000000*%
%ADD30R,2.000000X3.000000*%
%ADD31O,2.000000X3.000000*%
%ADD32RoundRect,0.250001X0.949999X-0.949999X0.949999X0.949999X-0.949999X0.949999X-0.949999X-0.949999X0*%
%ADD33R,1.500000X1.500000*%
%ADD34C,1.500000*%
%ADD35C,3.200000*%
%ADD36RoundRect,0.250000X0.475000X-0.337500X0.475000X0.337500X-0.475000X0.337500X-0.475000X-0.337500X0*%
G04 APERTURE END LIST*
D10*
%TO.C,J4*%
X119490600Y-138999600D02*
X116442600Y-138999600D01*
X116442600Y-133999600D01*
X119490600Y-133999600D01*
X119490600Y-138999600D01*
G36*
X119490600Y-138999600D02*
G01*
X116442600Y-138999600D01*
X116442600Y-133999600D01*
X119490600Y-133999600D01*
X119490600Y-138999600D01*
G37*
%TO.C,J1*%
X107766600Y-154635200D02*
X102766600Y-154635200D01*
X102766600Y-151587200D01*
X107766600Y-151587200D01*
X107766600Y-154635200D01*
G36*
X107766600Y-154635200D02*
G01*
X102766600Y-154635200D01*
X102766600Y-151587200D01*
X107766600Y-151587200D01*
X107766600Y-154635200D01*
G37*
%TO.C,J2*%
X58947800Y-154482800D02*
X53947800Y-154482800D01*
X53947800Y-151434800D01*
X58947800Y-151434800D01*
X58947800Y-154482800D01*
G36*
X58947800Y-154482800D02*
G01*
X53947800Y-154482800D01*
X53947800Y-151434800D01*
X58947800Y-151434800D01*
X58947800Y-154482800D01*
G37*
%TD*%
D11*
%TO.C,TR1*%
X61722000Y-115482000D03*
X66722000Y-140482000D03*
X74222000Y-115482000D03*
X81722000Y-140482000D03*
X86722000Y-115482000D03*
D12*
X61722000Y-140482000D03*
D11*
X86722000Y-140482000D03*
X81722000Y-115482000D03*
X66722000Y-115482000D03*
%TD*%
D13*
%TO.C,R2*%
X115452000Y-62738000D03*
X110372000Y-62738000D03*
%TD*%
%TO.C,R1*%
X60080000Y-89408000D03*
X65160000Y-89408000D03*
%TD*%
D14*
%TO.C,F2*%
X75607000Y-153035000D03*
X80607000Y-153035000D03*
D11*
X90607000Y-153035000D03*
X95607000Y-153035000D03*
%TD*%
D13*
%TO.C,R6*%
X88261000Y-75052000D03*
X88261000Y-69972000D03*
%TD*%
D15*
%TO.C,D2*%
X101346000Y-115062000D03*
D16*
X108966000Y-115062000D03*
%TD*%
D13*
%TO.C,R15*%
X98388000Y-99512000D03*
X98388000Y-104592000D03*
%TD*%
D17*
%TO.C,D3*%
X82107200Y-102311200D03*
D13*
X79567200Y-102311200D03*
X79567200Y-107391200D03*
X82107200Y-107391200D03*
%TD*%
D18*
%TO.C,Q3*%
X113888000Y-101018000D03*
D19*
X115158000Y-98948000D03*
X116428000Y-101018000D03*
%TD*%
D20*
%TO.C,F1*%
X55428000Y-85512000D03*
X55428000Y-90512000D03*
D11*
X55428000Y-100512000D03*
X55428000Y-105512000D03*
%TD*%
D21*
%TO.C,J7*%
X106928000Y-87052000D03*
D22*
X106928000Y-84512000D03*
X109468000Y-87052000D03*
X109468000Y-84512000D03*
X112008000Y-87052000D03*
X112008000Y-84512000D03*
X114548000Y-87052000D03*
X114548000Y-84512000D03*
X117088000Y-87052000D03*
X117088000Y-84512000D03*
%TD*%
D13*
%TO.C,R10*%
X103463200Y-74930000D03*
X103463200Y-69850000D03*
%TD*%
%TO.C,R3*%
X93506400Y-75031600D03*
X93506400Y-69951600D03*
%TD*%
D23*
%TO.C,J4*%
X117966600Y-133999600D03*
X117966600Y-138999600D03*
%TD*%
D24*
%TO.C,C1*%
X70928000Y-99012000D03*
D25*
X63428000Y-99012000D03*
%TD*%
D26*
%TO.C,U1*%
X67918000Y-89322000D03*
D16*
X70458000Y-89322000D03*
X72998000Y-89322000D03*
X75538000Y-89322000D03*
X78078000Y-89322000D03*
X80618000Y-89322000D03*
X83158000Y-89322000D03*
X85698000Y-89322000D03*
X88238000Y-89322000D03*
X90778000Y-89322000D03*
X93318000Y-89322000D03*
X95858000Y-89322000D03*
X98398000Y-89322000D03*
X100938000Y-89322000D03*
X100938000Y-81702000D03*
X98398000Y-81702000D03*
X95858000Y-81702000D03*
X93318000Y-81702000D03*
X90778000Y-81702000D03*
X88238000Y-81702000D03*
X85698000Y-81702000D03*
X83158000Y-81702000D03*
X80618000Y-81702000D03*
X78078000Y-81702000D03*
X75538000Y-81702000D03*
X72998000Y-81702000D03*
X70458000Y-81702000D03*
X67918000Y-81702000D03*
%TD*%
D18*
%TO.C,Q4*%
X103158000Y-109682000D03*
D19*
X104428000Y-107612000D03*
X105698000Y-109682000D03*
%TD*%
D23*
%TO.C,J1*%
X102766600Y-153111200D03*
X107766600Y-153111200D03*
%TD*%
D13*
%TO.C,R17*%
X100928000Y-99512000D03*
X100928000Y-104592000D03*
%TD*%
D27*
%TO.C,Q2*%
X106162000Y-68630800D03*
D28*
X108232000Y-69900800D03*
X106162000Y-71170800D03*
%TD*%
D13*
%TO.C,R13*%
X87791400Y-66929000D03*
X82711400Y-66929000D03*
%TD*%
D27*
%TO.C,Q5*%
X114290000Y-68580000D03*
D28*
X116360000Y-69850000D03*
X114290000Y-71120000D03*
%TD*%
D13*
%TO.C,R4*%
X83308000Y-75052000D03*
X83308000Y-69972000D03*
%TD*%
%TO.C,R11*%
X111083200Y-74904600D03*
X111083200Y-69824600D03*
%TD*%
%TO.C,R9*%
X80768000Y-75052000D03*
X80768000Y-69972000D03*
%TD*%
%TO.C,R14*%
X104388000Y-99472000D03*
X104388000Y-104552000D03*
%TD*%
%TO.C,R5*%
X90928000Y-75052000D03*
X90928000Y-69972000D03*
%TD*%
D29*
%TO.C,K1*%
X108931200Y-140487400D03*
X101431200Y-140487400D03*
X108931200Y-135447400D03*
X101431200Y-135447400D03*
X108931200Y-145527400D03*
X101431200Y-145527400D03*
D30*
X101431200Y-120187400D03*
D31*
X108931200Y-120187400D03*
%TD*%
D13*
%TO.C,R8*%
X106562000Y-65104200D03*
X101482000Y-65104200D03*
%TD*%
%TO.C,R7*%
X85848000Y-75052000D03*
X85848000Y-69972000D03*
%TD*%
D32*
%TO.C,J6*%
X115626500Y-110012000D03*
D25*
X115626500Y-106512000D03*
%TD*%
D26*
%TO.C,D1*%
X110419500Y-112552000D03*
D16*
X110419500Y-104932000D03*
%TD*%
D13*
%TO.C,R16*%
X106928000Y-99472000D03*
X106928000Y-104552000D03*
%TD*%
D24*
%TO.C,J5*%
X88428000Y-62012000D03*
D25*
X84928000Y-62012000D03*
X81428000Y-62012000D03*
%TD*%
D13*
%TO.C,R12*%
X117433200Y-78663800D03*
X117433200Y-73583800D03*
%TD*%
D23*
%TO.C,J2*%
X53947800Y-152958800D03*
X58947800Y-152958800D03*
%TD*%
D27*
%TO.C,Q1*%
X98784000Y-68580000D03*
D28*
X100854000Y-69850000D03*
X98784000Y-71120000D03*
%TD*%
D33*
%TO.C,U2*%
X106746400Y-77922200D03*
D34*
X104206400Y-77922200D03*
X101666400Y-77922200D03*
X99126400Y-77922200D03*
X96586400Y-77922200D03*
X94046400Y-77922200D03*
X94046400Y-62682200D03*
X96586400Y-62682200D03*
X99126400Y-62682200D03*
X101666400Y-62682200D03*
X104206400Y-62682200D03*
X106746400Y-62682200D03*
%TD*%
%TO.C,Y1*%
X103310800Y-94386400D03*
X98430800Y-94386400D03*
%TD*%
D35*
%TO.C,SW2*%
X56708000Y-69722000D03*
X67908000Y-69722000D03*
D11*
X64808000Y-77222000D03*
X59808000Y-77222000D03*
X62308000Y-77222000D03*
X59808000Y-62722000D03*
X64808000Y-62722000D03*
%TD*%
D36*
%TO.C,C6*%
X83194000Y-87049500D03*
X83194000Y-84974500D03*
%TD*%
%TO.C,C4*%
X93709600Y-96312900D03*
X93709600Y-94237900D03*
%TD*%
%TO.C,C5*%
X108213000Y-96490700D03*
X108213000Y-94415700D03*
%TD*%
G36*
X72287208Y-150744384D02*
G01*
X72333905Y-150796357D01*
X72346036Y-150851977D01*
X72274046Y-155123356D01*
X72253235Y-155190054D01*
X72199667Y-155234912D01*
X72150539Y-155245265D01*
X52512409Y-155320507D01*
X52445295Y-155301080D01*
X52399338Y-155248451D01*
X52388000Y-155192458D01*
X52510578Y-151441576D01*
X52511758Y-151428090D01*
X52546664Y-151183746D01*
X52575632Y-151120164D01*
X52634376Y-151082336D01*
X52667190Y-151077302D01*
X72219826Y-150725907D01*
X72287208Y-150744384D01*
G37*
G36*
X120575751Y-131632543D02*
G01*
X120630213Y-131676310D01*
X120652368Y-131742574D01*
X120652339Y-131752488D01*
X120128540Y-143949531D01*
X120105997Y-144015664D01*
X120066062Y-144051938D01*
X112327799Y-148463000D01*
X112327799Y-148463001D01*
X109739816Y-156427957D01*
X109700378Y-156485633D01*
X109636020Y-156512831D01*
X109620295Y-156513629D01*
X74143724Y-156058801D01*
X74076943Y-156038258D01*
X74031869Y-155984872D01*
X74021331Y-155936869D01*
X73925108Y-150139462D01*
X73943677Y-150072105D01*
X73995715Y-150025480D01*
X74050075Y-150013408D01*
X80323799Y-150063199D01*
X85099000Y-145592798D01*
X84922188Y-139707498D01*
X84936656Y-139645542D01*
X85521256Y-138546493D01*
X85570117Y-138496550D01*
X85630607Y-138480725D01*
X110803798Y-138455400D01*
X110803800Y-138455399D01*
X113927997Y-135763002D01*
X113928001Y-135762997D01*
X115880305Y-132509157D01*
X115931676Y-132461798D01*
X115964452Y-132450954D01*
X120506271Y-131625168D01*
X120575751Y-131632543D01*
G37*
M02*
