%TF.GenerationSoftware,KiCad,Pcbnew,10.0.0*%
%TF.CreationDate,2026-04-10T13:29:42+02:00*%
%TF.ProjectId,DymBOX_AVR,44796d42-4f58-45f4-9156-522e6b696361,rev?*%
%TF.SameCoordinates,Original*%
%TF.FileFunction,Soldermask,Top*%
%TF.FilePolarity,Negative*%
%FSLAX46Y46*%
G04 Gerber Fmt 4.6, Leading zero omitted, Abs format (unit mm)*
G04 Created by KiCad (PCBNEW 10.0.0) date 2026-04-10 13:29:42*
%MOMM*%
%LPD*%
G01*
G04 APERTURE LIST*
G04 Aperture macros list*
%AMRoundRect*
0 Rectangle with rounded corners*
0 $1 Rounding radius*
0 $2 $3 $4 $5 $6 $7 $8 $9 X,Y pos of 4 corners*
0 Add a 4 corners polygon primitive as box body*
4,1,4,$2,$3,$4,$5,$6,$7,$8,$9,$2,$3,0*
0 Add four circle primitives for the rounded corners*
1,1,$1+$1,$2,$3*
1,1,$1+$1,$4,$5*
1,1,$1+$1,$6,$7*
1,1,$1+$1,$8,$9*
0 Add four rect primitives between the rounded corners*
20,1,$1+$1,$2,$3,$4,$5,0*
20,1,$1+$1,$4,$5,$6,$7,0*
20,1,$1+$1,$6,$7,$8,$9,0*
20,1,$1+$1,$8,$9,$2,$3,0*%
G04 Aperture macros list end*
%ADD10C,0.100000*%
%ADD11C,3.048000*%
%ADD12C,3.500000*%
%ADD13R,1.905000X2.000000*%
%ADD14O,1.905000X2.000000*%
%ADD15RoundRect,0.250000X0.600000X-0.600000X0.600000X0.600000X-0.600000X0.600000X-0.600000X-0.600000X0*%
%ADD16C,1.700000*%
%ADD17C,2.000000*%
%ADD18R,2.000000X2.000000*%
%ADD19C,4.700000*%
%ADD20C,8.600000*%
%ADD21C,1.400000*%
%ADD22RoundRect,0.250000X-0.550000X-0.550000X0.550000X-0.550000X0.550000X0.550000X-0.550000X0.550000X0*%
%ADD23C,1.600000*%
%ADD24RoundRect,0.250001X0.949999X-0.949999X0.949999X0.949999X-0.949999X0.949999X-0.949999X-0.949999X0*%
%ADD25C,2.400000*%
%ADD26R,1.400000X1.400000*%
%ADD27R,1.100000X1.800000*%
%ADD28RoundRect,0.275000X-0.275000X-0.625000X0.275000X-0.625000X0.275000X0.625000X-0.275000X0.625000X0*%
%ADD29RoundRect,0.500000X0.500000X-0.500000X0.500000X0.500000X-0.500000X0.500000X-0.500000X-0.500000X0*%
%ADD30R,1.700000X1.700000*%
%ADD31RoundRect,0.250000X0.550000X-0.550000X0.550000X0.550000X-0.550000X0.550000X-0.550000X-0.550000X0*%
%ADD32C,1.500000*%
%ADD33R,1.800000X1.100000*%
%ADD34RoundRect,0.275000X-0.625000X0.275000X-0.625000X-0.275000X0.625000X-0.275000X0.625000X0.275000X0*%
%ADD35O,3.000000X2.000000*%
%ADD36R,2.000000X3.000000*%
%ADD37O,2.000000X3.000000*%
%ADD38RoundRect,0.250000X0.550000X0.550000X-0.550000X0.550000X-0.550000X-0.550000X0.550000X-0.550000X0*%
%ADD39C,2.800000*%
%ADD40R,1.500000X1.500000*%
G04 APERTURE END LIST*
D10*
%TO.C,J6*%
X118745000Y-154940000D02*
X115697000Y-154940000D01*
X115697000Y-149940000D01*
X118745000Y-149940000D01*
X118745000Y-154940000D01*
G36*
X118745000Y-154940000D02*
G01*
X115697000Y-154940000D01*
X115697000Y-149940000D01*
X118745000Y-149940000D01*
X118745000Y-154940000D01*
G37*
%TO.C,J3*%
X118618000Y-141097000D02*
X115570000Y-141097000D01*
X115570000Y-136097000D01*
X118618000Y-136097000D01*
X118618000Y-141097000D01*
G36*
X118618000Y-141097000D02*
G01*
X115570000Y-141097000D01*
X115570000Y-136097000D01*
X118618000Y-136097000D01*
X118618000Y-141097000D01*
G37*
%TO.C,J2*%
X71294000Y-164592000D02*
X66294000Y-164592000D01*
X66294000Y-161544000D01*
X71294000Y-161544000D01*
X71294000Y-164592000D01*
G36*
X71294000Y-164592000D02*
G01*
X66294000Y-164592000D01*
X66294000Y-161544000D01*
X71294000Y-161544000D01*
X71294000Y-164592000D01*
G37*
%TO.C,J1*%
X86534000Y-164592000D02*
X81534000Y-164592000D01*
X81534000Y-161544000D01*
X86534000Y-161544000D01*
X86534000Y-164592000D01*
G36*
X86534000Y-164592000D02*
G01*
X81534000Y-164592000D01*
X81534000Y-161544000D01*
X86534000Y-161544000D01*
X86534000Y-164592000D01*
G37*
%TD*%
D11*
%TO.C,J6*%
X117221000Y-149940000D03*
X117221000Y-154940000D03*
%TD*%
%TO.C,J3*%
X117094000Y-136097000D03*
X117094000Y-141097000D03*
%TD*%
%TO.C,J2*%
X71294000Y-163068000D03*
X66294000Y-163068000D03*
%TD*%
%TO.C,J1*%
X86534000Y-163068000D03*
X81534000Y-163068000D03*
%TD*%
D12*
%TO.C,U3*%
X76200000Y-96624000D03*
D13*
X73660000Y-113284000D03*
D14*
X76200000Y-113284000D03*
X78740000Y-113284000D03*
%TD*%
D15*
%TO.C,J4*%
X114808000Y-61087000D03*
D16*
X114808000Y-57387000D03*
X114808000Y-53687000D03*
%TD*%
D17*
%TO.C,TR1*%
X61468000Y-124860000D03*
X66468000Y-149860000D03*
X73968000Y-124860000D03*
X81468000Y-149860000D03*
X86468000Y-124860000D03*
D18*
X61468000Y-149860000D03*
D17*
X86468000Y-149860000D03*
X81468000Y-124860000D03*
X66468000Y-124860000D03*
%TD*%
D19*
%TO.C,REF\u002A\u002A*%
X57428000Y-31054000D03*
D20*
X57428000Y-31054000D03*
%TD*%
D21*
%TO.C,R2*%
X95428000Y-40554000D03*
X90348000Y-40554000D03*
%TD*%
%TO.C,R1*%
X72428000Y-86054000D03*
X72428000Y-80974000D03*
%TD*%
%TO.C,R6*%
X83340000Y-64386000D03*
X83340000Y-59306000D03*
%TD*%
D19*
%TO.C,REF\u002A\u002A*%
X115062000Y-163322000D03*
D20*
X115062000Y-163322000D03*
%TD*%
D22*
%TO.C,D2*%
X101092000Y-124440000D03*
D23*
X108712000Y-124440000D03*
%TD*%
D21*
%TO.C,R15*%
X103886000Y-109728000D03*
X103886000Y-114808000D03*
%TD*%
D24*
%TO.C,C1*%
X82931000Y-98044000D03*
D25*
X82931000Y-93044000D03*
%TD*%
D26*
%TO.C,D3*%
X63607000Y-111379000D03*
D21*
X61067000Y-111379000D03*
X61067000Y-116459000D03*
X63607000Y-116459000D03*
%TD*%
D19*
%TO.C,REF\u002A\u002A*%
X56388000Y-162560000D03*
D20*
X56388000Y-162560000D03*
%TD*%
D27*
%TO.C,Q3*%
X106172000Y-92856000D03*
D28*
X107442000Y-90786000D03*
X108712000Y-92856000D03*
%TD*%
D29*
%TO.C,F1*%
X53848000Y-114808000D03*
X53848000Y-109808000D03*
D17*
X53848000Y-99808000D03*
X53848000Y-94808000D03*
%TD*%
D30*
%TO.C,J5*%
X93020000Y-63666000D03*
D16*
X93020000Y-61126000D03*
X95560000Y-63666000D03*
X95560000Y-61126000D03*
X98100000Y-63666000D03*
X98100000Y-61126000D03*
X100640000Y-63666000D03*
X100640000Y-61126000D03*
X103180000Y-63666000D03*
X103180000Y-61126000D03*
%TD*%
D21*
%TO.C,R10*%
X70358000Y-60706000D03*
X70358000Y-55626000D03*
%TD*%
%TO.C,R3*%
X73180000Y-47622000D03*
X73180000Y-42542000D03*
%TD*%
D31*
%TO.C,U1*%
X72418000Y-78864000D03*
D23*
X74958000Y-78864000D03*
X77498000Y-78864000D03*
X80038000Y-78864000D03*
X82578000Y-78864000D03*
X85118000Y-78864000D03*
X87658000Y-78864000D03*
X90198000Y-78864000D03*
X92738000Y-78864000D03*
X95278000Y-78864000D03*
X97818000Y-78864000D03*
X100358000Y-78864000D03*
X102898000Y-78864000D03*
X105438000Y-78864000D03*
X105438000Y-71244000D03*
X102898000Y-71244000D03*
X100358000Y-71244000D03*
X97818000Y-71244000D03*
X95278000Y-71244000D03*
X92738000Y-71244000D03*
X90198000Y-71244000D03*
X87658000Y-71244000D03*
X85118000Y-71244000D03*
X82578000Y-71244000D03*
X80038000Y-71244000D03*
X77498000Y-71244000D03*
X74958000Y-71244000D03*
X72418000Y-71244000D03*
%TD*%
D32*
%TO.C,Y1*%
X93861700Y-84756800D03*
X88981700Y-84756800D03*
%TD*%
D27*
%TO.C,Q4*%
X103886000Y-119526000D03*
D28*
X105156000Y-117456000D03*
X106426000Y-119526000D03*
%TD*%
D21*
%TO.C,R17*%
X106426000Y-109728000D03*
X106426000Y-114808000D03*
%TD*%
D23*
%TO.C,C3*%
X68072000Y-113538000D03*
X68072000Y-108538000D03*
%TD*%
D33*
%TO.C,Q2*%
X90052000Y-46860000D03*
D34*
X92122000Y-48130000D03*
X90052000Y-49400000D03*
%TD*%
D21*
%TO.C,R13*%
X111633000Y-47498000D03*
X116713000Y-47498000D03*
%TD*%
D33*
%TO.C,Q5*%
X97164000Y-46860000D03*
D34*
X99234000Y-48130000D03*
X97164000Y-49400000D03*
%TD*%
D21*
%TO.C,R4*%
X78260000Y-64386000D03*
X78260000Y-59306000D03*
%TD*%
%TO.C,R11*%
X94262000Y-53210000D03*
X94262000Y-48130000D03*
%TD*%
%TO.C,R9*%
X75720000Y-64386000D03*
X75720000Y-59306000D03*
%TD*%
%TO.C,R14*%
X105918000Y-82804000D03*
X105918000Y-87884000D03*
%TD*%
%TO.C,R5*%
X85880000Y-64386000D03*
X85880000Y-59306000D03*
%TD*%
D35*
%TO.C,K1*%
X108592000Y-149312000D03*
X101092000Y-149312000D03*
X108592000Y-144272000D03*
X101092000Y-144272000D03*
X108592000Y-154352000D03*
X101092000Y-154352000D03*
D36*
X101092000Y-129012000D03*
D37*
X108592000Y-129012000D03*
%TD*%
D21*
%TO.C,R8*%
X91928000Y-42554000D03*
X86848000Y-42554000D03*
%TD*%
%TO.C,R7*%
X80800000Y-64386000D03*
X80800000Y-59306000D03*
%TD*%
D24*
%TO.C,J1*%
X115316000Y-112776000D03*
D25*
X115316000Y-109276000D03*
%TD*%
D19*
%TO.C,REF\u002A\u002A*%
X113538000Y-30480000D03*
D20*
X113538000Y-30480000D03*
%TD*%
D24*
%TO.C,C2*%
X67310000Y-97409000D03*
D25*
X67310000Y-92409000D03*
%TD*%
D38*
%TO.C,D1*%
X113792000Y-96520000D03*
D23*
X106172000Y-96520000D03*
%TD*%
D21*
%TO.C,R16*%
X108458000Y-82804000D03*
X108458000Y-87884000D03*
%TD*%
%TO.C,R12*%
X103378000Y-53594000D03*
X103378000Y-48514000D03*
%TD*%
D23*
%TO.C,C4*%
X83928000Y-89554000D03*
X88928000Y-89554000D03*
%TD*%
%TO.C,C5*%
X98928000Y-89554000D03*
X93928000Y-89554000D03*
%TD*%
D33*
%TO.C,Q1*%
X68688000Y-49530000D03*
D34*
X70758000Y-50800000D03*
X68688000Y-52070000D03*
%TD*%
D18*
%TO.C,SW1*%
X64020000Y-76666000D03*
D17*
X59020000Y-76666000D03*
X61520000Y-76666000D03*
D39*
X55920000Y-69166000D03*
X67120000Y-69166000D03*
D17*
X64020000Y-62166000D03*
X59020000Y-62166000D03*
%TD*%
D40*
%TO.C,U2*%
X85803800Y-55378900D03*
D32*
X83263800Y-55378900D03*
X80723800Y-55378900D03*
X78183800Y-55378900D03*
X75643800Y-55378900D03*
X73103800Y-55378900D03*
X73103800Y-40138900D03*
X75643800Y-40138900D03*
X78183800Y-40138900D03*
X80723800Y-40138900D03*
X83263800Y-40138900D03*
X85803800Y-40138900D03*
%TD*%
D23*
%TO.C,C6*%
X92520000Y-74800000D03*
X87520000Y-74800000D03*
%TD*%
M02*
