M48
; DRILL file KiCad 10.0.0 date 2026-04-10T13:29:31
; FORMAT={-:-/ absolute / metric / decimal}
; #@! TF.CreationDate,2026-04-10T13:29:31+02:00
; #@! TF.GenerationSoftware,Kicad,Pcbnew,10.0.0
; #@! TF.FileFunction,MixedPlating,1,2
FMAT,2
METRIC
; #@! TA.AperFunction,Plated,PTH,ComponentDrill
T1C0.700
; #@! TA.AperFunction,Plated,PTH,ComponentDrill
T2C0.750
; #@! TA.AperFunction,Plated,PTH,ComponentDrill
T3C0.800
; #@! TA.AperFunction,Plated,PTH,ComponentDrill
T4C0.900
; #@! TA.AperFunction,Plated,PTH,ComponentDrill
T5C1.000
; #@! TA.AperFunction,Plated,PTH,ComponentDrill
T6C1.050
; #@! TA.AperFunction,Plated,PTH,ComponentDrill
T7C1.100
; #@! TA.AperFunction,Plated,PTH,ComponentDrill
T8C1.200
; #@! TA.AperFunction,Plated,PTH,ComponentDrill
T9C1.300
; #@! TA.AperFunction,Plated,PTH,ComponentDrill
T10C1.651
; #@! TA.AperFunction,Plated,PTH,ComponentDrill
T11C2.200
; #@! TA.AperFunction,Plated,PTH,ComponentDrill
T12C4.300
; #@! TA.AperFunction,NonPlated,NPTH,ComponentDrill
T13C3.500
%
G90
G05
T1
X61.067Y-111.379
X61.067Y-116.459
X63.607Y-111.379
X63.607Y-116.459
X70.358Y-55.626
X70.358Y-60.706
X72.428Y-80.974
X72.428Y-86.054
X73.18Y-42.542
X73.18Y-47.622
X75.72Y-59.306
X75.72Y-64.386
X78.26Y-59.306
X78.26Y-64.386
X80.8Y-59.306
X80.8Y-64.386
X83.34Y-59.306
X83.34Y-64.386
X85.88Y-59.306
X85.88Y-64.386
X86.848Y-42.554
X90.348Y-40.554
X91.928Y-42.554
X94.262Y-48.13
X94.262Y-53.21
X95.428Y-40.554
X103.378Y-48.514
X103.378Y-53.594
X103.886Y-109.728
X103.886Y-114.808
X105.918Y-82.804
X105.918Y-87.884
X106.426Y-109.728
X106.426Y-114.808
X108.458Y-82.804
X108.458Y-87.884
X111.633Y-47.498
X114.808Y-53.687
X114.808Y-57.387
X114.808Y-61.087
X116.713Y-47.498
T2
X69.088Y-49.53
X69.088Y-52.07
X70.358Y-50.8
X90.452Y-46.86
X90.452Y-49.4
X91.722Y-48.13
X97.564Y-46.86
X97.564Y-49.4
X98.834Y-48.13
X103.886Y-119.126
X105.156Y-117.856
X106.172Y-92.456
X106.426Y-119.126
X107.442Y-91.186
X108.712Y-92.456
T3
X68.072Y-108.538
X68.072Y-113.538
X72.418Y-71.244
X72.418Y-78.864
X74.958Y-71.244
X74.958Y-78.864
X77.498Y-71.244
X77.498Y-78.864
X80.038Y-71.244
X80.038Y-78.864
X82.578Y-71.244
X82.578Y-78.864
X83.928Y-89.554
X85.118Y-71.244
X85.118Y-78.864
X87.52Y-74.8
X87.658Y-71.244
X87.658Y-78.864
X88.928Y-89.554
X88.982Y-84.757
X90.198Y-71.244
X90.198Y-78.864
X92.52Y-74.8
X92.738Y-71.244
X92.738Y-78.864
X93.862Y-84.757
X93.928Y-89.554
X95.278Y-71.244
X95.278Y-78.864
X97.818Y-71.244
X97.818Y-78.864
X98.928Y-89.554
X100.358Y-71.244
X100.358Y-78.864
X101.092Y-124.44
X102.898Y-71.244
X102.898Y-78.864
X105.438Y-71.244
X105.438Y-78.864
X106.172Y-96.52
X108.712Y-124.44
X113.792Y-96.52
T4
X61.468Y-124.86
X61.468Y-149.86
X66.468Y-124.86
X66.468Y-149.86
X73.968Y-124.86
X81.468Y-124.86
X81.468Y-149.86
X86.468Y-124.86
X86.468Y-149.86
T5
X59.02Y-62.166
X59.02Y-76.666
X61.52Y-76.666
X64.02Y-62.166
X64.02Y-76.666
X73.104Y-40.139
X73.104Y-55.379
X75.644Y-40.139
X75.644Y-55.379
X78.184Y-40.139
X78.184Y-55.379
X80.724Y-40.139
X80.724Y-55.379
X83.264Y-40.139
X83.264Y-55.379
X85.804Y-40.139
X85.804Y-55.379
X93.02Y-61.126
X93.02Y-63.666
X95.56Y-61.126
X95.56Y-63.666
X98.1Y-61.126
X98.1Y-63.666
X100.64Y-61.126
X100.64Y-63.666
X103.18Y-61.126
X103.18Y-63.666
T6
X53.848Y-94.808
X53.848Y-99.808
X53.848Y-109.808
X53.848Y-114.808
T7
X73.66Y-113.284
X76.2Y-113.284
X78.74Y-113.284
T8
X67.31Y-92.409
X67.31Y-97.409
X82.931Y-93.044
X82.931Y-98.044
X115.316Y-109.276
X115.316Y-112.776
T9
X101.092Y-129.012
X101.092Y-144.272
X101.092Y-149.312
X101.092Y-154.352
X108.592Y-129.012
X108.592Y-144.272
X108.592Y-149.312
X108.592Y-154.352
T10
X66.294Y-163.068
X71.294Y-163.068
X81.534Y-163.068
X86.534Y-163.068
X117.094Y-136.097
X117.094Y-141.097
X117.221Y-149.94
X117.221Y-154.94
T11
X55.92Y-69.166
X67.12Y-69.166
T12
X56.388Y-162.56
X57.428Y-31.054
X113.538Y-30.48
X115.062Y-163.322
T13
X76.2Y-96.624
M30
