%TF.GenerationSoftware,KiCad,Pcbnew,10.0.0*%
%TF.CreationDate,2026-04-13T18:26:29+02:00*%
%TF.ProjectId,DymBOX_AVR,44796d42-4f58-45f4-9156-522e6b696361,rev?*%
%TF.SameCoordinates,PX3013918PY981a6d8*%
%TF.FileFunction,Legend,Bot*%
%TF.FilePolarity,Positive*%
%FSLAX46Y46*%
G04 Gerber Fmt 4.6, Leading zero omitted, Abs format (unit mm)*
G04 Created by KiCad (PCBNEW 10.0.0) date 2026-04-13 18:26:29*
%MOMM*%
%LPD*%
G01*
G04 APERTURE LIST*
%ADD10C,0.100000*%
%ADD11C,0.250000*%
%ADD12C,0.375000*%
%ADD13C,1.000000*%
%ADD14C,0.187500*%
%ADD15C,0.150000*%
%ADD16C,0.120000*%
G04 APERTURE END LIST*
D10*
X5664200Y40563800D02*
X19126200Y40563800D01*
X19126200Y35941000D01*
X5664200Y35941000D01*
X5664200Y40563800D01*
G36*
X5664200Y40563800D02*
G01*
X19126200Y40563800D01*
X19126200Y35941000D01*
X5664200Y35941000D01*
X5664200Y40563800D01*
G37*
D11*
X24092574Y37132200D02*
X23806860Y37036962D01*
X23806860Y37036962D02*
X23330669Y37036962D01*
X23330669Y37036962D02*
X23140193Y37132200D01*
X23140193Y37132200D02*
X23044955Y37227439D01*
X23044955Y37227439D02*
X22949717Y37417915D01*
X22949717Y37417915D02*
X22949717Y37608391D01*
X22949717Y37608391D02*
X23044955Y37798867D01*
X23044955Y37798867D02*
X23140193Y37894105D01*
X23140193Y37894105D02*
X23330669Y37989343D01*
X23330669Y37989343D02*
X23711622Y38084581D01*
X23711622Y38084581D02*
X23902098Y38179820D01*
X23902098Y38179820D02*
X23997336Y38275058D01*
X23997336Y38275058D02*
X24092574Y38465534D01*
X24092574Y38465534D02*
X24092574Y38656010D01*
X24092574Y38656010D02*
X23997336Y38846486D01*
X23997336Y38846486D02*
X23902098Y38941724D01*
X23902098Y38941724D02*
X23711622Y39036962D01*
X23711622Y39036962D02*
X23235431Y39036962D01*
X23235431Y39036962D02*
X22949717Y38941724D01*
X22092574Y38370296D02*
X22092574Y37036962D01*
X22092574Y38179820D02*
X21997336Y38275058D01*
X21997336Y38275058D02*
X21806860Y38370296D01*
X21806860Y38370296D02*
X21521145Y38370296D01*
X21521145Y38370296D02*
X21330669Y38275058D01*
X21330669Y38275058D02*
X21235431Y38084581D01*
X21235431Y38084581D02*
X21235431Y37036962D01*
X20283050Y37227439D02*
X20187812Y37132200D01*
X20187812Y37132200D02*
X20283050Y37036962D01*
X20283050Y37036962D02*
X20378288Y37132200D01*
X20378288Y37132200D02*
X20283050Y37227439D01*
X20283050Y37227439D02*
X20283050Y37036962D01*
X20283050Y38275058D02*
X20187812Y38179820D01*
X20187812Y38179820D02*
X20283050Y38084581D01*
X20283050Y38084581D02*
X20378288Y38179820D01*
X20378288Y38179820D02*
X20283050Y38275058D01*
X20283050Y38275058D02*
X20283050Y38084581D01*
D12*
X25953461Y29821729D02*
X25810604Y29964586D01*
X25810604Y29964586D02*
X25524890Y30107443D01*
X25524890Y30107443D02*
X24810604Y30107443D01*
X24810604Y30107443D02*
X24524890Y29964586D01*
X24524890Y29964586D02*
X24382032Y29821729D01*
X24382032Y29821729D02*
X24239175Y29536015D01*
X24239175Y29536015D02*
X24239175Y29250300D01*
X24239175Y29250300D02*
X24382032Y28821729D01*
X24382032Y28821729D02*
X26096318Y27107443D01*
X26096318Y27107443D02*
X24239175Y27107443D01*
X23239175Y30107443D02*
X21382032Y30107443D01*
X21382032Y30107443D02*
X22382032Y28964586D01*
X22382032Y28964586D02*
X21953461Y28964586D01*
X21953461Y28964586D02*
X21667747Y28821729D01*
X21667747Y28821729D02*
X21524889Y28678872D01*
X21524889Y28678872D02*
X21382032Y28393158D01*
X21382032Y28393158D02*
X21382032Y27678872D01*
X21382032Y27678872D02*
X21524889Y27393158D01*
X21524889Y27393158D02*
X21667747Y27250300D01*
X21667747Y27250300D02*
X21953461Y27107443D01*
X21953461Y27107443D02*
X22810604Y27107443D01*
X22810604Y27107443D02*
X23096318Y27250300D01*
X23096318Y27250300D02*
X23239175Y27393158D01*
X19524889Y30107443D02*
X19239175Y30107443D01*
X19239175Y30107443D02*
X18953461Y29964586D01*
X18953461Y29964586D02*
X18810604Y29821729D01*
X18810604Y29821729D02*
X18667746Y29536015D01*
X18667746Y29536015D02*
X18524889Y28964586D01*
X18524889Y28964586D02*
X18524889Y28250300D01*
X18524889Y28250300D02*
X18667746Y27678872D01*
X18667746Y27678872D02*
X18810604Y27393158D01*
X18810604Y27393158D02*
X18953461Y27250300D01*
X18953461Y27250300D02*
X19239175Y27107443D01*
X19239175Y27107443D02*
X19524889Y27107443D01*
X19524889Y27107443D02*
X19810604Y27250300D01*
X19810604Y27250300D02*
X19953461Y27393158D01*
X19953461Y27393158D02*
X20096318Y27678872D01*
X20096318Y27678872D02*
X20239175Y28250300D01*
X20239175Y28250300D02*
X20239175Y28964586D01*
X20239175Y28964586D02*
X20096318Y29536015D01*
X20096318Y29536015D02*
X19953461Y29821729D01*
X19953461Y29821729D02*
X19810604Y29964586D01*
X19810604Y29964586D02*
X19524889Y30107443D01*
X15382032Y30107443D02*
X14382032Y27107443D01*
X14382032Y27107443D02*
X13382032Y30107443D01*
X10096318Y27393158D02*
X9953461Y27250300D01*
X9953461Y27250300D02*
X10096318Y27107443D01*
X10096318Y27107443D02*
X10239175Y27250300D01*
X10239175Y27250300D02*
X10096318Y27393158D01*
X10096318Y27393158D02*
X10096318Y27107443D01*
X10096318Y28250300D02*
X10239175Y29964586D01*
X10239175Y29964586D02*
X10096318Y30107443D01*
X10096318Y30107443D02*
X9953461Y29964586D01*
X9953461Y29964586D02*
X10096318Y28250300D01*
X10096318Y28250300D02*
X10096318Y30107443D01*
X8667747Y27393158D02*
X8524890Y27250300D01*
X8524890Y27250300D02*
X8667747Y27107443D01*
X8667747Y27107443D02*
X8810604Y27250300D01*
X8810604Y27250300D02*
X8667747Y27393158D01*
X8667747Y27393158D02*
X8667747Y27107443D01*
X8667747Y28250300D02*
X8810604Y29964586D01*
X8810604Y29964586D02*
X8667747Y30107443D01*
X8667747Y30107443D02*
X8524890Y29964586D01*
X8524890Y29964586D02*
X8667747Y28250300D01*
X8667747Y28250300D02*
X8667747Y30107443D01*
X7239176Y27393158D02*
X7096319Y27250300D01*
X7096319Y27250300D02*
X7239176Y27107443D01*
X7239176Y27107443D02*
X7382033Y27250300D01*
X7382033Y27250300D02*
X7239176Y27393158D01*
X7239176Y27393158D02*
X7239176Y27107443D01*
X7239176Y28250300D02*
X7382033Y29964586D01*
X7382033Y29964586D02*
X7239176Y30107443D01*
X7239176Y30107443D02*
X7096319Y29964586D01*
X7096319Y29964586D02*
X7239176Y28250300D01*
X7239176Y28250300D02*
X7239176Y30107443D01*
D13*
X70485000Y34696400D02*
X2870200Y34696400D01*
D14*
X48439902Y45893670D02*
X48439902Y47393670D01*
X48439902Y47393670D02*
X48082759Y47393670D01*
X48082759Y47393670D02*
X47868473Y47322241D01*
X47868473Y47322241D02*
X47725616Y47179384D01*
X47725616Y47179384D02*
X47654187Y47036527D01*
X47654187Y47036527D02*
X47582759Y46750813D01*
X47582759Y46750813D02*
X47582759Y46536527D01*
X47582759Y46536527D02*
X47654187Y46250813D01*
X47654187Y46250813D02*
X47725616Y46107956D01*
X47725616Y46107956D02*
X47868473Y45965098D01*
X47868473Y45965098D02*
X48082759Y45893670D01*
X48082759Y45893670D02*
X48439902Y45893670D01*
X47082759Y46893670D02*
X46725616Y45893670D01*
X46368473Y46893670D02*
X46725616Y45893670D01*
X46725616Y45893670D02*
X46868473Y45536527D01*
X46868473Y45536527D02*
X46939902Y45465098D01*
X46939902Y45465098D02*
X47082759Y45393670D01*
X45797045Y45893670D02*
X45797045Y46893670D01*
X45797045Y46750813D02*
X45725616Y46822241D01*
X45725616Y46822241D02*
X45582759Y46893670D01*
X45582759Y46893670D02*
X45368473Y46893670D01*
X45368473Y46893670D02*
X45225616Y46822241D01*
X45225616Y46822241D02*
X45154188Y46679384D01*
X45154188Y46679384D02*
X45154188Y45893670D01*
X45154188Y46679384D02*
X45082759Y46822241D01*
X45082759Y46822241D02*
X44939902Y46893670D01*
X44939902Y46893670D02*
X44725616Y46893670D01*
X44725616Y46893670D02*
X44582759Y46822241D01*
X44582759Y46822241D02*
X44511330Y46679384D01*
X44511330Y46679384D02*
X44511330Y45893670D01*
X43297045Y46679384D02*
X43082759Y46607956D01*
X43082759Y46607956D02*
X43011330Y46536527D01*
X43011330Y46536527D02*
X42939902Y46393670D01*
X42939902Y46393670D02*
X42939902Y46179384D01*
X42939902Y46179384D02*
X43011330Y46036527D01*
X43011330Y46036527D02*
X43082759Y45965098D01*
X43082759Y45965098D02*
X43225616Y45893670D01*
X43225616Y45893670D02*
X43797045Y45893670D01*
X43797045Y45893670D02*
X43797045Y47393670D01*
X43797045Y47393670D02*
X43297045Y47393670D01*
X43297045Y47393670D02*
X43154188Y47322241D01*
X43154188Y47322241D02*
X43082759Y47250813D01*
X43082759Y47250813D02*
X43011330Y47107956D01*
X43011330Y47107956D02*
X43011330Y46965098D01*
X43011330Y46965098D02*
X43082759Y46822241D01*
X43082759Y46822241D02*
X43154188Y46750813D01*
X43154188Y46750813D02*
X43297045Y46679384D01*
X43297045Y46679384D02*
X43797045Y46679384D01*
X42011330Y47393670D02*
X41725616Y47393670D01*
X41725616Y47393670D02*
X41582759Y47322241D01*
X41582759Y47322241D02*
X41439902Y47179384D01*
X41439902Y47179384D02*
X41368473Y46893670D01*
X41368473Y46893670D02*
X41368473Y46393670D01*
X41368473Y46393670D02*
X41439902Y46107956D01*
X41439902Y46107956D02*
X41582759Y45965098D01*
X41582759Y45965098D02*
X41725616Y45893670D01*
X41725616Y45893670D02*
X42011330Y45893670D01*
X42011330Y45893670D02*
X42154188Y45965098D01*
X42154188Y45965098D02*
X42297045Y46107956D01*
X42297045Y46107956D02*
X42368473Y46393670D01*
X42368473Y46393670D02*
X42368473Y46893670D01*
X42368473Y46893670D02*
X42297045Y47179384D01*
X42297045Y47179384D02*
X42154188Y47322241D01*
X42154188Y47322241D02*
X42011330Y47393670D01*
X40868473Y47393670D02*
X39868473Y45893670D01*
X39868473Y47393670D02*
X40868473Y45893670D01*
X38225616Y46322241D02*
X37511331Y46322241D01*
X38368473Y45893670D02*
X37868473Y47393670D01*
X37868473Y47393670D02*
X37368473Y45893670D01*
X37082759Y47393670D02*
X36582759Y45893670D01*
X36582759Y45893670D02*
X36082759Y47393670D01*
X34725617Y45893670D02*
X35225617Y46607956D01*
X35582760Y45893670D02*
X35582760Y47393670D01*
X35582760Y47393670D02*
X35011331Y47393670D01*
X35011331Y47393670D02*
X34868474Y47322241D01*
X34868474Y47322241D02*
X34797045Y47250813D01*
X34797045Y47250813D02*
X34725617Y47107956D01*
X34725617Y47107956D02*
X34725617Y46893670D01*
X34725617Y46893670D02*
X34797045Y46750813D01*
X34797045Y46750813D02*
X34868474Y46679384D01*
X34868474Y46679384D02*
X35011331Y46607956D01*
X35011331Y46607956D02*
X35582760Y46607956D01*
X33082760Y46893670D02*
X32725617Y45893670D01*
X32725617Y45893670D02*
X32368474Y46893670D01*
X31011331Y45893670D02*
X31868474Y45893670D01*
X31439903Y45893670D02*
X31439903Y47393670D01*
X31439903Y47393670D02*
X31582760Y47179384D01*
X31582760Y47179384D02*
X31725617Y47036527D01*
X31725617Y47036527D02*
X31868474Y46965098D01*
X28368475Y45893670D02*
X28868475Y46607956D01*
X29225618Y45893670D02*
X29225618Y47393670D01*
X29225618Y47393670D02*
X28654189Y47393670D01*
X28654189Y47393670D02*
X28511332Y47322241D01*
X28511332Y47322241D02*
X28439903Y47250813D01*
X28439903Y47250813D02*
X28368475Y47107956D01*
X28368475Y47107956D02*
X28368475Y46893670D01*
X28368475Y46893670D02*
X28439903Y46750813D01*
X28439903Y46750813D02*
X28511332Y46679384D01*
X28511332Y46679384D02*
X28654189Y46607956D01*
X28654189Y46607956D02*
X29225618Y46607956D01*
X27154189Y45965098D02*
X27297046Y45893670D01*
X27297046Y45893670D02*
X27582761Y45893670D01*
X27582761Y45893670D02*
X27725618Y45965098D01*
X27725618Y45965098D02*
X27797046Y46107956D01*
X27797046Y46107956D02*
X27797046Y46679384D01*
X27797046Y46679384D02*
X27725618Y46822241D01*
X27725618Y46822241D02*
X27582761Y46893670D01*
X27582761Y46893670D02*
X27297046Y46893670D01*
X27297046Y46893670D02*
X27154189Y46822241D01*
X27154189Y46822241D02*
X27082761Y46679384D01*
X27082761Y46679384D02*
X27082761Y46536527D01*
X27082761Y46536527D02*
X27797046Y46393670D01*
X26582761Y46893670D02*
X26225618Y45893670D01*
X26225618Y45893670D02*
X25868475Y46893670D01*
X25297047Y46036527D02*
X25225618Y45965098D01*
X25225618Y45965098D02*
X25297047Y45893670D01*
X25297047Y45893670D02*
X25368475Y45965098D01*
X25368475Y45965098D02*
X25297047Y46036527D01*
X25297047Y46036527D02*
X25297047Y45893670D01*
X23797046Y45893670D02*
X24654189Y45893670D01*
X24225618Y45893670D02*
X24225618Y47393670D01*
X24225618Y47393670D02*
X24368475Y47179384D01*
X24368475Y47179384D02*
X24511332Y47036527D01*
X24511332Y47036527D02*
X24654189Y46965098D01*
X48439902Y43478754D02*
X48439902Y44978754D01*
X47797045Y43478754D02*
X47797045Y44264468D01*
X47797045Y44264468D02*
X47868473Y44407325D01*
X47868473Y44407325D02*
X48011330Y44478754D01*
X48011330Y44478754D02*
X48225616Y44478754D01*
X48225616Y44478754D02*
X48368473Y44407325D01*
X48368473Y44407325D02*
X48439902Y44335897D01*
X47297044Y44478754D02*
X46725616Y44478754D01*
X47082759Y44978754D02*
X47082759Y43693040D01*
X47082759Y43693040D02*
X47011330Y43550182D01*
X47011330Y43550182D02*
X46868473Y43478754D01*
X46868473Y43478754D02*
X46725616Y43478754D01*
X46439901Y44478754D02*
X45868473Y44478754D01*
X46225616Y44978754D02*
X46225616Y43693040D01*
X46225616Y43693040D02*
X46154187Y43550182D01*
X46154187Y43550182D02*
X46011330Y43478754D01*
X46011330Y43478754D02*
X45868473Y43478754D01*
X45368473Y44478754D02*
X45368473Y42978754D01*
X45368473Y44407325D02*
X45225616Y44478754D01*
X45225616Y44478754D02*
X44939901Y44478754D01*
X44939901Y44478754D02*
X44797044Y44407325D01*
X44797044Y44407325D02*
X44725616Y44335897D01*
X44725616Y44335897D02*
X44654187Y44193040D01*
X44654187Y44193040D02*
X44654187Y43764468D01*
X44654187Y43764468D02*
X44725616Y43621611D01*
X44725616Y43621611D02*
X44797044Y43550182D01*
X44797044Y43550182D02*
X44939901Y43478754D01*
X44939901Y43478754D02*
X45225616Y43478754D01*
X45225616Y43478754D02*
X45368473Y43550182D01*
X44082758Y43550182D02*
X43939901Y43478754D01*
X43939901Y43478754D02*
X43654187Y43478754D01*
X43654187Y43478754D02*
X43511330Y43550182D01*
X43511330Y43550182D02*
X43439901Y43693040D01*
X43439901Y43693040D02*
X43439901Y43764468D01*
X43439901Y43764468D02*
X43511330Y43907325D01*
X43511330Y43907325D02*
X43654187Y43978754D01*
X43654187Y43978754D02*
X43868473Y43978754D01*
X43868473Y43978754D02*
X44011330Y44050182D01*
X44011330Y44050182D02*
X44082758Y44193040D01*
X44082758Y44193040D02*
X44082758Y44264468D01*
X44082758Y44264468D02*
X44011330Y44407325D01*
X44011330Y44407325D02*
X43868473Y44478754D01*
X43868473Y44478754D02*
X43654187Y44478754D01*
X43654187Y44478754D02*
X43511330Y44407325D01*
X42797044Y43621611D02*
X42725615Y43550182D01*
X42725615Y43550182D02*
X42797044Y43478754D01*
X42797044Y43478754D02*
X42868472Y43550182D01*
X42868472Y43550182D02*
X42797044Y43621611D01*
X42797044Y43621611D02*
X42797044Y43478754D01*
X42797044Y44407325D02*
X42725615Y44335897D01*
X42725615Y44335897D02*
X42797044Y44264468D01*
X42797044Y44264468D02*
X42868472Y44335897D01*
X42868472Y44335897D02*
X42797044Y44407325D01*
X42797044Y44407325D02*
X42797044Y44264468D01*
X41011329Y45050182D02*
X42297043Y43121611D01*
X39439900Y45050182D02*
X40725614Y43121611D01*
X38297043Y44478754D02*
X38297043Y43264468D01*
X38297043Y43264468D02*
X38368471Y43121611D01*
X38368471Y43121611D02*
X38439900Y43050182D01*
X38439900Y43050182D02*
X38582757Y42978754D01*
X38582757Y42978754D02*
X38797043Y42978754D01*
X38797043Y42978754D02*
X38939900Y43050182D01*
X38297043Y43550182D02*
X38439900Y43478754D01*
X38439900Y43478754D02*
X38725614Y43478754D01*
X38725614Y43478754D02*
X38868471Y43550182D01*
X38868471Y43550182D02*
X38939900Y43621611D01*
X38939900Y43621611D02*
X39011328Y43764468D01*
X39011328Y43764468D02*
X39011328Y44193040D01*
X39011328Y44193040D02*
X38939900Y44335897D01*
X38939900Y44335897D02*
X38868471Y44407325D01*
X38868471Y44407325D02*
X38725614Y44478754D01*
X38725614Y44478754D02*
X38439900Y44478754D01*
X38439900Y44478754D02*
X38297043Y44407325D01*
X37582757Y43478754D02*
X37582757Y44478754D01*
X37582757Y44978754D02*
X37654185Y44907325D01*
X37654185Y44907325D02*
X37582757Y44835897D01*
X37582757Y44835897D02*
X37511328Y44907325D01*
X37511328Y44907325D02*
X37582757Y44978754D01*
X37582757Y44978754D02*
X37582757Y44835897D01*
X37082756Y44478754D02*
X36511328Y44478754D01*
X36868471Y44978754D02*
X36868471Y43693040D01*
X36868471Y43693040D02*
X36797042Y43550182D01*
X36797042Y43550182D02*
X36654185Y43478754D01*
X36654185Y43478754D02*
X36511328Y43478754D01*
X36011328Y43478754D02*
X36011328Y44978754D01*
X35368471Y43478754D02*
X35368471Y44264468D01*
X35368471Y44264468D02*
X35439899Y44407325D01*
X35439899Y44407325D02*
X35582756Y44478754D01*
X35582756Y44478754D02*
X35797042Y44478754D01*
X35797042Y44478754D02*
X35939899Y44407325D01*
X35939899Y44407325D02*
X36011328Y44335897D01*
X34011328Y44478754D02*
X34011328Y43478754D01*
X34654185Y44478754D02*
X34654185Y43693040D01*
X34654185Y43693040D02*
X34582756Y43550182D01*
X34582756Y43550182D02*
X34439899Y43478754D01*
X34439899Y43478754D02*
X34225613Y43478754D01*
X34225613Y43478754D02*
X34082756Y43550182D01*
X34082756Y43550182D02*
X34011328Y43621611D01*
X33297042Y43478754D02*
X33297042Y44978754D01*
X33297042Y44407325D02*
X33154185Y44478754D01*
X33154185Y44478754D02*
X32868470Y44478754D01*
X32868470Y44478754D02*
X32725613Y44407325D01*
X32725613Y44407325D02*
X32654185Y44335897D01*
X32654185Y44335897D02*
X32582756Y44193040D01*
X32582756Y44193040D02*
X32582756Y43764468D01*
X32582756Y43764468D02*
X32654185Y43621611D01*
X32654185Y43621611D02*
X32725613Y43550182D01*
X32725613Y43550182D02*
X32868470Y43478754D01*
X32868470Y43478754D02*
X33154185Y43478754D01*
X33154185Y43478754D02*
X33297042Y43550182D01*
X31939899Y43621611D02*
X31868470Y43550182D01*
X31868470Y43550182D02*
X31939899Y43478754D01*
X31939899Y43478754D02*
X32011327Y43550182D01*
X32011327Y43550182D02*
X31939899Y43621611D01*
X31939899Y43621611D02*
X31939899Y43478754D01*
X30582756Y43550182D02*
X30725613Y43478754D01*
X30725613Y43478754D02*
X31011327Y43478754D01*
X31011327Y43478754D02*
X31154184Y43550182D01*
X31154184Y43550182D02*
X31225613Y43621611D01*
X31225613Y43621611D02*
X31297041Y43764468D01*
X31297041Y43764468D02*
X31297041Y44193040D01*
X31297041Y44193040D02*
X31225613Y44335897D01*
X31225613Y44335897D02*
X31154184Y44407325D01*
X31154184Y44407325D02*
X31011327Y44478754D01*
X31011327Y44478754D02*
X30725613Y44478754D01*
X30725613Y44478754D02*
X30582756Y44407325D01*
X29725613Y43478754D02*
X29868470Y43550182D01*
X29868470Y43550182D02*
X29939899Y43621611D01*
X29939899Y43621611D02*
X30011327Y43764468D01*
X30011327Y43764468D02*
X30011327Y44193040D01*
X30011327Y44193040D02*
X29939899Y44335897D01*
X29939899Y44335897D02*
X29868470Y44407325D01*
X29868470Y44407325D02*
X29725613Y44478754D01*
X29725613Y44478754D02*
X29511327Y44478754D01*
X29511327Y44478754D02*
X29368470Y44407325D01*
X29368470Y44407325D02*
X29297042Y44335897D01*
X29297042Y44335897D02*
X29225613Y44193040D01*
X29225613Y44193040D02*
X29225613Y43764468D01*
X29225613Y43764468D02*
X29297042Y43621611D01*
X29297042Y43621611D02*
X29368470Y43550182D01*
X29368470Y43550182D02*
X29511327Y43478754D01*
X29511327Y43478754D02*
X29725613Y43478754D01*
X28582756Y43478754D02*
X28582756Y44478754D01*
X28582756Y44335897D02*
X28511327Y44407325D01*
X28511327Y44407325D02*
X28368470Y44478754D01*
X28368470Y44478754D02*
X28154184Y44478754D01*
X28154184Y44478754D02*
X28011327Y44407325D01*
X28011327Y44407325D02*
X27939899Y44264468D01*
X27939899Y44264468D02*
X27939899Y43478754D01*
X27939899Y44264468D02*
X27868470Y44407325D01*
X27868470Y44407325D02*
X27725613Y44478754D01*
X27725613Y44478754D02*
X27511327Y44478754D01*
X27511327Y44478754D02*
X27368470Y44407325D01*
X27368470Y44407325D02*
X27297041Y44264468D01*
X27297041Y44264468D02*
X27297041Y43478754D01*
X25511327Y45050182D02*
X26797041Y43121611D01*
X25082755Y44835897D02*
X25011327Y44907325D01*
X25011327Y44907325D02*
X24868470Y44978754D01*
X24868470Y44978754D02*
X24511327Y44978754D01*
X24511327Y44978754D02*
X24368470Y44907325D01*
X24368470Y44907325D02*
X24297041Y44835897D01*
X24297041Y44835897D02*
X24225612Y44693040D01*
X24225612Y44693040D02*
X24225612Y44550182D01*
X24225612Y44550182D02*
X24297041Y44335897D01*
X24297041Y44335897D02*
X25154184Y43478754D01*
X25154184Y43478754D02*
X24225612Y43478754D01*
X23582756Y44478754D02*
X23582756Y42978754D01*
X23582756Y44407325D02*
X23439899Y44478754D01*
X23439899Y44478754D02*
X23154184Y44478754D01*
X23154184Y44478754D02*
X23011327Y44407325D01*
X23011327Y44407325D02*
X22939899Y44335897D01*
X22939899Y44335897D02*
X22868470Y44193040D01*
X22868470Y44193040D02*
X22868470Y43764468D01*
X22868470Y43764468D02*
X22939899Y43621611D01*
X22939899Y43621611D02*
X23011327Y43550182D01*
X23011327Y43550182D02*
X23154184Y43478754D01*
X23154184Y43478754D02*
X23439899Y43478754D01*
X23439899Y43478754D02*
X23582756Y43550182D01*
X22225613Y43478754D02*
X22225613Y44978754D01*
X22082756Y44050182D02*
X21654184Y43478754D01*
X21654184Y44478754D02*
X22225613Y43907325D01*
X21082755Y43550182D02*
X20939898Y43478754D01*
X20939898Y43478754D02*
X20654184Y43478754D01*
X20654184Y43478754D02*
X20511327Y43550182D01*
X20511327Y43550182D02*
X20439898Y43693040D01*
X20439898Y43693040D02*
X20439898Y43764468D01*
X20439898Y43764468D02*
X20511327Y43907325D01*
X20511327Y43907325D02*
X20654184Y43978754D01*
X20654184Y43978754D02*
X20868470Y43978754D01*
X20868470Y43978754D02*
X21011327Y44050182D01*
X21011327Y44050182D02*
X21082755Y44193040D01*
X21082755Y44193040D02*
X21082755Y44264468D01*
X21082755Y44264468D02*
X21011327Y44407325D01*
X21011327Y44407325D02*
X20868470Y44478754D01*
X20868470Y44478754D02*
X20654184Y44478754D01*
X20654184Y44478754D02*
X20511327Y44407325D01*
X20011326Y44478754D02*
X19439898Y44478754D01*
X19797041Y44978754D02*
X19797041Y43693040D01*
X19797041Y43693040D02*
X19725612Y43550182D01*
X19725612Y43550182D02*
X19582755Y43478754D01*
X19582755Y43478754D02*
X19439898Y43478754D01*
X18297041Y43478754D02*
X18297041Y44264468D01*
X18297041Y44264468D02*
X18368469Y44407325D01*
X18368469Y44407325D02*
X18511326Y44478754D01*
X18511326Y44478754D02*
X18797041Y44478754D01*
X18797041Y44478754D02*
X18939898Y44407325D01*
X18297041Y43550182D02*
X18439898Y43478754D01*
X18439898Y43478754D02*
X18797041Y43478754D01*
X18797041Y43478754D02*
X18939898Y43550182D01*
X18939898Y43550182D02*
X19011326Y43693040D01*
X19011326Y43693040D02*
X19011326Y43835897D01*
X19011326Y43835897D02*
X18939898Y43978754D01*
X18939898Y43978754D02*
X18797041Y44050182D01*
X18797041Y44050182D02*
X18439898Y44050182D01*
X18439898Y44050182D02*
X18297041Y44121611D01*
X17582755Y43478754D02*
X17582755Y44478754D01*
X17582755Y44193040D02*
X17511326Y44335897D01*
X17511326Y44335897D02*
X17439898Y44407325D01*
X17439898Y44407325D02*
X17297040Y44478754D01*
X17297040Y44478754D02*
X17154183Y44478754D01*
X16868469Y44478754D02*
X16297041Y44478754D01*
X16654184Y44978754D02*
X16654184Y43693040D01*
X16654184Y43693040D02*
X16582755Y43550182D01*
X16582755Y43550182D02*
X16439898Y43478754D01*
X16439898Y43478754D02*
X16297041Y43478754D01*
X15154184Y44478754D02*
X15154184Y43478754D01*
X15797041Y44478754D02*
X15797041Y43693040D01*
X15797041Y43693040D02*
X15725612Y43550182D01*
X15725612Y43550182D02*
X15582755Y43478754D01*
X15582755Y43478754D02*
X15368469Y43478754D01*
X15368469Y43478754D02*
X15225612Y43550182D01*
X15225612Y43550182D02*
X15154184Y43621611D01*
X14439898Y44478754D02*
X14439898Y42978754D01*
X14439898Y44407325D02*
X14297041Y44478754D01*
X14297041Y44478754D02*
X14011326Y44478754D01*
X14011326Y44478754D02*
X13868469Y44407325D01*
X13868469Y44407325D02*
X13797041Y44335897D01*
X13797041Y44335897D02*
X13725612Y44193040D01*
X13725612Y44193040D02*
X13725612Y43764468D01*
X13725612Y43764468D02*
X13797041Y43621611D01*
X13797041Y43621611D02*
X13868469Y43550182D01*
X13868469Y43550182D02*
X14011326Y43478754D01*
X14011326Y43478754D02*
X14297041Y43478754D01*
X14297041Y43478754D02*
X14439898Y43550182D01*
X12011326Y45050182D02*
X13297040Y43121611D01*
X11511326Y43478754D02*
X11511326Y44978754D01*
X11511326Y44978754D02*
X11154183Y44978754D01*
X11154183Y44978754D02*
X10939897Y44907325D01*
X10939897Y44907325D02*
X10797040Y44764468D01*
X10797040Y44764468D02*
X10725611Y44621611D01*
X10725611Y44621611D02*
X10654183Y44335897D01*
X10654183Y44335897D02*
X10654183Y44121611D01*
X10654183Y44121611D02*
X10725611Y43835897D01*
X10725611Y43835897D02*
X10797040Y43693040D01*
X10797040Y43693040D02*
X10939897Y43550182D01*
X10939897Y43550182D02*
X11154183Y43478754D01*
X11154183Y43478754D02*
X11511326Y43478754D01*
X10154183Y44478754D02*
X9797040Y43478754D01*
X9439897Y44478754D02*
X9797040Y43478754D01*
X9797040Y43478754D02*
X9939897Y43121611D01*
X9939897Y43121611D02*
X10011326Y43050182D01*
X10011326Y43050182D02*
X10154183Y42978754D01*
X8868469Y43478754D02*
X8868469Y44478754D01*
X8868469Y44335897D02*
X8797040Y44407325D01*
X8797040Y44407325D02*
X8654183Y44478754D01*
X8654183Y44478754D02*
X8439897Y44478754D01*
X8439897Y44478754D02*
X8297040Y44407325D01*
X8297040Y44407325D02*
X8225612Y44264468D01*
X8225612Y44264468D02*
X8225612Y43478754D01*
X8225612Y44264468D02*
X8154183Y44407325D01*
X8154183Y44407325D02*
X8011326Y44478754D01*
X8011326Y44478754D02*
X7797040Y44478754D01*
X7797040Y44478754D02*
X7654183Y44407325D01*
X7654183Y44407325D02*
X7582754Y44264468D01*
X7582754Y44264468D02*
X7582754Y43478754D01*
X6368469Y44264468D02*
X6154183Y44193040D01*
X6154183Y44193040D02*
X6082754Y44121611D01*
X6082754Y44121611D02*
X6011326Y43978754D01*
X6011326Y43978754D02*
X6011326Y43764468D01*
X6011326Y43764468D02*
X6082754Y43621611D01*
X6082754Y43621611D02*
X6154183Y43550182D01*
X6154183Y43550182D02*
X6297040Y43478754D01*
X6297040Y43478754D02*
X6868469Y43478754D01*
X6868469Y43478754D02*
X6868469Y44978754D01*
X6868469Y44978754D02*
X6368469Y44978754D01*
X6368469Y44978754D02*
X6225612Y44907325D01*
X6225612Y44907325D02*
X6154183Y44835897D01*
X6154183Y44835897D02*
X6082754Y44693040D01*
X6082754Y44693040D02*
X6082754Y44550182D01*
X6082754Y44550182D02*
X6154183Y44407325D01*
X6154183Y44407325D02*
X6225612Y44335897D01*
X6225612Y44335897D02*
X6368469Y44264468D01*
X6368469Y44264468D02*
X6868469Y44264468D01*
X5082754Y44978754D02*
X4797040Y44978754D01*
X4797040Y44978754D02*
X4654183Y44907325D01*
X4654183Y44907325D02*
X4511326Y44764468D01*
X4511326Y44764468D02*
X4439897Y44478754D01*
X4439897Y44478754D02*
X4439897Y43978754D01*
X4439897Y43978754D02*
X4511326Y43693040D01*
X4511326Y43693040D02*
X4654183Y43550182D01*
X4654183Y43550182D02*
X4797040Y43478754D01*
X4797040Y43478754D02*
X5082754Y43478754D01*
X5082754Y43478754D02*
X5225612Y43550182D01*
X5225612Y43550182D02*
X5368469Y43693040D01*
X5368469Y43693040D02*
X5439897Y43978754D01*
X5439897Y43978754D02*
X5439897Y44478754D01*
X5439897Y44478754D02*
X5368469Y44764468D01*
X5368469Y44764468D02*
X5225612Y44907325D01*
X5225612Y44907325D02*
X5082754Y44978754D01*
X3939897Y44978754D02*
X2939897Y43478754D01*
X2939897Y44978754D02*
X3939897Y43478754D01*
X48511330Y42420981D02*
X48439902Y42492409D01*
X48439902Y42492409D02*
X48297045Y42563838D01*
X48297045Y42563838D02*
X47939902Y42563838D01*
X47939902Y42563838D02*
X47797045Y42492409D01*
X47797045Y42492409D02*
X47725616Y42420981D01*
X47725616Y42420981D02*
X47654187Y42278124D01*
X47654187Y42278124D02*
X47654187Y42135266D01*
X47654187Y42135266D02*
X47725616Y41920981D01*
X47725616Y41920981D02*
X48582759Y41063838D01*
X48582759Y41063838D02*
X47654187Y41063838D01*
X47011331Y42063838D02*
X47011331Y40563838D01*
X47011331Y41992409D02*
X46868474Y42063838D01*
X46868474Y42063838D02*
X46582759Y42063838D01*
X46582759Y42063838D02*
X46439902Y41992409D01*
X46439902Y41992409D02*
X46368474Y41920981D01*
X46368474Y41920981D02*
X46297045Y41778124D01*
X46297045Y41778124D02*
X46297045Y41349552D01*
X46297045Y41349552D02*
X46368474Y41206695D01*
X46368474Y41206695D02*
X46439902Y41135266D01*
X46439902Y41135266D02*
X46582759Y41063838D01*
X46582759Y41063838D02*
X46868474Y41063838D01*
X46868474Y41063838D02*
X47011331Y41135266D01*
X45654188Y41063838D02*
X45654188Y42563838D01*
X45511331Y41635266D02*
X45082759Y41063838D01*
X45082759Y42063838D02*
X45654188Y41492409D01*
X44511330Y41135266D02*
X44368473Y41063838D01*
X44368473Y41063838D02*
X44082759Y41063838D01*
X44082759Y41063838D02*
X43939902Y41135266D01*
X43939902Y41135266D02*
X43868473Y41278124D01*
X43868473Y41278124D02*
X43868473Y41349552D01*
X43868473Y41349552D02*
X43939902Y41492409D01*
X43939902Y41492409D02*
X44082759Y41563838D01*
X44082759Y41563838D02*
X44297045Y41563838D01*
X44297045Y41563838D02*
X44439902Y41635266D01*
X44439902Y41635266D02*
X44511330Y41778124D01*
X44511330Y41778124D02*
X44511330Y41849552D01*
X44511330Y41849552D02*
X44439902Y41992409D01*
X44439902Y41992409D02*
X44297045Y42063838D01*
X44297045Y42063838D02*
X44082759Y42063838D01*
X44082759Y42063838D02*
X43939902Y41992409D01*
X43439901Y42063838D02*
X42868473Y42063838D01*
X43225616Y42563838D02*
X43225616Y41278124D01*
X43225616Y41278124D02*
X43154187Y41135266D01*
X43154187Y41135266D02*
X43011330Y41063838D01*
X43011330Y41063838D02*
X42868473Y41063838D01*
X41725616Y41063838D02*
X41725616Y41849552D01*
X41725616Y41849552D02*
X41797044Y41992409D01*
X41797044Y41992409D02*
X41939901Y42063838D01*
X41939901Y42063838D02*
X42225616Y42063838D01*
X42225616Y42063838D02*
X42368473Y41992409D01*
X41725616Y41135266D02*
X41868473Y41063838D01*
X41868473Y41063838D02*
X42225616Y41063838D01*
X42225616Y41063838D02*
X42368473Y41135266D01*
X42368473Y41135266D02*
X42439901Y41278124D01*
X42439901Y41278124D02*
X42439901Y41420981D01*
X42439901Y41420981D02*
X42368473Y41563838D01*
X42368473Y41563838D02*
X42225616Y41635266D01*
X42225616Y41635266D02*
X41868473Y41635266D01*
X41868473Y41635266D02*
X41725616Y41706695D01*
X41011330Y41063838D02*
X41011330Y42063838D01*
X41011330Y41778124D02*
X40939901Y41920981D01*
X40939901Y41920981D02*
X40868473Y41992409D01*
X40868473Y41992409D02*
X40725615Y42063838D01*
X40725615Y42063838D02*
X40582758Y42063838D01*
X40297044Y42063838D02*
X39725616Y42063838D01*
X40082759Y42563838D02*
X40082759Y41278124D01*
X40082759Y41278124D02*
X40011330Y41135266D01*
X40011330Y41135266D02*
X39868473Y41063838D01*
X39868473Y41063838D02*
X39725616Y41063838D01*
X38582759Y42063838D02*
X38582759Y41063838D01*
X39225616Y42063838D02*
X39225616Y41278124D01*
X39225616Y41278124D02*
X39154187Y41135266D01*
X39154187Y41135266D02*
X39011330Y41063838D01*
X39011330Y41063838D02*
X38797044Y41063838D01*
X38797044Y41063838D02*
X38654187Y41135266D01*
X38654187Y41135266D02*
X38582759Y41206695D01*
X37868473Y42063838D02*
X37868473Y40563838D01*
X37868473Y41992409D02*
X37725616Y42063838D01*
X37725616Y42063838D02*
X37439901Y42063838D01*
X37439901Y42063838D02*
X37297044Y41992409D01*
X37297044Y41992409D02*
X37225616Y41920981D01*
X37225616Y41920981D02*
X37154187Y41778124D01*
X37154187Y41778124D02*
X37154187Y41349552D01*
X37154187Y41349552D02*
X37225616Y41206695D01*
X37225616Y41206695D02*
X37297044Y41135266D01*
X37297044Y41135266D02*
X37439901Y41063838D01*
X37439901Y41063838D02*
X37725616Y41063838D01*
X37725616Y41063838D02*
X37868473Y41135266D01*
X35582758Y41778124D02*
X35654187Y41849552D01*
X35654187Y41849552D02*
X35797044Y41920981D01*
X35797044Y41920981D02*
X35939901Y41920981D01*
X35939901Y41920981D02*
X36082758Y41849552D01*
X36082758Y41849552D02*
X36154187Y41778124D01*
X36154187Y41778124D02*
X36225615Y41635266D01*
X36225615Y41635266D02*
X36225615Y41492409D01*
X36225615Y41492409D02*
X36154187Y41349552D01*
X36154187Y41349552D02*
X36082758Y41278124D01*
X36082758Y41278124D02*
X35939901Y41206695D01*
X35939901Y41206695D02*
X35797044Y41206695D01*
X35797044Y41206695D02*
X35654187Y41278124D01*
X35654187Y41278124D02*
X35582758Y41349552D01*
X35582758Y41920981D02*
X35582758Y41349552D01*
X35582758Y41349552D02*
X35511330Y41278124D01*
X35511330Y41278124D02*
X35439901Y41278124D01*
X35439901Y41278124D02*
X35297044Y41349552D01*
X35297044Y41349552D02*
X35225615Y41492409D01*
X35225615Y41492409D02*
X35225615Y41849552D01*
X35225615Y41849552D02*
X35368473Y42063838D01*
X35368473Y42063838D02*
X35582758Y42206695D01*
X35582758Y42206695D02*
X35868473Y42278124D01*
X35868473Y42278124D02*
X36154187Y42206695D01*
X36154187Y42206695D02*
X36368473Y42063838D01*
X36368473Y42063838D02*
X36511330Y41849552D01*
X36511330Y41849552D02*
X36582758Y41563838D01*
X36582758Y41563838D02*
X36511330Y41278124D01*
X36511330Y41278124D02*
X36368473Y41063838D01*
X36368473Y41063838D02*
X36154187Y40920981D01*
X36154187Y40920981D02*
X35868473Y40849552D01*
X35868473Y40849552D02*
X35582758Y40920981D01*
X35582758Y40920981D02*
X35368473Y41063838D01*
X33939902Y42063838D02*
X33939902Y40849552D01*
X33939902Y40849552D02*
X34011330Y40706695D01*
X34011330Y40706695D02*
X34082759Y40635266D01*
X34082759Y40635266D02*
X34225616Y40563838D01*
X34225616Y40563838D02*
X34439902Y40563838D01*
X34439902Y40563838D02*
X34582759Y40635266D01*
X33939902Y41135266D02*
X34082759Y41063838D01*
X34082759Y41063838D02*
X34368473Y41063838D01*
X34368473Y41063838D02*
X34511330Y41135266D01*
X34511330Y41135266D02*
X34582759Y41206695D01*
X34582759Y41206695D02*
X34654187Y41349552D01*
X34654187Y41349552D02*
X34654187Y41778124D01*
X34654187Y41778124D02*
X34582759Y41920981D01*
X34582759Y41920981D02*
X34511330Y41992409D01*
X34511330Y41992409D02*
X34368473Y42063838D01*
X34368473Y42063838D02*
X34082759Y42063838D01*
X34082759Y42063838D02*
X33939902Y41992409D01*
X33225616Y41063838D02*
X33225616Y42063838D01*
X33225616Y41920981D02*
X33154187Y41992409D01*
X33154187Y41992409D02*
X33011330Y42063838D01*
X33011330Y42063838D02*
X32797044Y42063838D01*
X32797044Y42063838D02*
X32654187Y41992409D01*
X32654187Y41992409D02*
X32582759Y41849552D01*
X32582759Y41849552D02*
X32582759Y41063838D01*
X32582759Y41849552D02*
X32511330Y41992409D01*
X32511330Y41992409D02*
X32368473Y42063838D01*
X32368473Y42063838D02*
X32154187Y42063838D01*
X32154187Y42063838D02*
X32011330Y41992409D01*
X32011330Y41992409D02*
X31939901Y41849552D01*
X31939901Y41849552D02*
X31939901Y41063838D01*
X30582759Y41063838D02*
X30582759Y41849552D01*
X30582759Y41849552D02*
X30654187Y41992409D01*
X30654187Y41992409D02*
X30797044Y42063838D01*
X30797044Y42063838D02*
X31082759Y42063838D01*
X31082759Y42063838D02*
X31225616Y41992409D01*
X30582759Y41135266D02*
X30725616Y41063838D01*
X30725616Y41063838D02*
X31082759Y41063838D01*
X31082759Y41063838D02*
X31225616Y41135266D01*
X31225616Y41135266D02*
X31297044Y41278124D01*
X31297044Y41278124D02*
X31297044Y41420981D01*
X31297044Y41420981D02*
X31225616Y41563838D01*
X31225616Y41563838D02*
X31082759Y41635266D01*
X31082759Y41635266D02*
X30725616Y41635266D01*
X30725616Y41635266D02*
X30582759Y41706695D01*
X29868473Y41063838D02*
X29868473Y42063838D01*
X29868473Y42563838D02*
X29939901Y42492409D01*
X29939901Y42492409D02*
X29868473Y42420981D01*
X29868473Y42420981D02*
X29797044Y42492409D01*
X29797044Y42492409D02*
X29868473Y42563838D01*
X29868473Y42563838D02*
X29868473Y42420981D01*
X28939901Y41063838D02*
X29082758Y41135266D01*
X29082758Y41135266D02*
X29154187Y41278124D01*
X29154187Y41278124D02*
X29154187Y42563838D01*
X28368473Y41206695D02*
X28297044Y41135266D01*
X28297044Y41135266D02*
X28368473Y41063838D01*
X28368473Y41063838D02*
X28439901Y41135266D01*
X28439901Y41135266D02*
X28368473Y41206695D01*
X28368473Y41206695D02*
X28368473Y41063838D01*
X27011330Y41135266D02*
X27154187Y41063838D01*
X27154187Y41063838D02*
X27439901Y41063838D01*
X27439901Y41063838D02*
X27582758Y41135266D01*
X27582758Y41135266D02*
X27654187Y41206695D01*
X27654187Y41206695D02*
X27725615Y41349552D01*
X27725615Y41349552D02*
X27725615Y41778124D01*
X27725615Y41778124D02*
X27654187Y41920981D01*
X27654187Y41920981D02*
X27582758Y41992409D01*
X27582758Y41992409D02*
X27439901Y42063838D01*
X27439901Y42063838D02*
X27154187Y42063838D01*
X27154187Y42063838D02*
X27011330Y41992409D01*
X26154187Y41063838D02*
X26297044Y41135266D01*
X26297044Y41135266D02*
X26368473Y41206695D01*
X26368473Y41206695D02*
X26439901Y41349552D01*
X26439901Y41349552D02*
X26439901Y41778124D01*
X26439901Y41778124D02*
X26368473Y41920981D01*
X26368473Y41920981D02*
X26297044Y41992409D01*
X26297044Y41992409D02*
X26154187Y42063838D01*
X26154187Y42063838D02*
X25939901Y42063838D01*
X25939901Y42063838D02*
X25797044Y41992409D01*
X25797044Y41992409D02*
X25725616Y41920981D01*
X25725616Y41920981D02*
X25654187Y41778124D01*
X25654187Y41778124D02*
X25654187Y41349552D01*
X25654187Y41349552D02*
X25725616Y41206695D01*
X25725616Y41206695D02*
X25797044Y41135266D01*
X25797044Y41135266D02*
X25939901Y41063838D01*
X25939901Y41063838D02*
X26154187Y41063838D01*
X25011330Y41063838D02*
X25011330Y42063838D01*
X25011330Y41920981D02*
X24939901Y41992409D01*
X24939901Y41992409D02*
X24797044Y42063838D01*
X24797044Y42063838D02*
X24582758Y42063838D01*
X24582758Y42063838D02*
X24439901Y41992409D01*
X24439901Y41992409D02*
X24368473Y41849552D01*
X24368473Y41849552D02*
X24368473Y41063838D01*
X24368473Y41849552D02*
X24297044Y41992409D01*
X24297044Y41992409D02*
X24154187Y42063838D01*
X24154187Y42063838D02*
X23939901Y42063838D01*
X23939901Y42063838D02*
X23797044Y41992409D01*
X23797044Y41992409D02*
X23725615Y41849552D01*
X23725615Y41849552D02*
X23725615Y41063838D01*
X47511330Y39363208D02*
X47582759Y39434636D01*
X47582759Y39434636D02*
X47725616Y39506065D01*
X47725616Y39506065D02*
X47868473Y39506065D01*
X47868473Y39506065D02*
X48011330Y39434636D01*
X48011330Y39434636D02*
X48082759Y39363208D01*
X48082759Y39363208D02*
X48154187Y39220350D01*
X48154187Y39220350D02*
X48154187Y39077493D01*
X48154187Y39077493D02*
X48082759Y38934636D01*
X48082759Y38934636D02*
X48011330Y38863208D01*
X48011330Y38863208D02*
X47868473Y38791779D01*
X47868473Y38791779D02*
X47725616Y38791779D01*
X47725616Y38791779D02*
X47582759Y38863208D01*
X47582759Y38863208D02*
X47511330Y38934636D01*
X47511330Y39506065D02*
X47511330Y38934636D01*
X47511330Y38934636D02*
X47439902Y38863208D01*
X47439902Y38863208D02*
X47368473Y38863208D01*
X47368473Y38863208D02*
X47225616Y38934636D01*
X47225616Y38934636D02*
X47154187Y39077493D01*
X47154187Y39077493D02*
X47154187Y39434636D01*
X47154187Y39434636D02*
X47297045Y39648922D01*
X47297045Y39648922D02*
X47511330Y39791779D01*
X47511330Y39791779D02*
X47797045Y39863208D01*
X47797045Y39863208D02*
X48082759Y39791779D01*
X48082759Y39791779D02*
X48297045Y39648922D01*
X48297045Y39648922D02*
X48439902Y39434636D01*
X48439902Y39434636D02*
X48511330Y39148922D01*
X48511330Y39148922D02*
X48439902Y38863208D01*
X48439902Y38863208D02*
X48297045Y38648922D01*
X48297045Y38648922D02*
X48082759Y38506065D01*
X48082759Y38506065D02*
X47797045Y38434636D01*
X47797045Y38434636D02*
X47511330Y38506065D01*
X47511330Y38506065D02*
X47297045Y38648922D01*
X46582759Y40006065D02*
X46511331Y40077493D01*
X46511331Y40077493D02*
X46368474Y40148922D01*
X46368474Y40148922D02*
X46011331Y40148922D01*
X46011331Y40148922D02*
X45868474Y40077493D01*
X45868474Y40077493D02*
X45797045Y40006065D01*
X45797045Y40006065D02*
X45725616Y39863208D01*
X45725616Y39863208D02*
X45725616Y39720350D01*
X45725616Y39720350D02*
X45797045Y39506065D01*
X45797045Y39506065D02*
X46654188Y38648922D01*
X46654188Y38648922D02*
X45725616Y38648922D01*
X44797045Y40148922D02*
X44654188Y40148922D01*
X44654188Y40148922D02*
X44511331Y40077493D01*
X44511331Y40077493D02*
X44439903Y40006065D01*
X44439903Y40006065D02*
X44368474Y39863208D01*
X44368474Y39863208D02*
X44297045Y39577493D01*
X44297045Y39577493D02*
X44297045Y39220350D01*
X44297045Y39220350D02*
X44368474Y38934636D01*
X44368474Y38934636D02*
X44439903Y38791779D01*
X44439903Y38791779D02*
X44511331Y38720350D01*
X44511331Y38720350D02*
X44654188Y38648922D01*
X44654188Y38648922D02*
X44797045Y38648922D01*
X44797045Y38648922D02*
X44939903Y38720350D01*
X44939903Y38720350D02*
X45011331Y38791779D01*
X45011331Y38791779D02*
X45082760Y38934636D01*
X45082760Y38934636D02*
X45154188Y39220350D01*
X45154188Y39220350D02*
X45154188Y39577493D01*
X45154188Y39577493D02*
X45082760Y39863208D01*
X45082760Y39863208D02*
X45011331Y40006065D01*
X45011331Y40006065D02*
X44939903Y40077493D01*
X44939903Y40077493D02*
X44797045Y40148922D01*
X43725617Y40006065D02*
X43654189Y40077493D01*
X43654189Y40077493D02*
X43511332Y40148922D01*
X43511332Y40148922D02*
X43154189Y40148922D01*
X43154189Y40148922D02*
X43011332Y40077493D01*
X43011332Y40077493D02*
X42939903Y40006065D01*
X42939903Y40006065D02*
X42868474Y39863208D01*
X42868474Y39863208D02*
X42868474Y39720350D01*
X42868474Y39720350D02*
X42939903Y39506065D01*
X42939903Y39506065D02*
X43797046Y38648922D01*
X43797046Y38648922D02*
X42868474Y38648922D01*
X41582761Y40148922D02*
X41868475Y40148922D01*
X41868475Y40148922D02*
X42011332Y40077493D01*
X42011332Y40077493D02*
X42082761Y40006065D01*
X42082761Y40006065D02*
X42225618Y39791779D01*
X42225618Y39791779D02*
X42297046Y39506065D01*
X42297046Y39506065D02*
X42297046Y38934636D01*
X42297046Y38934636D02*
X42225618Y38791779D01*
X42225618Y38791779D02*
X42154189Y38720350D01*
X42154189Y38720350D02*
X42011332Y38648922D01*
X42011332Y38648922D02*
X41725618Y38648922D01*
X41725618Y38648922D02*
X41582761Y38720350D01*
X41582761Y38720350D02*
X41511332Y38791779D01*
X41511332Y38791779D02*
X41439903Y38934636D01*
X41439903Y38934636D02*
X41439903Y39291779D01*
X41439903Y39291779D02*
X41511332Y39434636D01*
X41511332Y39434636D02*
X41582761Y39506065D01*
X41582761Y39506065D02*
X41725618Y39577493D01*
X41725618Y39577493D02*
X42011332Y39577493D01*
X42011332Y39577493D02*
X42154189Y39506065D01*
X42154189Y39506065D02*
X42225618Y39434636D01*
X42225618Y39434636D02*
X42297046Y39291779D01*
D15*
X69037104Y84619181D02*
X69037104Y83809658D01*
X69037104Y83809658D02*
X68989485Y83714420D01*
X68989485Y83714420D02*
X68941866Y83666800D01*
X68941866Y83666800D02*
X68846628Y83619181D01*
X68846628Y83619181D02*
X68656152Y83619181D01*
X68656152Y83619181D02*
X68560914Y83666800D01*
X68560914Y83666800D02*
X68513295Y83714420D01*
X68513295Y83714420D02*
X68465676Y83809658D01*
X68465676Y83809658D02*
X68465676Y84619181D01*
X68037104Y84523943D02*
X67989485Y84571562D01*
X67989485Y84571562D02*
X67894247Y84619181D01*
X67894247Y84619181D02*
X67656152Y84619181D01*
X67656152Y84619181D02*
X67560914Y84571562D01*
X67560914Y84571562D02*
X67513295Y84523943D01*
X67513295Y84523943D02*
X67465676Y84428705D01*
X67465676Y84428705D02*
X67465676Y84333467D01*
X67465676Y84333467D02*
X67513295Y84190610D01*
X67513295Y84190610D02*
X68084723Y83619181D01*
X68084723Y83619181D02*
X67465676Y83619181D01*
X51960390Y74559772D02*
X51960390Y74083581D01*
X52293723Y75083581D02*
X51960390Y74559772D01*
X51960390Y74559772D02*
X51627057Y75083581D01*
X50769914Y74083581D02*
X51341342Y74083581D01*
X51055628Y74083581D02*
X51055628Y75083581D01*
X51055628Y75083581D02*
X51150866Y74940724D01*
X51150866Y74940724D02*
X51246104Y74845486D01*
X51246104Y74845486D02*
X51341342Y74797867D01*
X16065332Y99872000D02*
X15922475Y99824381D01*
X15922475Y99824381D02*
X15684380Y99824381D01*
X15684380Y99824381D02*
X15589142Y99872000D01*
X15589142Y99872000D02*
X15541523Y99919620D01*
X15541523Y99919620D02*
X15493904Y100014858D01*
X15493904Y100014858D02*
X15493904Y100110096D01*
X15493904Y100110096D02*
X15541523Y100205334D01*
X15541523Y100205334D02*
X15589142Y100252953D01*
X15589142Y100252953D02*
X15684380Y100300572D01*
X15684380Y100300572D02*
X15874856Y100348191D01*
X15874856Y100348191D02*
X15970094Y100395810D01*
X15970094Y100395810D02*
X16017713Y100443429D01*
X16017713Y100443429D02*
X16065332Y100538667D01*
X16065332Y100538667D02*
X16065332Y100633905D01*
X16065332Y100633905D02*
X16017713Y100729143D01*
X16017713Y100729143D02*
X15970094Y100776762D01*
X15970094Y100776762D02*
X15874856Y100824381D01*
X15874856Y100824381D02*
X15636761Y100824381D01*
X15636761Y100824381D02*
X15493904Y100776762D01*
X15160570Y100824381D02*
X14922475Y99824381D01*
X14922475Y99824381D02*
X14731999Y100538667D01*
X14731999Y100538667D02*
X14541523Y99824381D01*
X14541523Y99824381D02*
X14303428Y100824381D01*
X13970094Y100729143D02*
X13922475Y100776762D01*
X13922475Y100776762D02*
X13827237Y100824381D01*
X13827237Y100824381D02*
X13589142Y100824381D01*
X13589142Y100824381D02*
X13493904Y100776762D01*
X13493904Y100776762D02*
X13446285Y100729143D01*
X13446285Y100729143D02*
X13398666Y100633905D01*
X13398666Y100633905D02*
X13398666Y100538667D01*
X13398666Y100538667D02*
X13446285Y100395810D01*
X13446285Y100395810D02*
X14017713Y99824381D01*
X14017713Y99824381D02*
X13398666Y99824381D01*
X35846980Y79559467D02*
X35894600Y79607086D01*
X35894600Y79607086D02*
X35942219Y79749943D01*
X35942219Y79749943D02*
X35942219Y79845181D01*
X35942219Y79845181D02*
X35894600Y79988038D01*
X35894600Y79988038D02*
X35799361Y80083276D01*
X35799361Y80083276D02*
X35704123Y80130895D01*
X35704123Y80130895D02*
X35513647Y80178514D01*
X35513647Y80178514D02*
X35370790Y80178514D01*
X35370790Y80178514D02*
X35180314Y80130895D01*
X35180314Y80130895D02*
X35085076Y80083276D01*
X35085076Y80083276D02*
X34989838Y79988038D01*
X34989838Y79988038D02*
X34942219Y79845181D01*
X34942219Y79845181D02*
X34942219Y79749943D01*
X34942219Y79749943D02*
X34989838Y79607086D01*
X34989838Y79607086D02*
X35037457Y79559467D01*
X34942219Y78702324D02*
X34942219Y78892800D01*
X34942219Y78892800D02*
X34989838Y78988038D01*
X34989838Y78988038D02*
X35037457Y79035657D01*
X35037457Y79035657D02*
X35180314Y79130895D01*
X35180314Y79130895D02*
X35370790Y79178514D01*
X35370790Y79178514D02*
X35751742Y79178514D01*
X35751742Y79178514D02*
X35846980Y79130895D01*
X35846980Y79130895D02*
X35894600Y79083276D01*
X35894600Y79083276D02*
X35942219Y78988038D01*
X35942219Y78988038D02*
X35942219Y78797562D01*
X35942219Y78797562D02*
X35894600Y78702324D01*
X35894600Y78702324D02*
X35846980Y78654705D01*
X35846980Y78654705D02*
X35751742Y78607086D01*
X35751742Y78607086D02*
X35513647Y78607086D01*
X35513647Y78607086D02*
X35418409Y78654705D01*
X35418409Y78654705D02*
X35370790Y78702324D01*
X35370790Y78702324D02*
X35323171Y78797562D01*
X35323171Y78797562D02*
X35323171Y78988038D01*
X35323171Y78988038D02*
X35370790Y79083276D01*
X35370790Y79083276D02*
X35418409Y79130895D01*
X35418409Y79130895D02*
X35513647Y79178514D01*
X44768980Y73213167D02*
X44816600Y73260786D01*
X44816600Y73260786D02*
X44864219Y73403643D01*
X44864219Y73403643D02*
X44864219Y73498881D01*
X44864219Y73498881D02*
X44816600Y73641738D01*
X44816600Y73641738D02*
X44721361Y73736976D01*
X44721361Y73736976D02*
X44626123Y73784595D01*
X44626123Y73784595D02*
X44435647Y73832214D01*
X44435647Y73832214D02*
X44292790Y73832214D01*
X44292790Y73832214D02*
X44102314Y73784595D01*
X44102314Y73784595D02*
X44007076Y73736976D01*
X44007076Y73736976D02*
X43911838Y73641738D01*
X43911838Y73641738D02*
X43864219Y73498881D01*
X43864219Y73498881D02*
X43864219Y73403643D01*
X43864219Y73403643D02*
X43911838Y73260786D01*
X43911838Y73260786D02*
X43959457Y73213167D01*
X44197552Y72356024D02*
X44864219Y72356024D01*
X43816600Y72594119D02*
X44530885Y72832214D01*
X44530885Y72832214D02*
X44530885Y72213167D01*
X59487980Y73238367D02*
X59535600Y73285986D01*
X59535600Y73285986D02*
X59583219Y73428843D01*
X59583219Y73428843D02*
X59583219Y73524081D01*
X59583219Y73524081D02*
X59535600Y73666938D01*
X59535600Y73666938D02*
X59440361Y73762176D01*
X59440361Y73762176D02*
X59345123Y73809795D01*
X59345123Y73809795D02*
X59154647Y73857414D01*
X59154647Y73857414D02*
X59011790Y73857414D01*
X59011790Y73857414D02*
X58821314Y73809795D01*
X58821314Y73809795D02*
X58726076Y73762176D01*
X58726076Y73762176D02*
X58630838Y73666938D01*
X58630838Y73666938D02*
X58583219Y73524081D01*
X58583219Y73524081D02*
X58583219Y73428843D01*
X58583219Y73428843D02*
X58630838Y73285986D01*
X58630838Y73285986D02*
X58678457Y73238367D01*
X58583219Y72333605D02*
X58583219Y72809795D01*
X58583219Y72809795D02*
X59059409Y72857414D01*
X59059409Y72857414D02*
X59011790Y72809795D01*
X59011790Y72809795D02*
X58964171Y72714557D01*
X58964171Y72714557D02*
X58964171Y72476462D01*
X58964171Y72476462D02*
X59011790Y72381224D01*
X59011790Y72381224D02*
X59059409Y72333605D01*
X59059409Y72333605D02*
X59154647Y72285986D01*
X59154647Y72285986D02*
X59392742Y72285986D01*
X59392742Y72285986D02*
X59487980Y72333605D01*
X59487980Y72333605D02*
X59535600Y72381224D01*
X59535600Y72381224D02*
X59583219Y72476462D01*
X59583219Y72476462D02*
X59583219Y72714557D01*
X59583219Y72714557D02*
X59535600Y72809795D01*
X59535600Y72809795D02*
X59487980Y72857414D01*
%TO.C,U2*%
D16*
X32159800Y104722600D02*
X69859800Y104722600D01*
X32159800Y85442600D02*
X32159800Y104682600D01*
X58359800Y85102600D02*
X56359800Y85102600D01*
X69859800Y85482600D02*
X32159800Y85482600D01*
X69859800Y85482600D02*
X69859800Y104722600D01*
%TO.C,Y1*%
X48359200Y68583400D02*
X54609200Y68583400D01*
X54609200Y73453400D02*
X48359200Y73453400D01*
X48359200Y68583400D02*
G75*
G02*
X48359200Y73453400I0J2435000D01*
G01*
X54609200Y73453400D02*
G75*
G02*
X54609200Y68583400I0J-2435000D01*
G01*
%TO.C,SW2*%
X4920400Y101782800D02*
X4920400Y97682800D01*
X4920400Y93682800D02*
X4920400Y89582800D01*
X7320400Y101782800D02*
X4920400Y101782800D01*
X10820400Y95182800D02*
X10820400Y96182800D01*
X11320400Y95682800D02*
X10320400Y95682800D01*
X12120400Y101782800D02*
X9520400Y101782800D01*
X14620400Y88182800D02*
X14920400Y87882800D01*
X14920400Y88482800D02*
X14620400Y88182800D01*
X14920400Y87882800D02*
X14920400Y88482800D01*
X16720400Y101782800D02*
X14320400Y101782800D01*
X16720400Y97682800D02*
X16720400Y101782800D01*
X16720400Y93682800D02*
X16720400Y89582800D01*
X16720400Y89582800D02*
X4920400Y89582800D01*
X13820400Y95682800D02*
G75*
G02*
X7820400Y95682800I-3000000J0D01*
G01*
X7820400Y95682800D02*
G75*
G02*
X13820400Y95682800I3000000J0D01*
G01*
%TO.C,C6*%
X33072400Y79131548D02*
X33072400Y79654052D01*
X34542400Y79131548D02*
X34542400Y79654052D01*
%TO.C,C4*%
X43588000Y69868148D02*
X43588000Y70390652D01*
X45058000Y69868148D02*
X45058000Y70390652D01*
%TO.C,C5*%
X58091400Y69690348D02*
X58091400Y70212852D01*
X59561400Y69690348D02*
X59561400Y70212852D01*
%TD*%
M02*
