%TF.GenerationSoftware,KiCad,Pcbnew,10.0.0*%
%TF.CreationDate,2026-04-13T11:37:29+02:00*%
%TF.ProjectId,DymBOX_AVR,44796d42-4f58-45f4-9156-522e6b696361,rev?*%
%TF.SameCoordinates,Original*%
%TF.FileFunction,Soldermask,Top*%
%TF.FilePolarity,Negative*%
%FSLAX46Y46*%
G04 Gerber Fmt 4.6, Leading zero omitted, Abs format (unit mm)*
G04 Created by KiCad (PCBNEW 10.0.0) date 2026-04-13 11:37:29*
%MOMM*%
%LPD*%
G01*
G04 APERTURE LIST*
G04 Aperture macros list*
%AMRoundRect*
0 Rectangle with rounded corners*
0 $1 Rounding radius*
0 $2 $3 $4 $5 $6 $7 $8 $9 X,Y pos of 4 corners*
0 Add a 4 corners polygon primitive as box body*
4,1,4,$2,$3,$4,$5,$6,$7,$8,$9,$2,$3,0*
0 Add four circle primitives for the rounded corners*
1,1,$1+$1,$2,$3*
1,1,$1+$1,$4,$5*
1,1,$1+$1,$6,$7*
1,1,$1+$1,$8,$9*
0 Add four rect primitives between the rounded corners*
20,1,$1+$1,$2,$3,$4,$5,0*
20,1,$1+$1,$4,$5,$6,$7,0*
20,1,$1+$1,$6,$7,$8,$9,0*
20,1,$1+$1,$8,$9,$2,$3,0*%
G04 Aperture macros list end*
%ADD10C,0.100000*%
%ADD11C,2.000000*%
%ADD12R,2.000000X2.000000*%
%ADD13RoundRect,0.250000X0.650000X-0.412500X0.650000X0.412500X-0.650000X0.412500X-0.650000X-0.412500X0*%
%ADD14C,1.400000*%
%ADD15RoundRect,0.500000X-0.500000X-0.500000X0.500000X-0.500000X0.500000X0.500000X-0.500000X0.500000X0*%
%ADD16RoundRect,0.250000X-0.550000X-0.550000X0.550000X-0.550000X0.550000X0.550000X-0.550000X0.550000X0*%
%ADD17C,1.600000*%
%ADD18RoundRect,0.250000X0.337500X0.475000X-0.337500X0.475000X-0.337500X-0.475000X0.337500X-0.475000X0*%
%ADD19R,1.400000X1.400000*%
%ADD20R,1.100000X1.800000*%
%ADD21RoundRect,0.275000X-0.275000X-0.625000X0.275000X-0.625000X0.275000X0.625000X-0.275000X0.625000X0*%
%ADD22RoundRect,0.500000X-0.500000X0.500000X-0.500000X-0.500000X0.500000X-0.500000X0.500000X0.500000X0*%
%ADD23R,1.700000X1.700000*%
%ADD24C,1.700000*%
%ADD25C,3.048000*%
%ADD26RoundRect,0.250001X0.949999X0.949999X-0.949999X0.949999X-0.949999X-0.949999X0.949999X-0.949999X0*%
%ADD27C,2.400000*%
%ADD28RoundRect,0.250000X0.550000X-0.550000X0.550000X0.550000X-0.550000X0.550000X-0.550000X-0.550000X0*%
%ADD29RoundRect,0.150000X-0.512500X-0.150000X0.512500X-0.150000X0.512500X0.150000X-0.512500X0.150000X0*%
%ADD30RoundRect,0.250001X0.462499X1.074999X-0.462499X1.074999X-0.462499X-1.074999X0.462499X-1.074999X0*%
%ADD31R,1.800000X1.100000*%
%ADD32RoundRect,0.275000X-0.625000X0.275000X-0.625000X-0.275000X0.625000X-0.275000X0.625000X0.275000X0*%
%ADD33O,3.000000X2.000000*%
%ADD34R,2.000000X3.000000*%
%ADD35O,2.000000X3.000000*%
%ADD36RoundRect,0.250000X-0.475000X0.337500X-0.475000X-0.337500X0.475000X-0.337500X0.475000X0.337500X0*%
%ADD37RoundRect,0.250001X0.949999X-0.949999X0.949999X0.949999X-0.949999X0.949999X-0.949999X-0.949999X0*%
%ADD38R,1.500000X1.500000*%
%ADD39C,1.500000*%
%ADD40C,3.200000*%
G04 APERTURE END LIST*
D10*
%TO.C,J4*%
X119490600Y-138999600D02*
X116442600Y-138999600D01*
X116442600Y-133999600D01*
X119490600Y-133999600D01*
X119490600Y-138999600D01*
G36*
X119490600Y-138999600D02*
G01*
X116442600Y-138999600D01*
X116442600Y-133999600D01*
X119490600Y-133999600D01*
X119490600Y-138999600D01*
G37*
%TO.C,J1*%
X107766600Y-154635200D02*
X102766600Y-154635200D01*
X102766600Y-151587200D01*
X107766600Y-151587200D01*
X107766600Y-154635200D01*
G36*
X107766600Y-154635200D02*
G01*
X102766600Y-154635200D01*
X102766600Y-151587200D01*
X107766600Y-151587200D01*
X107766600Y-154635200D01*
G37*
%TO.C,J2*%
X58947800Y-154482800D02*
X53947800Y-154482800D01*
X53947800Y-151434800D01*
X58947800Y-151434800D01*
X58947800Y-154482800D01*
G36*
X58947800Y-154482800D02*
G01*
X53947800Y-154482800D01*
X53947800Y-151434800D01*
X58947800Y-151434800D01*
X58947800Y-154482800D01*
G37*
%TD*%
D11*
%TO.C,TR1*%
X61722000Y-115482000D03*
X66722000Y-140482000D03*
X74222000Y-115482000D03*
X81722000Y-140482000D03*
X86722000Y-115482000D03*
D12*
X61722000Y-140482000D03*
D11*
X86722000Y-140482000D03*
X81722000Y-115482000D03*
X66722000Y-115482000D03*
%TD*%
D13*
%TO.C,C2*%
X78215600Y-98082500D03*
X78215600Y-94957500D03*
%TD*%
D14*
%TO.C,R2*%
X115452000Y-62738000D03*
X110372000Y-62738000D03*
%TD*%
%TO.C,R1*%
X60080000Y-89408000D03*
X65160000Y-89408000D03*
%TD*%
D15*
%TO.C,F2*%
X75607000Y-153035000D03*
X80607000Y-153035000D03*
D11*
X90607000Y-153035000D03*
X95607000Y-153035000D03*
%TD*%
D14*
%TO.C,R6*%
X88261000Y-75052000D03*
X88261000Y-69972000D03*
%TD*%
D16*
%TO.C,D2*%
X101346000Y-115062000D03*
D17*
X108966000Y-115062000D03*
%TD*%
D14*
%TO.C,R15*%
X98388000Y-99512000D03*
X98388000Y-104592000D03*
%TD*%
D18*
%TO.C,C9*%
X83890500Y-96012000D03*
X81815500Y-96012000D03*
%TD*%
D19*
%TO.C,D3*%
X82107200Y-102311200D03*
D14*
X79567200Y-102311200D03*
X79567200Y-107391200D03*
X82107200Y-107391200D03*
%TD*%
D20*
%TO.C,Q3*%
X113888000Y-101018000D03*
D21*
X115158000Y-98948000D03*
X116428000Y-101018000D03*
%TD*%
D22*
%TO.C,F1*%
X55428000Y-85512000D03*
X55428000Y-90512000D03*
D11*
X55428000Y-100512000D03*
X55428000Y-105512000D03*
%TD*%
D23*
%TO.C,J7*%
X106928000Y-87052000D03*
D24*
X106928000Y-84512000D03*
X109468000Y-87052000D03*
X109468000Y-84512000D03*
X112008000Y-87052000D03*
X112008000Y-84512000D03*
X114548000Y-87052000D03*
X114548000Y-84512000D03*
X117088000Y-87052000D03*
X117088000Y-84512000D03*
%TD*%
D14*
%TO.C,R10*%
X103463200Y-74930000D03*
X103463200Y-69850000D03*
%TD*%
%TO.C,R3*%
X93506400Y-75031600D03*
X93506400Y-69951600D03*
%TD*%
D25*
%TO.C,J4*%
X117966600Y-133999600D03*
X117966600Y-138999600D03*
%TD*%
D26*
%TO.C,C1*%
X70928000Y-99012000D03*
D27*
X63428000Y-99012000D03*
%TD*%
D28*
%TO.C,U1*%
X67918000Y-89322000D03*
D17*
X70458000Y-89322000D03*
X72998000Y-89322000D03*
X75538000Y-89322000D03*
X78078000Y-89322000D03*
X80618000Y-89322000D03*
X83158000Y-89322000D03*
X85698000Y-89322000D03*
X88238000Y-89322000D03*
X90778000Y-89322000D03*
X93318000Y-89322000D03*
X95858000Y-89322000D03*
X98398000Y-89322000D03*
X100938000Y-89322000D03*
X100938000Y-81702000D03*
X98398000Y-81702000D03*
X95858000Y-81702000D03*
X93318000Y-81702000D03*
X90778000Y-81702000D03*
X88238000Y-81702000D03*
X85698000Y-81702000D03*
X83158000Y-81702000D03*
X80618000Y-81702000D03*
X78078000Y-81702000D03*
X75538000Y-81702000D03*
X72998000Y-81702000D03*
X70458000Y-81702000D03*
X67918000Y-81702000D03*
%TD*%
D29*
%TO.C,U4*%
X86153000Y-97112000D03*
X86153000Y-98062000D03*
X86153000Y-99012000D03*
X88428000Y-99012000D03*
X88428000Y-98062000D03*
X88428000Y-97112000D03*
%TD*%
D20*
%TO.C,Q4*%
X103158000Y-109682000D03*
D21*
X104428000Y-107612000D03*
X105698000Y-109682000D03*
%TD*%
D25*
%TO.C,J1*%
X102766600Y-153111200D03*
X107766600Y-153111200D03*
%TD*%
D14*
%TO.C,R17*%
X100928000Y-99512000D03*
X100928000Y-104592000D03*
%TD*%
D30*
%TO.C,L1*%
X88915500Y-94512000D03*
X85940500Y-94512000D03*
%TD*%
D31*
%TO.C,Q2*%
X106162000Y-68630800D03*
D32*
X108232000Y-69900800D03*
X106162000Y-71170800D03*
%TD*%
D14*
%TO.C,R13*%
X87791400Y-66929000D03*
X82711400Y-66929000D03*
%TD*%
D31*
%TO.C,Q5*%
X114290000Y-68580000D03*
D32*
X116360000Y-69850000D03*
X114290000Y-71120000D03*
%TD*%
D14*
%TO.C,R4*%
X83308000Y-75052000D03*
X83308000Y-69972000D03*
%TD*%
%TO.C,R11*%
X111083200Y-74904600D03*
X111083200Y-69824600D03*
%TD*%
%TO.C,R9*%
X80768000Y-75052000D03*
X80768000Y-69972000D03*
%TD*%
%TO.C,R14*%
X104388000Y-99472000D03*
X104388000Y-104552000D03*
%TD*%
%TO.C,R5*%
X90928000Y-75052000D03*
X90928000Y-69972000D03*
%TD*%
D33*
%TO.C,K1*%
X108931200Y-140487400D03*
X101431200Y-140487400D03*
X108931200Y-135447400D03*
X101431200Y-135447400D03*
X108931200Y-145527400D03*
X101431200Y-145527400D03*
D34*
X101431200Y-120187400D03*
D35*
X108931200Y-120187400D03*
%TD*%
D14*
%TO.C,R8*%
X106562000Y-65104200D03*
X101482000Y-65104200D03*
%TD*%
%TO.C,R7*%
X85848000Y-75052000D03*
X85848000Y-69972000D03*
%TD*%
D36*
%TO.C,C8*%
X90928000Y-94437000D03*
X90928000Y-96512000D03*
%TD*%
D18*
%TO.C,C10*%
X83890500Y-94012000D03*
X81815500Y-94012000D03*
%TD*%
D37*
%TO.C,J6*%
X115626500Y-110012000D03*
D27*
X115626500Y-106512000D03*
%TD*%
D28*
%TO.C,D1*%
X110419500Y-112552000D03*
D17*
X110419500Y-104932000D03*
%TD*%
D14*
%TO.C,R16*%
X106928000Y-99472000D03*
X106928000Y-104552000D03*
%TD*%
D26*
%TO.C,J5*%
X88428000Y-62012000D03*
D27*
X84928000Y-62012000D03*
X81428000Y-62012000D03*
%TD*%
D14*
%TO.C,R12*%
X117433200Y-78663800D03*
X117433200Y-73583800D03*
%TD*%
D25*
%TO.C,J2*%
X53947800Y-152958800D03*
X58947800Y-152958800D03*
%TD*%
D31*
%TO.C,Q1*%
X98784000Y-68580000D03*
D32*
X100854000Y-69850000D03*
X98784000Y-71120000D03*
%TD*%
D38*
%TO.C,U2*%
X106746400Y-77922200D03*
D39*
X104206400Y-77922200D03*
X101666400Y-77922200D03*
X99126400Y-77922200D03*
X96586400Y-77922200D03*
X94046400Y-77922200D03*
X94046400Y-62682200D03*
X96586400Y-62682200D03*
X99126400Y-62682200D03*
X101666400Y-62682200D03*
X104206400Y-62682200D03*
X106746400Y-62682200D03*
%TD*%
%TO.C,Y1*%
X103310800Y-94386400D03*
X98430800Y-94386400D03*
%TD*%
D40*
%TO.C,SW2*%
X56708000Y-69722000D03*
X67908000Y-69722000D03*
D11*
X64808000Y-77222000D03*
X59808000Y-77222000D03*
X62308000Y-77222000D03*
X59808000Y-62722000D03*
X64808000Y-62722000D03*
%TD*%
M02*
