%TF.GenerationSoftware,KiCad,Pcbnew,10.0.0*%
%TF.CreationDate,2026-04-12T23:21:59+02:00*%
%TF.ProjectId,DymBOX_AVR,44796d42-4f58-45f4-9156-522e6b696361,rev?*%
%TF.SameCoordinates,Original*%
%TF.FileFunction,Soldermask,Bot*%
%TF.FilePolarity,Negative*%
%FSLAX46Y46*%
G04 Gerber Fmt 4.6, Leading zero omitted, Abs format (unit mm)*
G04 Created by KiCad (PCBNEW 10.0.0) date 2026-04-12 23:21:59*
%MOMM*%
%LPD*%
G01*
G04 APERTURE LIST*
G04 Aperture macros list*
%AMRoundRect*
0 Rectangle with rounded corners*
0 $1 Rounding radius*
0 $2 $3 $4 $5 $6 $7 $8 $9 X,Y pos of 4 corners*
0 Add a 4 corners polygon primitive as box body*
4,1,4,$2,$3,$4,$5,$6,$7,$8,$9,$2,$3,0*
0 Add four circle primitives for the rounded corners*
1,1,$1+$1,$2,$3*
1,1,$1+$1,$4,$5*
1,1,$1+$1,$6,$7*
1,1,$1+$1,$8,$9*
0 Add four rect primitives between the rounded corners*
20,1,$1+$1,$2,$3,$4,$5,0*
20,1,$1+$1,$4,$5,$6,$7,0*
20,1,$1+$1,$6,$7,$8,$9,0*
20,1,$1+$1,$8,$9,$2,$3,0*%
G04 Aperture macros list end*
%ADD10C,0.100000*%
%ADD11C,2.000000*%
%ADD12R,2.000000X2.000000*%
%ADD13C,1.400000*%
%ADD14RoundRect,0.250000X-0.550000X-0.550000X0.550000X-0.550000X0.550000X0.550000X-0.550000X0.550000X0*%
%ADD15C,1.600000*%
%ADD16R,1.400000X1.400000*%
%ADD17R,1.100000X1.800000*%
%ADD18RoundRect,0.275000X-0.275000X-0.625000X0.275000X-0.625000X0.275000X0.625000X-0.275000X0.625000X0*%
%ADD19RoundRect,0.500000X-0.500000X0.500000X-0.500000X-0.500000X0.500000X-0.500000X0.500000X0.500000X0*%
%ADD20R,1.700000X1.700000*%
%ADD21C,1.700000*%
%ADD22C,3.048000*%
%ADD23RoundRect,0.250001X0.949999X0.949999X-0.949999X0.949999X-0.949999X-0.949999X0.949999X-0.949999X0*%
%ADD24C,2.400000*%
%ADD25RoundRect,0.250000X0.550000X-0.550000X0.550000X0.550000X-0.550000X0.550000X-0.550000X-0.550000X0*%
%ADD26R,1.800000X1.100000*%
%ADD27RoundRect,0.275000X-0.625000X0.275000X-0.625000X-0.275000X0.625000X-0.275000X0.625000X0.275000X0*%
%ADD28O,3.000000X2.000000*%
%ADD29R,2.000000X3.000000*%
%ADD30O,2.000000X3.000000*%
%ADD31RoundRect,0.250001X0.949999X-0.949999X0.949999X0.949999X-0.949999X0.949999X-0.949999X-0.949999X0*%
%ADD32R,1.500000X1.500000*%
%ADD33C,1.500000*%
%ADD34RoundRect,0.250000X3.687500X0.750000X-3.687500X0.750000X-3.687500X-0.750000X3.687500X-0.750000X0*%
%ADD35C,3.200000*%
%ADD36RoundRect,0.250000X0.475000X-0.337500X0.475000X0.337500X-0.475000X0.337500X-0.475000X-0.337500X0*%
G04 APERTURE END LIST*
D10*
%TO.C,J3*%
X118500000Y-128320800D02*
X115452000Y-128320800D01*
X115452000Y-123320800D01*
X118500000Y-123320800D01*
X118500000Y-128320800D01*
G36*
X118500000Y-128320800D02*
G01*
X115452000Y-128320800D01*
X115452000Y-123320800D01*
X118500000Y-123320800D01*
X118500000Y-128320800D01*
G37*
%TO.C,J6*%
X118452000Y-148012000D02*
X115404000Y-148012000D01*
X115404000Y-143012000D01*
X118452000Y-143012000D01*
X118452000Y-148012000D01*
G36*
X118452000Y-148012000D02*
G01*
X115404000Y-148012000D01*
X115404000Y-143012000D01*
X118452000Y-143012000D01*
X118452000Y-148012000D01*
G37*
%TO.C,J1*%
X91699200Y-154736000D02*
X86699200Y-154736000D01*
X86699200Y-151688000D01*
X91699200Y-151688000D01*
X91699200Y-154736000D01*
G36*
X91699200Y-154736000D02*
G01*
X86699200Y-154736000D01*
X86699200Y-151688000D01*
X91699200Y-151688000D01*
X91699200Y-154736000D01*
G37*
%TO.C,J2*%
X66756400Y-154584400D02*
X61756400Y-154584400D01*
X61756400Y-151536400D01*
X66756400Y-151536400D01*
X66756400Y-154584400D01*
G36*
X66756400Y-154584400D02*
G01*
X61756400Y-154584400D01*
X61756400Y-151536400D01*
X66756400Y-151536400D01*
X66756400Y-154584400D01*
G37*
%TD*%
D11*
%TO.C,TR1*%
X61722000Y-115482000D03*
X66722000Y-140482000D03*
X74222000Y-115482000D03*
X81722000Y-140482000D03*
X86722000Y-115482000D03*
D12*
X61722000Y-140482000D03*
D11*
X86722000Y-140482000D03*
X81722000Y-115482000D03*
X66722000Y-115482000D03*
%TD*%
D13*
%TO.C,R2*%
X115452000Y-62738000D03*
X110372000Y-62738000D03*
%TD*%
%TO.C,R1*%
X60080000Y-89408000D03*
X65160000Y-89408000D03*
%TD*%
%TO.C,R6*%
X88261000Y-75052000D03*
X88261000Y-69972000D03*
%TD*%
D14*
%TO.C,D2*%
X101346000Y-115062000D03*
D15*
X108966000Y-115062000D03*
%TD*%
D13*
%TO.C,R15*%
X98388000Y-99512000D03*
X98388000Y-104592000D03*
%TD*%
D16*
%TO.C,D3*%
X82107200Y-102311200D03*
D13*
X79567200Y-102311200D03*
X79567200Y-107391200D03*
X82107200Y-107391200D03*
%TD*%
D17*
%TO.C,Q3*%
X113888000Y-101018000D03*
D18*
X115158000Y-98948000D03*
X116428000Y-101018000D03*
%TD*%
D19*
%TO.C,F1*%
X55428000Y-85512000D03*
X55428000Y-90512000D03*
D11*
X55428000Y-100512000D03*
X55428000Y-105512000D03*
%TD*%
D20*
%TO.C,J5*%
X106928000Y-87052000D03*
D21*
X106928000Y-84512000D03*
X109468000Y-87052000D03*
X109468000Y-84512000D03*
X112008000Y-87052000D03*
X112008000Y-84512000D03*
X114548000Y-87052000D03*
X114548000Y-84512000D03*
X117088000Y-87052000D03*
X117088000Y-84512000D03*
%TD*%
D13*
%TO.C,R10*%
X103463200Y-74930000D03*
X103463200Y-69850000D03*
%TD*%
D22*
%TO.C,J3*%
X116976000Y-128320800D03*
X116976000Y-123320800D03*
%TD*%
D13*
%TO.C,R3*%
X93506400Y-75031600D03*
X93506400Y-69951600D03*
%TD*%
D22*
%TO.C,J6*%
X116928000Y-143012000D03*
X116928000Y-148012000D03*
%TD*%
D23*
%TO.C,C1*%
X70928000Y-99012000D03*
D24*
X63428000Y-99012000D03*
%TD*%
D25*
%TO.C,U1*%
X67918000Y-89322000D03*
D15*
X70458000Y-89322000D03*
X72998000Y-89322000D03*
X75538000Y-89322000D03*
X78078000Y-89322000D03*
X80618000Y-89322000D03*
X83158000Y-89322000D03*
X85698000Y-89322000D03*
X88238000Y-89322000D03*
X90778000Y-89322000D03*
X93318000Y-89322000D03*
X95858000Y-89322000D03*
X98398000Y-89322000D03*
X100938000Y-89322000D03*
X100938000Y-81702000D03*
X98398000Y-81702000D03*
X95858000Y-81702000D03*
X93318000Y-81702000D03*
X90778000Y-81702000D03*
X88238000Y-81702000D03*
X85698000Y-81702000D03*
X83158000Y-81702000D03*
X80618000Y-81702000D03*
X78078000Y-81702000D03*
X75538000Y-81702000D03*
X72998000Y-81702000D03*
X70458000Y-81702000D03*
X67918000Y-81702000D03*
%TD*%
D17*
%TO.C,Q4*%
X103158000Y-109682000D03*
D18*
X104428000Y-107612000D03*
X105698000Y-109682000D03*
%TD*%
D22*
%TO.C,J1*%
X86699200Y-153212000D03*
X91699200Y-153212000D03*
%TD*%
D13*
%TO.C,R17*%
X100928000Y-99512000D03*
X100928000Y-104592000D03*
%TD*%
D26*
%TO.C,Q2*%
X106162000Y-68630800D03*
D27*
X108232000Y-69900800D03*
X106162000Y-71170800D03*
%TD*%
D13*
%TO.C,R13*%
X86496000Y-66954400D03*
X81416000Y-66954400D03*
%TD*%
D26*
%TO.C,Q5*%
X114290000Y-68580000D03*
D27*
X116360000Y-69850000D03*
X114290000Y-71120000D03*
%TD*%
D13*
%TO.C,R4*%
X83308000Y-75052000D03*
X83308000Y-69972000D03*
%TD*%
%TO.C,R11*%
X111420000Y-74922000D03*
X111420000Y-69842000D03*
%TD*%
%TO.C,R9*%
X80768000Y-75052000D03*
X80768000Y-69972000D03*
%TD*%
%TO.C,R14*%
X104388000Y-99472000D03*
X104388000Y-104552000D03*
%TD*%
%TO.C,R5*%
X90928000Y-75052000D03*
X90928000Y-69972000D03*
%TD*%
D28*
%TO.C,K1*%
X108846000Y-139934000D03*
X101346000Y-139934000D03*
X108846000Y-134894000D03*
X101346000Y-134894000D03*
X108846000Y-144974000D03*
X101346000Y-144974000D03*
D29*
X101346000Y-119634000D03*
D30*
X108846000Y-119634000D03*
%TD*%
D13*
%TO.C,R8*%
X106562000Y-65104200D03*
X101482000Y-65104200D03*
%TD*%
%TO.C,R7*%
X85848000Y-75052000D03*
X85848000Y-69972000D03*
%TD*%
D31*
%TO.C,J7*%
X115626500Y-110012000D03*
D24*
X115626500Y-106512000D03*
%TD*%
D25*
%TO.C,D1*%
X110419500Y-112552000D03*
D15*
X110419500Y-104932000D03*
%TD*%
D13*
%TO.C,R16*%
X106928000Y-99472000D03*
X106928000Y-104552000D03*
%TD*%
D23*
%TO.C,J4*%
X88428000Y-62012000D03*
D24*
X84928000Y-62012000D03*
X81428000Y-62012000D03*
%TD*%
D13*
%TO.C,R12*%
X117484000Y-79552800D03*
X117484000Y-74472800D03*
%TD*%
D22*
%TO.C,J2*%
X61756400Y-153060400D03*
X66756400Y-153060400D03*
%TD*%
D26*
%TO.C,Q1*%
X98784000Y-68580000D03*
D27*
X100854000Y-69850000D03*
X98784000Y-71120000D03*
%TD*%
D32*
%TO.C,U2*%
X106746400Y-77922200D03*
D33*
X104206400Y-77922200D03*
X101666400Y-77922200D03*
X99126400Y-77922200D03*
X96586400Y-77922200D03*
X94046400Y-77922200D03*
X94046400Y-62682200D03*
X96586400Y-62682200D03*
X99126400Y-62682200D03*
X101666400Y-62682200D03*
X104206400Y-62682200D03*
X106746400Y-62682200D03*
%TD*%
D34*
%TO.C,Y1*%
X111365500Y-94512000D03*
X99490500Y-94512000D03*
%TD*%
D35*
%TO.C,SW2*%
X56708000Y-69722000D03*
X67908000Y-69722000D03*
D11*
X64808000Y-77222000D03*
X59808000Y-77222000D03*
X62308000Y-77222000D03*
X59808000Y-62722000D03*
X64808000Y-62722000D03*
%TD*%
D36*
%TO.C,C6*%
X83194000Y-87049500D03*
X83194000Y-84974500D03*
%TD*%
%TO.C,C4*%
X93928000Y-96309000D03*
X93928000Y-94234000D03*
%TD*%
%TO.C,C5*%
X116928000Y-96512000D03*
X116928000Y-94437000D03*
%TD*%
G36*
X118581580Y-121087365D02*
G01*
X118724854Y-121102261D01*
X118751561Y-121108066D01*
X118881555Y-121151788D01*
X118906341Y-121163302D01*
X119023601Y-121234439D01*
X119045262Y-121251102D01*
X119143853Y-121345969D01*
X119161698Y-121367521D01*
X119269395Y-121532436D01*
X119282178Y-121558055D01*
X119349069Y-121742964D01*
X119355635Y-121770830D01*
X119379171Y-121973333D01*
X119380000Y-121987649D01*
X119380000Y-148381958D01*
X119379618Y-148391687D01*
X119360757Y-148631338D01*
X119357713Y-148650556D01*
X119302737Y-148879548D01*
X119296724Y-148898054D01*
X119206601Y-149115629D01*
X119197767Y-149132966D01*
X119074720Y-149333760D01*
X119063283Y-149349501D01*
X118910337Y-149528578D01*
X118896578Y-149542337D01*
X118717501Y-149695283D01*
X118701760Y-149706720D01*
X118500966Y-149829767D01*
X118483629Y-149838601D01*
X118266054Y-149928724D01*
X118247548Y-149934737D01*
X118018556Y-149989713D01*
X117999338Y-149992757D01*
X117759688Y-150011618D01*
X117749959Y-150012000D01*
X103351018Y-150012000D01*
X103341753Y-150011653D01*
X103057611Y-149990362D01*
X103039288Y-149987601D01*
X102766021Y-149925240D01*
X102748313Y-149919779D01*
X102487385Y-149817389D01*
X102470690Y-149809350D01*
X102227944Y-149669227D01*
X102212632Y-149658790D01*
X101993471Y-149484052D01*
X101979886Y-149471450D01*
X101786045Y-149262592D01*
X101779997Y-149255565D01*
X100566703Y-147734572D01*
X99246276Y-146079275D01*
X99241195Y-146072437D01*
X99092338Y-145856997D01*
X99083643Y-145842355D01*
X98967629Y-145612361D01*
X98961022Y-145596667D01*
X98877616Y-145352962D01*
X98873221Y-145336509D01*
X98823990Y-145083669D01*
X98821891Y-145066771D01*
X98807530Y-144805308D01*
X98807355Y-144796790D01*
X98879270Y-139603991D01*
X98879770Y-139594453D01*
X98906410Y-139302158D01*
X98909600Y-139283340D01*
X98979621Y-139003245D01*
X98985662Y-138985139D01*
X99097841Y-138719107D01*
X99106589Y-138702142D01*
X99258264Y-138456486D01*
X99269511Y-138441065D01*
X99460215Y-138217940D01*
X99466696Y-138210924D01*
X99719935Y-137957106D01*
X99725851Y-137951552D01*
X99913198Y-137786874D01*
X99926055Y-137776985D01*
X100129895Y-137640447D01*
X100143932Y-137632322D01*
X100363871Y-137523547D01*
X100378850Y-137517322D01*
X100611097Y-137438189D01*
X100626759Y-137433973D01*
X100867350Y-137385830D01*
X100883429Y-137383695D01*
X101132289Y-137367098D01*
X101140398Y-137366823D01*
X109633224Y-137357118D01*
X109633225Y-137357118D01*
X111504422Y-135435225D01*
X111504422Y-135435224D01*
X111492402Y-131285922D01*
X111492645Y-131277781D01*
X111508357Y-131027923D01*
X111510443Y-131011779D01*
X111557960Y-130770146D01*
X111562144Y-130754412D01*
X111640910Y-130521083D01*
X111647118Y-130506033D01*
X111755769Y-130285041D01*
X111763895Y-130270935D01*
X111900562Y-130066076D01*
X111910466Y-130053156D01*
X112075485Y-129864896D01*
X112081052Y-129858951D01*
X113948293Y-127991711D01*
X114555950Y-127384053D01*
X114555951Y-127384052D01*
X114418617Y-122154832D01*
X114418917Y-122142366D01*
X114432532Y-121959588D01*
X114436868Y-121935057D01*
X114485036Y-121764721D01*
X114494187Y-121741554D01*
X114575427Y-121584282D01*
X114589025Y-121563410D01*
X114700155Y-121425432D01*
X114717415Y-121407894D01*
X114854291Y-121294004D01*
X114874409Y-121280364D01*
X115030996Y-121195296D01*
X115053389Y-121185842D01*
X115223575Y-121132951D01*
X115247381Y-121128047D01*
X115430694Y-121108729D01*
X115442842Y-121108049D01*
X118567910Y-121086703D01*
X118581580Y-121087365D01*
G37*
M02*
