%TF.GenerationSoftware,KiCad,Pcbnew,10.0.0*%
%TF.CreationDate,2026-04-12T20:47:03+02:00*%
%TF.ProjectId,DymBOX_AVR,44796d42-4f58-45f4-9156-522e6b696361,rev?*%
%TF.SameCoordinates,Original*%
%TF.FileFunction,Legend,Bot*%
%TF.FilePolarity,Positive*%
%FSLAX46Y46*%
G04 Gerber Fmt 4.6, Leading zero omitted, Abs format (unit mm)*
G04 Created by KiCad (PCBNEW 10.0.0) date 2026-04-12 20:47:03*
%MOMM*%
%LPD*%
G01*
G04 APERTURE LIST*
%ADD10C,0.100000*%
%ADD11C,0.150000*%
%ADD12C,0.120000*%
G04 APERTURE END LIST*
D10*
X89624115Y-129554587D02*
X89624115Y-128554587D01*
X89624115Y-128554587D02*
X89386020Y-128554587D01*
X89386020Y-128554587D02*
X89243163Y-128602206D01*
X89243163Y-128602206D02*
X89147925Y-128697444D01*
X89147925Y-128697444D02*
X89100306Y-128792682D01*
X89100306Y-128792682D02*
X89052687Y-128983158D01*
X89052687Y-128983158D02*
X89052687Y-129126015D01*
X89052687Y-129126015D02*
X89100306Y-129316491D01*
X89100306Y-129316491D02*
X89147925Y-129411729D01*
X89147925Y-129411729D02*
X89243163Y-129506968D01*
X89243163Y-129506968D02*
X89386020Y-129554587D01*
X89386020Y-129554587D02*
X89624115Y-129554587D01*
X88719353Y-128887920D02*
X88481258Y-129554587D01*
X88243163Y-128887920D02*
X88481258Y-129554587D01*
X88481258Y-129554587D02*
X88576496Y-129792682D01*
X88576496Y-129792682D02*
X88624115Y-129840301D01*
X88624115Y-129840301D02*
X88719353Y-129887920D01*
X87862210Y-129554587D02*
X87862210Y-128887920D01*
X87862210Y-128983158D02*
X87814591Y-128935539D01*
X87814591Y-128935539D02*
X87719353Y-128887920D01*
X87719353Y-128887920D02*
X87576496Y-128887920D01*
X87576496Y-128887920D02*
X87481258Y-128935539D01*
X87481258Y-128935539D02*
X87433639Y-129030777D01*
X87433639Y-129030777D02*
X87433639Y-129554587D01*
X87433639Y-129030777D02*
X87386020Y-128935539D01*
X87386020Y-128935539D02*
X87290782Y-128887920D01*
X87290782Y-128887920D02*
X87147925Y-128887920D01*
X87147925Y-128887920D02*
X87052686Y-128935539D01*
X87052686Y-128935539D02*
X87005067Y-129030777D01*
X87005067Y-129030777D02*
X87005067Y-129554587D01*
X86195544Y-129030777D02*
X86052687Y-129078396D01*
X86052687Y-129078396D02*
X86005068Y-129126015D01*
X86005068Y-129126015D02*
X85957449Y-129221253D01*
X85957449Y-129221253D02*
X85957449Y-129364110D01*
X85957449Y-129364110D02*
X86005068Y-129459348D01*
X86005068Y-129459348D02*
X86052687Y-129506968D01*
X86052687Y-129506968D02*
X86147925Y-129554587D01*
X86147925Y-129554587D02*
X86528877Y-129554587D01*
X86528877Y-129554587D02*
X86528877Y-128554587D01*
X86528877Y-128554587D02*
X86195544Y-128554587D01*
X86195544Y-128554587D02*
X86100306Y-128602206D01*
X86100306Y-128602206D02*
X86052687Y-128649825D01*
X86052687Y-128649825D02*
X86005068Y-128745063D01*
X86005068Y-128745063D02*
X86005068Y-128840301D01*
X86005068Y-128840301D02*
X86052687Y-128935539D01*
X86052687Y-128935539D02*
X86100306Y-128983158D01*
X86100306Y-128983158D02*
X86195544Y-129030777D01*
X86195544Y-129030777D02*
X86528877Y-129030777D01*
X85338401Y-128554587D02*
X85147925Y-128554587D01*
X85147925Y-128554587D02*
X85052687Y-128602206D01*
X85052687Y-128602206D02*
X84957449Y-128697444D01*
X84957449Y-128697444D02*
X84909830Y-128887920D01*
X84909830Y-128887920D02*
X84909830Y-129221253D01*
X84909830Y-129221253D02*
X84957449Y-129411729D01*
X84957449Y-129411729D02*
X85052687Y-129506968D01*
X85052687Y-129506968D02*
X85147925Y-129554587D01*
X85147925Y-129554587D02*
X85338401Y-129554587D01*
X85338401Y-129554587D02*
X85433639Y-129506968D01*
X85433639Y-129506968D02*
X85528877Y-129411729D01*
X85528877Y-129411729D02*
X85576496Y-129221253D01*
X85576496Y-129221253D02*
X85576496Y-128887920D01*
X85576496Y-128887920D02*
X85528877Y-128697444D01*
X85528877Y-128697444D02*
X85433639Y-128602206D01*
X85433639Y-128602206D02*
X85338401Y-128554587D01*
X84576496Y-128554587D02*
X83909830Y-129554587D01*
X83909830Y-128554587D02*
X84576496Y-129554587D01*
X82814591Y-129268872D02*
X82338401Y-129268872D01*
X82909829Y-129554587D02*
X82576496Y-128554587D01*
X82576496Y-128554587D02*
X82243163Y-129554587D01*
X82052686Y-128554587D02*
X81719353Y-129554587D01*
X81719353Y-129554587D02*
X81386020Y-128554587D01*
X80481258Y-129554587D02*
X80814591Y-129078396D01*
X81052686Y-129554587D02*
X81052686Y-128554587D01*
X81052686Y-128554587D02*
X80671734Y-128554587D01*
X80671734Y-128554587D02*
X80576496Y-128602206D01*
X80576496Y-128602206D02*
X80528877Y-128649825D01*
X80528877Y-128649825D02*
X80481258Y-128745063D01*
X80481258Y-128745063D02*
X80481258Y-128887920D01*
X80481258Y-128887920D02*
X80528877Y-128983158D01*
X80528877Y-128983158D02*
X80576496Y-129030777D01*
X80576496Y-129030777D02*
X80671734Y-129078396D01*
X80671734Y-129078396D02*
X81052686Y-129078396D01*
X79386019Y-128887920D02*
X79147924Y-129554587D01*
X79147924Y-129554587D02*
X78909829Y-128887920D01*
X78005067Y-129554587D02*
X78576495Y-129554587D01*
X78290781Y-129554587D02*
X78290781Y-128554587D01*
X78290781Y-128554587D02*
X78386019Y-128697444D01*
X78386019Y-128697444D02*
X78481257Y-128792682D01*
X78481257Y-128792682D02*
X78576495Y-128840301D01*
X76243162Y-129554587D02*
X76576495Y-129078396D01*
X76814590Y-129554587D02*
X76814590Y-128554587D01*
X76814590Y-128554587D02*
X76433638Y-128554587D01*
X76433638Y-128554587D02*
X76338400Y-128602206D01*
X76338400Y-128602206D02*
X76290781Y-128649825D01*
X76290781Y-128649825D02*
X76243162Y-128745063D01*
X76243162Y-128745063D02*
X76243162Y-128887920D01*
X76243162Y-128887920D02*
X76290781Y-128983158D01*
X76290781Y-128983158D02*
X76338400Y-129030777D01*
X76338400Y-129030777D02*
X76433638Y-129078396D01*
X76433638Y-129078396D02*
X76814590Y-129078396D01*
X75433638Y-129506968D02*
X75528876Y-129554587D01*
X75528876Y-129554587D02*
X75719352Y-129554587D01*
X75719352Y-129554587D02*
X75814590Y-129506968D01*
X75814590Y-129506968D02*
X75862209Y-129411729D01*
X75862209Y-129411729D02*
X75862209Y-129030777D01*
X75862209Y-129030777D02*
X75814590Y-128935539D01*
X75814590Y-128935539D02*
X75719352Y-128887920D01*
X75719352Y-128887920D02*
X75528876Y-128887920D01*
X75528876Y-128887920D02*
X75433638Y-128935539D01*
X75433638Y-128935539D02*
X75386019Y-129030777D01*
X75386019Y-129030777D02*
X75386019Y-129126015D01*
X75386019Y-129126015D02*
X75862209Y-129221253D01*
X75052685Y-128887920D02*
X74814590Y-129554587D01*
X74814590Y-129554587D02*
X74576495Y-128887920D01*
X74195542Y-129459348D02*
X74147923Y-129506968D01*
X74147923Y-129506968D02*
X74195542Y-129554587D01*
X74195542Y-129554587D02*
X74243161Y-129506968D01*
X74243161Y-129506968D02*
X74195542Y-129459348D01*
X74195542Y-129459348D02*
X74195542Y-129554587D01*
X73195543Y-129554587D02*
X73766971Y-129554587D01*
X73481257Y-129554587D02*
X73481257Y-128554587D01*
X73481257Y-128554587D02*
X73576495Y-128697444D01*
X73576495Y-128697444D02*
X73671733Y-128792682D01*
X73671733Y-128792682D02*
X73766971Y-128840301D01*
X89624115Y-131164531D02*
X89624115Y-130164531D01*
X89195544Y-131164531D02*
X89195544Y-130640721D01*
X89195544Y-130640721D02*
X89243163Y-130545483D01*
X89243163Y-130545483D02*
X89338401Y-130497864D01*
X89338401Y-130497864D02*
X89481258Y-130497864D01*
X89481258Y-130497864D02*
X89576496Y-130545483D01*
X89576496Y-130545483D02*
X89624115Y-130593102D01*
X88862210Y-130497864D02*
X88481258Y-130497864D01*
X88719353Y-130164531D02*
X88719353Y-131021673D01*
X88719353Y-131021673D02*
X88671734Y-131116912D01*
X88671734Y-131116912D02*
X88576496Y-131164531D01*
X88576496Y-131164531D02*
X88481258Y-131164531D01*
X88290781Y-130497864D02*
X87909829Y-130497864D01*
X88147924Y-130164531D02*
X88147924Y-131021673D01*
X88147924Y-131021673D02*
X88100305Y-131116912D01*
X88100305Y-131116912D02*
X88005067Y-131164531D01*
X88005067Y-131164531D02*
X87909829Y-131164531D01*
X87576495Y-130497864D02*
X87576495Y-131497864D01*
X87576495Y-130545483D02*
X87481257Y-130497864D01*
X87481257Y-130497864D02*
X87290781Y-130497864D01*
X87290781Y-130497864D02*
X87195543Y-130545483D01*
X87195543Y-130545483D02*
X87147924Y-130593102D01*
X87147924Y-130593102D02*
X87100305Y-130688340D01*
X87100305Y-130688340D02*
X87100305Y-130974054D01*
X87100305Y-130974054D02*
X87147924Y-131069292D01*
X87147924Y-131069292D02*
X87195543Y-131116912D01*
X87195543Y-131116912D02*
X87290781Y-131164531D01*
X87290781Y-131164531D02*
X87481257Y-131164531D01*
X87481257Y-131164531D02*
X87576495Y-131116912D01*
X86719352Y-131116912D02*
X86624114Y-131164531D01*
X86624114Y-131164531D02*
X86433638Y-131164531D01*
X86433638Y-131164531D02*
X86338400Y-131116912D01*
X86338400Y-131116912D02*
X86290781Y-131021673D01*
X86290781Y-131021673D02*
X86290781Y-130974054D01*
X86290781Y-130974054D02*
X86338400Y-130878816D01*
X86338400Y-130878816D02*
X86433638Y-130831197D01*
X86433638Y-130831197D02*
X86576495Y-130831197D01*
X86576495Y-130831197D02*
X86671733Y-130783578D01*
X86671733Y-130783578D02*
X86719352Y-130688340D01*
X86719352Y-130688340D02*
X86719352Y-130640721D01*
X86719352Y-130640721D02*
X86671733Y-130545483D01*
X86671733Y-130545483D02*
X86576495Y-130497864D01*
X86576495Y-130497864D02*
X86433638Y-130497864D01*
X86433638Y-130497864D02*
X86338400Y-130545483D01*
X85862209Y-131069292D02*
X85814590Y-131116912D01*
X85814590Y-131116912D02*
X85862209Y-131164531D01*
X85862209Y-131164531D02*
X85909828Y-131116912D01*
X85909828Y-131116912D02*
X85862209Y-131069292D01*
X85862209Y-131069292D02*
X85862209Y-131164531D01*
X85862209Y-130545483D02*
X85814590Y-130593102D01*
X85814590Y-130593102D02*
X85862209Y-130640721D01*
X85862209Y-130640721D02*
X85909828Y-130593102D01*
X85909828Y-130593102D02*
X85862209Y-130545483D01*
X85862209Y-130545483D02*
X85862209Y-130640721D01*
X84671734Y-130116912D02*
X85528876Y-131402626D01*
X83624115Y-130116912D02*
X84481257Y-131402626D01*
X82862210Y-130497864D02*
X82862210Y-131307388D01*
X82862210Y-131307388D02*
X82909829Y-131402626D01*
X82909829Y-131402626D02*
X82957448Y-131450245D01*
X82957448Y-131450245D02*
X83052686Y-131497864D01*
X83052686Y-131497864D02*
X83195543Y-131497864D01*
X83195543Y-131497864D02*
X83290781Y-131450245D01*
X82862210Y-131116912D02*
X82957448Y-131164531D01*
X82957448Y-131164531D02*
X83147924Y-131164531D01*
X83147924Y-131164531D02*
X83243162Y-131116912D01*
X83243162Y-131116912D02*
X83290781Y-131069292D01*
X83290781Y-131069292D02*
X83338400Y-130974054D01*
X83338400Y-130974054D02*
X83338400Y-130688340D01*
X83338400Y-130688340D02*
X83290781Y-130593102D01*
X83290781Y-130593102D02*
X83243162Y-130545483D01*
X83243162Y-130545483D02*
X83147924Y-130497864D01*
X83147924Y-130497864D02*
X82957448Y-130497864D01*
X82957448Y-130497864D02*
X82862210Y-130545483D01*
X82386019Y-131164531D02*
X82386019Y-130497864D01*
X82386019Y-130164531D02*
X82433638Y-130212150D01*
X82433638Y-130212150D02*
X82386019Y-130259769D01*
X82386019Y-130259769D02*
X82338400Y-130212150D01*
X82338400Y-130212150D02*
X82386019Y-130164531D01*
X82386019Y-130164531D02*
X82386019Y-130259769D01*
X82052686Y-130497864D02*
X81671734Y-130497864D01*
X81909829Y-130164531D02*
X81909829Y-131021673D01*
X81909829Y-131021673D02*
X81862210Y-131116912D01*
X81862210Y-131116912D02*
X81766972Y-131164531D01*
X81766972Y-131164531D02*
X81671734Y-131164531D01*
X81338400Y-131164531D02*
X81338400Y-130164531D01*
X80909829Y-131164531D02*
X80909829Y-130640721D01*
X80909829Y-130640721D02*
X80957448Y-130545483D01*
X80957448Y-130545483D02*
X81052686Y-130497864D01*
X81052686Y-130497864D02*
X81195543Y-130497864D01*
X81195543Y-130497864D02*
X81290781Y-130545483D01*
X81290781Y-130545483D02*
X81338400Y-130593102D01*
X80005067Y-130497864D02*
X80005067Y-131164531D01*
X80433638Y-130497864D02*
X80433638Y-131021673D01*
X80433638Y-131021673D02*
X80386019Y-131116912D01*
X80386019Y-131116912D02*
X80290781Y-131164531D01*
X80290781Y-131164531D02*
X80147924Y-131164531D01*
X80147924Y-131164531D02*
X80052686Y-131116912D01*
X80052686Y-131116912D02*
X80005067Y-131069292D01*
X79528876Y-131164531D02*
X79528876Y-130164531D01*
X79528876Y-130545483D02*
X79433638Y-130497864D01*
X79433638Y-130497864D02*
X79243162Y-130497864D01*
X79243162Y-130497864D02*
X79147924Y-130545483D01*
X79147924Y-130545483D02*
X79100305Y-130593102D01*
X79100305Y-130593102D02*
X79052686Y-130688340D01*
X79052686Y-130688340D02*
X79052686Y-130974054D01*
X79052686Y-130974054D02*
X79100305Y-131069292D01*
X79100305Y-131069292D02*
X79147924Y-131116912D01*
X79147924Y-131116912D02*
X79243162Y-131164531D01*
X79243162Y-131164531D02*
X79433638Y-131164531D01*
X79433638Y-131164531D02*
X79528876Y-131116912D01*
X78624114Y-131069292D02*
X78576495Y-131116912D01*
X78576495Y-131116912D02*
X78624114Y-131164531D01*
X78624114Y-131164531D02*
X78671733Y-131116912D01*
X78671733Y-131116912D02*
X78624114Y-131069292D01*
X78624114Y-131069292D02*
X78624114Y-131164531D01*
X77719353Y-131116912D02*
X77814591Y-131164531D01*
X77814591Y-131164531D02*
X78005067Y-131164531D01*
X78005067Y-131164531D02*
X78100305Y-131116912D01*
X78100305Y-131116912D02*
X78147924Y-131069292D01*
X78147924Y-131069292D02*
X78195543Y-130974054D01*
X78195543Y-130974054D02*
X78195543Y-130688340D01*
X78195543Y-130688340D02*
X78147924Y-130593102D01*
X78147924Y-130593102D02*
X78100305Y-130545483D01*
X78100305Y-130545483D02*
X78005067Y-130497864D01*
X78005067Y-130497864D02*
X77814591Y-130497864D01*
X77814591Y-130497864D02*
X77719353Y-130545483D01*
X77147924Y-131164531D02*
X77243162Y-131116912D01*
X77243162Y-131116912D02*
X77290781Y-131069292D01*
X77290781Y-131069292D02*
X77338400Y-130974054D01*
X77338400Y-130974054D02*
X77338400Y-130688340D01*
X77338400Y-130688340D02*
X77290781Y-130593102D01*
X77290781Y-130593102D02*
X77243162Y-130545483D01*
X77243162Y-130545483D02*
X77147924Y-130497864D01*
X77147924Y-130497864D02*
X77005067Y-130497864D01*
X77005067Y-130497864D02*
X76909829Y-130545483D01*
X76909829Y-130545483D02*
X76862210Y-130593102D01*
X76862210Y-130593102D02*
X76814591Y-130688340D01*
X76814591Y-130688340D02*
X76814591Y-130974054D01*
X76814591Y-130974054D02*
X76862210Y-131069292D01*
X76862210Y-131069292D02*
X76909829Y-131116912D01*
X76909829Y-131116912D02*
X77005067Y-131164531D01*
X77005067Y-131164531D02*
X77147924Y-131164531D01*
X76386019Y-131164531D02*
X76386019Y-130497864D01*
X76386019Y-130593102D02*
X76338400Y-130545483D01*
X76338400Y-130545483D02*
X76243162Y-130497864D01*
X76243162Y-130497864D02*
X76100305Y-130497864D01*
X76100305Y-130497864D02*
X76005067Y-130545483D01*
X76005067Y-130545483D02*
X75957448Y-130640721D01*
X75957448Y-130640721D02*
X75957448Y-131164531D01*
X75957448Y-130640721D02*
X75909829Y-130545483D01*
X75909829Y-130545483D02*
X75814591Y-130497864D01*
X75814591Y-130497864D02*
X75671734Y-130497864D01*
X75671734Y-130497864D02*
X75576495Y-130545483D01*
X75576495Y-130545483D02*
X75528876Y-130640721D01*
X75528876Y-130640721D02*
X75528876Y-131164531D01*
X74338401Y-130116912D02*
X75195543Y-131402626D01*
X74052686Y-130259769D02*
X74005067Y-130212150D01*
X74005067Y-130212150D02*
X73909829Y-130164531D01*
X73909829Y-130164531D02*
X73671734Y-130164531D01*
X73671734Y-130164531D02*
X73576496Y-130212150D01*
X73576496Y-130212150D02*
X73528877Y-130259769D01*
X73528877Y-130259769D02*
X73481258Y-130355007D01*
X73481258Y-130355007D02*
X73481258Y-130450245D01*
X73481258Y-130450245D02*
X73528877Y-130593102D01*
X73528877Y-130593102D02*
X74100305Y-131164531D01*
X74100305Y-131164531D02*
X73481258Y-131164531D01*
X73052686Y-130497864D02*
X73052686Y-131497864D01*
X73052686Y-130545483D02*
X72957448Y-130497864D01*
X72957448Y-130497864D02*
X72766972Y-130497864D01*
X72766972Y-130497864D02*
X72671734Y-130545483D01*
X72671734Y-130545483D02*
X72624115Y-130593102D01*
X72624115Y-130593102D02*
X72576496Y-130688340D01*
X72576496Y-130688340D02*
X72576496Y-130974054D01*
X72576496Y-130974054D02*
X72624115Y-131069292D01*
X72624115Y-131069292D02*
X72671734Y-131116912D01*
X72671734Y-131116912D02*
X72766972Y-131164531D01*
X72766972Y-131164531D02*
X72957448Y-131164531D01*
X72957448Y-131164531D02*
X73052686Y-131116912D01*
X72147924Y-131164531D02*
X72147924Y-130164531D01*
X72052686Y-130783578D02*
X71766972Y-131164531D01*
X71766972Y-130497864D02*
X72147924Y-130878816D01*
X71386019Y-131116912D02*
X71290781Y-131164531D01*
X71290781Y-131164531D02*
X71100305Y-131164531D01*
X71100305Y-131164531D02*
X71005067Y-131116912D01*
X71005067Y-131116912D02*
X70957448Y-131021673D01*
X70957448Y-131021673D02*
X70957448Y-130974054D01*
X70957448Y-130974054D02*
X71005067Y-130878816D01*
X71005067Y-130878816D02*
X71100305Y-130831197D01*
X71100305Y-130831197D02*
X71243162Y-130831197D01*
X71243162Y-130831197D02*
X71338400Y-130783578D01*
X71338400Y-130783578D02*
X71386019Y-130688340D01*
X71386019Y-130688340D02*
X71386019Y-130640721D01*
X71386019Y-130640721D02*
X71338400Y-130545483D01*
X71338400Y-130545483D02*
X71243162Y-130497864D01*
X71243162Y-130497864D02*
X71100305Y-130497864D01*
X71100305Y-130497864D02*
X71005067Y-130545483D01*
X70671733Y-130497864D02*
X70290781Y-130497864D01*
X70528876Y-130164531D02*
X70528876Y-131021673D01*
X70528876Y-131021673D02*
X70481257Y-131116912D01*
X70481257Y-131116912D02*
X70386019Y-131164531D01*
X70386019Y-131164531D02*
X70290781Y-131164531D01*
X69528876Y-131164531D02*
X69528876Y-130640721D01*
X69528876Y-130640721D02*
X69576495Y-130545483D01*
X69576495Y-130545483D02*
X69671733Y-130497864D01*
X69671733Y-130497864D02*
X69862209Y-130497864D01*
X69862209Y-130497864D02*
X69957447Y-130545483D01*
X69528876Y-131116912D02*
X69624114Y-131164531D01*
X69624114Y-131164531D02*
X69862209Y-131164531D01*
X69862209Y-131164531D02*
X69957447Y-131116912D01*
X69957447Y-131116912D02*
X70005066Y-131021673D01*
X70005066Y-131021673D02*
X70005066Y-130926435D01*
X70005066Y-130926435D02*
X69957447Y-130831197D01*
X69957447Y-130831197D02*
X69862209Y-130783578D01*
X69862209Y-130783578D02*
X69624114Y-130783578D01*
X69624114Y-130783578D02*
X69528876Y-130735959D01*
X69052685Y-131164531D02*
X69052685Y-130497864D01*
X69052685Y-130688340D02*
X69005066Y-130593102D01*
X69005066Y-130593102D02*
X68957447Y-130545483D01*
X68957447Y-130545483D02*
X68862209Y-130497864D01*
X68862209Y-130497864D02*
X68766971Y-130497864D01*
X68576494Y-130497864D02*
X68195542Y-130497864D01*
X68433637Y-130164531D02*
X68433637Y-131021673D01*
X68433637Y-131021673D02*
X68386018Y-131116912D01*
X68386018Y-131116912D02*
X68290780Y-131164531D01*
X68290780Y-131164531D02*
X68195542Y-131164531D01*
X67433637Y-130497864D02*
X67433637Y-131164531D01*
X67862208Y-130497864D02*
X67862208Y-131021673D01*
X67862208Y-131021673D02*
X67814589Y-131116912D01*
X67814589Y-131116912D02*
X67719351Y-131164531D01*
X67719351Y-131164531D02*
X67576494Y-131164531D01*
X67576494Y-131164531D02*
X67481256Y-131116912D01*
X67481256Y-131116912D02*
X67433637Y-131069292D01*
X66957446Y-130497864D02*
X66957446Y-131497864D01*
X66957446Y-130545483D02*
X66862208Y-130497864D01*
X66862208Y-130497864D02*
X66671732Y-130497864D01*
X66671732Y-130497864D02*
X66576494Y-130545483D01*
X66576494Y-130545483D02*
X66528875Y-130593102D01*
X66528875Y-130593102D02*
X66481256Y-130688340D01*
X66481256Y-130688340D02*
X66481256Y-130974054D01*
X66481256Y-130974054D02*
X66528875Y-131069292D01*
X66528875Y-131069292D02*
X66576494Y-131116912D01*
X66576494Y-131116912D02*
X66671732Y-131164531D01*
X66671732Y-131164531D02*
X66862208Y-131164531D01*
X66862208Y-131164531D02*
X66957446Y-131116912D01*
X65338399Y-130116912D02*
X66195541Y-131402626D01*
X65005065Y-131164531D02*
X65005065Y-130164531D01*
X65005065Y-130164531D02*
X64766970Y-130164531D01*
X64766970Y-130164531D02*
X64624113Y-130212150D01*
X64624113Y-130212150D02*
X64528875Y-130307388D01*
X64528875Y-130307388D02*
X64481256Y-130402626D01*
X64481256Y-130402626D02*
X64433637Y-130593102D01*
X64433637Y-130593102D02*
X64433637Y-130735959D01*
X64433637Y-130735959D02*
X64481256Y-130926435D01*
X64481256Y-130926435D02*
X64528875Y-131021673D01*
X64528875Y-131021673D02*
X64624113Y-131116912D01*
X64624113Y-131116912D02*
X64766970Y-131164531D01*
X64766970Y-131164531D02*
X65005065Y-131164531D01*
X64100303Y-130497864D02*
X63862208Y-131164531D01*
X63624113Y-130497864D02*
X63862208Y-131164531D01*
X63862208Y-131164531D02*
X63957446Y-131402626D01*
X63957446Y-131402626D02*
X64005065Y-131450245D01*
X64005065Y-131450245D02*
X64100303Y-131497864D01*
X63243160Y-131164531D02*
X63243160Y-130497864D01*
X63243160Y-130593102D02*
X63195541Y-130545483D01*
X63195541Y-130545483D02*
X63100303Y-130497864D01*
X63100303Y-130497864D02*
X62957446Y-130497864D01*
X62957446Y-130497864D02*
X62862208Y-130545483D01*
X62862208Y-130545483D02*
X62814589Y-130640721D01*
X62814589Y-130640721D02*
X62814589Y-131164531D01*
X62814589Y-130640721D02*
X62766970Y-130545483D01*
X62766970Y-130545483D02*
X62671732Y-130497864D01*
X62671732Y-130497864D02*
X62528875Y-130497864D01*
X62528875Y-130497864D02*
X62433636Y-130545483D01*
X62433636Y-130545483D02*
X62386017Y-130640721D01*
X62386017Y-130640721D02*
X62386017Y-131164531D01*
X61576494Y-130640721D02*
X61433637Y-130688340D01*
X61433637Y-130688340D02*
X61386018Y-130735959D01*
X61386018Y-130735959D02*
X61338399Y-130831197D01*
X61338399Y-130831197D02*
X61338399Y-130974054D01*
X61338399Y-130974054D02*
X61386018Y-131069292D01*
X61386018Y-131069292D02*
X61433637Y-131116912D01*
X61433637Y-131116912D02*
X61528875Y-131164531D01*
X61528875Y-131164531D02*
X61909827Y-131164531D01*
X61909827Y-131164531D02*
X61909827Y-130164531D01*
X61909827Y-130164531D02*
X61576494Y-130164531D01*
X61576494Y-130164531D02*
X61481256Y-130212150D01*
X61481256Y-130212150D02*
X61433637Y-130259769D01*
X61433637Y-130259769D02*
X61386018Y-130355007D01*
X61386018Y-130355007D02*
X61386018Y-130450245D01*
X61386018Y-130450245D02*
X61433637Y-130545483D01*
X61433637Y-130545483D02*
X61481256Y-130593102D01*
X61481256Y-130593102D02*
X61576494Y-130640721D01*
X61576494Y-130640721D02*
X61909827Y-130640721D01*
X60719351Y-130164531D02*
X60528875Y-130164531D01*
X60528875Y-130164531D02*
X60433637Y-130212150D01*
X60433637Y-130212150D02*
X60338399Y-130307388D01*
X60338399Y-130307388D02*
X60290780Y-130497864D01*
X60290780Y-130497864D02*
X60290780Y-130831197D01*
X60290780Y-130831197D02*
X60338399Y-131021673D01*
X60338399Y-131021673D02*
X60433637Y-131116912D01*
X60433637Y-131116912D02*
X60528875Y-131164531D01*
X60528875Y-131164531D02*
X60719351Y-131164531D01*
X60719351Y-131164531D02*
X60814589Y-131116912D01*
X60814589Y-131116912D02*
X60909827Y-131021673D01*
X60909827Y-131021673D02*
X60957446Y-130831197D01*
X60957446Y-130831197D02*
X60957446Y-130497864D01*
X60957446Y-130497864D02*
X60909827Y-130307388D01*
X60909827Y-130307388D02*
X60814589Y-130212150D01*
X60814589Y-130212150D02*
X60719351Y-130164531D01*
X59957446Y-130164531D02*
X59290780Y-131164531D01*
X59290780Y-130164531D02*
X59957446Y-131164531D01*
X58909827Y-131069292D02*
X58862208Y-131116912D01*
X58862208Y-131116912D02*
X58909827Y-131164531D01*
X58909827Y-131164531D02*
X58957446Y-131116912D01*
X58957446Y-131116912D02*
X58909827Y-131069292D01*
X58909827Y-131069292D02*
X58909827Y-131164531D01*
X58005066Y-130497864D02*
X58005066Y-131307388D01*
X58005066Y-131307388D02*
X58052685Y-131402626D01*
X58052685Y-131402626D02*
X58100304Y-131450245D01*
X58100304Y-131450245D02*
X58195542Y-131497864D01*
X58195542Y-131497864D02*
X58338399Y-131497864D01*
X58338399Y-131497864D02*
X58433637Y-131450245D01*
X58005066Y-131116912D02*
X58100304Y-131164531D01*
X58100304Y-131164531D02*
X58290780Y-131164531D01*
X58290780Y-131164531D02*
X58386018Y-131116912D01*
X58386018Y-131116912D02*
X58433637Y-131069292D01*
X58433637Y-131069292D02*
X58481256Y-130974054D01*
X58481256Y-130974054D02*
X58481256Y-130688340D01*
X58481256Y-130688340D02*
X58433637Y-130593102D01*
X58433637Y-130593102D02*
X58386018Y-130545483D01*
X58386018Y-130545483D02*
X58290780Y-130497864D01*
X58290780Y-130497864D02*
X58100304Y-130497864D01*
X58100304Y-130497864D02*
X58005066Y-130545483D01*
X57528875Y-131164531D02*
X57528875Y-130497864D01*
X57528875Y-130164531D02*
X57576494Y-130212150D01*
X57576494Y-130212150D02*
X57528875Y-130259769D01*
X57528875Y-130259769D02*
X57481256Y-130212150D01*
X57481256Y-130212150D02*
X57528875Y-130164531D01*
X57528875Y-130164531D02*
X57528875Y-130259769D01*
X57195542Y-130497864D02*
X56814590Y-130497864D01*
X57052685Y-130164531D02*
X57052685Y-131021673D01*
X57052685Y-131021673D02*
X57005066Y-131116912D01*
X57005066Y-131116912D02*
X56909828Y-131164531D01*
X56909828Y-131164531D02*
X56814590Y-131164531D01*
X89671734Y-131869713D02*
X89624115Y-131822094D01*
X89624115Y-131822094D02*
X89528877Y-131774475D01*
X89528877Y-131774475D02*
X89290782Y-131774475D01*
X89290782Y-131774475D02*
X89195544Y-131822094D01*
X89195544Y-131822094D02*
X89147925Y-131869713D01*
X89147925Y-131869713D02*
X89100306Y-131964951D01*
X89100306Y-131964951D02*
X89100306Y-132060189D01*
X89100306Y-132060189D02*
X89147925Y-132203046D01*
X89147925Y-132203046D02*
X89719353Y-132774475D01*
X89719353Y-132774475D02*
X89100306Y-132774475D01*
X88671734Y-132107808D02*
X88671734Y-133107808D01*
X88671734Y-132155427D02*
X88576496Y-132107808D01*
X88576496Y-132107808D02*
X88386020Y-132107808D01*
X88386020Y-132107808D02*
X88290782Y-132155427D01*
X88290782Y-132155427D02*
X88243163Y-132203046D01*
X88243163Y-132203046D02*
X88195544Y-132298284D01*
X88195544Y-132298284D02*
X88195544Y-132583998D01*
X88195544Y-132583998D02*
X88243163Y-132679236D01*
X88243163Y-132679236D02*
X88290782Y-132726856D01*
X88290782Y-132726856D02*
X88386020Y-132774475D01*
X88386020Y-132774475D02*
X88576496Y-132774475D01*
X88576496Y-132774475D02*
X88671734Y-132726856D01*
X87766972Y-132774475D02*
X87766972Y-131774475D01*
X87671734Y-132393522D02*
X87386020Y-132774475D01*
X87386020Y-132107808D02*
X87766972Y-132488760D01*
X87005067Y-132726856D02*
X86909829Y-132774475D01*
X86909829Y-132774475D02*
X86719353Y-132774475D01*
X86719353Y-132774475D02*
X86624115Y-132726856D01*
X86624115Y-132726856D02*
X86576496Y-132631617D01*
X86576496Y-132631617D02*
X86576496Y-132583998D01*
X86576496Y-132583998D02*
X86624115Y-132488760D01*
X86624115Y-132488760D02*
X86719353Y-132441141D01*
X86719353Y-132441141D02*
X86862210Y-132441141D01*
X86862210Y-132441141D02*
X86957448Y-132393522D01*
X86957448Y-132393522D02*
X87005067Y-132298284D01*
X87005067Y-132298284D02*
X87005067Y-132250665D01*
X87005067Y-132250665D02*
X86957448Y-132155427D01*
X86957448Y-132155427D02*
X86862210Y-132107808D01*
X86862210Y-132107808D02*
X86719353Y-132107808D01*
X86719353Y-132107808D02*
X86624115Y-132155427D01*
X86290781Y-132107808D02*
X85909829Y-132107808D01*
X86147924Y-131774475D02*
X86147924Y-132631617D01*
X86147924Y-132631617D02*
X86100305Y-132726856D01*
X86100305Y-132726856D02*
X86005067Y-132774475D01*
X86005067Y-132774475D02*
X85909829Y-132774475D01*
X85147924Y-132774475D02*
X85147924Y-132250665D01*
X85147924Y-132250665D02*
X85195543Y-132155427D01*
X85195543Y-132155427D02*
X85290781Y-132107808D01*
X85290781Y-132107808D02*
X85481257Y-132107808D01*
X85481257Y-132107808D02*
X85576495Y-132155427D01*
X85147924Y-132726856D02*
X85243162Y-132774475D01*
X85243162Y-132774475D02*
X85481257Y-132774475D01*
X85481257Y-132774475D02*
X85576495Y-132726856D01*
X85576495Y-132726856D02*
X85624114Y-132631617D01*
X85624114Y-132631617D02*
X85624114Y-132536379D01*
X85624114Y-132536379D02*
X85576495Y-132441141D01*
X85576495Y-132441141D02*
X85481257Y-132393522D01*
X85481257Y-132393522D02*
X85243162Y-132393522D01*
X85243162Y-132393522D02*
X85147924Y-132345903D01*
X84671733Y-132774475D02*
X84671733Y-132107808D01*
X84671733Y-132298284D02*
X84624114Y-132203046D01*
X84624114Y-132203046D02*
X84576495Y-132155427D01*
X84576495Y-132155427D02*
X84481257Y-132107808D01*
X84481257Y-132107808D02*
X84386019Y-132107808D01*
X84195542Y-132107808D02*
X83814590Y-132107808D01*
X84052685Y-131774475D02*
X84052685Y-132631617D01*
X84052685Y-132631617D02*
X84005066Y-132726856D01*
X84005066Y-132726856D02*
X83909828Y-132774475D01*
X83909828Y-132774475D02*
X83814590Y-132774475D01*
X83052685Y-132107808D02*
X83052685Y-132774475D01*
X83481256Y-132107808D02*
X83481256Y-132631617D01*
X83481256Y-132631617D02*
X83433637Y-132726856D01*
X83433637Y-132726856D02*
X83338399Y-132774475D01*
X83338399Y-132774475D02*
X83195542Y-132774475D01*
X83195542Y-132774475D02*
X83100304Y-132726856D01*
X83100304Y-132726856D02*
X83052685Y-132679236D01*
X82576494Y-132107808D02*
X82576494Y-133107808D01*
X82576494Y-132155427D02*
X82481256Y-132107808D01*
X82481256Y-132107808D02*
X82290780Y-132107808D01*
X82290780Y-132107808D02*
X82195542Y-132155427D01*
X82195542Y-132155427D02*
X82147923Y-132203046D01*
X82147923Y-132203046D02*
X82100304Y-132298284D01*
X82100304Y-132298284D02*
X82100304Y-132583998D01*
X82100304Y-132583998D02*
X82147923Y-132679236D01*
X82147923Y-132679236D02*
X82195542Y-132726856D01*
X82195542Y-132726856D02*
X82290780Y-132774475D01*
X82290780Y-132774475D02*
X82481256Y-132774475D01*
X82481256Y-132774475D02*
X82576494Y-132726856D01*
X81052685Y-132298284D02*
X81100304Y-132250665D01*
X81100304Y-132250665D02*
X81195542Y-132203046D01*
X81195542Y-132203046D02*
X81290780Y-132203046D01*
X81290780Y-132203046D02*
X81386018Y-132250665D01*
X81386018Y-132250665D02*
X81433637Y-132298284D01*
X81433637Y-132298284D02*
X81481256Y-132393522D01*
X81481256Y-132393522D02*
X81481256Y-132488760D01*
X81481256Y-132488760D02*
X81433637Y-132583998D01*
X81433637Y-132583998D02*
X81386018Y-132631617D01*
X81386018Y-132631617D02*
X81290780Y-132679236D01*
X81290780Y-132679236D02*
X81195542Y-132679236D01*
X81195542Y-132679236D02*
X81100304Y-132631617D01*
X81100304Y-132631617D02*
X81052685Y-132583998D01*
X81052685Y-132203046D02*
X81052685Y-132583998D01*
X81052685Y-132583998D02*
X81005066Y-132631617D01*
X81005066Y-132631617D02*
X80957447Y-132631617D01*
X80957447Y-132631617D02*
X80862208Y-132583998D01*
X80862208Y-132583998D02*
X80814589Y-132488760D01*
X80814589Y-132488760D02*
X80814589Y-132250665D01*
X80814589Y-132250665D02*
X80909828Y-132107808D01*
X80909828Y-132107808D02*
X81052685Y-132012570D01*
X81052685Y-132012570D02*
X81243161Y-131964951D01*
X81243161Y-131964951D02*
X81433637Y-132012570D01*
X81433637Y-132012570D02*
X81576494Y-132107808D01*
X81576494Y-132107808D02*
X81671732Y-132250665D01*
X81671732Y-132250665D02*
X81719351Y-132441141D01*
X81719351Y-132441141D02*
X81671732Y-132631617D01*
X81671732Y-132631617D02*
X81576494Y-132774475D01*
X81576494Y-132774475D02*
X81433637Y-132869713D01*
X81433637Y-132869713D02*
X81243161Y-132917332D01*
X81243161Y-132917332D02*
X81052685Y-132869713D01*
X81052685Y-132869713D02*
X80909828Y-132774475D01*
X79957447Y-132107808D02*
X79957447Y-132917332D01*
X79957447Y-132917332D02*
X80005066Y-133012570D01*
X80005066Y-133012570D02*
X80052685Y-133060189D01*
X80052685Y-133060189D02*
X80147923Y-133107808D01*
X80147923Y-133107808D02*
X80290780Y-133107808D01*
X80290780Y-133107808D02*
X80386018Y-133060189D01*
X79957447Y-132726856D02*
X80052685Y-132774475D01*
X80052685Y-132774475D02*
X80243161Y-132774475D01*
X80243161Y-132774475D02*
X80338399Y-132726856D01*
X80338399Y-132726856D02*
X80386018Y-132679236D01*
X80386018Y-132679236D02*
X80433637Y-132583998D01*
X80433637Y-132583998D02*
X80433637Y-132298284D01*
X80433637Y-132298284D02*
X80386018Y-132203046D01*
X80386018Y-132203046D02*
X80338399Y-132155427D01*
X80338399Y-132155427D02*
X80243161Y-132107808D01*
X80243161Y-132107808D02*
X80052685Y-132107808D01*
X80052685Y-132107808D02*
X79957447Y-132155427D01*
X79481256Y-132774475D02*
X79481256Y-132107808D01*
X79481256Y-132203046D02*
X79433637Y-132155427D01*
X79433637Y-132155427D02*
X79338399Y-132107808D01*
X79338399Y-132107808D02*
X79195542Y-132107808D01*
X79195542Y-132107808D02*
X79100304Y-132155427D01*
X79100304Y-132155427D02*
X79052685Y-132250665D01*
X79052685Y-132250665D02*
X79052685Y-132774475D01*
X79052685Y-132250665D02*
X79005066Y-132155427D01*
X79005066Y-132155427D02*
X78909828Y-132107808D01*
X78909828Y-132107808D02*
X78766971Y-132107808D01*
X78766971Y-132107808D02*
X78671732Y-132155427D01*
X78671732Y-132155427D02*
X78624113Y-132250665D01*
X78624113Y-132250665D02*
X78624113Y-132774475D01*
X77719352Y-132774475D02*
X77719352Y-132250665D01*
X77719352Y-132250665D02*
X77766971Y-132155427D01*
X77766971Y-132155427D02*
X77862209Y-132107808D01*
X77862209Y-132107808D02*
X78052685Y-132107808D01*
X78052685Y-132107808D02*
X78147923Y-132155427D01*
X77719352Y-132726856D02*
X77814590Y-132774475D01*
X77814590Y-132774475D02*
X78052685Y-132774475D01*
X78052685Y-132774475D02*
X78147923Y-132726856D01*
X78147923Y-132726856D02*
X78195542Y-132631617D01*
X78195542Y-132631617D02*
X78195542Y-132536379D01*
X78195542Y-132536379D02*
X78147923Y-132441141D01*
X78147923Y-132441141D02*
X78052685Y-132393522D01*
X78052685Y-132393522D02*
X77814590Y-132393522D01*
X77814590Y-132393522D02*
X77719352Y-132345903D01*
X77243161Y-132774475D02*
X77243161Y-132107808D01*
X77243161Y-131774475D02*
X77290780Y-131822094D01*
X77290780Y-131822094D02*
X77243161Y-131869713D01*
X77243161Y-131869713D02*
X77195542Y-131822094D01*
X77195542Y-131822094D02*
X77243161Y-131774475D01*
X77243161Y-131774475D02*
X77243161Y-131869713D01*
X76624114Y-132774475D02*
X76719352Y-132726856D01*
X76719352Y-132726856D02*
X76766971Y-132631617D01*
X76766971Y-132631617D02*
X76766971Y-131774475D01*
X76243161Y-132679236D02*
X76195542Y-132726856D01*
X76195542Y-132726856D02*
X76243161Y-132774475D01*
X76243161Y-132774475D02*
X76290780Y-132726856D01*
X76290780Y-132726856D02*
X76243161Y-132679236D01*
X76243161Y-132679236D02*
X76243161Y-132774475D01*
X75338400Y-132726856D02*
X75433638Y-132774475D01*
X75433638Y-132774475D02*
X75624114Y-132774475D01*
X75624114Y-132774475D02*
X75719352Y-132726856D01*
X75719352Y-132726856D02*
X75766971Y-132679236D01*
X75766971Y-132679236D02*
X75814590Y-132583998D01*
X75814590Y-132583998D02*
X75814590Y-132298284D01*
X75814590Y-132298284D02*
X75766971Y-132203046D01*
X75766971Y-132203046D02*
X75719352Y-132155427D01*
X75719352Y-132155427D02*
X75624114Y-132107808D01*
X75624114Y-132107808D02*
X75433638Y-132107808D01*
X75433638Y-132107808D02*
X75338400Y-132155427D01*
X74766971Y-132774475D02*
X74862209Y-132726856D01*
X74862209Y-132726856D02*
X74909828Y-132679236D01*
X74909828Y-132679236D02*
X74957447Y-132583998D01*
X74957447Y-132583998D02*
X74957447Y-132298284D01*
X74957447Y-132298284D02*
X74909828Y-132203046D01*
X74909828Y-132203046D02*
X74862209Y-132155427D01*
X74862209Y-132155427D02*
X74766971Y-132107808D01*
X74766971Y-132107808D02*
X74624114Y-132107808D01*
X74624114Y-132107808D02*
X74528876Y-132155427D01*
X74528876Y-132155427D02*
X74481257Y-132203046D01*
X74481257Y-132203046D02*
X74433638Y-132298284D01*
X74433638Y-132298284D02*
X74433638Y-132583998D01*
X74433638Y-132583998D02*
X74481257Y-132679236D01*
X74481257Y-132679236D02*
X74528876Y-132726856D01*
X74528876Y-132726856D02*
X74624114Y-132774475D01*
X74624114Y-132774475D02*
X74766971Y-132774475D01*
X74005066Y-132774475D02*
X74005066Y-132107808D01*
X74005066Y-132203046D02*
X73957447Y-132155427D01*
X73957447Y-132155427D02*
X73862209Y-132107808D01*
X73862209Y-132107808D02*
X73719352Y-132107808D01*
X73719352Y-132107808D02*
X73624114Y-132155427D01*
X73624114Y-132155427D02*
X73576495Y-132250665D01*
X73576495Y-132250665D02*
X73576495Y-132774475D01*
X73576495Y-132250665D02*
X73528876Y-132155427D01*
X73528876Y-132155427D02*
X73433638Y-132107808D01*
X73433638Y-132107808D02*
X73290781Y-132107808D01*
X73290781Y-132107808D02*
X73195542Y-132155427D01*
X73195542Y-132155427D02*
X73147923Y-132250665D01*
X73147923Y-132250665D02*
X73147923Y-132774475D01*
X89005068Y-133908228D02*
X89052687Y-133860609D01*
X89052687Y-133860609D02*
X89147925Y-133812990D01*
X89147925Y-133812990D02*
X89243163Y-133812990D01*
X89243163Y-133812990D02*
X89338401Y-133860609D01*
X89338401Y-133860609D02*
X89386020Y-133908228D01*
X89386020Y-133908228D02*
X89433639Y-134003466D01*
X89433639Y-134003466D02*
X89433639Y-134098704D01*
X89433639Y-134098704D02*
X89386020Y-134193942D01*
X89386020Y-134193942D02*
X89338401Y-134241561D01*
X89338401Y-134241561D02*
X89243163Y-134289180D01*
X89243163Y-134289180D02*
X89147925Y-134289180D01*
X89147925Y-134289180D02*
X89052687Y-134241561D01*
X89052687Y-134241561D02*
X89005068Y-134193942D01*
X89005068Y-133812990D02*
X89005068Y-134193942D01*
X89005068Y-134193942D02*
X88957449Y-134241561D01*
X88957449Y-134241561D02*
X88909830Y-134241561D01*
X88909830Y-134241561D02*
X88814591Y-134193942D01*
X88814591Y-134193942D02*
X88766972Y-134098704D01*
X88766972Y-134098704D02*
X88766972Y-133860609D01*
X88766972Y-133860609D02*
X88862211Y-133717752D01*
X88862211Y-133717752D02*
X89005068Y-133622514D01*
X89005068Y-133622514D02*
X89195544Y-133574895D01*
X89195544Y-133574895D02*
X89386020Y-133622514D01*
X89386020Y-133622514D02*
X89528877Y-133717752D01*
X89528877Y-133717752D02*
X89624115Y-133860609D01*
X89624115Y-133860609D02*
X89671734Y-134051085D01*
X89671734Y-134051085D02*
X89624115Y-134241561D01*
X89624115Y-134241561D02*
X89528877Y-134384419D01*
X89528877Y-134384419D02*
X89386020Y-134479657D01*
X89386020Y-134479657D02*
X89195544Y-134527276D01*
X89195544Y-134527276D02*
X89005068Y-134479657D01*
X89005068Y-134479657D02*
X88862211Y-134384419D01*
X88386020Y-133479657D02*
X88338401Y-133432038D01*
X88338401Y-133432038D02*
X88243163Y-133384419D01*
X88243163Y-133384419D02*
X88005068Y-133384419D01*
X88005068Y-133384419D02*
X87909830Y-133432038D01*
X87909830Y-133432038D02*
X87862211Y-133479657D01*
X87862211Y-133479657D02*
X87814592Y-133574895D01*
X87814592Y-133574895D02*
X87814592Y-133670133D01*
X87814592Y-133670133D02*
X87862211Y-133812990D01*
X87862211Y-133812990D02*
X88433639Y-134384419D01*
X88433639Y-134384419D02*
X87814592Y-134384419D01*
X87195544Y-133384419D02*
X87100306Y-133384419D01*
X87100306Y-133384419D02*
X87005068Y-133432038D01*
X87005068Y-133432038D02*
X86957449Y-133479657D01*
X86957449Y-133479657D02*
X86909830Y-133574895D01*
X86909830Y-133574895D02*
X86862211Y-133765371D01*
X86862211Y-133765371D02*
X86862211Y-134003466D01*
X86862211Y-134003466D02*
X86909830Y-134193942D01*
X86909830Y-134193942D02*
X86957449Y-134289180D01*
X86957449Y-134289180D02*
X87005068Y-134336800D01*
X87005068Y-134336800D02*
X87100306Y-134384419D01*
X87100306Y-134384419D02*
X87195544Y-134384419D01*
X87195544Y-134384419D02*
X87290782Y-134336800D01*
X87290782Y-134336800D02*
X87338401Y-134289180D01*
X87338401Y-134289180D02*
X87386020Y-134193942D01*
X87386020Y-134193942D02*
X87433639Y-134003466D01*
X87433639Y-134003466D02*
X87433639Y-133765371D01*
X87433639Y-133765371D02*
X87386020Y-133574895D01*
X87386020Y-133574895D02*
X87338401Y-133479657D01*
X87338401Y-133479657D02*
X87290782Y-133432038D01*
X87290782Y-133432038D02*
X87195544Y-133384419D01*
X86481258Y-133479657D02*
X86433639Y-133432038D01*
X86433639Y-133432038D02*
X86338401Y-133384419D01*
X86338401Y-133384419D02*
X86100306Y-133384419D01*
X86100306Y-133384419D02*
X86005068Y-133432038D01*
X86005068Y-133432038D02*
X85957449Y-133479657D01*
X85957449Y-133479657D02*
X85909830Y-133574895D01*
X85909830Y-133574895D02*
X85909830Y-133670133D01*
X85909830Y-133670133D02*
X85957449Y-133812990D01*
X85957449Y-133812990D02*
X86528877Y-134384419D01*
X86528877Y-134384419D02*
X85909830Y-134384419D01*
X85052687Y-133384419D02*
X85243163Y-133384419D01*
X85243163Y-133384419D02*
X85338401Y-133432038D01*
X85338401Y-133432038D02*
X85386020Y-133479657D01*
X85386020Y-133479657D02*
X85481258Y-133622514D01*
X85481258Y-133622514D02*
X85528877Y-133812990D01*
X85528877Y-133812990D02*
X85528877Y-134193942D01*
X85528877Y-134193942D02*
X85481258Y-134289180D01*
X85481258Y-134289180D02*
X85433639Y-134336800D01*
X85433639Y-134336800D02*
X85338401Y-134384419D01*
X85338401Y-134384419D02*
X85147925Y-134384419D01*
X85147925Y-134384419D02*
X85052687Y-134336800D01*
X85052687Y-134336800D02*
X85005068Y-134289180D01*
X85005068Y-134289180D02*
X84957449Y-134193942D01*
X84957449Y-134193942D02*
X84957449Y-133955847D01*
X84957449Y-133955847D02*
X85005068Y-133860609D01*
X85005068Y-133860609D02*
X85052687Y-133812990D01*
X85052687Y-133812990D02*
X85147925Y-133765371D01*
X85147925Y-133765371D02*
X85338401Y-133765371D01*
X85338401Y-133765371D02*
X85433639Y-133812990D01*
X85433639Y-133812990D02*
X85481258Y-133860609D01*
X85481258Y-133860609D02*
X85528877Y-133955847D01*
D11*
X119885219Y-78333695D02*
X120694742Y-78333695D01*
X120694742Y-78333695D02*
X120789980Y-78381314D01*
X120789980Y-78381314D02*
X120837600Y-78428933D01*
X120837600Y-78428933D02*
X120885219Y-78524171D01*
X120885219Y-78524171D02*
X120885219Y-78714647D01*
X120885219Y-78714647D02*
X120837600Y-78809885D01*
X120837600Y-78809885D02*
X120789980Y-78857504D01*
X120789980Y-78857504D02*
X120694742Y-78905123D01*
X120694742Y-78905123D02*
X119885219Y-78905123D01*
X119980457Y-79333695D02*
X119932838Y-79381314D01*
X119932838Y-79381314D02*
X119885219Y-79476552D01*
X119885219Y-79476552D02*
X119885219Y-79714647D01*
X119885219Y-79714647D02*
X119932838Y-79809885D01*
X119932838Y-79809885D02*
X119980457Y-79857504D01*
X119980457Y-79857504D02*
X120075695Y-79905123D01*
X120075695Y-79905123D02*
X120170933Y-79905123D01*
X120170933Y-79905123D02*
X120313790Y-79857504D01*
X120313790Y-79857504D02*
X120885219Y-79286076D01*
X120885219Y-79286076D02*
X120885219Y-79905123D01*
X104904190Y-90990628D02*
X104904190Y-91466819D01*
X105237523Y-90466819D02*
X104904190Y-90990628D01*
X104904190Y-90990628D02*
X104570857Y-90466819D01*
X103713714Y-91466819D02*
X104285142Y-91466819D01*
X103999428Y-91466819D02*
X103999428Y-90466819D01*
X103999428Y-90466819D02*
X104094666Y-90609676D01*
X104094666Y-90609676D02*
X104189904Y-90704914D01*
X104189904Y-90704914D02*
X104285142Y-90752533D01*
X69915200Y-73088667D02*
X69962819Y-73231524D01*
X69962819Y-73231524D02*
X69962819Y-73469619D01*
X69962819Y-73469619D02*
X69915200Y-73564857D01*
X69915200Y-73564857D02*
X69867580Y-73612476D01*
X69867580Y-73612476D02*
X69772342Y-73660095D01*
X69772342Y-73660095D02*
X69677104Y-73660095D01*
X69677104Y-73660095D02*
X69581866Y-73612476D01*
X69581866Y-73612476D02*
X69534247Y-73564857D01*
X69534247Y-73564857D02*
X69486628Y-73469619D01*
X69486628Y-73469619D02*
X69439009Y-73279143D01*
X69439009Y-73279143D02*
X69391390Y-73183905D01*
X69391390Y-73183905D02*
X69343771Y-73136286D01*
X69343771Y-73136286D02*
X69248533Y-73088667D01*
X69248533Y-73088667D02*
X69153295Y-73088667D01*
X69153295Y-73088667D02*
X69058057Y-73136286D01*
X69058057Y-73136286D02*
X69010438Y-73183905D01*
X69010438Y-73183905D02*
X68962819Y-73279143D01*
X68962819Y-73279143D02*
X68962819Y-73517238D01*
X68962819Y-73517238D02*
X69010438Y-73660095D01*
X68962819Y-73993429D02*
X69962819Y-74231524D01*
X69962819Y-74231524D02*
X69248533Y-74422000D01*
X69248533Y-74422000D02*
X69962819Y-74612476D01*
X69962819Y-74612476D02*
X68962819Y-74850572D01*
X69058057Y-75183905D02*
X69010438Y-75231524D01*
X69010438Y-75231524D02*
X68962819Y-75326762D01*
X68962819Y-75326762D02*
X68962819Y-75564857D01*
X68962819Y-75564857D02*
X69010438Y-75660095D01*
X69010438Y-75660095D02*
X69058057Y-75707714D01*
X69058057Y-75707714D02*
X69153295Y-75755333D01*
X69153295Y-75755333D02*
X69248533Y-75755333D01*
X69248533Y-75755333D02*
X69391390Y-75707714D01*
X69391390Y-75707714D02*
X69962819Y-75136286D01*
X69962819Y-75136286D02*
X69962819Y-75755333D01*
X85233580Y-85845333D02*
X85281200Y-85797714D01*
X85281200Y-85797714D02*
X85328819Y-85654857D01*
X85328819Y-85654857D02*
X85328819Y-85559619D01*
X85328819Y-85559619D02*
X85281200Y-85416762D01*
X85281200Y-85416762D02*
X85185961Y-85321524D01*
X85185961Y-85321524D02*
X85090723Y-85273905D01*
X85090723Y-85273905D02*
X84900247Y-85226286D01*
X84900247Y-85226286D02*
X84757390Y-85226286D01*
X84757390Y-85226286D02*
X84566914Y-85273905D01*
X84566914Y-85273905D02*
X84471676Y-85321524D01*
X84471676Y-85321524D02*
X84376438Y-85416762D01*
X84376438Y-85416762D02*
X84328819Y-85559619D01*
X84328819Y-85559619D02*
X84328819Y-85654857D01*
X84328819Y-85654857D02*
X84376438Y-85797714D01*
X84376438Y-85797714D02*
X84424057Y-85845333D01*
X84328819Y-86702476D02*
X84328819Y-86512000D01*
X84328819Y-86512000D02*
X84376438Y-86416762D01*
X84376438Y-86416762D02*
X84424057Y-86369143D01*
X84424057Y-86369143D02*
X84566914Y-86273905D01*
X84566914Y-86273905D02*
X84757390Y-86226286D01*
X84757390Y-86226286D02*
X85138342Y-86226286D01*
X85138342Y-86226286D02*
X85233580Y-86273905D01*
X85233580Y-86273905D02*
X85281200Y-86321524D01*
X85281200Y-86321524D02*
X85328819Y-86416762D01*
X85328819Y-86416762D02*
X85328819Y-86607238D01*
X85328819Y-86607238D02*
X85281200Y-86702476D01*
X85281200Y-86702476D02*
X85233580Y-86750095D01*
X85233580Y-86750095D02*
X85138342Y-86797714D01*
X85138342Y-86797714D02*
X84900247Y-86797714D01*
X84900247Y-86797714D02*
X84805009Y-86750095D01*
X84805009Y-86750095D02*
X84757390Y-86702476D01*
X84757390Y-86702476D02*
X84709771Y-86607238D01*
X84709771Y-86607238D02*
X84709771Y-86416762D01*
X84709771Y-86416762D02*
X84757390Y-86321524D01*
X84757390Y-86321524D02*
X84805009Y-86273905D01*
X84805009Y-86273905D02*
X84900247Y-86226286D01*
X94373980Y-92187733D02*
X94421600Y-92140114D01*
X94421600Y-92140114D02*
X94469219Y-91997257D01*
X94469219Y-91997257D02*
X94469219Y-91902019D01*
X94469219Y-91902019D02*
X94421600Y-91759162D01*
X94421600Y-91759162D02*
X94326361Y-91663924D01*
X94326361Y-91663924D02*
X94231123Y-91616305D01*
X94231123Y-91616305D02*
X94040647Y-91568686D01*
X94040647Y-91568686D02*
X93897790Y-91568686D01*
X93897790Y-91568686D02*
X93707314Y-91616305D01*
X93707314Y-91616305D02*
X93612076Y-91663924D01*
X93612076Y-91663924D02*
X93516838Y-91759162D01*
X93516838Y-91759162D02*
X93469219Y-91902019D01*
X93469219Y-91902019D02*
X93469219Y-91997257D01*
X93469219Y-91997257D02*
X93516838Y-92140114D01*
X93516838Y-92140114D02*
X93564457Y-92187733D01*
X93802552Y-93044876D02*
X94469219Y-93044876D01*
X93421600Y-92806781D02*
X94135885Y-92568686D01*
X94135885Y-92568686D02*
X94135885Y-93187733D01*
X117589580Y-92187733D02*
X117637200Y-92140114D01*
X117637200Y-92140114D02*
X117684819Y-91997257D01*
X117684819Y-91997257D02*
X117684819Y-91902019D01*
X117684819Y-91902019D02*
X117637200Y-91759162D01*
X117637200Y-91759162D02*
X117541961Y-91663924D01*
X117541961Y-91663924D02*
X117446723Y-91616305D01*
X117446723Y-91616305D02*
X117256247Y-91568686D01*
X117256247Y-91568686D02*
X117113390Y-91568686D01*
X117113390Y-91568686D02*
X116922914Y-91616305D01*
X116922914Y-91616305D02*
X116827676Y-91663924D01*
X116827676Y-91663924D02*
X116732438Y-91759162D01*
X116732438Y-91759162D02*
X116684819Y-91902019D01*
X116684819Y-91902019D02*
X116684819Y-91997257D01*
X116684819Y-91997257D02*
X116732438Y-92140114D01*
X116732438Y-92140114D02*
X116780057Y-92187733D01*
X116684819Y-93092495D02*
X116684819Y-92616305D01*
X116684819Y-92616305D02*
X117161009Y-92568686D01*
X117161009Y-92568686D02*
X117113390Y-92616305D01*
X117113390Y-92616305D02*
X117065771Y-92711543D01*
X117065771Y-92711543D02*
X117065771Y-92949638D01*
X117065771Y-92949638D02*
X117113390Y-93044876D01*
X117113390Y-93044876D02*
X117161009Y-93092495D01*
X117161009Y-93092495D02*
X117256247Y-93140114D01*
X117256247Y-93140114D02*
X117494342Y-93140114D01*
X117494342Y-93140114D02*
X117589580Y-93092495D01*
X117589580Y-93092495D02*
X117637200Y-93044876D01*
X117637200Y-93044876D02*
X117684819Y-92949638D01*
X117684819Y-92949638D02*
X117684819Y-92711543D01*
X117684819Y-92711543D02*
X117637200Y-92616305D01*
X117637200Y-92616305D02*
X117589580Y-92568686D01*
%TO.C,U2*%
D12*
X81546400Y-60682200D02*
X119246400Y-60682200D01*
X81546400Y-79962200D02*
X81546400Y-60722200D01*
X107746400Y-80302200D02*
X105746400Y-80302200D01*
X119246400Y-79922200D02*
X81546400Y-79922200D01*
X119246400Y-79922200D02*
X119246400Y-60682200D01*
%TO.C,Y1*%
X99468000Y-91902000D02*
X115563000Y-91902000D01*
X115563000Y-91902000D02*
X115563000Y-97122000D01*
X115563000Y-97122000D02*
X99468000Y-97122000D01*
%TO.C,SW2*%
X56408000Y-63622000D02*
X56408000Y-67722000D01*
X56408000Y-71722000D02*
X56408000Y-75822000D01*
X58808000Y-63622000D02*
X56408000Y-63622000D01*
X62308000Y-70222000D02*
X62308000Y-69222000D01*
X62808000Y-69722000D02*
X61808000Y-69722000D01*
X63608000Y-63622000D02*
X61008000Y-63622000D01*
X66108000Y-77222000D02*
X66408000Y-77522000D01*
X66408000Y-76922000D02*
X66108000Y-77222000D01*
X66408000Y-77522000D02*
X66408000Y-76922000D01*
X68208000Y-63622000D02*
X65808000Y-63622000D01*
X68208000Y-67722000D02*
X68208000Y-63622000D01*
X68208000Y-71722000D02*
X68208000Y-75822000D01*
X68208000Y-75822000D02*
X56408000Y-75822000D01*
X65308000Y-69722000D02*
G75*
G02*
X59308000Y-69722000I-3000000J0D01*
G01*
X59308000Y-69722000D02*
G75*
G02*
X65308000Y-69722000I3000000J0D01*
G01*
%TO.C,C6*%
X82459000Y-86273252D02*
X82459000Y-85750748D01*
X83929000Y-86273252D02*
X83929000Y-85750748D01*
%TO.C,C4*%
X93193000Y-95532752D02*
X93193000Y-95010248D01*
X94663000Y-95532752D02*
X94663000Y-95010248D01*
%TO.C,C5*%
X116193000Y-95735752D02*
X116193000Y-95213248D01*
X117663000Y-95735752D02*
X117663000Y-95213248D01*
%TD*%
M02*
