%TF.GenerationSoftware,KiCad,Pcbnew,10.0.0*%
%TF.CreationDate,2026-04-13T18:26:29+02:00*%
%TF.ProjectId,DymBOX_AVR,44796d42-4f58-45f4-9156-522e6b696361,rev?*%
%TF.SameCoordinates,PX3013918PY981a6d8*%
%TF.FileFunction,Soldermask,Top*%
%TF.FilePolarity,Negative*%
%FSLAX46Y46*%
G04 Gerber Fmt 4.6, Leading zero omitted, Abs format (unit mm)*
G04 Created by KiCad (PCBNEW 10.0.0) date 2026-04-13 18:26:29*
%MOMM*%
%LPD*%
G01*
G04 APERTURE LIST*
G04 Aperture macros list*
%AMRoundRect*
0 Rectangle with rounded corners*
0 $1 Rounding radius*
0 $2 $3 $4 $5 $6 $7 $8 $9 X,Y pos of 4 corners*
0 Add a 4 corners polygon primitive as box body*
4,1,4,$2,$3,$4,$5,$6,$7,$8,$9,$2,$3,0*
0 Add four circle primitives for the rounded corners*
1,1,$1+$1,$2,$3*
1,1,$1+$1,$4,$5*
1,1,$1+$1,$6,$7*
1,1,$1+$1,$8,$9*
0 Add four rect primitives between the rounded corners*
20,1,$1+$1,$2,$3,$4,$5,0*
20,1,$1+$1,$4,$5,$6,$7,0*
20,1,$1+$1,$6,$7,$8,$9,0*
20,1,$1+$1,$8,$9,$2,$3,0*%
G04 Aperture macros list end*
%ADD10C,0.100000*%
%ADD11R,2.000000X2.000000*%
%ADD12C,2.000000*%
%ADD13RoundRect,0.250000X0.650000X-0.412500X0.650000X0.412500X-0.650000X0.412500X-0.650000X-0.412500X0*%
%ADD14C,1.400000*%
%ADD15RoundRect,0.500000X-0.500000X-0.500000X0.500000X-0.500000X0.500000X0.500000X-0.500000X0.500000X0*%
%ADD16RoundRect,0.250000X-0.550000X-0.550000X0.550000X-0.550000X0.550000X0.550000X-0.550000X0.550000X0*%
%ADD17C,1.600000*%
%ADD18C,3.048000*%
%ADD19RoundRect,0.250000X0.337500X0.475000X-0.337500X0.475000X-0.337500X-0.475000X0.337500X-0.475000X0*%
%ADD20R,1.400000X1.400000*%
%ADD21R,1.100000X1.800000*%
%ADD22RoundRect,0.275000X-0.275000X-0.625000X0.275000X-0.625000X0.275000X0.625000X-0.275000X0.625000X0*%
%ADD23RoundRect,0.500000X-0.500000X0.500000X-0.500000X-0.500000X0.500000X-0.500000X0.500000X0.500000X0*%
%ADD24R,1.700000X1.700000*%
%ADD25C,1.700000*%
%ADD26RoundRect,0.250001X0.949999X0.949999X-0.949999X0.949999X-0.949999X-0.949999X0.949999X-0.949999X0*%
%ADD27C,2.400000*%
%ADD28RoundRect,0.250000X0.550000X-0.550000X0.550000X0.550000X-0.550000X0.550000X-0.550000X-0.550000X0*%
%ADD29RoundRect,0.150000X-0.512500X-0.150000X0.512500X-0.150000X0.512500X0.150000X-0.512500X0.150000X0*%
%ADD30RoundRect,0.250001X0.462499X1.074999X-0.462499X1.074999X-0.462499X-1.074999X0.462499X-1.074999X0*%
%ADD31R,1.800000X1.100000*%
%ADD32RoundRect,0.275000X-0.625000X0.275000X-0.625000X-0.275000X0.625000X-0.275000X0.625000X0.275000X0*%
%ADD33O,3.000000X2.000000*%
%ADD34R,2.000000X3.000000*%
%ADD35O,2.000000X3.000000*%
%ADD36RoundRect,0.250000X-0.475000X0.337500X-0.475000X-0.337500X0.475000X-0.337500X0.475000X0.337500X0*%
%ADD37RoundRect,0.250001X0.949999X-0.949999X0.949999X0.949999X-0.949999X0.949999X-0.949999X-0.949999X0*%
%ADD38C,1.500000*%
%ADD39R,1.500000X1.500000*%
%ADD40C,3.200000*%
G04 APERTURE END LIST*
D10*
%TO.C,J3*%
X23037000Y6009000D02*
X19989000Y6009000D01*
X19989000Y11009000D01*
X23037000Y11009000D01*
X23037000Y6009000D01*
G36*
X23037000Y6009000D02*
G01*
X19989000Y6009000D01*
X19989000Y11009000D01*
X23037000Y11009000D01*
X23037000Y6009000D01*
G37*
%TO.C,J4*%
X70565400Y23892800D02*
X67517400Y23892800D01*
X67517400Y28892800D01*
X70565400Y28892800D01*
X70565400Y23892800D01*
G36*
X70565400Y23892800D02*
G01*
X67517400Y23892800D01*
X67517400Y28892800D01*
X70565400Y28892800D01*
X70565400Y23892800D01*
G37*
%TO.C,J1*%
X60985400Y5805800D02*
X57937400Y5805800D01*
X57937400Y10805800D01*
X60985400Y10805800D01*
X60985400Y5805800D01*
G36*
X60985400Y5805800D02*
G01*
X57937400Y5805800D01*
X57937400Y10805800D01*
X60985400Y10805800D01*
X60985400Y5805800D01*
G37*
%TO.C,J2*%
X13843000Y6009000D02*
X10795000Y6009000D01*
X10795000Y11009000D01*
X13843000Y11009000D01*
X13843000Y6009000D01*
G36*
X13843000Y6009000D02*
G01*
X10795000Y6009000D01*
X10795000Y11009000D01*
X13843000Y11009000D01*
X13843000Y6009000D01*
G37*
%TD*%
D11*
%TO.C,TR1*%
X12307000Y24740000D03*
D12*
X17307000Y24740000D03*
X32307000Y24740000D03*
X37307000Y24740000D03*
X37307000Y49740000D03*
X32307000Y49740000D03*
X24807000Y49740000D03*
X17307000Y49740000D03*
X12307000Y49740000D03*
%TD*%
D13*
%TO.C,C2*%
X28829000Y67322300D03*
X28829000Y70447300D03*
%TD*%
D14*
%TO.C,R2*%
X66065400Y102666800D03*
X60985400Y102666800D03*
%TD*%
%TO.C,R1*%
X10693400Y75996800D03*
X15773400Y75996800D03*
%TD*%
D15*
%TO.C,F2*%
X30541400Y8392800D03*
X35541400Y8392800D03*
D12*
X45541400Y8392800D03*
X50541400Y8392800D03*
%TD*%
D14*
%TO.C,R6*%
X38874400Y90352800D03*
X38874400Y95432800D03*
%TD*%
D16*
%TO.C,D2*%
X51959400Y50342800D03*
D17*
X59579400Y50342800D03*
%TD*%
D18*
%TO.C,J3*%
X21513000Y6009000D03*
X21513000Y11009000D03*
%TD*%
D14*
%TO.C,R15*%
X49001400Y65892800D03*
X49001400Y60812800D03*
%TD*%
D19*
%TO.C,C9*%
X34503900Y69392800D03*
X32428900Y69392800D03*
%TD*%
D20*
%TO.C,D3*%
X32720600Y63093600D03*
D14*
X30180600Y63093600D03*
X30180600Y58013600D03*
X32720600Y58013600D03*
%TD*%
D21*
%TO.C,Q3*%
X64501400Y64386800D03*
D22*
X65771400Y66456800D03*
X67041400Y64386800D03*
%TD*%
D23*
%TO.C,F1*%
X5041400Y79892800D03*
X5041400Y74892800D03*
D12*
X5041400Y64892800D03*
X5041400Y59892800D03*
%TD*%
D24*
%TO.C,J7*%
X57541400Y78352800D03*
D25*
X57541400Y80892800D03*
X60081400Y78352800D03*
X60081400Y80892800D03*
X62621400Y78352800D03*
X62621400Y80892800D03*
X65161400Y78352800D03*
X65161400Y80892800D03*
X67701400Y78352800D03*
X67701400Y80892800D03*
%TD*%
D14*
%TO.C,R10*%
X54076600Y90474800D03*
X54076600Y95554800D03*
%TD*%
%TO.C,R3*%
X44119800Y90373200D03*
X44119800Y95453200D03*
%TD*%
D18*
%TO.C,J4*%
X69041400Y28892800D03*
X69041400Y23892800D03*
%TD*%
D26*
%TO.C,C1*%
X21541400Y66392800D03*
D27*
X14041400Y66392800D03*
%TD*%
D28*
%TO.C,U1*%
X18531400Y76082800D03*
D17*
X21071400Y76082800D03*
X23611400Y76082800D03*
X26151400Y76082800D03*
X28691400Y76082800D03*
X31231400Y76082800D03*
X33771400Y76082800D03*
X36311400Y76082800D03*
X38851400Y76082800D03*
X41391400Y76082800D03*
X43931400Y76082800D03*
X46471400Y76082800D03*
X49011400Y76082800D03*
X51551400Y76082800D03*
X51551400Y83702800D03*
X49011400Y83702800D03*
X46471400Y83702800D03*
X43931400Y83702800D03*
X41391400Y83702800D03*
X38851400Y83702800D03*
X36311400Y83702800D03*
X33771400Y83702800D03*
X31231400Y83702800D03*
X28691400Y83702800D03*
X26151400Y83702800D03*
X23611400Y83702800D03*
X21071400Y83702800D03*
X18531400Y83702800D03*
%TD*%
D29*
%TO.C,U4*%
X36766400Y68292800D03*
X36766400Y67342800D03*
X36766400Y66392800D03*
X39041400Y66392800D03*
X39041400Y67342800D03*
X39041400Y68292800D03*
%TD*%
D21*
%TO.C,Q4*%
X53771400Y55722800D03*
D22*
X55041400Y57792800D03*
X56311400Y55722800D03*
%TD*%
D18*
%TO.C,J1*%
X59461400Y5805800D03*
X59461400Y10805800D03*
%TD*%
D14*
%TO.C,R17*%
X51541400Y65892800D03*
X51541400Y60812800D03*
%TD*%
D30*
%TO.C,L1*%
X39528900Y70892800D03*
X36553900Y70892800D03*
%TD*%
D31*
%TO.C,Q2*%
X56775400Y96774000D03*
D32*
X58845400Y95504000D03*
X56775400Y94234000D03*
%TD*%
D14*
%TO.C,R13*%
X27889200Y93853000D03*
X22809200Y93853000D03*
%TD*%
D31*
%TO.C,Q5*%
X64903400Y96824800D03*
D32*
X66973400Y95554800D03*
X64903400Y94284800D03*
%TD*%
D14*
%TO.C,R4*%
X33921400Y90352800D03*
X33921400Y95432800D03*
%TD*%
%TO.C,R11*%
X61696600Y90500200D03*
X61696600Y95580200D03*
%TD*%
%TO.C,R9*%
X31381400Y90352800D03*
X31381400Y95432800D03*
%TD*%
%TO.C,R14*%
X55001400Y65932800D03*
X55001400Y60852800D03*
%TD*%
%TO.C,R5*%
X41541400Y90352800D03*
X41541400Y95432800D03*
%TD*%
D33*
%TO.C,K1*%
X59544600Y24917400D03*
X52044600Y24917400D03*
X59544600Y29957400D03*
X52044600Y29957400D03*
X59544600Y19877400D03*
X52044600Y19877400D03*
D34*
X52044600Y45217400D03*
D35*
X59544600Y45217400D03*
%TD*%
D14*
%TO.C,R8*%
X57175400Y100300600D03*
X52095400Y100300600D03*
%TD*%
%TO.C,R7*%
X36461400Y90352800D03*
X36461400Y95432800D03*
%TD*%
D36*
%TO.C,C8*%
X41541400Y70967800D03*
X41541400Y68892800D03*
%TD*%
D19*
%TO.C,C10*%
X34503900Y71392800D03*
X32428900Y71392800D03*
%TD*%
D37*
%TO.C,J6*%
X66239900Y55392800D03*
D27*
X66239900Y58892800D03*
%TD*%
D28*
%TO.C,D1*%
X61032900Y52852800D03*
D17*
X61032900Y60472800D03*
%TD*%
D14*
%TO.C,R16*%
X57541400Y65932800D03*
X57541400Y60852800D03*
%TD*%
D26*
%TO.C,J5*%
X29738200Y100076000D03*
D27*
X26238200Y100076000D03*
X22738200Y100076000D03*
%TD*%
D14*
%TO.C,R12*%
X68046600Y86741000D03*
X68046600Y91821000D03*
%TD*%
D18*
%TO.C,J2*%
X12319000Y6009000D03*
X12319000Y11009000D03*
%TD*%
D31*
%TO.C,Q1*%
X49397400Y96824800D03*
D32*
X51467400Y95554800D03*
X49397400Y94284800D03*
%TD*%
D38*
%TO.C,U2*%
X44659800Y87482600D03*
D39*
X57359800Y87482600D03*
D38*
X54819800Y87482600D03*
X52279800Y87482600D03*
X49739800Y87482600D03*
X47199800Y87482600D03*
X44659800Y102722600D03*
X47199800Y102722600D03*
X49739800Y102722600D03*
X52279800Y102722600D03*
X54819800Y102722600D03*
X57359800Y102722600D03*
%TD*%
%TO.C,Y1*%
X53924200Y71018400D03*
X49044200Y71018400D03*
%TD*%
D40*
%TO.C,SW2*%
X5220400Y95682800D03*
X16420400Y95682800D03*
D12*
X13320400Y88182800D03*
X8320400Y88182800D03*
X10820400Y88182800D03*
X8320400Y102682800D03*
X13320400Y102682800D03*
%TD*%
M02*
