%TF.GenerationSoftware,KiCad,Pcbnew,10.0.0*%
%TF.CreationDate,2026-04-12T23:21:59+02:00*%
%TF.ProjectId,DymBOX_AVR,44796d42-4f58-45f4-9156-522e6b696361,rev?*%
%TF.SameCoordinates,Original*%
%TF.FileFunction,Legend,Top*%
%TF.FilePolarity,Positive*%
%FSLAX46Y46*%
G04 Gerber Fmt 4.6, Leading zero omitted, Abs format (unit mm)*
G04 Created by KiCad (PCBNEW 10.0.0) date 2026-04-12 23:21:59*
%MOMM*%
%LPD*%
G01*
G04 APERTURE LIST*
%ADD10C,0.100000*%
%ADD11C,0.250000*%
%ADD12C,0.150000*%
%ADD13C,0.120000*%
G04 APERTURE END LIST*
D10*
X74589027Y-153003466D02*
X74636646Y-152955847D01*
X74636646Y-152955847D02*
X74731884Y-152908228D01*
X74731884Y-152908228D02*
X74922360Y-153003466D01*
X74922360Y-153003466D02*
X75017598Y-152955847D01*
X75017598Y-152955847D02*
X75065217Y-152908228D01*
X76160456Y-152479657D02*
X76208075Y-152432038D01*
X76208075Y-152432038D02*
X76303313Y-152384419D01*
X76303313Y-152384419D02*
X76541408Y-152384419D01*
X76541408Y-152384419D02*
X76636646Y-152432038D01*
X76636646Y-152432038D02*
X76684265Y-152479657D01*
X76684265Y-152479657D02*
X76731884Y-152574895D01*
X76731884Y-152574895D02*
X76731884Y-152670133D01*
X76731884Y-152670133D02*
X76684265Y-152812990D01*
X76684265Y-152812990D02*
X76112837Y-153384419D01*
X76112837Y-153384419D02*
X76731884Y-153384419D01*
X77065218Y-152384419D02*
X77684265Y-152384419D01*
X77684265Y-152384419D02*
X77350932Y-152765371D01*
X77350932Y-152765371D02*
X77493789Y-152765371D01*
X77493789Y-152765371D02*
X77589027Y-152812990D01*
X77589027Y-152812990D02*
X77636646Y-152860609D01*
X77636646Y-152860609D02*
X77684265Y-152955847D01*
X77684265Y-152955847D02*
X77684265Y-153193942D01*
X77684265Y-153193942D02*
X77636646Y-153289180D01*
X77636646Y-153289180D02*
X77589027Y-153336800D01*
X77589027Y-153336800D02*
X77493789Y-153384419D01*
X77493789Y-153384419D02*
X77208075Y-153384419D01*
X77208075Y-153384419D02*
X77112837Y-153336800D01*
X77112837Y-153336800D02*
X77065218Y-153289180D01*
X78303313Y-152384419D02*
X78398551Y-152384419D01*
X78398551Y-152384419D02*
X78493789Y-152432038D01*
X78493789Y-152432038D02*
X78541408Y-152479657D01*
X78541408Y-152479657D02*
X78589027Y-152574895D01*
X78589027Y-152574895D02*
X78636646Y-152765371D01*
X78636646Y-152765371D02*
X78636646Y-153003466D01*
X78636646Y-153003466D02*
X78589027Y-153193942D01*
X78589027Y-153193942D02*
X78541408Y-153289180D01*
X78541408Y-153289180D02*
X78493789Y-153336800D01*
X78493789Y-153336800D02*
X78398551Y-153384419D01*
X78398551Y-153384419D02*
X78303313Y-153384419D01*
X78303313Y-153384419D02*
X78208075Y-153336800D01*
X78208075Y-153336800D02*
X78160456Y-153289180D01*
X78160456Y-153289180D02*
X78112837Y-153193942D01*
X78112837Y-153193942D02*
X78065218Y-153003466D01*
X78065218Y-153003466D02*
X78065218Y-152765371D01*
X78065218Y-152765371D02*
X78112837Y-152574895D01*
X78112837Y-152574895D02*
X78160456Y-152479657D01*
X78160456Y-152479657D02*
X78208075Y-152432038D01*
X78208075Y-152432038D02*
X78303313Y-152384419D01*
X79684266Y-152384419D02*
X80017599Y-153384419D01*
X80017599Y-153384419D02*
X80350932Y-152384419D01*
X50800419Y-95231925D02*
X50800419Y-95708115D01*
X50800419Y-95708115D02*
X51276609Y-95755734D01*
X51276609Y-95755734D02*
X51228990Y-95708115D01*
X51228990Y-95708115D02*
X51181371Y-95612877D01*
X51181371Y-95612877D02*
X51181371Y-95374782D01*
X51181371Y-95374782D02*
X51228990Y-95279544D01*
X51228990Y-95279544D02*
X51276609Y-95231925D01*
X51276609Y-95231925D02*
X51371847Y-95184306D01*
X51371847Y-95184306D02*
X51609942Y-95184306D01*
X51609942Y-95184306D02*
X51705180Y-95231925D01*
X51705180Y-95231925D02*
X51752800Y-95279544D01*
X51752800Y-95279544D02*
X51800419Y-95374782D01*
X51800419Y-95374782D02*
X51800419Y-95612877D01*
X51800419Y-95612877D02*
X51752800Y-95708115D01*
X51752800Y-95708115D02*
X51705180Y-95755734D01*
X50800419Y-94565258D02*
X50800419Y-94470020D01*
X50800419Y-94470020D02*
X50848038Y-94374782D01*
X50848038Y-94374782D02*
X50895657Y-94327163D01*
X50895657Y-94327163D02*
X50990895Y-94279544D01*
X50990895Y-94279544D02*
X51181371Y-94231925D01*
X51181371Y-94231925D02*
X51419466Y-94231925D01*
X51419466Y-94231925D02*
X51609942Y-94279544D01*
X51609942Y-94279544D02*
X51705180Y-94327163D01*
X51705180Y-94327163D02*
X51752800Y-94374782D01*
X51752800Y-94374782D02*
X51800419Y-94470020D01*
X51800419Y-94470020D02*
X51800419Y-94565258D01*
X51800419Y-94565258D02*
X51752800Y-94660496D01*
X51752800Y-94660496D02*
X51705180Y-94708115D01*
X51705180Y-94708115D02*
X51609942Y-94755734D01*
X51609942Y-94755734D02*
X51419466Y-94803353D01*
X51419466Y-94803353D02*
X51181371Y-94803353D01*
X51181371Y-94803353D02*
X50990895Y-94755734D01*
X50990895Y-94755734D02*
X50895657Y-94708115D01*
X50895657Y-94708115D02*
X50848038Y-94660496D01*
X50848038Y-94660496D02*
X50800419Y-94565258D01*
X50800419Y-93612877D02*
X50800419Y-93517639D01*
X50800419Y-93517639D02*
X50848038Y-93422401D01*
X50848038Y-93422401D02*
X50895657Y-93374782D01*
X50895657Y-93374782D02*
X50990895Y-93327163D01*
X50990895Y-93327163D02*
X51181371Y-93279544D01*
X51181371Y-93279544D02*
X51419466Y-93279544D01*
X51419466Y-93279544D02*
X51609942Y-93327163D01*
X51609942Y-93327163D02*
X51705180Y-93374782D01*
X51705180Y-93374782D02*
X51752800Y-93422401D01*
X51752800Y-93422401D02*
X51800419Y-93517639D01*
X51800419Y-93517639D02*
X51800419Y-93612877D01*
X51800419Y-93612877D02*
X51752800Y-93708115D01*
X51752800Y-93708115D02*
X51705180Y-93755734D01*
X51705180Y-93755734D02*
X51609942Y-93803353D01*
X51609942Y-93803353D02*
X51419466Y-93850972D01*
X51419466Y-93850972D02*
X51181371Y-93850972D01*
X51181371Y-93850972D02*
X50990895Y-93803353D01*
X50990895Y-93803353D02*
X50895657Y-93755734D01*
X50895657Y-93755734D02*
X50848038Y-93708115D01*
X50848038Y-93708115D02*
X50800419Y-93612877D01*
X51800419Y-92089067D02*
X51133752Y-92089067D01*
X51228990Y-92089067D02*
X51181371Y-92041448D01*
X51181371Y-92041448D02*
X51133752Y-91946210D01*
X51133752Y-91946210D02*
X51133752Y-91803353D01*
X51133752Y-91803353D02*
X51181371Y-91708115D01*
X51181371Y-91708115D02*
X51276609Y-91660496D01*
X51276609Y-91660496D02*
X51800419Y-91660496D01*
X51276609Y-91660496D02*
X51181371Y-91612877D01*
X51181371Y-91612877D02*
X51133752Y-91517639D01*
X51133752Y-91517639D02*
X51133752Y-91374782D01*
X51133752Y-91374782D02*
X51181371Y-91279543D01*
X51181371Y-91279543D02*
X51276609Y-91231924D01*
X51276609Y-91231924D02*
X51800419Y-91231924D01*
X51514704Y-90803353D02*
X51514704Y-90327163D01*
X51800419Y-90898591D02*
X50800419Y-90565258D01*
X50800419Y-90565258D02*
X51800419Y-90231925D01*
X118800419Y-149850972D02*
X118800419Y-149279544D01*
X119800419Y-149565258D02*
X118800419Y-149565258D01*
X119800419Y-148803353D02*
X119752800Y-148898591D01*
X119752800Y-148898591D02*
X119705180Y-148946210D01*
X119705180Y-148946210D02*
X119609942Y-148993829D01*
X119609942Y-148993829D02*
X119324228Y-148993829D01*
X119324228Y-148993829D02*
X119228990Y-148946210D01*
X119228990Y-148946210D02*
X119181371Y-148898591D01*
X119181371Y-148898591D02*
X119133752Y-148803353D01*
X119133752Y-148803353D02*
X119133752Y-148660496D01*
X119133752Y-148660496D02*
X119181371Y-148565258D01*
X119181371Y-148565258D02*
X119228990Y-148517639D01*
X119228990Y-148517639D02*
X119324228Y-148470020D01*
X119324228Y-148470020D02*
X119609942Y-148470020D01*
X119609942Y-148470020D02*
X119705180Y-148517639D01*
X119705180Y-148517639D02*
X119752800Y-148565258D01*
X119752800Y-148565258D02*
X119800419Y-148660496D01*
X119800419Y-148660496D02*
X119800419Y-148803353D01*
X119133752Y-148041448D02*
X120133752Y-148041448D01*
X119181371Y-148041448D02*
X119133752Y-147946210D01*
X119133752Y-147946210D02*
X119133752Y-147755734D01*
X119133752Y-147755734D02*
X119181371Y-147660496D01*
X119181371Y-147660496D02*
X119228990Y-147612877D01*
X119228990Y-147612877D02*
X119324228Y-147565258D01*
X119324228Y-147565258D02*
X119609942Y-147565258D01*
X119609942Y-147565258D02*
X119705180Y-147612877D01*
X119705180Y-147612877D02*
X119752800Y-147660496D01*
X119752800Y-147660496D02*
X119800419Y-147755734D01*
X119800419Y-147755734D02*
X119800419Y-147946210D01*
X119800419Y-147946210D02*
X119752800Y-148041448D01*
X119133752Y-147136686D02*
X119800419Y-147136686D01*
X119228990Y-147136686D02*
X119181371Y-147089067D01*
X119181371Y-147089067D02*
X119133752Y-146993829D01*
X119133752Y-146993829D02*
X119133752Y-146850972D01*
X119133752Y-146850972D02*
X119181371Y-146755734D01*
X119181371Y-146755734D02*
X119276609Y-146708115D01*
X119276609Y-146708115D02*
X119800419Y-146708115D01*
X119800419Y-145803353D02*
X119276609Y-145803353D01*
X119276609Y-145803353D02*
X119181371Y-145850972D01*
X119181371Y-145850972D02*
X119133752Y-145946210D01*
X119133752Y-145946210D02*
X119133752Y-146136686D01*
X119133752Y-146136686D02*
X119181371Y-146231924D01*
X119752800Y-145803353D02*
X119800419Y-145898591D01*
X119800419Y-145898591D02*
X119800419Y-146136686D01*
X119800419Y-146136686D02*
X119752800Y-146231924D01*
X119752800Y-146231924D02*
X119657561Y-146279543D01*
X119657561Y-146279543D02*
X119562323Y-146279543D01*
X119562323Y-146279543D02*
X119467085Y-146231924D01*
X119467085Y-146231924D02*
X119419466Y-146136686D01*
X119419466Y-146136686D02*
X119419466Y-145898591D01*
X119419466Y-145898591D02*
X119371847Y-145803353D01*
X118752800Y-145946210D02*
X118895657Y-146089067D01*
X119752800Y-144612876D02*
X119800419Y-144517638D01*
X119800419Y-144517638D02*
X119800419Y-144327162D01*
X119800419Y-144327162D02*
X119752800Y-144231924D01*
X119752800Y-144231924D02*
X119657561Y-144184305D01*
X119657561Y-144184305D02*
X119609942Y-144184305D01*
X119609942Y-144184305D02*
X119514704Y-144231924D01*
X119514704Y-144231924D02*
X119467085Y-144327162D01*
X119467085Y-144327162D02*
X119467085Y-144470019D01*
X119467085Y-144470019D02*
X119419466Y-144565257D01*
X119419466Y-144565257D02*
X119324228Y-144612876D01*
X119324228Y-144612876D02*
X119276609Y-144612876D01*
X119276609Y-144612876D02*
X119181371Y-144565257D01*
X119181371Y-144565257D02*
X119133752Y-144470019D01*
X119133752Y-144470019D02*
X119133752Y-144327162D01*
X119133752Y-144327162D02*
X119181371Y-144231924D01*
X119133752Y-143755733D02*
X120133752Y-143755733D01*
X119181371Y-143755733D02*
X119133752Y-143660495D01*
X119133752Y-143660495D02*
X119133752Y-143470019D01*
X119133752Y-143470019D02*
X119181371Y-143374781D01*
X119181371Y-143374781D02*
X119228990Y-143327162D01*
X119228990Y-143327162D02*
X119324228Y-143279543D01*
X119324228Y-143279543D02*
X119609942Y-143279543D01*
X119609942Y-143279543D02*
X119705180Y-143327162D01*
X119705180Y-143327162D02*
X119752800Y-143374781D01*
X119752800Y-143374781D02*
X119800419Y-143470019D01*
X119800419Y-143470019D02*
X119800419Y-143660495D01*
X119800419Y-143660495D02*
X119752800Y-143755733D01*
X119800419Y-142850971D02*
X119133752Y-142850971D01*
X118800419Y-142850971D02*
X118848038Y-142898590D01*
X118848038Y-142898590D02*
X118895657Y-142850971D01*
X118895657Y-142850971D02*
X118848038Y-142803352D01*
X118848038Y-142803352D02*
X118800419Y-142850971D01*
X118800419Y-142850971D02*
X118895657Y-142850971D01*
X119800419Y-142374781D02*
X119133752Y-142374781D01*
X119324228Y-142374781D02*
X119228990Y-142327162D01*
X119228990Y-142327162D02*
X119181371Y-142279543D01*
X119181371Y-142279543D02*
X119133752Y-142184305D01*
X119133752Y-142184305D02*
X119133752Y-142089067D01*
X119800419Y-141327162D02*
X119276609Y-141327162D01*
X119276609Y-141327162D02*
X119181371Y-141374781D01*
X119181371Y-141374781D02*
X119133752Y-141470019D01*
X119133752Y-141470019D02*
X119133752Y-141660495D01*
X119133752Y-141660495D02*
X119181371Y-141755733D01*
X119752800Y-141327162D02*
X119800419Y-141422400D01*
X119800419Y-141422400D02*
X119800419Y-141660495D01*
X119800419Y-141660495D02*
X119752800Y-141755733D01*
X119752800Y-141755733D02*
X119657561Y-141803352D01*
X119657561Y-141803352D02*
X119562323Y-141803352D01*
X119562323Y-141803352D02*
X119467085Y-141755733D01*
X119467085Y-141755733D02*
X119419466Y-141660495D01*
X119419466Y-141660495D02*
X119419466Y-141422400D01*
X119419466Y-141422400D02*
X119371847Y-141327162D01*
X118752800Y-141470019D02*
X118895657Y-141612876D01*
X119800419Y-140708114D02*
X119752800Y-140803352D01*
X119752800Y-140803352D02*
X119657561Y-140850971D01*
X119657561Y-140850971D02*
X118800419Y-140850971D01*
X119800419Y-139898590D02*
X119276609Y-139898590D01*
X119276609Y-139898590D02*
X119181371Y-139946209D01*
X119181371Y-139946209D02*
X119133752Y-140041447D01*
X119133752Y-140041447D02*
X119133752Y-140231923D01*
X119133752Y-140231923D02*
X119181371Y-140327161D01*
X119752800Y-139898590D02*
X119800419Y-139993828D01*
X119800419Y-139993828D02*
X119800419Y-140231923D01*
X119800419Y-140231923D02*
X119752800Y-140327161D01*
X119752800Y-140327161D02*
X119657561Y-140374780D01*
X119657561Y-140374780D02*
X119562323Y-140374780D01*
X119562323Y-140374780D02*
X119467085Y-140327161D01*
X119467085Y-140327161D02*
X119419466Y-140231923D01*
X119419466Y-140231923D02*
X119419466Y-139993828D01*
X119419466Y-139993828D02*
X119371847Y-139898590D01*
X119919466Y-128350972D02*
X119871847Y-128303353D01*
X119871847Y-128303353D02*
X119824228Y-128208115D01*
X119824228Y-128208115D02*
X119919466Y-128017639D01*
X119919466Y-128017639D02*
X119871847Y-127922401D01*
X119871847Y-127922401D02*
X119824228Y-127874782D01*
X119395657Y-126779543D02*
X119348038Y-126731924D01*
X119348038Y-126731924D02*
X119300419Y-126636686D01*
X119300419Y-126636686D02*
X119300419Y-126398591D01*
X119300419Y-126398591D02*
X119348038Y-126303353D01*
X119348038Y-126303353D02*
X119395657Y-126255734D01*
X119395657Y-126255734D02*
X119490895Y-126208115D01*
X119490895Y-126208115D02*
X119586133Y-126208115D01*
X119586133Y-126208115D02*
X119728990Y-126255734D01*
X119728990Y-126255734D02*
X120300419Y-126827162D01*
X120300419Y-126827162D02*
X120300419Y-126208115D01*
X119300419Y-125874781D02*
X119300419Y-125255734D01*
X119300419Y-125255734D02*
X119681371Y-125589067D01*
X119681371Y-125589067D02*
X119681371Y-125446210D01*
X119681371Y-125446210D02*
X119728990Y-125350972D01*
X119728990Y-125350972D02*
X119776609Y-125303353D01*
X119776609Y-125303353D02*
X119871847Y-125255734D01*
X119871847Y-125255734D02*
X120109942Y-125255734D01*
X120109942Y-125255734D02*
X120205180Y-125303353D01*
X120205180Y-125303353D02*
X120252800Y-125350972D01*
X120252800Y-125350972D02*
X120300419Y-125446210D01*
X120300419Y-125446210D02*
X120300419Y-125731924D01*
X120300419Y-125731924D02*
X120252800Y-125827162D01*
X120252800Y-125827162D02*
X120205180Y-125874781D01*
X119300419Y-124636686D02*
X119300419Y-124541448D01*
X119300419Y-124541448D02*
X119348038Y-124446210D01*
X119348038Y-124446210D02*
X119395657Y-124398591D01*
X119395657Y-124398591D02*
X119490895Y-124350972D01*
X119490895Y-124350972D02*
X119681371Y-124303353D01*
X119681371Y-124303353D02*
X119919466Y-124303353D01*
X119919466Y-124303353D02*
X120109942Y-124350972D01*
X120109942Y-124350972D02*
X120205180Y-124398591D01*
X120205180Y-124398591D02*
X120252800Y-124446210D01*
X120252800Y-124446210D02*
X120300419Y-124541448D01*
X120300419Y-124541448D02*
X120300419Y-124636686D01*
X120300419Y-124636686D02*
X120252800Y-124731924D01*
X120252800Y-124731924D02*
X120205180Y-124779543D01*
X120205180Y-124779543D02*
X120109942Y-124827162D01*
X120109942Y-124827162D02*
X119919466Y-124874781D01*
X119919466Y-124874781D02*
X119681371Y-124874781D01*
X119681371Y-124874781D02*
X119490895Y-124827162D01*
X119490895Y-124827162D02*
X119395657Y-124779543D01*
X119395657Y-124779543D02*
X119348038Y-124731924D01*
X119348038Y-124731924D02*
X119300419Y-124636686D01*
X119300419Y-123255733D02*
X120300419Y-122922400D01*
X120300419Y-122922400D02*
X119300419Y-122589067D01*
D11*
X109197299Y-94120422D02*
X109197299Y-94691850D01*
X109197299Y-94406136D02*
X108197299Y-94406136D01*
X108197299Y-94406136D02*
X108340156Y-94501374D01*
X108340156Y-94501374D02*
X108435394Y-94596612D01*
X108435394Y-94596612D02*
X108483013Y-94691850D01*
X108816346Y-93691850D02*
X108816346Y-92929946D01*
X109197299Y-92453755D02*
X108197299Y-92453755D01*
X108197299Y-92453755D02*
X108911584Y-92120422D01*
X108911584Y-92120422D02*
X108197299Y-91787089D01*
X108197299Y-91787089D02*
X109197299Y-91787089D01*
X108197299Y-91120422D02*
X108197299Y-90929946D01*
X108197299Y-90929946D02*
X108244918Y-90834708D01*
X108244918Y-90834708D02*
X108340156Y-90739470D01*
X108340156Y-90739470D02*
X108530632Y-90691851D01*
X108530632Y-90691851D02*
X108863965Y-90691851D01*
X108863965Y-90691851D02*
X109054441Y-90739470D01*
X109054441Y-90739470D02*
X109149680Y-90834708D01*
X109149680Y-90834708D02*
X109197299Y-90929946D01*
X109197299Y-90929946D02*
X109197299Y-91120422D01*
X109197299Y-91120422D02*
X109149680Y-91215660D01*
X109149680Y-91215660D02*
X109054441Y-91310898D01*
X109054441Y-91310898D02*
X108863965Y-91358517D01*
X108863965Y-91358517D02*
X108530632Y-91358517D01*
X108530632Y-91358517D02*
X108340156Y-91310898D01*
X108340156Y-91310898D02*
X108244918Y-91215660D01*
X108244918Y-91215660D02*
X108197299Y-91120422D01*
X109149680Y-90310898D02*
X109197299Y-90168041D01*
X109197299Y-90168041D02*
X109197299Y-89929946D01*
X109197299Y-89929946D02*
X109149680Y-89834708D01*
X109149680Y-89834708D02*
X109102060Y-89787089D01*
X109102060Y-89787089D02*
X109006822Y-89739470D01*
X109006822Y-89739470D02*
X108911584Y-89739470D01*
X108911584Y-89739470D02*
X108816346Y-89787089D01*
X108816346Y-89787089D02*
X108768727Y-89834708D01*
X108768727Y-89834708D02*
X108721108Y-89929946D01*
X108721108Y-89929946D02*
X108673489Y-90120422D01*
X108673489Y-90120422D02*
X108625870Y-90215660D01*
X108625870Y-90215660D02*
X108578251Y-90263279D01*
X108578251Y-90263279D02*
X108483013Y-90310898D01*
X108483013Y-90310898D02*
X108387775Y-90310898D01*
X108387775Y-90310898D02*
X108292537Y-90263279D01*
X108292537Y-90263279D02*
X108244918Y-90215660D01*
X108244918Y-90215660D02*
X108197299Y-90120422D01*
X108197299Y-90120422D02*
X108197299Y-89882327D01*
X108197299Y-89882327D02*
X108244918Y-89739470D01*
X109197299Y-89310898D02*
X108197299Y-89310898D01*
X109902481Y-94691850D02*
X109854862Y-94644231D01*
X109854862Y-94644231D02*
X109807243Y-94548993D01*
X109807243Y-94548993D02*
X109807243Y-94310898D01*
X109807243Y-94310898D02*
X109854862Y-94215660D01*
X109854862Y-94215660D02*
X109902481Y-94168041D01*
X109902481Y-94168041D02*
X109997719Y-94120422D01*
X109997719Y-94120422D02*
X110092957Y-94120422D01*
X110092957Y-94120422D02*
X110235814Y-94168041D01*
X110235814Y-94168041D02*
X110807243Y-94739469D01*
X110807243Y-94739469D02*
X110807243Y-94120422D01*
X110426290Y-93691850D02*
X110426290Y-92929946D01*
X109807243Y-91977565D02*
X109807243Y-92453755D01*
X109807243Y-92453755D02*
X110283433Y-92501374D01*
X110283433Y-92501374D02*
X110235814Y-92453755D01*
X110235814Y-92453755D02*
X110188195Y-92358517D01*
X110188195Y-92358517D02*
X110188195Y-92120422D01*
X110188195Y-92120422D02*
X110235814Y-92025184D01*
X110235814Y-92025184D02*
X110283433Y-91977565D01*
X110283433Y-91977565D02*
X110378671Y-91929946D01*
X110378671Y-91929946D02*
X110616766Y-91929946D01*
X110616766Y-91929946D02*
X110712004Y-91977565D01*
X110712004Y-91977565D02*
X110759624Y-92025184D01*
X110759624Y-92025184D02*
X110807243Y-92120422D01*
X110807243Y-92120422D02*
X110807243Y-92358517D01*
X110807243Y-92358517D02*
X110759624Y-92453755D01*
X110759624Y-92453755D02*
X110712004Y-92501374D01*
X109807243Y-91644231D02*
X110807243Y-91310898D01*
X110807243Y-91310898D02*
X109807243Y-90977565D01*
X111417187Y-94168041D02*
X111417187Y-94644231D01*
X111417187Y-94644231D02*
X111893377Y-94691850D01*
X111893377Y-94691850D02*
X111845758Y-94644231D01*
X111845758Y-94644231D02*
X111798139Y-94548993D01*
X111798139Y-94548993D02*
X111798139Y-94310898D01*
X111798139Y-94310898D02*
X111845758Y-94215660D01*
X111845758Y-94215660D02*
X111893377Y-94168041D01*
X111893377Y-94168041D02*
X111988615Y-94120422D01*
X111988615Y-94120422D02*
X112226710Y-94120422D01*
X112226710Y-94120422D02*
X112321948Y-94168041D01*
X112321948Y-94168041D02*
X112369568Y-94215660D01*
X112369568Y-94215660D02*
X112417187Y-94310898D01*
X112417187Y-94310898D02*
X112417187Y-94548993D01*
X112417187Y-94548993D02*
X112369568Y-94644231D01*
X112369568Y-94644231D02*
X112321948Y-94691850D01*
X112036234Y-93691850D02*
X112036234Y-92929946D01*
X112417187Y-91882327D02*
X111940996Y-92215660D01*
X112417187Y-92453755D02*
X111417187Y-92453755D01*
X111417187Y-92453755D02*
X111417187Y-92072803D01*
X111417187Y-92072803D02*
X111464806Y-91977565D01*
X111464806Y-91977565D02*
X111512425Y-91929946D01*
X111512425Y-91929946D02*
X111607663Y-91882327D01*
X111607663Y-91882327D02*
X111750520Y-91882327D01*
X111750520Y-91882327D02*
X111845758Y-91929946D01*
X111845758Y-91929946D02*
X111893377Y-91977565D01*
X111893377Y-91977565D02*
X111940996Y-92072803D01*
X111940996Y-92072803D02*
X111940996Y-92453755D01*
X112369568Y-91501374D02*
X112417187Y-91358517D01*
X112417187Y-91358517D02*
X112417187Y-91120422D01*
X112417187Y-91120422D02*
X112369568Y-91025184D01*
X112369568Y-91025184D02*
X112321948Y-90977565D01*
X112321948Y-90977565D02*
X112226710Y-90929946D01*
X112226710Y-90929946D02*
X112131472Y-90929946D01*
X112131472Y-90929946D02*
X112036234Y-90977565D01*
X112036234Y-90977565D02*
X111988615Y-91025184D01*
X111988615Y-91025184D02*
X111940996Y-91120422D01*
X111940996Y-91120422D02*
X111893377Y-91310898D01*
X111893377Y-91310898D02*
X111845758Y-91406136D01*
X111845758Y-91406136D02*
X111798139Y-91453755D01*
X111798139Y-91453755D02*
X111702901Y-91501374D01*
X111702901Y-91501374D02*
X111607663Y-91501374D01*
X111607663Y-91501374D02*
X111512425Y-91453755D01*
X111512425Y-91453755D02*
X111464806Y-91406136D01*
X111464806Y-91406136D02*
X111417187Y-91310898D01*
X111417187Y-91310898D02*
X111417187Y-91072803D01*
X111417187Y-91072803D02*
X111464806Y-90929946D01*
X111417187Y-90644231D02*
X111417187Y-90072803D01*
X112417187Y-90358517D02*
X111417187Y-90358517D01*
X113027131Y-94739469D02*
X113027131Y-94072803D01*
X113027131Y-94072803D02*
X114027131Y-94501374D01*
X113646178Y-93691850D02*
X113646178Y-92929946D01*
X113979512Y-92501374D02*
X114027131Y-92358517D01*
X114027131Y-92358517D02*
X114027131Y-92120422D01*
X114027131Y-92120422D02*
X113979512Y-92025184D01*
X113979512Y-92025184D02*
X113931892Y-91977565D01*
X113931892Y-91977565D02*
X113836654Y-91929946D01*
X113836654Y-91929946D02*
X113741416Y-91929946D01*
X113741416Y-91929946D02*
X113646178Y-91977565D01*
X113646178Y-91977565D02*
X113598559Y-92025184D01*
X113598559Y-92025184D02*
X113550940Y-92120422D01*
X113550940Y-92120422D02*
X113503321Y-92310898D01*
X113503321Y-92310898D02*
X113455702Y-92406136D01*
X113455702Y-92406136D02*
X113408083Y-92453755D01*
X113408083Y-92453755D02*
X113312845Y-92501374D01*
X113312845Y-92501374D02*
X113217607Y-92501374D01*
X113217607Y-92501374D02*
X113122369Y-92453755D01*
X113122369Y-92453755D02*
X113074750Y-92406136D01*
X113074750Y-92406136D02*
X113027131Y-92310898D01*
X113027131Y-92310898D02*
X113027131Y-92072803D01*
X113027131Y-92072803D02*
X113074750Y-91929946D01*
X113931892Y-90929946D02*
X113979512Y-90977565D01*
X113979512Y-90977565D02*
X114027131Y-91120422D01*
X114027131Y-91120422D02*
X114027131Y-91215660D01*
X114027131Y-91215660D02*
X113979512Y-91358517D01*
X113979512Y-91358517D02*
X113884273Y-91453755D01*
X113884273Y-91453755D02*
X113789035Y-91501374D01*
X113789035Y-91501374D02*
X113598559Y-91548993D01*
X113598559Y-91548993D02*
X113455702Y-91548993D01*
X113455702Y-91548993D02*
X113265226Y-91501374D01*
X113265226Y-91501374D02*
X113169988Y-91453755D01*
X113169988Y-91453755D02*
X113074750Y-91358517D01*
X113074750Y-91358517D02*
X113027131Y-91215660D01*
X113027131Y-91215660D02*
X113027131Y-91120422D01*
X113027131Y-91120422D02*
X113074750Y-90977565D01*
X113074750Y-90977565D02*
X113122369Y-90929946D01*
X114027131Y-90501374D02*
X113027131Y-90501374D01*
X114027131Y-89929946D02*
X113455702Y-90358517D01*
X113027131Y-89929946D02*
X113598559Y-90501374D01*
X115637075Y-94596612D02*
X115637075Y-94406136D01*
X115637075Y-94406136D02*
X115589456Y-94310898D01*
X115589456Y-94310898D02*
X115541836Y-94263279D01*
X115541836Y-94263279D02*
X115398979Y-94168041D01*
X115398979Y-94168041D02*
X115208503Y-94120422D01*
X115208503Y-94120422D02*
X114827551Y-94120422D01*
X114827551Y-94120422D02*
X114732313Y-94168041D01*
X114732313Y-94168041D02*
X114684694Y-94215660D01*
X114684694Y-94215660D02*
X114637075Y-94310898D01*
X114637075Y-94310898D02*
X114637075Y-94501374D01*
X114637075Y-94501374D02*
X114684694Y-94596612D01*
X114684694Y-94596612D02*
X114732313Y-94644231D01*
X114732313Y-94644231D02*
X114827551Y-94691850D01*
X114827551Y-94691850D02*
X115065646Y-94691850D01*
X115065646Y-94691850D02*
X115160884Y-94644231D01*
X115160884Y-94644231D02*
X115208503Y-94596612D01*
X115208503Y-94596612D02*
X115256122Y-94501374D01*
X115256122Y-94501374D02*
X115256122Y-94310898D01*
X115256122Y-94310898D02*
X115208503Y-94215660D01*
X115208503Y-94215660D02*
X115160884Y-94168041D01*
X115160884Y-94168041D02*
X115065646Y-94120422D01*
X115256122Y-93691850D02*
X115256122Y-92929946D01*
X115637075Y-92453755D02*
X114637075Y-92453755D01*
X114637075Y-92453755D02*
X115351360Y-92120422D01*
X115351360Y-92120422D02*
X114637075Y-91787089D01*
X114637075Y-91787089D02*
X115637075Y-91787089D01*
X115637075Y-91310898D02*
X114637075Y-91310898D01*
X115589456Y-90882327D02*
X115637075Y-90739470D01*
X115637075Y-90739470D02*
X115637075Y-90501375D01*
X115637075Y-90501375D02*
X115589456Y-90406137D01*
X115589456Y-90406137D02*
X115541836Y-90358518D01*
X115541836Y-90358518D02*
X115446598Y-90310899D01*
X115446598Y-90310899D02*
X115351360Y-90310899D01*
X115351360Y-90310899D02*
X115256122Y-90358518D01*
X115256122Y-90358518D02*
X115208503Y-90406137D01*
X115208503Y-90406137D02*
X115160884Y-90501375D01*
X115160884Y-90501375D02*
X115113265Y-90691851D01*
X115113265Y-90691851D02*
X115065646Y-90787089D01*
X115065646Y-90787089D02*
X115018027Y-90834708D01*
X115018027Y-90834708D02*
X114922789Y-90882327D01*
X114922789Y-90882327D02*
X114827551Y-90882327D01*
X114827551Y-90882327D02*
X114732313Y-90834708D01*
X114732313Y-90834708D02*
X114684694Y-90787089D01*
X114684694Y-90787089D02*
X114637075Y-90691851D01*
X114637075Y-90691851D02*
X114637075Y-90453756D01*
X114637075Y-90453756D02*
X114684694Y-90310899D01*
X114637075Y-89691851D02*
X114637075Y-89501375D01*
X114637075Y-89501375D02*
X114684694Y-89406137D01*
X114684694Y-89406137D02*
X114779932Y-89310899D01*
X114779932Y-89310899D02*
X114970408Y-89263280D01*
X114970408Y-89263280D02*
X115303741Y-89263280D01*
X115303741Y-89263280D02*
X115494217Y-89310899D01*
X115494217Y-89310899D02*
X115589456Y-89406137D01*
X115589456Y-89406137D02*
X115637075Y-89501375D01*
X115637075Y-89501375D02*
X115637075Y-89691851D01*
X115637075Y-89691851D02*
X115589456Y-89787089D01*
X115589456Y-89787089D02*
X115494217Y-89882327D01*
X115494217Y-89882327D02*
X115303741Y-89929946D01*
X115303741Y-89929946D02*
X114970408Y-89929946D01*
X114970408Y-89929946D02*
X114779932Y-89882327D01*
X114779932Y-89882327D02*
X114684694Y-89787089D01*
X114684694Y-89787089D02*
X114637075Y-89691851D01*
X117247019Y-94120422D02*
X117247019Y-94691850D01*
X117247019Y-94406136D02*
X116247019Y-94406136D01*
X116247019Y-94406136D02*
X116389876Y-94501374D01*
X116389876Y-94501374D02*
X116485114Y-94596612D01*
X116485114Y-94596612D02*
X116532733Y-94691850D01*
X116247019Y-93501374D02*
X116247019Y-93406136D01*
X116247019Y-93406136D02*
X116294638Y-93310898D01*
X116294638Y-93310898D02*
X116342257Y-93263279D01*
X116342257Y-93263279D02*
X116437495Y-93215660D01*
X116437495Y-93215660D02*
X116627971Y-93168041D01*
X116627971Y-93168041D02*
X116866066Y-93168041D01*
X116866066Y-93168041D02*
X117056542Y-93215660D01*
X117056542Y-93215660D02*
X117151780Y-93263279D01*
X117151780Y-93263279D02*
X117199400Y-93310898D01*
X117199400Y-93310898D02*
X117247019Y-93406136D01*
X117247019Y-93406136D02*
X117247019Y-93501374D01*
X117247019Y-93501374D02*
X117199400Y-93596612D01*
X117199400Y-93596612D02*
X117151780Y-93644231D01*
X117151780Y-93644231D02*
X117056542Y-93691850D01*
X117056542Y-93691850D02*
X116866066Y-93739469D01*
X116866066Y-93739469D02*
X116627971Y-93739469D01*
X116627971Y-93739469D02*
X116437495Y-93691850D01*
X116437495Y-93691850D02*
X116342257Y-93644231D01*
X116342257Y-93644231D02*
X116294638Y-93596612D01*
X116294638Y-93596612D02*
X116247019Y-93501374D01*
X116866066Y-92739469D02*
X116866066Y-91977565D01*
X116294638Y-90977565D02*
X116247019Y-91072803D01*
X116247019Y-91072803D02*
X116247019Y-91215660D01*
X116247019Y-91215660D02*
X116294638Y-91358517D01*
X116294638Y-91358517D02*
X116389876Y-91453755D01*
X116389876Y-91453755D02*
X116485114Y-91501374D01*
X116485114Y-91501374D02*
X116675590Y-91548993D01*
X116675590Y-91548993D02*
X116818447Y-91548993D01*
X116818447Y-91548993D02*
X117008923Y-91501374D01*
X117008923Y-91501374D02*
X117104161Y-91453755D01*
X117104161Y-91453755D02*
X117199400Y-91358517D01*
X117199400Y-91358517D02*
X117247019Y-91215660D01*
X117247019Y-91215660D02*
X117247019Y-91120422D01*
X117247019Y-91120422D02*
X117199400Y-90977565D01*
X117199400Y-90977565D02*
X117151780Y-90929946D01*
X117151780Y-90929946D02*
X116818447Y-90929946D01*
X116818447Y-90929946D02*
X116818447Y-91120422D01*
X117247019Y-90501374D02*
X116247019Y-90501374D01*
X116247019Y-90501374D02*
X117247019Y-89929946D01*
X117247019Y-89929946D02*
X116247019Y-89929946D01*
X117247019Y-89453755D02*
X116247019Y-89453755D01*
X116247019Y-89453755D02*
X116247019Y-89215660D01*
X116247019Y-89215660D02*
X116294638Y-89072803D01*
X116294638Y-89072803D02*
X116389876Y-88977565D01*
X116389876Y-88977565D02*
X116485114Y-88929946D01*
X116485114Y-88929946D02*
X116675590Y-88882327D01*
X116675590Y-88882327D02*
X116818447Y-88882327D01*
X116818447Y-88882327D02*
X117008923Y-88929946D01*
X117008923Y-88929946D02*
X117104161Y-88977565D01*
X117104161Y-88977565D02*
X117199400Y-89072803D01*
X117199400Y-89072803D02*
X117247019Y-89215660D01*
X117247019Y-89215660D02*
X117247019Y-89453755D01*
G36*
X69802598Y-61602800D02*
G01*
X69547975Y-60574537D01*
X69720044Y-60574537D01*
X69869704Y-61260066D01*
X69883687Y-61323752D01*
X69897731Y-61385973D01*
X69911653Y-61323752D01*
X69925697Y-61260066D01*
X70075356Y-60574537D01*
X70247487Y-60574537D01*
X69992863Y-61602800D01*
X69802598Y-61602800D01*
G37*
G36*
X70661356Y-61446118D02*
G01*
X70661356Y-61191495D01*
X70430547Y-61191495D01*
X70430547Y-61062779D01*
X70661356Y-61062779D01*
X70661356Y-60808155D01*
X70812481Y-60808155D01*
X70812481Y-61062779D01*
X71043291Y-61062779D01*
X71043291Y-61191495D01*
X70812481Y-61191495D01*
X70812481Y-61446118D01*
X70661356Y-61446118D01*
G37*
G36*
X72016974Y-60493146D02*
G01*
X72059849Y-60501750D01*
X72100945Y-60515788D01*
X72140148Y-60534655D01*
X72177295Y-60557773D01*
X72243607Y-60614853D01*
X72296510Y-60683656D01*
X72336004Y-60760885D01*
X72364508Y-60844050D01*
X72382972Y-60929633D01*
X72392205Y-61016095D01*
X72394769Y-61103363D01*
X72392205Y-61192389D01*
X72382972Y-61278851D01*
X72364508Y-61364434D01*
X72336004Y-61447525D01*
X72296510Y-61524755D01*
X72243607Y-61593631D01*
X72177295Y-61650711D01*
X72100945Y-61692696D01*
X72059849Y-61706734D01*
X72016974Y-61715338D01*
X71929706Y-61721200D01*
X71645994Y-61721200D01*
X71645994Y-61551646D01*
X71845736Y-61551646D01*
X71929706Y-61551646D01*
X71986786Y-61545784D01*
X72014435Y-61537422D01*
X72040495Y-61523949D01*
X72085851Y-61487019D01*
X72121095Y-61441664D01*
X72147913Y-61390519D01*
X72168063Y-61335125D01*
X72181545Y-61278045D01*
X72189898Y-61220966D01*
X72194075Y-61163007D01*
X72194954Y-61105048D01*
X72194075Y-61045477D01*
X72189898Y-60987592D01*
X72181545Y-60930512D01*
X72168063Y-60873433D01*
X72147913Y-60818038D01*
X72121095Y-60766821D01*
X72085851Y-60721465D01*
X72040495Y-60684535D01*
X72014435Y-60671062D01*
X71986786Y-60662700D01*
X71929706Y-60656838D01*
X71845736Y-60656838D01*
X71845736Y-61551646D01*
X71645994Y-61551646D01*
X71645994Y-60487285D01*
X71929706Y-60487285D01*
X72016974Y-60493146D01*
G37*
G36*
X72921674Y-61721200D02*
G01*
X72921674Y-60656838D01*
X72642944Y-60656838D01*
X72642944Y-60487285D01*
X73398461Y-60487285D01*
X73398461Y-60656838D01*
X73119731Y-60656838D01*
X73119731Y-61721200D01*
X72921674Y-61721200D01*
G37*
G36*
X74953336Y-61734608D02*
G01*
X74853465Y-61726182D01*
X74805029Y-61714274D01*
X74758577Y-61695188D01*
X74715628Y-61669208D01*
X74677171Y-61636423D01*
X74644386Y-61597965D01*
X74618406Y-61555017D01*
X74599302Y-61508566D01*
X74587338Y-61460128D01*
X74578985Y-61360257D01*
X74578985Y-60848227D01*
X74587338Y-60748356D01*
X74599489Y-60699959D01*
X74619212Y-60653467D01*
X74645872Y-60610428D01*
X74678783Y-60572061D01*
X74717108Y-60539226D01*
X74759383Y-60513296D01*
X74805259Y-60494248D01*
X74854271Y-60482229D01*
X74955021Y-60473802D01*
X75048151Y-60480544D01*
X75093691Y-60490004D01*
X75137984Y-60504943D01*
X75179957Y-60525471D01*
X75218584Y-60551911D01*
X75252594Y-60583855D01*
X75280646Y-60620788D01*
X75302687Y-60661662D01*
X75318455Y-60705564D01*
X75327907Y-60751273D01*
X75331058Y-60797815D01*
X75331058Y-60804556D01*
X75131316Y-60804556D01*
X75131316Y-60801186D01*
X75128181Y-60768131D01*
X75118713Y-60735753D01*
X75102728Y-60706311D01*
X75080098Y-60682044D01*
X75052386Y-60663553D01*
X75021333Y-60651782D01*
X74955021Y-60643356D01*
X74916980Y-60647117D01*
X74879477Y-60658523D01*
X74845750Y-60677521D01*
X74819027Y-60703879D01*
X74799303Y-60735922D01*
X74787080Y-60771876D01*
X74778727Y-60848227D01*
X74778727Y-61360257D01*
X74787080Y-61436681D01*
X74799297Y-61472584D01*
X74819027Y-61504678D01*
X74845603Y-61531035D01*
X74878598Y-61549961D01*
X74915406Y-61561294D01*
X74953336Y-61565055D01*
X74991255Y-61561293D01*
X75028001Y-61549961D01*
X75061057Y-61531030D01*
X75087645Y-61504678D01*
X75107358Y-61472583D01*
X75119519Y-61436681D01*
X75127945Y-61360257D01*
X75127945Y-61205798D01*
X74960077Y-61205798D01*
X74960077Y-61037930D01*
X75327687Y-61037930D01*
X75327687Y-61360257D01*
X75319261Y-61460128D01*
X75307352Y-61508565D01*
X75288266Y-61555017D01*
X75262286Y-61597965D01*
X75229501Y-61636423D01*
X75191032Y-61669203D01*
X75148022Y-61695188D01*
X75101632Y-61714271D01*
X75053207Y-61726182D01*
X74953336Y-61734608D01*
G37*
G36*
X75599456Y-61721200D02*
G01*
X75599456Y-60487285D01*
X75810995Y-60487285D01*
X76165196Y-61407225D01*
X76152593Y-61301493D01*
X76142554Y-61194881D01*
X76136693Y-61088269D01*
X76135007Y-60980851D01*
X76135007Y-60487285D01*
X76334749Y-60487285D01*
X76334749Y-61721200D01*
X76123210Y-61721200D01*
X75769009Y-60801186D01*
X75781612Y-60906992D01*
X75791651Y-61013604D01*
X75797513Y-61120216D01*
X75799198Y-61227634D01*
X75799198Y-61721200D01*
X75599456Y-61721200D01*
G37*
G36*
X76977499Y-60493146D02*
G01*
X77020373Y-60501750D01*
X77061469Y-60515788D01*
X77100672Y-60534655D01*
X77137820Y-60557773D01*
X77204132Y-60614853D01*
X77257035Y-60683656D01*
X77296529Y-60760885D01*
X77325032Y-60844050D01*
X77343496Y-60929633D01*
X77352729Y-61016095D01*
X77355293Y-61103363D01*
X77352729Y-61192389D01*
X77343496Y-61278851D01*
X77325032Y-61364434D01*
X77296529Y-61447525D01*
X77257035Y-61524755D01*
X77204132Y-61593631D01*
X77137820Y-61650711D01*
X77061469Y-61692696D01*
X77020373Y-61706734D01*
X76977499Y-61715338D01*
X76890231Y-61721200D01*
X76606518Y-61721200D01*
X76606518Y-61551646D01*
X76806260Y-61551646D01*
X76890231Y-61551646D01*
X76947310Y-61545784D01*
X76974959Y-61537422D01*
X77001019Y-61523949D01*
X77046375Y-61487019D01*
X77081619Y-61441664D01*
X77108437Y-61390519D01*
X77128587Y-61335125D01*
X77142069Y-61278045D01*
X77150423Y-61220966D01*
X77154599Y-61163007D01*
X77155478Y-61105048D01*
X77154599Y-61045477D01*
X77150423Y-60987592D01*
X77142069Y-60930512D01*
X77128587Y-60873433D01*
X77108437Y-60818038D01*
X77081619Y-60766821D01*
X77046375Y-60721465D01*
X77001019Y-60684535D01*
X76974959Y-60671062D01*
X76947310Y-60662700D01*
X76890231Y-60656838D01*
X76806260Y-60656838D01*
X76806260Y-61551646D01*
X76606518Y-61551646D01*
X76606518Y-60487285D01*
X76890231Y-60487285D01*
X76977499Y-60493146D01*
G37*
G36*
X69908518Y-57493533D02*
G01*
X69962112Y-57504288D01*
X70013481Y-57521835D01*
X70062485Y-57545419D01*
X70108919Y-57574317D01*
X70191809Y-57645666D01*
X70257938Y-57731670D01*
X70307306Y-57828207D01*
X70342935Y-57932163D01*
X70366015Y-58039141D01*
X70377556Y-58147219D01*
X70380762Y-58256304D01*
X70377556Y-58367587D01*
X70366015Y-58475664D01*
X70342935Y-58582643D01*
X70307306Y-58686507D01*
X70257938Y-58783044D01*
X70191809Y-58869139D01*
X70108919Y-58940489D01*
X70013481Y-58992971D01*
X69962112Y-59010517D01*
X69908518Y-59021272D01*
X69799433Y-59028600D01*
X69444793Y-59028600D01*
X69444793Y-58816658D01*
X69694470Y-58816658D01*
X69799433Y-58816658D01*
X69870783Y-58809330D01*
X69905343Y-58798877D01*
X69937919Y-58782036D01*
X69994614Y-58735874D01*
X70038669Y-58679180D01*
X70072191Y-58615249D01*
X70097379Y-58546006D01*
X70114232Y-58474657D01*
X70124673Y-58403307D01*
X70129894Y-58330859D01*
X70130993Y-58258410D01*
X70129894Y-58183947D01*
X70124673Y-58111590D01*
X70114232Y-58040240D01*
X70097379Y-57968891D01*
X70072191Y-57899648D01*
X70038669Y-57835626D01*
X69994614Y-57778931D01*
X69937919Y-57732769D01*
X69905343Y-57715928D01*
X69870783Y-57705475D01*
X69799433Y-57698148D01*
X69694470Y-57698148D01*
X69694470Y-58816658D01*
X69444793Y-58816658D01*
X69444793Y-57486206D01*
X69799433Y-57486206D01*
X69908518Y-57493533D01*
G37*
G36*
X71161118Y-59045361D02*
G01*
X71044614Y-59038033D01*
X70987726Y-59027303D01*
X70932323Y-59009732D01*
X70879550Y-58985186D01*
X70829558Y-58953128D01*
X70785057Y-58914117D01*
X70748683Y-58869139D01*
X70720153Y-58818863D01*
X70699407Y-58764176D01*
X70686829Y-58706929D01*
X70682646Y-58648771D01*
X70682646Y-58632010D01*
X70932323Y-58632010D01*
X70932323Y-58640345D01*
X70936747Y-58681647D01*
X70950183Y-58722227D01*
X70972037Y-58758780D01*
X71001566Y-58788356D01*
X71037223Y-58810342D01*
X71077129Y-58823985D01*
X71161118Y-58833419D01*
X71245015Y-58823985D01*
X71284921Y-58810342D01*
X71320578Y-58788356D01*
X71350334Y-58758647D01*
X71373059Y-58721220D01*
X71387290Y-58679650D01*
X71391927Y-58638238D01*
X71384903Y-58585320D01*
X71363534Y-58534466D01*
X71331173Y-58488921D01*
X71291177Y-58451576D01*
X71245499Y-58420822D01*
X71196746Y-58395888D01*
X71095996Y-58352841D01*
X70996345Y-58305671D01*
X70904021Y-58245862D01*
X70823146Y-58171399D01*
X70788176Y-58128734D01*
X70759216Y-58083288D01*
X70735948Y-58034630D01*
X70718275Y-57982538D01*
X70707302Y-57928314D01*
X70703620Y-57872262D01*
X70707523Y-57815913D01*
X70719374Y-57759056D01*
X70738877Y-57704272D01*
X70765536Y-57654092D01*
X70799472Y-57608612D01*
X70841007Y-57568088D01*
X70888354Y-57534156D01*
X70939650Y-57508279D01*
X70994220Y-57489629D01*
X71050933Y-57477780D01*
X71165331Y-57469353D01*
X71279636Y-57477780D01*
X71336240Y-57489398D01*
X71389820Y-57507180D01*
X71440468Y-57531944D01*
X71488464Y-57564883D01*
X71530912Y-57604490D01*
X71565034Y-57648872D01*
X71591647Y-57698126D01*
X71611196Y-57752736D01*
X71623045Y-57809605D01*
X71626950Y-57866034D01*
X71626950Y-57882795D01*
X71377272Y-57882795D01*
X71377272Y-57874369D01*
X71373623Y-57834977D01*
X71362526Y-57795692D01*
X71343867Y-57759703D01*
X71317372Y-57729655D01*
X71284479Y-57706630D01*
X71246022Y-57691828D01*
X71165331Y-57681295D01*
X71084456Y-57691828D01*
X71046062Y-57706621D01*
X71013106Y-57729655D01*
X70986437Y-57759658D01*
X70966944Y-57795692D01*
X70955081Y-57835020D01*
X70951191Y-57874369D01*
X70958194Y-57927386D01*
X70979492Y-57978325D01*
X71011675Y-58024084D01*
X71050933Y-58062222D01*
X71096039Y-58093416D01*
X71145364Y-58117818D01*
X71247122Y-58160866D01*
X71345765Y-58209134D01*
X71438089Y-58268943D01*
X71518872Y-58342399D01*
X71553154Y-58384226D01*
X71582894Y-58430510D01*
X71607024Y-58480096D01*
X71624843Y-58532359D01*
X71635919Y-58586216D01*
X71639589Y-58640345D01*
X71635398Y-58698717D01*
X71622737Y-58756849D01*
X71601989Y-58812573D01*
X71573461Y-58863919D01*
X71537276Y-58909788D01*
X71493685Y-58948915D01*
X71444637Y-58981169D01*
X71391927Y-59006618D01*
X71336348Y-59025171D01*
X71278537Y-59036934D01*
X71161118Y-59045361D01*
G37*
G36*
X72361144Y-59028600D02*
G01*
X72361144Y-57744310D01*
X72147095Y-57939490D01*
X72008610Y-57811446D01*
X72361144Y-57486206D01*
X72608806Y-57486206D01*
X72608806Y-59028600D01*
X72361144Y-59028600D01*
G37*
G36*
X73793078Y-57478879D02*
G01*
X73847655Y-57491988D01*
X73900148Y-57512493D01*
X73949398Y-57539960D01*
X73994579Y-57574317D01*
X74033966Y-57614991D01*
X74065928Y-57661420D01*
X74090280Y-57712270D01*
X74106778Y-57766383D01*
X74116263Y-57822279D01*
X74119417Y-57878582D01*
X74108884Y-57983545D01*
X74094719Y-58034550D01*
X74073256Y-58082189D01*
X74044973Y-58126181D01*
X74010241Y-58166178D01*
X73970419Y-58201265D01*
X73926343Y-58231116D01*
X73976773Y-58259858D01*
X74023888Y-58296237D01*
X74065461Y-58338838D01*
X74099451Y-58386455D01*
X74125671Y-58438774D01*
X74143597Y-58495631D01*
X74153854Y-58554526D01*
X74157245Y-58613051D01*
X74153839Y-58673632D01*
X74143597Y-58733768D01*
X74125441Y-58791603D01*
X74098443Y-58845051D01*
X74063117Y-58893410D01*
X74019675Y-58936276D01*
X73970286Y-58972272D01*
X73916910Y-59000298D01*
X73860275Y-59020970D01*
X73801505Y-59034828D01*
X73680879Y-59045361D01*
X73560162Y-59034828D01*
X73501393Y-59020970D01*
X73444758Y-59000298D01*
X73391365Y-58972277D01*
X73341901Y-58936276D01*
X73298533Y-58893416D01*
X73263224Y-58845051D01*
X73236226Y-58791603D01*
X73218070Y-58733768D01*
X73207898Y-58673635D01*
X73204514Y-58613051D01*
X73204872Y-58606823D01*
X73454192Y-58606823D01*
X73457604Y-58652463D01*
X73467839Y-58697040D01*
X73486211Y-58738224D01*
X73514000Y-58773610D01*
X73549386Y-58801399D01*
X73590571Y-58819772D01*
X73635227Y-58830008D01*
X73680879Y-58833419D01*
X73726519Y-58830006D01*
X73771097Y-58819772D01*
X73812281Y-58801399D01*
X73847667Y-58773610D01*
X73875456Y-58738224D01*
X73893829Y-58697040D01*
X73904063Y-58652463D01*
X73907476Y-58606823D01*
X73904356Y-58558611D01*
X73894836Y-58509278D01*
X73877961Y-58462304D01*
X73852887Y-58421076D01*
X73819541Y-58386864D01*
X73777325Y-58361267D01*
X73730084Y-58345526D01*
X73680879Y-58340293D01*
X73631596Y-58345528D01*
X73584342Y-58361267D01*
X73542185Y-58386854D01*
X73508780Y-58421076D01*
X73483685Y-58462302D01*
X73466739Y-58509278D01*
X73457289Y-58558609D01*
X73454192Y-58606823D01*
X73204872Y-58606823D01*
X73207882Y-58554524D01*
X73218070Y-58495631D01*
X73235975Y-58438768D01*
X73262125Y-58386455D01*
X73296169Y-58338828D01*
X73337688Y-58296237D01*
X73384879Y-58259854D01*
X73435324Y-58231116D01*
X73391231Y-58201269D01*
X73351335Y-58166178D01*
X73316676Y-58126187D01*
X73288412Y-58082189D01*
X73266926Y-58034552D01*
X73252691Y-57983545D01*
X73242879Y-57884902D01*
X73492019Y-57884902D01*
X73501453Y-57969898D01*
X73514557Y-58011382D01*
X73534975Y-58049674D01*
X73562788Y-58082457D01*
X73597898Y-58107377D01*
X73638059Y-58123107D01*
X73680879Y-58128351D01*
X73723607Y-58123107D01*
X73763678Y-58107377D01*
X73798845Y-58082447D01*
X73826601Y-58049674D01*
X73847090Y-58011377D01*
X73860215Y-57969898D01*
X73869740Y-57884902D01*
X73859207Y-57806225D01*
X73844761Y-57769668D01*
X73822479Y-57737990D01*
X73793459Y-57712583D01*
X73758457Y-57694942D01*
X73720162Y-57684701D01*
X73680879Y-57681295D01*
X73641505Y-57684701D01*
X73603119Y-57694942D01*
X73568194Y-57712577D01*
X73539188Y-57737990D01*
X73516957Y-57769659D01*
X73502460Y-57806225D01*
X73492019Y-57884902D01*
X73242879Y-57884902D01*
X73242250Y-57878582D01*
X73245382Y-57822277D01*
X73254798Y-57766383D01*
X73271365Y-57712268D01*
X73295739Y-57661420D01*
X73327756Y-57614981D01*
X73367088Y-57574317D01*
X73412269Y-57539960D01*
X73461519Y-57512493D01*
X73514078Y-57491982D01*
X73568589Y-57478879D01*
X73680879Y-57469353D01*
X73793078Y-57478879D01*
G37*
G36*
X75033038Y-57495640D02*
G01*
X75089712Y-57508493D01*
X75144230Y-57528155D01*
X75195317Y-57555377D01*
X75241866Y-57591169D01*
X75282338Y-57633743D01*
X75315322Y-57681386D01*
X75340229Y-57733471D01*
X75356263Y-57789464D01*
X75367804Y-57905876D01*
X75359377Y-58001406D01*
X75347289Y-58047288D01*
X75327870Y-58090615D01*
X75301981Y-58130629D01*
X75270168Y-58167186D01*
X75233612Y-58198999D01*
X75193597Y-58224888D01*
X75244544Y-58249158D01*
X75293249Y-58280484D01*
X75336855Y-58318550D01*
X75373024Y-58363374D01*
X75400817Y-58413736D01*
X75419186Y-58468337D01*
X75429443Y-58525144D01*
X75432833Y-58581635D01*
X75429156Y-58646334D01*
X75418087Y-58710687D01*
X75398103Y-58772224D01*
X75367712Y-58828198D01*
X75328243Y-58878419D01*
X75280609Y-58922629D01*
X75226998Y-58959451D01*
X75169417Y-58987750D01*
X75108566Y-59007920D01*
X75045586Y-59020265D01*
X74916626Y-59028600D01*
X74480103Y-59028600D01*
X74480103Y-58816658D01*
X74729780Y-58816658D01*
X74916626Y-58816658D01*
X74983671Y-58812445D01*
X75048792Y-58794584D01*
X75107502Y-58758955D01*
X75152656Y-58708580D01*
X75167535Y-58678889D01*
X75176745Y-58645657D01*
X75183065Y-58577422D01*
X75176745Y-58510286D01*
X75167614Y-58477763D01*
X75152656Y-58447363D01*
X75132493Y-58419856D01*
X75107502Y-58395888D01*
X75049800Y-58360259D01*
X74984770Y-58341392D01*
X74916626Y-58336079D01*
X74729780Y-58336079D01*
X74729780Y-58816658D01*
X74480103Y-58816658D01*
X74480103Y-58124138D01*
X74729780Y-58124138D01*
X74916626Y-58124138D01*
X74958169Y-58120748D01*
X74999424Y-58110491D01*
X75037368Y-58092550D01*
X75068667Y-58066435D01*
X75092738Y-58033340D01*
X75108601Y-57994078D01*
X75120141Y-57910089D01*
X75108601Y-57827199D01*
X75092793Y-57788795D01*
X75068667Y-57755850D01*
X75037368Y-57729735D01*
X74999424Y-57711795D01*
X74958169Y-57701538D01*
X74916626Y-57698148D01*
X74729780Y-57698148D01*
X74729780Y-58124138D01*
X74480103Y-58124138D01*
X74480103Y-57486206D01*
X74916626Y-57486206D01*
X75033038Y-57495640D01*
G37*
G36*
X75738931Y-59028600D02*
G01*
X75738931Y-58816658D01*
X76248818Y-58241649D01*
X76309726Y-58170300D01*
X76365322Y-58093729D01*
X76403058Y-58007725D01*
X76413274Y-57961922D01*
X76416705Y-57914303D01*
X76405164Y-57825093D01*
X76388831Y-57782705D01*
X76363215Y-57746416D01*
X76329698Y-57717301D01*
X76289759Y-57697049D01*
X76246049Y-57685242D01*
X76200641Y-57681295D01*
X76118759Y-57691828D01*
X76081050Y-57706525D01*
X76047409Y-57729655D01*
X76019860Y-57759738D01*
X76000148Y-57795692D01*
X75988404Y-57835297D01*
X75984486Y-57876475D01*
X75984486Y-57882795D01*
X75734718Y-57882795D01*
X75734718Y-57870247D01*
X75738657Y-57811990D01*
X75750471Y-57754843D01*
X75770201Y-57700119D01*
X75797641Y-57649879D01*
X75832757Y-57604829D01*
X75875310Y-57565982D01*
X75923359Y-57533664D01*
X75974961Y-57508279D01*
X76029380Y-57489595D01*
X76085145Y-57477780D01*
X76200641Y-57469353D01*
X76322274Y-57478879D01*
X76381874Y-57492509D01*
X76438778Y-57514508D01*
X76491724Y-57544653D01*
X76539437Y-57582743D01*
X76580696Y-57627633D01*
X76613992Y-57678181D01*
X76638889Y-57733418D01*
X76654933Y-57792578D01*
X76666473Y-57914303D01*
X76662246Y-57980770D01*
X76649621Y-58045461D01*
X76628923Y-58107897D01*
X76600345Y-58167186D01*
X76565251Y-58223230D01*
X76524782Y-58276270D01*
X76437771Y-58375922D01*
X76435664Y-58380135D01*
X76049516Y-58816658D01*
X76658047Y-58816658D01*
X76658047Y-59028600D01*
X75738931Y-59028600D01*
G37*
G36*
X77502425Y-58097943D02*
G01*
X77522537Y-58109594D01*
X77538146Y-58125237D01*
X77557013Y-58166086D01*
X77562234Y-58212248D01*
X77562234Y-58302466D01*
X77557013Y-58348719D01*
X77538146Y-58389660D01*
X77502425Y-58416863D01*
X77457362Y-58426297D01*
X77412208Y-58416863D01*
X77376487Y-58389660D01*
X77357620Y-58348719D01*
X77352399Y-58302466D01*
X77352399Y-58212248D01*
X77357620Y-58166086D01*
X77376487Y-58125237D01*
X77392096Y-58109594D01*
X77412208Y-58097943D01*
X77457362Y-58088417D01*
X77502425Y-58097943D01*
G37*
G36*
X77582201Y-57479886D02*
G01*
X77642838Y-57494350D01*
X77700720Y-57516614D01*
X77754894Y-57546930D01*
X77804584Y-57585857D01*
X77847455Y-57632139D01*
X77881246Y-57684501D01*
X77906178Y-57741666D01*
X77922187Y-57802012D01*
X77933727Y-57926851D01*
X77933727Y-58587863D01*
X77922187Y-58712793D01*
X77906178Y-58773139D01*
X77881246Y-58830305D01*
X77847455Y-58882666D01*
X77804584Y-58928948D01*
X77754904Y-58967823D01*
X77700720Y-58998191D01*
X77642836Y-59020433D01*
X77582201Y-59034828D01*
X77457362Y-59045361D01*
X77332432Y-59034828D01*
X77271784Y-59020436D01*
X77213822Y-58998191D01*
X77159698Y-58967833D01*
X77109957Y-58928948D01*
X77067160Y-58882673D01*
X77033387Y-58830305D01*
X77008525Y-58773144D01*
X76992538Y-58712793D01*
X76980997Y-58587863D01*
X76980997Y-57926851D01*
X77230674Y-57926851D01*
X77230674Y-58587863D01*
X77233817Y-58635668D01*
X77243222Y-58682385D01*
X77260314Y-58726208D01*
X77286270Y-58765275D01*
X77320510Y-58796686D01*
X77362840Y-58817757D01*
X77409664Y-58829514D01*
X77457362Y-58833419D01*
X77505048Y-58829513D01*
X77551793Y-58817757D01*
X77594123Y-58796686D01*
X77628363Y-58765275D01*
X77654298Y-58726205D01*
X77671319Y-58682385D01*
X77680794Y-58635666D01*
X77683959Y-58587863D01*
X77683959Y-57926851D01*
X77680792Y-57879061D01*
X77671319Y-57832420D01*
X77654298Y-57788600D01*
X77628363Y-57749530D01*
X77594123Y-57718119D01*
X77551793Y-57697049D01*
X77505045Y-57685223D01*
X77457362Y-57681295D01*
X77409667Y-57685222D01*
X77362840Y-57697049D01*
X77320510Y-57718119D01*
X77286270Y-57749530D01*
X77260314Y-57788598D01*
X77243222Y-57832420D01*
X77233818Y-57879058D01*
X77230674Y-57926851D01*
X76980997Y-57926851D01*
X76992538Y-57802012D01*
X77008525Y-57741661D01*
X77033387Y-57684501D01*
X77067160Y-57632133D01*
X77109957Y-57585857D01*
X77159708Y-57546920D01*
X77213822Y-57516614D01*
X77271782Y-57494347D01*
X77332432Y-57479886D01*
X77457362Y-57469353D01*
X77582201Y-57479886D01*
G37*
D12*
X72960095Y-106936819D02*
X73531523Y-106936819D01*
X73245809Y-107936819D02*
X73245809Y-106936819D01*
X74436285Y-107936819D02*
X74102952Y-107460628D01*
X73864857Y-107936819D02*
X73864857Y-106936819D01*
X73864857Y-106936819D02*
X74245809Y-106936819D01*
X74245809Y-106936819D02*
X74341047Y-106984438D01*
X74341047Y-106984438D02*
X74388666Y-107032057D01*
X74388666Y-107032057D02*
X74436285Y-107127295D01*
X74436285Y-107127295D02*
X74436285Y-107270152D01*
X74436285Y-107270152D02*
X74388666Y-107365390D01*
X74388666Y-107365390D02*
X74341047Y-107413009D01*
X74341047Y-107413009D02*
X74245809Y-107460628D01*
X74245809Y-107460628D02*
X73864857Y-107460628D01*
X75388666Y-107936819D02*
X74817238Y-107936819D01*
X75102952Y-107936819D02*
X75102952Y-106936819D01*
X75102952Y-106936819D02*
X75007714Y-107079676D01*
X75007714Y-107079676D02*
X74912476Y-107174914D01*
X74912476Y-107174914D02*
X74817238Y-107222533D01*
X61531523Y-111436819D02*
X60960095Y-111436819D01*
X61245809Y-111436819D02*
X61245809Y-110436819D01*
X61245809Y-110436819D02*
X61150571Y-110579676D01*
X61150571Y-110579676D02*
X61055333Y-110674914D01*
X61055333Y-110674914D02*
X60960095Y-110722533D01*
X62150571Y-110436819D02*
X62245809Y-110436819D01*
X62245809Y-110436819D02*
X62341047Y-110484438D01*
X62341047Y-110484438D02*
X62388666Y-110532057D01*
X62388666Y-110532057D02*
X62436285Y-110627295D01*
X62436285Y-110627295D02*
X62483904Y-110817771D01*
X62483904Y-110817771D02*
X62483904Y-111055866D01*
X62483904Y-111055866D02*
X62436285Y-111246342D01*
X62436285Y-111246342D02*
X62388666Y-111341580D01*
X62388666Y-111341580D02*
X62341047Y-111389200D01*
X62341047Y-111389200D02*
X62245809Y-111436819D01*
X62245809Y-111436819D02*
X62150571Y-111436819D01*
X62150571Y-111436819D02*
X62055333Y-111389200D01*
X62055333Y-111389200D02*
X62007714Y-111341580D01*
X62007714Y-111341580D02*
X61960095Y-111246342D01*
X61960095Y-111246342D02*
X61912476Y-111055866D01*
X61912476Y-111055866D02*
X61912476Y-110817771D01*
X61912476Y-110817771D02*
X61960095Y-110627295D01*
X61960095Y-110627295D02*
X62007714Y-110532057D01*
X62007714Y-110532057D02*
X62055333Y-110484438D01*
X62055333Y-110484438D02*
X62150571Y-110436819D01*
X62007714Y-145936819D02*
X61436286Y-145936819D01*
X61722000Y-145936819D02*
X61722000Y-144936819D01*
X61722000Y-144936819D02*
X61626762Y-145079676D01*
X61626762Y-145079676D02*
X61531524Y-145174914D01*
X61531524Y-145174914D02*
X61436286Y-145222533D01*
X66531524Y-111436819D02*
X66722000Y-111436819D01*
X66722000Y-111436819D02*
X66817238Y-111389200D01*
X66817238Y-111389200D02*
X66864857Y-111341580D01*
X66864857Y-111341580D02*
X66960095Y-111198723D01*
X66960095Y-111198723D02*
X67007714Y-111008247D01*
X67007714Y-111008247D02*
X67007714Y-110627295D01*
X67007714Y-110627295D02*
X66960095Y-110532057D01*
X66960095Y-110532057D02*
X66912476Y-110484438D01*
X66912476Y-110484438D02*
X66817238Y-110436819D01*
X66817238Y-110436819D02*
X66626762Y-110436819D01*
X66626762Y-110436819D02*
X66531524Y-110484438D01*
X66531524Y-110484438D02*
X66483905Y-110532057D01*
X66483905Y-110532057D02*
X66436286Y-110627295D01*
X66436286Y-110627295D02*
X66436286Y-110865390D01*
X66436286Y-110865390D02*
X66483905Y-110960628D01*
X66483905Y-110960628D02*
X66531524Y-111008247D01*
X66531524Y-111008247D02*
X66626762Y-111055866D01*
X66626762Y-111055866D02*
X66817238Y-111055866D01*
X66817238Y-111055866D02*
X66912476Y-111008247D01*
X66912476Y-111008247D02*
X66960095Y-110960628D01*
X66960095Y-110960628D02*
X67007714Y-110865390D01*
X66436286Y-145032057D02*
X66483905Y-144984438D01*
X66483905Y-144984438D02*
X66579143Y-144936819D01*
X66579143Y-144936819D02*
X66817238Y-144936819D01*
X66817238Y-144936819D02*
X66912476Y-144984438D01*
X66912476Y-144984438D02*
X66960095Y-145032057D01*
X66960095Y-145032057D02*
X67007714Y-145127295D01*
X67007714Y-145127295D02*
X67007714Y-145222533D01*
X67007714Y-145222533D02*
X66960095Y-145365390D01*
X66960095Y-145365390D02*
X66388667Y-145936819D01*
X66388667Y-145936819D02*
X67007714Y-145936819D01*
X74126762Y-110865390D02*
X74031524Y-110817771D01*
X74031524Y-110817771D02*
X73983905Y-110770152D01*
X73983905Y-110770152D02*
X73936286Y-110674914D01*
X73936286Y-110674914D02*
X73936286Y-110627295D01*
X73936286Y-110627295D02*
X73983905Y-110532057D01*
X73983905Y-110532057D02*
X74031524Y-110484438D01*
X74031524Y-110484438D02*
X74126762Y-110436819D01*
X74126762Y-110436819D02*
X74317238Y-110436819D01*
X74317238Y-110436819D02*
X74412476Y-110484438D01*
X74412476Y-110484438D02*
X74460095Y-110532057D01*
X74460095Y-110532057D02*
X74507714Y-110627295D01*
X74507714Y-110627295D02*
X74507714Y-110674914D01*
X74507714Y-110674914D02*
X74460095Y-110770152D01*
X74460095Y-110770152D02*
X74412476Y-110817771D01*
X74412476Y-110817771D02*
X74317238Y-110865390D01*
X74317238Y-110865390D02*
X74126762Y-110865390D01*
X74126762Y-110865390D02*
X74031524Y-110913009D01*
X74031524Y-110913009D02*
X73983905Y-110960628D01*
X73983905Y-110960628D02*
X73936286Y-111055866D01*
X73936286Y-111055866D02*
X73936286Y-111246342D01*
X73936286Y-111246342D02*
X73983905Y-111341580D01*
X73983905Y-111341580D02*
X74031524Y-111389200D01*
X74031524Y-111389200D02*
X74126762Y-111436819D01*
X74126762Y-111436819D02*
X74317238Y-111436819D01*
X74317238Y-111436819D02*
X74412476Y-111389200D01*
X74412476Y-111389200D02*
X74460095Y-111341580D01*
X74460095Y-111341580D02*
X74507714Y-111246342D01*
X74507714Y-111246342D02*
X74507714Y-111055866D01*
X74507714Y-111055866D02*
X74460095Y-110960628D01*
X74460095Y-110960628D02*
X74412476Y-110913009D01*
X74412476Y-110913009D02*
X74317238Y-110865390D01*
X73888667Y-144936819D02*
X74507714Y-144936819D01*
X74507714Y-144936819D02*
X74174381Y-145317771D01*
X74174381Y-145317771D02*
X74317238Y-145317771D01*
X74317238Y-145317771D02*
X74412476Y-145365390D01*
X74412476Y-145365390D02*
X74460095Y-145413009D01*
X74460095Y-145413009D02*
X74507714Y-145508247D01*
X74507714Y-145508247D02*
X74507714Y-145746342D01*
X74507714Y-145746342D02*
X74460095Y-145841580D01*
X74460095Y-145841580D02*
X74412476Y-145889200D01*
X74412476Y-145889200D02*
X74317238Y-145936819D01*
X74317238Y-145936819D02*
X74031524Y-145936819D01*
X74031524Y-145936819D02*
X73936286Y-145889200D01*
X73936286Y-145889200D02*
X73888667Y-145841580D01*
X81388667Y-110436819D02*
X82055333Y-110436819D01*
X82055333Y-110436819D02*
X81626762Y-111436819D01*
X81912476Y-145270152D02*
X81912476Y-145936819D01*
X81674381Y-144889200D02*
X81436286Y-145603485D01*
X81436286Y-145603485D02*
X82055333Y-145603485D01*
X86912476Y-110436819D02*
X86722000Y-110436819D01*
X86722000Y-110436819D02*
X86626762Y-110484438D01*
X86626762Y-110484438D02*
X86579143Y-110532057D01*
X86579143Y-110532057D02*
X86483905Y-110674914D01*
X86483905Y-110674914D02*
X86436286Y-110865390D01*
X86436286Y-110865390D02*
X86436286Y-111246342D01*
X86436286Y-111246342D02*
X86483905Y-111341580D01*
X86483905Y-111341580D02*
X86531524Y-111389200D01*
X86531524Y-111389200D02*
X86626762Y-111436819D01*
X86626762Y-111436819D02*
X86817238Y-111436819D01*
X86817238Y-111436819D02*
X86912476Y-111389200D01*
X86912476Y-111389200D02*
X86960095Y-111341580D01*
X86960095Y-111341580D02*
X87007714Y-111246342D01*
X87007714Y-111246342D02*
X87007714Y-111008247D01*
X87007714Y-111008247D02*
X86960095Y-110913009D01*
X86960095Y-110913009D02*
X86912476Y-110865390D01*
X86912476Y-110865390D02*
X86817238Y-110817771D01*
X86817238Y-110817771D02*
X86626762Y-110817771D01*
X86626762Y-110817771D02*
X86531524Y-110865390D01*
X86531524Y-110865390D02*
X86483905Y-110913009D01*
X86483905Y-110913009D02*
X86436286Y-111008247D01*
X86960095Y-144936819D02*
X86483905Y-144936819D01*
X86483905Y-144936819D02*
X86436286Y-145413009D01*
X86436286Y-145413009D02*
X86483905Y-145365390D01*
X86483905Y-145365390D02*
X86579143Y-145317771D01*
X86579143Y-145317771D02*
X86817238Y-145317771D01*
X86817238Y-145317771D02*
X86912476Y-145365390D01*
X86912476Y-145365390D02*
X86960095Y-145413009D01*
X86960095Y-145413009D02*
X87007714Y-145508247D01*
X87007714Y-145508247D02*
X87007714Y-145746342D01*
X87007714Y-145746342D02*
X86960095Y-145841580D01*
X86960095Y-145841580D02*
X86912476Y-145889200D01*
X86912476Y-145889200D02*
X86817238Y-145936819D01*
X86817238Y-145936819D02*
X86579143Y-145936819D01*
X86579143Y-145936819D02*
X86483905Y-145889200D01*
X86483905Y-145889200D02*
X86436286Y-145841580D01*
X76725180Y-96686666D02*
X76772800Y-96734285D01*
X76772800Y-96734285D02*
X76820419Y-96877142D01*
X76820419Y-96877142D02*
X76820419Y-96972380D01*
X76820419Y-96972380D02*
X76772800Y-97115237D01*
X76772800Y-97115237D02*
X76677561Y-97210475D01*
X76677561Y-97210475D02*
X76582323Y-97258094D01*
X76582323Y-97258094D02*
X76391847Y-97305713D01*
X76391847Y-97305713D02*
X76248990Y-97305713D01*
X76248990Y-97305713D02*
X76058514Y-97258094D01*
X76058514Y-97258094D02*
X75963276Y-97210475D01*
X75963276Y-97210475D02*
X75868038Y-97115237D01*
X75868038Y-97115237D02*
X75820419Y-96972380D01*
X75820419Y-96972380D02*
X75820419Y-96877142D01*
X75820419Y-96877142D02*
X75868038Y-96734285D01*
X75868038Y-96734285D02*
X75915657Y-96686666D01*
X75915657Y-96305713D02*
X75868038Y-96258094D01*
X75868038Y-96258094D02*
X75820419Y-96162856D01*
X75820419Y-96162856D02*
X75820419Y-95924761D01*
X75820419Y-95924761D02*
X75868038Y-95829523D01*
X75868038Y-95829523D02*
X75915657Y-95781904D01*
X75915657Y-95781904D02*
X76010895Y-95734285D01*
X76010895Y-95734285D02*
X76106133Y-95734285D01*
X76106133Y-95734285D02*
X76248990Y-95781904D01*
X76248990Y-95781904D02*
X76820419Y-96353332D01*
X76820419Y-96353332D02*
X76820419Y-95734285D01*
X112745333Y-63278819D02*
X112412000Y-62802628D01*
X112173905Y-63278819D02*
X112173905Y-62278819D01*
X112173905Y-62278819D02*
X112554857Y-62278819D01*
X112554857Y-62278819D02*
X112650095Y-62326438D01*
X112650095Y-62326438D02*
X112697714Y-62374057D01*
X112697714Y-62374057D02*
X112745333Y-62469295D01*
X112745333Y-62469295D02*
X112745333Y-62612152D01*
X112745333Y-62612152D02*
X112697714Y-62707390D01*
X112697714Y-62707390D02*
X112650095Y-62755009D01*
X112650095Y-62755009D02*
X112554857Y-62802628D01*
X112554857Y-62802628D02*
X112173905Y-62802628D01*
X113126286Y-62374057D02*
X113173905Y-62326438D01*
X113173905Y-62326438D02*
X113269143Y-62278819D01*
X113269143Y-62278819D02*
X113507238Y-62278819D01*
X113507238Y-62278819D02*
X113602476Y-62326438D01*
X113602476Y-62326438D02*
X113650095Y-62374057D01*
X113650095Y-62374057D02*
X113697714Y-62469295D01*
X113697714Y-62469295D02*
X113697714Y-62564533D01*
X113697714Y-62564533D02*
X113650095Y-62707390D01*
X113650095Y-62707390D02*
X113078667Y-63278819D01*
X113078667Y-63278819D02*
X113697714Y-63278819D01*
X62199333Y-87881619D02*
X61866000Y-87405428D01*
X61627905Y-87881619D02*
X61627905Y-86881619D01*
X61627905Y-86881619D02*
X62008857Y-86881619D01*
X62008857Y-86881619D02*
X62104095Y-86929238D01*
X62104095Y-86929238D02*
X62151714Y-86976857D01*
X62151714Y-86976857D02*
X62199333Y-87072095D01*
X62199333Y-87072095D02*
X62199333Y-87214952D01*
X62199333Y-87214952D02*
X62151714Y-87310190D01*
X62151714Y-87310190D02*
X62104095Y-87357809D01*
X62104095Y-87357809D02*
X62008857Y-87405428D01*
X62008857Y-87405428D02*
X61627905Y-87405428D01*
X63151714Y-87881619D02*
X62580286Y-87881619D01*
X62866000Y-87881619D02*
X62866000Y-86881619D01*
X62866000Y-86881619D02*
X62770762Y-87024476D01*
X62770762Y-87024476D02*
X62675524Y-87119714D01*
X62675524Y-87119714D02*
X62580286Y-87167333D01*
X88687819Y-72678666D02*
X88211628Y-73011999D01*
X88687819Y-73250094D02*
X87687819Y-73250094D01*
X87687819Y-73250094D02*
X87687819Y-72869142D01*
X87687819Y-72869142D02*
X87735438Y-72773904D01*
X87735438Y-72773904D02*
X87783057Y-72726285D01*
X87783057Y-72726285D02*
X87878295Y-72678666D01*
X87878295Y-72678666D02*
X88021152Y-72678666D01*
X88021152Y-72678666D02*
X88116390Y-72726285D01*
X88116390Y-72726285D02*
X88164009Y-72773904D01*
X88164009Y-72773904D02*
X88211628Y-72869142D01*
X88211628Y-72869142D02*
X88211628Y-73250094D01*
X87687819Y-71821523D02*
X87687819Y-72011999D01*
X87687819Y-72011999D02*
X87735438Y-72107237D01*
X87735438Y-72107237D02*
X87783057Y-72154856D01*
X87783057Y-72154856D02*
X87925914Y-72250094D01*
X87925914Y-72250094D02*
X88116390Y-72297713D01*
X88116390Y-72297713D02*
X88497342Y-72297713D01*
X88497342Y-72297713D02*
X88592580Y-72250094D01*
X88592580Y-72250094D02*
X88640200Y-72202475D01*
X88640200Y-72202475D02*
X88687819Y-72107237D01*
X88687819Y-72107237D02*
X88687819Y-71916761D01*
X88687819Y-71916761D02*
X88640200Y-71821523D01*
X88640200Y-71821523D02*
X88592580Y-71773904D01*
X88592580Y-71773904D02*
X88497342Y-71726285D01*
X88497342Y-71726285D02*
X88259247Y-71726285D01*
X88259247Y-71726285D02*
X88164009Y-71773904D01*
X88164009Y-71773904D02*
X88116390Y-71821523D01*
X88116390Y-71821523D02*
X88068771Y-71916761D01*
X88068771Y-71916761D02*
X88068771Y-72107237D01*
X88068771Y-72107237D02*
X88116390Y-72202475D01*
X88116390Y-72202475D02*
X88164009Y-72250094D01*
X88164009Y-72250094D02*
X88259247Y-72297713D01*
X104417905Y-115516819D02*
X104417905Y-114516819D01*
X104417905Y-114516819D02*
X104656000Y-114516819D01*
X104656000Y-114516819D02*
X104798857Y-114564438D01*
X104798857Y-114564438D02*
X104894095Y-114659676D01*
X104894095Y-114659676D02*
X104941714Y-114754914D01*
X104941714Y-114754914D02*
X104989333Y-114945390D01*
X104989333Y-114945390D02*
X104989333Y-115088247D01*
X104989333Y-115088247D02*
X104941714Y-115278723D01*
X104941714Y-115278723D02*
X104894095Y-115373961D01*
X104894095Y-115373961D02*
X104798857Y-115469200D01*
X104798857Y-115469200D02*
X104656000Y-115516819D01*
X104656000Y-115516819D02*
X104417905Y-115516819D01*
X105370286Y-114612057D02*
X105417905Y-114564438D01*
X105417905Y-114564438D02*
X105513143Y-114516819D01*
X105513143Y-114516819D02*
X105751238Y-114516819D01*
X105751238Y-114516819D02*
X105846476Y-114564438D01*
X105846476Y-114564438D02*
X105894095Y-114612057D01*
X105894095Y-114612057D02*
X105941714Y-114707295D01*
X105941714Y-114707295D02*
X105941714Y-114802533D01*
X105941714Y-114802533D02*
X105894095Y-114945390D01*
X105894095Y-114945390D02*
X105322667Y-115516819D01*
X105322667Y-115516819D02*
X105941714Y-115516819D01*
X101084095Y-113716819D02*
X101084095Y-112716819D01*
X101655523Y-113716819D02*
X101226952Y-113145390D01*
X101655523Y-112716819D02*
X101084095Y-113288247D01*
X98939619Y-97620057D02*
X98463428Y-97953390D01*
X98939619Y-98191485D02*
X97939619Y-98191485D01*
X97939619Y-98191485D02*
X97939619Y-97810533D01*
X97939619Y-97810533D02*
X97987238Y-97715295D01*
X97987238Y-97715295D02*
X98034857Y-97667676D01*
X98034857Y-97667676D02*
X98130095Y-97620057D01*
X98130095Y-97620057D02*
X98272952Y-97620057D01*
X98272952Y-97620057D02*
X98368190Y-97667676D01*
X98368190Y-97667676D02*
X98415809Y-97715295D01*
X98415809Y-97715295D02*
X98463428Y-97810533D01*
X98463428Y-97810533D02*
X98463428Y-98191485D01*
X98939619Y-96667676D02*
X98939619Y-97239104D01*
X98939619Y-96953390D02*
X97939619Y-96953390D01*
X97939619Y-96953390D02*
X98082476Y-97048628D01*
X98082476Y-97048628D02*
X98177714Y-97143866D01*
X98177714Y-97143866D02*
X98225333Y-97239104D01*
X97939619Y-95762914D02*
X97939619Y-96239104D01*
X97939619Y-96239104D02*
X98415809Y-96286723D01*
X98415809Y-96286723D02*
X98368190Y-96239104D01*
X98368190Y-96239104D02*
X98320571Y-96143866D01*
X98320571Y-96143866D02*
X98320571Y-95905771D01*
X98320571Y-95905771D02*
X98368190Y-95810533D01*
X98368190Y-95810533D02*
X98415809Y-95762914D01*
X98415809Y-95762914D02*
X98511047Y-95715295D01*
X98511047Y-95715295D02*
X98749142Y-95715295D01*
X98749142Y-95715295D02*
X98844380Y-95762914D01*
X98844380Y-95762914D02*
X98892000Y-95810533D01*
X98892000Y-95810533D02*
X98939619Y-95905771D01*
X98939619Y-95905771D02*
X98939619Y-96143866D01*
X98939619Y-96143866D02*
X98892000Y-96239104D01*
X98892000Y-96239104D02*
X98844380Y-96286723D01*
X82686333Y-98051580D02*
X82638714Y-98099200D01*
X82638714Y-98099200D02*
X82495857Y-98146819D01*
X82495857Y-98146819D02*
X82400619Y-98146819D01*
X82400619Y-98146819D02*
X82257762Y-98099200D01*
X82257762Y-98099200D02*
X82162524Y-98003961D01*
X82162524Y-98003961D02*
X82114905Y-97908723D01*
X82114905Y-97908723D02*
X82067286Y-97718247D01*
X82067286Y-97718247D02*
X82067286Y-97575390D01*
X82067286Y-97575390D02*
X82114905Y-97384914D01*
X82114905Y-97384914D02*
X82162524Y-97289676D01*
X82162524Y-97289676D02*
X82257762Y-97194438D01*
X82257762Y-97194438D02*
X82400619Y-97146819D01*
X82400619Y-97146819D02*
X82495857Y-97146819D01*
X82495857Y-97146819D02*
X82638714Y-97194438D01*
X82638714Y-97194438D02*
X82686333Y-97242057D01*
X83162524Y-98146819D02*
X83353000Y-98146819D01*
X83353000Y-98146819D02*
X83448238Y-98099200D01*
X83448238Y-98099200D02*
X83495857Y-98051580D01*
X83495857Y-98051580D02*
X83591095Y-97908723D01*
X83591095Y-97908723D02*
X83638714Y-97718247D01*
X83638714Y-97718247D02*
X83638714Y-97337295D01*
X83638714Y-97337295D02*
X83591095Y-97242057D01*
X83591095Y-97242057D02*
X83543476Y-97194438D01*
X83543476Y-97194438D02*
X83448238Y-97146819D01*
X83448238Y-97146819D02*
X83257762Y-97146819D01*
X83257762Y-97146819D02*
X83162524Y-97194438D01*
X83162524Y-97194438D02*
X83114905Y-97242057D01*
X83114905Y-97242057D02*
X83067286Y-97337295D01*
X83067286Y-97337295D02*
X83067286Y-97575390D01*
X83067286Y-97575390D02*
X83114905Y-97670628D01*
X83114905Y-97670628D02*
X83162524Y-97718247D01*
X83162524Y-97718247D02*
X83257762Y-97765866D01*
X83257762Y-97765866D02*
X83448238Y-97765866D01*
X83448238Y-97765866D02*
X83543476Y-97718247D01*
X83543476Y-97718247D02*
X83591095Y-97670628D01*
X83591095Y-97670628D02*
X83638714Y-97575390D01*
X84762019Y-105549294D02*
X83762019Y-105549294D01*
X83762019Y-105549294D02*
X83762019Y-105311199D01*
X83762019Y-105311199D02*
X83809638Y-105168342D01*
X83809638Y-105168342D02*
X83904876Y-105073104D01*
X83904876Y-105073104D02*
X84000114Y-105025485D01*
X84000114Y-105025485D02*
X84190590Y-104977866D01*
X84190590Y-104977866D02*
X84333447Y-104977866D01*
X84333447Y-104977866D02*
X84523923Y-105025485D01*
X84523923Y-105025485D02*
X84619161Y-105073104D01*
X84619161Y-105073104D02*
X84714400Y-105168342D01*
X84714400Y-105168342D02*
X84762019Y-105311199D01*
X84762019Y-105311199D02*
X84762019Y-105549294D01*
X83762019Y-104644532D02*
X83762019Y-104025485D01*
X83762019Y-104025485D02*
X84142971Y-104358818D01*
X84142971Y-104358818D02*
X84142971Y-104215961D01*
X84142971Y-104215961D02*
X84190590Y-104120723D01*
X84190590Y-104120723D02*
X84238209Y-104073104D01*
X84238209Y-104073104D02*
X84333447Y-104025485D01*
X84333447Y-104025485D02*
X84571542Y-104025485D01*
X84571542Y-104025485D02*
X84666780Y-104073104D01*
X84666780Y-104073104D02*
X84714400Y-104120723D01*
X84714400Y-104120723D02*
X84762019Y-104215961D01*
X84762019Y-104215961D02*
X84762019Y-104501675D01*
X84762019Y-104501675D02*
X84714400Y-104596913D01*
X84714400Y-104596913D02*
X84666780Y-104644532D01*
X118622057Y-98619238D02*
X118574438Y-98714476D01*
X118574438Y-98714476D02*
X118479200Y-98809714D01*
X118479200Y-98809714D02*
X118336342Y-98952571D01*
X118336342Y-98952571D02*
X118288723Y-99047809D01*
X118288723Y-99047809D02*
X118288723Y-99143047D01*
X118526819Y-99095428D02*
X118479200Y-99190666D01*
X118479200Y-99190666D02*
X118383961Y-99285904D01*
X118383961Y-99285904D02*
X118193485Y-99333523D01*
X118193485Y-99333523D02*
X117860152Y-99333523D01*
X117860152Y-99333523D02*
X117669676Y-99285904D01*
X117669676Y-99285904D02*
X117574438Y-99190666D01*
X117574438Y-99190666D02*
X117526819Y-99095428D01*
X117526819Y-99095428D02*
X117526819Y-98904952D01*
X117526819Y-98904952D02*
X117574438Y-98809714D01*
X117574438Y-98809714D02*
X117669676Y-98714476D01*
X117669676Y-98714476D02*
X117860152Y-98666857D01*
X117860152Y-98666857D02*
X118193485Y-98666857D01*
X118193485Y-98666857D02*
X118383961Y-98714476D01*
X118383961Y-98714476D02*
X118479200Y-98809714D01*
X118479200Y-98809714D02*
X118526819Y-98904952D01*
X118526819Y-98904952D02*
X118526819Y-99095428D01*
X117526819Y-98333523D02*
X117526819Y-97714476D01*
X117526819Y-97714476D02*
X117907771Y-98047809D01*
X117907771Y-98047809D02*
X117907771Y-97904952D01*
X117907771Y-97904952D02*
X117955390Y-97809714D01*
X117955390Y-97809714D02*
X118003009Y-97762095D01*
X118003009Y-97762095D02*
X118098247Y-97714476D01*
X118098247Y-97714476D02*
X118336342Y-97714476D01*
X118336342Y-97714476D02*
X118431580Y-97762095D01*
X118431580Y-97762095D02*
X118479200Y-97809714D01*
X118479200Y-97809714D02*
X118526819Y-97904952D01*
X118526819Y-97904952D02*
X118526819Y-98190666D01*
X118526819Y-98190666D02*
X118479200Y-98285904D01*
X118479200Y-98285904D02*
X118431580Y-98333523D01*
X51359009Y-98834533D02*
X51359009Y-99167866D01*
X51882819Y-99167866D02*
X50882819Y-99167866D01*
X50882819Y-99167866D02*
X50882819Y-98691676D01*
X51882819Y-97786914D02*
X51882819Y-98358342D01*
X51882819Y-98072628D02*
X50882819Y-98072628D01*
X50882819Y-98072628D02*
X51025676Y-98167866D01*
X51025676Y-98167866D02*
X51120914Y-98263104D01*
X51120914Y-98263104D02*
X51168533Y-98358342D01*
X104002819Y-86115333D02*
X104717104Y-86115333D01*
X104717104Y-86115333D02*
X104859961Y-86162952D01*
X104859961Y-86162952D02*
X104955200Y-86258190D01*
X104955200Y-86258190D02*
X105002819Y-86401047D01*
X105002819Y-86401047D02*
X105002819Y-86496285D01*
X104002819Y-85162952D02*
X104002819Y-85639142D01*
X104002819Y-85639142D02*
X104479009Y-85686761D01*
X104479009Y-85686761D02*
X104431390Y-85639142D01*
X104431390Y-85639142D02*
X104383771Y-85543904D01*
X104383771Y-85543904D02*
X104383771Y-85305809D01*
X104383771Y-85305809D02*
X104431390Y-85210571D01*
X104431390Y-85210571D02*
X104479009Y-85162952D01*
X104479009Y-85162952D02*
X104574247Y-85115333D01*
X104574247Y-85115333D02*
X104812342Y-85115333D01*
X104812342Y-85115333D02*
X104907580Y-85162952D01*
X104907580Y-85162952D02*
X104955200Y-85210571D01*
X104955200Y-85210571D02*
X105002819Y-85305809D01*
X105002819Y-85305809D02*
X105002819Y-85543904D01*
X105002819Y-85543904D02*
X104955200Y-85639142D01*
X104955200Y-85639142D02*
X104907580Y-85686761D01*
X102140019Y-74963257D02*
X101663828Y-75296590D01*
X102140019Y-75534685D02*
X101140019Y-75534685D01*
X101140019Y-75534685D02*
X101140019Y-75153733D01*
X101140019Y-75153733D02*
X101187638Y-75058495D01*
X101187638Y-75058495D02*
X101235257Y-75010876D01*
X101235257Y-75010876D02*
X101330495Y-74963257D01*
X101330495Y-74963257D02*
X101473352Y-74963257D01*
X101473352Y-74963257D02*
X101568590Y-75010876D01*
X101568590Y-75010876D02*
X101616209Y-75058495D01*
X101616209Y-75058495D02*
X101663828Y-75153733D01*
X101663828Y-75153733D02*
X101663828Y-75534685D01*
X102140019Y-74010876D02*
X102140019Y-74582304D01*
X102140019Y-74296590D02*
X101140019Y-74296590D01*
X101140019Y-74296590D02*
X101282876Y-74391828D01*
X101282876Y-74391828D02*
X101378114Y-74487066D01*
X101378114Y-74487066D02*
X101425733Y-74582304D01*
X101140019Y-73391828D02*
X101140019Y-73296590D01*
X101140019Y-73296590D02*
X101187638Y-73201352D01*
X101187638Y-73201352D02*
X101235257Y-73153733D01*
X101235257Y-73153733D02*
X101330495Y-73106114D01*
X101330495Y-73106114D02*
X101520971Y-73058495D01*
X101520971Y-73058495D02*
X101759066Y-73058495D01*
X101759066Y-73058495D02*
X101949542Y-73106114D01*
X101949542Y-73106114D02*
X102044780Y-73153733D01*
X102044780Y-73153733D02*
X102092400Y-73201352D01*
X102092400Y-73201352D02*
X102140019Y-73296590D01*
X102140019Y-73296590D02*
X102140019Y-73391828D01*
X102140019Y-73391828D02*
X102092400Y-73487066D01*
X102092400Y-73487066D02*
X102044780Y-73534685D01*
X102044780Y-73534685D02*
X101949542Y-73582304D01*
X101949542Y-73582304D02*
X101759066Y-73629923D01*
X101759066Y-73629923D02*
X101520971Y-73629923D01*
X101520971Y-73629923D02*
X101330495Y-73582304D01*
X101330495Y-73582304D02*
X101235257Y-73534685D01*
X101235257Y-73534685D02*
X101187638Y-73487066D01*
X101187638Y-73487066D02*
X101140019Y-73391828D01*
X93933219Y-72788266D02*
X93457028Y-73121599D01*
X93933219Y-73359694D02*
X92933219Y-73359694D01*
X92933219Y-73359694D02*
X92933219Y-72978742D01*
X92933219Y-72978742D02*
X92980838Y-72883504D01*
X92980838Y-72883504D02*
X93028457Y-72835885D01*
X93028457Y-72835885D02*
X93123695Y-72788266D01*
X93123695Y-72788266D02*
X93266552Y-72788266D01*
X93266552Y-72788266D02*
X93361790Y-72835885D01*
X93361790Y-72835885D02*
X93409409Y-72883504D01*
X93409409Y-72883504D02*
X93457028Y-72978742D01*
X93457028Y-72978742D02*
X93457028Y-73359694D01*
X92933219Y-72454932D02*
X92933219Y-71835885D01*
X92933219Y-71835885D02*
X93314171Y-72169218D01*
X93314171Y-72169218D02*
X93314171Y-72026361D01*
X93314171Y-72026361D02*
X93361790Y-71931123D01*
X93361790Y-71931123D02*
X93409409Y-71883504D01*
X93409409Y-71883504D02*
X93504647Y-71835885D01*
X93504647Y-71835885D02*
X93742742Y-71835885D01*
X93742742Y-71835885D02*
X93837980Y-71883504D01*
X93837980Y-71883504D02*
X93885600Y-71931123D01*
X93885600Y-71931123D02*
X93933219Y-72026361D01*
X93933219Y-72026361D02*
X93933219Y-72312075D01*
X93933219Y-72312075D02*
X93885600Y-72407313D01*
X93885600Y-72407313D02*
X93837980Y-72454932D01*
X67011333Y-108621580D02*
X66963714Y-108669200D01*
X66963714Y-108669200D02*
X66820857Y-108716819D01*
X66820857Y-108716819D02*
X66725619Y-108716819D01*
X66725619Y-108716819D02*
X66582762Y-108669200D01*
X66582762Y-108669200D02*
X66487524Y-108573961D01*
X66487524Y-108573961D02*
X66439905Y-108478723D01*
X66439905Y-108478723D02*
X66392286Y-108288247D01*
X66392286Y-108288247D02*
X66392286Y-108145390D01*
X66392286Y-108145390D02*
X66439905Y-107954914D01*
X66439905Y-107954914D02*
X66487524Y-107859676D01*
X66487524Y-107859676D02*
X66582762Y-107764438D01*
X66582762Y-107764438D02*
X66725619Y-107716819D01*
X66725619Y-107716819D02*
X66820857Y-107716819D01*
X66820857Y-107716819D02*
X66963714Y-107764438D01*
X66963714Y-107764438D02*
X67011333Y-107812057D01*
X67963714Y-108716819D02*
X67392286Y-108716819D01*
X67678000Y-108716819D02*
X67678000Y-107716819D01*
X67678000Y-107716819D02*
X67582762Y-107859676D01*
X67582762Y-107859676D02*
X67487524Y-107954914D01*
X67487524Y-107954914D02*
X67392286Y-108002533D01*
X65042819Y-86273904D02*
X65852342Y-86273904D01*
X65852342Y-86273904D02*
X65947580Y-86226285D01*
X65947580Y-86226285D02*
X65995200Y-86178666D01*
X65995200Y-86178666D02*
X66042819Y-86083428D01*
X66042819Y-86083428D02*
X66042819Y-85892952D01*
X66042819Y-85892952D02*
X65995200Y-85797714D01*
X65995200Y-85797714D02*
X65947580Y-85750095D01*
X65947580Y-85750095D02*
X65852342Y-85702476D01*
X65852342Y-85702476D02*
X65042819Y-85702476D01*
X66042819Y-84702476D02*
X66042819Y-85273904D01*
X66042819Y-84988190D02*
X65042819Y-84988190D01*
X65042819Y-84988190D02*
X65185676Y-85083428D01*
X65185676Y-85083428D02*
X65280914Y-85178666D01*
X65280914Y-85178666D02*
X65328533Y-85273904D01*
X89544095Y-99683219D02*
X89544095Y-100492742D01*
X89544095Y-100492742D02*
X89591714Y-100587980D01*
X89591714Y-100587980D02*
X89639333Y-100635600D01*
X89639333Y-100635600D02*
X89734571Y-100683219D01*
X89734571Y-100683219D02*
X89925047Y-100683219D01*
X89925047Y-100683219D02*
X90020285Y-100635600D01*
X90020285Y-100635600D02*
X90067904Y-100587980D01*
X90067904Y-100587980D02*
X90115523Y-100492742D01*
X90115523Y-100492742D02*
X90115523Y-99683219D01*
X91020285Y-100016552D02*
X91020285Y-100683219D01*
X90782190Y-99635600D02*
X90544095Y-100349885D01*
X90544095Y-100349885D02*
X91163142Y-100349885D01*
X101778057Y-110483638D02*
X101730438Y-110578876D01*
X101730438Y-110578876D02*
X101635200Y-110674114D01*
X101635200Y-110674114D02*
X101492342Y-110816971D01*
X101492342Y-110816971D02*
X101444723Y-110912209D01*
X101444723Y-110912209D02*
X101444723Y-111007447D01*
X101682819Y-110959828D02*
X101635200Y-111055066D01*
X101635200Y-111055066D02*
X101539961Y-111150304D01*
X101539961Y-111150304D02*
X101349485Y-111197923D01*
X101349485Y-111197923D02*
X101016152Y-111197923D01*
X101016152Y-111197923D02*
X100825676Y-111150304D01*
X100825676Y-111150304D02*
X100730438Y-111055066D01*
X100730438Y-111055066D02*
X100682819Y-110959828D01*
X100682819Y-110959828D02*
X100682819Y-110769352D01*
X100682819Y-110769352D02*
X100730438Y-110674114D01*
X100730438Y-110674114D02*
X100825676Y-110578876D01*
X100825676Y-110578876D02*
X101016152Y-110531257D01*
X101016152Y-110531257D02*
X101349485Y-110531257D01*
X101349485Y-110531257D02*
X101539961Y-110578876D01*
X101539961Y-110578876D02*
X101635200Y-110674114D01*
X101635200Y-110674114D02*
X101682819Y-110769352D01*
X101682819Y-110769352D02*
X101682819Y-110959828D01*
X101016152Y-109674114D02*
X101682819Y-109674114D01*
X100635200Y-109912209D02*
X101349485Y-110150304D01*
X101349485Y-110150304D02*
X101349485Y-109531257D01*
X101581219Y-97620057D02*
X101105028Y-97953390D01*
X101581219Y-98191485D02*
X100581219Y-98191485D01*
X100581219Y-98191485D02*
X100581219Y-97810533D01*
X100581219Y-97810533D02*
X100628838Y-97715295D01*
X100628838Y-97715295D02*
X100676457Y-97667676D01*
X100676457Y-97667676D02*
X100771695Y-97620057D01*
X100771695Y-97620057D02*
X100914552Y-97620057D01*
X100914552Y-97620057D02*
X101009790Y-97667676D01*
X101009790Y-97667676D02*
X101057409Y-97715295D01*
X101057409Y-97715295D02*
X101105028Y-97810533D01*
X101105028Y-97810533D02*
X101105028Y-98191485D01*
X101581219Y-96667676D02*
X101581219Y-97239104D01*
X101581219Y-96953390D02*
X100581219Y-96953390D01*
X100581219Y-96953390D02*
X100724076Y-97048628D01*
X100724076Y-97048628D02*
X100819314Y-97143866D01*
X100819314Y-97143866D02*
X100866933Y-97239104D01*
X100581219Y-96334342D02*
X100581219Y-95667676D01*
X100581219Y-95667676D02*
X101581219Y-96096247D01*
X87243733Y-92656819D02*
X86767543Y-92656819D01*
X86767543Y-92656819D02*
X86767543Y-91656819D01*
X88100876Y-92656819D02*
X87529448Y-92656819D01*
X87815162Y-92656819D02*
X87815162Y-91656819D01*
X87815162Y-91656819D02*
X87719924Y-91799676D01*
X87719924Y-91799676D02*
X87624686Y-91894914D01*
X87624686Y-91894914D02*
X87529448Y-91942533D01*
X107685961Y-74464057D02*
X107590723Y-74416438D01*
X107590723Y-74416438D02*
X107495485Y-74321200D01*
X107495485Y-74321200D02*
X107352628Y-74178342D01*
X107352628Y-74178342D02*
X107257390Y-74130723D01*
X107257390Y-74130723D02*
X107162152Y-74130723D01*
X107209771Y-74368819D02*
X107114533Y-74321200D01*
X107114533Y-74321200D02*
X107019295Y-74225961D01*
X107019295Y-74225961D02*
X106971676Y-74035485D01*
X106971676Y-74035485D02*
X106971676Y-73702152D01*
X106971676Y-73702152D02*
X107019295Y-73511676D01*
X107019295Y-73511676D02*
X107114533Y-73416438D01*
X107114533Y-73416438D02*
X107209771Y-73368819D01*
X107209771Y-73368819D02*
X107400247Y-73368819D01*
X107400247Y-73368819D02*
X107495485Y-73416438D01*
X107495485Y-73416438D02*
X107590723Y-73511676D01*
X107590723Y-73511676D02*
X107638342Y-73702152D01*
X107638342Y-73702152D02*
X107638342Y-74035485D01*
X107638342Y-74035485D02*
X107590723Y-74225961D01*
X107590723Y-74225961D02*
X107495485Y-74321200D01*
X107495485Y-74321200D02*
X107400247Y-74368819D01*
X107400247Y-74368819D02*
X107209771Y-74368819D01*
X108019295Y-73464057D02*
X108066914Y-73416438D01*
X108066914Y-73416438D02*
X108162152Y-73368819D01*
X108162152Y-73368819D02*
X108400247Y-73368819D01*
X108400247Y-73368819D02*
X108495485Y-73416438D01*
X108495485Y-73416438D02*
X108543104Y-73464057D01*
X108543104Y-73464057D02*
X108590723Y-73559295D01*
X108590723Y-73559295D02*
X108590723Y-73654533D01*
X108590723Y-73654533D02*
X108543104Y-73797390D01*
X108543104Y-73797390D02*
X107971676Y-74368819D01*
X107971676Y-74368819D02*
X108590723Y-74368819D01*
X83245142Y-67481219D02*
X82911809Y-67005028D01*
X82673714Y-67481219D02*
X82673714Y-66481219D01*
X82673714Y-66481219D02*
X83054666Y-66481219D01*
X83054666Y-66481219D02*
X83149904Y-66528838D01*
X83149904Y-66528838D02*
X83197523Y-66576457D01*
X83197523Y-66576457D02*
X83245142Y-66671695D01*
X83245142Y-66671695D02*
X83245142Y-66814552D01*
X83245142Y-66814552D02*
X83197523Y-66909790D01*
X83197523Y-66909790D02*
X83149904Y-66957409D01*
X83149904Y-66957409D02*
X83054666Y-67005028D01*
X83054666Y-67005028D02*
X82673714Y-67005028D01*
X84197523Y-67481219D02*
X83626095Y-67481219D01*
X83911809Y-67481219D02*
X83911809Y-66481219D01*
X83911809Y-66481219D02*
X83816571Y-66624076D01*
X83816571Y-66624076D02*
X83721333Y-66719314D01*
X83721333Y-66719314D02*
X83626095Y-66766933D01*
X84530857Y-66481219D02*
X85149904Y-66481219D01*
X85149904Y-66481219D02*
X84816571Y-66862171D01*
X84816571Y-66862171D02*
X84959428Y-66862171D01*
X84959428Y-66862171D02*
X85054666Y-66909790D01*
X85054666Y-66909790D02*
X85102285Y-66957409D01*
X85102285Y-66957409D02*
X85149904Y-67052647D01*
X85149904Y-67052647D02*
X85149904Y-67290742D01*
X85149904Y-67290742D02*
X85102285Y-67385980D01*
X85102285Y-67385980D02*
X85054666Y-67433600D01*
X85054666Y-67433600D02*
X84959428Y-67481219D01*
X84959428Y-67481219D02*
X84673714Y-67481219D01*
X84673714Y-67481219D02*
X84578476Y-67433600D01*
X84578476Y-67433600D02*
X84530857Y-67385980D01*
X115356761Y-73803657D02*
X115261523Y-73756038D01*
X115261523Y-73756038D02*
X115166285Y-73660800D01*
X115166285Y-73660800D02*
X115023428Y-73517942D01*
X115023428Y-73517942D02*
X114928190Y-73470323D01*
X114928190Y-73470323D02*
X114832952Y-73470323D01*
X114880571Y-73708419D02*
X114785333Y-73660800D01*
X114785333Y-73660800D02*
X114690095Y-73565561D01*
X114690095Y-73565561D02*
X114642476Y-73375085D01*
X114642476Y-73375085D02*
X114642476Y-73041752D01*
X114642476Y-73041752D02*
X114690095Y-72851276D01*
X114690095Y-72851276D02*
X114785333Y-72756038D01*
X114785333Y-72756038D02*
X114880571Y-72708419D01*
X114880571Y-72708419D02*
X115071047Y-72708419D01*
X115071047Y-72708419D02*
X115166285Y-72756038D01*
X115166285Y-72756038D02*
X115261523Y-72851276D01*
X115261523Y-72851276D02*
X115309142Y-73041752D01*
X115309142Y-73041752D02*
X115309142Y-73375085D01*
X115309142Y-73375085D02*
X115261523Y-73565561D01*
X115261523Y-73565561D02*
X115166285Y-73660800D01*
X115166285Y-73660800D02*
X115071047Y-73708419D01*
X115071047Y-73708419D02*
X114880571Y-73708419D01*
X116213904Y-72708419D02*
X115737714Y-72708419D01*
X115737714Y-72708419D02*
X115690095Y-73184609D01*
X115690095Y-73184609D02*
X115737714Y-73136990D01*
X115737714Y-73136990D02*
X115832952Y-73089371D01*
X115832952Y-73089371D02*
X116071047Y-73089371D01*
X116071047Y-73089371D02*
X116166285Y-73136990D01*
X116166285Y-73136990D02*
X116213904Y-73184609D01*
X116213904Y-73184609D02*
X116261523Y-73279847D01*
X116261523Y-73279847D02*
X116261523Y-73517942D01*
X116261523Y-73517942D02*
X116213904Y-73613180D01*
X116213904Y-73613180D02*
X116166285Y-73660800D01*
X116166285Y-73660800D02*
X116071047Y-73708419D01*
X116071047Y-73708419D02*
X115832952Y-73708419D01*
X115832952Y-73708419D02*
X115737714Y-73660800D01*
X115737714Y-73660800D02*
X115690095Y-73613180D01*
X83734819Y-72678666D02*
X83258628Y-73011999D01*
X83734819Y-73250094D02*
X82734819Y-73250094D01*
X82734819Y-73250094D02*
X82734819Y-72869142D01*
X82734819Y-72869142D02*
X82782438Y-72773904D01*
X82782438Y-72773904D02*
X82830057Y-72726285D01*
X82830057Y-72726285D02*
X82925295Y-72678666D01*
X82925295Y-72678666D02*
X83068152Y-72678666D01*
X83068152Y-72678666D02*
X83163390Y-72726285D01*
X83163390Y-72726285D02*
X83211009Y-72773904D01*
X83211009Y-72773904D02*
X83258628Y-72869142D01*
X83258628Y-72869142D02*
X83258628Y-73250094D01*
X83068152Y-71821523D02*
X83734819Y-71821523D01*
X82687200Y-72059618D02*
X83401485Y-72297713D01*
X83401485Y-72297713D02*
X83401485Y-71678666D01*
X110115619Y-75318857D02*
X109639428Y-75652190D01*
X110115619Y-75890285D02*
X109115619Y-75890285D01*
X109115619Y-75890285D02*
X109115619Y-75509333D01*
X109115619Y-75509333D02*
X109163238Y-75414095D01*
X109163238Y-75414095D02*
X109210857Y-75366476D01*
X109210857Y-75366476D02*
X109306095Y-75318857D01*
X109306095Y-75318857D02*
X109448952Y-75318857D01*
X109448952Y-75318857D02*
X109544190Y-75366476D01*
X109544190Y-75366476D02*
X109591809Y-75414095D01*
X109591809Y-75414095D02*
X109639428Y-75509333D01*
X109639428Y-75509333D02*
X109639428Y-75890285D01*
X110115619Y-74366476D02*
X110115619Y-74937904D01*
X110115619Y-74652190D02*
X109115619Y-74652190D01*
X109115619Y-74652190D02*
X109258476Y-74747428D01*
X109258476Y-74747428D02*
X109353714Y-74842666D01*
X109353714Y-74842666D02*
X109401333Y-74937904D01*
X110115619Y-73414095D02*
X110115619Y-73985523D01*
X110115619Y-73699809D02*
X109115619Y-73699809D01*
X109115619Y-73699809D02*
X109258476Y-73795047D01*
X109258476Y-73795047D02*
X109353714Y-73890285D01*
X109353714Y-73890285D02*
X109401333Y-73985523D01*
X81194819Y-72554666D02*
X80718628Y-72887999D01*
X81194819Y-73126094D02*
X80194819Y-73126094D01*
X80194819Y-73126094D02*
X80194819Y-72745142D01*
X80194819Y-72745142D02*
X80242438Y-72649904D01*
X80242438Y-72649904D02*
X80290057Y-72602285D01*
X80290057Y-72602285D02*
X80385295Y-72554666D01*
X80385295Y-72554666D02*
X80528152Y-72554666D01*
X80528152Y-72554666D02*
X80623390Y-72602285D01*
X80623390Y-72602285D02*
X80671009Y-72649904D01*
X80671009Y-72649904D02*
X80718628Y-72745142D01*
X80718628Y-72745142D02*
X80718628Y-73126094D01*
X81194819Y-72078475D02*
X81194819Y-71887999D01*
X81194819Y-71887999D02*
X81147200Y-71792761D01*
X81147200Y-71792761D02*
X81099580Y-71745142D01*
X81099580Y-71745142D02*
X80956723Y-71649904D01*
X80956723Y-71649904D02*
X80766247Y-71602285D01*
X80766247Y-71602285D02*
X80385295Y-71602285D01*
X80385295Y-71602285D02*
X80290057Y-71649904D01*
X80290057Y-71649904D02*
X80242438Y-71697523D01*
X80242438Y-71697523D02*
X80194819Y-71792761D01*
X80194819Y-71792761D02*
X80194819Y-71983237D01*
X80194819Y-71983237D02*
X80242438Y-72078475D01*
X80242438Y-72078475D02*
X80290057Y-72126094D01*
X80290057Y-72126094D02*
X80385295Y-72173713D01*
X80385295Y-72173713D02*
X80623390Y-72173713D01*
X80623390Y-72173713D02*
X80718628Y-72126094D01*
X80718628Y-72126094D02*
X80766247Y-72078475D01*
X80766247Y-72078475D02*
X80813866Y-71983237D01*
X80813866Y-71983237D02*
X80813866Y-71792761D01*
X80813866Y-71792761D02*
X80766247Y-71697523D01*
X80766247Y-71697523D02*
X80718628Y-71649904D01*
X80718628Y-71649904D02*
X80623390Y-71602285D01*
X104984819Y-97569257D02*
X104508628Y-97902590D01*
X104984819Y-98140685D02*
X103984819Y-98140685D01*
X103984819Y-98140685D02*
X103984819Y-97759733D01*
X103984819Y-97759733D02*
X104032438Y-97664495D01*
X104032438Y-97664495D02*
X104080057Y-97616876D01*
X104080057Y-97616876D02*
X104175295Y-97569257D01*
X104175295Y-97569257D02*
X104318152Y-97569257D01*
X104318152Y-97569257D02*
X104413390Y-97616876D01*
X104413390Y-97616876D02*
X104461009Y-97664495D01*
X104461009Y-97664495D02*
X104508628Y-97759733D01*
X104508628Y-97759733D02*
X104508628Y-98140685D01*
X104984819Y-96616876D02*
X104984819Y-97188304D01*
X104984819Y-96902590D02*
X103984819Y-96902590D01*
X103984819Y-96902590D02*
X104127676Y-96997828D01*
X104127676Y-96997828D02*
X104222914Y-97093066D01*
X104222914Y-97093066D02*
X104270533Y-97188304D01*
X104318152Y-95759733D02*
X104984819Y-95759733D01*
X103937200Y-95997828D02*
X104651485Y-96235923D01*
X104651485Y-96235923D02*
X104651485Y-95616876D01*
X91354819Y-72808666D02*
X90878628Y-73141999D01*
X91354819Y-73380094D02*
X90354819Y-73380094D01*
X90354819Y-73380094D02*
X90354819Y-72999142D01*
X90354819Y-72999142D02*
X90402438Y-72903904D01*
X90402438Y-72903904D02*
X90450057Y-72856285D01*
X90450057Y-72856285D02*
X90545295Y-72808666D01*
X90545295Y-72808666D02*
X90688152Y-72808666D01*
X90688152Y-72808666D02*
X90783390Y-72856285D01*
X90783390Y-72856285D02*
X90831009Y-72903904D01*
X90831009Y-72903904D02*
X90878628Y-72999142D01*
X90878628Y-72999142D02*
X90878628Y-73380094D01*
X90354819Y-71903904D02*
X90354819Y-72380094D01*
X90354819Y-72380094D02*
X90831009Y-72427713D01*
X90831009Y-72427713D02*
X90783390Y-72380094D01*
X90783390Y-72380094D02*
X90735771Y-72284856D01*
X90735771Y-72284856D02*
X90735771Y-72046761D01*
X90735771Y-72046761D02*
X90783390Y-71951523D01*
X90783390Y-71951523D02*
X90831009Y-71903904D01*
X90831009Y-71903904D02*
X90926247Y-71856285D01*
X90926247Y-71856285D02*
X91164342Y-71856285D01*
X91164342Y-71856285D02*
X91259580Y-71903904D01*
X91259580Y-71903904D02*
X91307200Y-71951523D01*
X91307200Y-71951523D02*
X91354819Y-72046761D01*
X91354819Y-72046761D02*
X91354819Y-72284856D01*
X91354819Y-72284856D02*
X91307200Y-72380094D01*
X91307200Y-72380094D02*
X91259580Y-72427713D01*
X113300819Y-118594094D02*
X112300819Y-118594094D01*
X113300819Y-118022666D02*
X112729390Y-118451237D01*
X112300819Y-118022666D02*
X112872247Y-118594094D01*
X113300819Y-117070285D02*
X113300819Y-117641713D01*
X113300819Y-117355999D02*
X112300819Y-117355999D01*
X112300819Y-117355999D02*
X112443676Y-117451237D01*
X112443676Y-117451237D02*
X112538914Y-117546475D01*
X112538914Y-117546475D02*
X112586533Y-117641713D01*
X103875333Y-65677019D02*
X103542000Y-65200828D01*
X103303905Y-65677019D02*
X103303905Y-64677019D01*
X103303905Y-64677019D02*
X103684857Y-64677019D01*
X103684857Y-64677019D02*
X103780095Y-64724638D01*
X103780095Y-64724638D02*
X103827714Y-64772257D01*
X103827714Y-64772257D02*
X103875333Y-64867495D01*
X103875333Y-64867495D02*
X103875333Y-65010352D01*
X103875333Y-65010352D02*
X103827714Y-65105590D01*
X103827714Y-65105590D02*
X103780095Y-65153209D01*
X103780095Y-65153209D02*
X103684857Y-65200828D01*
X103684857Y-65200828D02*
X103303905Y-65200828D01*
X104446762Y-65105590D02*
X104351524Y-65057971D01*
X104351524Y-65057971D02*
X104303905Y-65010352D01*
X104303905Y-65010352D02*
X104256286Y-64915114D01*
X104256286Y-64915114D02*
X104256286Y-64867495D01*
X104256286Y-64867495D02*
X104303905Y-64772257D01*
X104303905Y-64772257D02*
X104351524Y-64724638D01*
X104351524Y-64724638D02*
X104446762Y-64677019D01*
X104446762Y-64677019D02*
X104637238Y-64677019D01*
X104637238Y-64677019D02*
X104732476Y-64724638D01*
X104732476Y-64724638D02*
X104780095Y-64772257D01*
X104780095Y-64772257D02*
X104827714Y-64867495D01*
X104827714Y-64867495D02*
X104827714Y-64915114D01*
X104827714Y-64915114D02*
X104780095Y-65010352D01*
X104780095Y-65010352D02*
X104732476Y-65057971D01*
X104732476Y-65057971D02*
X104637238Y-65105590D01*
X104637238Y-65105590D02*
X104446762Y-65105590D01*
X104446762Y-65105590D02*
X104351524Y-65153209D01*
X104351524Y-65153209D02*
X104303905Y-65200828D01*
X104303905Y-65200828D02*
X104256286Y-65296066D01*
X104256286Y-65296066D02*
X104256286Y-65486542D01*
X104256286Y-65486542D02*
X104303905Y-65581780D01*
X104303905Y-65581780D02*
X104351524Y-65629400D01*
X104351524Y-65629400D02*
X104446762Y-65677019D01*
X104446762Y-65677019D02*
X104637238Y-65677019D01*
X104637238Y-65677019D02*
X104732476Y-65629400D01*
X104732476Y-65629400D02*
X104780095Y-65581780D01*
X104780095Y-65581780D02*
X104827714Y-65486542D01*
X104827714Y-65486542D02*
X104827714Y-65296066D01*
X104827714Y-65296066D02*
X104780095Y-65200828D01*
X104780095Y-65200828D02*
X104732476Y-65153209D01*
X104732476Y-65153209D02*
X104637238Y-65105590D01*
X86274819Y-72808666D02*
X85798628Y-73141999D01*
X86274819Y-73380094D02*
X85274819Y-73380094D01*
X85274819Y-73380094D02*
X85274819Y-72999142D01*
X85274819Y-72999142D02*
X85322438Y-72903904D01*
X85322438Y-72903904D02*
X85370057Y-72856285D01*
X85370057Y-72856285D02*
X85465295Y-72808666D01*
X85465295Y-72808666D02*
X85608152Y-72808666D01*
X85608152Y-72808666D02*
X85703390Y-72856285D01*
X85703390Y-72856285D02*
X85751009Y-72903904D01*
X85751009Y-72903904D02*
X85798628Y-72999142D01*
X85798628Y-72999142D02*
X85798628Y-73380094D01*
X85274819Y-72475332D02*
X85274819Y-71808666D01*
X85274819Y-71808666D02*
X86274819Y-72237237D01*
X90799733Y-98505180D02*
X90752114Y-98552800D01*
X90752114Y-98552800D02*
X90609257Y-98600419D01*
X90609257Y-98600419D02*
X90514019Y-98600419D01*
X90514019Y-98600419D02*
X90371162Y-98552800D01*
X90371162Y-98552800D02*
X90275924Y-98457561D01*
X90275924Y-98457561D02*
X90228305Y-98362323D01*
X90228305Y-98362323D02*
X90180686Y-98171847D01*
X90180686Y-98171847D02*
X90180686Y-98028990D01*
X90180686Y-98028990D02*
X90228305Y-97838514D01*
X90228305Y-97838514D02*
X90275924Y-97743276D01*
X90275924Y-97743276D02*
X90371162Y-97648038D01*
X90371162Y-97648038D02*
X90514019Y-97600419D01*
X90514019Y-97600419D02*
X90609257Y-97600419D01*
X90609257Y-97600419D02*
X90752114Y-97648038D01*
X90752114Y-97648038D02*
X90799733Y-97695657D01*
X91371162Y-98028990D02*
X91275924Y-97981371D01*
X91275924Y-97981371D02*
X91228305Y-97933752D01*
X91228305Y-97933752D02*
X91180686Y-97838514D01*
X91180686Y-97838514D02*
X91180686Y-97790895D01*
X91180686Y-97790895D02*
X91228305Y-97695657D01*
X91228305Y-97695657D02*
X91275924Y-97648038D01*
X91275924Y-97648038D02*
X91371162Y-97600419D01*
X91371162Y-97600419D02*
X91561638Y-97600419D01*
X91561638Y-97600419D02*
X91656876Y-97648038D01*
X91656876Y-97648038D02*
X91704495Y-97695657D01*
X91704495Y-97695657D02*
X91752114Y-97790895D01*
X91752114Y-97790895D02*
X91752114Y-97838514D01*
X91752114Y-97838514D02*
X91704495Y-97933752D01*
X91704495Y-97933752D02*
X91656876Y-97981371D01*
X91656876Y-97981371D02*
X91561638Y-98028990D01*
X91561638Y-98028990D02*
X91371162Y-98028990D01*
X91371162Y-98028990D02*
X91275924Y-98076609D01*
X91275924Y-98076609D02*
X91228305Y-98124228D01*
X91228305Y-98124228D02*
X91180686Y-98219466D01*
X91180686Y-98219466D02*
X91180686Y-98409942D01*
X91180686Y-98409942D02*
X91228305Y-98505180D01*
X91228305Y-98505180D02*
X91275924Y-98552800D01*
X91275924Y-98552800D02*
X91371162Y-98600419D01*
X91371162Y-98600419D02*
X91561638Y-98600419D01*
X91561638Y-98600419D02*
X91656876Y-98552800D01*
X91656876Y-98552800D02*
X91704495Y-98505180D01*
X91704495Y-98505180D02*
X91752114Y-98409942D01*
X91752114Y-98409942D02*
X91752114Y-98219466D01*
X91752114Y-98219466D02*
X91704495Y-98124228D01*
X91704495Y-98124228D02*
X91656876Y-98076609D01*
X91656876Y-98076609D02*
X91561638Y-98028990D01*
X82093942Y-92663180D02*
X82046323Y-92710800D01*
X82046323Y-92710800D02*
X81903466Y-92758419D01*
X81903466Y-92758419D02*
X81808228Y-92758419D01*
X81808228Y-92758419D02*
X81665371Y-92710800D01*
X81665371Y-92710800D02*
X81570133Y-92615561D01*
X81570133Y-92615561D02*
X81522514Y-92520323D01*
X81522514Y-92520323D02*
X81474895Y-92329847D01*
X81474895Y-92329847D02*
X81474895Y-92186990D01*
X81474895Y-92186990D02*
X81522514Y-91996514D01*
X81522514Y-91996514D02*
X81570133Y-91901276D01*
X81570133Y-91901276D02*
X81665371Y-91806038D01*
X81665371Y-91806038D02*
X81808228Y-91758419D01*
X81808228Y-91758419D02*
X81903466Y-91758419D01*
X81903466Y-91758419D02*
X82046323Y-91806038D01*
X82046323Y-91806038D02*
X82093942Y-91853657D01*
X83046323Y-92758419D02*
X82474895Y-92758419D01*
X82760609Y-92758419D02*
X82760609Y-91758419D01*
X82760609Y-91758419D02*
X82665371Y-91901276D01*
X82665371Y-91901276D02*
X82570133Y-91996514D01*
X82570133Y-91996514D02*
X82474895Y-92044133D01*
X83665371Y-91758419D02*
X83760609Y-91758419D01*
X83760609Y-91758419D02*
X83855847Y-91806038D01*
X83855847Y-91806038D02*
X83903466Y-91853657D01*
X83903466Y-91853657D02*
X83951085Y-91948895D01*
X83951085Y-91948895D02*
X83998704Y-92139371D01*
X83998704Y-92139371D02*
X83998704Y-92377466D01*
X83998704Y-92377466D02*
X83951085Y-92567942D01*
X83951085Y-92567942D02*
X83903466Y-92663180D01*
X83903466Y-92663180D02*
X83855847Y-92710800D01*
X83855847Y-92710800D02*
X83760609Y-92758419D01*
X83760609Y-92758419D02*
X83665371Y-92758419D01*
X83665371Y-92758419D02*
X83570133Y-92710800D01*
X83570133Y-92710800D02*
X83522514Y-92663180D01*
X83522514Y-92663180D02*
X83474895Y-92567942D01*
X83474895Y-92567942D02*
X83427276Y-92377466D01*
X83427276Y-92377466D02*
X83427276Y-92139371D01*
X83427276Y-92139371D02*
X83474895Y-91948895D01*
X83474895Y-91948895D02*
X83522514Y-91853657D01*
X83522514Y-91853657D02*
X83570133Y-91806038D01*
X83570133Y-91806038D02*
X83665371Y-91758419D01*
X113281219Y-114074533D02*
X113995504Y-114074533D01*
X113995504Y-114074533D02*
X114138361Y-114122152D01*
X114138361Y-114122152D02*
X114233600Y-114217390D01*
X114233600Y-114217390D02*
X114281219Y-114360247D01*
X114281219Y-114360247D02*
X114281219Y-114455485D01*
X113281219Y-113693580D02*
X113281219Y-113026914D01*
X113281219Y-113026914D02*
X114281219Y-113455485D01*
X108845619Y-110720094D02*
X107845619Y-110720094D01*
X107845619Y-110720094D02*
X107845619Y-110481999D01*
X107845619Y-110481999D02*
X107893238Y-110339142D01*
X107893238Y-110339142D02*
X107988476Y-110243904D01*
X107988476Y-110243904D02*
X108083714Y-110196285D01*
X108083714Y-110196285D02*
X108274190Y-110148666D01*
X108274190Y-110148666D02*
X108417047Y-110148666D01*
X108417047Y-110148666D02*
X108607523Y-110196285D01*
X108607523Y-110196285D02*
X108702761Y-110243904D01*
X108702761Y-110243904D02*
X108798000Y-110339142D01*
X108798000Y-110339142D02*
X108845619Y-110481999D01*
X108845619Y-110481999D02*
X108845619Y-110720094D01*
X108845619Y-109196285D02*
X108845619Y-109767713D01*
X108845619Y-109481999D02*
X107845619Y-109481999D01*
X107845619Y-109481999D02*
X107988476Y-109577237D01*
X107988476Y-109577237D02*
X108083714Y-109672475D01*
X108083714Y-109672475D02*
X108131333Y-109767713D01*
X109074319Y-112813904D02*
X108074319Y-112813904D01*
X109074319Y-112242476D02*
X108502890Y-112671047D01*
X108074319Y-112242476D02*
X108645747Y-112813904D01*
X107423219Y-97670857D02*
X106947028Y-98004190D01*
X107423219Y-98242285D02*
X106423219Y-98242285D01*
X106423219Y-98242285D02*
X106423219Y-97861333D01*
X106423219Y-97861333D02*
X106470838Y-97766095D01*
X106470838Y-97766095D02*
X106518457Y-97718476D01*
X106518457Y-97718476D02*
X106613695Y-97670857D01*
X106613695Y-97670857D02*
X106756552Y-97670857D01*
X106756552Y-97670857D02*
X106851790Y-97718476D01*
X106851790Y-97718476D02*
X106899409Y-97766095D01*
X106899409Y-97766095D02*
X106947028Y-97861333D01*
X106947028Y-97861333D02*
X106947028Y-98242285D01*
X107423219Y-96718476D02*
X107423219Y-97289904D01*
X107423219Y-97004190D02*
X106423219Y-97004190D01*
X106423219Y-97004190D02*
X106566076Y-97099428D01*
X106566076Y-97099428D02*
X106661314Y-97194666D01*
X106661314Y-97194666D02*
X106708933Y-97289904D01*
X106423219Y-95861333D02*
X106423219Y-96051809D01*
X106423219Y-96051809D02*
X106470838Y-96147047D01*
X106470838Y-96147047D02*
X106518457Y-96194666D01*
X106518457Y-96194666D02*
X106661314Y-96289904D01*
X106661314Y-96289904D02*
X106851790Y-96337523D01*
X106851790Y-96337523D02*
X107232742Y-96337523D01*
X107232742Y-96337523D02*
X107327980Y-96289904D01*
X107327980Y-96289904D02*
X107375600Y-96242285D01*
X107375600Y-96242285D02*
X107423219Y-96147047D01*
X107423219Y-96147047D02*
X107423219Y-95956571D01*
X107423219Y-95956571D02*
X107375600Y-95861333D01*
X107375600Y-95861333D02*
X107327980Y-95813714D01*
X107327980Y-95813714D02*
X107232742Y-95766095D01*
X107232742Y-95766095D02*
X106994647Y-95766095D01*
X106994647Y-95766095D02*
X106899409Y-95813714D01*
X106899409Y-95813714D02*
X106851790Y-95861333D01*
X106851790Y-95861333D02*
X106804171Y-95956571D01*
X106804171Y-95956571D02*
X106804171Y-96147047D01*
X106804171Y-96147047D02*
X106851790Y-96242285D01*
X106851790Y-96242285D02*
X106899409Y-96289904D01*
X106899409Y-96289904D02*
X106994647Y-96337523D01*
X92094666Y-57966819D02*
X92094666Y-58681104D01*
X92094666Y-58681104D02*
X92047047Y-58823961D01*
X92047047Y-58823961D02*
X91951809Y-58919200D01*
X91951809Y-58919200D02*
X91808952Y-58966819D01*
X91808952Y-58966819D02*
X91713714Y-58966819D01*
X92999428Y-58300152D02*
X92999428Y-58966819D01*
X92761333Y-57919200D02*
X92523238Y-58633485D01*
X92523238Y-58633485D02*
X93142285Y-58633485D01*
X115570019Y-80048257D02*
X115093828Y-80381590D01*
X115570019Y-80619685D02*
X114570019Y-80619685D01*
X114570019Y-80619685D02*
X114570019Y-80238733D01*
X114570019Y-80238733D02*
X114617638Y-80143495D01*
X114617638Y-80143495D02*
X114665257Y-80095876D01*
X114665257Y-80095876D02*
X114760495Y-80048257D01*
X114760495Y-80048257D02*
X114903352Y-80048257D01*
X114903352Y-80048257D02*
X114998590Y-80095876D01*
X114998590Y-80095876D02*
X115046209Y-80143495D01*
X115046209Y-80143495D02*
X115093828Y-80238733D01*
X115093828Y-80238733D02*
X115093828Y-80619685D01*
X115570019Y-79095876D02*
X115570019Y-79667304D01*
X115570019Y-79381590D02*
X114570019Y-79381590D01*
X114570019Y-79381590D02*
X114712876Y-79476828D01*
X114712876Y-79476828D02*
X114808114Y-79572066D01*
X114808114Y-79572066D02*
X114855733Y-79667304D01*
X114665257Y-78714923D02*
X114617638Y-78667304D01*
X114617638Y-78667304D02*
X114570019Y-78572066D01*
X114570019Y-78572066D02*
X114570019Y-78333971D01*
X114570019Y-78333971D02*
X114617638Y-78238733D01*
X114617638Y-78238733D02*
X114665257Y-78191114D01*
X114665257Y-78191114D02*
X114760495Y-78143495D01*
X114760495Y-78143495D02*
X114855733Y-78143495D01*
X114855733Y-78143495D02*
X114998590Y-78191114D01*
X114998590Y-78191114D02*
X115570019Y-78762542D01*
X115570019Y-78762542D02*
X115570019Y-78143495D01*
X97932361Y-74006857D02*
X97837123Y-73959238D01*
X97837123Y-73959238D02*
X97741885Y-73864000D01*
X97741885Y-73864000D02*
X97599028Y-73721142D01*
X97599028Y-73721142D02*
X97503790Y-73673523D01*
X97503790Y-73673523D02*
X97408552Y-73673523D01*
X97456171Y-73911619D02*
X97360933Y-73864000D01*
X97360933Y-73864000D02*
X97265695Y-73768761D01*
X97265695Y-73768761D02*
X97218076Y-73578285D01*
X97218076Y-73578285D02*
X97218076Y-73244952D01*
X97218076Y-73244952D02*
X97265695Y-73054476D01*
X97265695Y-73054476D02*
X97360933Y-72959238D01*
X97360933Y-72959238D02*
X97456171Y-72911619D01*
X97456171Y-72911619D02*
X97646647Y-72911619D01*
X97646647Y-72911619D02*
X97741885Y-72959238D01*
X97741885Y-72959238D02*
X97837123Y-73054476D01*
X97837123Y-73054476D02*
X97884742Y-73244952D01*
X97884742Y-73244952D02*
X97884742Y-73578285D01*
X97884742Y-73578285D02*
X97837123Y-73768761D01*
X97837123Y-73768761D02*
X97741885Y-73864000D01*
X97741885Y-73864000D02*
X97646647Y-73911619D01*
X97646647Y-73911619D02*
X97456171Y-73911619D01*
X98837123Y-73911619D02*
X98265695Y-73911619D01*
X98551409Y-73911619D02*
X98551409Y-72911619D01*
X98551409Y-72911619D02*
X98456171Y-73054476D01*
X98456171Y-73054476D02*
X98360933Y-73149714D01*
X98360933Y-73149714D02*
X98265695Y-73197333D01*
%TO.C,TR1*%
D13*
X51602000Y-108862000D02*
X51602000Y-147102000D01*
X51602000Y-108862000D02*
X96842000Y-108862000D01*
X57222000Y-112482000D02*
X91222000Y-112482000D01*
X57222000Y-143482000D02*
X57222000Y-112482000D01*
X91222000Y-112482000D02*
X91222000Y-143482000D01*
X91222000Y-143482000D02*
X57222000Y-143482000D01*
X96842000Y-147102000D02*
X51602000Y-147102000D01*
X96842000Y-147102000D02*
X96842000Y-108862000D01*
%TO.C,C2*%
X77305600Y-97231252D02*
X77305600Y-95808748D01*
X79125600Y-97231252D02*
X79125600Y-95808748D01*
%TO.C,R2*%
X114832000Y-61818000D02*
X110992000Y-61818000D01*
X114832000Y-63658000D02*
X110992000Y-63658000D01*
%TO.C,R1*%
X60700000Y-88488000D02*
X64540000Y-88488000D01*
X60700000Y-90328000D02*
X64540000Y-90328000D01*
%TO.C,R6*%
X87341000Y-74432000D02*
X87341000Y-70592000D01*
X89181000Y-74432000D02*
X89181000Y-70592000D01*
%TO.C,D2*%
X102386000Y-115062000D02*
X103036000Y-115062000D01*
X103636000Y-113942000D02*
X103636000Y-116182000D01*
X103756000Y-113942000D02*
X103756000Y-116182000D01*
X103876000Y-113942000D02*
X103876000Y-116182000D01*
X107926000Y-115062000D02*
X107276000Y-115062000D01*
X103036000Y-113942000D02*
X107276000Y-113942000D01*
X107276000Y-116182000D01*
X103036000Y-116182000D01*
X103036000Y-113942000D01*
%TO.C,R15*%
X97468000Y-100132000D02*
X97468000Y-103972000D01*
X99308000Y-100132000D02*
X99308000Y-103972000D01*
%TO.C,C9*%
X83114252Y-95277000D02*
X82591748Y-95277000D01*
X83114252Y-96747000D02*
X82591748Y-96747000D01*
%TO.C,D3*%
X78307200Y-103411200D02*
X78307200Y-106311200D01*
X78307200Y-106311200D02*
X83407200Y-106311200D01*
X83407200Y-103411200D02*
X78307200Y-103411200D01*
X83407200Y-104111200D02*
X83407200Y-103411200D01*
X83407200Y-106311200D02*
X83407200Y-105511200D01*
X83407200Y-105511200D02*
G75*
G02*
X83407200Y-104111200I0J700000D01*
G01*
%TO.C,Q3*%
X113358000Y-102468000D02*
X116958000Y-102468000D01*
X113346125Y-102459741D02*
G75*
G02*
X114338000Y-98168000I1811875J1841741D01*
G01*
X115938000Y-98168000D02*
G75*
G02*
X116966445Y-102445684I-780000J-2450000D01*
G01*
%TO.C,F1*%
X52778000Y-85012000D02*
X54328000Y-85012000D01*
X52778000Y-91012000D02*
X52778000Y-85012000D01*
X52778000Y-91012000D02*
X54328000Y-91012000D01*
X52778000Y-100012000D02*
X52778000Y-106012000D01*
X52778000Y-100012000D02*
X54328000Y-100012000D01*
X52928000Y-100012000D02*
X52928000Y-91012000D01*
X54328000Y-106012000D02*
X52778000Y-106012000D01*
X56528000Y-106012000D02*
X58078000Y-106012000D01*
X57928000Y-100012000D02*
X57928000Y-91012000D01*
X58078000Y-85012000D02*
X56528000Y-85012000D01*
X58078000Y-91012000D02*
X56528000Y-91012000D01*
X58078000Y-91012000D02*
X58078000Y-85012000D01*
X58078000Y-100012000D02*
X56528000Y-100012000D01*
X58078000Y-106012000D02*
X58078000Y-100012000D01*
%TO.C,J5*%
X105548000Y-83132000D02*
X118468000Y-83132000D01*
X105548000Y-85782000D02*
X105548000Y-83132000D01*
X105548000Y-88432000D02*
X105548000Y-87052000D01*
X106928000Y-88432000D02*
X105548000Y-88432000D01*
X108198000Y-85782000D02*
X105548000Y-85782000D01*
X108198000Y-88432000D02*
X108198000Y-85782000D01*
X108198000Y-88432000D02*
X118468000Y-88432000D01*
X118468000Y-88432000D02*
X118468000Y-83132000D01*
%TO.C,R10*%
X102543200Y-74310000D02*
X102543200Y-70470000D01*
X104383200Y-74310000D02*
X104383200Y-70470000D01*
%TO.C,R3*%
X92586400Y-74411600D02*
X92586400Y-70571600D01*
X94426400Y-74411600D02*
X94426400Y-70571600D01*
%TO.C,C1*%
X59098000Y-99777000D02*
X59098000Y-98247000D01*
X59138000Y-100109000D02*
X59138000Y-97915000D01*
X59178000Y-100363000D02*
X59178000Y-97661000D01*
X59218000Y-100576000D02*
X59218000Y-97448000D01*
X59258000Y-100763000D02*
X59258000Y-97261000D01*
X59298000Y-100932000D02*
X59298000Y-97092000D01*
X59338000Y-101086000D02*
X59338000Y-96938000D01*
X59378000Y-101229000D02*
X59378000Y-96795000D01*
X59418000Y-101363000D02*
X59418000Y-96661000D01*
X59458000Y-101489000D02*
X59458000Y-96535000D01*
X59498000Y-101609000D02*
X59498000Y-96415000D01*
X59538000Y-101722000D02*
X59538000Y-96302000D01*
X59578000Y-101831000D02*
X59578000Y-96193000D01*
X59618000Y-101935000D02*
X59618000Y-96089000D01*
X59658000Y-102035000D02*
X59658000Y-95989000D01*
X59698000Y-102132000D02*
X59698000Y-95892000D01*
X59738000Y-102225000D02*
X59738000Y-95799000D01*
X59778000Y-102315000D02*
X59778000Y-95709000D01*
X59818000Y-102402000D02*
X59818000Y-95622000D01*
X59858000Y-102487000D02*
X59858000Y-95537000D01*
X59898000Y-102569000D02*
X59898000Y-95455000D01*
X59938000Y-102649000D02*
X59938000Y-95375000D01*
X59978000Y-102726000D02*
X59978000Y-95298000D01*
X60018000Y-102802000D02*
X60018000Y-95222000D01*
X60058000Y-102876000D02*
X60058000Y-95148000D01*
X60098000Y-102948000D02*
X60098000Y-95076000D01*
X60138000Y-103018000D02*
X60138000Y-95006000D01*
X60178000Y-103087000D02*
X60178000Y-94937000D01*
X60218000Y-103154000D02*
X60218000Y-94870000D01*
X60258000Y-103220000D02*
X60258000Y-94804000D01*
X60298000Y-103285000D02*
X60298000Y-94739000D01*
X60338000Y-103348000D02*
X60338000Y-94676000D01*
X60378000Y-103410000D02*
X60378000Y-94614000D01*
X60418000Y-103471000D02*
X60418000Y-94553000D01*
X60458000Y-103530000D02*
X60458000Y-94494000D01*
X60498000Y-103588000D02*
X60498000Y-94436000D01*
X60538000Y-103646000D02*
X60538000Y-94378000D01*
X60578000Y-103702000D02*
X60578000Y-94322000D01*
X60618000Y-103757000D02*
X60618000Y-94267000D01*
X60658000Y-103812000D02*
X60658000Y-94212000D01*
X60698000Y-103865000D02*
X60698000Y-94159000D01*
X60738000Y-103918000D02*
X60738000Y-94106000D01*
X60778000Y-103969000D02*
X60778000Y-94055000D01*
X60818000Y-104020000D02*
X60818000Y-94004000D01*
X60858000Y-104070000D02*
X60858000Y-93954000D01*
X60898000Y-104119000D02*
X60898000Y-93905000D01*
X60938000Y-104168000D02*
X60938000Y-93856000D01*
X60978000Y-104216000D02*
X60978000Y-93808000D01*
X61018000Y-104262000D02*
X61018000Y-93762000D01*
X61058000Y-104309000D02*
X61058000Y-93715000D01*
X61098000Y-104354000D02*
X61098000Y-93670000D01*
X61138000Y-104399000D02*
X61138000Y-93625000D01*
X61178000Y-104443000D02*
X61178000Y-93581000D01*
X61218000Y-104487000D02*
X61218000Y-93537000D01*
X61258000Y-104530000D02*
X61258000Y-93494000D01*
X61298000Y-104572000D02*
X61298000Y-93452000D01*
X61338000Y-104614000D02*
X61338000Y-93410000D01*
X61378000Y-104655000D02*
X61378000Y-93369000D01*
X61418000Y-104695000D02*
X61418000Y-93329000D01*
X61458000Y-104735000D02*
X61458000Y-93289000D01*
X61498000Y-104775000D02*
X61498000Y-93249000D01*
X61538000Y-104814000D02*
X61538000Y-93210000D01*
X61578000Y-104852000D02*
X61578000Y-93172000D01*
X61618000Y-104890000D02*
X61618000Y-93134000D01*
X61658000Y-104927000D02*
X61658000Y-93097000D01*
X61698000Y-104964000D02*
X61698000Y-93060000D01*
X61738000Y-105000000D02*
X61738000Y-93024000D01*
X61778000Y-105036000D02*
X61778000Y-92988000D01*
X61818000Y-105072000D02*
X61818000Y-92952000D01*
X61858000Y-105106000D02*
X61858000Y-92918000D01*
X61898000Y-105141000D02*
X61898000Y-92883000D01*
X61938000Y-105175000D02*
X61938000Y-92849000D01*
X61978000Y-105209000D02*
X61978000Y-92815000D01*
X62018000Y-97572000D02*
X62018000Y-92782000D01*
X62018000Y-105242000D02*
X62018000Y-100452000D01*
X62058000Y-97572000D02*
X62058000Y-92750000D01*
X62058000Y-105274000D02*
X62058000Y-100452000D01*
X62098000Y-97572000D02*
X62098000Y-92717000D01*
X62098000Y-105307000D02*
X62098000Y-100452000D01*
X62138000Y-97572000D02*
X62138000Y-92685000D01*
X62138000Y-105339000D02*
X62138000Y-100452000D01*
X62178000Y-97572000D02*
X62178000Y-92654000D01*
X62178000Y-105370000D02*
X62178000Y-100452000D01*
X62218000Y-97572000D02*
X62218000Y-92623000D01*
X62218000Y-105401000D02*
X62218000Y-100452000D01*
X62258000Y-97572000D02*
X62258000Y-92592000D01*
X62258000Y-105432000D02*
X62258000Y-100452000D01*
X62298000Y-97572000D02*
X62298000Y-92562000D01*
X62298000Y-105462000D02*
X62298000Y-100452000D01*
X62338000Y-97572000D02*
X62338000Y-92532000D01*
X62338000Y-105492000D02*
X62338000Y-100452000D01*
X62378000Y-97572000D02*
X62378000Y-92503000D01*
X62378000Y-105521000D02*
X62378000Y-100452000D01*
X62418000Y-97572000D02*
X62418000Y-92473000D01*
X62418000Y-105551000D02*
X62418000Y-100452000D01*
X62458000Y-97572000D02*
X62458000Y-92445000D01*
X62458000Y-105579000D02*
X62458000Y-100452000D01*
X62498000Y-97572000D02*
X62498000Y-92416000D01*
X62498000Y-105608000D02*
X62498000Y-100452000D01*
X62538000Y-97572000D02*
X62538000Y-92388000D01*
X62538000Y-105636000D02*
X62538000Y-100452000D01*
X62578000Y-97572000D02*
X62578000Y-92361000D01*
X62578000Y-105663000D02*
X62578000Y-100452000D01*
X62618000Y-97572000D02*
X62618000Y-92333000D01*
X62618000Y-105691000D02*
X62618000Y-100452000D01*
X62658000Y-97572000D02*
X62658000Y-92306000D01*
X62658000Y-105718000D02*
X62658000Y-100452000D01*
X62698000Y-97572000D02*
X62698000Y-92280000D01*
X62698000Y-105744000D02*
X62698000Y-100452000D01*
X62738000Y-97572000D02*
X62738000Y-92253000D01*
X62738000Y-105771000D02*
X62738000Y-100452000D01*
X62778000Y-97572000D02*
X62778000Y-92227000D01*
X62778000Y-105797000D02*
X62778000Y-100452000D01*
X62818000Y-97572000D02*
X62818000Y-92202000D01*
X62818000Y-105822000D02*
X62818000Y-100452000D01*
X62858000Y-97572000D02*
X62858000Y-92177000D01*
X62858000Y-105847000D02*
X62858000Y-100452000D01*
X62898000Y-97572000D02*
X62898000Y-92152000D01*
X62898000Y-105872000D02*
X62898000Y-100452000D01*
X62938000Y-97572000D02*
X62938000Y-92127000D01*
X62938000Y-105897000D02*
X62938000Y-100452000D01*
X62978000Y-97572000D02*
X62978000Y-92103000D01*
X62978000Y-105921000D02*
X62978000Y-100452000D01*
X63018000Y-97572000D02*
X63018000Y-92079000D01*
X63018000Y-105945000D02*
X63018000Y-100452000D01*
X63058000Y-97572000D02*
X63058000Y-92055000D01*
X63058000Y-105969000D02*
X63058000Y-100452000D01*
X63098000Y-97572000D02*
X63098000Y-92031000D01*
X63098000Y-105993000D02*
X63098000Y-100452000D01*
X63138000Y-97572000D02*
X63138000Y-92008000D01*
X63138000Y-106016000D02*
X63138000Y-100452000D01*
X63178000Y-97572000D02*
X63178000Y-91986000D01*
X63178000Y-106038000D02*
X63178000Y-100452000D01*
X63218000Y-97572000D02*
X63218000Y-91963000D01*
X63218000Y-106061000D02*
X63218000Y-100452000D01*
X63258000Y-97572000D02*
X63258000Y-91941000D01*
X63258000Y-106083000D02*
X63258000Y-100452000D01*
X63298000Y-97572000D02*
X63298000Y-91919000D01*
X63298000Y-106105000D02*
X63298000Y-100452000D01*
X63338000Y-97572000D02*
X63338000Y-91897000D01*
X63338000Y-106127000D02*
X63338000Y-100452000D01*
X63378000Y-97572000D02*
X63378000Y-91876000D01*
X63378000Y-106148000D02*
X63378000Y-100452000D01*
X63418000Y-97572000D02*
X63418000Y-91855000D01*
X63418000Y-106169000D02*
X63418000Y-100452000D01*
X63458000Y-97572000D02*
X63458000Y-91834000D01*
X63458000Y-106190000D02*
X63458000Y-100452000D01*
X63498000Y-97572000D02*
X63498000Y-91814000D01*
X63498000Y-106210000D02*
X63498000Y-100452000D01*
X63538000Y-97572000D02*
X63538000Y-91794000D01*
X63538000Y-106230000D02*
X63538000Y-100452000D01*
X63578000Y-97572000D02*
X63578000Y-91774000D01*
X63578000Y-106250000D02*
X63578000Y-100452000D01*
X63618000Y-97572000D02*
X63618000Y-91754000D01*
X63618000Y-106270000D02*
X63618000Y-100452000D01*
X63658000Y-97572000D02*
X63658000Y-91735000D01*
X63658000Y-106289000D02*
X63658000Y-100452000D01*
X63698000Y-97572000D02*
X63698000Y-91716000D01*
X63698000Y-106308000D02*
X63698000Y-100452000D01*
X63738000Y-97572000D02*
X63738000Y-91697000D01*
X63738000Y-106327000D02*
X63738000Y-100452000D01*
X63778000Y-97572000D02*
X63778000Y-91678000D01*
X63778000Y-106346000D02*
X63778000Y-100452000D01*
X63818000Y-97572000D02*
X63818000Y-91660000D01*
X63818000Y-106364000D02*
X63818000Y-100452000D01*
X63858000Y-97572000D02*
X63858000Y-91642000D01*
X63858000Y-106382000D02*
X63858000Y-100452000D01*
X63898000Y-97572000D02*
X63898000Y-91624000D01*
X63898000Y-106400000D02*
X63898000Y-100452000D01*
X63938000Y-97572000D02*
X63938000Y-91606000D01*
X63938000Y-106418000D02*
X63938000Y-100452000D01*
X63978000Y-97572000D02*
X63978000Y-91589000D01*
X63978000Y-106435000D02*
X63978000Y-100452000D01*
X64018000Y-97572000D02*
X64018000Y-91572000D01*
X64018000Y-106452000D02*
X64018000Y-100452000D01*
X64058000Y-97572000D02*
X64058000Y-91555000D01*
X64058000Y-106469000D02*
X64058000Y-100452000D01*
X64098000Y-97572000D02*
X64098000Y-91539000D01*
X64098000Y-106485000D02*
X64098000Y-100452000D01*
X64138000Y-97572000D02*
X64138000Y-91523000D01*
X64138000Y-106501000D02*
X64138000Y-100452000D01*
X64178000Y-97572000D02*
X64178000Y-91507000D01*
X64178000Y-106517000D02*
X64178000Y-100452000D01*
X64218000Y-97572000D02*
X64218000Y-91491000D01*
X64218000Y-106533000D02*
X64218000Y-100452000D01*
X64258000Y-97572000D02*
X64258000Y-91475000D01*
X64258000Y-106549000D02*
X64258000Y-100452000D01*
X64298000Y-97572000D02*
X64298000Y-91460000D01*
X64298000Y-106564000D02*
X64298000Y-100452000D01*
X64338000Y-97572000D02*
X64338000Y-91445000D01*
X64338000Y-106579000D02*
X64338000Y-100452000D01*
X64378000Y-97572000D02*
X64378000Y-91430000D01*
X64378000Y-106594000D02*
X64378000Y-100452000D01*
X64418000Y-97572000D02*
X64418000Y-91415000D01*
X64418000Y-106609000D02*
X64418000Y-100452000D01*
X64458000Y-97572000D02*
X64458000Y-91401000D01*
X64458000Y-106623000D02*
X64458000Y-100452000D01*
X64498000Y-97572000D02*
X64498000Y-91387000D01*
X64498000Y-106637000D02*
X64498000Y-100452000D01*
X64538000Y-97572000D02*
X64538000Y-91373000D01*
X64538000Y-106651000D02*
X64538000Y-100452000D01*
X64578000Y-97572000D02*
X64578000Y-91360000D01*
X64578000Y-106664000D02*
X64578000Y-100452000D01*
X64618000Y-97572000D02*
X64618000Y-91346000D01*
X64618000Y-106678000D02*
X64618000Y-100452000D01*
X64658000Y-97572000D02*
X64658000Y-91333000D01*
X64658000Y-106691000D02*
X64658000Y-100452000D01*
X64698000Y-97572000D02*
X64698000Y-91320000D01*
X64698000Y-106704000D02*
X64698000Y-100452000D01*
X64738000Y-97572000D02*
X64738000Y-91307000D01*
X64738000Y-106717000D02*
X64738000Y-100452000D01*
X64778000Y-97572000D02*
X64778000Y-91295000D01*
X64778000Y-106729000D02*
X64778000Y-100452000D01*
X64818000Y-97572000D02*
X64818000Y-91283000D01*
X64818000Y-106741000D02*
X64818000Y-100452000D01*
X64858000Y-97572000D02*
X64858000Y-91270000D01*
X64858000Y-106754000D02*
X64858000Y-100452000D01*
X64898000Y-106765000D02*
X64898000Y-91259000D01*
X64938000Y-106777000D02*
X64938000Y-91247000D01*
X64978000Y-106788000D02*
X64978000Y-91236000D01*
X65018000Y-106799000D02*
X65018000Y-91225000D01*
X65058000Y-106810000D02*
X65058000Y-91214000D01*
X65098000Y-106821000D02*
X65098000Y-91203000D01*
X65138000Y-106832000D02*
X65138000Y-91192000D01*
X65178000Y-106842000D02*
X65178000Y-91182000D01*
X65218000Y-106852000D02*
X65218000Y-91172000D01*
X65258000Y-106862000D02*
X65258000Y-91162000D01*
X65298000Y-106871000D02*
X65298000Y-91153000D01*
X65338000Y-106881000D02*
X65338000Y-91143000D01*
X65378000Y-106890000D02*
X65378000Y-91134000D01*
X65418000Y-106899000D02*
X65418000Y-91125000D01*
X65458000Y-106908000D02*
X65458000Y-91116000D01*
X65498000Y-106916000D02*
X65498000Y-91108000D01*
X65538000Y-106925000D02*
X65538000Y-91099000D01*
X65578000Y-106933000D02*
X65578000Y-91091000D01*
X65618000Y-106941000D02*
X65618000Y-91083000D01*
X65658000Y-106948000D02*
X65658000Y-91076000D01*
X65698000Y-106956000D02*
X65698000Y-91068000D01*
X65738000Y-106963000D02*
X65738000Y-91061000D01*
X65778000Y-106970000D02*
X65778000Y-91054000D01*
X65818000Y-106977000D02*
X65818000Y-91047000D01*
X65858000Y-106984000D02*
X65858000Y-91040000D01*
X65898000Y-106990000D02*
X65898000Y-91034000D01*
X65938000Y-106997000D02*
X65938000Y-91027000D01*
X65978000Y-107003000D02*
X65978000Y-91021000D01*
X66018000Y-107009000D02*
X66018000Y-91015000D01*
X66058000Y-107014000D02*
X66058000Y-91010000D01*
X66098000Y-107020000D02*
X66098000Y-91004000D01*
X66138000Y-107025000D02*
X66138000Y-90999000D01*
X66178000Y-107030000D02*
X66178000Y-90994000D01*
X66218000Y-107035000D02*
X66218000Y-90989000D01*
X66258000Y-107040000D02*
X66258000Y-90984000D01*
X66298000Y-107044000D02*
X66298000Y-90980000D01*
X66338000Y-107048000D02*
X66338000Y-90976000D01*
X66378000Y-107052000D02*
X66378000Y-90972000D01*
X66418000Y-107056000D02*
X66418000Y-90968000D01*
X66458000Y-107060000D02*
X66458000Y-90964000D01*
X66498000Y-107063000D02*
X66498000Y-90961000D01*
X66538000Y-107067000D02*
X66538000Y-90957000D01*
X66578000Y-107070000D02*
X66578000Y-90954000D01*
X66618000Y-107073000D02*
X66618000Y-90951000D01*
X66658000Y-107075000D02*
X66658000Y-90949000D01*
X66698000Y-107078000D02*
X66698000Y-90946000D01*
X66738000Y-107080000D02*
X66738000Y-90944000D01*
X66778000Y-107082000D02*
X66778000Y-90942000D01*
X66818000Y-107084000D02*
X66818000Y-90940000D01*
X66858000Y-107086000D02*
X66858000Y-90938000D01*
X66898000Y-107087000D02*
X66898000Y-90937000D01*
X66938000Y-107088000D02*
X66938000Y-90936000D01*
X66978000Y-107090000D02*
X66978000Y-90934000D01*
X67018000Y-107090000D02*
X67018000Y-90934000D01*
X67058000Y-107091000D02*
X67058000Y-90933000D01*
X67098000Y-107092000D02*
X67098000Y-90932000D01*
X67138000Y-107092000D02*
X67138000Y-90932000D01*
X67178000Y-107092000D02*
X67178000Y-90932000D01*
X75067491Y-104367000D02*
X75067491Y-102767000D01*
X75867491Y-103567000D02*
X74267491Y-103567000D01*
X75298000Y-99012000D02*
G75*
G02*
X59058000Y-99012000I-8120000J0D01*
G01*
X59058000Y-99012000D02*
G75*
G02*
X75298000Y-99012000I8120000J0D01*
G01*
%TO.C,U1*%
X66588000Y-82862000D02*
X66588000Y-84512000D01*
X66588000Y-86512000D02*
X66588000Y-88162000D01*
X66588000Y-88162000D02*
X102268000Y-88162000D01*
X102268000Y-82862000D02*
X66588000Y-82862000D01*
X102268000Y-88162000D02*
X102268000Y-82862000D01*
X66588000Y-84512000D02*
G75*
G02*
X66588000Y-86512000I0J-1000000D01*
G01*
%TO.C,U4*%
X86380500Y-96502000D02*
X88200500Y-96502000D01*
X86380500Y-96552000D02*
X86380500Y-96502000D01*
X86380500Y-99622000D02*
X86380500Y-99572000D01*
X88200500Y-96502000D02*
X88200500Y-96552000D01*
X88200500Y-99572000D02*
X88200500Y-99622000D01*
X88200500Y-99622000D02*
X86380500Y-99622000D01*
X85840500Y-96552000D02*
X85600500Y-96222000D01*
X86080500Y-96222000D01*
X85840500Y-96552000D01*
G36*
X85840500Y-96552000D02*
G01*
X85600500Y-96222000D01*
X86080500Y-96222000D01*
X85840500Y-96552000D01*
G37*
%TO.C,Q4*%
X102628000Y-111132000D02*
X106228000Y-111132000D01*
X102616125Y-111123741D02*
G75*
G02*
X103608000Y-106832000I1811875J1841741D01*
G01*
X105208000Y-106832000D02*
G75*
G02*
X106236445Y-111109684I-780000J-2450000D01*
G01*
%TO.C,R17*%
X100008000Y-100132000D02*
X100008000Y-103972000D01*
X101848000Y-100132000D02*
X101848000Y-103972000D01*
%TO.C,L1*%
X88030064Y-93152000D02*
X86825936Y-93152000D01*
X88030064Y-95872000D02*
X86825936Y-95872000D01*
%TO.C,Q2*%
X104712000Y-68100800D02*
X104712000Y-71700800D01*
X104720259Y-68088925D02*
G75*
G02*
X109012000Y-69080800I1841741J-1811875D01*
G01*
X109012000Y-70680800D02*
G75*
G02*
X104734316Y-71709245I-2450000J780000D01*
G01*
%TO.C,R13*%
X85876000Y-66034400D02*
X82036000Y-66034400D01*
X85876000Y-67874400D02*
X82036000Y-67874400D01*
%TO.C,Q5*%
X112840000Y-68050000D02*
X112840000Y-71650000D01*
X112848259Y-68038125D02*
G75*
G02*
X117140000Y-69030000I1841741J-1811875D01*
G01*
X117140000Y-70630000D02*
G75*
G02*
X112862316Y-71658445I-2450000J780000D01*
G01*
%TO.C,R4*%
X82388000Y-74432000D02*
X82388000Y-70592000D01*
X84228000Y-74432000D02*
X84228000Y-70592000D01*
%TO.C,R11*%
X110500000Y-74302000D02*
X110500000Y-70462000D01*
X112340000Y-74302000D02*
X112340000Y-70462000D01*
%TO.C,R9*%
X79848000Y-74432000D02*
X79848000Y-70592000D01*
X81688000Y-74432000D02*
X81688000Y-70592000D01*
%TO.C,R14*%
X103468000Y-100092000D02*
X103468000Y-103932000D01*
X105308000Y-100092000D02*
X105308000Y-103932000D01*
%TO.C,R5*%
X90008000Y-74432000D02*
X90008000Y-70592000D01*
X91848000Y-74432000D02*
X91848000Y-70592000D01*
%TO.C,K1*%
X98346000Y-116884000D02*
X98346000Y-118384000D01*
X98546000Y-117084000D02*
X98546000Y-146484000D01*
X98546000Y-146484000D02*
X111646000Y-146484000D01*
X99846000Y-116884000D02*
X98346000Y-116884000D01*
X101346000Y-122174000D02*
X101346000Y-123444000D01*
X101346000Y-123444000D02*
X102616000Y-123444000D01*
X102616000Y-122174000D02*
X102616000Y-123444000D01*
X102616000Y-123444000D02*
X102616000Y-124714000D01*
X102616000Y-124714000D02*
X107696000Y-124714000D01*
D10*
X103886000Y-122174000D02*
X105156000Y-124714000D01*
D13*
X107696000Y-122174000D02*
X102616000Y-122174000D01*
X107696000Y-123444000D02*
X108966000Y-123444000D01*
X107696000Y-124714000D02*
X107696000Y-122174000D01*
X108966000Y-123444000D02*
X108966000Y-122174000D01*
X111646000Y-117084000D02*
X98546000Y-117084000D01*
X111646000Y-146484000D02*
X111646000Y-117084000D01*
%TO.C,R8*%
X105942000Y-64184200D02*
X102102000Y-64184200D01*
X105942000Y-66024200D02*
X102102000Y-66024200D01*
%TO.C,R7*%
X84928000Y-74432000D02*
X84928000Y-70592000D01*
X86768000Y-74432000D02*
X86768000Y-70592000D01*
%TO.C,C8*%
X90193000Y-95213248D02*
X90193000Y-95735752D01*
X91663000Y-95213248D02*
X91663000Y-95735752D01*
%TO.C,C10*%
X83114252Y-93277000D02*
X82591748Y-93277000D01*
X83114252Y-94747000D02*
X82591748Y-94747000D01*
%TO.C,J7*%
X112406500Y-104642000D02*
X120246500Y-104642000D01*
X112406500Y-111882000D02*
X112406500Y-104642000D01*
X118626500Y-111882000D02*
X118626500Y-104642000D01*
X119726500Y-111882000D02*
X119726500Y-104642000D01*
X120246500Y-104642000D02*
X120246500Y-109712000D01*
X120246500Y-110312000D02*
X120246500Y-111882000D01*
X120246500Y-111882000D02*
X112406500Y-111882000D01*
X120856500Y-110452000D02*
X120246500Y-110012000D01*
X120856500Y-109572000D01*
X120856500Y-110452000D01*
G36*
X120856500Y-110452000D02*
G01*
X120246500Y-110012000D01*
X120856500Y-109572000D01*
X120856500Y-110452000D01*
G37*
%TO.C,D1*%
X109299500Y-110022000D02*
X111539500Y-110022000D01*
X109299500Y-110142000D02*
X111539500Y-110142000D01*
X109299500Y-110262000D02*
X111539500Y-110262000D01*
X110419500Y-105972000D02*
X110419500Y-106622000D01*
X110419500Y-111512000D02*
X110419500Y-110862000D01*
X109299500Y-106622000D02*
X111539500Y-106622000D01*
X111539500Y-110862000D01*
X109299500Y-110862000D01*
X109299500Y-106622000D01*
%TO.C,R16*%
X106008000Y-100092000D02*
X106008000Y-103932000D01*
X107848000Y-100092000D02*
X107848000Y-103932000D01*
%TO.C,J4*%
X79558000Y-57392000D02*
X88128000Y-57392000D01*
X79558000Y-65232000D02*
X79558000Y-57392000D01*
X88728000Y-57392000D02*
X90298000Y-57392000D01*
X90298000Y-57392000D02*
X90298000Y-65232000D01*
X90298000Y-57912000D02*
X79558000Y-57912000D01*
X90298000Y-59012000D02*
X79558000Y-59012000D01*
X90298000Y-65232000D02*
X79558000Y-65232000D01*
X88428000Y-57392000D02*
X87988000Y-56782000D01*
X88868000Y-56782000D01*
X88428000Y-57392000D01*
G36*
X88428000Y-57392000D02*
G01*
X87988000Y-56782000D01*
X88868000Y-56782000D01*
X88428000Y-57392000D01*
G37*
%TO.C,R12*%
X116564000Y-78932800D02*
X116564000Y-75092800D01*
X118404000Y-78932800D02*
X118404000Y-75092800D01*
%TO.C,Q1*%
X97334000Y-68050000D02*
X97334000Y-71650000D01*
X97342259Y-68038125D02*
G75*
G02*
X101634000Y-69030000I1841741J-1811875D01*
G01*
X101634000Y-70630000D02*
G75*
G02*
X97356316Y-71658445I-2450000J780000D01*
G01*
%TD*%
M02*
