%TF.GenerationSoftware,KiCad,Pcbnew,10.0.0*%
%TF.CreationDate,2026-04-13T18:26:29+02:00*%
%TF.ProjectId,DymBOX_AVR,44796d42-4f58-45f4-9156-522e6b696361,rev?*%
%TF.SameCoordinates,PX3013918PY981a6d8*%
%TF.FileFunction,Copper,L2,Bot*%
%TF.FilePolarity,Positive*%
%FSLAX46Y46*%
G04 Gerber Fmt 4.6, Leading zero omitted, Abs format (unit mm)*
G04 Created by KiCad (PCBNEW 10.0.0) date 2026-04-13 18:26:29*
%MOMM*%
%LPD*%
G01*
G04 APERTURE LIST*
G04 Aperture macros list*
%AMRoundRect*
0 Rectangle with rounded corners*
0 $1 Rounding radius*
0 $2 $3 $4 $5 $6 $7 $8 $9 X,Y pos of 4 corners*
0 Add a 4 corners polygon primitive as box body*
4,1,4,$2,$3,$4,$5,$6,$7,$8,$9,$2,$3,0*
0 Add four circle primitives for the rounded corners*
1,1,$1+$1,$2,$3*
1,1,$1+$1,$4,$5*
1,1,$1+$1,$6,$7*
1,1,$1+$1,$8,$9*
0 Add four rect primitives between the rounded corners*
20,1,$1+$1,$2,$3,$4,$5,0*
20,1,$1+$1,$4,$5,$6,$7,0*
20,1,$1+$1,$6,$7,$8,$9,0*
20,1,$1+$1,$8,$9,$2,$3,0*%
G04 Aperture macros list end*
%TA.AperFunction,ComponentPad*%
%ADD10R,2.000000X2.000000*%
%TD*%
%TA.AperFunction,ComponentPad*%
%ADD11C,2.000000*%
%TD*%
%TA.AperFunction,ComponentPad*%
%ADD12C,1.400000*%
%TD*%
%TA.AperFunction,ComponentPad*%
%ADD13RoundRect,0.500000X-0.500000X-0.500000X0.500000X-0.500000X0.500000X0.500000X-0.500000X0.500000X0*%
%TD*%
%TA.AperFunction,ComponentPad*%
%ADD14RoundRect,0.250000X-0.550000X-0.550000X0.550000X-0.550000X0.550000X0.550000X-0.550000X0.550000X0*%
%TD*%
%TA.AperFunction,ComponentPad*%
%ADD15C,1.600000*%
%TD*%
%TA.AperFunction,ComponentPad*%
%ADD16C,3.048000*%
%TD*%
%TA.AperFunction,ComponentPad*%
%ADD17R,1.400000X1.400000*%
%TD*%
%TA.AperFunction,ComponentPad*%
%ADD18R,1.100000X1.800000*%
%TD*%
%TA.AperFunction,ComponentPad*%
%ADD19RoundRect,0.275000X-0.275000X-0.625000X0.275000X-0.625000X0.275000X0.625000X-0.275000X0.625000X0*%
%TD*%
%TA.AperFunction,ComponentPad*%
%ADD20RoundRect,0.500000X-0.500000X0.500000X-0.500000X-0.500000X0.500000X-0.500000X0.500000X0.500000X0*%
%TD*%
%TA.AperFunction,ComponentPad*%
%ADD21R,1.700000X1.700000*%
%TD*%
%TA.AperFunction,ComponentPad*%
%ADD22C,1.700000*%
%TD*%
%TA.AperFunction,ComponentPad*%
%ADD23RoundRect,0.250001X0.949999X0.949999X-0.949999X0.949999X-0.949999X-0.949999X0.949999X-0.949999X0*%
%TD*%
%TA.AperFunction,ComponentPad*%
%ADD24C,2.400000*%
%TD*%
%TA.AperFunction,ComponentPad*%
%ADD25RoundRect,0.250000X0.550000X-0.550000X0.550000X0.550000X-0.550000X0.550000X-0.550000X-0.550000X0*%
%TD*%
%TA.AperFunction,ComponentPad*%
%ADD26R,1.800000X1.100000*%
%TD*%
%TA.AperFunction,ComponentPad*%
%ADD27RoundRect,0.275000X-0.625000X0.275000X-0.625000X-0.275000X0.625000X-0.275000X0.625000X0.275000X0*%
%TD*%
%TA.AperFunction,ComponentPad*%
%ADD28O,3.000000X2.000000*%
%TD*%
%TA.AperFunction,ComponentPad*%
%ADD29R,2.000000X3.000000*%
%TD*%
%TA.AperFunction,ComponentPad*%
%ADD30O,2.000000X3.000000*%
%TD*%
%TA.AperFunction,ComponentPad*%
%ADD31RoundRect,0.250001X0.949999X-0.949999X0.949999X0.949999X-0.949999X0.949999X-0.949999X-0.949999X0*%
%TD*%
%TA.AperFunction,ComponentPad*%
%ADD32C,1.500000*%
%TD*%
%TA.AperFunction,ComponentPad*%
%ADD33R,1.500000X1.500000*%
%TD*%
%TA.AperFunction,ComponentPad*%
%ADD34C,3.200000*%
%TD*%
%TA.AperFunction,SMDPad,CuDef*%
%ADD35RoundRect,0.250000X0.475000X-0.337500X0.475000X0.337500X-0.475000X0.337500X-0.475000X-0.337500X0*%
%TD*%
%TA.AperFunction,Conductor*%
%ADD36C,3.048000*%
%TD*%
%TA.AperFunction,Conductor*%
%ADD37C,0.381000*%
%TD*%
%TA.AperFunction,Conductor*%
%ADD38C,0.508000*%
%TD*%
G04 APERTURE END LIST*
D10*
%TO.P,TR1,1*%
%TO.N,Net-(J2-Pin_1)*%
X12307000Y24740000D03*
D11*
%TO.P,TR1,*%
%TO.N,*%
X17307000Y24740000D03*
X32307000Y24740000D03*
%TO.P,TR1,5*%
%TO.N,/230V_F16*%
X37307000Y24740000D03*
%TO.P,TR1,*%
%TO.N,*%
X37307000Y49740000D03*
%TO.P,TR1,7*%
%TO.N,Net-(D3-Pad4)*%
X32307000Y49740000D03*
%TO.P,TR1,*%
%TO.N,*%
X24807000Y49740000D03*
%TO.P,TR1,9*%
%TO.N,Net-(D3-Pad3)*%
X17307000Y49740000D03*
%TO.P,TR1,*%
%TO.N,*%
X12307000Y49740000D03*
%TD*%
D12*
%TO.P,R2,1*%
%TO.N,/SEG_A*%
X66065400Y102666800D03*
%TO.P,R2,2*%
%TO.N,Net-(U2-a)*%
X60985400Y102666800D03*
%TD*%
%TO.P,R1,1*%
%TO.N,+5V*%
X10693400Y75996800D03*
%TO.P,R1,2*%
%TO.N,/RESET*%
X15773400Y75996800D03*
%TD*%
D13*
%TO.P,F2,1*%
%TO.N,/230V_F16*%
X30541400Y8392800D03*
X35541400Y8392800D03*
D11*
%TO.P,F2,2*%
%TO.N,Net-(J1-Pin_1)*%
X45541400Y8392800D03*
X50541400Y8392800D03*
%TD*%
D12*
%TO.P,R6,1*%
%TO.N,/SEG_D*%
X38874400Y90352800D03*
%TO.P,R6,2*%
%TO.N,Net-(U2-d)*%
X38874400Y95432800D03*
%TD*%
D14*
%TO.P,D2,1,K_1*%
%TO.N,+12V*%
X51959400Y50342800D03*
D15*
%TO.P,D2,2,A_2*%
%TO.N,Net-(D2-A)*%
X59579400Y50342800D03*
%TD*%
D16*
%TO.P,J3,1,Pin_1_1*%
%TO.N,Net-(J2-Pin_1)*%
X21513000Y6009000D03*
X21513000Y11009000D03*
%TD*%
D12*
%TO.P,R15,1*%
%TO.N,Net-(U1-PB2)*%
X49001400Y65892800D03*
%TO.P,R15,2*%
%TO.N,Net-(Q4-G)*%
X49001400Y60812800D03*
%TD*%
D17*
%TO.P,D3,1,+_1*%
%TO.N,Net-(D3-+)*%
X32720600Y63093600D03*
D12*
%TO.P,D3,2,-_2*%
%TO.N,GND*%
X30180600Y63093600D03*
%TO.P,D3,3*%
%TO.N,Net-(D3-Pad3)*%
X30180600Y58013600D03*
%TO.P,D3,4*%
%TO.N,Net-(D3-Pad4)*%
X32720600Y58013600D03*
%TD*%
D18*
%TO.P,Q3,1,D_1*%
%TO.N,Net-(D1-A)*%
X64501400Y64386800D03*
D19*
%TO.P,Q3,2,G_2*%
%TO.N,Net-(Q3-G)*%
X65771400Y66456800D03*
%TO.P,Q3,3,S_3*%
%TO.N,GND*%
X67041400Y64386800D03*
%TD*%
D20*
%TO.P,F1,1*%
%TO.N,+12V*%
X5041400Y79892800D03*
X5041400Y74892800D03*
D11*
%TO.P,F1,2*%
%TO.N,Net-(D3-+)*%
X5041400Y64892800D03*
X5041400Y59892800D03*
%TD*%
D21*
%TO.P,J7,1,Pin_1_1*%
%TO.N,/MOSI*%
X57541400Y78352800D03*
D22*
%TO.P,J7,2,Pin_2_2*%
%TO.N,+5V*%
X57541400Y80892800D03*
%TO.P,J7,3,Pin_3_3*%
%TO.N,GND*%
X60081400Y78352800D03*
%TO.P,J7,4,Pin_4_4*%
%TO.N,unconnected-(J7-Pin_4-Pad4)*%
X60081400Y80892800D03*
%TO.P,J7,5,Pin_5_5*%
%TO.N,/RESET*%
X62621400Y78352800D03*
%TO.P,J7,6,Pin_6_6*%
%TO.N,unconnected-(J7-Pin_6-Pad6)*%
X62621400Y80892800D03*
%TO.P,J7,7,Pin_7_7*%
%TO.N,/SCK*%
X65161400Y78352800D03*
%TO.P,J7,8,Pin_8_8*%
%TO.N,GND*%
X65161400Y80892800D03*
%TO.P,J7,9,Pin_9_9*%
%TO.N,/MISO*%
X67701400Y78352800D03*
%TO.P,J7,10,Pin_10_10*%
%TO.N,GND*%
X67701400Y80892800D03*
%TD*%
D12*
%TO.P,R10,1*%
%TO.N,/DIG_0*%
X54076600Y90474800D03*
%TO.P,R10,2*%
%TO.N,Net-(Q1-B)*%
X54076600Y95554800D03*
%TD*%
%TO.P,R3,1*%
%TO.N,/SEG_B*%
X44119800Y90373200D03*
%TO.P,R3,2*%
%TO.N,Net-(U2-b)*%
X44119800Y95453200D03*
%TD*%
D16*
%TO.P,J4,1,Pin_1_1*%
%TO.N,Net-(J4-Pin_1)*%
X69041400Y28892800D03*
X69041400Y23892800D03*
%TD*%
D23*
%TO.P,C1,1*%
%TO.N,+12V*%
X21541400Y66392800D03*
D24*
%TO.P,C1,2*%
%TO.N,GND*%
X14041400Y66392800D03*
%TD*%
D25*
%TO.P,U1,1,PC6/~{RESET}_1*%
%TO.N,/RESET*%
X18531400Y76082800D03*
D15*
%TO.P,U1,2,PD0_2*%
%TO.N,/BTN*%
X21071400Y76082800D03*
%TO.P,U1,3,PD1_3*%
%TO.N,/DIG_0*%
X23611400Y76082800D03*
%TO.P,U1,4,PD2_4*%
%TO.N,/DIG_1*%
X26151400Y76082800D03*
%TO.P,U1,5,PD3_5*%
%TO.N,/CLK*%
X28691400Y76082800D03*
%TO.P,U1,6,PD4_6*%
%TO.N,/DT*%
X31231400Y76082800D03*
%TO.P,U1,7,VCC_7*%
%TO.N,+5V*%
X33771400Y76082800D03*
%TO.P,U1,8,GND_8*%
%TO.N,GND*%
X36311400Y76082800D03*
%TO.P,U1,9,PB6/XTAL1_9*%
%TO.N,Net-(U1-PB6{slash}XTAL1)*%
X38851400Y76082800D03*
%TO.P,U1,10,PB7/XTAL2_10*%
%TO.N,Net-(U1-PB7{slash}XTAL2)*%
X41391400Y76082800D03*
%TO.P,U1,11,PD5_11*%
%TO.N,/SEG_B*%
X43931400Y76082800D03*
%TO.P,U1,12,PD6_12*%
%TO.N,/DIG_2*%
X46471400Y76082800D03*
%TO.P,U1,13,PD7_13*%
%TO.N,/SEG_F*%
X49011400Y76082800D03*
%TO.P,U1,14,PB0_14*%
%TO.N,/SEG_A*%
X51551400Y76082800D03*
%TO.P,U1,15,PB1_15*%
%TO.N,Net-(U1-PB1)*%
X51551400Y83702800D03*
%TO.P,U1,16,PB2_16*%
%TO.N,Net-(U1-PB2)*%
X49011400Y83702800D03*
%TO.P,U1,17,PB3_17*%
%TO.N,/MOSI*%
X46471400Y83702800D03*
%TO.P,U1,18,PB4_18*%
%TO.N,/MISO*%
X43931400Y83702800D03*
%TO.P,U1,19,PB5_19*%
%TO.N,/SCK*%
X41391400Y83702800D03*
%TO.P,U1,20,AVCC_20*%
%TO.N,+5V*%
X38851400Y83702800D03*
%TO.P,U1,21,AREF_21*%
%TO.N,unconnected-(U1-AREF-Pad21)*%
X36311400Y83702800D03*
%TO.P,U1,22,AGND_22*%
%TO.N,GND*%
X33771400Y83702800D03*
%TO.P,U1,23,PC0_23*%
%TO.N,/SEG_E*%
X31231400Y83702800D03*
%TO.P,U1,24,PC1_24*%
%TO.N,/SEG_D*%
X28691400Y83702800D03*
%TO.P,U1,25,PC2_25*%
%TO.N,/SEG_DP*%
X26151400Y83702800D03*
%TO.P,U1,26,PC3_26*%
%TO.N,/SEG_C*%
X23611400Y83702800D03*
%TO.P,U1,27,PC4_27*%
%TO.N,/SEG_G*%
X21071400Y83702800D03*
%TO.P,U1,28,PC5_28*%
%TO.N,Net-(J5-Pin_2)*%
X18531400Y83702800D03*
%TD*%
D18*
%TO.P,Q4,1,D_1*%
%TO.N,Net-(D2-A)*%
X53771400Y55722800D03*
D19*
%TO.P,Q4,2,G_2*%
%TO.N,Net-(Q4-G)*%
X55041400Y57792800D03*
%TO.P,Q4,3,S_3*%
%TO.N,GND*%
X56311400Y55722800D03*
%TD*%
D16*
%TO.P,J1,1,Pin_1_1*%
%TO.N,Net-(J1-Pin_1)*%
X59461400Y5805800D03*
X59461400Y10805800D03*
%TD*%
D12*
%TO.P,R17,1*%
%TO.N,GND*%
X51541400Y65892800D03*
%TO.P,R17,2*%
%TO.N,Net-(Q4-G)*%
X51541400Y60812800D03*
%TD*%
D26*
%TO.P,Q2,1,C_1*%
%TO.N,Net-(Q2-C)*%
X56775400Y96774000D03*
D27*
%TO.P,Q2,2,B_2*%
%TO.N,Net-(Q2-B)*%
X58845400Y95504000D03*
%TO.P,Q2,3,E_3*%
%TO.N,+5V*%
X56775400Y94234000D03*
%TD*%
D12*
%TO.P,R13,1*%
%TO.N,Net-(J5-Pin_2)*%
X27889200Y93853000D03*
%TO.P,R13,2*%
%TO.N,+5V*%
X22809200Y93853000D03*
%TD*%
D26*
%TO.P,Q5,1,C_1*%
%TO.N,Net-(Q5-C)*%
X64903400Y96824800D03*
D27*
%TO.P,Q5,2,B_2*%
%TO.N,Net-(Q5-B)*%
X66973400Y95554800D03*
%TO.P,Q5,3,E_3*%
%TO.N,+5V*%
X64903400Y94284800D03*
%TD*%
D12*
%TO.P,R4,1*%
%TO.N,/SEG_C*%
X33921400Y90352800D03*
%TO.P,R4,2*%
%TO.N,Net-(U2-c)*%
X33921400Y95432800D03*
%TD*%
%TO.P,R11,1*%
%TO.N,/DIG_1*%
X61696600Y90500200D03*
%TO.P,R11,2*%
%TO.N,Net-(Q2-B)*%
X61696600Y95580200D03*
%TD*%
%TO.P,R9,1*%
%TO.N,/SEG_G*%
X31381400Y90352800D03*
%TO.P,R9,2*%
%TO.N,Net-(U2-g)*%
X31381400Y95432800D03*
%TD*%
%TO.P,R14,1*%
%TO.N,Net-(U1-PB1)*%
X55001400Y65932800D03*
%TO.P,R14,2*%
%TO.N,Net-(Q3-G)*%
X55001400Y60852800D03*
%TD*%
%TO.P,R5,1*%
%TO.N,/SEG_E*%
X41541400Y90352800D03*
%TO.P,R5,2*%
%TO.N,Net-(U2-e)*%
X41541400Y95432800D03*
%TD*%
D28*
%TO.P,K1,11*%
%TO.N,/230V_F16*%
X59544600Y24917400D03*
X52044600Y24917400D03*
%TO.P,K1,12*%
%TO.N,unconnected-(K1-Pad12)_1*%
X59544600Y29957400D03*
%TO.N,unconnected-(K1-Pad12)*%
X52044600Y29957400D03*
%TO.P,K1,14*%
%TO.N,Net-(J4-Pin_1)*%
X59544600Y19877400D03*
X52044600Y19877400D03*
D29*
%TO.P,K1,A1*%
%TO.N,+12V*%
X52044600Y45217400D03*
D30*
%TO.P,K1,A2*%
%TO.N,Net-(D2-A)*%
X59544600Y45217400D03*
%TD*%
D12*
%TO.P,R8,1*%
%TO.N,/SEG_F*%
X57175400Y100300600D03*
%TO.P,R8,2*%
%TO.N,Net-(U2-f)*%
X52095400Y100300600D03*
%TD*%
%TO.P,R7,1*%
%TO.N,/SEG_DP*%
X36461400Y90352800D03*
%TO.P,R7,2*%
%TO.N,Net-(U2-DPX)*%
X36461400Y95432800D03*
%TD*%
D31*
%TO.P,J6,1,Pin_1_1*%
%TO.N,+12V*%
X66239900Y55392800D03*
D24*
%TO.P,J6,2,Pin_2_2*%
%TO.N,Net-(D1-A)*%
X66239900Y58892800D03*
%TD*%
D25*
%TO.P,D1,1,K_1*%
%TO.N,+12V*%
X61032900Y52852800D03*
D15*
%TO.P,D1,2,A_2*%
%TO.N,Net-(D1-A)*%
X61032900Y60472800D03*
%TD*%
D12*
%TO.P,R16,1*%
%TO.N,GND*%
X57541400Y65932800D03*
%TO.P,R16,2*%
%TO.N,Net-(Q3-G)*%
X57541400Y60852800D03*
%TD*%
D23*
%TO.P,J5,1,Pin_1_1*%
%TO.N,GND*%
X29738200Y100076000D03*
D24*
%TO.P,J5,2,Pin_2_2*%
%TO.N,Net-(J5-Pin_2)*%
X26238200Y100076000D03*
%TO.P,J5,3,Pin_3_3*%
%TO.N,+5V*%
X22738200Y100076000D03*
%TD*%
D12*
%TO.P,R12,1*%
%TO.N,/DIG_2*%
X68046600Y86741000D03*
%TO.P,R12,2*%
%TO.N,Net-(Q5-B)*%
X68046600Y91821000D03*
%TD*%
D16*
%TO.P,J2,1,Pin_1_1*%
%TO.N,Net-(J2-Pin_1)*%
X12319000Y6009000D03*
X12319000Y11009000D03*
%TD*%
D26*
%TO.P,Q1,1,C_1*%
%TO.N,Net-(Q1-C)*%
X49397400Y96824800D03*
D27*
%TO.P,Q1,2,B_2*%
%TO.N,Net-(Q1-B)*%
X51467400Y95554800D03*
%TO.P,Q1,3,E_3*%
%TO.N,+5V*%
X49397400Y94284800D03*
%TD*%
D32*
%TO.P,U2,*%
%TO.N,*%
X44659800Y87482600D03*
D33*
%TO.P,U2,1,e_1*%
%TO.N,Net-(U2-e)*%
X57359800Y87482600D03*
D32*
%TO.P,U2,2,d_2*%
%TO.N,Net-(U2-d)*%
X54819800Y87482600D03*
%TO.P,U2,3,DPX_3*%
%TO.N,Net-(U2-DPX)*%
X52279800Y87482600D03*
%TO.P,U2,4,c_4*%
%TO.N,Net-(U2-c)*%
X49739800Y87482600D03*
%TO.P,U2,5,g_5*%
%TO.N,Net-(U2-g)*%
X47199800Y87482600D03*
%TO.P,U2,7,b_7*%
%TO.N,Net-(U2-b)*%
X44659800Y102722600D03*
%TO.P,U2,8,CA3_8*%
%TO.N,Net-(Q1-C)*%
X47199800Y102722600D03*
%TO.P,U2,9,CA2_9*%
%TO.N,Net-(Q2-C)*%
X49739800Y102722600D03*
%TO.P,U2,10,f_10*%
%TO.N,Net-(U2-f)*%
X52279800Y102722600D03*
%TO.P,U2,11,a_11*%
%TO.N,Net-(U2-a)*%
X54819800Y102722600D03*
%TO.P,U2,12,CA1_12*%
%TO.N,Net-(Q5-C)*%
X57359800Y102722600D03*
%TD*%
%TO.P,Y1,1,1_1*%
%TO.N,Net-(U1-PB7{slash}XTAL2)*%
X53924200Y71018400D03*
%TO.P,Y1,2,2_2*%
%TO.N,Net-(U1-PB6{slash}XTAL1)*%
X49044200Y71018400D03*
%TD*%
D34*
%TO.P,SW2,*%
%TO.N,*%
X5220400Y95682800D03*
X16420400Y95682800D03*
D11*
%TO.P,SW2,A,A_A*%
%TO.N,/CLK*%
X13320400Y88182800D03*
%TO.P,SW2,B,B_B*%
%TO.N,/DT*%
X8320400Y88182800D03*
%TO.P,SW2,C,C_C*%
%TO.N,GND*%
X10820400Y88182800D03*
%TO.P,SW2,S1,S1_S1*%
%TO.N,/BTN*%
X8320400Y102682800D03*
%TO.P,SW2,S2,S2_S2*%
%TO.N,GND*%
X13320400Y102682800D03*
%TD*%
D35*
%TO.P,C6,1*%
%TO.N,+5V*%
X33807400Y78355300D03*
%TO.P,C6,2*%
%TO.N,GND*%
X33807400Y80430300D03*
%TD*%
%TO.P,C4,1*%
%TO.N,GND*%
X44323000Y69091900D03*
%TO.P,C4,2*%
%TO.N,Net-(U1-PB6{slash}XTAL1)*%
X44323000Y71166900D03*
%TD*%
%TO.P,C5,1*%
%TO.N,GND*%
X58826400Y68914100D03*
%TO.P,C5,2*%
%TO.N,Net-(U1-PB7{slash}XTAL2)*%
X58826400Y70989100D03*
%TD*%
%TO.N,Net-(J2-Pin_1)*%
D36*
X12344400Y24913800D02*
X12344400Y8813800D01*
X21541400Y10892800D02*
X21541400Y8813800D01*
X12335400Y24922800D02*
X12344400Y24913800D01*
X21541400Y8813800D02*
X21541400Y5892800D01*
X12319000Y6009000D02*
X12319000Y8890000D01*
X12344400Y8813800D02*
X21541400Y8813800D01*
X12319000Y8890000D02*
X12319000Y11009000D01*
%TO.N,+5V*%
D37*
X36369100Y78355300D02*
X33807400Y78355300D01*
X57997400Y94292800D02*
X57989400Y94284800D01*
X33771400Y78319300D02*
X33807400Y78355300D01*
X33807400Y76118800D02*
X33771400Y76082800D01*
X33771400Y76082800D02*
X33771400Y78319300D01*
X65303400Y94284800D02*
X65295400Y94292800D01*
X38851400Y83702800D02*
X38851400Y80837600D01*
X65295400Y94292800D02*
X57997400Y94292800D01*
X38851400Y80837600D02*
X36369100Y78355300D01*
X57989400Y94284800D02*
X49797400Y94284800D01*
%TO.N,Net-(J1-Pin_1)*%
D36*
X59421400Y8392800D02*
X59461400Y8432800D01*
X45541400Y8392800D02*
X50541400Y8392800D01*
X50541400Y8392800D02*
X59421400Y8392800D01*
X59461400Y10805800D02*
X59461400Y8432800D01*
X59461400Y8432800D02*
X59461400Y5805800D01*
%TO.N,Net-(D2-A)*%
D38*
X53771400Y53238800D02*
X56667400Y50342800D01*
X53771400Y56122800D02*
X53771400Y53238800D01*
X56667400Y50342800D02*
X59579400Y50342800D01*
%TO.N,/MOSI*%
D37*
X46471400Y81112800D02*
X49231400Y78352800D01*
X46471400Y83702800D02*
X46471400Y81112800D01*
X49231400Y78352800D02*
X57541400Y78352800D01*
%TO.N,/SCK*%
X55143400Y81076800D02*
X56626900Y79593300D01*
X41391400Y83702800D02*
X41391400Y84342800D01*
X53619400Y85140800D02*
X55143400Y83616800D01*
X42189400Y85140800D02*
X53619400Y85140800D01*
X41391400Y84342800D02*
X42189400Y85140800D01*
X55143400Y83616800D02*
X55143400Y81076800D01*
X63920900Y79593300D02*
X65161400Y78352800D01*
X56626900Y79593300D02*
X63920900Y79593300D01*
%TO.N,/MISO*%
X43931400Y81874800D02*
X48183800Y77622400D01*
X55651400Y76758800D02*
X67030600Y76758800D01*
X48183800Y77622400D02*
X54787800Y77622400D01*
X67030600Y76758800D02*
X67701400Y77429600D01*
X43931400Y83702800D02*
X43931400Y81874800D01*
X54787800Y77622400D02*
X55651400Y76758800D01*
X67701400Y77429600D02*
X67701400Y78352800D01*
%TO.N,/DIG_0*%
X24866600Y81889600D02*
X24866600Y85445600D01*
X24866600Y85445600D02*
X28270200Y88849200D01*
X28270200Y88849200D02*
X50317400Y88849200D01*
X23611400Y76082800D02*
X23611400Y80634400D01*
X50317400Y88849200D02*
X51943000Y90474800D01*
X23611400Y80634400D02*
X24866600Y81889600D01*
X51943000Y90474800D02*
X54076600Y90474800D01*
%TO.N,Net-(U2-b)*%
X44119800Y102031800D02*
X44119800Y95453200D01*
X44659800Y102722600D02*
X44659800Y102571800D01*
X44659800Y102571800D02*
X44119800Y102031800D01*
%TO.N,Net-(J4-Pin_1)*%
D36*
X59544600Y19877400D02*
X67477000Y19877400D01*
X67477000Y19877400D02*
X69041400Y21441800D01*
X52044600Y19877400D02*
X59544600Y19877400D01*
X69041400Y28892800D02*
X69041400Y23892800D01*
X69041400Y21441800D02*
X69041400Y23892800D01*
%TO.N,/BTN*%
D37*
X8320400Y93181800D02*
X6502400Y91363800D01*
X21071400Y76794800D02*
X21071400Y76082800D01*
X8320400Y102682800D02*
X8320400Y93181800D01*
X17805400Y80060800D02*
X21071400Y76794800D01*
X6502400Y91363800D02*
X6502400Y86537800D01*
X12979400Y80060800D02*
X17805400Y80060800D01*
X6502400Y86537800D02*
X12979400Y80060800D01*
%TO.N,/DIG_1*%
X61671200Y90120600D02*
X62033400Y90482800D01*
X27406600Y84988400D02*
X28422600Y86004400D01*
X61671200Y88315800D02*
X61671200Y90120600D01*
X27406600Y82804000D02*
X27406600Y84988400D01*
X26151400Y81548800D02*
X27406600Y82804000D01*
X59359800Y86004400D02*
X61671200Y88315800D01*
X26151400Y76082800D02*
X26151400Y81548800D01*
X28422600Y86004400D02*
X59359800Y86004400D01*
%TO.N,Net-(U1-PB6{slash}XTAL1)*%
X48895700Y71166900D02*
X49044200Y71018400D01*
X44323000Y71166900D02*
X48895700Y71166900D01*
X38851400Y76082800D02*
X38851400Y74000800D01*
X41681400Y71170800D02*
X44541400Y71170800D01*
X38851400Y74000800D02*
X41681400Y71170800D01*
%TO.N,Net-(U1-PB7{slash}XTAL2)*%
X41391400Y76082800D02*
X41391400Y74254800D01*
X53924200Y71018400D02*
X54127400Y71018400D01*
X42697400Y72948800D02*
X51993800Y72948800D01*
X51993800Y72948800D02*
X53924200Y71018400D01*
X54156700Y70989100D02*
X58826400Y70989100D01*
X54127400Y71018400D02*
X54156700Y70989100D01*
X41391400Y74254800D02*
X42697400Y72948800D01*
%TO.N,/DIG_2*%
X46507400Y74726800D02*
X46507400Y76046800D01*
X66268600Y73964800D02*
X47269400Y73964800D01*
X69621400Y84328000D02*
X69621400Y77317600D01*
X68046600Y86741000D02*
X68046600Y85902800D01*
X69621400Y77317600D02*
X66268600Y73964800D01*
X47269400Y73964800D02*
X46507400Y74726800D01*
X68046600Y85902800D02*
X69621400Y84328000D01*
X46507400Y76046800D02*
X46471400Y76082800D01*
%TO.N,Net-(Q2-B)*%
X59267400Y95562800D02*
X62033400Y95562800D01*
%TO.N,Net-(Q5-C)*%
X58440400Y102722600D02*
X64338200Y96824800D01*
X57359800Y102722600D02*
X58440400Y102722600D01*
X64338200Y96824800D02*
X65303400Y96824800D01*
%TO.N,/230V_F16*%
D36*
X37335400Y15262800D02*
X37335400Y24922800D01*
X35541400Y8392800D02*
X35541400Y13468800D01*
X37335400Y24922800D02*
X52039200Y24922800D01*
X35541400Y13468800D02*
X37335400Y15262800D01*
X52044600Y24917400D02*
X59544600Y24917400D01*
X52039200Y24922800D02*
X52044600Y24917400D01*
X30541400Y8392800D02*
X35541400Y8392800D01*
%TD*%
%TA.AperFunction,Conductor*%
%TO.N,GND*%
G36*
X66747929Y105479776D02*
G01*
X66754823Y105479578D01*
X67080323Y105461097D01*
X67094129Y105459532D01*
X67412042Y105405313D01*
X67425595Y105402211D01*
X67735435Y105312739D01*
X67748525Y105308151D01*
X68046437Y105184534D01*
X68058930Y105178508D01*
X68296736Y105046885D01*
X68341104Y105022328D01*
X68352874Y105014922D01*
X68615775Y104828138D01*
X68626641Y104819461D01*
X68866964Y104604427D01*
X68876791Y104594589D01*
X69091545Y104353979D01*
X69100208Y104343102D01*
X69286664Y104079971D01*
X69294048Y104068203D01*
X69448921Y103787570D01*
X69449873Y103785846D01*
X69455899Y103773313D01*
X69579127Y103475288D01*
X69583711Y103462161D01*
X69672798Y103152216D01*
X69675884Y103138657D01*
X69729707Y102820682D01*
X69731255Y102806863D01*
X69749329Y102481401D01*
X69749520Y102474448D01*
X69738980Y85486926D01*
X69719254Y85419899D01*
X69666421Y85374177D01*
X69597257Y85364276D01*
X69533719Y85393340D01*
X69527299Y85399322D01*
X69506722Y85419899D01*
X69039451Y85887171D01*
X69005966Y85948494D01*
X69010950Y86018186D01*
X69026813Y86047736D01*
X69073360Y86111801D01*
X69159147Y86280168D01*
X69217540Y86459882D01*
X69247100Y86646514D01*
X69247100Y86835487D01*
X69217540Y87022119D01*
X69159145Y87201837D01*
X69073359Y87370200D01*
X68962290Y87523073D01*
X68828673Y87656690D01*
X68675799Y87767760D01*
X68646476Y87782701D01*
X68507436Y87853546D01*
X68327718Y87911941D01*
X68141086Y87941500D01*
X68141081Y87941500D01*
X67952119Y87941500D01*
X67952114Y87941500D01*
X67765481Y87911941D01*
X67585763Y87853546D01*
X67417400Y87767760D01*
X67347364Y87716875D01*
X67264527Y87656690D01*
X67264525Y87656688D01*
X67264524Y87656688D01*
X67130912Y87523076D01*
X67130912Y87523075D01*
X67130910Y87523073D01*
X67083210Y87457421D01*
X67019840Y87370200D01*
X66934054Y87201837D01*
X66875659Y87022119D01*
X66846100Y86835487D01*
X66846100Y86646514D01*
X66875659Y86459882D01*
X66934054Y86280164D01*
X67019840Y86111801D01*
X67130910Y85958927D01*
X67264527Y85825310D01*
X67333916Y85774896D01*
X67376580Y85719567D01*
X67380236Y85707033D01*
X67380385Y85707077D01*
X67382155Y85701241D01*
X67434242Y85575491D01*
X67434244Y85575488D01*
X67509863Y85462315D01*
X67509869Y85462308D01*
X68894081Y84078098D01*
X68927566Y84016775D01*
X68930400Y83990417D01*
X68930400Y81779710D01*
X68910715Y81712671D01*
X68857911Y81666916D01*
X68822875Y81660724D01*
X68184362Y81022210D01*
X68167325Y81085793D01*
X68101499Y81199807D01*
X68008407Y81292899D01*
X67894393Y81358725D01*
X67830809Y81375763D01*
X68463116Y82008072D01*
X68408950Y82047425D01*
X68219617Y82143896D01*
X68017529Y82209558D01*
X67807646Y82242800D01*
X67595154Y82242800D01*
X67385272Y82209558D01*
X67385269Y82209558D01*
X67183182Y82143896D01*
X66993839Y82047420D01*
X66939682Y82008073D01*
X66939682Y82008072D01*
X67571991Y81375763D01*
X67508407Y81358725D01*
X67394393Y81292899D01*
X67301301Y81199807D01*
X67235475Y81085793D01*
X67218437Y81022209D01*
X66586128Y81654518D01*
X66586127Y81654518D01*
X66546780Y81600360D01*
X66541883Y81590749D01*
X66493906Y81539955D01*
X66426084Y81523162D01*
X66359950Y81545702D01*
X66320916Y81590752D01*
X66316026Y81600348D01*
X66276670Y81654518D01*
X66276669Y81654518D01*
X65644362Y81022210D01*
X65627325Y81085793D01*
X65561499Y81199807D01*
X65468407Y81292899D01*
X65354393Y81358725D01*
X65290809Y81375763D01*
X65923116Y82008072D01*
X65868950Y82047425D01*
X65679617Y82143896D01*
X65477529Y82209558D01*
X65267646Y82242800D01*
X65055154Y82242800D01*
X64845272Y82209558D01*
X64845269Y82209558D01*
X64643182Y82143896D01*
X64453839Y82047420D01*
X64399682Y82008073D01*
X64399682Y82008072D01*
X65031991Y81375763D01*
X64968407Y81358725D01*
X64854393Y81292899D01*
X64761301Y81199807D01*
X64695475Y81085793D01*
X64678437Y81022209D01*
X64046128Y81654518D01*
X64046127Y81654518D01*
X64006780Y81600360D01*
X64006776Y81600354D01*
X64002160Y81591295D01*
X63954181Y81540503D01*
X63886359Y81523713D01*
X63820226Y81546257D01*
X63781194Y81591307D01*
X63776451Y81600616D01*
X63776449Y81600619D01*
X63776448Y81600621D01*
X63651509Y81772587D01*
X63501186Y81922910D01*
X63329220Y82047849D01*
X63139814Y82144356D01*
X63139813Y82144357D01*
X63139812Y82144357D01*
X62937643Y82210046D01*
X62937641Y82210047D01*
X62937640Y82210047D01*
X62776357Y82235592D01*
X62727687Y82243300D01*
X62515113Y82243300D01*
X62466442Y82235592D01*
X62305160Y82210047D01*
X62102985Y82144356D01*
X61913579Y82047849D01*
X61741613Y81922910D01*
X61741609Y81922906D01*
X61591297Y81772593D01*
X61591290Y81772587D01*
X61466349Y81600618D01*
X61461884Y81591854D01*
X61413909Y81541058D01*
X61346088Y81524264D01*
X61279953Y81546802D01*
X61240916Y81591854D01*
X61236450Y81600618D01*
X61111509Y81772587D01*
X60961186Y81922910D01*
X60789220Y82047849D01*
X60599814Y82144356D01*
X60599813Y82144357D01*
X60599812Y82144357D01*
X60397643Y82210046D01*
X60397641Y82210047D01*
X60397640Y82210047D01*
X60236357Y82235592D01*
X60187687Y82243300D01*
X59975113Y82243300D01*
X59926442Y82235592D01*
X59765160Y82210047D01*
X59562985Y82144356D01*
X59373579Y82047849D01*
X59201613Y81922910D01*
X59201609Y81922906D01*
X59051297Y81772593D01*
X59051290Y81772587D01*
X58926349Y81600618D01*
X58921884Y81591854D01*
X58873909Y81541058D01*
X58806088Y81524264D01*
X58739953Y81546802D01*
X58700916Y81591854D01*
X58696450Y81600618D01*
X58571509Y81772587D01*
X58421186Y81922910D01*
X58249220Y82047849D01*
X58059814Y82144356D01*
X58059813Y82144357D01*
X58059812Y82144357D01*
X57857643Y82210046D01*
X57857641Y82210047D01*
X57857640Y82210047D01*
X57696357Y82235592D01*
X57647687Y82243300D01*
X57435113Y82243300D01*
X57386442Y82235592D01*
X57225160Y82210047D01*
X57022985Y82144356D01*
X56833579Y82047849D01*
X56661613Y81922910D01*
X56661609Y81922906D01*
X56511297Y81772593D01*
X56511290Y81772587D01*
X56386351Y81600621D01*
X56289844Y81411217D01*
X56228862Y81223534D01*
X56189424Y81165859D01*
X56125065Y81138661D01*
X56056219Y81150576D01*
X56023250Y81174172D01*
X55870719Y81326703D01*
X55837234Y81388026D01*
X55834400Y81414384D01*
X55834400Y83684861D01*
X55807846Y83818351D01*
X55807845Y83818357D01*
X55773070Y83902313D01*
X55755756Y83944112D01*
X55755754Y83944115D01*
X55755752Y83944119D01*
X55680135Y84057287D01*
X55680132Y84057291D01*
X54635703Y85101719D01*
X54602218Y85163042D01*
X54607202Y85232734D01*
X54649074Y85288667D01*
X54714538Y85313084D01*
X54723384Y85313400D01*
X59427860Y85313400D01*
X59517670Y85331266D01*
X59561357Y85339955D01*
X59687111Y85392044D01*
X59800287Y85467665D01*
X62207935Y87875313D01*
X62283556Y87988489D01*
X62335645Y88114243D01*
X62336866Y88120382D01*
X62362200Y88247742D01*
X62362200Y89436707D01*
X62381885Y89503746D01*
X62413316Y89537026D01*
X62421586Y89543034D01*
X62478673Y89584510D01*
X62612290Y89718127D01*
X62723360Y89871001D01*
X62809147Y90039368D01*
X62867540Y90219082D01*
X62873754Y90258314D01*
X62897100Y90405714D01*
X62897100Y90594687D01*
X62867540Y90781319D01*
X62809145Y90961037D01*
X62736301Y91104000D01*
X62723360Y91129399D01*
X62612290Y91282273D01*
X62478673Y91415890D01*
X62325799Y91526960D01*
X62300438Y91539882D01*
X62157436Y91612746D01*
X61977718Y91671141D01*
X61791086Y91700700D01*
X61791081Y91700700D01*
X61602119Y91700700D01*
X61602114Y91700700D01*
X61415481Y91671141D01*
X61235763Y91612746D01*
X61067400Y91526960D01*
X61010676Y91485747D01*
X60914527Y91415890D01*
X60914525Y91415888D01*
X60914524Y91415888D01*
X60780912Y91282276D01*
X60780912Y91282275D01*
X60780910Y91282273D01*
X60762456Y91256873D01*
X60669840Y91129400D01*
X60584054Y90961037D01*
X60525659Y90781319D01*
X60496100Y90594687D01*
X60496100Y90405714D01*
X60525659Y90219082D01*
X60584054Y90039364D01*
X60650870Y89908232D01*
X60669840Y89871001D01*
X60780910Y89718127D01*
X60914527Y89584510D01*
X60929083Y89573935D01*
X60971749Y89518607D01*
X60980200Y89473615D01*
X60980200Y88653384D01*
X60960515Y88586345D01*
X60943881Y88565703D01*
X59109897Y86731719D01*
X59048574Y86698234D01*
X59022216Y86695400D01*
X58734300Y86695400D01*
X58667261Y86715085D01*
X58621506Y86767889D01*
X58610300Y86819400D01*
X58610299Y88280471D01*
X58610298Y88280477D01*
X58610297Y88280484D01*
X58603891Y88340083D01*
X58567957Y88436426D01*
X58553597Y88474929D01*
X58553593Y88474936D01*
X58467347Y88590145D01*
X58467344Y88590148D01*
X58352135Y88676394D01*
X58352128Y88676398D01*
X58217282Y88726692D01*
X58217283Y88726692D01*
X58157683Y88733099D01*
X58157681Y88733100D01*
X58157673Y88733100D01*
X58157664Y88733100D01*
X56561929Y88733100D01*
X56561923Y88733099D01*
X56502316Y88726692D01*
X56367471Y88676398D01*
X56367464Y88676394D01*
X56252255Y88590148D01*
X56252252Y88590145D01*
X56166006Y88474936D01*
X56166002Y88474929D01*
X56115708Y88340083D01*
X56111103Y88297246D01*
X56109301Y88280477D01*
X56109300Y88280465D01*
X56109300Y88216868D01*
X56089615Y88149829D01*
X56036811Y88104074D01*
X55967653Y88094130D01*
X55904097Y88123155D01*
X55884982Y88143982D01*
X55808703Y88248969D01*
X55773628Y88297246D01*
X55634446Y88436428D01*
X55475205Y88552124D01*
X55448555Y88565703D01*
X55299829Y88641483D01*
X55112626Y88702310D01*
X54918222Y88733100D01*
X54918217Y88733100D01*
X54721383Y88733100D01*
X54721378Y88733100D01*
X54526973Y88702310D01*
X54339770Y88641483D01*
X54164394Y88552124D01*
X54078623Y88489807D01*
X54005154Y88436428D01*
X54005152Y88436426D01*
X54005151Y88436426D01*
X53865974Y88297249D01*
X53865974Y88297248D01*
X53865972Y88297246D01*
X53853780Y88280465D01*
X53750276Y88138006D01*
X53660285Y87961387D01*
X53612311Y87910591D01*
X53544490Y87893796D01*
X53478355Y87916333D01*
X53439315Y87961387D01*
X53371679Y88094130D01*
X53349324Y88138005D01*
X53233628Y88297246D01*
X53094446Y88436428D01*
X52935205Y88552124D01*
X52908555Y88565703D01*
X52759829Y88641483D01*
X52572626Y88702310D01*
X52378222Y88733100D01*
X52378217Y88733100D01*
X52181383Y88733100D01*
X52181378Y88733100D01*
X51986973Y88702310D01*
X51799770Y88641483D01*
X51624394Y88552124D01*
X51538623Y88489807D01*
X51465154Y88436428D01*
X51465152Y88436426D01*
X51465151Y88436426D01*
X51325974Y88297249D01*
X51325974Y88297248D01*
X51325972Y88297246D01*
X51313780Y88280465D01*
X51210276Y88138006D01*
X51120285Y87961387D01*
X51072311Y87910591D01*
X51004490Y87893796D01*
X50938355Y87916333D01*
X50899315Y87961387D01*
X50831679Y88094130D01*
X50809324Y88138005D01*
X50809322Y88138008D01*
X50809321Y88138010D01*
X50776515Y88183163D01*
X50753034Y88248969D01*
X50768859Y88317023D01*
X50789147Y88343726D01*
X52192902Y89747482D01*
X52254225Y89780966D01*
X52280583Y89783800D01*
X53031560Y89783800D01*
X53098599Y89764115D01*
X53131877Y89732687D01*
X53142455Y89718127D01*
X53160910Y89692727D01*
X53294527Y89559110D01*
X53447401Y89448040D01*
X53526947Y89407510D01*
X53615763Y89362255D01*
X53615765Y89362255D01*
X53615768Y89362253D01*
X53712097Y89330954D01*
X53795481Y89303860D01*
X53982114Y89274300D01*
X53982119Y89274300D01*
X54171086Y89274300D01*
X54357718Y89303860D01*
X54537432Y89362253D01*
X54705799Y89448040D01*
X54858673Y89559110D01*
X54992290Y89692727D01*
X55103360Y89845601D01*
X55189147Y90013968D01*
X55247540Y90193682D01*
X55257777Y90258314D01*
X55277100Y90380314D01*
X55277100Y90569287D01*
X55247540Y90755919D01*
X55189145Y90935637D01*
X55111942Y91087156D01*
X55103360Y91103999D01*
X54992290Y91256873D01*
X54858673Y91390490D01*
X54705799Y91501560D01*
X54537436Y91587346D01*
X54357718Y91645741D01*
X54171086Y91675300D01*
X54171081Y91675300D01*
X53982119Y91675300D01*
X53982114Y91675300D01*
X53795481Y91645741D01*
X53615763Y91587346D01*
X53447400Y91501560D01*
X53397558Y91465347D01*
X53294527Y91390490D01*
X53294525Y91390488D01*
X53294524Y91390488D01*
X53160909Y91256873D01*
X53131877Y91216913D01*
X53076547Y91174248D01*
X53031560Y91165800D01*
X51874940Y91165800D01*
X51781661Y91147245D01*
X51781660Y91147245D01*
X51741450Y91139247D01*
X51741438Y91139244D01*
X51615695Y91087160D01*
X51615682Y91087153D01*
X51502514Y91011536D01*
X51502510Y91011533D01*
X50067497Y89576519D01*
X50006174Y89543034D01*
X49979816Y89540200D01*
X45241854Y89540200D01*
X45174815Y89559885D01*
X45129060Y89612689D01*
X45119116Y89681847D01*
X45141536Y89737085D01*
X45146557Y89743997D01*
X45146556Y89743997D01*
X45146560Y89744001D01*
X45232347Y89912368D01*
X45290740Y90092082D01*
X45297653Y90135727D01*
X45320300Y90278714D01*
X45320300Y90467687D01*
X45290740Y90654319D01*
X45249475Y90781318D01*
X45232347Y90834032D01*
X45232345Y90834035D01*
X45232345Y90834037D01*
X45156954Y90981999D01*
X45146560Y91002399D01*
X45035490Y91155273D01*
X44901873Y91288890D01*
X44748999Y91399960D01*
X44580636Y91485746D01*
X44400918Y91544141D01*
X44214286Y91573700D01*
X44214281Y91573700D01*
X44025319Y91573700D01*
X44025314Y91573700D01*
X43838681Y91544141D01*
X43658963Y91485746D01*
X43490600Y91399960D01*
X43403379Y91336590D01*
X43337727Y91288890D01*
X43337725Y91288888D01*
X43337724Y91288888D01*
X43204112Y91155276D01*
X43204112Y91155275D01*
X43204110Y91155273D01*
X43166858Y91104000D01*
X43093040Y91002400D01*
X43007254Y90834037D01*
X42948858Y90654314D01*
X42948182Y90651496D01*
X42947630Y90650536D01*
X42947354Y90649684D01*
X42947175Y90649743D01*
X42913395Y90590903D01*
X42851371Y90558735D01*
X42781801Y90565208D01*
X42726775Y90608264D01*
X42709676Y90642118D01*
X42682435Y90725955D01*
X42653947Y90813632D01*
X42653945Y90813635D01*
X42653945Y90813637D01*
X42591785Y90935632D01*
X42568160Y90981999D01*
X42457090Y91134873D01*
X42323473Y91268490D01*
X42170599Y91379560D01*
X42130562Y91399960D01*
X42002236Y91465346D01*
X41822518Y91523741D01*
X41635886Y91553300D01*
X41635881Y91553300D01*
X41446919Y91553300D01*
X41446914Y91553300D01*
X41260281Y91523741D01*
X41080563Y91465346D01*
X40912200Y91379560D01*
X40824979Y91316190D01*
X40759327Y91268490D01*
X40759325Y91268488D01*
X40759324Y91268488D01*
X40625712Y91134876D01*
X40625712Y91134875D01*
X40625710Y91134873D01*
X40591039Y91087153D01*
X40514640Y90982000D01*
X40428854Y90813637D01*
X40370459Y90633919D01*
X40340900Y90447287D01*
X40340900Y90258314D01*
X40370459Y90071682D01*
X40428854Y89891964D01*
X40483967Y89783800D01*
X40510010Y89732687D01*
X40516223Y89720495D01*
X40529119Y89651826D01*
X40502843Y89587085D01*
X40445736Y89546828D01*
X40405738Y89540200D01*
X40010062Y89540200D01*
X39943023Y89559885D01*
X39897268Y89612689D01*
X39887324Y89681847D01*
X39899577Y89720495D01*
X39905790Y89732687D01*
X39986947Y89891968D01*
X40045340Y90071682D01*
X40055484Y90135727D01*
X40074900Y90258314D01*
X40074900Y90447287D01*
X40045340Y90633919D01*
X40018246Y90717303D01*
X39986947Y90813632D01*
X39986945Y90813635D01*
X39986945Y90813637D01*
X39924785Y90935632D01*
X39901160Y90981999D01*
X39790090Y91134873D01*
X39656473Y91268490D01*
X39503599Y91379560D01*
X39463562Y91399960D01*
X39335236Y91465346D01*
X39155518Y91523741D01*
X38968886Y91553300D01*
X38968881Y91553300D01*
X38779919Y91553300D01*
X38779914Y91553300D01*
X38593281Y91523741D01*
X38413563Y91465346D01*
X38245200Y91379560D01*
X38157979Y91316190D01*
X38092327Y91268490D01*
X38092325Y91268488D01*
X38092324Y91268488D01*
X37958712Y91134876D01*
X37958712Y91134875D01*
X37958710Y91134873D01*
X37924039Y91087153D01*
X37847640Y90982000D01*
X37778385Y90846079D01*
X37730410Y90795283D01*
X37662589Y90778488D01*
X37596454Y90801026D01*
X37557415Y90846079D01*
X37511785Y90935632D01*
X37488160Y90981999D01*
X37377090Y91134873D01*
X37243473Y91268490D01*
X37090599Y91379560D01*
X37050562Y91399960D01*
X36922236Y91465346D01*
X36742518Y91523741D01*
X36555886Y91553300D01*
X36555881Y91553300D01*
X36366919Y91553300D01*
X36366914Y91553300D01*
X36180281Y91523741D01*
X36000563Y91465346D01*
X35832200Y91379560D01*
X35744979Y91316190D01*
X35679327Y91268490D01*
X35679325Y91268488D01*
X35679324Y91268488D01*
X35545712Y91134876D01*
X35545712Y91134875D01*
X35545710Y91134873D01*
X35511039Y91087153D01*
X35434640Y90982000D01*
X35348854Y90813637D01*
X35309331Y90691997D01*
X35269893Y90634322D01*
X35205534Y90607124D01*
X35136688Y90619039D01*
X35085212Y90666284D01*
X35073469Y90691997D01*
X35063049Y90724066D01*
X35033947Y90813632D01*
X35033945Y90813635D01*
X35033945Y90813637D01*
X34971785Y90935632D01*
X34948160Y90981999D01*
X34837090Y91134873D01*
X34703473Y91268490D01*
X34550599Y91379560D01*
X34510562Y91399960D01*
X34382236Y91465346D01*
X34202518Y91523741D01*
X34015886Y91553300D01*
X34015881Y91553300D01*
X33826919Y91553300D01*
X33826914Y91553300D01*
X33640281Y91523741D01*
X33460563Y91465346D01*
X33292200Y91379560D01*
X33204979Y91316190D01*
X33139327Y91268490D01*
X33139325Y91268488D01*
X33139324Y91268488D01*
X33005712Y91134876D01*
X33005712Y91134875D01*
X33005710Y91134873D01*
X32971039Y91087153D01*
X32894640Y90982000D01*
X32808854Y90813637D01*
X32769331Y90691997D01*
X32729893Y90634322D01*
X32665534Y90607124D01*
X32596688Y90619039D01*
X32545212Y90666284D01*
X32533469Y90691997D01*
X32523049Y90724066D01*
X32493947Y90813632D01*
X32493945Y90813635D01*
X32493945Y90813637D01*
X32431785Y90935632D01*
X32408160Y90981999D01*
X32297090Y91134873D01*
X32163473Y91268490D01*
X32010599Y91379560D01*
X31970562Y91399960D01*
X31842236Y91465346D01*
X31662518Y91523741D01*
X31475886Y91553300D01*
X31475881Y91553300D01*
X31286919Y91553300D01*
X31286914Y91553300D01*
X31100281Y91523741D01*
X30920563Y91465346D01*
X30752200Y91379560D01*
X30664979Y91316190D01*
X30599327Y91268490D01*
X30599325Y91268488D01*
X30599324Y91268488D01*
X30465712Y91134876D01*
X30465712Y91134875D01*
X30465710Y91134873D01*
X30431039Y91087153D01*
X30354640Y90982000D01*
X30268854Y90813637D01*
X30210459Y90633919D01*
X30180900Y90447287D01*
X30180900Y90258314D01*
X30210459Y90071682D01*
X30268854Y89891964D01*
X30323967Y89783800D01*
X30350010Y89732687D01*
X30356223Y89720495D01*
X30369119Y89651826D01*
X30342843Y89587085D01*
X30285736Y89546828D01*
X30245738Y89540200D01*
X28202140Y89540200D01*
X28068648Y89513647D01*
X28068638Y89513644D01*
X27942890Y89461558D01*
X27942887Y89461556D01*
X27829714Y89385937D01*
X27829707Y89385931D01*
X24329868Y85886092D01*
X24329865Y85886087D01*
X24289256Y85825310D01*
X24271750Y85799111D01*
X24254244Y85772912D01*
X24254240Y85772905D01*
X24202156Y85647162D01*
X24202153Y85647152D01*
X24175600Y85513661D01*
X24175600Y85057579D01*
X24155915Y84990540D01*
X24103111Y84944785D01*
X24033953Y84934841D01*
X24013283Y84939648D01*
X23915942Y84971276D01*
X23915935Y84971277D01*
X23794314Y84990540D01*
X23713752Y85003300D01*
X23509048Y85003300D01*
X23484729Y84999449D01*
X23306865Y84971278D01*
X23112176Y84908019D01*
X22929786Y84815085D01*
X22764186Y84694772D01*
X22619428Y84550014D01*
X22499115Y84384414D01*
X22451885Y84291720D01*
X22403910Y84240924D01*
X22336089Y84224129D01*
X22269954Y84246666D01*
X22230915Y84291720D01*
X22183820Y84384148D01*
X22183687Y84384410D01*
X22151492Y84428723D01*
X22063371Y84550014D01*
X21918613Y84694772D01*
X21753013Y84815085D01*
X21753012Y84815086D01*
X21753010Y84815087D01*
X21696053Y84844109D01*
X21570623Y84908019D01*
X21375934Y84971278D01*
X21201395Y84998922D01*
X21173752Y85003300D01*
X20969048Y85003300D01*
X20944729Y84999449D01*
X20766865Y84971278D01*
X20572176Y84908019D01*
X20389786Y84815085D01*
X20224186Y84694772D01*
X20079428Y84550014D01*
X19959115Y84384414D01*
X19911885Y84291720D01*
X19863910Y84240924D01*
X19796089Y84224129D01*
X19729954Y84246666D01*
X19690915Y84291720D01*
X19643820Y84384148D01*
X19643687Y84384410D01*
X19611492Y84428723D01*
X19523371Y84550014D01*
X19378613Y84694772D01*
X19213013Y84815085D01*
X19213012Y84815086D01*
X19213010Y84815087D01*
X19156053Y84844109D01*
X19030623Y84908019D01*
X18835934Y84971278D01*
X18661395Y84998922D01*
X18633752Y85003300D01*
X18429048Y85003300D01*
X18404729Y84999449D01*
X18226865Y84971278D01*
X18032176Y84908019D01*
X17849786Y84815085D01*
X17684186Y84694772D01*
X17539428Y84550014D01*
X17419115Y84384414D01*
X17326181Y84202024D01*
X17262922Y84007335D01*
X17230900Y83805152D01*
X17230900Y83600449D01*
X17262922Y83398266D01*
X17326181Y83203577D01*
X17390091Y83078147D01*
X17418985Y83021441D01*
X17419115Y83021187D01*
X17539428Y82855587D01*
X17684186Y82710829D01*
X17789285Y82634472D01*
X17849790Y82590513D01*
X17937599Y82545772D01*
X18032176Y82497582D01*
X18032178Y82497582D01*
X18032181Y82497580D01*
X18096477Y82476689D01*
X18226865Y82434323D01*
X18242353Y82431870D01*
X18429048Y82402300D01*
X18429049Y82402300D01*
X18633751Y82402300D01*
X18633752Y82402300D01*
X18835934Y82434323D01*
X19030619Y82497580D01*
X19213010Y82590513D01*
X19305990Y82658068D01*
X19378613Y82710829D01*
X19378615Y82710832D01*
X19378619Y82710834D01*
X19523366Y82855581D01*
X19523368Y82855585D01*
X19523371Y82855587D01*
X19643684Y83021186D01*
X19643686Y83021189D01*
X19643687Y83021190D01*
X19690916Y83113883D01*
X19738889Y83164677D01*
X19806710Y83181472D01*
X19872845Y83158935D01*
X19911885Y83113881D01*
X19959115Y83021186D01*
X20079428Y82855587D01*
X20224186Y82710829D01*
X20329285Y82634472D01*
X20389790Y82590513D01*
X20477599Y82545772D01*
X20572176Y82497582D01*
X20572178Y82497582D01*
X20572181Y82497580D01*
X20636477Y82476689D01*
X20766865Y82434323D01*
X20782353Y82431870D01*
X20969048Y82402300D01*
X20969049Y82402300D01*
X21173751Y82402300D01*
X21173752Y82402300D01*
X21375934Y82434323D01*
X21570619Y82497580D01*
X21753010Y82590513D01*
X21845990Y82658068D01*
X21918613Y82710829D01*
X21918615Y82710832D01*
X21918619Y82710834D01*
X22063366Y82855581D01*
X22063368Y82855585D01*
X22063371Y82855587D01*
X22183684Y83021186D01*
X22183686Y83021189D01*
X22183687Y83021190D01*
X22230916Y83113883D01*
X22278889Y83164677D01*
X22346710Y83181472D01*
X22412845Y83158935D01*
X22451885Y83113881D01*
X22499115Y83021186D01*
X22619428Y82855587D01*
X22764186Y82710829D01*
X22869285Y82634472D01*
X22929790Y82590513D01*
X23017599Y82545772D01*
X23112176Y82497582D01*
X23112178Y82497582D01*
X23112181Y82497580D01*
X23176477Y82476689D01*
X23306865Y82434323D01*
X23322353Y82431870D01*
X23509048Y82402300D01*
X23509049Y82402300D01*
X23713751Y82402300D01*
X23713752Y82402300D01*
X23915934Y82434323D01*
X24013284Y82465955D01*
X24083122Y82467950D01*
X24142955Y82431870D01*
X24173784Y82369169D01*
X24175600Y82348023D01*
X24175600Y82227185D01*
X24155915Y82160146D01*
X24139281Y82139504D01*
X23074669Y81074893D01*
X23074663Y81074886D01*
X23030469Y81008743D01*
X23030469Y81008742D01*
X22999042Y80961709D01*
X22946956Y80835962D01*
X22946953Y80835952D01*
X22920400Y80702461D01*
X22920400Y77251447D01*
X22900715Y77184408D01*
X22869285Y77151129D01*
X22764187Y77074772D01*
X22764182Y77074768D01*
X22619428Y76930014D01*
X22499115Y76764414D01*
X22451885Y76671720D01*
X22403910Y76620924D01*
X22336089Y76604129D01*
X22269954Y76626666D01*
X22230915Y76671720D01*
X22225261Y76682817D01*
X22183687Y76764410D01*
X22151492Y76808723D01*
X22063371Y76930014D01*
X21918613Y77074772D01*
X21753014Y77195085D01*
X21570615Y77288022D01*
X21567414Y77289348D01*
X21527199Y77316223D01*
X18245892Y80597531D01*
X18245885Y80597537D01*
X18132712Y80673156D01*
X18132709Y80673158D01*
X18006961Y80725244D01*
X18006951Y80725247D01*
X17873460Y80751800D01*
X17873458Y80751800D01*
X13316984Y80751800D01*
X13249945Y80771485D01*
X13229303Y80788119D01*
X7229719Y86787703D01*
X7196234Y86849026D01*
X7193400Y86875384D01*
X7193400Y86903531D01*
X7213085Y86970570D01*
X7265889Y87016325D01*
X7335047Y87026269D01*
X7390281Y87003851D01*
X7533967Y86899457D01*
X7545908Y86893373D01*
X7744403Y86792234D01*
X7744405Y86792234D01*
X7744408Y86792232D01*
X7819328Y86767889D01*
X7969031Y86719247D01*
X8202303Y86682300D01*
X8202308Y86682300D01*
X8438497Y86682300D01*
X8671768Y86719247D01*
X8673270Y86719735D01*
X8896392Y86792232D01*
X9106833Y86899457D01*
X9297910Y87038283D01*
X9464917Y87205290D01*
X9509667Y87266885D01*
X9514080Y87271769D01*
X9538459Y87286737D01*
X9561111Y87304204D01*
X9568743Y87305330D01*
X9573623Y87308325D01*
X9587170Y87308047D01*
X9592943Y87308898D01*
X10337437Y88053392D01*
X10354475Y87989807D01*
X10420301Y87875793D01*
X10513393Y87782701D01*
X10627407Y87716875D01*
X10690990Y87699838D01*
X9951293Y86960142D01*
X10034228Y86899886D01*
X10244597Y86792698D01*
X10469152Y86719735D01*
X10469151Y86719735D01*
X10702348Y86682800D01*
X10938452Y86682800D01*
X11171647Y86719735D01*
X11396202Y86792698D01*
X11606563Y86899882D01*
X11606569Y86899886D01*
X11689504Y86960142D01*
X11689505Y86960142D01*
X10949808Y87699838D01*
X11013393Y87716875D01*
X11127407Y87782701D01*
X11220499Y87875793D01*
X11286325Y87989807D01*
X11303362Y88053391D01*
X12049670Y87307083D01*
X12093343Y87297909D01*
X12135014Y87261541D01*
X12175883Y87205290D01*
X12342890Y87038283D01*
X12533967Y86899457D01*
X12545908Y86893373D01*
X12744403Y86792234D01*
X12744405Y86792234D01*
X12744408Y86792232D01*
X12819328Y86767889D01*
X12969031Y86719247D01*
X13202303Y86682300D01*
X13202308Y86682300D01*
X13438497Y86682300D01*
X13671768Y86719247D01*
X13673270Y86719735D01*
X13896392Y86792232D01*
X14106833Y86899457D01*
X14297910Y87038283D01*
X14464917Y87205290D01*
X14603743Y87396367D01*
X14710968Y87606808D01*
X14783953Y87831432D01*
X14820900Y88064703D01*
X14820900Y88300898D01*
X14783953Y88534169D01*
X14737740Y88676396D01*
X14710968Y88758792D01*
X14710966Y88758795D01*
X14710966Y88758797D01*
X14603742Y88969234D01*
X14540191Y89056704D01*
X14464917Y89160310D01*
X14297910Y89327317D01*
X14106833Y89466143D01*
X13896396Y89573367D01*
X13671768Y89646354D01*
X13438497Y89683300D01*
X13438492Y89683300D01*
X13202308Y89683300D01*
X13202303Y89683300D01*
X12969031Y89646354D01*
X12744403Y89573367D01*
X12533966Y89466143D01*
X12450447Y89405462D01*
X12342890Y89327317D01*
X12342888Y89327315D01*
X12342887Y89327315D01*
X12175882Y89160310D01*
X12135015Y89104061D01*
X12079685Y89061396D01*
X12047855Y89056704D01*
X11303362Y88312210D01*
X11286325Y88375793D01*
X11220499Y88489807D01*
X11127407Y88582899D01*
X11013393Y88648725D01*
X10949809Y88665763D01*
X11689505Y89405460D01*
X11689504Y89405462D01*
X11606574Y89465713D01*
X11396202Y89572903D01*
X11171647Y89645866D01*
X11171648Y89645866D01*
X10938452Y89682800D01*
X10702348Y89682800D01*
X10469152Y89645866D01*
X10244597Y89572903D01*
X10034230Y89465716D01*
X9951294Y89405460D01*
X10690991Y88665763D01*
X10627407Y88648725D01*
X10513393Y88582899D01*
X10420301Y88489807D01*
X10354475Y88375793D01*
X10337437Y88312210D01*
X9591127Y89058520D01*
X9547452Y89067695D01*
X9514080Y89093832D01*
X9509664Y89098721D01*
X9464917Y89160310D01*
X9297910Y89327317D01*
X9106833Y89466143D01*
X8896396Y89573367D01*
X8671768Y89646354D01*
X8438497Y89683300D01*
X8438492Y89683300D01*
X8202308Y89683300D01*
X8202303Y89683300D01*
X7969031Y89646354D01*
X7744403Y89573367D01*
X7533966Y89466143D01*
X7450447Y89405462D01*
X7390976Y89362253D01*
X7390286Y89361752D01*
X7324479Y89338272D01*
X7256425Y89354097D01*
X7207730Y89404203D01*
X7193400Y89462070D01*
X7193400Y91026216D01*
X7213085Y91093255D01*
X7229719Y91113897D01*
X8031310Y91915487D01*
X66846100Y91915487D01*
X66846100Y91726514D01*
X66875659Y91539882D01*
X66934054Y91360164D01*
X66986683Y91256875D01*
X67019840Y91191801D01*
X67130910Y91038927D01*
X67264527Y90905310D01*
X67417401Y90794240D01*
X67492610Y90755919D01*
X67585763Y90708455D01*
X67585765Y90708455D01*
X67585768Y90708453D01*
X67682097Y90677154D01*
X67765481Y90650060D01*
X67952114Y90620500D01*
X67952119Y90620500D01*
X68141086Y90620500D01*
X68327718Y90650060D01*
X68329183Y90650536D01*
X68507432Y90708453D01*
X68675799Y90794240D01*
X68828673Y90905310D01*
X68962290Y91038927D01*
X69073360Y91191801D01*
X69159147Y91360168D01*
X69217540Y91539882D01*
X69222896Y91573700D01*
X69247100Y91726514D01*
X69247100Y91915487D01*
X69217540Y92102119D01*
X69159145Y92281837D01*
X69073359Y92450200D01*
X68962290Y92603073D01*
X68828673Y92736690D01*
X68675799Y92847760D01*
X68662589Y92854491D01*
X68507436Y92933546D01*
X68327718Y92991941D01*
X68141086Y93021500D01*
X68141081Y93021500D01*
X67952119Y93021500D01*
X67952114Y93021500D01*
X67765481Y92991941D01*
X67585763Y92933546D01*
X67417400Y92847760D01*
X67387781Y92826240D01*
X67264527Y92736690D01*
X67264525Y92736688D01*
X67264524Y92736688D01*
X67130912Y92603076D01*
X67130912Y92603075D01*
X67130910Y92603073D01*
X67083210Y92537421D01*
X67019840Y92450200D01*
X66934054Y92281837D01*
X66875659Y92102119D01*
X66846100Y91915487D01*
X8031310Y91915487D01*
X8123857Y92008034D01*
X8857130Y92741308D01*
X8857135Y92741313D01*
X8932756Y92854489D01*
X8984845Y92980243D01*
X8989272Y93002500D01*
X9011400Y93113742D01*
X9011400Y95820468D01*
X14319900Y95820468D01*
X14319900Y95545133D01*
X14319901Y95545116D01*
X14355838Y95272145D01*
X14355839Y95272141D01*
X14355840Y95272134D01*
X14396773Y95119368D01*
X14427104Y95006170D01*
X14532475Y94751783D01*
X14532480Y94751772D01*
X14599856Y94635075D01*
X14670151Y94513321D01*
X14670153Y94513318D01*
X14670154Y94513317D01*
X14837770Y94294874D01*
X14837776Y94294867D01*
X15032466Y94100177D01*
X15032472Y94100172D01*
X15250921Y93932551D01*
X15404178Y93844068D01*
X15489371Y93794881D01*
X15489376Y93794879D01*
X15489379Y93794877D01*
X15743768Y93689505D01*
X16009734Y93618240D01*
X16282726Y93582300D01*
X16282733Y93582300D01*
X16558067Y93582300D01*
X16558074Y93582300D01*
X16831066Y93618240D01*
X17097032Y93689505D01*
X17351421Y93794877D01*
X17589879Y93932551D01*
X17609344Y93947487D01*
X21608700Y93947487D01*
X21608700Y93758514D01*
X21638259Y93571882D01*
X21696654Y93392164D01*
X21782440Y93223801D01*
X21893510Y93070927D01*
X22027127Y92937310D01*
X22180001Y92826240D01*
X22259547Y92785710D01*
X22348363Y92740455D01*
X22348365Y92740455D01*
X22348368Y92740453D01*
X22444697Y92709154D01*
X22528081Y92682060D01*
X22714714Y92652500D01*
X22714719Y92652500D01*
X22903686Y92652500D01*
X23090318Y92682060D01*
X23270032Y92740453D01*
X23438399Y92826240D01*
X23591273Y92937310D01*
X23724890Y93070927D01*
X23835960Y93223801D01*
X23921747Y93392168D01*
X23980140Y93571882D01*
X23980494Y93574115D01*
X24009700Y93758514D01*
X24009700Y93947487D01*
X26688700Y93947487D01*
X26688700Y93758514D01*
X26718259Y93571882D01*
X26776654Y93392164D01*
X26862440Y93223801D01*
X26973510Y93070927D01*
X27107127Y92937310D01*
X27260001Y92826240D01*
X27339547Y92785710D01*
X27428363Y92740455D01*
X27428365Y92740455D01*
X27428368Y92740453D01*
X27524697Y92709154D01*
X27608081Y92682060D01*
X27794714Y92652500D01*
X27794719Y92652500D01*
X27983686Y92652500D01*
X28170318Y92682060D01*
X28350032Y92740453D01*
X28518399Y92826240D01*
X28671273Y92937310D01*
X28804890Y93070927D01*
X28915960Y93223801D01*
X29001747Y93392168D01*
X29060140Y93571882D01*
X29060494Y93574115D01*
X29089700Y93758514D01*
X29089700Y93947487D01*
X29060140Y94134119D01*
X29033046Y94217503D01*
X29001747Y94313832D01*
X29001745Y94313835D01*
X29001745Y94313837D01*
X28954764Y94406041D01*
X28915960Y94482199D01*
X28804890Y94635073D01*
X28671273Y94768690D01*
X28518399Y94879760D01*
X28481804Y94898406D01*
X28350036Y94965546D01*
X28170318Y95023941D01*
X27983686Y95053500D01*
X27983681Y95053500D01*
X27794719Y95053500D01*
X27794714Y95053500D01*
X27608081Y95023941D01*
X27428363Y94965546D01*
X27260000Y94879760D01*
X27183256Y94824001D01*
X27107127Y94768690D01*
X27107125Y94768688D01*
X27107124Y94768688D01*
X26973512Y94635076D01*
X26973512Y94635075D01*
X26973510Y94635073D01*
X26931083Y94576678D01*
X26862440Y94482200D01*
X26776654Y94313837D01*
X26718259Y94134119D01*
X26688700Y93947487D01*
X24009700Y93947487D01*
X23980140Y94134119D01*
X23953046Y94217503D01*
X23921747Y94313832D01*
X23921745Y94313835D01*
X23921745Y94313837D01*
X23874764Y94406041D01*
X23835960Y94482199D01*
X23724890Y94635073D01*
X23591273Y94768690D01*
X23438399Y94879760D01*
X23401804Y94898406D01*
X23270036Y94965546D01*
X23090318Y95023941D01*
X22903686Y95053500D01*
X22903681Y95053500D01*
X22714719Y95053500D01*
X22714714Y95053500D01*
X22528081Y95023941D01*
X22348363Y94965546D01*
X22180000Y94879760D01*
X22103256Y94824001D01*
X22027127Y94768690D01*
X22027125Y94768688D01*
X22027124Y94768688D01*
X21893512Y94635076D01*
X21893512Y94635075D01*
X21893510Y94635073D01*
X21851083Y94576678D01*
X21782440Y94482200D01*
X21696654Y94313837D01*
X21638259Y94134119D01*
X21608700Y93947487D01*
X17609344Y93947487D01*
X17688322Y94008090D01*
X17743893Y94050729D01*
X17775828Y94075235D01*
X17808328Y94100172D01*
X18003028Y94294872D01*
X18170649Y94513321D01*
X18308323Y94751779D01*
X18413695Y95006168D01*
X18484960Y95272134D01*
X18518551Y95527287D01*
X30180900Y95527287D01*
X30180900Y95338314D01*
X30210459Y95151682D01*
X30268854Y94971964D01*
X30306335Y94898405D01*
X30354640Y94803601D01*
X30465710Y94650727D01*
X30599327Y94517110D01*
X30752201Y94406040D01*
X30802719Y94380300D01*
X30920563Y94320255D01*
X30920565Y94320255D01*
X30920568Y94320253D01*
X30998676Y94294874D01*
X31100281Y94261860D01*
X31286914Y94232300D01*
X31286919Y94232300D01*
X31475886Y94232300D01*
X31662518Y94261860D01*
X31725302Y94282260D01*
X31842232Y94320253D01*
X32010599Y94406040D01*
X32163473Y94517110D01*
X32297090Y94650727D01*
X32408160Y94803601D01*
X32493947Y94971968D01*
X32533469Y95093605D01*
X32572907Y95151279D01*
X32637266Y95178477D01*
X32706112Y95166562D01*
X32757588Y95119318D01*
X32769330Y95093606D01*
X32784055Y95048289D01*
X32808854Y94971964D01*
X32846335Y94898405D01*
X32894640Y94803601D01*
X33005710Y94650727D01*
X33139327Y94517110D01*
X33292201Y94406040D01*
X33342719Y94380300D01*
X33460563Y94320255D01*
X33460565Y94320255D01*
X33460568Y94320253D01*
X33538676Y94294874D01*
X33640281Y94261860D01*
X33826914Y94232300D01*
X33826919Y94232300D01*
X34015886Y94232300D01*
X34202518Y94261860D01*
X34265302Y94282260D01*
X34382232Y94320253D01*
X34550599Y94406040D01*
X34703473Y94517110D01*
X34837090Y94650727D01*
X34948160Y94803601D01*
X35033947Y94971968D01*
X35073469Y95093605D01*
X35112907Y95151279D01*
X35177266Y95178477D01*
X35246112Y95166562D01*
X35297588Y95119318D01*
X35309330Y95093606D01*
X35324055Y95048289D01*
X35348854Y94971964D01*
X35386335Y94898405D01*
X35434640Y94803601D01*
X35545710Y94650727D01*
X35679327Y94517110D01*
X35832201Y94406040D01*
X35882719Y94380300D01*
X36000563Y94320255D01*
X36000565Y94320255D01*
X36000568Y94320253D01*
X36078676Y94294874D01*
X36180281Y94261860D01*
X36366914Y94232300D01*
X36366919Y94232300D01*
X36555886Y94232300D01*
X36742518Y94261860D01*
X36805302Y94282260D01*
X36922232Y94320253D01*
X37090599Y94406040D01*
X37243473Y94517110D01*
X37377090Y94650727D01*
X37488160Y94803601D01*
X37557415Y94939522D01*
X37605390Y94990318D01*
X37673210Y95007113D01*
X37739345Y94984576D01*
X37778385Y94939522D01*
X37847640Y94803601D01*
X37958710Y94650727D01*
X38092327Y94517110D01*
X38245201Y94406040D01*
X38295719Y94380300D01*
X38413563Y94320255D01*
X38413565Y94320255D01*
X38413568Y94320253D01*
X38491676Y94294874D01*
X38593281Y94261860D01*
X38779914Y94232300D01*
X38779919Y94232300D01*
X38968886Y94232300D01*
X39155518Y94261860D01*
X39218302Y94282260D01*
X39335232Y94320253D01*
X39503599Y94406040D01*
X39656473Y94517110D01*
X39790090Y94650727D01*
X39901160Y94803601D01*
X39986947Y94971968D01*
X40045340Y95151682D01*
X40058733Y95236242D01*
X40074900Y95338314D01*
X40074900Y95527287D01*
X40340900Y95527287D01*
X40340900Y95338314D01*
X40370459Y95151682D01*
X40428854Y94971964D01*
X40466335Y94898405D01*
X40514640Y94803601D01*
X40625710Y94650727D01*
X40759327Y94517110D01*
X40912201Y94406040D01*
X40962719Y94380300D01*
X41080563Y94320255D01*
X41080565Y94320255D01*
X41080568Y94320253D01*
X41158676Y94294874D01*
X41260281Y94261860D01*
X41446914Y94232300D01*
X41446919Y94232300D01*
X41635886Y94232300D01*
X41822518Y94261860D01*
X41885302Y94282260D01*
X42002232Y94320253D01*
X42170599Y94406040D01*
X42323473Y94517110D01*
X42457090Y94650727D01*
X42568160Y94803601D01*
X42653947Y94971968D01*
X42712340Y95151682D01*
X42712341Y95151693D01*
X42713012Y95154486D01*
X42713563Y95155448D01*
X42713846Y95156316D01*
X42714028Y95156257D01*
X42747790Y95215085D01*
X42809810Y95247262D01*
X42879380Y95240801D01*
X42934413Y95197752D01*
X42951523Y95163883D01*
X43007254Y94992364D01*
X43055129Y94898405D01*
X43093040Y94824001D01*
X43204110Y94671127D01*
X43337727Y94537510D01*
X43490601Y94426440D01*
X43570147Y94385910D01*
X43658963Y94340655D01*
X43658965Y94340655D01*
X43658968Y94340653D01*
X43741499Y94313837D01*
X43838681Y94282260D01*
X44025314Y94252700D01*
X44025319Y94252700D01*
X44214286Y94252700D01*
X44400918Y94282260D01*
X44439733Y94294872D01*
X44580632Y94340653D01*
X44748999Y94426440D01*
X44901873Y94537510D01*
X45035490Y94671127D01*
X45146560Y94824001D01*
X45229196Y94986186D01*
X45232345Y94992364D01*
X45232345Y94992365D01*
X45232347Y94992368D01*
X45290740Y95172082D01*
X45300902Y95236242D01*
X45320300Y95358714D01*
X45320300Y95547687D01*
X45290740Y95734319D01*
X45249475Y95861318D01*
X45232347Y95914032D01*
X45232345Y95914035D01*
X45232345Y95914037D01*
X45180579Y96015632D01*
X45146560Y96082399D01*
X45035490Y96235273D01*
X44901873Y96368890D01*
X44861913Y96397923D01*
X44819248Y96453253D01*
X44810800Y96498240D01*
X44810800Y101374523D01*
X44830485Y101441562D01*
X44883289Y101487317D01*
X44915396Y101496995D01*
X44952626Y101502891D01*
X45139825Y101563716D01*
X45315205Y101653076D01*
X45474446Y101768772D01*
X45613628Y101907954D01*
X45729324Y102067195D01*
X45818684Y102242575D01*
X45819315Y102243813D01*
X45867289Y102294610D01*
X45935110Y102311405D01*
X46001245Y102288868D01*
X46040285Y102243813D01*
X46130274Y102067197D01*
X46151777Y102037601D01*
X46245972Y101907954D01*
X46385154Y101768772D01*
X46544395Y101653076D01*
X46569978Y101640041D01*
X46719770Y101563718D01*
X46719772Y101563718D01*
X46719775Y101563716D01*
X46820117Y101531113D01*
X46906973Y101502891D01*
X47101378Y101472100D01*
X47101383Y101472100D01*
X47298222Y101472100D01*
X47492626Y101502891D01*
X47516730Y101510723D01*
X47679825Y101563716D01*
X47855205Y101653076D01*
X48014446Y101768772D01*
X48153628Y101907954D01*
X48269324Y102067195D01*
X48358684Y102242575D01*
X48359315Y102243813D01*
X48407289Y102294610D01*
X48475110Y102311405D01*
X48541245Y102288868D01*
X48580285Y102243813D01*
X48670274Y102067197D01*
X48691777Y102037601D01*
X48785972Y101907954D01*
X48925154Y101768772D01*
X49084395Y101653076D01*
X49109978Y101640041D01*
X49259770Y101563718D01*
X49259772Y101563718D01*
X49259775Y101563716D01*
X49360117Y101531113D01*
X49446973Y101502891D01*
X49641378Y101472100D01*
X49641383Y101472100D01*
X49838222Y101472100D01*
X50032626Y101502891D01*
X50056730Y101510723D01*
X50219825Y101563716D01*
X50395205Y101653076D01*
X50554446Y101768772D01*
X50693628Y101907954D01*
X50809324Y102067195D01*
X50898684Y102242575D01*
X50899315Y102243813D01*
X50947289Y102294610D01*
X51015110Y102311405D01*
X51081245Y102288868D01*
X51120285Y102243813D01*
X51210274Y102067197D01*
X51231777Y102037601D01*
X51325972Y101907954D01*
X51465154Y101768772D01*
X51624395Y101653076D01*
X51624397Y101653075D01*
X51649154Y101640460D01*
X51699949Y101592486D01*
X51716744Y101524664D01*
X51694206Y101458530D01*
X51639491Y101415079D01*
X51637310Y101414283D01*
X51634569Y101413149D01*
X51466200Y101327360D01*
X51378979Y101263990D01*
X51313327Y101216290D01*
X51313325Y101216288D01*
X51313324Y101216288D01*
X51179712Y101082676D01*
X51179712Y101082675D01*
X51179710Y101082673D01*
X51136197Y101022783D01*
X51068640Y100929800D01*
X50982854Y100761437D01*
X50924459Y100581719D01*
X50894900Y100395087D01*
X50894900Y100206114D01*
X50924459Y100019482D01*
X50982854Y99839764D01*
X51031879Y99743548D01*
X51068640Y99671401D01*
X51179710Y99518527D01*
X51313327Y99384910D01*
X51466201Y99273840D01*
X51545747Y99233310D01*
X51634563Y99188055D01*
X51634565Y99188055D01*
X51634568Y99188053D01*
X51730897Y99156754D01*
X51814281Y99129660D01*
X52000914Y99100100D01*
X52000919Y99100100D01*
X52189886Y99100100D01*
X52376518Y99129660D01*
X52556232Y99188053D01*
X52724599Y99273840D01*
X52877473Y99384910D01*
X53011090Y99518527D01*
X53122160Y99671401D01*
X53207947Y99839768D01*
X53266340Y100019482D01*
X53295900Y100206114D01*
X53295900Y100395087D01*
X53266340Y100581719D01*
X53207945Y100761437D01*
X53122159Y100929800D01*
X53011090Y101082673D01*
X52877473Y101216290D01*
X52772307Y101292698D01*
X52724598Y101327361D01*
X52721793Y101328790D01*
X52720918Y101329617D01*
X52720447Y101329905D01*
X52720507Y101330005D01*
X52671000Y101376767D01*
X52654208Y101444589D01*
X52676749Y101510723D01*
X52731467Y101554171D01*
X52739753Y101557195D01*
X52759825Y101563716D01*
X52935205Y101653076D01*
X53094446Y101768772D01*
X53233628Y101907954D01*
X53349324Y102067195D01*
X53438684Y102242575D01*
X53439315Y102243813D01*
X53487289Y102294610D01*
X53555110Y102311405D01*
X53621245Y102288868D01*
X53660285Y102243813D01*
X53750274Y102067197D01*
X53771777Y102037601D01*
X53865972Y101907954D01*
X54005154Y101768772D01*
X54164395Y101653076D01*
X54189978Y101640041D01*
X54339770Y101563718D01*
X54339772Y101563718D01*
X54339775Y101563716D01*
X54440117Y101531113D01*
X54526973Y101502891D01*
X54721378Y101472100D01*
X54721383Y101472100D01*
X54918222Y101472100D01*
X55112626Y101502891D01*
X55136730Y101510723D01*
X55299825Y101563716D01*
X55475205Y101653076D01*
X55634446Y101768772D01*
X55773628Y101907954D01*
X55889324Y102067195D01*
X55978684Y102242575D01*
X55979315Y102243813D01*
X56027289Y102294610D01*
X56095110Y102311405D01*
X56161245Y102288868D01*
X56200285Y102243813D01*
X56290274Y102067197D01*
X56311777Y102037601D01*
X56405972Y101907954D01*
X56545154Y101768772D01*
X56704395Y101653076D01*
X56704397Y101653075D01*
X56729154Y101640460D01*
X56779949Y101592486D01*
X56796744Y101524664D01*
X56774206Y101458530D01*
X56719491Y101415079D01*
X56717310Y101414283D01*
X56714569Y101413149D01*
X56546200Y101327360D01*
X56458979Y101263990D01*
X56393327Y101216290D01*
X56393325Y101216288D01*
X56393324Y101216288D01*
X56259712Y101082676D01*
X56259712Y101082675D01*
X56259710Y101082673D01*
X56216197Y101022783D01*
X56148640Y100929800D01*
X56062854Y100761437D01*
X56004459Y100581719D01*
X55974900Y100395087D01*
X55974900Y100206114D01*
X56004459Y100019482D01*
X56062854Y99839764D01*
X56111879Y99743548D01*
X56148640Y99671401D01*
X56259710Y99518527D01*
X56393327Y99384910D01*
X56546201Y99273840D01*
X56625747Y99233310D01*
X56714563Y99188055D01*
X56714565Y99188055D01*
X56714568Y99188053D01*
X56810897Y99156754D01*
X56894281Y99129660D01*
X57080914Y99100100D01*
X57080919Y99100100D01*
X57269886Y99100100D01*
X57456518Y99129660D01*
X57636232Y99188053D01*
X57804599Y99273840D01*
X57957473Y99384910D01*
X58091090Y99518527D01*
X58202160Y99671401D01*
X58287947Y99839768D01*
X58346340Y100019482D01*
X58375900Y100206114D01*
X58375900Y100395087D01*
X58346340Y100581719D01*
X58287945Y100761437D01*
X58202159Y100929800D01*
X58091090Y101082673D01*
X57957473Y101216290D01*
X57852307Y101292698D01*
X57804598Y101327361D01*
X57801793Y101328790D01*
X57800918Y101329617D01*
X57800447Y101329905D01*
X57800507Y101330005D01*
X57751000Y101376767D01*
X57734208Y101444589D01*
X57756749Y101510723D01*
X57811467Y101554171D01*
X57819753Y101557195D01*
X57839825Y101563716D01*
X58015205Y101653076D01*
X58174446Y101768772D01*
X58208045Y101802373D01*
X58269365Y101835856D01*
X58339056Y101830874D01*
X58383407Y101802372D01*
X63466581Y96719198D01*
X63500066Y96657875D01*
X63502900Y96631517D01*
X63502900Y96226930D01*
X63502901Y96226924D01*
X63509308Y96167317D01*
X63559602Y96032472D01*
X63559606Y96032465D01*
X63645852Y95917256D01*
X63645855Y95917253D01*
X63761064Y95831007D01*
X63761071Y95831003D01*
X63895917Y95780709D01*
X63895916Y95780709D01*
X63900586Y95780207D01*
X63955527Y95774300D01*
X65448900Y95774301D01*
X65515939Y95754616D01*
X65561694Y95701813D01*
X65572900Y95650301D01*
X65572900Y95459300D01*
X65553215Y95392261D01*
X65500411Y95346506D01*
X65448900Y95335300D01*
X64234841Y95335300D01*
X64104751Y95320643D01*
X64104741Y95320641D01*
X63939795Y95262923D01*
X63791823Y95169947D01*
X63668254Y95046378D01*
X63668253Y95046376D01*
X63665396Y95041830D01*
X63613064Y94995538D01*
X63560402Y94983800D01*
X62935770Y94983800D01*
X62868731Y95003485D01*
X62822976Y95056289D01*
X62813032Y95125447D01*
X62817839Y95146119D01*
X62867540Y95299082D01*
X62897100Y95485714D01*
X62897100Y95674687D01*
X62867540Y95861319D01*
X62828435Y95981669D01*
X62809147Y96041032D01*
X62809145Y96041035D01*
X62809145Y96041037D01*
X62753679Y96149895D01*
X62723360Y96209399D01*
X62612290Y96362273D01*
X62478673Y96495890D01*
X62325799Y96606960D01*
X62157436Y96692746D01*
X61977718Y96751141D01*
X61791086Y96780700D01*
X61791081Y96780700D01*
X61602119Y96780700D01*
X61602114Y96780700D01*
X61415481Y96751141D01*
X61235763Y96692746D01*
X61067400Y96606960D01*
X61022290Y96574185D01*
X60914527Y96495890D01*
X60914525Y96495888D01*
X60914524Y96495888D01*
X60780912Y96362276D01*
X60780905Y96362267D01*
X60739235Y96304914D01*
X60683905Y96262248D01*
X60638918Y96253800D01*
X60143686Y96253800D01*
X60076647Y96273485D01*
X60056005Y96290118D01*
X60009247Y96336876D01*
X59956976Y96389147D01*
X59809006Y96482122D01*
X59809005Y96482123D01*
X59809004Y96482123D01*
X59644058Y96539841D01*
X59644048Y96539843D01*
X59513958Y96554500D01*
X59513952Y96554500D01*
X58299899Y96554500D01*
X58232860Y96574185D01*
X58187105Y96626989D01*
X58175899Y96678500D01*
X58175899Y97371871D01*
X58175898Y97371877D01*
X58175897Y97371884D01*
X58169491Y97431483D01*
X58150543Y97482284D01*
X58119197Y97566329D01*
X58119193Y97566336D01*
X58032947Y97681545D01*
X58032944Y97681548D01*
X57917735Y97767794D01*
X57917728Y97767798D01*
X57782882Y97818092D01*
X57782883Y97818092D01*
X57723283Y97824499D01*
X57723281Y97824500D01*
X57723273Y97824500D01*
X57723264Y97824500D01*
X55827529Y97824500D01*
X55827523Y97824499D01*
X55767916Y97818092D01*
X55633071Y97767798D01*
X55633064Y97767794D01*
X55517855Y97681548D01*
X55517852Y97681545D01*
X55431606Y97566336D01*
X55431602Y97566329D01*
X55381308Y97431483D01*
X55374901Y97371884D01*
X55374901Y97371877D01*
X55374900Y97371865D01*
X55374900Y96176118D01*
X55375037Y96173574D01*
X55374900Y96172999D01*
X55374901Y96172807D01*
X55374856Y96172807D01*
X55358960Y96105579D01*
X55308674Y96057070D01*
X55240145Y96043448D01*
X55175131Y96069038D01*
X55140729Y96110658D01*
X55120737Y96149895D01*
X55103360Y96183999D01*
X54992290Y96336873D01*
X54858673Y96470490D01*
X54705799Y96581560D01*
X54537436Y96667346D01*
X54357718Y96725741D01*
X54171086Y96755300D01*
X54171081Y96755300D01*
X53982119Y96755300D01*
X53982114Y96755300D01*
X53795481Y96725741D01*
X53615763Y96667346D01*
X53447400Y96581560D01*
X53389980Y96539841D01*
X53294527Y96470490D01*
X53294525Y96470488D01*
X53294524Y96470488D01*
X53160912Y96336876D01*
X53160912Y96336875D01*
X53160910Y96336873D01*
X53114856Y96273485D01*
X53049838Y96183997D01*
X53027538Y96140231D01*
X52979563Y96089435D01*
X52911742Y96072641D01*
X52845607Y96095179D01*
X52802156Y96149895D01*
X52800013Y96155571D01*
X52795522Y96168406D01*
X52702547Y96316376D01*
X52578976Y96439947D01*
X52431006Y96532922D01*
X52431005Y96532923D01*
X52431004Y96532923D01*
X52266058Y96590641D01*
X52266048Y96590643D01*
X52135958Y96605300D01*
X52135952Y96605300D01*
X50921899Y96605300D01*
X50854860Y96624985D01*
X50809105Y96677789D01*
X50797899Y96729300D01*
X50797899Y97422671D01*
X50797898Y97422677D01*
X50797897Y97422684D01*
X50791491Y97482283D01*
X50760141Y97566336D01*
X50741197Y97617129D01*
X50741193Y97617136D01*
X50654947Y97732345D01*
X50654944Y97732348D01*
X50539735Y97818594D01*
X50539728Y97818598D01*
X50404882Y97868892D01*
X50404883Y97868892D01*
X50345283Y97875299D01*
X50345281Y97875300D01*
X50345273Y97875300D01*
X50345264Y97875300D01*
X48449529Y97875300D01*
X48449523Y97875299D01*
X48389916Y97868892D01*
X48255071Y97818598D01*
X48255064Y97818594D01*
X48139855Y97732348D01*
X48139852Y97732345D01*
X48053606Y97617136D01*
X48053602Y97617129D01*
X48003308Y97482283D01*
X47998015Y97433046D01*
X47996901Y97422677D01*
X47996900Y97422665D01*
X47996900Y96226930D01*
X47996901Y96226924D01*
X48003308Y96167317D01*
X48053602Y96032472D01*
X48053606Y96032465D01*
X48139852Y95917256D01*
X48139855Y95917253D01*
X48255064Y95831007D01*
X48255071Y95831003D01*
X48389917Y95780709D01*
X48389916Y95780709D01*
X48394586Y95780207D01*
X48449527Y95774300D01*
X49942900Y95774301D01*
X50009939Y95754616D01*
X50055694Y95701813D01*
X50066900Y95650301D01*
X50066900Y95459300D01*
X50047215Y95392261D01*
X49994411Y95346506D01*
X49942900Y95335300D01*
X48728841Y95335300D01*
X48598751Y95320643D01*
X48598741Y95320641D01*
X48433795Y95262923D01*
X48285823Y95169947D01*
X48162253Y95046377D01*
X48069277Y94898405D01*
X48011559Y94733459D01*
X48011557Y94733449D01*
X47996900Y94603359D01*
X47996900Y93966242D01*
X48011557Y93836152D01*
X48011559Y93836142D01*
X48069277Y93671196D01*
X48069278Y93671194D01*
X48162253Y93523224D01*
X48285824Y93399653D01*
X48433794Y93306678D01*
X48598743Y93248959D01*
X48598749Y93248959D01*
X48598751Y93248958D01*
X48640150Y93244294D01*
X48728842Y93234301D01*
X48728845Y93234300D01*
X48728848Y93234300D01*
X50065955Y93234300D01*
X50065956Y93234301D01*
X50196057Y93248959D01*
X50361006Y93306678D01*
X50508976Y93399653D01*
X50632547Y93523224D01*
X50640431Y93535771D01*
X50692765Y93582063D01*
X50745425Y93593800D01*
X55395455Y93593800D01*
X55462494Y93574115D01*
X55500449Y93535772D01*
X55540253Y93472424D01*
X55663824Y93348853D01*
X55811794Y93255878D01*
X55976743Y93198159D01*
X55976749Y93198159D01*
X55976751Y93198158D01*
X56018150Y93193494D01*
X56106842Y93183501D01*
X56106845Y93183500D01*
X56106848Y93183500D01*
X57443955Y93183500D01*
X57443956Y93183501D01*
X57574057Y93198159D01*
X57739006Y93255878D01*
X57886976Y93348853D01*
X58010547Y93472424D01*
X58050350Y93535771D01*
X58055377Y93543771D01*
X58107711Y93590063D01*
X58160371Y93601800D01*
X63550348Y93601800D01*
X63617387Y93582115D01*
X63655341Y93543773D01*
X63668253Y93523224D01*
X63791824Y93399653D01*
X63939794Y93306678D01*
X64104743Y93248959D01*
X64104749Y93248959D01*
X64104751Y93248958D01*
X64146150Y93244294D01*
X64234842Y93234301D01*
X64234845Y93234300D01*
X64234848Y93234300D01*
X65571955Y93234300D01*
X65571956Y93234301D01*
X65702057Y93248959D01*
X65867006Y93306678D01*
X66014976Y93399653D01*
X66138547Y93523224D01*
X66231522Y93671194D01*
X66289241Y93836143D01*
X66303900Y93966248D01*
X66303900Y94380300D01*
X66323585Y94447339D01*
X66376389Y94493094D01*
X66427900Y94504300D01*
X67641955Y94504300D01*
X67641956Y94504301D01*
X67772057Y94518959D01*
X67937006Y94576678D01*
X68084976Y94669653D01*
X68208547Y94793224D01*
X68301522Y94941194D01*
X68359241Y95106143D01*
X68373900Y95236248D01*
X68373900Y95873352D01*
X68363827Y95962752D01*
X68359242Y96003449D01*
X68359241Y96003451D01*
X68359241Y96003457D01*
X68301522Y96168406D01*
X68208547Y96316376D01*
X68084976Y96439947D01*
X67937006Y96532922D01*
X67937005Y96532923D01*
X67937004Y96532923D01*
X67772058Y96590641D01*
X67772048Y96590643D01*
X67641958Y96605300D01*
X67641952Y96605300D01*
X66427899Y96605300D01*
X66360860Y96624985D01*
X66315105Y96677789D01*
X66303899Y96729300D01*
X66303899Y97422671D01*
X66303898Y97422677D01*
X66303897Y97422684D01*
X66297491Y97482283D01*
X66266141Y97566336D01*
X66247197Y97617129D01*
X66247193Y97617136D01*
X66160947Y97732345D01*
X66160944Y97732348D01*
X66045735Y97818594D01*
X66045728Y97818598D01*
X65910882Y97868892D01*
X65910883Y97868892D01*
X65851283Y97875299D01*
X65851281Y97875300D01*
X65851273Y97875300D01*
X65851265Y97875300D01*
X64316283Y97875300D01*
X64249244Y97894985D01*
X64228602Y97911619D01*
X60885603Y101254619D01*
X60852118Y101315942D01*
X60857102Y101385634D01*
X60898974Y101441567D01*
X60964438Y101465984D01*
X60973284Y101466300D01*
X61079886Y101466300D01*
X61266518Y101495860D01*
X61312261Y101510723D01*
X61446232Y101554253D01*
X61614599Y101640040D01*
X61767473Y101751110D01*
X61901090Y101884727D01*
X62012160Y102037601D01*
X62097947Y102205968D01*
X62156340Y102385682D01*
X62185900Y102572314D01*
X62185900Y102761287D01*
X64864900Y102761287D01*
X64864900Y102572314D01*
X64894459Y102385682D01*
X64952854Y102205964D01*
X65023560Y102067197D01*
X65038640Y102037601D01*
X65149710Y101884727D01*
X65283327Y101751110D01*
X65436201Y101640040D01*
X65478837Y101618316D01*
X65604563Y101554255D01*
X65604565Y101554255D01*
X65604568Y101554253D01*
X65695519Y101524701D01*
X65784281Y101495860D01*
X65970914Y101466300D01*
X65970919Y101466300D01*
X66159886Y101466300D01*
X66346518Y101495860D01*
X66392261Y101510723D01*
X66526232Y101554253D01*
X66694599Y101640040D01*
X66847473Y101751110D01*
X66981090Y101884727D01*
X67092160Y102037601D01*
X67177947Y102205968D01*
X67236340Y102385682D01*
X67265900Y102572314D01*
X67265900Y102761287D01*
X67236340Y102947919D01*
X67177945Y103127637D01*
X67092159Y103296000D01*
X66981090Y103448873D01*
X66847473Y103582490D01*
X66694599Y103693560D01*
X66526236Y103779346D01*
X66346518Y103837741D01*
X66159886Y103867300D01*
X66159881Y103867300D01*
X65970919Y103867300D01*
X65970914Y103867300D01*
X65784281Y103837741D01*
X65604563Y103779346D01*
X65436200Y103693560D01*
X65348979Y103630190D01*
X65283327Y103582490D01*
X65283325Y103582488D01*
X65283324Y103582488D01*
X65149712Y103448876D01*
X65149712Y103448875D01*
X65149710Y103448873D01*
X65138385Y103433285D01*
X65038640Y103296000D01*
X64952854Y103127637D01*
X64894459Y102947919D01*
X64864900Y102761287D01*
X62185900Y102761287D01*
X62156340Y102947919D01*
X62097945Y103127637D01*
X62012159Y103296000D01*
X61901090Y103448873D01*
X61767473Y103582490D01*
X61614599Y103693560D01*
X61446236Y103779346D01*
X61266518Y103837741D01*
X61079886Y103867300D01*
X61079881Y103867300D01*
X60890919Y103867300D01*
X60890914Y103867300D01*
X60704281Y103837741D01*
X60524563Y103779346D01*
X60356200Y103693560D01*
X60268979Y103630190D01*
X60203327Y103582490D01*
X60203325Y103582488D01*
X60203324Y103582488D01*
X60069712Y103448876D01*
X60069712Y103448875D01*
X60069710Y103448873D01*
X60058385Y103433285D01*
X59958640Y103296000D01*
X59872854Y103127637D01*
X59814459Y102947919D01*
X59784900Y102761287D01*
X59784900Y102654685D01*
X59765215Y102587646D01*
X59712411Y102541891D01*
X59643253Y102531947D01*
X59579697Y102560972D01*
X59573219Y102567004D01*
X58880892Y103259331D01*
X58880885Y103259337D01*
X58767712Y103334956D01*
X58767709Y103334958D01*
X58641961Y103387044D01*
X58641951Y103387047D01*
X58508460Y103413600D01*
X58508458Y103413600D01*
X58466644Y103413600D01*
X58399605Y103433285D01*
X58366327Y103464714D01*
X58313632Y103537240D01*
X58313628Y103537246D01*
X58174446Y103676428D01*
X58015205Y103792124D01*
X57999255Y103800251D01*
X57839829Y103881483D01*
X57652626Y103942310D01*
X57458222Y103973100D01*
X57458217Y103973100D01*
X57261383Y103973100D01*
X57261378Y103973100D01*
X57066973Y103942310D01*
X56879770Y103881483D01*
X56704394Y103792124D01*
X56613541Y103726115D01*
X56545154Y103676428D01*
X56545152Y103676426D01*
X56545151Y103676426D01*
X56405974Y103537249D01*
X56405974Y103537248D01*
X56405972Y103537246D01*
X56405968Y103537240D01*
X56290276Y103378006D01*
X56200285Y103201387D01*
X56152311Y103150591D01*
X56084490Y103133796D01*
X56018355Y103156333D01*
X55979315Y103201387D01*
X55889323Y103378006D01*
X55773628Y103537246D01*
X55634446Y103676428D01*
X55475205Y103792124D01*
X55459255Y103800251D01*
X55299829Y103881483D01*
X55112626Y103942310D01*
X54918222Y103973100D01*
X54918217Y103973100D01*
X54721383Y103973100D01*
X54721378Y103973100D01*
X54526973Y103942310D01*
X54339770Y103881483D01*
X54164394Y103792124D01*
X54073541Y103726115D01*
X54005154Y103676428D01*
X54005152Y103676426D01*
X54005151Y103676426D01*
X53865974Y103537249D01*
X53865974Y103537248D01*
X53865972Y103537246D01*
X53865968Y103537240D01*
X53750276Y103378006D01*
X53660285Y103201387D01*
X53612311Y103150591D01*
X53544490Y103133796D01*
X53478355Y103156333D01*
X53439315Y103201387D01*
X53349323Y103378006D01*
X53233628Y103537246D01*
X53094446Y103676428D01*
X52935205Y103792124D01*
X52919255Y103800251D01*
X52759829Y103881483D01*
X52572626Y103942310D01*
X52378222Y103973100D01*
X52378217Y103973100D01*
X52181383Y103973100D01*
X52181378Y103973100D01*
X51986973Y103942310D01*
X51799770Y103881483D01*
X51624394Y103792124D01*
X51533541Y103726115D01*
X51465154Y103676428D01*
X51465152Y103676426D01*
X51465151Y103676426D01*
X51325974Y103537249D01*
X51325974Y103537248D01*
X51325972Y103537246D01*
X51325968Y103537240D01*
X51210276Y103378006D01*
X51120285Y103201387D01*
X51072311Y103150591D01*
X51004490Y103133796D01*
X50938355Y103156333D01*
X50899315Y103201387D01*
X50809323Y103378006D01*
X50693628Y103537246D01*
X50554446Y103676428D01*
X50395205Y103792124D01*
X50379255Y103800251D01*
X50219829Y103881483D01*
X50032626Y103942310D01*
X49838222Y103973100D01*
X49838217Y103973100D01*
X49641383Y103973100D01*
X49641378Y103973100D01*
X49446973Y103942310D01*
X49259770Y103881483D01*
X49084394Y103792124D01*
X48993541Y103726115D01*
X48925154Y103676428D01*
X48925152Y103676426D01*
X48925151Y103676426D01*
X48785974Y103537249D01*
X48785974Y103537248D01*
X48785972Y103537246D01*
X48785968Y103537240D01*
X48670276Y103378006D01*
X48580285Y103201387D01*
X48532311Y103150591D01*
X48464490Y103133796D01*
X48398355Y103156333D01*
X48359315Y103201387D01*
X48269323Y103378006D01*
X48153628Y103537246D01*
X48014446Y103676428D01*
X47855205Y103792124D01*
X47839255Y103800251D01*
X47679829Y103881483D01*
X47492626Y103942310D01*
X47298222Y103973100D01*
X47298217Y103973100D01*
X47101383Y103973100D01*
X47101378Y103973100D01*
X46906973Y103942310D01*
X46719770Y103881483D01*
X46544394Y103792124D01*
X46453541Y103726115D01*
X46385154Y103676428D01*
X46385152Y103676426D01*
X46385151Y103676426D01*
X46245974Y103537249D01*
X46245974Y103537248D01*
X46245972Y103537246D01*
X46245968Y103537240D01*
X46130276Y103378006D01*
X46040285Y103201387D01*
X45992311Y103150591D01*
X45924490Y103133796D01*
X45858355Y103156333D01*
X45819315Y103201387D01*
X45729323Y103378006D01*
X45613628Y103537246D01*
X45474446Y103676428D01*
X45315205Y103792124D01*
X45299255Y103800251D01*
X45139829Y103881483D01*
X44952626Y103942310D01*
X44758222Y103973100D01*
X44758217Y103973100D01*
X44561383Y103973100D01*
X44561378Y103973100D01*
X44366973Y103942310D01*
X44179770Y103881483D01*
X44004394Y103792124D01*
X43913541Y103726115D01*
X43845154Y103676428D01*
X43845152Y103676426D01*
X43845151Y103676426D01*
X43705974Y103537249D01*
X43705974Y103537248D01*
X43705972Y103537246D01*
X43705968Y103537240D01*
X43590276Y103378006D01*
X43500917Y103202630D01*
X43440090Y103015427D01*
X43409300Y102821023D01*
X43409300Y102624178D01*
X43440090Y102429774D01*
X43468429Y102342558D01*
X43470424Y102272717D01*
X43465061Y102256791D01*
X43455354Y102233355D01*
X43428800Y102099861D01*
X43428800Y96498240D01*
X43409115Y96431201D01*
X43377687Y96397923D01*
X43337727Y96368891D01*
X43204112Y96235276D01*
X43204112Y96235275D01*
X43204110Y96235273D01*
X43166858Y96184000D01*
X43093040Y96082400D01*
X43007254Y95914037D01*
X42948858Y95734314D01*
X42948182Y95731496D01*
X42947630Y95730536D01*
X42947354Y95729684D01*
X42947175Y95729743D01*
X42913395Y95670903D01*
X42851371Y95638735D01*
X42781801Y95645208D01*
X42726775Y95688264D01*
X42709676Y95722118D01*
X42677714Y95820485D01*
X42653947Y95893632D01*
X42653945Y95893635D01*
X42653945Y95893637D01*
X42608690Y95982453D01*
X42568160Y96061999D01*
X42457090Y96214873D01*
X42323473Y96348490D01*
X42170599Y96459560D01*
X42149148Y96470490D01*
X42002236Y96545346D01*
X41822518Y96603741D01*
X41635886Y96633300D01*
X41635881Y96633300D01*
X41446919Y96633300D01*
X41446914Y96633300D01*
X41260281Y96603741D01*
X41080563Y96545346D01*
X40912200Y96459560D01*
X40878478Y96435059D01*
X40759327Y96348490D01*
X40759325Y96348488D01*
X40759324Y96348488D01*
X40625712Y96214876D01*
X40625712Y96214875D01*
X40625710Y96214873D01*
X40582624Y96155571D01*
X40514640Y96062000D01*
X40428854Y95893637D01*
X40370459Y95713919D01*
X40340900Y95527287D01*
X40074900Y95527287D01*
X40045340Y95713919D01*
X40018246Y95797303D01*
X39986947Y95893632D01*
X39986945Y95893635D01*
X39986945Y95893637D01*
X39941690Y95982453D01*
X39901160Y96061999D01*
X39790090Y96214873D01*
X39656473Y96348490D01*
X39503599Y96459560D01*
X39482148Y96470490D01*
X39335236Y96545346D01*
X39155518Y96603741D01*
X38968886Y96633300D01*
X38968881Y96633300D01*
X38779919Y96633300D01*
X38779914Y96633300D01*
X38593281Y96603741D01*
X38413563Y96545346D01*
X38245200Y96459560D01*
X38211478Y96435059D01*
X38092327Y96348490D01*
X38092325Y96348488D01*
X38092324Y96348488D01*
X37958712Y96214876D01*
X37958712Y96214875D01*
X37958710Y96214873D01*
X37915624Y96155571D01*
X37847640Y96062000D01*
X37778385Y95926079D01*
X37730410Y95875283D01*
X37662589Y95858488D01*
X37596454Y95881026D01*
X37557415Y95926079D01*
X37517993Y96003449D01*
X37488160Y96061999D01*
X37377090Y96214873D01*
X37243473Y96348490D01*
X37090599Y96459560D01*
X37069148Y96470490D01*
X36922236Y96545346D01*
X36742518Y96603741D01*
X36555886Y96633300D01*
X36555881Y96633300D01*
X36366919Y96633300D01*
X36366914Y96633300D01*
X36180281Y96603741D01*
X36000563Y96545346D01*
X35832200Y96459560D01*
X35798478Y96435059D01*
X35679327Y96348490D01*
X35679325Y96348488D01*
X35679324Y96348488D01*
X35545712Y96214876D01*
X35545712Y96214875D01*
X35545710Y96214873D01*
X35502624Y96155571D01*
X35434640Y96062000D01*
X35348854Y95893637D01*
X35309331Y95771997D01*
X35269893Y95714322D01*
X35205534Y95687124D01*
X35136688Y95699039D01*
X35085212Y95746284D01*
X35073469Y95771997D01*
X35057714Y95820485D01*
X35033947Y95893632D01*
X35033945Y95893635D01*
X35033945Y95893637D01*
X34988690Y95982453D01*
X34948160Y96061999D01*
X34837090Y96214873D01*
X34703473Y96348490D01*
X34550599Y96459560D01*
X34529148Y96470490D01*
X34382236Y96545346D01*
X34202518Y96603741D01*
X34015886Y96633300D01*
X34015881Y96633300D01*
X33826919Y96633300D01*
X33826914Y96633300D01*
X33640281Y96603741D01*
X33460563Y96545346D01*
X33292200Y96459560D01*
X33258478Y96435059D01*
X33139327Y96348490D01*
X33139325Y96348488D01*
X33139324Y96348488D01*
X33005712Y96214876D01*
X33005712Y96214875D01*
X33005710Y96214873D01*
X32962624Y96155571D01*
X32894640Y96062000D01*
X32808854Y95893637D01*
X32769331Y95771997D01*
X32729893Y95714322D01*
X32665534Y95687124D01*
X32596688Y95699039D01*
X32545212Y95746284D01*
X32533469Y95771997D01*
X32517714Y95820485D01*
X32493947Y95893632D01*
X32493945Y95893635D01*
X32493945Y95893637D01*
X32448690Y95982453D01*
X32408160Y96061999D01*
X32297090Y96214873D01*
X32163473Y96348490D01*
X32010599Y96459560D01*
X31989148Y96470490D01*
X31842236Y96545346D01*
X31662518Y96603741D01*
X31475886Y96633300D01*
X31475881Y96633300D01*
X31286919Y96633300D01*
X31286914Y96633300D01*
X31100281Y96603741D01*
X30920563Y96545346D01*
X30752200Y96459560D01*
X30718478Y96435059D01*
X30599327Y96348490D01*
X30599325Y96348488D01*
X30599324Y96348488D01*
X30465712Y96214876D01*
X30465712Y96214875D01*
X30465710Y96214873D01*
X30422624Y96155571D01*
X30354640Y96062000D01*
X30268854Y95893637D01*
X30210459Y95713919D01*
X30180900Y95527287D01*
X18518551Y95527287D01*
X18520900Y95545126D01*
X18520900Y95820474D01*
X18484960Y96093466D01*
X18413695Y96359432D01*
X18308323Y96613821D01*
X18308321Y96613824D01*
X18308319Y96613829D01*
X18241651Y96729300D01*
X18170649Y96852279D01*
X18003028Y97070728D01*
X18003023Y97070734D01*
X17808333Y97265424D01*
X17808326Y97265430D01*
X17589883Y97433046D01*
X17589882Y97433047D01*
X17589879Y97433049D01*
X17494807Y97487939D01*
X17351428Y97570720D01*
X17351417Y97570725D01*
X17097030Y97676096D01*
X16964049Y97711728D01*
X16831066Y97747360D01*
X16831060Y97747361D01*
X16831055Y97747362D01*
X16558084Y97783299D01*
X16558079Y97783300D01*
X16558074Y97783300D01*
X16282726Y97783300D01*
X16282720Y97783300D01*
X16282715Y97783299D01*
X16009744Y97747362D01*
X16009737Y97747361D01*
X16009734Y97747360D01*
X15953708Y97732348D01*
X15743769Y97676096D01*
X15489382Y97570725D01*
X15489371Y97570720D01*
X15250916Y97433046D01*
X15032473Y97265430D01*
X15032466Y97265424D01*
X14837776Y97070734D01*
X14837770Y97070727D01*
X14670154Y96852284D01*
X14532480Y96613829D01*
X14532475Y96613818D01*
X14427104Y96359431D01*
X14377989Y96176128D01*
X14362017Y96116517D01*
X14355841Y96093469D01*
X14355838Y96093456D01*
X14319901Y95820485D01*
X14319900Y95820468D01*
X9011400Y95820468D01*
X9011400Y100187451D01*
X21037700Y100187451D01*
X21037700Y99964550D01*
X21037701Y99964534D01*
X21066794Y99743548D01*
X21066795Y99743543D01*
X21066796Y99743537D01*
X21124490Y99528220D01*
X21124493Y99528210D01*
X21209791Y99322284D01*
X21209795Y99322274D01*
X21321252Y99129226D01*
X21321257Y99129220D01*
X21321258Y99129218D01*
X21456951Y98952378D01*
X21456957Y98952371D01*
X21614570Y98794758D01*
X21614576Y98794753D01*
X21791426Y98659052D01*
X21984474Y98547595D01*
X22190419Y98462290D01*
X22405737Y98404596D01*
X22626743Y98375500D01*
X22626750Y98375500D01*
X22849650Y98375500D01*
X22849657Y98375500D01*
X23070663Y98404596D01*
X23285981Y98462290D01*
X23491926Y98547595D01*
X23684974Y98659052D01*
X23861824Y98794753D01*
X24019447Y98952376D01*
X24155148Y99129226D01*
X24266605Y99322274D01*
X24351910Y99528219D01*
X24368425Y99589858D01*
X24404790Y99649517D01*
X24467637Y99680046D01*
X24537012Y99671751D01*
X24590890Y99627266D01*
X24607973Y99589859D01*
X24624490Y99528220D01*
X24624493Y99528210D01*
X24709791Y99322284D01*
X24709795Y99322274D01*
X24821252Y99129226D01*
X24821257Y99129220D01*
X24821258Y99129218D01*
X24956951Y98952378D01*
X24956957Y98952371D01*
X25114570Y98794758D01*
X25114576Y98794753D01*
X25291426Y98659052D01*
X25484474Y98547595D01*
X25690419Y98462290D01*
X25905737Y98404596D01*
X26126743Y98375500D01*
X26126750Y98375500D01*
X26349650Y98375500D01*
X26349657Y98375500D01*
X26570663Y98404596D01*
X26785981Y98462290D01*
X26991926Y98547595D01*
X27184974Y98659052D01*
X27361824Y98794753D01*
X27519447Y98952376D01*
X27655148Y99129226D01*
X27766605Y99322274D01*
X27792551Y99384913D01*
X27799639Y99402024D01*
X27843480Y99456428D01*
X27909774Y99478493D01*
X27977473Y99461214D01*
X28025084Y99410077D01*
X28038200Y99354572D01*
X28038200Y99076015D01*
X28048693Y98973311D01*
X28048694Y98973304D01*
X28103841Y98806882D01*
X28103843Y98806877D01*
X28195884Y98657656D01*
X28319855Y98533685D01*
X28469076Y98441644D01*
X28469081Y98441642D01*
X28635503Y98386495D01*
X28635510Y98386494D01*
X28738214Y98376001D01*
X28738227Y98376000D01*
X29488200Y98376000D01*
X29488200Y99527518D01*
X29506609Y99516889D01*
X29659209Y99476000D01*
X29817191Y99476000D01*
X29969791Y99516889D01*
X29988200Y99527518D01*
X29988200Y98376000D01*
X30738173Y98376000D01*
X30738185Y98376001D01*
X30840889Y98386494D01*
X30840896Y98386495D01*
X31007318Y98441642D01*
X31007323Y98441644D01*
X31156544Y98533685D01*
X31280515Y98657656D01*
X31372556Y98806877D01*
X31372558Y98806882D01*
X31427705Y98973304D01*
X31427706Y98973311D01*
X31438199Y99076015D01*
X31438200Y99076028D01*
X31438200Y99826000D01*
X30286682Y99826000D01*
X30297311Y99844409D01*
X30338200Y99997009D01*
X30338200Y100154991D01*
X30297311Y100307591D01*
X30286682Y100326000D01*
X31438200Y100326000D01*
X31438200Y101075973D01*
X31438199Y101075986D01*
X31427706Y101178690D01*
X31427705Y101178697D01*
X31372558Y101345119D01*
X31372556Y101345124D01*
X31280515Y101494345D01*
X31156544Y101618316D01*
X31007323Y101710357D01*
X31007318Y101710359D01*
X30840896Y101765506D01*
X30840889Y101765507D01*
X30738185Y101776000D01*
X29988200Y101776000D01*
X29988200Y100624483D01*
X29969791Y100635111D01*
X29817191Y100676000D01*
X29659209Y100676000D01*
X29506609Y100635111D01*
X29488200Y100624483D01*
X29488200Y101776000D01*
X28738214Y101776000D01*
X28635510Y101765507D01*
X28635503Y101765506D01*
X28469081Y101710359D01*
X28469076Y101710357D01*
X28319855Y101618316D01*
X28195884Y101494345D01*
X28103843Y101345124D01*
X28103841Y101345119D01*
X28048694Y101178697D01*
X28048693Y101178690D01*
X28038200Y101075986D01*
X28038200Y100797429D01*
X28018515Y100730390D01*
X27965711Y100684635D01*
X27896553Y100674691D01*
X27832997Y100703716D01*
X27799639Y100749976D01*
X27766606Y100829723D01*
X27766605Y100829726D01*
X27655148Y101022774D01*
X27535505Y101178697D01*
X27519448Y101199623D01*
X27519442Y101199630D01*
X27361829Y101357243D01*
X27361822Y101357249D01*
X27184982Y101492942D01*
X27184980Y101492943D01*
X27184974Y101492948D01*
X26991926Y101604405D01*
X26991922Y101604407D01*
X26785990Y101689707D01*
X26785983Y101689709D01*
X26785981Y101689710D01*
X26570663Y101747404D01*
X26570657Y101747405D01*
X26570652Y101747406D01*
X26349666Y101776499D01*
X26349663Y101776500D01*
X26349657Y101776500D01*
X26126743Y101776500D01*
X26126737Y101776500D01*
X26126733Y101776499D01*
X25905747Y101747406D01*
X25905740Y101747405D01*
X25905737Y101747404D01*
X25767475Y101710357D01*
X25690419Y101689710D01*
X25690409Y101689707D01*
X25484477Y101604407D01*
X25484473Y101604405D01*
X25291426Y101492948D01*
X25291417Y101492942D01*
X25114577Y101357249D01*
X25114570Y101357243D01*
X24956957Y101199630D01*
X24956951Y101199623D01*
X24821258Y101022783D01*
X24821252Y101022774D01*
X24709795Y100829727D01*
X24709793Y100829723D01*
X24624493Y100623791D01*
X24624491Y100623784D01*
X24624490Y100623781D01*
X24607974Y100562143D01*
X24571610Y100502484D01*
X24508763Y100471955D01*
X24439387Y100480250D01*
X24385509Y100524735D01*
X24368426Y100562142D01*
X24351910Y100623781D01*
X24266605Y100829726D01*
X24155148Y101022774D01*
X24035505Y101178697D01*
X24019448Y101199623D01*
X24019442Y101199630D01*
X23861829Y101357243D01*
X23861822Y101357249D01*
X23684982Y101492942D01*
X23684980Y101492943D01*
X23684974Y101492948D01*
X23491926Y101604405D01*
X23491922Y101604407D01*
X23285990Y101689707D01*
X23285983Y101689709D01*
X23285981Y101689710D01*
X23070663Y101747404D01*
X23070657Y101747405D01*
X23070652Y101747406D01*
X22849666Y101776499D01*
X22849663Y101776500D01*
X22849657Y101776500D01*
X22626743Y101776500D01*
X22626737Y101776500D01*
X22626733Y101776499D01*
X22405747Y101747406D01*
X22405740Y101747405D01*
X22405737Y101747404D01*
X22267475Y101710357D01*
X22190419Y101689710D01*
X22190409Y101689707D01*
X21984477Y101604407D01*
X21984473Y101604405D01*
X21791426Y101492948D01*
X21791417Y101492942D01*
X21614577Y101357249D01*
X21614570Y101357243D01*
X21456957Y101199630D01*
X21456951Y101199623D01*
X21321258Y101022783D01*
X21321252Y101022774D01*
X21209795Y100829727D01*
X21209793Y100829723D01*
X21124493Y100623791D01*
X21124491Y100623784D01*
X21124490Y100623781D01*
X21076428Y100444408D01*
X21066797Y100408466D01*
X21066794Y100408453D01*
X21037701Y100187467D01*
X21037700Y100187451D01*
X9011400Y100187451D01*
X9011400Y101274845D01*
X9031085Y101341884D01*
X9079104Y101385329D01*
X9106833Y101399457D01*
X9297910Y101538283D01*
X9464917Y101705290D01*
X9603743Y101896367D01*
X9710968Y102106808D01*
X9783953Y102331432D01*
X9806572Y102474243D01*
X9820900Y102564703D01*
X9820900Y102800853D01*
X11820400Y102800853D01*
X11820400Y102564748D01*
X11857334Y102331553D01*
X11930297Y102106998D01*
X12037487Y101896626D01*
X12097738Y101813696D01*
X12097740Y101813695D01*
X12837437Y102553392D01*
X12854475Y102489807D01*
X12920301Y102375793D01*
X13013393Y102282701D01*
X13127407Y102216875D01*
X13190990Y102199838D01*
X12451293Y101460142D01*
X12534228Y101399886D01*
X12744597Y101292698D01*
X12969152Y101219735D01*
X12969151Y101219735D01*
X13202348Y101182800D01*
X13438452Y101182800D01*
X13671647Y101219735D01*
X13896202Y101292698D01*
X14106563Y101399882D01*
X14106569Y101399886D01*
X14189504Y101460142D01*
X14189505Y101460142D01*
X13449808Y102199838D01*
X13513393Y102216875D01*
X13627407Y102282701D01*
X13720499Y102375793D01*
X13786325Y102489807D01*
X13803362Y102553392D01*
X14543058Y101813695D01*
X14543058Y101813696D01*
X14603314Y101896631D01*
X14603318Y101896637D01*
X14710502Y102106998D01*
X14783465Y102331553D01*
X14820400Y102564748D01*
X14820400Y102800853D01*
X14783465Y103034048D01*
X14710502Y103258603D01*
X14603314Y103468972D01*
X14543058Y103551906D01*
X14543058Y103551907D01*
X13803362Y102812210D01*
X13786325Y102875793D01*
X13720499Y102989807D01*
X13627407Y103082899D01*
X13513393Y103148725D01*
X13449809Y103165763D01*
X14189505Y103905460D01*
X14189504Y103905462D01*
X14106574Y103965713D01*
X13896202Y104072903D01*
X13671647Y104145866D01*
X13671648Y104145866D01*
X13438452Y104182800D01*
X13202348Y104182800D01*
X12969152Y104145866D01*
X12744597Y104072903D01*
X12534230Y103965716D01*
X12451294Y103905460D01*
X13190991Y103165763D01*
X13127407Y103148725D01*
X13013393Y103082899D01*
X12920301Y102989807D01*
X12854475Y102875793D01*
X12837437Y102812209D01*
X12097740Y103551906D01*
X12037484Y103468970D01*
X11930297Y103258603D01*
X11857334Y103034048D01*
X11820400Y102800853D01*
X9820900Y102800853D01*
X9820900Y102800898D01*
X9783953Y103034169D01*
X9710966Y103258797D01*
X9607346Y103462161D01*
X9603743Y103469233D01*
X9464917Y103660310D01*
X9297910Y103827317D01*
X9106833Y103966143D01*
X9093179Y103973100D01*
X8896396Y104073367D01*
X8671768Y104146354D01*
X8438497Y104183300D01*
X8438492Y104183300D01*
X8202308Y104183300D01*
X8202303Y104183300D01*
X7969031Y104146354D01*
X7744403Y104073367D01*
X7533966Y103966143D01*
X7501162Y103942309D01*
X7342890Y103827317D01*
X7342888Y103827315D01*
X7342887Y103827315D01*
X7175885Y103660313D01*
X7175885Y103660312D01*
X7175883Y103660310D01*
X7119343Y103582490D01*
X7037057Y103469234D01*
X6929833Y103258797D01*
X6856846Y103034169D01*
X6819900Y102800898D01*
X6819900Y102564703D01*
X6856846Y102331432D01*
X6929833Y102106804D01*
X7031153Y101907954D01*
X7037057Y101896367D01*
X7175883Y101705290D01*
X7342890Y101538283D01*
X7533967Y101399457D01*
X7561695Y101385330D01*
X7612490Y101337357D01*
X7629400Y101274845D01*
X7629400Y93519385D01*
X7609715Y93452346D01*
X7593081Y93431704D01*
X5965669Y91804293D01*
X5965668Y91804292D01*
X5913704Y91726520D01*
X5913703Y91726520D01*
X5890045Y91691114D01*
X5890041Y91691107D01*
X5837956Y91565362D01*
X5837953Y91565352D01*
X5811400Y91431861D01*
X5811400Y91431858D01*
X5811400Y86605857D01*
X5811400Y86469743D01*
X5811400Y86469741D01*
X5811399Y86469741D01*
X5837953Y86336249D01*
X5837956Y86336239D01*
X5890042Y86210491D01*
X5890044Y86210488D01*
X5965663Y86097315D01*
X5965669Y86097308D01*
X12538907Y79524070D01*
X12538914Y79524064D01*
X12652087Y79448445D01*
X12652090Y79448443D01*
X12748604Y79408466D01*
X12777843Y79396355D01*
X12777847Y79396355D01*
X12777848Y79396354D01*
X12911339Y79369800D01*
X12911342Y79369800D01*
X17467816Y79369800D01*
X17534855Y79350115D01*
X17555497Y79333481D01*
X19301801Y77587177D01*
X19335286Y77525854D01*
X19330302Y77456162D01*
X19288430Y77400229D01*
X19222966Y77375812D01*
X19201518Y77376138D01*
X19131411Y77383300D01*
X17931398Y77383300D01*
X17931381Y77383299D01*
X17828603Y77372800D01*
X17828600Y77372799D01*
X17662068Y77317615D01*
X17662063Y77317613D01*
X17512742Y77225511D01*
X17388689Y77101458D01*
X17296587Y76952137D01*
X17296585Y76952132D01*
X17283192Y76911715D01*
X17241401Y76785597D01*
X17241401Y76785596D01*
X17241400Y76785596D01*
X17230900Y76682817D01*
X17230900Y75482799D01*
X17230901Y75482782D01*
X17241400Y75380004D01*
X17241401Y75380001D01*
X17258218Y75329252D01*
X17296586Y75213466D01*
X17388688Y75064144D01*
X17512744Y74940088D01*
X17662066Y74847986D01*
X17828603Y74792801D01*
X17931391Y74782300D01*
X19131408Y74782301D01*
X19234197Y74792801D01*
X19400734Y74847986D01*
X19550056Y74940088D01*
X19674112Y75064144D01*
X19766214Y75213466D01*
X19793355Y75295373D01*
X19833126Y75352816D01*
X19897642Y75379639D01*
X19966418Y75367324D01*
X20011377Y75329253D01*
X20079430Y75235587D01*
X20079434Y75235581D01*
X20224186Y75090829D01*
X20344626Y75003326D01*
X20389790Y74970513D01*
X20500401Y74914154D01*
X20572176Y74877582D01*
X20572178Y74877582D01*
X20572181Y74877580D01*
X20623200Y74861003D01*
X20766865Y74814323D01*
X20867957Y74798312D01*
X20969048Y74782300D01*
X20969049Y74782300D01*
X21173751Y74782300D01*
X21173752Y74782300D01*
X21375934Y74814323D01*
X21570619Y74877580D01*
X21753010Y74970513D01*
X21881882Y75064143D01*
X21918613Y75090829D01*
X21918615Y75090832D01*
X21918619Y75090834D01*
X22063366Y75235581D01*
X22063368Y75235585D01*
X22063371Y75235587D01*
X22183684Y75401186D01*
X22183686Y75401189D01*
X22183687Y75401190D01*
X22230916Y75493883D01*
X22278889Y75544677D01*
X22346710Y75561472D01*
X22412845Y75538935D01*
X22451883Y75493883D01*
X22457540Y75482782D01*
X22499115Y75401186D01*
X22619428Y75235587D01*
X22764186Y75090829D01*
X22884626Y75003326D01*
X22929790Y74970513D01*
X23040401Y74914154D01*
X23112176Y74877582D01*
X23112178Y74877582D01*
X23112181Y74877580D01*
X23163200Y74861003D01*
X23306865Y74814323D01*
X23407957Y74798312D01*
X23509048Y74782300D01*
X23509049Y74782300D01*
X23713751Y74782300D01*
X23713752Y74782300D01*
X23915934Y74814323D01*
X24110619Y74877580D01*
X24293010Y74970513D01*
X24421882Y75064143D01*
X24458613Y75090829D01*
X24458615Y75090832D01*
X24458619Y75090834D01*
X24603366Y75235581D01*
X24603368Y75235585D01*
X24603371Y75235587D01*
X24723684Y75401186D01*
X24723686Y75401189D01*
X24723687Y75401190D01*
X24770916Y75493883D01*
X24818889Y75544677D01*
X24886710Y75561472D01*
X24952845Y75538935D01*
X24991883Y75493883D01*
X24997540Y75482782D01*
X25039115Y75401186D01*
X25159428Y75235587D01*
X25304186Y75090829D01*
X25424626Y75003326D01*
X25469790Y74970513D01*
X25580401Y74914154D01*
X25652176Y74877582D01*
X25652178Y74877582D01*
X25652181Y74877580D01*
X25703200Y74861003D01*
X25846865Y74814323D01*
X25947957Y74798312D01*
X26049048Y74782300D01*
X26049049Y74782300D01*
X26253751Y74782300D01*
X26253752Y74782300D01*
X26455934Y74814323D01*
X26650619Y74877580D01*
X26833010Y74970513D01*
X26961882Y75064143D01*
X26998613Y75090829D01*
X26998615Y75090832D01*
X26998619Y75090834D01*
X27143366Y75235581D01*
X27143368Y75235585D01*
X27143371Y75235587D01*
X27263684Y75401186D01*
X27263686Y75401189D01*
X27263687Y75401190D01*
X27310916Y75493883D01*
X27358889Y75544677D01*
X27426710Y75561472D01*
X27492845Y75538935D01*
X27531883Y75493883D01*
X27537540Y75482782D01*
X27579115Y75401186D01*
X27699428Y75235587D01*
X27844186Y75090829D01*
X27964626Y75003326D01*
X28009790Y74970513D01*
X28120401Y74914154D01*
X28192176Y74877582D01*
X28192178Y74877582D01*
X28192181Y74877580D01*
X28243200Y74861003D01*
X28386865Y74814323D01*
X28487957Y74798312D01*
X28589048Y74782300D01*
X28589049Y74782300D01*
X28793751Y74782300D01*
X28793752Y74782300D01*
X28995934Y74814323D01*
X29190619Y74877580D01*
X29373010Y74970513D01*
X29501882Y75064143D01*
X29538613Y75090829D01*
X29538615Y75090832D01*
X29538619Y75090834D01*
X29683366Y75235581D01*
X29683368Y75235585D01*
X29683371Y75235587D01*
X29803684Y75401186D01*
X29803686Y75401189D01*
X29803687Y75401190D01*
X29850916Y75493883D01*
X29898889Y75544677D01*
X29966710Y75561472D01*
X30032845Y75538935D01*
X30071883Y75493883D01*
X30077540Y75482782D01*
X30119115Y75401186D01*
X30239428Y75235587D01*
X30384186Y75090829D01*
X30504626Y75003326D01*
X30549790Y74970513D01*
X30660401Y74914154D01*
X30732176Y74877582D01*
X30732178Y74877582D01*
X30732181Y74877580D01*
X30783200Y74861003D01*
X30926865Y74814323D01*
X31027957Y74798312D01*
X31129048Y74782300D01*
X31129049Y74782300D01*
X31333751Y74782300D01*
X31333752Y74782300D01*
X31535934Y74814323D01*
X31730619Y74877580D01*
X31913010Y74970513D01*
X32041882Y75064143D01*
X32078613Y75090829D01*
X32078615Y75090832D01*
X32078619Y75090834D01*
X32223366Y75235581D01*
X32223368Y75235585D01*
X32223371Y75235587D01*
X32343684Y75401186D01*
X32343686Y75401189D01*
X32343687Y75401190D01*
X32390916Y75493883D01*
X32438889Y75544677D01*
X32506710Y75561472D01*
X32572845Y75538935D01*
X32611883Y75493883D01*
X32617540Y75482782D01*
X32659115Y75401186D01*
X32779428Y75235587D01*
X32924186Y75090829D01*
X33044626Y75003326D01*
X33089790Y74970513D01*
X33200401Y74914154D01*
X33272176Y74877582D01*
X33272178Y74877582D01*
X33272181Y74877580D01*
X33323200Y74861003D01*
X33466865Y74814323D01*
X33567957Y74798312D01*
X33669048Y74782300D01*
X33669049Y74782300D01*
X33873751Y74782300D01*
X33873752Y74782300D01*
X34075934Y74814323D01*
X34270619Y74877580D01*
X34453010Y74970513D01*
X34581882Y75064143D01*
X34618613Y75090829D01*
X34618615Y75090832D01*
X34618619Y75090834D01*
X34763366Y75235581D01*
X34763368Y75235585D01*
X34763371Y75235587D01*
X34868294Y75380003D01*
X34883687Y75401190D01*
X34931195Y75494431D01*
X34979169Y75545227D01*
X35046990Y75562022D01*
X35113125Y75539485D01*
X35152165Y75494431D01*
X35199541Y75401450D01*
X35199547Y75401441D01*
X35231923Y75356879D01*
X35231924Y75356878D01*
X35911400Y76036354D01*
X35911400Y76030139D01*
X35938659Y75928406D01*
X35991320Y75837194D01*
X36065794Y75762720D01*
X36157006Y75710059D01*
X36258739Y75682800D01*
X36264953Y75682800D01*
X35585476Y75003326D01*
X35630050Y74970941D01*
X35812368Y74878045D01*
X36006982Y74814810D01*
X36209083Y74782800D01*
X36413717Y74782800D01*
X36615817Y74814810D01*
X36810431Y74878045D01*
X36992749Y74970941D01*
X37037321Y75003326D01*
X36357847Y75682800D01*
X36364061Y75682800D01*
X36465794Y75710059D01*
X36557006Y75762720D01*
X36631480Y75837194D01*
X36684141Y75928406D01*
X36711400Y76030139D01*
X36711400Y76036353D01*
X37390874Y75356879D01*
X37423261Y75401453D01*
X37423261Y75401454D01*
X37470634Y75494429D01*
X37518608Y75545225D01*
X37586428Y75562021D01*
X37652564Y75539484D01*
X37691603Y75494431D01*
X37739113Y75401189D01*
X37859428Y75235587D01*
X38004184Y75090831D01*
X38109285Y75014472D01*
X38151951Y74959143D01*
X38160400Y74914154D01*
X38160400Y73932742D01*
X38160400Y73932740D01*
X38160399Y73932740D01*
X38178968Y73839396D01*
X38178968Y73839395D01*
X38186953Y73799250D01*
X38186956Y73799240D01*
X38239042Y73673491D01*
X38239044Y73673488D01*
X38314663Y73560315D01*
X38314669Y73560308D01*
X41240909Y70634068D01*
X41240913Y70634065D01*
X41354081Y70558448D01*
X41354085Y70558446D01*
X41354088Y70558444D01*
X41479842Y70506355D01*
X41498839Y70502577D01*
X41555305Y70491345D01*
X41613341Y70479800D01*
X41613342Y70479800D01*
X43112647Y70479800D01*
X43179686Y70460115D01*
X43218184Y70420899D01*
X43255288Y70360744D01*
X43379344Y70236688D01*
X43382628Y70234663D01*
X43382653Y70234647D01*
X43384445Y70232654D01*
X43385011Y70232207D01*
X43384934Y70232111D01*
X43429379Y70182701D01*
X43440603Y70113739D01*
X43412761Y70049656D01*
X43382665Y70023574D01*
X43379660Y70021721D01*
X43379655Y70021717D01*
X43255684Y69897746D01*
X43163643Y69748525D01*
X43163641Y69748520D01*
X43108494Y69582098D01*
X43108493Y69582091D01*
X43098000Y69479387D01*
X43098000Y69341900D01*
X45547999Y69341900D01*
X45547999Y69479372D01*
X45547998Y69479387D01*
X45537505Y69582098D01*
X45482358Y69748520D01*
X45482356Y69748525D01*
X45390315Y69897746D01*
X45266344Y70021717D01*
X45266341Y70021719D01*
X45263339Y70023571D01*
X45261713Y70025379D01*
X45260677Y70026198D01*
X45260817Y70026376D01*
X45216617Y70075520D01*
X45205397Y70144483D01*
X45233243Y70208564D01*
X45263344Y70234646D01*
X45266656Y70236688D01*
X45390712Y70360744D01*
X45425409Y70416999D01*
X45477356Y70463721D01*
X45530947Y70475900D01*
X47841161Y70475900D01*
X47908200Y70456215D01*
X47951646Y70408194D01*
X47974674Y70362997D01*
X48009434Y70315154D01*
X48090372Y70203754D01*
X48229554Y70064572D01*
X48388795Y69948876D01*
X48461952Y69911601D01*
X48564170Y69859518D01*
X48564172Y69859518D01*
X48564175Y69859516D01*
X48612184Y69843917D01*
X48751373Y69798691D01*
X48945778Y69767900D01*
X48945783Y69767900D01*
X49142622Y69767900D01*
X49337026Y69798691D01*
X49524225Y69859516D01*
X49699605Y69948876D01*
X49858846Y70064572D01*
X49998028Y70203754D01*
X50113724Y70362995D01*
X50203084Y70538375D01*
X50263909Y70725574D01*
X50294700Y70919978D01*
X50294700Y71116823D01*
X50263909Y71311227D01*
X50235687Y71398083D01*
X50203084Y71498425D01*
X50203082Y71498428D01*
X50203082Y71498430D01*
X50113723Y71673806D01*
X50109150Y71680100D01*
X49998028Y71833046D01*
X49858846Y71972228D01*
X49774536Y72033483D01*
X49731872Y72088812D01*
X49725893Y72158426D01*
X49758499Y72220221D01*
X49819338Y72254578D01*
X49847423Y72257800D01*
X51656216Y72257800D01*
X51723255Y72238115D01*
X51743897Y72221481D01*
X52652932Y71312447D01*
X52686417Y71251124D01*
X52687724Y71205369D01*
X52673700Y71116823D01*
X52673700Y70919978D01*
X52704490Y70725574D01*
X52765317Y70538371D01*
X52831646Y70408194D01*
X52854676Y70362995D01*
X52970372Y70203754D01*
X53109554Y70064572D01*
X53268795Y69948876D01*
X53341952Y69911601D01*
X53444170Y69859518D01*
X53444172Y69859518D01*
X53444175Y69859516D01*
X53492184Y69843917D01*
X53631373Y69798691D01*
X53825778Y69767900D01*
X53825783Y69767900D01*
X54022622Y69767900D01*
X54217026Y69798691D01*
X54404225Y69859516D01*
X54579605Y69948876D01*
X54738846Y70064572D01*
X54878028Y70203754D01*
X54899025Y70232654D01*
X54909439Y70246986D01*
X54964769Y70289652D01*
X55009756Y70298100D01*
X57618453Y70298100D01*
X57685492Y70278415D01*
X57723990Y70239200D01*
X57758688Y70182944D01*
X57882744Y70058888D01*
X57886028Y70056863D01*
X57886053Y70056847D01*
X57887845Y70054854D01*
X57888411Y70054407D01*
X57888334Y70054311D01*
X57932779Y70004901D01*
X57944003Y69935939D01*
X57916161Y69871856D01*
X57886065Y69845774D01*
X57883060Y69843921D01*
X57883055Y69843917D01*
X57759084Y69719946D01*
X57667043Y69570725D01*
X57667041Y69570720D01*
X57611894Y69404298D01*
X57611893Y69404291D01*
X57601400Y69301587D01*
X57601400Y69164100D01*
X60051399Y69164100D01*
X60051399Y69301572D01*
X60051398Y69301587D01*
X60040905Y69404298D01*
X59985758Y69570720D01*
X59985756Y69570725D01*
X59893715Y69719946D01*
X59769744Y69843917D01*
X59769741Y69843919D01*
X59766739Y69845771D01*
X59765113Y69847579D01*
X59764077Y69848398D01*
X59764217Y69848576D01*
X59720017Y69897720D01*
X59708797Y69966683D01*
X59736643Y70030764D01*
X59766744Y70056846D01*
X59770056Y70058888D01*
X59894112Y70182944D01*
X59986214Y70332266D01*
X60041399Y70498803D01*
X60051900Y70601591D01*
X60051899Y71376608D01*
X60041399Y71479397D01*
X59986214Y71645934D01*
X59894112Y71795256D01*
X59770056Y71919312D01*
X59620734Y72011414D01*
X59454197Y72066599D01*
X59454195Y72066600D01*
X59351410Y72077100D01*
X58301398Y72077100D01*
X58301380Y72077099D01*
X58198603Y72066600D01*
X58198600Y72066599D01*
X58032068Y72011415D01*
X58032063Y72011413D01*
X57882742Y71919311D01*
X57758690Y71795259D01*
X57758688Y71795257D01*
X57758688Y71795256D01*
X57723990Y71739002D01*
X57672044Y71692279D01*
X57618453Y71680100D01*
X55052331Y71680100D01*
X54985292Y71699785D01*
X54952013Y71731214D01*
X54946354Y71739003D01*
X54878028Y71833046D01*
X54738846Y71972228D01*
X54579605Y72087924D01*
X54577862Y72088812D01*
X54404229Y72177283D01*
X54217026Y72238110D01*
X54022622Y72268900D01*
X54022617Y72268900D01*
X53825783Y72268900D01*
X53825777Y72268900D01*
X53737231Y72254876D01*
X53667938Y72263831D01*
X53630153Y72289668D01*
X52857703Y73062119D01*
X52824218Y73123442D01*
X52829202Y73193134D01*
X52871074Y73249067D01*
X52936538Y73273484D01*
X52945384Y73273800D01*
X66336660Y73273800D01*
X66426470Y73291666D01*
X66470157Y73300355D01*
X66533034Y73326400D01*
X66595907Y73352442D01*
X66595908Y73352443D01*
X66595911Y73352444D01*
X66649789Y73388444D01*
X66709087Y73428065D01*
X69521510Y76240489D01*
X69582831Y76273972D01*
X69652523Y76268988D01*
X69708456Y76227116D01*
X69732873Y76161652D01*
X69733189Y76152729D01*
X69726203Y64894422D01*
X69726004Y64887472D01*
X69707538Y64562132D01*
X69705973Y64548321D01*
X69651800Y64230547D01*
X69648700Y64216997D01*
X69559299Y63907273D01*
X69554702Y63894155D01*
X69431199Y63596386D01*
X69425163Y63583865D01*
X69269102Y63301773D01*
X69261701Y63290007D01*
X69075066Y63027180D01*
X69066396Y63016315D01*
X68851504Y62776011D01*
X68841672Y62766186D01*
X68601235Y62551443D01*
X68590365Y62542779D01*
X68327419Y62356306D01*
X68315649Y62348913D01*
X68033460Y62193026D01*
X68020935Y62186998D01*
X67723100Y62063684D01*
X67709979Y62059094D01*
X67400188Y61969882D01*
X67386637Y61966791D01*
X67068828Y61912814D01*
X67055014Y61911258D01*
X66740454Y61893600D01*
X66729676Y61892995D01*
X66722726Y61892800D01*
X59335718Y61892800D01*
X59335718Y55396281D01*
X59335523Y55389328D01*
X59317245Y55063859D01*
X59315688Y55050041D01*
X59261668Y54732105D01*
X59258574Y54718548D01*
X59169294Y54408652D01*
X59164701Y54395528D01*
X59041290Y54097585D01*
X59035257Y54085056D01*
X58879256Y53802794D01*
X58871857Y53791020D01*
X58685246Y53528017D01*
X58676577Y53517145D01*
X58461678Y53276673D01*
X58451845Y53266840D01*
X58211373Y53051941D01*
X58200501Y53043272D01*
X57937498Y52856661D01*
X57925724Y52849262D01*
X57643462Y52693261D01*
X57630933Y52687228D01*
X57332990Y52563817D01*
X57319866Y52559224D01*
X57009970Y52469944D01*
X56996413Y52466850D01*
X56678477Y52412830D01*
X56664659Y52411273D01*
X56339190Y52392995D01*
X56332237Y52392800D01*
X55735787Y52392800D01*
X55668748Y52412485D01*
X55648106Y52429119D01*
X54562219Y53515006D01*
X54528734Y53576329D01*
X54525900Y53602687D01*
X54525900Y54288615D01*
X54545585Y54355654D01*
X54575585Y54387879D01*
X54678946Y54465254D01*
X54765196Y54580469D01*
X54815491Y54715317D01*
X54821900Y54774927D01*
X54821900Y55054270D01*
X55261400Y55054270D01*
X55276048Y54924261D01*
X55333730Y54759414D01*
X55426646Y54611538D01*
X55550137Y54488047D01*
X55698013Y54395131D01*
X55862860Y54337449D01*
X55992869Y54322801D01*
X55992873Y54322800D01*
X56061400Y54322800D01*
X56561400Y54322800D01*
X56629927Y54322800D01*
X56629930Y54322801D01*
X56759939Y54337449D01*
X56924786Y54395131D01*
X57072662Y54488047D01*
X57196153Y54611538D01*
X57289069Y54759414D01*
X57346751Y54924261D01*
X57361399Y55054270D01*
X57361400Y55054274D01*
X57361400Y55472800D01*
X56561400Y55472800D01*
X56561400Y54322800D01*
X56061400Y54322800D01*
X56061400Y55472800D01*
X55261400Y55472800D01*
X55261400Y55054270D01*
X54821900Y55054270D01*
X54821899Y56268301D01*
X54841584Y56335339D01*
X54894388Y56381094D01*
X54945899Y56392300D01*
X55137400Y56392300D01*
X55204439Y56372615D01*
X55250194Y56319811D01*
X55261400Y56268300D01*
X55261400Y55972800D01*
X55964990Y55972800D01*
X56011325Y55892545D01*
X56081145Y55822725D01*
X56166655Y55773356D01*
X56262030Y55747800D01*
X56360770Y55747800D01*
X56456145Y55773356D01*
X56541655Y55822725D01*
X56611475Y55892545D01*
X56657810Y55972800D01*
X57361400Y55972800D01*
X57361400Y56391327D01*
X57361399Y56391331D01*
X57346751Y56521340D01*
X57289069Y56686187D01*
X57196153Y56834063D01*
X57072662Y56957554D01*
X56924786Y57050470D01*
X56759939Y57108152D01*
X56629930Y57122800D01*
X56561400Y57122800D01*
X56561400Y56403130D01*
X56541655Y56422875D01*
X56456145Y56472244D01*
X56360770Y56497800D01*
X56262030Y56497800D01*
X56166655Y56472244D01*
X56081145Y56422875D01*
X56061400Y56403130D01*
X56061400Y56927806D01*
X56062340Y56943041D01*
X56063971Y56956223D01*
X56077241Y56994143D01*
X56091900Y57124248D01*
X56091900Y58461352D01*
X56077241Y58591457D01*
X56019522Y58756406D01*
X55926547Y58904376D01*
X55802976Y59027947D01*
X55655006Y59120922D01*
X55655005Y59120923D01*
X55655004Y59120923D01*
X55490058Y59178641D01*
X55490048Y59178643D01*
X55359958Y59193300D01*
X55359952Y59193300D01*
X54722848Y59193300D01*
X54722841Y59193300D01*
X54592751Y59178643D01*
X54592741Y59178641D01*
X54427795Y59120923D01*
X54279823Y59027947D01*
X54156253Y58904377D01*
X54063277Y58756405D01*
X54005559Y58591459D01*
X54005557Y58591449D01*
X53990900Y58461359D01*
X53990900Y57247300D01*
X53971215Y57180261D01*
X53918411Y57134506D01*
X53866900Y57123300D01*
X53173529Y57123300D01*
X53173523Y57123299D01*
X53113916Y57116892D01*
X52979071Y57066598D01*
X52979064Y57066594D01*
X52863855Y56980348D01*
X52863852Y56980345D01*
X52777606Y56865136D01*
X52777602Y56865129D01*
X52727308Y56730283D01*
X52720901Y56670684D01*
X52720900Y56670665D01*
X52720900Y54774930D01*
X52720901Y54774924D01*
X52727308Y54715317D01*
X52777602Y54580472D01*
X52777606Y54580465D01*
X52863851Y54465257D01*
X52863852Y54465256D01*
X52863854Y54465254D01*
X52967212Y54387880D01*
X53009082Y54331948D01*
X53016900Y54288615D01*
X53016900Y53318248D01*
X53016899Y53318222D01*
X53016899Y53313112D01*
X53016899Y53164488D01*
X53016899Y53164486D01*
X53016898Y53164486D01*
X53045893Y53018727D01*
X53045896Y53018717D01*
X53102766Y52881419D01*
X53102772Y52881408D01*
X53185342Y52757832D01*
X53338693Y52604481D01*
X53372178Y52543158D01*
X53367194Y52473466D01*
X53325322Y52417533D01*
X53259858Y52393116D01*
X53251012Y52392800D01*
X46894681Y52392800D01*
X46887728Y52392995D01*
X46562258Y52411273D01*
X46548440Y52412830D01*
X46230504Y52466850D01*
X46216947Y52469944D01*
X45907051Y52559224D01*
X45893927Y52563817D01*
X45595984Y52687228D01*
X45583455Y52693261D01*
X45301193Y52849262D01*
X45289419Y52856661D01*
X45026416Y53043272D01*
X45015544Y53051941D01*
X44775072Y53266840D01*
X44765239Y53276673D01*
X44728109Y53318222D01*
X44550335Y53517151D01*
X44541675Y53528011D01*
X44355059Y53791021D01*
X44347661Y53802794D01*
X44191660Y54085056D01*
X44185627Y54097585D01*
X44062216Y54395528D01*
X44057623Y54408652D01*
X43968343Y54718548D01*
X43965249Y54732105D01*
X43932600Y54924261D01*
X43911227Y55050052D01*
X43909673Y55063851D01*
X43891395Y55389329D01*
X43891200Y55396281D01*
X43891200Y60858400D01*
X40891200Y60858400D01*
X10963173Y60858400D01*
X10956261Y60858593D01*
X10632715Y60876656D01*
X10618978Y60878194D01*
X10446712Y60907287D01*
X47800900Y60907287D01*
X47800900Y60718314D01*
X47830459Y60531682D01*
X47888854Y60351964D01*
X47954259Y60223601D01*
X47974640Y60183601D01*
X48085710Y60030727D01*
X48219327Y59897110D01*
X48372201Y59786040D01*
X48451747Y59745510D01*
X48540563Y59700255D01*
X48540565Y59700255D01*
X48540568Y59700253D01*
X48636897Y59668954D01*
X48720281Y59641860D01*
X48906914Y59612300D01*
X48906919Y59612300D01*
X49095886Y59612300D01*
X49282518Y59641860D01*
X49296878Y59646526D01*
X49462232Y59700253D01*
X49630599Y59786040D01*
X49783473Y59897110D01*
X49917090Y60030727D01*
X50028160Y60183601D01*
X50113947Y60351968D01*
X50153469Y60473605D01*
X50192907Y60531279D01*
X50257266Y60558477D01*
X50326112Y60546562D01*
X50377588Y60499318D01*
X50389330Y60473606D01*
X50404691Y60426328D01*
X50428854Y60351964D01*
X50494259Y60223601D01*
X50514640Y60183601D01*
X50625710Y60030727D01*
X50759327Y59897110D01*
X50912201Y59786040D01*
X50991747Y59745510D01*
X51080563Y59700255D01*
X51080565Y59700255D01*
X51080568Y59700253D01*
X51176897Y59668954D01*
X51260281Y59641860D01*
X51446914Y59612300D01*
X51446919Y59612300D01*
X51635886Y59612300D01*
X51822518Y59641860D01*
X51836878Y59646526D01*
X52002232Y59700253D01*
X52170599Y59786040D01*
X52323473Y59897110D01*
X52457090Y60030727D01*
X52568160Y60183601D01*
X52653947Y60351968D01*
X52712340Y60531682D01*
X52717491Y60564204D01*
X52741900Y60718314D01*
X52741900Y60907286D01*
X52737866Y60932754D01*
X52737866Y60932755D01*
X52735564Y60947287D01*
X53800900Y60947287D01*
X53800900Y60758314D01*
X53830459Y60571682D01*
X53888854Y60391964D01*
X53974640Y60223601D01*
X54085710Y60070727D01*
X54219327Y59937110D01*
X54372201Y59826040D01*
X54440598Y59791190D01*
X54540563Y59740255D01*
X54540565Y59740255D01*
X54540568Y59740253D01*
X54636897Y59708954D01*
X54720281Y59681860D01*
X54906914Y59652300D01*
X54906919Y59652300D01*
X55095886Y59652300D01*
X55282518Y59681860D01*
X55339125Y59700253D01*
X55462232Y59740253D01*
X55630599Y59826040D01*
X55783473Y59937110D01*
X55917090Y60070727D01*
X56028160Y60223601D01*
X56113947Y60391968D01*
X56153469Y60513605D01*
X56192907Y60571279D01*
X56257266Y60598477D01*
X56326112Y60586562D01*
X56377588Y60539318D01*
X56389331Y60513604D01*
X56428854Y60391964D01*
X56514640Y60223601D01*
X56625710Y60070727D01*
X56759327Y59937110D01*
X56912201Y59826040D01*
X56980598Y59791190D01*
X57080563Y59740255D01*
X57080565Y59740255D01*
X57080568Y59740253D01*
X57176897Y59708954D01*
X57260281Y59681860D01*
X57446914Y59652300D01*
X57446919Y59652300D01*
X57635886Y59652300D01*
X57822518Y59681860D01*
X57879125Y59700253D01*
X58002232Y59740253D01*
X58170599Y59826040D01*
X58323473Y59937110D01*
X58457090Y60070727D01*
X58568160Y60223601D01*
X58653947Y60391968D01*
X58712340Y60571682D01*
X58716584Y60598477D01*
X58741900Y60758314D01*
X58741900Y60947287D01*
X58712340Y61133919D01*
X58663780Y61283368D01*
X58653947Y61313632D01*
X58653945Y61313635D01*
X58653945Y61313637D01*
X58588540Y61442000D01*
X58568160Y61481999D01*
X58457090Y61634873D01*
X58323473Y61768490D01*
X58170599Y61879560D01*
X58144614Y61892800D01*
X58002236Y61965346D01*
X57822518Y62023741D01*
X57635886Y62053300D01*
X57635881Y62053300D01*
X57446919Y62053300D01*
X57446914Y62053300D01*
X57260281Y62023741D01*
X57080563Y61965346D01*
X56912200Y61879560D01*
X56857146Y61839560D01*
X56759327Y61768490D01*
X56759325Y61768488D01*
X56759324Y61768488D01*
X56625712Y61634876D01*
X56625712Y61634875D01*
X56625710Y61634873D01*
X56596650Y61594875D01*
X56514640Y61482000D01*
X56428854Y61313637D01*
X56389331Y61191997D01*
X56349893Y61134322D01*
X56285534Y61107124D01*
X56216688Y61119039D01*
X56165212Y61166284D01*
X56153469Y61191997D01*
X56123780Y61283368D01*
X56113947Y61313632D01*
X56113945Y61313635D01*
X56113945Y61313637D01*
X56048540Y61442000D01*
X56028160Y61481999D01*
X55917090Y61634873D01*
X55783473Y61768490D01*
X55630599Y61879560D01*
X55604614Y61892800D01*
X55462236Y61965346D01*
X55282518Y62023741D01*
X55095886Y62053300D01*
X55095881Y62053300D01*
X54906919Y62053300D01*
X54906914Y62053300D01*
X54720281Y62023741D01*
X54540563Y61965346D01*
X54372200Y61879560D01*
X54317146Y61839560D01*
X54219327Y61768490D01*
X54219325Y61768488D01*
X54219324Y61768488D01*
X54085712Y61634876D01*
X54085712Y61634875D01*
X54085710Y61634873D01*
X54056650Y61594875D01*
X53974640Y61482000D01*
X53888854Y61313637D01*
X53830459Y61133919D01*
X53800900Y60947287D01*
X52735564Y60947287D01*
X52712340Y61093919D01*
X52653945Y61273637D01*
X52568159Y61442000D01*
X52457090Y61594873D01*
X52323473Y61728490D01*
X52170599Y61839560D01*
X52002236Y61925346D01*
X51822518Y61983741D01*
X51635886Y62013300D01*
X51635881Y62013300D01*
X51446919Y62013300D01*
X51446914Y62013300D01*
X51260281Y61983741D01*
X51080563Y61925346D01*
X50912200Y61839560D01*
X50824979Y61776190D01*
X50759327Y61728490D01*
X50759325Y61728488D01*
X50759324Y61728488D01*
X50625712Y61594876D01*
X50625712Y61594875D01*
X50625710Y61594873D01*
X50618600Y61585087D01*
X50514640Y61442000D01*
X50428854Y61273637D01*
X50389331Y61151997D01*
X50349893Y61094322D01*
X50285534Y61067124D01*
X50216688Y61079039D01*
X50165212Y61126284D01*
X50153469Y61151997D01*
X50113945Y61273637D01*
X50028159Y61442000D01*
X49917090Y61594873D01*
X49783473Y61728490D01*
X49630599Y61839560D01*
X49462236Y61925346D01*
X49282518Y61983741D01*
X49095886Y62013300D01*
X49095881Y62013300D01*
X48906919Y62013300D01*
X48906914Y62013300D01*
X48720281Y61983741D01*
X48540563Y61925346D01*
X48372200Y61839560D01*
X48284979Y61776190D01*
X48219327Y61728490D01*
X48219325Y61728488D01*
X48219324Y61728488D01*
X48085712Y61594876D01*
X48085712Y61594875D01*
X48085710Y61594873D01*
X48078600Y61585087D01*
X47974640Y61442000D01*
X47888854Y61273637D01*
X47830459Y61093919D01*
X47800900Y60907287D01*
X10446712Y60907287D01*
X10302851Y60931583D01*
X10289370Y60934642D01*
X9981168Y61022881D01*
X9968111Y61027420D01*
X9671631Y61149422D01*
X9659161Y61155387D01*
X9378110Y61309626D01*
X9366381Y61316942D01*
X9104245Y61501505D01*
X9093403Y61510081D01*
X8853439Y61722675D01*
X8843619Y61732404D01*
X8628799Y61970398D01*
X8620136Y61981144D01*
X8545048Y62085718D01*
X29526269Y62085718D01*
X29526270Y62085717D01*
X29551659Y62067271D01*
X29719962Y61981515D01*
X29899597Y61923149D01*
X30086153Y61893600D01*
X30275047Y61893600D01*
X30461602Y61923149D01*
X30641237Y61981515D01*
X30809537Y62067269D01*
X30834928Y62085717D01*
X30834928Y62085718D01*
X30180601Y62740046D01*
X30180600Y62740046D01*
X29526269Y62085718D01*
X8545048Y62085718D01*
X8433142Y62241568D01*
X8425720Y62253225D01*
X8373828Y62345736D01*
X8268876Y62532842D01*
X8262798Y62545254D01*
X8255389Y62562794D01*
X8138058Y62840577D01*
X8133397Y62853591D01*
X8089577Y63001449D01*
X8042302Y63160966D01*
X8039119Y63174414D01*
X8036686Y63188048D01*
X28980600Y63188048D01*
X28980600Y62999153D01*
X29010148Y62812598D01*
X29068514Y62632963D01*
X29154266Y62464667D01*
X29172716Y62439272D01*
X29827046Y63093600D01*
X29827046Y63093601D01*
X29780969Y63139678D01*
X29830600Y63139678D01*
X29830600Y63047522D01*
X29854452Y62958505D01*
X29900530Y62878695D01*
X29965695Y62813530D01*
X30045505Y62767452D01*
X30134522Y62743600D01*
X30226678Y62743600D01*
X30315695Y62767452D01*
X30395505Y62813530D01*
X30460670Y62878695D01*
X30506748Y62958505D01*
X30530600Y63047522D01*
X30530600Y63093601D01*
X30534154Y63093601D01*
X30534154Y63093600D01*
X31188482Y62439272D01*
X31188483Y62439272D01*
X31206931Y62464663D01*
X31285615Y62619088D01*
X31333589Y62669884D01*
X31401410Y62686679D01*
X31467545Y62664142D01*
X31510997Y62609427D01*
X31520100Y62562794D01*
X31520100Y62345731D01*
X31520101Y62345724D01*
X31526508Y62286117D01*
X31576802Y62151272D01*
X31576806Y62151265D01*
X31663052Y62036056D01*
X31663055Y62036053D01*
X31778264Y61949807D01*
X31778271Y61949803D01*
X31913117Y61899509D01*
X31913116Y61899509D01*
X31920044Y61898765D01*
X31972727Y61893100D01*
X33468472Y61893101D01*
X33528083Y61899509D01*
X33662931Y61949804D01*
X33778146Y62036054D01*
X33864396Y62151269D01*
X33914691Y62286117D01*
X33921100Y62345727D01*
X33921099Y63841472D01*
X33914691Y63901083D01*
X33912382Y63907273D01*
X33864397Y64035929D01*
X33864393Y64035936D01*
X33778147Y64151145D01*
X33778144Y64151148D01*
X33662935Y64237394D01*
X33662928Y64237398D01*
X33528082Y64287692D01*
X33528083Y64287692D01*
X33468483Y64294099D01*
X33468481Y64294100D01*
X33468473Y64294100D01*
X33468464Y64294100D01*
X31972729Y64294100D01*
X31972723Y64294099D01*
X31913116Y64287692D01*
X31778271Y64237398D01*
X31778264Y64237394D01*
X31663055Y64151148D01*
X31663052Y64151145D01*
X31576806Y64035936D01*
X31576802Y64035929D01*
X31526508Y63901083D01*
X31520101Y63841484D01*
X31520101Y63841477D01*
X31520100Y63841465D01*
X31520100Y63624409D01*
X31500415Y63557370D01*
X31447611Y63511615D01*
X31378453Y63501671D01*
X31314897Y63530696D01*
X31285615Y63568114D01*
X31206929Y63722541D01*
X31188483Y63747930D01*
X31188482Y63747931D01*
X30534154Y63093601D01*
X30530600Y63093601D01*
X30530600Y63139678D01*
X30506748Y63228695D01*
X30460670Y63308505D01*
X30395505Y63373670D01*
X30315695Y63419748D01*
X30226678Y63443600D01*
X30134522Y63443600D01*
X30045505Y63419748D01*
X29965695Y63373670D01*
X29900530Y63308505D01*
X29854452Y63228695D01*
X29830600Y63139678D01*
X29780969Y63139678D01*
X29172716Y63747931D01*
X29172716Y63747930D01*
X29154269Y63722540D01*
X29068514Y63554238D01*
X29010148Y63374603D01*
X28980600Y63188048D01*
X8036686Y63188048D01*
X7982800Y63490035D01*
X7981134Y63503757D01*
X7975101Y63596386D01*
X7960069Y63827161D01*
X7959815Y63834005D01*
X7959198Y63900582D01*
X7957335Y64101484D01*
X29526269Y64101484D01*
X30180600Y63447154D01*
X30180601Y63447154D01*
X30834928Y64101484D01*
X30809533Y64119934D01*
X30641237Y64205686D01*
X30461602Y64264052D01*
X30275047Y64293600D01*
X30086153Y64293600D01*
X29899597Y64264052D01*
X29719962Y64205686D01*
X29551660Y64119931D01*
X29526270Y64101484D01*
X29526269Y64101484D01*
X7957335Y64101484D01*
X7957164Y64119934D01*
X7948320Y65073647D01*
X7935053Y66504225D01*
X12341400Y66504225D01*
X12341400Y66281376D01*
X12370485Y66060446D01*
X12370488Y66060433D01*
X12428163Y65845182D01*
X12513445Y65639298D01*
X12513454Y65639280D01*
X12624864Y65446309D01*
X12624873Y65446296D01*
X12675440Y65380397D01*
X12675443Y65380397D01*
X13476787Y66181741D01*
X13482289Y66161209D01*
X13561281Y66024392D01*
X13672992Y65912681D01*
X13809809Y65833689D01*
X13830340Y65828188D01*
X13028995Y65026845D01*
X13028995Y65026844D01*
X13094907Y64976267D01*
X13287885Y64864851D01*
X13287897Y64864846D01*
X13493781Y64779564D01*
X13709032Y64721889D01*
X13709045Y64721886D01*
X13929975Y64692800D01*
X14152825Y64692800D01*
X14373754Y64721886D01*
X14373767Y64721889D01*
X14589018Y64779564D01*
X14794902Y64864846D01*
X14794914Y64864851D01*
X14987898Y64976270D01*
X15053803Y65026843D01*
X15053804Y65026844D01*
X14252459Y65828188D01*
X14272991Y65833689D01*
X14409808Y65912681D01*
X14521519Y66024392D01*
X14600511Y66161209D01*
X14606012Y66181741D01*
X15407356Y65380396D01*
X15407357Y65380397D01*
X15457930Y65446302D01*
X15569349Y65639286D01*
X15569354Y65639298D01*
X15654636Y65845182D01*
X15712311Y66060433D01*
X15712314Y66060446D01*
X15741400Y66281376D01*
X15741400Y66504225D01*
X15712314Y66725155D01*
X15712311Y66725168D01*
X15654636Y66940419D01*
X15569354Y67146303D01*
X15569349Y67146315D01*
X15461010Y67333965D01*
X15457933Y67339294D01*
X15416863Y67392816D01*
X19840900Y67392816D01*
X19840900Y65392785D01*
X19851400Y65290005D01*
X19851401Y65290004D01*
X19906586Y65123465D01*
X19906587Y65123463D01*
X19998686Y64974149D01*
X19998689Y64974145D01*
X20122744Y64850090D01*
X20122748Y64850087D01*
X20272062Y64757988D01*
X20272064Y64757987D01*
X20272066Y64757986D01*
X20438603Y64702801D01*
X20541392Y64692300D01*
X20541397Y64692300D01*
X22541403Y64692300D01*
X22541408Y64692300D01*
X22644197Y64702801D01*
X22810734Y64757986D01*
X22960055Y64850089D01*
X23084111Y64974145D01*
X23176214Y65123466D01*
X23231399Y65290003D01*
X23241900Y65392792D01*
X23241900Y65987287D01*
X47800900Y65987287D01*
X47800900Y65798314D01*
X47830459Y65611682D01*
X47888854Y65431964D01*
X47967063Y65278472D01*
X47974640Y65263601D01*
X48085710Y65110727D01*
X48219327Y64977110D01*
X48372201Y64866040D01*
X48451747Y64825510D01*
X48540563Y64780255D01*
X48540565Y64780255D01*
X48540568Y64780253D01*
X48636897Y64748954D01*
X48720281Y64721860D01*
X48906914Y64692300D01*
X48906919Y64692300D01*
X49095886Y64692300D01*
X49282518Y64721860D01*
X49284023Y64722349D01*
X49462232Y64780253D01*
X49630599Y64866040D01*
X49656582Y64884918D01*
X50887069Y64884918D01*
X50887070Y64884917D01*
X50912459Y64866471D01*
X51080762Y64780715D01*
X51260397Y64722349D01*
X51446953Y64692800D01*
X51635847Y64692800D01*
X51822402Y64722349D01*
X52002037Y64780715D01*
X52170337Y64866469D01*
X52195728Y64884917D01*
X52195728Y64884918D01*
X51541401Y65539246D01*
X51541400Y65539246D01*
X50887069Y64884918D01*
X49656582Y64884918D01*
X49783473Y64977110D01*
X49917090Y65110727D01*
X50028160Y65263601D01*
X50113947Y65431968D01*
X50153732Y65554415D01*
X50193168Y65612087D01*
X50257527Y65639286D01*
X50326373Y65627371D01*
X50377849Y65580127D01*
X50389593Y65554412D01*
X50429314Y65432163D01*
X50515066Y65263867D01*
X50533516Y65238472D01*
X51187846Y65892800D01*
X51187846Y65892801D01*
X51141769Y65938878D01*
X51191400Y65938878D01*
X51191400Y65846722D01*
X51215252Y65757705D01*
X51261330Y65677895D01*
X51326495Y65612730D01*
X51406305Y65566652D01*
X51495322Y65542800D01*
X51587478Y65542800D01*
X51676495Y65566652D01*
X51756305Y65612730D01*
X51821470Y65677895D01*
X51867548Y65757705D01*
X51891400Y65846722D01*
X51891400Y65892801D01*
X51894954Y65892801D01*
X51894954Y65892800D01*
X52549282Y65238472D01*
X52549283Y65238472D01*
X52567731Y65263863D01*
X52653485Y65432163D01*
X52711851Y65611798D01*
X52741400Y65798353D01*
X52741400Y65987248D01*
X52737360Y66012755D01*
X52735058Y66027287D01*
X53800900Y66027287D01*
X53800900Y65838314D01*
X53830459Y65651682D01*
X53888854Y65471964D01*
X53935511Y65380396D01*
X53974640Y65303601D01*
X54085710Y65150727D01*
X54219327Y65017110D01*
X54372201Y64906040D01*
X54449860Y64866471D01*
X54540563Y64820255D01*
X54540565Y64820255D01*
X54540568Y64820253D01*
X54636897Y64788954D01*
X54720281Y64761860D01*
X54906914Y64732300D01*
X54906919Y64732300D01*
X55095886Y64732300D01*
X55282518Y64761860D01*
X55284023Y64762349D01*
X55462232Y64820253D01*
X55630599Y64906040D01*
X55656582Y64924918D01*
X56887069Y64924918D01*
X56887070Y64924917D01*
X56912459Y64906471D01*
X57080762Y64820715D01*
X57260397Y64762349D01*
X57446953Y64732800D01*
X57635847Y64732800D01*
X57822402Y64762349D01*
X58002037Y64820715D01*
X58170337Y64906469D01*
X58195728Y64924917D01*
X58195728Y64924918D01*
X57541401Y65579246D01*
X57541400Y65579246D01*
X56887069Y64924918D01*
X55656582Y64924918D01*
X55783473Y65017110D01*
X55917090Y65150727D01*
X56028160Y65303601D01*
X56113947Y65471968D01*
X56153732Y65594415D01*
X56193168Y65652087D01*
X56257527Y65679286D01*
X56326373Y65667371D01*
X56377849Y65620127D01*
X56389593Y65594412D01*
X56429314Y65472163D01*
X56515066Y65303867D01*
X56533516Y65278472D01*
X57187846Y65932800D01*
X57187846Y65932801D01*
X57141769Y65978878D01*
X57191400Y65978878D01*
X57191400Y65886722D01*
X57215252Y65797705D01*
X57261330Y65717895D01*
X57326495Y65652730D01*
X57406305Y65606652D01*
X57495322Y65582800D01*
X57587478Y65582800D01*
X57676495Y65606652D01*
X57756305Y65652730D01*
X57821470Y65717895D01*
X57867548Y65797705D01*
X57891400Y65886722D01*
X57891400Y65932801D01*
X57894954Y65932801D01*
X57894954Y65932800D01*
X58549282Y65278472D01*
X58549283Y65278472D01*
X58567733Y65303865D01*
X58567733Y65303866D01*
X58583426Y65334665D01*
X63450900Y65334665D01*
X63450900Y63438930D01*
X63450901Y63438924D01*
X63457308Y63379317D01*
X63507602Y63244472D01*
X63507606Y63244465D01*
X63593852Y63129256D01*
X63593855Y63129253D01*
X63709064Y63043007D01*
X63709071Y63043003D01*
X63843917Y62992709D01*
X63843916Y62992709D01*
X63850844Y62991965D01*
X63903527Y62986300D01*
X65099272Y62986301D01*
X65158883Y62992709D01*
X65293731Y63043004D01*
X65408946Y63129254D01*
X65495196Y63244469D01*
X65545491Y63379317D01*
X65551900Y63438927D01*
X65551900Y63718270D01*
X65991400Y63718270D01*
X66006048Y63588261D01*
X66063730Y63423414D01*
X66156646Y63275538D01*
X66280137Y63152047D01*
X66428013Y63059131D01*
X66592860Y63001449D01*
X66722869Y62986801D01*
X66722873Y62986800D01*
X66791400Y62986800D01*
X67291400Y62986800D01*
X67359927Y62986800D01*
X67359930Y62986801D01*
X67489939Y63001449D01*
X67654786Y63059131D01*
X67802662Y63152047D01*
X67926153Y63275538D01*
X68019069Y63423414D01*
X68076751Y63588261D01*
X68091399Y63718270D01*
X68091400Y63718274D01*
X68091400Y64136800D01*
X67291400Y64136800D01*
X67291400Y62986800D01*
X66791400Y62986800D01*
X66791400Y64136800D01*
X65991400Y64136800D01*
X65991400Y63718270D01*
X65551900Y63718270D01*
X65551899Y64932301D01*
X65571584Y64999339D01*
X65624388Y65045094D01*
X65675899Y65056300D01*
X65867400Y65056300D01*
X65934439Y65036615D01*
X65980194Y64983811D01*
X65991400Y64932300D01*
X65991400Y64636800D01*
X66694990Y64636800D01*
X66741325Y64556545D01*
X66811145Y64486725D01*
X66896655Y64437356D01*
X66992030Y64411800D01*
X67090770Y64411800D01*
X67186145Y64437356D01*
X67271655Y64486725D01*
X67341475Y64556545D01*
X67387810Y64636800D01*
X68091400Y64636800D01*
X68091400Y65055327D01*
X68091399Y65055331D01*
X68076751Y65185340D01*
X68019069Y65350187D01*
X67926153Y65498063D01*
X67802662Y65621554D01*
X67654786Y65714470D01*
X67489939Y65772152D01*
X67359930Y65786800D01*
X67291400Y65786800D01*
X67291400Y65067130D01*
X67271655Y65086875D01*
X67186145Y65136244D01*
X67090770Y65161800D01*
X66992030Y65161800D01*
X66896655Y65136244D01*
X66811145Y65086875D01*
X66791400Y65067130D01*
X66791400Y65591806D01*
X66792340Y65607041D01*
X66793971Y65620223D01*
X66807241Y65658143D01*
X66821900Y65788248D01*
X66821900Y67125352D01*
X66807241Y67255457D01*
X66749522Y67420406D01*
X66656547Y67568376D01*
X66532976Y67691947D01*
X66385006Y67784922D01*
X66385005Y67784923D01*
X66385004Y67784923D01*
X66220058Y67842641D01*
X66220048Y67842643D01*
X66089958Y67857300D01*
X66089952Y67857300D01*
X65452848Y67857300D01*
X65452841Y67857300D01*
X65322751Y67842643D01*
X65322741Y67842641D01*
X65157795Y67784923D01*
X65009823Y67691947D01*
X64886253Y67568377D01*
X64793277Y67420405D01*
X64735559Y67255459D01*
X64735557Y67255449D01*
X64720900Y67125359D01*
X64720900Y65911300D01*
X64701215Y65844261D01*
X64648411Y65798506D01*
X64596900Y65787300D01*
X63903529Y65787300D01*
X63903523Y65787299D01*
X63843916Y65780892D01*
X63709071Y65730598D01*
X63709064Y65730594D01*
X63593855Y65644348D01*
X63593852Y65644345D01*
X63507606Y65529136D01*
X63507602Y65529129D01*
X63457308Y65394283D01*
X63450901Y65334684D01*
X63450900Y65334665D01*
X58583426Y65334665D01*
X58613808Y65394290D01*
X58653485Y65472163D01*
X58711851Y65651798D01*
X58741400Y65838353D01*
X58741400Y66027248D01*
X58711851Y66213803D01*
X58653485Y66393438D01*
X58567729Y66561741D01*
X58549283Y66587130D01*
X58549282Y66587131D01*
X57894954Y65932801D01*
X57891400Y65932801D01*
X57891400Y65978878D01*
X57867548Y66067895D01*
X57821470Y66147705D01*
X57756305Y66212870D01*
X57676495Y66258948D01*
X57587478Y66282800D01*
X57495322Y66282800D01*
X57406305Y66258948D01*
X57326495Y66212870D01*
X57261330Y66147705D01*
X57215252Y66067895D01*
X57191400Y65978878D01*
X57141769Y65978878D01*
X56533516Y66587131D01*
X56533516Y66587130D01*
X56515069Y66561740D01*
X56429315Y66393439D01*
X56389593Y66271188D01*
X56350155Y66213513D01*
X56285796Y66186315D01*
X56216950Y66198230D01*
X56165474Y66245474D01*
X56153732Y66271186D01*
X56113947Y66393632D01*
X56028160Y66561999D01*
X55917090Y66714873D01*
X55783473Y66848490D01*
X55656579Y66940684D01*
X56887069Y66940684D01*
X57541400Y66286354D01*
X57541401Y66286354D01*
X58195728Y66940684D01*
X58170333Y66959134D01*
X58002037Y67044886D01*
X57822402Y67103252D01*
X57635847Y67132800D01*
X57446953Y67132800D01*
X57260397Y67103252D01*
X57080762Y67044886D01*
X56912460Y66959131D01*
X56887070Y66940684D01*
X56887069Y66940684D01*
X55656579Y66940684D01*
X55630599Y66959560D01*
X55565362Y66992800D01*
X55462236Y67045346D01*
X55282518Y67103741D01*
X55095886Y67133300D01*
X55095881Y67133300D01*
X54906919Y67133300D01*
X54906914Y67133300D01*
X54720281Y67103741D01*
X54540563Y67045346D01*
X54372200Y66959560D01*
X54284979Y66896190D01*
X54219327Y66848490D01*
X54219325Y66848488D01*
X54219324Y66848488D01*
X54085712Y66714876D01*
X54085712Y66714875D01*
X54085710Y66714873D01*
X54056650Y66674875D01*
X53974640Y66562000D01*
X53888854Y66393637D01*
X53830459Y66213919D01*
X53800900Y66027287D01*
X52735058Y66027287D01*
X52711852Y66173803D01*
X52653485Y66353438D01*
X52567729Y66521741D01*
X52549283Y66547130D01*
X52549282Y66547131D01*
X51894954Y65892801D01*
X51891400Y65892801D01*
X51891400Y65938878D01*
X51867548Y66027895D01*
X51821470Y66107705D01*
X51756305Y66172870D01*
X51676495Y66218948D01*
X51587478Y66242800D01*
X51495322Y66242800D01*
X51406305Y66218948D01*
X51326495Y66172870D01*
X51261330Y66107705D01*
X51215252Y66027895D01*
X51191400Y65938878D01*
X51141769Y65938878D01*
X50533516Y66547131D01*
X50533516Y66547130D01*
X50515069Y66521740D01*
X50429315Y66353439D01*
X50389593Y66231188D01*
X50350155Y66173513D01*
X50285796Y66146315D01*
X50216950Y66158230D01*
X50165474Y66205474D01*
X50153732Y66231186D01*
X50113947Y66353632D01*
X50028160Y66521999D01*
X49917090Y66674873D01*
X49783473Y66808490D01*
X49656579Y66900684D01*
X50887069Y66900684D01*
X51541400Y66246354D01*
X51541401Y66246354D01*
X52195728Y66900684D01*
X52170333Y66919134D01*
X52002037Y67004886D01*
X51822402Y67063252D01*
X51635847Y67092800D01*
X51446953Y67092800D01*
X51260397Y67063252D01*
X51080762Y67004886D01*
X50912460Y66919131D01*
X50887070Y66900684D01*
X50887069Y66900684D01*
X49656579Y66900684D01*
X49630599Y66919560D01*
X49589141Y66940684D01*
X49462236Y67005346D01*
X49282518Y67063741D01*
X49095886Y67093300D01*
X49095881Y67093300D01*
X48906919Y67093300D01*
X48906914Y67093300D01*
X48720281Y67063741D01*
X48540563Y67005346D01*
X48372200Y66919560D01*
X48308005Y66872919D01*
X48219327Y66808490D01*
X48219325Y66808488D01*
X48219324Y66808488D01*
X48085712Y66674876D01*
X48085712Y66674875D01*
X48085710Y66674873D01*
X48049033Y66624391D01*
X47974640Y66522000D01*
X47888854Y66353637D01*
X47830459Y66173919D01*
X47800900Y65987287D01*
X23241900Y65987287D01*
X23241900Y67392808D01*
X23231399Y67495597D01*
X23176214Y67662134D01*
X23146902Y67709655D01*
X23084113Y67811452D01*
X23084110Y67811456D01*
X22960055Y67935511D01*
X22960051Y67935514D01*
X22810737Y68027613D01*
X22810735Y68027614D01*
X22727465Y68055207D01*
X22644197Y68082799D01*
X22644195Y68082800D01*
X22541415Y68093300D01*
X22541408Y68093300D01*
X20541392Y68093300D01*
X20541384Y68093300D01*
X20438604Y68082800D01*
X20438603Y68082799D01*
X20272064Y68027614D01*
X20272062Y68027613D01*
X20122748Y67935514D01*
X20122744Y67935511D01*
X19998689Y67811456D01*
X19998686Y67811452D01*
X19906587Y67662138D01*
X19906586Y67662136D01*
X19851401Y67495597D01*
X19851400Y67495596D01*
X19840900Y67392816D01*
X15416863Y67392816D01*
X15407356Y67405205D01*
X15407355Y67405205D01*
X14606012Y66603861D01*
X14600511Y66624391D01*
X14521519Y66761208D01*
X14409808Y66872919D01*
X14272991Y66951911D01*
X14252458Y66957413D01*
X15053803Y67758757D01*
X15053803Y67758760D01*
X14987904Y67809327D01*
X14987891Y67809336D01*
X14794920Y67920746D01*
X14794902Y67920755D01*
X14589018Y68006037D01*
X14373767Y68063712D01*
X14373754Y68063715D01*
X14152825Y68092800D01*
X13929975Y68092800D01*
X13709045Y68063715D01*
X13709032Y68063712D01*
X13493781Y68006037D01*
X13287897Y67920755D01*
X13287879Y67920746D01*
X13094911Y67809338D01*
X13028995Y67758758D01*
X13830341Y66957413D01*
X13809809Y66951911D01*
X13672992Y66872919D01*
X13561281Y66761208D01*
X13482289Y66624391D01*
X13476787Y66603860D01*
X12675442Y67405205D01*
X12624862Y67339289D01*
X12513454Y67146321D01*
X12513445Y67146303D01*
X12428163Y66940419D01*
X12370488Y66725168D01*
X12370485Y66725155D01*
X12341400Y66504225D01*
X7935053Y66504225D01*
X7935026Y66507133D01*
X7923874Y67709655D01*
X7916298Y68526614D01*
X7914649Y68704414D01*
X43098001Y68704414D01*
X43108494Y68601703D01*
X43163641Y68435281D01*
X43163643Y68435276D01*
X43255684Y68286055D01*
X43379654Y68162085D01*
X43528875Y68070044D01*
X43528880Y68070042D01*
X43695302Y68014895D01*
X43695309Y68014894D01*
X43798019Y68004401D01*
X44072999Y68004401D01*
X44573000Y68004401D01*
X44847972Y68004401D01*
X44847986Y68004402D01*
X44950697Y68014895D01*
X45117119Y68070042D01*
X45117124Y68070044D01*
X45266345Y68162085D01*
X45390315Y68286055D01*
X45482356Y68435276D01*
X45482358Y68435281D01*
X45512623Y68526614D01*
X57601401Y68526614D01*
X57611894Y68423903D01*
X57667041Y68257481D01*
X57667043Y68257476D01*
X57759084Y68108255D01*
X57883054Y67984285D01*
X58032275Y67892244D01*
X58032280Y67892242D01*
X58198702Y67837095D01*
X58198709Y67837094D01*
X58301419Y67826601D01*
X58576399Y67826601D01*
X59076400Y67826601D01*
X59351372Y67826601D01*
X59351386Y67826602D01*
X59454097Y67837095D01*
X59620519Y67892242D01*
X59620524Y67892244D01*
X59769745Y67984285D01*
X59893715Y68108255D01*
X59985756Y68257476D01*
X59985758Y68257481D01*
X60040905Y68423903D01*
X60040906Y68423910D01*
X60051399Y68526614D01*
X60051400Y68526627D01*
X60051400Y68664100D01*
X59076400Y68664100D01*
X59076400Y67826601D01*
X58576399Y67826601D01*
X58576400Y67826602D01*
X58576400Y68664100D01*
X57601401Y68664100D01*
X57601401Y68526614D01*
X45512623Y68526614D01*
X45537505Y68601703D01*
X45537506Y68601710D01*
X45547999Y68704414D01*
X45548000Y68704427D01*
X45548000Y68841900D01*
X44573000Y68841900D01*
X44573000Y68004401D01*
X44072999Y68004401D01*
X44073000Y68004402D01*
X44073000Y68841900D01*
X43098001Y68841900D01*
X43098001Y68704414D01*
X7914649Y68704414D01*
X7852543Y75401454D01*
X7846145Y76091287D01*
X9492900Y76091287D01*
X9492900Y75902314D01*
X9522459Y75715682D01*
X9580854Y75535964D01*
X9660320Y75380004D01*
X9666640Y75367601D01*
X9777710Y75214727D01*
X9911327Y75081110D01*
X10064201Y74970040D01*
X10136920Y74932988D01*
X10232563Y74884255D01*
X10232565Y74884255D01*
X10232568Y74884253D01*
X10304124Y74861003D01*
X10412281Y74825860D01*
X10598914Y74796300D01*
X10598919Y74796300D01*
X10787886Y74796300D01*
X10974518Y74825860D01*
X11154232Y74884253D01*
X11322599Y74970040D01*
X11475473Y75081110D01*
X11609090Y75214727D01*
X11720160Y75367601D01*
X11805947Y75535968D01*
X11864340Y75715682D01*
X11893900Y75902314D01*
X11893900Y76091287D01*
X14572900Y76091287D01*
X14572900Y75902314D01*
X14602459Y75715682D01*
X14660854Y75535964D01*
X14740320Y75380004D01*
X14746640Y75367601D01*
X14857710Y75214727D01*
X14991327Y75081110D01*
X15144201Y74970040D01*
X15216920Y74932988D01*
X15312563Y74884255D01*
X15312565Y74884255D01*
X15312568Y74884253D01*
X15384124Y74861003D01*
X15492281Y74825860D01*
X15678914Y74796300D01*
X15678919Y74796300D01*
X15867886Y74796300D01*
X16054518Y74825860D01*
X16234232Y74884253D01*
X16402599Y74970040D01*
X16555473Y75081110D01*
X16689090Y75214727D01*
X16800160Y75367601D01*
X16885947Y75535968D01*
X16944340Y75715682D01*
X16973900Y75902314D01*
X16973900Y76091287D01*
X16944340Y76277919D01*
X16903737Y76402880D01*
X16885947Y76457632D01*
X16885945Y76457635D01*
X16885945Y76457637D01*
X16822566Y76582024D01*
X16800160Y76625999D01*
X16689090Y76778873D01*
X16555473Y76912490D01*
X16402599Y77023560D01*
X16401932Y77023900D01*
X16234236Y77109346D01*
X16054518Y77167741D01*
X15867886Y77197300D01*
X15867881Y77197300D01*
X15678919Y77197300D01*
X15678914Y77197300D01*
X15492281Y77167741D01*
X15312563Y77109346D01*
X15144200Y77023560D01*
X15096789Y76989113D01*
X14991327Y76912490D01*
X14991325Y76912488D01*
X14991324Y76912488D01*
X14857712Y76778876D01*
X14857712Y76778875D01*
X14857710Y76778873D01*
X14810010Y76713221D01*
X14746640Y76626000D01*
X14660854Y76457637D01*
X14602459Y76277919D01*
X14572900Y76091287D01*
X11893900Y76091287D01*
X11864340Y76277919D01*
X11823737Y76402880D01*
X11805947Y76457632D01*
X11805945Y76457635D01*
X11805945Y76457637D01*
X11742566Y76582024D01*
X11720160Y76625999D01*
X11609090Y76778873D01*
X11475473Y76912490D01*
X11322599Y77023560D01*
X11321932Y77023900D01*
X11154236Y77109346D01*
X10974518Y77167741D01*
X10787886Y77197300D01*
X10787881Y77197300D01*
X10598919Y77197300D01*
X10598914Y77197300D01*
X10412281Y77167741D01*
X10232563Y77109346D01*
X10064200Y77023560D01*
X10016789Y76989113D01*
X9911327Y76912490D01*
X9911325Y76912488D01*
X9911324Y76912488D01*
X9777712Y76778876D01*
X9777712Y76778875D01*
X9777710Y76778873D01*
X9730010Y76713221D01*
X9666640Y76626000D01*
X9580854Y76457637D01*
X9522459Y76277919D01*
X9492900Y76091287D01*
X7846145Y76091287D01*
X7846111Y76095003D01*
X7841378Y76605355D01*
X7791905Y81940150D01*
X7522300Y82186026D01*
X5745906Y83806076D01*
X5311747Y84202024D01*
X3630489Y85735310D01*
X3625305Y85740323D01*
X3388224Y85983373D01*
X3378737Y85994309D01*
X3288283Y86111800D01*
X3212306Y86210488D01*
X3173836Y86260457D01*
X3165687Y86272428D01*
X3161058Y86280164D01*
X2993211Y86560655D01*
X2986525Y86573475D01*
X2848831Y86879848D01*
X2843679Y86893373D01*
X2840475Y86903531D01*
X2742649Y87213705D01*
X2739107Y87227747D01*
X2730702Y87271769D01*
X2676115Y87557675D01*
X2674237Y87572009D01*
X2649881Y87910682D01*
X2649574Y87917903D01*
X2648993Y87961387D01*
X2543963Y95820468D01*
X3119900Y95820468D01*
X3119900Y95545133D01*
X3119901Y95545116D01*
X3155838Y95272145D01*
X3155839Y95272141D01*
X3155840Y95272134D01*
X3196773Y95119368D01*
X3227104Y95006170D01*
X3332475Y94751783D01*
X3332480Y94751772D01*
X3399856Y94635075D01*
X3470151Y94513321D01*
X3470153Y94513318D01*
X3470154Y94513317D01*
X3637770Y94294874D01*
X3637776Y94294867D01*
X3832466Y94100177D01*
X3832472Y94100172D01*
X4050921Y93932551D01*
X4204178Y93844068D01*
X4289371Y93794881D01*
X4289376Y93794879D01*
X4289379Y93794877D01*
X4543768Y93689505D01*
X4809734Y93618240D01*
X5082726Y93582300D01*
X5082733Y93582300D01*
X5358067Y93582300D01*
X5358074Y93582300D01*
X5631066Y93618240D01*
X5897032Y93689505D01*
X6151421Y93794877D01*
X6389879Y93932551D01*
X6608328Y94100172D01*
X6803028Y94294872D01*
X6970649Y94513321D01*
X7108323Y94751779D01*
X7213695Y95006168D01*
X7284960Y95272134D01*
X7320900Y95545126D01*
X7320900Y95820474D01*
X7284960Y96093466D01*
X7213695Y96359432D01*
X7108323Y96613821D01*
X7108321Y96613824D01*
X7108319Y96613829D01*
X7041651Y96729300D01*
X6970649Y96852279D01*
X6803028Y97070728D01*
X6803023Y97070734D01*
X6608333Y97265424D01*
X6608326Y97265430D01*
X6389883Y97433046D01*
X6389882Y97433047D01*
X6389879Y97433049D01*
X6294807Y97487939D01*
X6151428Y97570720D01*
X6151417Y97570725D01*
X5897030Y97676096D01*
X5764049Y97711728D01*
X5631066Y97747360D01*
X5631060Y97747361D01*
X5631055Y97747362D01*
X5358084Y97783299D01*
X5358079Y97783300D01*
X5358074Y97783300D01*
X5082726Y97783300D01*
X5082720Y97783300D01*
X5082715Y97783299D01*
X4809744Y97747362D01*
X4809737Y97747361D01*
X4809734Y97747360D01*
X4753708Y97732348D01*
X4543769Y97676096D01*
X4289382Y97570725D01*
X4289371Y97570720D01*
X4050916Y97433046D01*
X3832473Y97265430D01*
X3832466Y97265424D01*
X3637776Y97070734D01*
X3637770Y97070727D01*
X3470154Y96852284D01*
X3332480Y96613829D01*
X3332475Y96613818D01*
X3227104Y96359431D01*
X3177989Y96176128D01*
X3162017Y96116517D01*
X3155841Y96093469D01*
X3155838Y96093456D01*
X3119901Y95820485D01*
X3119900Y95820468D01*
X2543963Y95820468D01*
X2455040Y102474243D01*
X2455144Y102481198D01*
X2469361Y102809799D01*
X2470759Y102823753D01*
X2521450Y103145144D01*
X2524416Y103158856D01*
X2536170Y103201387D01*
X2611089Y103472478D01*
X2615576Y103485742D01*
X2737129Y103787586D01*
X2743083Y103800251D01*
X2897947Y104086422D01*
X2905294Y104098334D01*
X3091494Y104365185D01*
X3100147Y104376201D01*
X3315290Y104620300D01*
X3325137Y104630273D01*
X3566485Y104848519D01*
X3577382Y104857304D01*
X3841849Y105046898D01*
X3853644Y105054382D01*
X4137850Y105212897D01*
X4150425Y105219005D01*
X4397646Y105322242D01*
X4431532Y105331035D01*
X4453063Y105333460D01*
X4748772Y105400954D01*
X4933517Y105465600D01*
X4953552Y105470778D01*
X5110796Y105497637D01*
X5124704Y105499209D01*
X5453092Y105517611D01*
X5460095Y105517804D01*
X66747929Y105479776D01*
G37*
%TD.AperFunction*%
%TA.AperFunction,Conductor*%
G36*
X42732845Y83158935D02*
G01*
X42771885Y83113881D01*
X42819115Y83021186D01*
X42939428Y82855587D01*
X43084184Y82710831D01*
X43189285Y82634472D01*
X43231951Y82579143D01*
X43240400Y82534154D01*
X43240400Y81806741D01*
X43247193Y81772593D01*
X43247193Y81772591D01*
X43266953Y81673251D01*
X43266956Y81673239D01*
X43319042Y81547491D01*
X43319044Y81547488D01*
X43394663Y81434315D01*
X43394669Y81434308D01*
X47647066Y77181913D01*
X47706867Y77122112D01*
X47743314Y77085665D01*
X47856482Y77010048D01*
X47856486Y77010046D01*
X47856489Y77010044D01*
X47881112Y76999845D01*
X47935514Y76956005D01*
X47957580Y76889711D01*
X47940614Y76822541D01*
X47937539Y76817300D01*
X47899113Y76764410D01*
X47850215Y76668445D01*
X47848355Y76665272D01*
X47825472Y76643754D01*
X47803910Y76620924D01*
X47800223Y76620011D01*
X47797455Y76617408D01*
X47766568Y76611677D01*
X47736089Y76604129D01*
X47732493Y76605355D01*
X47728758Y76604661D01*
X47699684Y76616535D01*
X47669954Y76626666D01*
X47667257Y76629778D01*
X47664074Y76631078D01*
X47655316Y76643560D01*
X47630915Y76671720D01*
X47625261Y76682817D01*
X47583687Y76764410D01*
X47551492Y76808723D01*
X47463371Y76930014D01*
X47318613Y77074772D01*
X47153013Y77195085D01*
X47153012Y77195086D01*
X47153010Y77195087D01*
X47093298Y77225512D01*
X46970623Y77288019D01*
X46775934Y77351278D01*
X46601395Y77378922D01*
X46573752Y77383300D01*
X46369048Y77383300D01*
X46344729Y77379449D01*
X46166865Y77351278D01*
X45972176Y77288019D01*
X45789786Y77195085D01*
X45624186Y77074772D01*
X45479428Y76930014D01*
X45359115Y76764414D01*
X45311885Y76671720D01*
X45263910Y76620924D01*
X45196089Y76604129D01*
X45129954Y76626666D01*
X45090915Y76671720D01*
X45085261Y76682817D01*
X45043687Y76764410D01*
X45011492Y76808723D01*
X44923371Y76930014D01*
X44778613Y77074772D01*
X44613013Y77195085D01*
X44613012Y77195086D01*
X44613010Y77195087D01*
X44553298Y77225512D01*
X44430623Y77288019D01*
X44235934Y77351278D01*
X44061395Y77378922D01*
X44033752Y77383300D01*
X43829048Y77383300D01*
X43804729Y77379449D01*
X43626865Y77351278D01*
X43432176Y77288019D01*
X43249786Y77195085D01*
X43084186Y77074772D01*
X42939428Y76930014D01*
X42819115Y76764414D01*
X42771885Y76671720D01*
X42723910Y76620924D01*
X42656089Y76604129D01*
X42589954Y76626666D01*
X42550915Y76671720D01*
X42545261Y76682817D01*
X42503687Y76764410D01*
X42471492Y76808723D01*
X42383371Y76930014D01*
X42238613Y77074772D01*
X42073013Y77195085D01*
X42073012Y77195086D01*
X42073010Y77195087D01*
X42013298Y77225512D01*
X41890623Y77288019D01*
X41695934Y77351278D01*
X41521395Y77378922D01*
X41493752Y77383300D01*
X41289048Y77383300D01*
X41264729Y77379449D01*
X41086865Y77351278D01*
X40892176Y77288019D01*
X40709786Y77195085D01*
X40544186Y77074772D01*
X40399428Y76930014D01*
X40279115Y76764414D01*
X40231885Y76671720D01*
X40183910Y76620924D01*
X40116089Y76604129D01*
X40049954Y76626666D01*
X40010915Y76671720D01*
X40005261Y76682817D01*
X39963687Y76764410D01*
X39931492Y76808723D01*
X39843371Y76930014D01*
X39698613Y77074772D01*
X39533013Y77195085D01*
X39533012Y77195086D01*
X39533010Y77195087D01*
X39473298Y77225512D01*
X39350623Y77288019D01*
X39155934Y77351278D01*
X38981395Y77378922D01*
X38953752Y77383300D01*
X38749048Y77383300D01*
X38724729Y77379449D01*
X38546865Y77351278D01*
X38352176Y77288019D01*
X38169786Y77195085D01*
X38004186Y77074772D01*
X37859428Y76930014D01*
X37739113Y76764412D01*
X37691603Y76671170D01*
X37643628Y76620374D01*
X37575807Y76603580D01*
X37509672Y76626118D01*
X37470634Y76671172D01*
X37423261Y76764148D01*
X37390874Y76808723D01*
X37390874Y76808724D01*
X36711400Y76129249D01*
X36711400Y76135461D01*
X36684141Y76237194D01*
X36631480Y76328406D01*
X36557006Y76402880D01*
X36465794Y76455541D01*
X36364061Y76482800D01*
X36357846Y76482800D01*
X37037322Y77162276D01*
X37037321Y77162277D01*
X36992759Y77194653D01*
X36992750Y77194659D01*
X36810431Y77287556D01*
X36615817Y77350791D01*
X36413717Y77382800D01*
X36209083Y77382800D01*
X36006982Y77350791D01*
X35812368Y77287556D01*
X35630044Y77194657D01*
X35585477Y77162277D01*
X35585477Y77162276D01*
X36264954Y76482800D01*
X36258739Y76482800D01*
X36157006Y76455541D01*
X36065794Y76402880D01*
X35991320Y76328406D01*
X35938659Y76237194D01*
X35911400Y76135461D01*
X35911400Y76129247D01*
X35231924Y76808723D01*
X35231923Y76808723D01*
X35199543Y76764156D01*
X35152165Y76671170D01*
X35104190Y76620374D01*
X35036369Y76603579D01*
X34970234Y76626117D01*
X34931195Y76671170D01*
X34883684Y76764415D01*
X34763371Y76930014D01*
X34669485Y77023900D01*
X34618619Y77074766D01*
X34560772Y77116794D01*
X34557053Y77119972D01*
X34540529Y77145298D01*
X34522056Y77169254D01*
X34521625Y77174272D01*
X34518874Y77178488D01*
X34518665Y77208732D01*
X34516077Y77238868D01*
X34518426Y77243322D01*
X34518392Y77248356D01*
X34534566Y77273911D01*
X34548682Y77300663D01*
X34553351Y77303590D01*
X34555759Y77307393D01*
X34569961Y77313999D01*
X34595229Y77329833D01*
X34595184Y77329931D01*
X34595978Y77330302D01*
X34598611Y77331952D01*
X34601734Y77332986D01*
X34751056Y77425088D01*
X34875112Y77549144D01*
X34909809Y77605399D01*
X34961756Y77652121D01*
X35015347Y77664300D01*
X36437160Y77664300D01*
X36526970Y77682166D01*
X36570657Y77690855D01*
X36696411Y77742944D01*
X36719074Y77758086D01*
X36779007Y77798133D01*
X36809587Y77818565D01*
X39388135Y80397113D01*
X39463756Y80510289D01*
X39515845Y80636043D01*
X39515899Y80636313D01*
X39515912Y80636376D01*
X39538411Y80749489D01*
X39542400Y80769542D01*
X39542400Y82534154D01*
X39562085Y82601193D01*
X39593515Y82634472D01*
X39698615Y82710831D01*
X39698615Y82710832D01*
X39698619Y82710834D01*
X39843366Y82855581D01*
X39843368Y82855585D01*
X39843371Y82855587D01*
X39963684Y83021186D01*
X39963686Y83021189D01*
X39963687Y83021190D01*
X40010916Y83113883D01*
X40058889Y83164677D01*
X40126710Y83181472D01*
X40192845Y83158935D01*
X40231885Y83113881D01*
X40279115Y83021186D01*
X40399428Y82855587D01*
X40544186Y82710829D01*
X40649285Y82634472D01*
X40709790Y82590513D01*
X40797599Y82545772D01*
X40892176Y82497582D01*
X40892178Y82497582D01*
X40892181Y82497580D01*
X40956477Y82476689D01*
X41086865Y82434323D01*
X41102353Y82431870D01*
X41289048Y82402300D01*
X41289049Y82402300D01*
X41493751Y82402300D01*
X41493752Y82402300D01*
X41695934Y82434323D01*
X41890619Y82497580D01*
X42073010Y82590513D01*
X42165990Y82658068D01*
X42238613Y82710829D01*
X42238615Y82710832D01*
X42238619Y82710834D01*
X42383366Y82855581D01*
X42383368Y82855585D01*
X42383371Y82855587D01*
X42503684Y83021186D01*
X42503686Y83021189D01*
X42503687Y83021190D01*
X42550916Y83113883D01*
X42598889Y83164677D01*
X42666710Y83181472D01*
X42732845Y83158935D01*
G37*
%TD.AperFunction*%
%TA.AperFunction,Conductor*%
G36*
X33371400Y83650139D02*
G01*
X33398659Y83548406D01*
X33451320Y83457194D01*
X33525794Y83382720D01*
X33617006Y83330059D01*
X33718739Y83302800D01*
X33724953Y83302800D01*
X33045476Y82623326D01*
X33090050Y82590941D01*
X33272368Y82498045D01*
X33466982Y82434810D01*
X33669083Y82402800D01*
X33873717Y82402800D01*
X34075817Y82434810D01*
X34270431Y82498045D01*
X34452749Y82590941D01*
X34497321Y82623326D01*
X33817847Y83302800D01*
X33824061Y83302800D01*
X33925794Y83330059D01*
X34017006Y83382720D01*
X34091480Y83457194D01*
X34144141Y83548406D01*
X34171400Y83650139D01*
X34171400Y83656353D01*
X34850874Y82976879D01*
X34883261Y83021453D01*
X34883261Y83021454D01*
X34930634Y83114429D01*
X34978608Y83165225D01*
X35046428Y83182021D01*
X35112564Y83159484D01*
X35151603Y83114431D01*
X35199113Y83021189D01*
X35319428Y82855587D01*
X35464186Y82710829D01*
X35569285Y82634472D01*
X35629790Y82590513D01*
X35717599Y82545772D01*
X35812176Y82497582D01*
X35812178Y82497582D01*
X35812181Y82497580D01*
X35876477Y82476689D01*
X36006865Y82434323D01*
X36022353Y82431870D01*
X36209048Y82402300D01*
X36209049Y82402300D01*
X36413751Y82402300D01*
X36413752Y82402300D01*
X36615934Y82434323D01*
X36810619Y82497580D01*
X36993010Y82590513D01*
X37085990Y82658068D01*
X37158613Y82710829D01*
X37158615Y82710832D01*
X37158619Y82710834D01*
X37303366Y82855581D01*
X37303368Y82855585D01*
X37303371Y82855587D01*
X37423684Y83021186D01*
X37423686Y83021189D01*
X37423687Y83021190D01*
X37470916Y83113883D01*
X37518889Y83164677D01*
X37586710Y83181472D01*
X37652845Y83158935D01*
X37691885Y83113881D01*
X37739115Y83021186D01*
X37859428Y82855587D01*
X38004184Y82710831D01*
X38109285Y82634472D01*
X38151951Y82579143D01*
X38160400Y82534154D01*
X38160400Y81175184D01*
X38140715Y81108145D01*
X38124081Y81087503D01*
X36119197Y79082619D01*
X36057874Y79049134D01*
X36031516Y79046300D01*
X35015347Y79046300D01*
X34948308Y79065985D01*
X34909809Y79105201D01*
X34875112Y79161456D01*
X34751056Y79285512D01*
X34747742Y79287557D01*
X34745946Y79289552D01*
X34745389Y79289993D01*
X34745464Y79290089D01*
X34701018Y79339503D01*
X34689797Y79408466D01*
X34717640Y79472548D01*
X34747748Y79498635D01*
X34750742Y79500482D01*
X34874715Y79624455D01*
X34966756Y79773676D01*
X34966758Y79773681D01*
X35021905Y79940103D01*
X35021906Y79940110D01*
X35032399Y80042814D01*
X35032400Y80042827D01*
X35032400Y80180300D01*
X32582401Y80180300D01*
X32582401Y80042814D01*
X32592894Y79940103D01*
X32648041Y79773681D01*
X32648043Y79773676D01*
X32740084Y79624455D01*
X32864055Y79500484D01*
X32864059Y79500481D01*
X32867056Y79498632D01*
X32868679Y79496828D01*
X32869723Y79496002D01*
X32869581Y79495824D01*
X32913781Y79446684D01*
X32925002Y79377721D01*
X32897159Y79313639D01*
X32867061Y79287559D01*
X32863749Y79285517D01*
X32863743Y79285512D01*
X32739689Y79161458D01*
X32647587Y79012137D01*
X32647585Y79012132D01*
X32638351Y78984264D01*
X32592401Y78845597D01*
X32592401Y78845596D01*
X32592400Y78845596D01*
X32581900Y78742817D01*
X32581900Y77967799D01*
X32581901Y77967781D01*
X32592400Y77865004D01*
X32592401Y77865001D01*
X32607788Y77818568D01*
X32647586Y77698466D01*
X32739688Y77549144D01*
X32863744Y77425088D01*
X32984199Y77350791D01*
X32999759Y77341194D01*
X33046484Y77289246D01*
X33057707Y77220284D01*
X33029864Y77156202D01*
X33007549Y77135337D01*
X32924182Y77074768D01*
X32779428Y76930014D01*
X32659115Y76764414D01*
X32611885Y76671720D01*
X32563910Y76620924D01*
X32496089Y76604129D01*
X32429954Y76626666D01*
X32390915Y76671720D01*
X32385261Y76682817D01*
X32343687Y76764410D01*
X32311492Y76808723D01*
X32223371Y76930014D01*
X32078613Y77074772D01*
X31913013Y77195085D01*
X31913012Y77195086D01*
X31913010Y77195087D01*
X31853298Y77225512D01*
X31730623Y77288019D01*
X31535934Y77351278D01*
X31361395Y77378922D01*
X31333752Y77383300D01*
X31129048Y77383300D01*
X31104729Y77379449D01*
X30926865Y77351278D01*
X30732176Y77288019D01*
X30549786Y77195085D01*
X30384186Y77074772D01*
X30239428Y76930014D01*
X30119115Y76764414D01*
X30071885Y76671720D01*
X30023910Y76620924D01*
X29956089Y76604129D01*
X29889954Y76626666D01*
X29850915Y76671720D01*
X29845261Y76682817D01*
X29803687Y76764410D01*
X29771492Y76808723D01*
X29683371Y76930014D01*
X29538613Y77074772D01*
X29373013Y77195085D01*
X29373012Y77195086D01*
X29373010Y77195087D01*
X29313298Y77225512D01*
X29190623Y77288019D01*
X28995934Y77351278D01*
X28821395Y77378922D01*
X28793752Y77383300D01*
X28589048Y77383300D01*
X28564729Y77379449D01*
X28386865Y77351278D01*
X28192176Y77288019D01*
X28009786Y77195085D01*
X27844186Y77074772D01*
X27699428Y76930014D01*
X27579115Y76764414D01*
X27531885Y76671720D01*
X27483910Y76620924D01*
X27416089Y76604129D01*
X27349954Y76626666D01*
X27310915Y76671720D01*
X27305261Y76682817D01*
X27263687Y76764410D01*
X27231492Y76808723D01*
X27143371Y76930014D01*
X26998617Y77074768D01*
X26998612Y77074772D01*
X26893515Y77151129D01*
X26850849Y77206458D01*
X26842400Y77251447D01*
X26842400Y80817787D01*
X32582400Y80817787D01*
X32582400Y80680300D01*
X33557400Y80680300D01*
X34057400Y80680300D01*
X35032399Y80680300D01*
X35032399Y80817772D01*
X35032398Y80817787D01*
X35021905Y80920498D01*
X34966758Y81086920D01*
X34966756Y81086925D01*
X34874715Y81236146D01*
X34750745Y81360116D01*
X34601524Y81452157D01*
X34601519Y81452159D01*
X34435097Y81507306D01*
X34435090Y81507307D01*
X34332386Y81517800D01*
X34057400Y81517800D01*
X34057400Y80680300D01*
X33557400Y80680300D01*
X33557400Y81517800D01*
X33282429Y81517800D01*
X33282412Y81517799D01*
X33179702Y81507306D01*
X33013280Y81452159D01*
X33013275Y81452157D01*
X32864054Y81360116D01*
X32740084Y81236146D01*
X32648043Y81086925D01*
X32648041Y81086920D01*
X32592894Y80920498D01*
X32592893Y80920491D01*
X32582400Y80817787D01*
X26842400Y80817787D01*
X26842400Y81211217D01*
X26862085Y81278256D01*
X26878719Y81298898D01*
X27943333Y82363512D01*
X27943335Y82363514D01*
X28012149Y82466502D01*
X28065759Y82511305D01*
X28135084Y82520013D01*
X28171544Y82508095D01*
X28192181Y82497580D01*
X28289516Y82465954D01*
X28386865Y82434323D01*
X28402353Y82431870D01*
X28589048Y82402300D01*
X28589049Y82402300D01*
X28793751Y82402300D01*
X28793752Y82402300D01*
X28995934Y82434323D01*
X29190619Y82497580D01*
X29373010Y82590513D01*
X29465990Y82658068D01*
X29538613Y82710829D01*
X29538615Y82710832D01*
X29538619Y82710834D01*
X29683366Y82855581D01*
X29683368Y82855585D01*
X29683371Y82855587D01*
X29803684Y83021186D01*
X29803686Y83021189D01*
X29803687Y83021190D01*
X29850916Y83113883D01*
X29898889Y83164677D01*
X29966710Y83181472D01*
X30032845Y83158935D01*
X30071885Y83113881D01*
X30119115Y83021186D01*
X30239428Y82855587D01*
X30384186Y82710829D01*
X30489285Y82634472D01*
X30549790Y82590513D01*
X30637599Y82545772D01*
X30732176Y82497582D01*
X30732178Y82497582D01*
X30732181Y82497580D01*
X30796477Y82476689D01*
X30926865Y82434323D01*
X30942353Y82431870D01*
X31129048Y82402300D01*
X31129049Y82402300D01*
X31333751Y82402300D01*
X31333752Y82402300D01*
X31535934Y82434323D01*
X31730619Y82497580D01*
X31913010Y82590513D01*
X32005990Y82658068D01*
X32078613Y82710829D01*
X32078615Y82710832D01*
X32078619Y82710834D01*
X32223366Y82855581D01*
X32223368Y82855585D01*
X32223371Y82855587D01*
X32343686Y83021189D01*
X32343815Y83021441D01*
X32391195Y83114431D01*
X32439169Y83165227D01*
X32506990Y83182022D01*
X32573125Y83159485D01*
X32612165Y83114431D01*
X32659541Y83021450D01*
X32659547Y83021441D01*
X32691923Y82976879D01*
X32691924Y82976878D01*
X33371400Y83656354D01*
X33371400Y83650139D01*
G37*
%TD.AperFunction*%
%TA.AperFunction,Conductor*%
G36*
X67235475Y80699807D02*
G01*
X67301301Y80585793D01*
X67394393Y80492701D01*
X67508407Y80426875D01*
X67571990Y80409838D01*
X66939682Y79777531D01*
X66939682Y79777530D01*
X66993852Y79738174D01*
X66993851Y79738174D01*
X67002895Y79733566D01*
X67053692Y79685592D01*
X67070487Y79617771D01*
X67047950Y79551636D01*
X67002899Y79512598D01*
X66993582Y79507851D01*
X66821613Y79382910D01*
X66671290Y79232587D01*
X66546349Y79060618D01*
X66541884Y79051854D01*
X66493909Y79001058D01*
X66426088Y78984264D01*
X66359953Y79006802D01*
X66320916Y79051854D01*
X66316450Y79060618D01*
X66191509Y79232587D01*
X66041186Y79382910D01*
X65869217Y79507851D01*
X65859904Y79512596D01*
X65809107Y79560570D01*
X65792312Y79628391D01*
X65814849Y79694526D01*
X65859907Y79733568D01*
X65868955Y79738178D01*
X65923116Y79777530D01*
X65923117Y79777530D01*
X65290808Y80409838D01*
X65354393Y80426875D01*
X65468407Y80492701D01*
X65561499Y80585793D01*
X65627325Y80699807D01*
X65644362Y80763392D01*
X66276670Y80131083D01*
X66276670Y80131084D01*
X66316022Y80185246D01*
X66320914Y80194846D01*
X66368888Y80245643D01*
X66436708Y80262439D01*
X66502844Y80239903D01*
X66541886Y80194846D01*
X66546775Y80185250D01*
X66586128Y80131084D01*
X67218437Y80763392D01*
X67235475Y80699807D01*
G37*
%TD.AperFunction*%
%TA.AperFunction,Conductor*%
G36*
X68823980Y80123774D02*
G01*
X68865046Y80115147D01*
X68914804Y80066097D01*
X68930400Y80005892D01*
X68930400Y79333058D01*
X68910715Y79266019D01*
X68857911Y79220264D01*
X68788753Y79210320D01*
X68725197Y79239345D01*
X68718719Y79245377D01*
X68581186Y79382910D01*
X68409217Y79507851D01*
X68399904Y79512596D01*
X68349107Y79560570D01*
X68332312Y79628391D01*
X68354849Y79694526D01*
X68399907Y79733568D01*
X68408955Y79738178D01*
X68463116Y79777530D01*
X68463117Y79777530D01*
X67830808Y80409838D01*
X67894393Y80426875D01*
X68008407Y80492701D01*
X68101499Y80585793D01*
X68167325Y80699807D01*
X68184362Y80763392D01*
X68823980Y80123774D01*
G37*
%TD.AperFunction*%
%TA.AperFunction,Conductor*%
G36*
X41152454Y85293715D02*
G01*
X41198209Y85240911D01*
X41208153Y85171753D01*
X41179128Y85108197D01*
X41173103Y85101727D01*
X41098193Y85026816D01*
X41042426Y84971049D01*
X40993065Y84940801D01*
X40892180Y84908021D01*
X40709786Y84815085D01*
X40544186Y84694772D01*
X40399428Y84550014D01*
X40279115Y84384414D01*
X40231885Y84291720D01*
X40183910Y84240924D01*
X40116089Y84224129D01*
X40049954Y84246666D01*
X40010915Y84291720D01*
X39963820Y84384148D01*
X39963687Y84384410D01*
X39931492Y84428723D01*
X39843371Y84550014D01*
X39698613Y84694772D01*
X39533013Y84815085D01*
X39533012Y84815086D01*
X39533010Y84815087D01*
X39476053Y84844109D01*
X39350623Y84908019D01*
X39155934Y84971278D01*
X38981395Y84998922D01*
X38953752Y85003300D01*
X38749048Y85003300D01*
X38724729Y84999449D01*
X38546865Y84971278D01*
X38352176Y84908019D01*
X38169786Y84815085D01*
X38004186Y84694772D01*
X37859428Y84550014D01*
X37739115Y84384414D01*
X37691885Y84291720D01*
X37643910Y84240924D01*
X37576089Y84224129D01*
X37509954Y84246666D01*
X37470915Y84291720D01*
X37423820Y84384148D01*
X37423687Y84384410D01*
X37391492Y84428723D01*
X37303371Y84550014D01*
X37158613Y84694772D01*
X36993013Y84815085D01*
X36993012Y84815086D01*
X36993010Y84815087D01*
X36936053Y84844109D01*
X36810623Y84908019D01*
X36615934Y84971278D01*
X36441395Y84998922D01*
X36413752Y85003300D01*
X36209048Y85003300D01*
X36184729Y84999449D01*
X36006865Y84971278D01*
X35812176Y84908019D01*
X35629786Y84815085D01*
X35464186Y84694772D01*
X35319428Y84550014D01*
X35199113Y84384412D01*
X35151603Y84291170D01*
X35103628Y84240374D01*
X35035807Y84223580D01*
X34969672Y84246118D01*
X34930634Y84291172D01*
X34883261Y84384148D01*
X34850874Y84428723D01*
X34850874Y84428724D01*
X34171400Y83749249D01*
X34171400Y83755461D01*
X34144141Y83857194D01*
X34091480Y83948406D01*
X34017006Y84022880D01*
X33925794Y84075541D01*
X33824061Y84102800D01*
X33817846Y84102800D01*
X34497322Y84782276D01*
X34497321Y84782277D01*
X34452759Y84814653D01*
X34452750Y84814659D01*
X34270431Y84907556D01*
X34075817Y84970791D01*
X33873717Y85002800D01*
X33669083Y85002800D01*
X33466982Y84970791D01*
X33272368Y84907556D01*
X33090044Y84814657D01*
X33045477Y84782277D01*
X33045477Y84782276D01*
X33724954Y84102800D01*
X33718739Y84102800D01*
X33617006Y84075541D01*
X33525794Y84022880D01*
X33451320Y83948406D01*
X33398659Y83857194D01*
X33371400Y83755461D01*
X33371400Y83749247D01*
X32691924Y84428723D01*
X32691923Y84428723D01*
X32659543Y84384156D01*
X32612165Y84291170D01*
X32564190Y84240374D01*
X32496369Y84223579D01*
X32430234Y84246117D01*
X32391195Y84291170D01*
X32343684Y84384415D01*
X32223371Y84550014D01*
X32078613Y84694772D01*
X31913013Y84815085D01*
X31913012Y84815086D01*
X31913010Y84815087D01*
X31856053Y84844109D01*
X31730623Y84908019D01*
X31535934Y84971278D01*
X31361395Y84998922D01*
X31333752Y85003300D01*
X31129048Y85003300D01*
X31104729Y84999449D01*
X30926865Y84971278D01*
X30732176Y84908019D01*
X30549786Y84815085D01*
X30384186Y84694772D01*
X30239428Y84550014D01*
X30119115Y84384414D01*
X30071885Y84291720D01*
X30023910Y84240924D01*
X29956089Y84224129D01*
X29889954Y84246666D01*
X29850915Y84291720D01*
X29803820Y84384148D01*
X29803687Y84384410D01*
X29771492Y84428723D01*
X29683371Y84550014D01*
X29538613Y84694772D01*
X29373013Y84815085D01*
X29373012Y84815086D01*
X29373010Y84815087D01*
X29316053Y84844109D01*
X29190623Y84908019D01*
X28995934Y84971278D01*
X28821395Y84998922D01*
X28793752Y85003300D01*
X28698083Y85003300D01*
X28631044Y85022985D01*
X28585289Y85075789D01*
X28575345Y85144947D01*
X28604370Y85208503D01*
X28610402Y85214981D01*
X28672502Y85277081D01*
X28733825Y85310566D01*
X28760183Y85313400D01*
X41085415Y85313400D01*
X41152454Y85293715D01*
G37*
%TD.AperFunction*%
%TD*%
M02*
